<svg width="110" height="71" viewBox="0 0 110 71" fill="none" xmlns="http://www.w3.org/2000/svg">
<g clip-path="url(#clip0_1805_8169)">
<path d="M6.45287 37.629C4.67287 35.379 -0.167132 28.649 0.992868 20.539C2.66287 8.93904 15.5629 2.06904 24.7029 0.349042C30.9229 -0.820958 32.2029 1.03904 53.8129 3.91904C68.5229 5.88904 66.9829 4.89904 71.1729 5.96904C74.3729 6.78904 95.6529 12.209 104.363 31.499C105.423 33.849 114.303 53.169 104.373 64.089C97.9729 71.129 83.8629 73.749 55.3429 63.669C40.3129 58.919 24.7329 51.619 10.0229 40.439C8.80287 39.509 7.61287 38.579 6.45287 37.629Z" fill="#FFF4F0"/>
</g>
<g clip-path="url(#clip1_1805_8169)">
<path d="M60.6565 23.4281C60.202 22.9744 59.7187 22.4838 59.2259 22.0031C58.5552 21.3488 57.603 21.3344 56.9795 21.96C56.3547 22.5875 56.3779 23.5256 57.0436 24.1931C57.8846 25.0356 58.7287 25.875 59.5766 26.7113C60.2649 27.39 61.1807 27.395 61.8671 26.715C63.7219 24.8775 65.573 23.0363 67.4209 21.1925C68.0702 20.5444 68.0884 19.6006 67.48 18.9819C66.8571 18.3488 65.9055 18.3562 65.2361 19.0087C65.0431 19.1969 64.8734 19.4088 64.7238 19.5763C64.2398 19.3138 63.8376 19.0706 63.4127 18.875C63.2046 18.7787 63.1223 18.6669 63.1506 18.4525C63.16 18.3806 63.1524 18.3069 63.1518 18.2337C63.1468 17.1325 62.5201 16.5056 61.4208 16.505C59.9757 16.5044 58.5307 16.505 57.085 16.505H56.7299C56.7299 16.305 56.7318 16.1494 56.7299 15.9944C56.7199 15.3525 56.486 14.8038 55.9599 14.4281C55.6953 14.2387 55.3653 14.14 55.0649 14H48.968C48.9428 14.0169 48.9196 14.0413 48.8913 14.0494C47.8491 14.365 47.3394 15.0413 47.3369 16.1188C47.3356 16.785 47.3337 17.4519 47.3381 18.1181C47.3425 18.8325 47.7951 19.2962 48.5154 19.2987C50.8618 19.305 53.2082 19.305 55.5539 19.2981C56.2679 19.2962 56.7073 18.8538 56.7293 18.1481C56.7362 17.9231 56.7305 17.6975 56.7305 17.4588C56.8663 17.4519 56.9587 17.4431 57.0511 17.4431C58.5068 17.4419 59.9626 17.4413 61.4189 17.4425C62.0581 17.4438 62.3278 17.8119 62.1581 18.445C58.5445 17.7463 55.1479 20.4694 55.0215 24.1194C54.9656 25.7425 55.4936 27.18 56.6136 28.3644C58.1266 29.9637 60.0091 30.5294 62.1895 30.19C62.1964 30.2956 62.2065 30.3775 62.2065 30.4594C62.2071 35.0731 62.2077 39.6875 62.2058 44.3019C62.2052 44.86 61.989 45.0619 61.412 45.0619C55.1585 45.0625 48.9051 45.0625 42.6517 45.0619C42.0665 45.0619 41.866 44.8581 41.866 44.2656V18.2369C41.866 17.6488 42.0696 17.4438 42.6561 17.4425C43.6196 17.4413 44.5832 17.4444 45.5468 17.4406C45.8711 17.4394 46.0697 17.2631 46.0785 16.9919C46.0873 16.695 45.878 16.5075 45.5153 16.5062C44.5417 16.5025 43.5674 16.5031 42.5932 16.5056C41.5718 16.5075 40.9231 17.1506 40.9231 18.1638C40.9219 26.8925 40.9225 35.6206 40.9244 44.3487C40.9244 44.4937 40.9338 44.6412 40.964 44.7825C41.1035 45.4469 41.5724 45.7931 42.1796 46H61.9161C62.8558 45.6794 63.1669 45.0044 63.1625 44.0475C63.1392 39.4762 63.155 34.9044 63.1455 30.3325C63.1449 30.0275 63.2197 29.8756 63.5189 29.7306C65.644 28.7031 66.8049 27.0006 67.0011 24.6569C67.0319 24.2887 66.8571 24.0725 66.563 24.0581C66.2644 24.0431 66.0865 24.2362 66.0601 24.6044C65.8753 27.2181 63.9325 29.1494 61.2995 29.3381C58.3685 29.5481 55.7865 27.0156 55.9625 24.1038C56.1479 21.0438 58.8236 18.8981 61.8683 19.3787C62.6295 19.4987 63.3278 19.7844 63.8929 20.21C62.8099 21.2869 61.7401 22.3506 60.6565 23.4281ZM55.4395 18.3637C54.3094 18.3537 53.1786 18.3594 52.0485 18.3594C50.9183 18.3594 49.7876 18.3525 48.6574 18.3644C48.374 18.3675 48.2665 18.2831 48.2747 17.99C48.2935 17.3456 48.2772 16.7 48.2816 16.055C48.286 15.3675 48.7096 14.9406 49.3973 14.9388C51.1553 14.935 52.9134 14.935 54.672 14.9388C55.3503 14.9406 55.7708 15.3481 55.7827 16.0244C55.7946 16.69 55.7777 17.3562 55.7896 18.0219C55.7946 18.2819 55.696 18.3656 55.4395 18.3637ZM65.7427 19.8319C65.8238 19.7506 65.9023 19.665 65.9922 19.5944C66.2437 19.3969 66.5718 19.4138 66.793 19.6281C67.0067 19.835 67.0331 20.1794 66.8477 20.4262C66.7917 20.5012 66.7214 20.565 66.6547 20.6312C64.8696 22.4062 63.0852 24.1812 61.2995 25.9556C60.8645 26.3881 60.5848 26.3894 60.1549 25.9625C59.3397 25.1531 58.5225 24.3456 57.7123 23.5306C57.3384 23.155 57.4352 22.63 57.8965 22.4762C57.955 22.4562 58.0178 22.4488 58.1517 22.42C58.273 22.4975 58.4565 22.5781 58.5917 22.7081C59.1637 23.2581 59.7199 23.825 60.285 24.3825C60.62 24.7137 60.83 24.7144 61.1643 24.3819C62.6911 22.8663 64.2166 21.3488 65.7427 19.8319Z" fill="#E65425"/>
<path d="M44.9513 31.1367C43.9111 31.1311 43.055 31.973 43.0443 33.013C43.0336 34.0692 43.8815 34.9299 44.9362 34.9336C45.9815 34.9367 46.8338 34.0992 46.8432 33.0592C46.8527 32.0005 46.0092 31.143 44.9513 31.1367ZM44.9494 33.9942C44.4246 33.998 43.9915 33.568 43.9884 33.0417C43.9859 32.5161 44.4139 32.0805 44.9381 32.0761C45.4586 32.0717 45.8973 32.5074 45.8992 33.0305C45.9017 33.5574 45.4743 33.9911 44.9494 33.9942Z" fill="#E65425"/>
<path d="M44.9192 25.3771C43.877 25.3877 43.0398 26.2377 43.0442 27.2814C43.0486 28.3221 43.894 29.1664 44.9368 29.1721C45.9902 29.1771 46.8469 28.3196 46.8432 27.2639C46.8394 26.2083 45.9808 25.3664 44.9192 25.3771ZM44.9324 28.2327C44.4082 28.2246 43.9845 27.7883 43.9889 27.2614C43.9933 26.7346 44.4276 26.3089 44.955 26.3152C45.4805 26.3214 45.9035 26.7552 45.8991 27.2833C45.8947 27.8071 45.4534 28.2402 44.9324 28.2327Z" fill="#E65425"/>
<path d="M44.9669 36.8421C43.9267 36.8246 43.0624 37.6589 43.0448 38.6983C43.0272 39.7458 43.8525 40.6089 44.8896 40.6283C45.9626 40.6477 46.8268 39.8277 46.8425 38.7758C46.8589 37.7133 46.0311 36.8608 44.9669 36.8421ZM44.9324 39.6902C44.4025 39.6846 43.9833 39.2564 43.9889 38.7258C43.9939 38.2002 44.4295 37.7752 44.9556 37.7821C45.4849 37.7896 45.9035 38.2183 45.8985 38.7489C45.8941 39.2771 45.4648 39.6952 44.9324 39.6902Z" fill="#E65425"/>
<path d="M55.9113 32.3795C55.795 32.4164 55.6643 32.4195 55.5405 32.4195C53.1036 32.422 50.6667 32.4214 48.2298 32.4214C48.1669 32.4214 48.1034 32.4245 48.0412 32.4189C47.7345 32.3914 47.5359 32.1877 47.5522 31.9189C47.5679 31.6595 47.759 31.4877 48.0664 31.4864C49.353 31.482 50.639 31.4845 51.9257 31.4845C53.1601 31.4839 54.394 31.477 55.6284 31.492C55.7975 31.4939 56.0094 31.5627 56.125 31.677C56.3463 31.8964 56.2161 32.2814 55.9113 32.3795Z" fill="#E65425"/>
<path d="M55.9139 40.2552C55.7888 40.2965 55.6474 40.299 55.5128 40.299C53.0967 40.3015 50.6805 40.3009 48.2638 40.3009C48.1909 40.3009 48.1173 40.304 48.0444 40.2977C47.7364 40.2709 47.5378 40.0684 47.5523 39.8002C47.5661 39.5409 47.7565 39.3646 48.0626 39.3627C49.1921 39.3565 50.3223 39.3596 51.4518 39.359H51.8911C53.1357 39.359 54.3808 39.3521 55.6254 39.3671C55.7951 39.369 56.0069 39.4371 56.1238 39.5515C56.345 39.7684 56.2181 40.1559 55.9139 40.2552Z" fill="#E65425"/>
<path d="M54.2432 37.6355C54.2507 37.9324 54.0244 38.118 53.641 38.1187C51.8088 38.1205 49.976 38.1205 48.1437 38.1187C47.776 38.118 47.5585 37.9437 47.551 37.658C47.5428 37.3568 47.7591 37.183 48.1525 37.1824C49.0633 37.1812 49.9741 37.1818 50.8855 37.1818C51.8069 37.1818 52.7284 37.1812 53.6498 37.1824C54.0207 37.183 54.2369 37.3512 54.2432 37.6355Z" fill="#E65425"/>
<path d="M54.24 28.4588C54.2099 28.7181 54.0584 28.8781 53.7875 28.8887C53.5053 28.9 53.2224 28.895 52.9402 28.895C52.2595 28.8956 51.5794 28.895 50.8987 28.895V28.8931C49.9464 28.8931 48.9935 28.8981 48.0413 28.8906C47.7414 28.8881 47.5529 28.695 47.5523 28.4325C47.551 28.1737 47.7408 27.9881 48.0375 27.9612C48.1098 27.9544 48.1839 27.9581 48.2569 27.9575H49.6384C50.9263 27.9575 52.2136 27.9575 53.5015 27.9581C53.6058 27.9581 53.712 27.9537 53.8145 27.9687C54.0829 28.0081 54.2689 28.2163 54.24 28.4588Z" fill="#E65425"/>
<path d="M54.2431 26.2552C54.2419 26.5595 54.0206 26.7214 53.5957 26.7227C52.685 26.7239 51.7742 26.7227 50.8634 26.7227C49.9847 26.7227 49.1054 26.7239 48.226 26.7214C48.1116 26.7214 47.9614 26.7464 47.891 26.6858C47.754 26.5689 47.5987 26.412 47.5673 26.2489C47.5246 26.0302 47.6785 25.8545 47.9168 25.807C48.0287 25.7845 48.1456 25.7864 48.2606 25.7864C50.0193 25.7852 51.7773 25.7852 53.536 25.7852C53.5568 25.7852 53.5775 25.7852 53.5989 25.7858C54.0194 25.7902 54.2444 25.9545 54.2431 26.2552Z" fill="#E65425"/>
<path d="M52.3594 34.1118C52.3676 34.4087 52.1476 34.5924 51.7585 34.5955C51.1513 34.6005 50.5435 34.5968 49.9363 34.5968C49.3398 34.5968 48.7427 34.6005 48.1462 34.5955C47.771 34.5924 47.5598 34.4224 47.5516 34.1368C47.5434 33.8399 47.7622 33.6549 48.1525 33.6537C49.3562 33.6493 50.5605 33.6493 51.7648 33.6537C52.14 33.6549 52.3512 33.8274 52.3594 34.1118Z" fill="#E65425"/>
<path d="M47.5861 21.4173C47.5798 21.6979 47.3737 21.8723 47.0273 21.8754C46.5251 21.8798 46.0223 21.876 45.5201 21.876C45.0279 21.876 44.5358 21.8791 44.0442 21.8754C43.6791 21.8723 43.4716 21.6929 43.4779 21.3954C43.4842 21.1135 43.6879 20.9391 44.0348 20.9379C45.0292 20.9348 46.0236 20.9348 47.0179 20.9379C47.3812 20.9385 47.593 21.1235 47.5861 21.4173Z" fill="#E65425"/>
</g>
<defs>
<clipPath id="clip0_1805_8169">
<rect width="108.22" height="70.33" fill="white" transform="translate(0.812866)"/>
</clipPath>
<clipPath id="clip1_1805_8169">
<rect width="27" height="32" fill="white" transform="translate(40.9229 14)"/>
</clipPath>
</defs>
</svg>
