<svg width="110" height="71" viewBox="0 0 110 71" fill="none" xmlns="http://www.w3.org/2000/svg">
<g clip-path="url(#clip0_1805_8173)">
<path d="M6.45287 37.629C4.67287 35.379 -0.167132 28.649 0.992868 20.539C2.66287 8.93904 15.5629 2.06904 24.7029 0.349042C30.9229 -0.820958 32.2029 1.03904 53.8129 3.91904C68.5229 5.88904 66.9829 4.89904 71.1729 5.96904C74.3729 6.78904 95.6529 12.209 104.363 31.499C105.423 33.849 114.303 53.169 104.373 64.089C97.9729 71.129 83.8629 73.749 55.3429 63.669C40.3129 58.919 24.7329 51.619 10.0229 40.439C8.80287 39.509 7.61287 38.579 6.45287 37.629Z" fill="#FFF4F0"/>
</g>
<g clip-path="url(#clip1_1805_8173)">
<path d="M68.2103 27.845H58.2883V14.709C58.2883 14.1305 58.1646 14 57.61 14H41.5966C41.0591 14 40.9269 14.1348 40.9269 14.6872C40.9226 24.5523 40.9226 34.4173 40.9269 44.2867C40.9269 44.8521 41.0549 44.9783 41.6179 44.9783C44.4546 44.9826 47.2913 44.9783 50.1323 44.9826C53.6003 44.987 57.064 45 60.532 45C63.1 45 65.6722 44.987 68.2401 44.9783C68.7947 44.9783 68.9226 44.8478 68.9226 44.278V28.5583C68.9226 27.9798 68.7904 27.845 68.2103 27.845ZM49.0957 24.8437V30.3939H44.6892V24.8437H49.0957ZM44.6978 23.8172V18.3497H49.1042V23.8172H44.6978ZM49.1042 43.9865H44.6978V37.9971H49.1042V43.9865ZM49.1085 36.9836H44.6935V31.4073H49.1085V36.9836ZM54.5174 43.9822H50.0981V37.9971H54.5174V43.9822ZM50.1067 36.9836V31.4073H54.5131V36.9836H50.1067ZM54.5259 30.3895H50.1024V24.8437H54.5259V30.3895ZM54.5259 23.8215C54.4193 23.8302 54.3254 23.8433 54.2273 23.8433C52.9391 23.8433 51.6509 23.8389 50.3583 23.8433C50.192 23.8433 50.0768 23.8389 50.0768 23.6084C50.0853 21.9077 50.0853 20.2026 50.0853 18.5019C50.0853 18.4627 50.0939 18.4236 50.1024 18.3584H54.5259V23.8215ZM57.3072 43.9822H55.4985V43.6255C55.5028 41.5768 55.5113 39.5281 55.5113 37.4794C55.5113 35.4395 55.4985 33.3995 55.4985 31.3638C55.5028 29.0194 55.5113 26.6749 55.5113 24.3304C55.5113 22.2296 55.5028 20.1287 55.4985 18.0321C55.4985 17.5015 55.3535 17.3579 54.8416 17.3536H44.4674C43.8318 17.3536 43.7124 17.471 43.7124 18.1191V43.9822H41.9037V15.0004H57.3072V43.9822ZM62.6307 43.9778H60.6856V31.4073H62.6307V43.9778ZM65.5826 43.9648H63.6374V31.4073H65.5826V43.9648ZM67.9373 43.9822H66.5594V31.1724C66.5594 30.5374 66.4315 30.4113 65.8002 30.4113H60.4296C59.8367 30.4113 59.7045 30.5417 59.7045 31.142V43.9865H58.3053V28.8497H67.9373V43.9822Z" fill="#E65425"/>
<path d="M66.5554 23.2871C66.5298 23.6612 66.3293 23.8786 66.0307 23.8612C65.7407 23.8482 65.5914 23.6394 65.5956 23.2566C65.5999 22.7999 65.297 22.5563 64.8705 22.6999C64.5804 22.7956 64.3756 22.7216 64.2007 22.4693C63.9448 22.0953 63.6718 21.9909 63.241 22.1127C62.9765 22.191 62.7845 22.1301 62.6054 21.9213C62.2001 21.4428 61.6328 21.3471 61.1593 21.6647C60.6943 21.9691 60.545 22.5259 60.7797 23.0914C60.946 23.4915 60.7797 23.8699 60.4128 23.8482C60.255 23.8395 60.0332 23.7134 59.9649 23.5785C59.8199 23.2784 59.7516 22.9348 59.6962 22.7564C59.7346 21.756 60.0886 21.121 60.8223 20.7425C61.5773 20.3511 62.3025 20.4468 62.9978 20.9339C63.1215 21.0209 63.2964 21.0775 63.4457 21.0818C63.9064 21.0905 64.3031 21.2253 64.6657 21.5168C64.7681 21.5994 64.9216 21.656 65.0581 21.6603C65.9369 21.6734 66.6194 22.4085 66.5554 23.2871Z" fill="#E65425"/>
</g>
<defs>
<clipPath id="clip0_1805_8173">
<rect width="108.22" height="70.33" fill="white" transform="translate(0.812866)"/>
</clipPath>
<clipPath id="clip1_1805_8173">
<rect width="28" height="31" fill="white" transform="translate(40.9229 14)"/>
</clipPath>
</defs>
</svg>
