<svg width="110" height="71" viewBox="0 0 110 71" fill="none" xmlns="http://www.w3.org/2000/svg">
<g clip-path="url(#clip0_1607_4512)">
<path d="M6.45287 37.629C4.67287 35.379 -0.167132 28.649 0.992868 20.539C2.66287 8.93904 15.5629 2.06904 24.7029 0.349042C30.9229 -0.820958 32.2029 1.03904 53.8129 3.91904C68.5229 5.88904 66.9829 4.89904 71.1729 5.96904C74.3729 6.78904 95.6529 12.209 104.363 31.499C105.423 33.849 114.303 53.169 104.373 64.089C97.9729 71.129 83.8629 73.749 55.3429 63.669C40.3129 58.919 24.7329 51.619 10.0229 40.439C8.80287 39.509 7.61287 38.579 6.45287 37.629Z" fill="#FFF4F0"/>
</g>
<g clip-path="url(#clip1_1607_4512)">
<path d="M68.8393 45.6348C68.8909 45.1694 68.9776 44.7362 68.9792 44.3023C68.9925 41.5807 68.9862 38.8584 68.9854 36.1368C68.9854 34.8228 68.2143 34.0243 66.9471 34.0243C63.705 34.0243 60.4636 34.0186 57.2214 34.0299C56.6995 34.0315 56.1768 34.1098 55.655 34.1485C55.5776 34.1549 55.4995 34.142 55.4229 34.1348C55.0253 34.0985 54.6284 34.0444 54.23 34.0283C53.7643 34.0097 53.2971 34.0243 52.8339 34.0243C52.8034 33.6718 52.8026 33.6701 53.0237 33.4854C53.7932 32.8434 54.294 32.0222 54.5479 31.0373C54.5815 30.9058 54.6096 30.7719 54.6385 30.6493C55.7057 30.5541 56.3987 29.9451 56.5409 28.9772C56.58 28.711 56.5682 28.4343 56.562 28.1625C56.5425 27.2768 56.605 26.3766 56.4745 25.5079C55.9495 22.0007 52.9112 19.6558 49.4745 20.0414C46.7823 20.3439 44.4354 22.5557 44.0432 25.3071C43.876 26.4839 43.9229 27.6979 43.9339 28.8941C43.937 29.2184 44.1175 29.5741 44.3003 29.8572C44.6542 30.4065 45.2096 30.6219 45.8401 30.6493C46.0534 31.8012 46.569 32.7611 47.4573 33.4846C47.637 33.6306 47.7018 33.7782 47.6268 34.0251C47.0714 34.0251 46.5073 34.0202 45.9432 34.0267C43.1753 34.0581 40.8932 36.399 40.8651 39.2528C40.8487 40.8959 40.8409 42.5398 40.876 44.1821C40.8846 44.5878 41.0729 44.9895 41.1846 45.3912C41.2065 45.4703 41.2589 45.5396 41.3104 45.6397C41.0268 45.6397 40.7831 45.6388 40.5393 45.6397C40.0784 45.6421 39.9237 45.7994 39.9237 46.2737C39.9221 47.2819 39.9229 48.2894 39.9229 49.2977C39.9229 49.8543 40.0589 49.9954 40.5956 49.9954C50.1448 49.9954 59.694 49.9946 69.2432 50.0003C69.5292 50.0011 69.7565 49.9382 69.9229 49.6929V45.9421C69.637 45.4767 69.1557 45.7058 68.8393 45.6348ZM55.3925 45.3097C55.3925 42.2559 55.3917 39.2028 55.3925 36.1489C55.3925 35.3471 55.7386 34.9922 56.5198 34.9922H66.9448C67.6979 34.9922 68.0479 35.3584 68.0479 36.1441C68.0487 38.9261 68.0487 41.7074 68.0479 44.4886C68.0479 45.2751 67.6979 45.6397 66.9432 45.6397H55.3925V45.3097ZM54.701 29.6475V27.7511C55.2089 27.7051 55.6432 28.2343 55.6276 28.7175C55.6104 29.2385 55.2229 29.6394 54.701 29.6475ZM45.7675 29.6531C45.2292 29.6209 44.855 29.224 44.8448 28.7054C44.8362 28.2948 45.1714 27.7455 45.7675 27.7455V29.6531ZM44.8471 27.0389C44.7768 24.8134 45.5339 23.0469 47.3182 21.8636C49.1409 20.6544 51.0565 20.6254 52.9456 21.7224C54.751 22.7702 55.7518 24.7932 55.6159 26.938C55.2503 26.88 54.8815 26.83 54.5175 26.7549C54.437 26.7388 54.3628 26.6428 54.3057 26.5678C53.8198 25.9241 53.3401 25.2756 52.855 24.6311C52.58 24.2665 52.3104 24.2439 52.0003 24.5698C50.5682 26.0742 48.8276 26.7929 46.7909 26.7646C46.7128 26.7638 46.6346 26.763 46.5565 26.7646C45.9862 26.7759 45.4034 26.6848 44.8471 27.0389ZM46.7932 30.5219C46.6964 29.6177 46.7761 28.6941 46.7761 27.7414C47.7682 27.7495 48.7839 27.6027 49.7589 27.2252C50.7284 26.8501 51.5893 26.2903 52.3698 25.5652C52.8182 26.1661 53.2362 26.7235 53.6495 27.2849C53.6987 27.3518 53.7471 27.4438 53.7464 27.5237C53.7354 28.5198 53.787 29.5241 53.6815 30.5098C53.4964 32.2279 51.9432 33.5435 50.2276 33.5403C48.5292 33.537 46.9753 32.2206 46.7932 30.5219ZM51.1159 36.1723C50.5276 36.5571 49.9128 36.5506 49.3292 36.1537C48.6511 35.6915 48.5315 34.9946 48.6151 34.1928C49.6995 34.6131 50.7753 34.6099 51.8565 34.1953C51.9448 35.0099 51.8135 35.7165 51.1159 36.1723ZM41.7987 39.4391C41.8034 36.895 43.6503 34.997 46.1221 34.9922C46.6292 34.9914 47.1362 34.9922 47.6362 34.9922C48.1784 36.6764 48.9526 37.4032 50.2089 37.4105C50.8815 37.4145 51.4721 37.1798 51.9706 36.716C52.462 36.2586 52.719 35.6722 52.8104 35.0027H54.6706C54.2862 36.0271 54.4831 37.0797 54.4628 38.1138C54.4315 39.6964 54.455 41.279 54.455 42.8616V43.2182C53.5635 43.2182 52.6979 43.2222 51.8323 43.2125C51.7573 43.2117 51.6768 43.1383 51.6096 43.0843C50.9417 42.5422 50.1815 42.2607 49.3354 42.2551C47.7925 42.2454 46.2503 42.251 44.7073 42.2526C44.3604 42.2534 44.1503 42.4357 44.1448 42.7269C44.1393 43.0286 44.3565 43.2182 44.7206 43.219C45.9698 43.2206 47.2198 43.2198 48.4698 43.2198H48.8089V45.6259C48.7128 45.6308 48.6182 45.6388 48.5245 45.6388C46.7964 45.6397 45.0682 45.6405 43.3401 45.6397C42.3698 45.6388 41.7995 45.0452 41.7987 44.0361C41.7971 42.5035 41.7964 40.9717 41.7987 39.4391ZM54.4409 44.2055V45.6243H53.062C52.9073 45.1428 52.7581 44.6806 52.605 44.2055H54.4409ZM52.0409 45.6388C51.3104 45.6388 50.6081 45.6388 49.9057 45.638C49.869 45.638 49.8323 45.6292 49.7823 45.6219V43.2956C50.8393 43.3674 51.9784 44.5418 52.0409 45.6388ZM68.9714 49.0057H40.8729V46.6237H68.9714V49.0057Z" fill="#E65425"/>
<path d="M61.7175 37.8965C60.4371 37.8965 59.3816 38.979 59.3777 40.2962C59.373 41.6489 60.43 42.7403 61.7394 42.7354C63.016 42.7314 64.0613 41.6441 64.0629 40.3196C64.0652 38.9814 63.0144 37.8965 61.7175 37.8965ZM61.6957 41.7659C60.9215 41.7538 60.2996 41.081 60.316 40.2744C60.3316 39.4912 60.9816 38.8507 61.7449 38.866C62.523 38.8814 63.1425 39.5509 63.1246 40.3567C63.1066 41.1432 62.4629 41.778 61.6957 41.7659Z" fill="#E65425"/>
</g>
<defs>
<clipPath id="clip0_1607_4512">
<rect width="108.22" height="70.33" fill="white" transform="translate(0.812866)"/>
</clipPath>
<clipPath id="clip1_1607_4512">
<rect width="30" height="30" fill="white" transform="translate(39.923 20)"/>
</clipPath>
</defs>
</svg>
