<svg width="110" height="71" viewBox="0 0 110 71" fill="none" xmlns="http://www.w3.org/2000/svg">
<g clip-path="url(#clip0_1805_8165)">
<path d="M6.45287 37.629C4.67287 35.379 -0.167132 28.649 0.992868 20.539C2.66287 8.93904 15.5629 2.06904 24.7029 0.349042C30.9229 -0.820958 32.2029 1.03904 53.8129 3.91904C68.5229 5.88904 66.9829 4.89904 71.1729 5.96904C74.3729 6.78904 95.6529 12.209 104.363 31.499C105.423 33.849 114.303 53.169 104.373 64.089C97.9729 71.129 83.8629 73.749 55.3429 63.669C40.3129 58.919 24.7329 51.619 10.0229 40.439C8.80287 39.509 7.61287 38.579 6.45287 37.629Z" fill="#FFF4F0"/>
</g>
<g clip-path="url(#clip1_1805_8165)">
<path d="M69.9179 19.4067C69.872 18.6651 69.2679 18.0485 68.5262 18.0076C68.1521 17.9868 67.7762 17.9935 67.4013 18.0051C67.0963 18.0143 66.9171 18.2126 66.9188 18.5034C66.9204 18.7934 67.1004 18.9834 67.4079 18.9967C67.6679 19.0075 67.9287 19 68.1896 19C68.7904 19.0009 68.922 19.1309 68.922 19.7316V33.9846H40.9228V19.6533C40.9237 19.1592 41.082 19.0025 41.5778 19C41.8586 18.9992 42.1403 19.0067 42.4211 18.9975C42.7453 18.9859 42.9328 18.7884 42.9253 18.4859C42.9194 18.1993 42.7361 18.0151 42.4253 18.0035C42.1653 17.9935 41.9045 18.0001 41.6436 18.0001C40.5145 18.001 39.9229 18.5867 39.9229 19.7067V37.2977C39.9229 38.3984 40.5203 38.9984 41.6203 38.9984H68.2121C69.3345 38.9984 69.922 38.4068 69.922 37.2794V19.7192C69.922 19.615 69.9245 19.5108 69.9179 19.4067ZM68.9204 37.4135C68.9179 37.8118 68.7421 37.9851 68.3521 37.996C68.2787 37.9976 68.2062 37.996 68.1329 37.996H41.7053C41.0395 37.996 40.9228 37.881 40.9228 37.2202V35.0095H68.9004C68.9087 35.067 68.9204 35.1162 68.9204 35.1645C68.922 35.9145 68.9245 36.6644 68.9204 37.4135Z" fill="#E65425"/>
<path d="M64.2372 15H45.6168C44.5152 15 43.9227 15.595 43.9227 16.7007V32.2577C43.9227 32.7752 44.0752 32.9985 44.4269 32.9952C44.7769 32.9927 44.9227 32.7744 44.9227 32.2511V20.0129H64.9213V32.2302C64.9213 32.3444 64.9146 32.4602 64.928 32.5735C64.958 32.8352 65.1521 33.0002 65.4163 33.0018C65.7621 33.0035 65.9205 32.7952 65.9205 32.3311C65.9213 27.114 65.9213 21.8969 65.9213 16.6799C65.9205 15.6 65.3188 15 64.2372 15ZM64.9213 18.9888H44.9435C44.936 18.9113 44.9244 18.8422 44.9235 18.7722C44.9227 18.0539 44.921 17.3356 44.9235 16.6174C44.9252 16.1657 45.0927 16.0049 45.5502 15.9999H64.168C64.7938 15.9999 64.9205 16.1249 64.9213 16.7415V18.9888Z" fill="#E65425"/>
<path d="M61.9173 43.4076C61.8889 42.7835 61.444 42.2185 60.834 42.066C60.5765 42.001 60.2965 41.9869 60.0307 42.006C59.709 42.0285 59.459 41.9327 59.2698 41.6861C58.904 41.2094 58.5399 40.732 58.1915 40.2428C58.0082 39.9862 57.7466 39.8862 57.4974 40.0237C57.2632 40.1529 57.1816 40.427 57.3032 40.6995C57.3582 40.822 57.4199 40.9445 57.4941 41.0569C57.6991 41.3628 57.9124 41.6636 58.1365 41.9869H51.7309C51.9967 41.5711 52.2609 41.1878 52.4925 40.7845C52.6867 40.4462 52.6059 40.147 52.325 40.0112C52.0534 39.8795 51.8026 40.002 51.6117 40.3203C51.4259 40.6311 51.2251 40.9361 51.0076 41.2261C50.6126 41.7527 50.1618 42.091 49.4135 42.0194C48.6068 41.9419 47.9527 42.6485 47.926 43.4634C47.9177 43.7234 47.9235 43.9842 47.9235 44.2442C47.9243 44.8616 48.0585 44.9974 48.6718 44.9974H60.6065C60.8673 44.9974 61.1273 45.0041 61.3873 44.9949C61.7214 44.9833 61.9106 44.7991 61.9198 44.4692C61.9289 44.115 61.9331 43.7609 61.9173 43.4076ZM60.904 43.9767H48.9235C48.9235 43.8309 48.9218 43.7076 48.9243 43.5834C48.9326 43.1734 49.1043 42.9993 49.5201 42.9984C51.2792 42.9968 53.0392 42.9976 54.7983 42.9976H60.0448C60.8648 42.9976 60.9731 43.1184 60.904 43.9767Z" fill="#E65425"/>
<path d="M56.9524 22.4146C56.9065 22.5871 56.8857 22.6888 56.8532 22.7862C55.8807 25.7027 54.9074 28.6183 53.9333 31.5339C53.8041 31.9197 53.5733 32.0696 53.275 31.9738C52.9725 31.8763 52.8583 31.6222 52.9741 31.2705C53.3908 30.0073 53.8124 28.7466 54.2333 27.485C54.7882 25.8202 55.3424 24.1545 55.9024 22.4913C55.9474 22.3571 56.0049 22.1813 56.1099 22.1255C56.2565 22.0471 56.4765 22.003 56.6224 22.0571C56.7674 22.1113 56.859 22.3063 56.9524 22.4146Z" fill="#E65425"/>
<path d="M51.2 29.9399C50.9875 30.0765 50.7851 30.0324 50.5984 29.8774C49.9426 29.3316 49.2876 28.7858 48.6326 28.24C48.3135 27.9734 47.991 27.7101 47.6743 27.4401C47.3326 27.1493 47.3351 26.8443 47.6818 26.5535C48.6134 25.7719 49.5484 24.9928 50.4834 24.2137C50.8067 23.9437 51.1009 23.9296 51.3034 24.1712C51.5117 24.4203 51.4525 24.707 51.1334 24.9745C50.3359 25.6402 49.5376 26.3052 48.7051 26.9993C49.5451 27.6984 50.3526 28.3675 51.1542 29.0441C51.2609 29.135 51.3725 29.2499 51.4184 29.3766C51.5017 29.6074 51.405 29.8074 51.2 29.9399Z" fill="#E65425"/>
<path d="M62.1948 27.4197C61.2248 28.2379 60.2482 29.0495 59.2707 29.8578C59.0024 30.0795 58.7199 30.0578 58.5266 29.8245C58.3357 29.5928 58.3716 29.3095 58.6366 29.0879C59.4574 28.3996 60.2815 27.7163 61.1415 27.0005C60.2965 26.2948 59.4824 25.6173 58.6699 24.9366C58.3541 24.6724 58.3357 24.2983 58.6299 24.095C58.8457 23.9458 59.0632 23.9658 59.2624 24.1308C60.2457 24.9491 61.2307 25.7665 62.2081 26.5931C62.5064 26.8456 62.4989 27.1639 62.1948 27.4197Z" fill="#E65425"/>
<path d="M56.4616 36.5058C56.4599 36.7992 56.2599 36.99 55.9333 36.9958C55.6 37.0016 55.2666 36.9966 54.9333 36.9966C54.61 36.9966 54.2875 37.0033 53.9642 36.9941C53.6417 36.9858 53.4358 36.7842 53.4375 36.4983C53.4392 36.2159 53.6508 36.0059 53.97 36.0026C54.6258 35.9942 55.2825 35.9934 55.9383 36.0034C56.2591 36.0076 56.4633 36.2184 56.4616 36.5058Z" fill="#E65425"/>
<path d="M63.9122 17.5112C63.9047 17.8187 63.6905 17.9987 63.313 17.9995C62.3456 18.002 61.3773 18.0003 60.4089 18.0003C59.4515 18.0003 58.4932 18.0012 57.5357 17.9995C57.1215 17.9987 56.9199 17.8362 56.9174 17.5087C56.9149 17.1796 57.1224 17.0021 57.5257 17.0012C59.4515 16.9996 61.3781 16.9996 63.3039 17.0012C63.6997 17.0012 63.9197 17.1904 63.9122 17.5112Z" fill="#E65425"/>
<path d="M46.9202 17.5044C46.9168 17.7752 46.6869 18.0002 46.4169 17.9969C46.146 17.9936 45.9219 17.7644 45.9252 17.4936C45.9285 17.2211 46.156 16.9995 46.4277 17.002C46.7002 17.0053 46.9235 17.2336 46.9202 17.5044Z" fill="#E65425"/>
<path d="M48.9201 17.4887C48.926 17.7587 48.7035 17.9912 48.4326 17.997C48.1627 18.0036 47.931 17.7812 47.9252 17.5095C47.9193 17.2379 48.1393 17.0087 48.4118 17.0021C48.6835 16.9962 48.9135 17.217 48.9201 17.4887Z" fill="#E65425"/>
<path d="M50.92 17.5104C50.9133 17.7803 50.6809 18.0036 50.4109 17.997C50.1409 17.9912 49.9192 17.7587 49.925 17.4887C49.9317 17.2162 50.1609 16.9962 50.4334 17.0021C50.705 17.0087 50.9258 17.2395 50.92 17.5104Z" fill="#E65425"/>
</g>
<defs>
<clipPath id="clip0_1805_8165">
<rect width="108.22" height="70.33" fill="white" transform="translate(0.812866)"/>
</clipPath>
<clipPath id="clip1_1805_8165">
<rect width="30" height="30" fill="white" transform="translate(39.9229 15)"/>
</clipPath>
</defs>
</svg>
