<svg width="31" height="30" viewBox="0 0 31 30" fill="none" xmlns="http://www.w3.org/2000/svg">
<path d="M26.4119 23.0265V28.9828H5.44511V16.997H5.80514C8.28534 16.997 10.7662 16.9976 13.2464 16.9957C13.4114 16.9951 13.5808 16.9963 13.7408 16.9613C14.4734 16.8007 14.9246 16.2025 14.9246 15.3968C14.9259 11.3831 14.9253 7.36951 14.9253 3.35651V3.0146H20.4276V9.00159H26.425V15.9812H27.4038C27.4094 15.9193 27.4169 15.8725 27.4169 15.8256C27.4182 13.374 27.4201 10.9231 27.4107 8.47215C27.4107 8.35589 27.3326 8.21337 27.2469 8.12711C25.2705 6.13999 23.2872 4.16036 21.3108 2.17324C21.1727 2.03447 21.0327 1.99322 20.8464 1.99384C18.9812 1.99884 17.1161 1.99697 15.2509 1.99697H14.9253C14.9253 1.86883 14.9259 1.78194 14.9253 1.69506C14.9203 0.589292 14.329 0.000468809 13.2214 0.000468809C9.67671 -0.00015627 6.13204 -0.00015627 2.58737 0.000468809C1.52478 0.000468809 0.924729 0.605544 0.924104 1.67505V7.03635C0.924104 9.8292 0.925979 12.622 0.922853 15.4149C0.922228 15.9025 1.07912 16.315 1.44915 16.635C1.74167 16.8876 2.08483 17.002 2.47298 16.9982C3.11491 16.9926 3.75621 16.997 4.42877 16.997V17.3745C4.42877 21.4563 4.42877 25.538 4.4294 29.6198C4.4294 29.7467 4.43627 29.8736 4.44002 29.9998H27.4076C27.4107 29.9611 27.4176 29.9223 27.4176 29.8836C27.4182 27.667 27.4182 25.4505 27.4176 23.2334C27.4176 23.1677 27.4082 23.1015 27.4026 23.0265H26.4119ZM21.4402 3.84407C22.8084 5.20987 24.1979 6.59692 25.5749 7.97209H21.4402V3.84407ZM2.60737 15.9981C2.0817 15.9981 1.92294 15.8412 1.92294 15.3218C1.92231 13.0471 1.92231 10.7731 1.92231 8.49841V1.70381C1.92231 1.14811 2.0742 0.998719 2.63925 0.998719C6.16329 0.998093 9.68734 0.998093 13.2108 0.998719C13.7733 0.998719 13.9271 1.14999 13.9271 1.70693V15.2949C13.9271 15.8418 13.7733 15.9981 13.2376 15.9981C9.69421 15.9987 6.15079 15.9987 2.60737 15.9981Z" fill="#1B1B1B"/>
<path d="M30.2365 15.7703C29.6065 15.369 28.8377 15.4684 28.2633 16.0422C26.0606 18.2425 23.8591 20.444 21.6583 22.6462C21.0101 23.295 20.2632 23.8769 19.75 24.6201C19.2256 25.3784 18.9331 26.2966 18.5387 27.1448C18.5349 27.1536 18.5293 27.1617 18.5249 27.1705C18.4062 27.4055 18.3699 27.6405 18.5718 27.8468C18.7737 28.0518 19.0006 28.0187 19.2444 27.9043C20.0019 27.5474 20.7689 27.2092 21.5246 26.8473C21.7221 26.7523 21.9152 26.6229 22.0696 26.4685C24.7592 23.7888 27.4401 21.1003 30.129 18.4206C30.4778 18.0731 30.8053 17.723 30.9228 17.2273V16.8167C30.7991 16.3991 30.6241 16.0178 30.2365 15.7703ZM27.3913 19.7414C25.4774 21.651 23.5541 23.5513 21.6633 25.4834C21.1889 25.9684 20.5807 26.1416 20.0051 26.426C20.2701 25.8666 20.4238 25.274 20.8901 24.8152C22.8453 22.8924 24.7748 20.9434 26.7144 19.0044C26.7825 18.9369 26.8538 18.8726 26.9356 18.795C27.1819 19.0376 27.4044 19.2557 27.682 19.5289C27.5794 19.6026 27.4732 19.6602 27.3913 19.7414ZM28.3389 18.7432C28.137 18.5213 27.9232 18.2869 27.6932 18.0337C27.7732 17.9487 27.8713 17.8449 27.9595 17.7512C28.1976 17.9949 28.4183 18.2212 28.6452 18.4538C28.5708 18.5244 28.4614 18.6275 28.3389 18.7432ZM29.4221 17.6912C29.1871 17.453 28.9652 17.228 28.7427 17.0023C29.1377 16.5023 29.469 16.3866 29.7534 16.6573C30.0397 16.9292 29.9484 17.2192 29.4221 17.6912Z" fill="#E65425"/>
<path d="M12.3982 17.9962C9.63543 18.0124 7.41524 20.2646 7.4265 23.0387C7.43775 25.7815 9.69793 28.0156 12.4482 28.0024C15.194 27.9899 17.4355 25.7328 17.4261 22.9899C17.4161 20.2296 15.1509 17.9799 12.3982 17.9962ZM12.4288 27.0036C10.2386 27.0086 8.43408 25.2165 8.42408 23.0274C8.4147 20.8147 10.193 19.0119 12.4019 18.9957C14.604 18.9788 16.4104 20.7715 16.4229 22.9849C16.4354 25.184 14.6315 26.9992 12.4288 27.0036Z" fill="#1B1B1B"/>
<path d="M24.9093 14.5195H18.9294V15.479H24.9093V14.5195Z" fill="#E65425"/>
<path d="M24.9092 12.5117H18.9406V13.4793H24.9092V12.5117Z" fill="#1B1B1B"/>
<path d="M24.9086 10.5176H18.9356V11.4721H24.9086V10.5176Z" fill="#E65425"/>
<path d="M24.9092 16.5273H18.9362V17.4881H24.9092V16.5273Z" fill="#1B1B1B"/>
<path d="M17.9056 14.5156H16.9336V15.4764H17.9056V14.5156Z" fill="#1B1B1B"/>
<path d="M17.9031 16.5254H16.9336V17.4899H17.9031V16.5254Z" fill="#E65425"/>
<path d="M17.908 10.5117H16.9392V11.4756H17.908V10.5117Z" fill="#1B1B1B"/>
<path d="M17.8981 12.5195H16.9386V13.4759H17.8981V12.5195Z" fill="#E65425"/>
<path d="M2.44299 1.52344V4.97449H13.3939V1.52344H2.44299ZM12.3938 3.97624H3.44433V2.52294H12.3938V3.97624Z" fill="#E65425"/>
<path d="M9.42109 13.5304C9.41046 12.9434 9.02855 12.5309 8.44351 12.5002C8.09285 12.4821 7.7397 12.4809 7.38967 12.5015C6.81775 12.5352 6.43834 12.9453 6.42896 13.516C6.42334 13.8379 6.42334 14.1598 6.42896 14.4817C6.43834 15.0562 6.814 15.46 7.38967 15.4931C7.7397 15.5137 8.09285 15.5125 8.44288 15.4944C9.03356 15.4631 9.41046 15.0574 9.42109 14.4674C9.42421 14.3117 9.42171 14.1554 9.42171 13.9992C9.42171 13.8429 9.42421 13.6866 9.42109 13.5304ZM8.4085 14.4724H7.44592V13.5116H8.4085V14.4724Z" fill="#1B1B1B"/>
<path d="M12.9264 13.5308C12.9108 12.9307 12.5138 12.5231 11.9144 12.4988C11.5831 12.4856 11.2506 12.4838 10.9193 12.4994C10.3299 12.5275 9.94926 12.9257 9.92926 13.5164C9.92738 13.5745 9.92676 13.6326 9.92676 13.6914C9.92676 13.7895 9.92863 13.8871 9.92863 13.9846C9.92801 14.0727 9.92738 14.1602 9.92738 14.2483C9.92738 14.3071 9.92738 14.3652 9.92863 14.424C9.93926 15.0872 10.3205 15.4816 10.9781 15.4998C11.29 15.5085 11.6031 15.511 11.915 15.4973C12.5201 15.4704 12.9108 15.0703 12.9264 14.4678C12.9345 14.1552 12.9345 13.8427 12.9264 13.5308ZM11.9119 14.479H10.9512V13.5139H11.9119V14.479Z" fill="#1B1B1B"/>
<path d="M5.91891 14.1598C5.91891 14.1104 5.91828 14.061 5.91828 14.0116C5.91891 13.9266 5.91953 13.8416 5.91953 13.7566C5.91953 13.7141 5.91953 13.6716 5.91891 13.6291C5.91891 13.6003 5.91891 13.5716 5.91828 13.5428C5.90453 12.9071 5.50887 12.5114 4.86694 12.497C4.55504 12.4895 4.24189 12.4858 3.92999 12.4989C3.33056 12.5246 2.93428 12.9346 2.92241 13.5334C2.91616 13.846 2.91553 14.1585 2.92241 14.4704C2.93491 15.0586 3.31869 15.4643 3.90624 15.4949C4.24689 15.5131 4.59004 15.5131 4.9307 15.4962C5.527 15.4674 5.9014 15.0742 5.91766 14.4798C5.92078 14.3735 5.91953 14.2666 5.91891 14.1598ZM4.9032 14.4804H3.93687V13.5184H4.9032V14.4804Z" fill="#1B1B1B"/>
<path d="M9.41733 6.44762C9.39795 5.93193 8.99104 5.52625 8.47663 5.50813C8.1066 5.495 7.73469 5.49438 7.36466 5.50813C6.85149 5.52751 6.45271 5.93756 6.43021 6.4545C6.4227 6.63952 6.42896 6.82517 6.42896 7.01082C6.42896 7.01082 6.42833 7.01082 6.42771 7.01082C6.42771 7.16709 6.42521 7.32335 6.42833 7.479C6.44021 8.07657 6.84837 8.48725 7.44404 8.49725C7.78532 8.50225 8.12785 8.50725 8.4685 8.49475C8.98354 8.47537 9.39608 8.0722 9.41733 7.56026C9.43233 7.19021 9.43171 6.81829 9.41733 6.44762ZM8.40162 7.48025H7.44341V6.50825H8.40162V7.48025Z" fill="#1B1B1B"/>
<path d="M5.91829 6.99754C5.91829 6.8419 5.92204 6.68563 5.91766 6.52936C5.90203 5.90678 5.50388 5.51111 4.8832 5.50361C4.5613 5.49986 4.23877 5.49736 3.91687 5.50486C3.3687 5.51736 2.95179 5.91241 2.92616 6.45935C2.90929 6.8194 2.90866 7.18194 2.92616 7.54199C2.95304 8.08768 3.37182 8.48273 3.91999 8.49523C4.2519 8.50273 4.5838 8.50273 4.91508 8.49586C5.48513 8.4846 5.89141 8.08956 5.91579 7.52448C5.92329 7.34946 5.91704 7.17319 5.91704 6.99754C5.91766 6.99754 5.91766 6.99754 5.91829 6.99754ZM4.8982 7.4851H3.93625V6.52561H4.8982V7.4851Z" fill="#1B1B1B"/>
<path d="M12.9251 6.50928C12.9057 5.91295 12.4907 5.51353 11.8931 5.50352C11.7369 5.5004 11.5806 5.5029 11.425 5.5029C11.2687 5.5029 11.1124 5.5004 10.9562 5.50352C10.3499 5.51353 9.94858 5.90295 9.93108 6.50803C9.92108 6.83994 9.92045 7.17186 9.93108 7.50378C9.95045 8.0901 10.3555 8.48577 10.9399 8.4964C11.2624 8.50203 11.5843 8.50202 11.9062 8.49577C12.4857 8.48577 12.9013 8.0851 12.9245 7.50503C12.9376 7.17373 12.9363 6.84119 12.9251 6.50928ZM11.9156 7.48127H10.9443V6.52428H11.9156V7.48127Z" fill="#1B1B1B"/>
<path d="M9.41732 9.94802C9.39731 9.44108 9.01103 9.04853 8.50537 9.01353C8.31097 8.99978 8.11533 9.01103 7.91969 9.01103V9.0054C7.76405 9.0054 7.60779 9.00165 7.45153 9.00603C6.82773 9.02415 6.43582 9.42108 6.42832 10.0437C6.42457 10.3562 6.42332 10.6687 6.42894 10.9806C6.43832 11.562 6.83585 11.9783 7.41527 12.0014C7.75655 12.0152 8.09908 12.0158 8.43973 12.0008C9.00666 11.9758 9.40732 11.5632 9.41982 11.0019C9.42732 10.6506 9.43107 10.2987 9.41732 9.94802ZM8.40786 10.99H7.44903V10.0262H8.40786V10.99Z" fill="#1B1B1B"/>
<path d="M5.90827 9.90114C5.88452 9.43421 5.50949 9.05916 5.04445 9.0179C4.84068 8.99978 4.63504 9.01478 4.43002 9.01478V9.0054C4.27376 9.0054 4.1175 9.00165 3.96124 9.00603C3.32618 9.0229 2.9299 9.4242 2.92177 10.0624C2.9174 10.3749 2.91365 10.6875 2.92365 10.9994C2.94052 11.5526 3.32681 11.9664 3.87498 11.9977C4.24438 12.0189 4.61754 12.0202 4.98695 11.9964C5.49324 11.9639 5.88265 11.5845 5.90765 11.1007C5.9289 10.7019 5.92827 10.2999 5.90827 9.90114ZM4.89444 10.9857H3.94498V10.0155H4.89444V10.9857Z" fill="#1B1B1B"/>
<path d="M12.9245 9.99114C12.9014 9.42045 12.5026 9.0279 11.9313 9.00914C11.59 8.99727 11.2481 8.99664 10.9068 9.00914C10.3312 9.02977 9.95176 9.42045 9.92988 10.0011C9.92738 10.063 9.92676 10.1249 9.92676 10.1868C9.92676 10.2912 9.92926 10.3949 9.92863 10.4987C9.92801 10.5781 9.92738 10.6581 9.92738 10.7381C9.92738 10.7781 9.92738 10.8175 9.92801 10.8575C9.92801 10.8844 9.92801 10.9113 9.92863 10.9381C9.94176 11.5932 10.3393 11.9939 10.99 12.0039C11.3025 12.0089 11.615 12.0139 11.9269 12.002C12.4932 11.9795 12.8989 11.5807 12.9239 11.0156C12.9389 10.675 12.9383 10.3324 12.9245 9.99114ZM11.9119 10.9881H10.9456V10.0274H11.9119V10.9881Z" fill="#1B1B1B"/>
<path d="M14.414 23.9832C14.4227 24.5557 14.1008 24.932 13.6295 25.1921C13.4195 25.3083 13.1845 25.379 12.9414 25.4783C12.9326 25.6302 12.9232 25.8021 12.9126 25.9884H11.945C11.935 25.8109 11.9257 25.6409 11.9163 25.4758C10.8356 25.0695 10.498 24.7439 10.4312 24.0069C10.7299 24.0069 11.0262 24.0038 11.3225 24.01C11.3631 24.0107 11.41 24.0457 11.4419 24.0769C11.8888 24.5151 12.5226 24.6376 13.0701 24.3563C13.2089 24.2844 13.3895 24.1157 13.387 23.995C13.3845 23.8713 13.202 23.6981 13.0608 23.6425C12.8314 23.5525 12.572 23.5193 12.3226 23.5006C11.8663 23.4668 11.4375 23.3631 11.0581 23.0993C10.213 22.513 10.2036 21.4878 11.0543 20.9115C11.3075 20.7396 11.6094 20.6409 11.9182 20.4946C11.9244 20.3708 11.9319 20.2071 11.9413 20.0195H12.9126C12.922 20.1958 12.932 20.3664 12.942 20.5408C13.6871 20.7521 14.3109 21.0784 14.4296 21.9967C14.1015 21.9967 13.8296 22.0017 13.5583 21.9923C13.5027 21.9904 13.4358 21.9466 13.3964 21.9029C12.9845 21.4453 12.0894 21.3597 11.6063 21.7366C11.3681 21.9223 11.3544 22.126 11.6263 22.2623C11.8788 22.3892 12.1757 22.428 12.4545 22.4992C12.8376 22.5974 13.2445 22.6399 13.6008 22.7974C14.0902 23.0137 14.4059 23.4131 14.414 23.9832Z" fill="#E65425"/>
</svg>
