<svg width="100" height="104" viewBox="0 0 100 104" fill="none" xmlns="http://www.w3.org/2000/svg">
<path opacity="0.3" d="M98.1458 20.2867L51.5395 0.833481C51.1911 0.665406 50.8095 0.578125 50.4229 0.578125C50.0362 0.578125 49.6546 0.665406 49.3062 0.833481L2.69989 20.2867C2.10948 20.5294 1.61688 20.9627 1.30025 21.5177C0.983629 22.0728 0.861114 22.7179 0.952148 23.3506L8.71987 81.7104C8.76909 82.1844 8.93739 82.6382 9.20906 83.0294C9.48073 83.4206 9.8469 83.7365 10.2734 83.9476L49.1121 103.401C49.5226 103.592 49.97 103.691 50.4229 103.691C50.8757 103.691 51.3231 103.592 51.7337 103.401L90.5723 83.9476C90.9988 83.7365 91.365 83.4206 91.6367 83.0294C91.9083 82.6382 92.0766 82.1844 92.1258 81.7104L99.8936 23.3506C99.9846 22.7179 99.8621 22.0728 99.5455 21.5177C99.2288 20.9627 98.7362 20.5294 98.1458 20.2867ZM86.5913 79.4247L50.4229 97.5162L14.2544 79.4247L7.02068 24.8096L50.4229 6.66946L93.825 24.8096L86.5913 79.4247ZM47.8012 29.4298L30.3239 64.4457C29.9762 65.1422 29.919 65.9485 30.1648 66.6873C30.4107 67.426 30.9394 68.0367 31.6347 68.3849C32.33 68.7332 33.1349 68.7905 33.8723 68.5443C34.6098 68.298 35.2194 67.7684 35.5671 67.0719L39.9364 58.3179H60.9093L65.2786 67.0719C65.5273 67.554 65.9032 67.9585 66.3654 68.2415C66.8277 68.5245 67.3585 68.675 67.9002 68.6768C68.3528 68.6733 68.7996 68.5739 69.211 68.3849C69.8918 68.0216 70.4073 67.4104 70.6512 66.6774C70.8951 65.9443 70.8488 65.1455 70.5218 64.4457L53.0445 29.4298C52.7934 28.951 52.4164 28.5502 51.9544 28.2705C51.4923 27.9908 50.9627 27.843 50.4229 27.843C49.883 27.843 49.3534 27.9908 48.8914 28.2705C48.4293 28.5502 48.0523 28.951 47.8012 29.4298ZM57.9964 52.4819H42.8493L50.4229 37.2597L57.9964 52.4819Z" fill="#EBEBEB"/>
</svg>
