<svg width="86" height="96" viewBox="0 0 86 96" fill="none" xmlns="http://www.w3.org/2000/svg">
<path opacity="0.3" d="M3.28384 33.6323C2.65767 33.6323 2.05714 33.8811 1.61437 34.3239C1.1716 34.7666 0.922852 35.3672 0.922852 35.9933V59.6032C0.922852 60.2294 1.1716 60.8299 1.61437 61.2727C2.05714 61.7155 2.65767 61.9642 3.28384 61.9642C3.91002 61.9642 4.51055 61.7155 4.95332 61.2727C5.39609 60.8299 5.64484 60.2294 5.64484 59.6032V35.9933C5.64484 35.3672 5.39609 34.7666 4.95332 34.3239C4.51055 33.8811 3.91002 33.6323 3.28384 33.6323ZM61.572 11.9018L66.6387 4.2427C66.9844 3.72047 67.1084 3.08232 66.9835 2.46864C66.8587 1.85496 66.4951 1.31601 65.9729 0.970366C65.4507 0.624718 64.8125 0.500681 64.1988 0.625543C63.5852 0.750405 63.0462 1.11394 62.7006 1.63617L57.6953 9.20078C53.3714 6.64793 48.442 5.30134 43.4207 5.30134C38.3994 5.30134 33.4701 6.64793 29.1462 9.20078L24.1409 1.63617C23.7952 1.11394 23.2563 0.750405 22.6426 0.625543C22.0289 0.500681 21.3907 0.624718 20.8685 0.970366C20.3463 1.31601 19.9828 1.85496 19.8579 2.46864C19.733 3.08232 19.8571 3.72047 20.2027 4.2427L25.2694 11.9018C22.0827 14.5557 19.5188 17.8781 17.7594 21.6335C16.0001 25.3888 15.0883 29.4853 15.0888 33.6323V73.7692C15.0888 74.3954 15.3376 74.9959 15.7803 75.4387C16.2231 75.8814 16.8236 76.1302 17.4498 76.1302H31.6158V92.6571C31.6158 93.2833 31.8645 93.8838 32.3073 94.3266C32.75 94.7694 33.3506 95.0181 33.9767 95.0181C34.6029 95.0181 35.2034 94.7694 35.6462 94.3266C36.089 93.8838 36.3377 93.2833 36.3377 92.6571V76.1302H50.5037V92.6571C50.5037 93.2833 50.7524 93.8838 51.1952 94.3266C51.638 94.7694 52.2385 95.0181 52.8647 95.0181C53.4909 95.0181 54.0914 94.7694 54.5342 94.3266C54.9769 93.8838 55.2257 93.2833 55.2257 92.6571V76.1302H69.3916C70.0178 76.1302 70.6183 75.8814 71.0611 75.4387C71.5039 74.9959 71.7526 74.3954 71.7526 73.7692V33.6323C71.7525 29.4854 70.8404 25.3892 69.0811 21.6339C67.3218 17.8786 64.7582 14.5561 61.572 11.9018ZM67.0306 71.4082H19.8108V38.3543H67.0306V71.4082ZM19.8108 33.6323C19.8108 27.3706 22.2983 21.3653 26.726 16.9376C31.1537 12.5099 37.159 10.0224 43.4207 10.0224C49.6825 10.0224 55.6877 12.5099 60.1155 16.9376C64.5432 21.3653 67.0306 27.3706 67.0306 33.6323H19.8108ZM83.5576 33.6323C82.9314 33.6323 82.3309 33.8811 81.8881 34.3239C81.4453 34.7666 81.1966 35.3672 81.1966 35.9933V59.6032C81.1966 60.2294 81.4453 60.8299 81.8881 61.2727C82.3309 61.7155 82.9314 61.9642 83.5576 61.9642C84.1838 61.9642 84.7843 61.7155 85.2271 61.2727C85.6698 60.8299 85.9186 60.2294 85.9186 59.6032V35.9933C85.9186 35.3672 85.6698 34.7666 85.2271 34.3239C84.7843 33.8811 84.1838 33.6323 83.5576 33.6323Z" fill="#EBEBEB"/>
</svg>
