<svg width="31" height="30" viewBox="0 0 31 30" fill="none" xmlns="http://www.w3.org/2000/svg">
<path d="M30.9229 6.45608C30.9268 5.69685 30.3091 5.17975 29.5047 5.52969C25.5587 7.25125 21.5986 8.94235 17.6354 10.6233C17.0669 10.8647 16.8428 11.2177 16.8451 11.8301C16.8623 15.6568 16.8537 19.4834 16.8537 23.3108V23.6514C16.7241 23.5873 16.6405 23.5412 16.5531 23.503C14.7015 22.6844 12.8976 22.7414 11.2241 23.9216C10.1472 24.6817 9.61535 25.758 9.90117 27.1015C10.144 28.2443 10.9015 29.0137 11.9394 29.4738C12.4923 29.719 13.1053 29.8284 13.691 29.9994H14.7452C15.1966 29.887 15.662 29.812 16.0978 29.6542C17.7893 29.0418 18.6108 27.8459 18.6108 26.0541C18.6108 22.6859 18.6132 19.3178 18.6054 15.9497C18.6054 15.7247 18.6616 15.613 18.881 15.5193C22.1976 14.107 25.5087 12.6831 28.8222 11.2622C28.9237 11.2193 29.0291 11.1857 29.14 11.1451V18.3688C29.033 18.3164 28.9487 18.2727 28.8628 18.2344C27.0128 17.4127 25.2128 17.472 23.5299 18.6398C21.729 19.8904 21.6494 22.2016 23.3167 23.6248C24.7895 24.8816 27.2517 25.0949 29.0127 24.1052C30.2599 23.4038 30.926 22.3758 30.919 20.8949C30.8963 16.0817 30.8979 11.2685 30.9229 6.45608ZM16.1384 27.6702C15.5621 28.081 14.9038 28.231 14.208 28.2451C13.4981 28.2263 12.8335 28.067 12.2557 27.6382C11.3584 26.9727 11.3638 25.9916 12.2619 25.3237C13.3208 24.5372 15.0779 24.5278 16.1462 25.3019C17.0865 25.9846 17.0857 26.9945 16.1384 27.6702ZM28.4481 22.3922C27.3853 23.1663 25.6204 23.1577 24.5638 22.3743C23.654 21.6994 23.6587 20.7105 24.5771 20.0419C25.1503 19.624 25.8063 19.4717 26.4825 19.4514C27.2002 19.4646 27.8585 19.6138 28.4356 20.0239C29.3837 20.6988 29.3876 21.708 28.4481 22.3922ZM29.1416 9.05327C29.1369 9.14544 29.0018 9.26729 28.8987 9.31259C27.4618 9.93826 26.0194 10.553 24.5779 11.1708C22.6896 11.9809 20.8013 12.7901 18.9123 13.5993C18.8248 13.6368 18.7358 13.6704 18.6108 13.7196C18.6108 13.2142 18.5975 12.7549 18.6218 12.298C18.6264 12.2027 18.7506 12.0738 18.8506 12.0301C20.8614 11.1591 22.877 10.2984 24.891 9.43523C26.1889 8.87908 27.4868 8.32137 28.7847 7.76522C28.8987 7.71601 29.0143 7.67071 29.1533 7.61368C29.1533 8.11828 29.1666 8.58694 29.1416 9.05327Z" fill="#1B1B1B"/>
<path d="M14.9092 8.92736C14.7765 8.30169 14.6234 7.66118 14.3501 7.08863C13.9057 6.15989 13.4005 5.25225 12.8382 4.38912C11.8886 2.93001 10.7516 1.61385 9.54426 0.359388C9.20612 0.00788999 8.86173 -0.0850618 8.49314 0.0774086C8.09799 0.251596 7.93399 0.57185 7.95039 0.994429C7.95352 1.07254 7.95117 1.15065 7.95117 1.22876V12.9938C6.85163 12.4002 5.72866 12.1932 4.544 12.3666C3.38589 12.5353 2.3824 13.0024 1.61709 13.9186C1.25162 14.3568 1.07201 14.8763 0.922852 15.4129V16.2331C0.939251 16.2666 0.965021 16.2987 0.97205 16.3346C1.11418 17.0962 1.4898 17.732 2.08877 18.2046C3.72559 19.4973 5.54593 19.6777 7.43108 18.8912C8.93123 18.2655 9.73481 17.1345 9.71919 15.427C9.68405 11.4636 9.70825 7.49949 9.70825 3.53615V3.1581C9.96127 3.46976 10.1612 3.708 10.3517 3.95405C11.3287 5.21319 12.2236 6.5192 12.8515 7.99862C13.3973 9.2851 13.3216 10.4849 12.4766 11.6144C12.2494 11.919 12.0182 12.2221 11.7691 12.5087C11.381 12.9555 11.3669 13.4875 11.7551 13.8358C12.1377 14.1803 12.6883 14.1569 13.0475 13.7085C13.5153 13.125 13.9752 12.5251 14.3532 11.8815C14.885 10.977 15.1302 9.97717 14.9092 8.92736ZM7.23897 17.0064C6.66343 17.418 6.00511 17.5688 5.31009 17.5836C4.60023 17.5664 3.93488 17.4071 3.35699 16.9798C2.45737 16.3151 2.45971 15.3324 3.35621 14.6646C4.4128 13.8772 6.1691 13.8647 7.23975 14.638C8.18233 15.3184 8.18467 16.3291 7.23897 17.0064Z" fill="#E65425"/>
</svg>
