<svg width="92" height="105" viewBox="0 0 92 105" fill="none" xmlns="http://www.w3.org/2000/svg">
<path opacity="0.3" d="M46.4152 104.831C45.0028 104.831 43.683 104.444 42.4504 103.776L29.9243 96.2162C28.0498 95.1564 28.9896 94.7701 29.5546 94.5769C32.1019 93.7155 32.5744 93.5275 35.209 92.003C35.4966 91.8098 35.8715 91.8986 36.1591 92.0918L45.7629 97.9391C46.143 98.1271 46.6155 98.1271 46.8979 97.9391L84.4864 75.8184C84.8664 75.6304 85.0513 75.2441 85.0513 74.7637V30.6057C85.0513 30.1306 84.8664 29.7443 84.4864 29.5563L46.8979 7.52953C46.523 7.33636 46.0505 7.33636 45.7629 7.52953L8.16424 29.5511C7.78933 29.7391 7.5993 30.2246 7.5993 30.6005V74.7533C7.5993 75.1344 7.78933 75.62 8.16424 75.8079L18.4357 81.8484C23.9926 84.7095 27.4849 81.3525 27.4849 78.0111V34.4378C27.4849 33.8635 27.9522 33.284 28.6147 33.284H33.4218C33.9764 33.284 34.5516 33.7643 34.5516 34.4378V78.0163C34.5516 85.5814 30.5047 89.993 23.4379 89.993C21.2706 89.993 19.5758 89.993 14.7688 87.5914L4.8825 81.8537C3.67796 81.1418 2.6783 80.121 1.98344 78.8934C1.28859 77.6657 0.922871 76.2741 0.922852 74.8577V30.6997C0.922852 27.8282 2.42762 25.1447 4.8825 23.709L42.4555 1.58819C43.6753 0.925067 45.0371 0.578125 46.4203 0.578125C47.8035 0.578125 49.1654 0.925067 50.3851 1.58819L87.9633 23.709C90.4233 25.1395 91.9229 27.8282 91.9229 30.6997V74.8577C91.9229 77.724 90.4181 80.4075 87.9633 81.8537L50.3851 103.969C49.1474 104.544 47.7351 104.831 46.4152 104.831ZM58.0014 74.4662C41.5157 74.4662 38.1261 66.8019 38.1261 60.2967C38.1261 59.7225 38.5986 59.1429 39.256 59.1429H44.1555C44.7204 59.1429 45.1877 59.5241 45.1877 60.1036C45.9427 65.173 48.1048 67.6686 58.099 67.6686C66.008 67.6686 69.4078 65.8413 69.4078 61.5341C69.4078 59.0437 68.4577 57.2269 56.1217 55.9843C45.8554 54.9401 39.4511 52.6273 39.4511 44.3C39.4511 36.5471 45.8554 31.9475 56.5993 31.9475C68.6529 31.9475 74.5898 36.1712 75.3396 45.3547C75.3306 45.6646 75.2305 45.9646 75.052 46.2161C74.862 46.404 74.5847 46.5972 74.3022 46.5972H69.4078C69.1659 46.592 68.9326 46.505 68.7447 46.3499C68.5569 46.1949 68.4252 45.9806 68.3704 45.741C67.2354 40.4575 64.3183 38.745 56.5993 38.745C47.9251 38.745 46.8877 41.8097 46.8877 44.1069C46.8877 46.8791 48.1048 47.7406 59.7989 49.2755C71.3851 50.8052 76.8495 53.0084 76.8495 61.2522C76.7468 69.6838 69.9728 74.4662 58.0014 74.4662Z" fill="#EBEBEB"/>
</svg>
