<svg width="31" height="30" viewBox="0 0 31 30" fill="none" xmlns="http://www.w3.org/2000/svg">
<path d="M30.0064 17.2752C29.4129 15.0732 28.8205 12.8707 28.2387 10.6658C28.1924 10.4883 28.2129 10.2855 28.2375 10.0992C28.2633 9.90762 28.34 9.72305 28.3805 9.53262C28.5205 8.87227 28.2363 8.24824 27.6721 7.89844C27.5561 7.82695 27.4465 7.68516 27.4102 7.55449C27.0305 6.1834 26.6648 4.8082 26.2975 3.43359C26.0162 2.38008 25.2732 1.94648 24.2115 2.23066C21.4061 2.98066 18.6023 3.73887 15.7951 4.48242C15.6006 4.53398 15.3691 4.53574 15.1746 4.48418C12.8279 3.86543 10.4871 3.22559 8.13984 2.61211C7.84922 2.53652 7.52637 2.59102 7.21992 2.56758C7.1168 2.55996 6.99199 2.52715 6.92109 2.45918C6.51855 2.07539 6.11777 1.68809 5.7375 1.28262C5.17617 0.684375 4.58027 0.150586 3.73535 0H3.09082C2.88047 0.0679687 2.6625 0.118945 2.46094 0.207422C1.67813 0.550781 1.18359 1.14141 0.983203 1.9752C0.967383 2.04082 0.943359 2.1041 0.922852 2.16797V2.87109C1.08457 3.67793 1.60078 4.24688 2.16855 4.79707C3.07324 5.67305 3.94863 6.57891 4.84688 7.46133C5.01211 7.62305 5.05605 7.7625 4.99453 7.9916C3.66738 12.9217 2.34961 17.8547 1.02949 22.7871C0.997266 22.9072 0.958594 23.0256 0.922852 23.1445V23.5547C1.03066 23.7791 1.11738 24.0182 1.25156 24.2256C1.47598 24.5725 1.83809 24.7236 2.22305 24.8262C5.96777 25.8281 9.71133 26.8313 13.4561 27.8326C16.1186 28.5445 18.7822 29.2535 21.4447 29.9648C21.4611 29.9695 21.4746 29.9877 21.4893 30H22.0166C22.766 29.7896 23.124 29.2635 23.3057 28.5299C23.6807 27.0182 24.1055 25.5187 24.4998 24.0117C24.5525 23.8096 24.6381 23.7111 24.8514 23.6561C26.3777 23.2605 27.8947 22.827 29.4258 22.4479C30.1664 22.2645 30.7061 21.9105 30.9229 21.1523V20.625C30.617 19.5082 30.3076 18.3926 30.0064 17.2752ZM17.5465 5.05547C19.8879 4.42617 22.2287 3.79453 24.5713 3.17051C24.9609 3.0668 25.1936 3.1957 25.2937 3.56016C25.6324 4.8 25.9617 6.04277 26.2934 7.28496C26.3051 7.32949 26.308 7.37637 26.3227 7.47656C23.3707 6.68555 20.4545 5.90449 17.5383 5.12344C17.5412 5.10117 17.5436 5.07832 17.5465 5.05547ZM8.37012 6.7582C7.96582 6.33457 7.5457 5.92559 7.13262 5.51074C7.08457 5.4627 7.04004 5.41172 6.98262 5.34961C7.22461 5.13164 7.46074 4.91836 7.67461 4.72559C9.99023 7.03828 12.3346 9.38027 14.676 11.7193C14.475 11.9221 14.2518 12.1477 13.9664 12.4365C13.9096 12.351 13.8633 12.2484 13.7895 12.174C12.5285 10.9078 11.2646 9.64512 10.0014 8.38184C9.95977 8.34023 9.91934 8.29805 9.87656 8.25762C9.58887 7.98223 9.29941 7.95703 9.08145 8.1873C8.87637 8.4041 8.90273 8.69473 9.16934 8.9625C10.4725 10.2691 11.7785 11.5729 13.0828 12.8777C13.1572 12.9521 13.2275 13.0301 13.3055 13.1121C13.0629 13.3459 12.8332 13.5674 12.6146 13.7783C10.2797 11.4451 7.93301 9.1002 5.59395 6.7623C5.80723 6.54199 6.0293 6.31289 6.26719 6.06738C6.65918 6.4582 7.04473 6.84199 7.43027 7.22578C7.51348 7.3084 7.59199 7.39687 7.68223 7.4707C7.91191 7.65879 8.1791 7.6541 8.3707 7.46602C8.57168 7.26973 8.58398 6.98203 8.37012 6.7582ZM15.252 12.7084C15.5092 13.4812 15.777 14.2852 16.0664 15.1535C15.2016 14.8658 14.3977 14.5986 13.6119 14.3373C14.1627 13.7906 14.7023 13.2539 15.252 12.7084ZM3.39785 4.62656C2.99473 4.19941 2.54238 3.79395 2.18203 3.31934C1.74316 2.74102 1.88496 1.89316 2.4252 1.40566C2.96953 0.914648 3.80684 0.867188 4.3541 1.35352C4.76016 1.71445 5.10762 2.14102 5.48262 2.54063C4.81113 3.2127 4.12207 3.90176 3.39785 4.62656ZM4.85156 5.98477C4.64941 5.77441 4.43027 5.5459 4.22051 5.32793C4.87383 4.68223 5.57109 3.99316 6.25371 3.31875C6.4418 3.50977 6.66738 3.73945 6.87715 3.95273C6.22324 4.60898 5.53125 5.30332 4.85156 5.98477ZM22.2938 28.4104C22.1455 28.9652 21.951 29.0771 21.4025 28.9301C15.0949 27.2391 8.78672 25.5475 2.4791 23.8559C1.99512 23.7258 1.86738 23.516 1.99395 23.0432C3.26719 18.2877 4.54219 13.5334 5.81719 8.7791C5.83594 8.70703 5.86172 8.6373 5.88398 8.56641C5.91914 8.54062 5.95488 8.51426 5.99004 8.48848C6.04277 8.58164 6.07793 8.69297 6.15059 8.76621C8.1293 10.7508 10.1092 12.7342 12.0979 14.7088C12.2572 14.867 12.4705 14.9965 12.6826 15.0715C13.6289 15.4061 14.5846 15.7148 15.5361 16.0354C15.8672 16.1473 16.1906 16.2006 16.5299 16.0453C16.6195 16.0043 16.7566 16.0406 16.8645 16.0693C18.6252 16.5393 20.3854 17.0139 22.1455 17.4867C22.2117 17.5043 22.2773 17.5225 22.3441 17.5354C22.6307 17.591 22.8762 17.4586 22.95 17.2113C23.0309 16.94 22.9049 16.6787 22.6131 16.5873C22.1947 16.4566 21.7688 16.3506 21.3451 16.2369C20.008 15.8789 18.6715 15.5197 17.3326 15.1676C17.1439 15.1184 17.0666 15.0316 17.0045 14.833C16.6664 13.7543 16.3031 12.6832 15.9305 11.6162C15.8725 11.4504 15.74 11.2986 15.6123 11.1709C13.207 8.75684 10.7977 6.34688 8.38535 3.93926C8.30391 3.85781 8.18848 3.81035 8.08887 3.74707C8.11582 3.71426 8.14277 3.68203 8.16973 3.6498C9.02402 3.87832 9.87832 4.10625 10.7326 4.33535C16.1086 5.77617 21.4846 7.21758 26.86 8.65957C27.3838 8.79961 27.4928 8.98711 27.3521 9.5127C25.667 15.8121 23.9807 22.1115 22.2938 28.4104ZM29.3889 21.4078C27.9041 21.808 26.4182 22.2035 24.8783 22.616C25.7959 19.1906 26.6982 15.8227 27.6234 12.368C27.6779 12.5139 27.7102 12.5848 27.7301 12.658C28.4414 15.3023 29.1527 17.9461 29.8617 20.591C29.99 21.0709 29.8705 21.2777 29.3889 21.4078Z" fill="#1B1B1B"/>
<path d="M21.4142 22.961C21.3381 23.2675 21.0638 23.4022 20.6918 23.3067C20.2676 23.1977 19.8457 23.0794 19.4221 22.9657C16.224 22.1079 13.0254 21.2501 9.82732 20.3923C9.7617 20.3747 9.6949 20.3583 9.63279 20.3313C9.39373 20.2288 9.27244 19.9985 9.33045 19.7653C9.39256 19.5192 9.58709 19.3757 9.91697 19.3874C10.3412 19.4987 10.831 19.6259 11.3203 19.7571C14.4996 20.6097 17.6789 21.4634 20.8582 22.3171C20.8863 22.3241 20.9156 22.3276 20.9437 22.3352C21.3041 22.4401 21.484 22.6792 21.4142 22.961Z" fill="#E65425"/>
<path d="M22.183 20.0951C22.1074 20.3623 21.8379 20.5018 21.525 20.4209C20.8834 20.2545 20.2441 20.0816 19.6043 19.9106C16.6306 19.1131 13.657 18.3156 10.684 17.5158C10.5633 17.483 10.4338 17.4455 10.3365 17.3729C10.156 17.2387 10.0945 17.0459 10.1742 16.8268C10.2586 16.5953 10.4344 16.4969 10.7338 16.5022C11.1211 16.6041 11.564 16.7184 12.0058 16.8367C15.1869 17.6893 18.3674 18.5424 21.5478 19.3949C21.6328 19.4178 21.7189 19.4359 21.8015 19.4635C22.1027 19.5654 22.2586 19.8262 22.183 20.0951Z" fill="#1B1B1B"/>
<path d="M24.5285 11.2215C24.5402 11.5965 24.2344 11.8268 23.8641 11.7307C22.9401 11.4922 22.0184 11.2443 21.0967 10.9977C19.7326 10.6326 18.3692 10.2664 17.0051 9.90019C16.9488 9.88496 16.8926 9.86914 16.8369 9.85098C16.5047 9.74492 16.3553 9.50293 16.4426 9.21289C16.5246 8.93867 16.7736 8.80976 17.0965 8.89531C18.1981 9.18535 19.2984 9.48301 20.3988 9.77656C21.5942 10.0959 22.7889 10.4146 23.9842 10.7316C24.2637 10.8055 24.5027 10.915 24.5285 11.2215Z" fill="#1B1B1B"/>
<path d="M23.6549 14.4373C23.5547 14.5586 23.3789 14.6166 23.2723 14.6823C22.6846 14.5241 22.1678 14.384 21.6504 14.2463C20.5957 13.9651 19.5405 13.6856 18.4858 13.4049C18.4201 13.3873 18.3533 13.3709 18.2895 13.3475C18.0047 13.2444 17.8606 12.9854 17.942 12.7276C18.0258 12.4598 18.2748 12.318 18.5672 12.393C19.2656 12.5729 19.9612 12.7627 20.6578 12.9491C21.5332 13.1828 22.4098 13.4149 23.284 13.6528C23.7071 13.7676 23.8934 14.1485 23.6549 14.4373Z" fill="#E65425"/>
<path d="M8.16799 16.3637C8.08772 16.6039 7.89025 16.7445 7.6465 16.6895C7.10627 16.5682 6.57014 16.4246 6.04338 16.2564C5.80725 16.1809 5.71233 15.9617 5.76565 15.7104C5.81897 15.4566 5.9965 15.34 6.31701 15.3066C6.82092 15.452 7.39748 15.5943 7.95471 15.79C8.1885 15.8721 8.24768 16.1258 8.16799 16.3637Z" fill="#E65425"/>
<path d="M7.40451 19.2246C7.33478 19.4847 7.14377 19.5984 6.79572 19.5879C6.33986 19.4596 5.80314 19.3248 5.27814 19.1525C5.03908 19.074 4.94767 18.8543 5.00802 18.6053C5.07072 18.3445 5.26115 18.1781 5.51955 18.2332C6.06857 18.3515 6.61291 18.4986 7.14728 18.6715C7.384 18.7476 7.47072 18.9791 7.40451 19.2246Z" fill="#1B1B1B"/>
</svg>
