<svg width="143" height="76" viewBox="0 0 143 76" fill="none" xmlns="http://www.w3.org/2000/svg">
<path opacity="0.3" d="M71.9229 4.30563C109.952 4.30563 139.195 20.325 139.195 37.9197C139.195 55.5144 109.93 71.5338 71.9229 71.5338C33.8935 71.5338 4.65035 55.5144 4.65035 37.9197C4.65035 20.325 33.9157 4.30563 71.9229 4.30563ZM71.9229 0.578125C32.7175 0.578125 0.922852 17.2853 0.922852 37.9197C0.922852 58.5541 32.7175 75.2613 71.9229 75.2613C111.128 75.2613 142.923 58.5541 142.923 37.9197C142.923 17.2853 111.128 0.578125 71.9229 0.578125ZM49.336 34.9244C47.5832 43.9103 41.3929 42.9784 33.7825 42.9784L36.8222 27.3141C45.2535 27.3141 50.9779 26.4044 49.336 34.9244ZM22.5335 58.8425H30.6763L32.6066 48.9025C41.7257 48.9025 47.3835 49.5681 52.6197 44.6647C58.4107 39.3397 59.9194 29.8656 55.7925 25.1175C53.6404 22.6325 50.1791 21.4122 45.4754 21.4122H29.7888L22.5335 58.8425ZM63.7357 11.45H71.8341L69.9038 21.39C76.8928 21.39 83.3716 20.8797 86.5 23.7641C89.7838 26.7816 88.2085 30.6422 84.6585 48.8581H76.4491C79.866 31.2413 80.5094 29.7769 79.2669 28.4456C78.0688 27.1588 75.3397 27.425 68.75 27.425L64.5788 48.8581H56.4804L63.7357 11.45ZM112.97 34.9244C111.195 44.0434 104.827 42.9784 97.4163 42.9784L100.456 27.3141C108.932 27.3141 114.612 26.4044 112.97 34.9244ZM86.1672 58.8425H94.3322L96.2625 48.9025C105.848 48.9025 111.15 49.4572 116.276 44.6647C122.067 39.3397 123.575 29.8656 119.448 25.1175C117.296 22.6325 113.835 21.4122 109.131 21.4122H93.4447L86.1672 58.8425Z" fill="#EBEBEB"/>
</svg>
