<svg width="31" height="30" viewBox="0 0 31 30" fill="none" xmlns="http://www.w3.org/2000/svg">
<path d="M30.2564 0.00219595C22.8455 0.00772372 15.4354 0.00614435 8.02441 0.00693404C7.95645 0.00693404 7.8877 0.00535467 7.81973 0.0140412C7.59551 0.0424697 7.46582 0.184612 7.44082 0.400985C7.41582 0.620517 7.52051 0.791878 7.73379 0.855052C7.86113 0.892957 8.00254 0.892957 8.1377 0.893746C15.3143 0.895326 22.49 0.894536 29.6666 0.894536H30.0236V19.3115H21.9385C22.0025 19.1883 22.0486 19.0935 22.101 19.0027C22.626 18.0796 23.165 17.1643 23.6744 16.2325C24.2299 15.217 23.9721 13.9914 23.0861 13.3107C22.5643 12.9095 22.2291 12.9775 21.9002 13.5539C20.851 15.3891 19.7986 17.222 18.7604 19.0635C18.6408 19.2752 18.5104 19.3375 18.2807 19.3368C12.901 19.3312 7.52129 19.332 2.1416 19.332H1.8252V0.894536C3.10723 0.894536 4.3666 0.896115 5.6252 0.892957C5.74082 0.892957 5.8627 0.889008 5.97051 0.852683C6.18301 0.781612 6.31035 0.599195 6.24004 0.395457C6.18926 0.246208 6.02129 0.130914 5.89004 0.0195689C5.84863 -0.015177 5.75801 0.00693404 5.68926 0.00693404C4.3127 0.00614435 2.93613 0.0116721 1.55957 0.00219595C1.26113 -0.000173098 1.05098 0.101696 0.922852 0.372557V19.8579C1.06504 20.1572 1.31035 20.2259 1.62207 20.2251C6.14238 20.2188 10.6627 20.2204 15.183 20.222C15.5525 20.222 15.9924 20.113 16.2729 20.2773C16.5525 20.4415 16.6432 20.9074 16.8682 21.2004C17.1822 21.6103 17.1916 21.9696 16.8689 22.377C16.6744 22.6242 16.5408 22.9211 16.3682 23.2157C16.215 23.0893 16.1041 22.9954 15.9916 22.9037C14.39 21.6087 12.0502 21.7935 10.6635 23.3239C9.24082 24.8945 9.25645 27.2565 10.6979 28.7695C12.5018 30.6624 15.5674 30.3252 16.9111 28.073C17.526 27.0441 18.1057 25.993 18.7018 24.9522C18.7439 24.8795 18.7932 24.8116 18.8604 24.7098C19.1229 25.167 19.3588 25.5958 19.6135 26.0119C19.6861 26.1304 19.8049 26.2749 19.9213 26.2946C20.0611 26.3183 20.2525 26.2607 20.365 26.1683C20.5346 26.0277 20.5111 25.8193 20.4018 25.6289C20.0893 25.0833 19.7752 24.5376 19.4697 23.988C19.4268 23.9106 19.3814 23.7866 19.4135 23.7242C19.59 23.3815 19.79 23.0506 19.9986 22.6858C20.1939 23.0206 20.3557 23.3246 20.5424 23.6121C20.8697 24.1167 21.5041 24.2146 21.9736 23.845C22.0658 23.7724 22.1502 23.6903 22.2408 23.6153C23.2385 22.7892 24.6697 22.7032 25.7705 23.402C26.8799 24.1064 27.4291 25.4347 27.1354 26.7005C26.8432 27.9609 25.9002 28.8508 24.6213 29.0751C23.44 29.282 22.2244 28.7079 21.5439 27.6221C21.3463 27.307 21.1119 27.213 20.8736 27.3536C20.6314 27.4973 20.601 27.7563 20.7893 28.0754C21.6947 29.6153 23.5721 30.3512 25.2768 29.8356C26.9979 29.3144 28.19 27.6766 28.0908 25.8903C27.9994 24.2628 27.2088 23.0546 25.7338 22.3928C24.2424 21.724 22.8385 21.9782 21.5736 23.0175C21.5018 23.0759 21.4299 23.1343 21.3275 23.218C21.058 22.749 20.8033 22.3202 20.5674 21.8803C20.5338 21.8179 20.5705 21.6924 20.6111 21.6174C20.8182 21.2367 21.0463 20.8687 21.2479 20.4857C21.3502 20.2899 21.4697 20.2133 21.701 20.2141C24.5518 20.2244 27.4025 20.2173 30.2533 20.2259C30.5604 20.2267 30.783 20.1359 30.9229 19.8579V0.372557C30.7893 0.0859022 30.5627 0.00219595 30.2564 0.00219595ZM18.0666 20.2457C17.951 20.4557 17.8424 20.6555 17.7057 20.9035C17.5682 20.6634 17.458 20.4715 17.3283 20.2457H18.0666ZM16.7783 26.5442C16.5783 26.8932 16.3822 27.2454 16.1752 27.5913C15.4236 28.8469 13.9674 29.4052 12.6064 28.9638C11.2877 28.535 10.3783 27.1901 10.49 25.8327C10.6135 24.3362 11.69 23.1549 13.1447 22.9582C14.0057 22.8414 14.7885 23.0672 15.4697 23.6224C15.5533 23.6903 15.6314 23.7653 15.715 23.8324C16.1939 24.217 16.8314 24.1222 17.1666 23.6042C17.3525 23.3168 17.5135 23.0127 17.6729 22.7379C18.0041 22.9306 18.3119 23.1091 18.6322 23.2946C18.0244 24.3607 17.4018 25.4528 16.7783 26.5442ZM18.8479 22.347C18.54 22.3447 18.2971 22.0927 18.3033 21.7792C18.308 21.4831 18.5502 21.2359 18.8408 21.2288C19.1424 21.2225 19.3971 21.4768 19.3986 21.7864C19.401 22.1006 19.1564 22.3486 18.8479 22.347ZM20.1064 20.7155C20.0775 20.7661 20.0447 20.815 20.0268 20.8427C19.7041 20.6532 19.4064 20.4786 19.0729 20.282C20.2354 18.2462 21.4158 16.1796 22.5955 14.113C23.0064 14.3776 23.1916 14.9753 23.0299 15.5036C22.99 15.6347 22.9338 15.7627 22.8666 15.8811C21.9486 17.4936 21.0268 19.1046 20.1064 20.7155Z" fill="#1B1B1B"/>
<path d="M15.9229 3.86523C12.5127 3.86523 9.7377 6.6686 9.73926 10.1124C9.74082 13.5578 12.5166 16.3635 15.9229 16.3635C19.3299 16.3635 22.108 13.5546 22.1064 10.1124C22.1041 6.66544 19.333 3.86444 15.9229 3.86523ZM15.9025 15.4751C12.9814 15.4664 10.5932 13.0295 10.6189 10.0848C10.6447 7.11319 13.0205 4.74099 15.9572 4.75363C18.8674 4.76547 21.2385 7.18269 21.2268 10.1258C21.2158 13.0879 18.8307 15.483 15.9025 15.4751Z" fill="#E65425"/>
<path d="M5.0658 5.65101C5.05799 5.31618 4.85721 5.13061 4.52205 5.11955C4.25955 5.11087 3.99549 5.11797 3.73221 5.11797C3.46893 5.11797 3.20486 5.11165 2.94236 5.11955C2.58846 5.12982 2.39471 5.31934 2.39002 5.66996C2.38299 6.20221 2.38299 6.73524 2.38924 7.26749C2.39393 7.62205 2.58377 7.82184 2.93143 7.82737C3.45799 7.83606 3.98533 7.83527 4.51189 7.82737C4.86033 7.82263 5.05955 7.63074 5.06736 7.27775C5.0783 6.73603 5.07986 6.19273 5.0658 5.65101ZM4.16736 6.92555H3.27596V6.0269H4.16736V6.92555Z" fill="#1B1B1B"/>
<path d="M29.6111 6.37385C29.6111 6.10773 29.615 5.84081 29.6096 5.57469C29.6018 5.20275 29.4158 5.01086 29.0463 5.00533C28.5291 4.99822 28.0119 4.99822 27.4947 5.00533C27.1408 5.01007 26.94 5.19722 26.9322 5.54705C26.9197 6.08956 26.9197 6.63207 26.9322 7.1738C26.9393 7.51257 27.1369 7.70683 27.4674 7.71236C28.0041 7.72184 28.5408 7.72184 29.0768 7.71236C29.4096 7.70683 29.5994 7.50783 29.6088 7.17222C29.6174 6.90609 29.6104 6.63997 29.6111 6.37385ZM28.7119 6.80423H27.8236V5.9032H28.7119V6.80423Z" fill="#E65425"/>
<path d="M29.6111 13.6134V12.8442C29.5978 12.4873 29.415 12.2899 29.0681 12.2843C28.5416 12.2772 28.0142 12.278 27.4876 12.2843C27.1369 12.2883 26.9384 12.4762 26.9314 12.8308C26.9197 13.363 26.9212 13.8953 26.9306 14.4275C26.9369 14.7845 27.1283 14.9835 27.4751 14.9906C28.0111 15.0008 28.5478 15.0024 29.0845 14.9898C29.415 14.9819 29.6001 14.7781 29.6087 14.441C29.6166 14.1654 29.6103 13.889 29.6111 13.6134ZM28.7126 14.0777H27.8212V13.1893H28.7126V14.0777Z" fill="#E65425"/>
<path d="M5.06665 12.939C5.05962 12.5979 4.86274 12.4052 4.53227 12.4005C3.99634 12.3926 3.45962 12.3926 2.9229 12.4005C2.59009 12.4052 2.39946 12.601 2.38931 12.9374C2.38149 13.2028 2.38774 13.4697 2.38774 13.7358C2.38774 14.0019 2.38384 14.2681 2.38931 14.5342C2.39556 14.8927 2.57681 15.098 2.92134 15.1051C3.45727 15.117 3.99477 15.117 4.53071 15.1051C4.86352 15.098 5.05884 14.903 5.06665 14.5658C5.07915 14.0232 5.07915 13.4807 5.06665 12.939ZM4.17368 14.2104H3.28852V13.3102H4.17368V14.2104Z" fill="#1B1B1B"/>
<path d="M5.06663 16.578C5.05959 16.2479 4.87913 16.0513 4.56194 16.0426C4.00647 16.0276 3.45022 16.0276 2.89475 16.0418C2.57288 16.0505 2.39944 16.2487 2.39006 16.5748C2.38694 16.6799 2.38616 16.7849 2.38616 16.8899C2.38616 17.051 2.3885 17.2121 2.3885 17.3732C2.38772 17.543 2.38538 17.7136 2.38538 17.8834C2.38538 17.9892 2.38616 18.0958 2.38928 18.2016C2.39944 18.5388 2.58694 18.7323 2.92053 18.737C3.45725 18.7449 3.99319 18.7449 4.52991 18.737C4.86272 18.7323 5.05881 18.5443 5.06663 18.204C5.07913 17.6622 5.07834 17.1197 5.06663 16.578ZM4.17444 17.8257H3.28147V16.9405H4.17444V17.8257Z" fill="#E65425"/>
<path d="M29.4572 16.6077C29.4502 16.2445 29.2775 16.0471 28.926 16.0392C28.39 16.0257 27.8533 16.0265 27.3174 16.0384C26.9767 16.0463 26.7869 16.2342 26.7791 16.573C26.7666 17.1147 26.7674 17.6572 26.7783 18.1989C26.7861 18.5409 26.9791 18.7312 27.3111 18.7359C27.8478 18.7438 28.3838 18.7438 28.9205 18.7359C29.2681 18.7312 29.4486 18.5361 29.4564 18.1753C29.4619 17.9194 29.458 17.6628 29.458 17.4061C29.458 17.14 29.4619 16.8739 29.4572 16.6077ZM28.5674 17.8278H27.6697V16.9394H28.5674V17.8278Z" fill="#1B1B1B"/>
<path d="M5.06504 9.27415C5.05645 8.96301 4.86738 8.77507 4.56426 8.76875C4.00879 8.75691 3.45332 8.75691 2.89785 8.76796C2.58691 8.77428 2.39863 8.95906 2.39238 9.26546C2.38066 9.82692 2.38145 10.3884 2.3916 10.9499C2.39707 11.257 2.58535 11.4434 2.88848 11.4568C3.16113 11.4687 3.43457 11.4592 3.70723 11.4592C3.70723 11.46 3.70723 11.46 3.70723 11.4608C3.97988 11.4608 4.25332 11.4671 4.52598 11.4592C4.86504 11.4489 5.05801 11.2705 5.06582 10.9301C5.0791 10.3781 5.07988 9.82613 5.06504 9.27415ZM4.18066 10.5495H3.2877V9.66978H4.18066V10.5495Z" fill="#E65425"/>
<path d="M29.4541 2.00063C29.4478 1.68239 29.2525 1.50076 28.9291 1.4905C28.6658 1.4826 28.4025 1.48892 28.1392 1.48892C27.8666 1.48892 27.5931 1.4826 27.3205 1.48971C26.9822 1.49918 26.7869 1.67765 26.7791 2.018C26.7666 2.5692 26.7666 3.12198 26.7806 3.67317C26.7885 3.98352 26.9752 4.17462 27.2791 4.18173C27.8447 4.19436 28.4103 4.19436 28.9752 4.17936C29.2666 4.17146 29.4478 3.97878 29.4533 3.68581C29.4642 3.12435 29.4642 2.56209 29.4541 2.00063ZM28.5619 3.28228H27.6705V2.40021H28.5619V3.28228Z" fill="#1B1B1B"/>
<path d="M29.4556 9.31146C29.451 8.96637 29.2713 8.77369 28.9353 8.76737C28.3892 8.7571 27.8431 8.7571 27.297 8.76816C26.9775 8.77369 26.7877 8.96084 26.7799 9.28698C26.7666 9.83897 26.7666 10.391 26.7799 10.9429C26.7885 11.2667 26.9822 11.4468 27.3025 11.4586C27.565 11.4681 27.8283 11.4602 28.0916 11.461C28.365 11.461 28.6377 11.4673 28.9111 11.4594C29.2658 11.4499 29.4517 11.2651 29.4556 10.9082C29.4627 10.376 29.4627 9.8437 29.4556 9.31146ZM28.5611 10.556H27.6697V9.66366H28.5611V10.556Z" fill="#1B1B1B"/>
<path d="M5.06655 2.01978C5.05874 1.67943 4.86421 1.49464 4.52749 1.4899C3.99155 1.4828 3.45483 1.48201 2.9189 1.49069C2.58218 1.49543 2.39937 1.68653 2.38921 2.02689C2.38218 2.29222 2.38765 2.55913 2.38765 2.82525C2.38765 3.09138 2.38374 3.3575 2.38921 3.62362C2.39624 3.98451 2.57046 4.1764 2.92593 4.1843C3.46187 4.19535 3.99858 4.19535 4.53452 4.18351C4.87358 4.1764 5.05952 3.98924 5.06655 3.64573C5.07905 3.10401 5.07905 2.5615 5.06655 2.01978ZM4.15562 3.28801H3.28608V2.39488H4.15562V3.28801Z" fill="#E65425"/>
<path d="M24.1673 24.0625C23.1001 24.0578 22.2322 24.9288 22.2267 26.0099C22.2212 27.0902 23.0814 27.9691 24.1486 27.9722C25.2181 27.9754 26.0853 27.1083 26.0931 26.028C26.1017 24.9572 25.2291 24.0673 24.1673 24.0625ZM24.108 27.0831C23.5392 27.0617 23.0908 26.5721 23.1056 25.9901C23.1212 25.3987 23.6095 24.9327 24.1939 24.9517C24.7619 24.9707 25.2236 25.4595 25.2142 26.0328C25.2048 26.6353 24.7087 27.106 24.108 27.0831Z" fill="#E65425"/>
<path d="M13.5744 24.0646C12.508 24.0512 11.6338 24.9072 11.608 25.9906C11.5838 27.0425 12.4448 27.9522 13.4862 27.9735C14.5791 27.9956 15.4565 27.1467 15.4752 26.0499C15.494 24.972 14.6377 24.0772 13.5744 24.0646ZM13.526 27.0851C12.9557 27.0772 12.4901 26.6011 12.4869 26.023C12.4846 25.4379 12.9682 24.9498 13.5487 24.9522C14.1323 24.9538 14.6026 25.4387 14.5963 26.0317C14.5901 26.6271 14.1159 27.093 13.526 27.0851Z" fill="#E65425"/>
<path d="M19.0213 10.5675C18.3025 11.0026 17.5736 11.4219 16.8447 11.8397C16.6056 11.9763 16.3564 11.9068 16.2314 11.6983C16.097 11.474 16.1627 11.2229 16.4174 11.0697C16.9447 10.7531 17.4783 10.4467 18.0494 10.1126C16.7924 9.37901 15.5783 8.66988 14.3283 7.93942V12.2732C14.4283 12.2203 14.5158 12.1682 14.6072 12.1255C14.84 12.0181 15.0783 12.0853 15.1963 12.2858C15.3166 12.4919 15.2689 12.7407 15.0509 12.8805C14.7548 13.0708 14.4517 13.2524 14.1384 13.4088C13.8299 13.5635 13.5181 13.3938 13.4439 13.055C13.4252 12.9697 13.422 12.8797 13.422 12.7912C13.4213 11.0058 13.4166 9.22108 13.4291 7.4364C13.4299 7.25398 13.4963 7.04156 13.6049 6.9002C13.7517 6.70831 13.9877 6.71937 14.1924 6.83861C15.8056 7.77675 17.4197 8.7141 19.0275 9.66251C19.415 9.89152 19.4103 10.3314 19.0213 10.5675Z" fill="#1B1B1B"/>
</svg>
