<svg width="31" height="30" viewBox="0 0 31 30" fill="none" xmlns="http://www.w3.org/2000/svg">
<path d="M30.9204 8.05223C30.9204 7.12176 30.2779 6.49478 29.3396 6.48811C29.0412 6.48645 28.7421 6.48811 28.4446 6.48811V6.00621C29.7937 5.89782 30.3854 5.4576 30.4195 4.55215C30.4345 4.17196 30.3179 3.83429 30.0812 3.53831C29.6571 3.00971 29.0646 2.94718 28.4221 2.98886V0.707724C28.4213 0.0674042 28.1696 -0.118522 27.5596 0.0699055C25.653 0.659367 23.7472 1.25383 21.8364 1.83245C21.5431 1.92166 21.229 1.97336 20.9223 1.97919C19.954 1.99754 18.9857 1.98336 18.0165 1.9867C17.6074 1.98836 17.4307 2.17012 17.4232 2.57866C17.4207 2.70956 17.4224 2.83962 17.4224 2.98636C17.0874 2.98636 16.7966 2.98303 16.5066 2.9872C16.1141 2.99303 15.9274 3.17229 15.9241 3.55832C15.9183 4.17362 15.9191 4.7881 15.9241 5.40341C15.9274 5.80694 16.1116 5.98203 16.5258 5.98703C16.8149 5.99037 17.1041 5.98786 17.4041 5.98786V6.4656H14.4225C14.4225 5.00571 14.4233 3.56915 14.4216 2.13177C14.4216 1.65903 14.2516 1.48645 13.7867 1.48645C10.5476 1.48478 7.30851 1.48478 4.0686 1.48645C3.58611 1.48645 3.42362 1.65486 3.42278 2.15178C3.42195 3.47578 3.42278 4.79894 3.42278 6.1221V6.48811H2.6203C1.517 6.48895 0.922852 7.08258 0.922852 8.18646V23.7868C0.922852 24.9073 1.5145 25.4976 2.63947 25.4976H13.8967V26.9984C12.9234 26.9984 11.9759 26.9967 11.0276 26.9992C10.6126 27.0009 10.4276 27.1785 10.4243 27.5803C10.4193 28.1956 10.4184 28.8101 10.4243 29.4254C10.4276 29.8123 10.6134 29.9982 11.0051 29.9982C14.2858 30.0007 17.5666 30.0007 20.8473 29.9982C21.234 29.9982 21.4173 29.8081 21.4206 29.4171C21.4256 28.8026 21.4264 28.1873 21.4206 27.5728C21.4173 27.186 21.2306 27.0017 20.8398 27C19.9857 26.9959 19.1315 26.9984 18.2774 26.9984H17.934V25.4976H18.3399C22.0064 25.4976 25.673 25.4993 29.3387 25.4968C30.2762 25.496 30.9204 24.8623 30.9204 23.9335C30.9237 18.64 30.9237 13.3457 30.9204 8.05223ZM17.4007 4.96735H16.9391V4.00104H17.4007V4.96735ZM28.4329 4.00354C28.7529 3.99687 29.1004 3.87681 29.3112 4.20364C29.3946 4.33287 29.4096 4.57716 29.3446 4.71723C29.1629 5.10409 28.7821 4.96068 28.4329 4.99153V4.00354ZM21.9323 2.85546C23.7447 2.29602 25.5597 1.73574 27.4004 1.16795V7.80544C25.5747 7.24266 23.7547 6.68154 21.9323 6.1196V2.85546ZM18.4399 3.00137H20.899V5.96785H18.4399V3.00137ZM19.8432 7.00837C19.7248 7.83212 19.6082 8.64252 19.489 9.47044H18.9432V7.00837H19.8432ZM4.43942 2.51113H13.4V9.47544H4.43942V2.51113ZM20.4015 28.0105V28.9819H11.4384V28.0105H20.4015ZM14.94 26.9784V25.5126H16.8991V26.9784H14.94ZM29.9145 24.0369C29.8837 24.3095 29.7162 24.4654 29.4429 24.4929C29.3296 24.5046 29.2137 24.4971 29.0996 24.4971C20.3323 24.4971 11.5651 24.4921 2.79863 24.5055C1.94616 24.5071 1.85783 24.2111 1.94782 23.5083H29.9179C29.9179 23.6909 29.9337 23.866 29.9145 24.0369ZM29.922 8.14894V22.4778H1.92282V8.21898C1.92282 7.62618 2.06199 7.48945 2.66197 7.48861H3.40778C3.41362 7.602 3.42195 7.70205 3.42195 7.80127C3.42362 8.50996 3.41862 9.21865 3.42445 9.92733C3.42778 10.2967 3.61611 10.4876 3.98527 10.4884C7.27684 10.4909 10.5684 10.4909 13.8592 10.4884C14.2383 10.4876 14.4191 10.2908 14.4208 9.89565C14.425 9.10609 14.4225 8.31569 14.4225 7.50446H17.9224V9.76225C17.9224 10.3525 18.0632 10.4901 18.664 10.4901C19.049 10.4901 19.434 10.4926 19.8198 10.4893C20.2065 10.4859 20.3715 10.3442 20.4265 9.96735C20.554 9.09192 20.6773 8.21564 20.804 7.34021C20.8206 7.22848 20.8473 7.11926 20.8781 6.96085C21.1323 6.99754 21.384 7.00254 21.6156 7.07257C23.5956 7.67537 25.5705 8.28901 27.5479 8.90015C28.1779 9.09442 28.4213 8.91266 28.4221 8.24733V7.49862C28.7987 7.49862 29.1662 7.4561 29.5146 7.51863C29.6687 7.54614 29.7929 7.77959 29.9112 7.93384C29.947 7.98053 29.922 8.07557 29.922 8.14894Z" fill="#1B1B1B"/>
<path d="M16.235 12.4902H3.61033C3.07785 12.4902 2.92285 12.6453 2.92285 13.1772V20.8061C2.92285 21.3388 3.07868 21.4947 3.61033 21.4947H16.2341C16.7658 21.4947 16.9225 21.338 16.9225 20.8069V13.1781C16.9225 12.6461 16.7666 12.4902 16.235 12.4902ZM14.5867 13.5074C14.4867 13.5799 14.4234 13.6333 14.3525 13.6767C12.9551 14.5396 11.5551 15.3992 10.1585 16.263C10.0177 16.3497 9.90682 16.4022 9.73766 16.2963C8.2902 15.395 6.83691 14.5037 5.38528 13.6091C5.35362 13.5891 5.32612 13.5624 5.25695 13.5074H14.5867ZM15.9067 20.4759H3.94032V13.9068C4.05532 13.9726 4.15115 14.0243 4.24365 14.081C5.97943 15.1499 7.71938 16.2113 9.44517 17.296C9.79766 17.5177 10.071 17.5027 10.4143 17.2876C12.1418 16.2054 13.8817 15.1424 15.6175 14.0735C15.7025 14.021 15.7925 13.976 15.9067 13.9126V20.4759Z" fill="#E65425"/>
<path d="M28.9204 14.0876C28.9195 13.6782 28.737 13.4998 28.3304 13.4923C28.1996 13.4898 28.0696 13.4914 27.9221 13.4914C27.9221 12.9912 27.9254 12.5343 27.9204 12.0766C27.9162 11.6839 27.7362 11.4929 27.3521 11.4921C24.3955 11.4896 21.4397 11.4896 18.4832 11.4921C18.114 11.4929 17.9248 11.6839 17.924 12.0541C17.9207 14.0125 17.9207 15.9702 17.924 17.9287C17.9248 18.2988 18.114 18.4839 18.4815 18.4923C18.7823 18.4989 19.0823 18.4939 19.4223 18.4939C19.4223 18.9734 19.4206 19.4094 19.4223 19.8455C19.4248 20.319 19.5923 20.4941 20.0539 20.4941C22.8022 20.4958 25.5505 20.4958 28.2987 20.4941C28.7454 20.4941 28.9204 20.3165 28.9212 19.868C28.9237 19.0034 28.922 18.1388 28.922 17.2742C28.922 16.212 28.9245 15.1498 28.9204 14.0876ZM19.4223 14.1743C19.4215 15.2657 19.4223 16.3579 19.4223 17.4818H18.9398V12.5068H26.8963V13.4914H20.1139C19.579 13.4914 19.4231 13.6457 19.4223 14.1743ZM27.8979 19.4728H20.4364V14.5078H27.8979V19.4728Z" fill="#1B1B1B"/>
<path d="M11.0826 5.52267C10.1368 5.02075 9.17515 4.54802 8.21434 4.07611C7.76852 3.85684 7.42937 4.08112 7.42353 4.5872C7.41853 5.04576 7.4227 5.50433 7.4227 5.96206C7.4227 6.44146 7.4177 6.92087 7.42436 7.40028C7.4302 7.88802 7.76936 8.1173 8.19684 7.90803C9.16848 7.43279 10.1376 6.95255 11.0943 6.44813C11.2409 6.36976 11.4034 6.14798 11.3968 5.99874C11.3901 5.83199 11.2359 5.60438 11.0826 5.52267ZM8.4335 6.67575V5.30506C8.88266 5.52851 9.30598 5.73944 9.7993 5.98457C9.32515 6.22469 8.90016 6.43896 8.4335 6.67575Z" fill="#E65425"/>
<path d="M26.9022 15.5156H23.4373V16.4778H26.9022V15.5156Z" fill="#E65425"/>
<path d="M26.9155 17.5137H24.4456V18.4683H26.9155V17.5137Z" fill="#E65425"/>
<path d="M23.4072 17.5137H21.4464V18.4783H23.4072V17.5137Z" fill="#E65425"/>
<path d="M22.3989 15.5078H21.4373V16.4716H22.3989V15.5078Z" fill="#E65425"/>
</svg>
