<svg width="130" height="88" viewBox="0 0 130 88" fill="none" xmlns="http://www.w3.org/2000/svg">
<path d="M88.484 9.39646C87.8595 9.39646 87.4432 9.48053 87.0229 9.5846V9.64865H87.0869C87.3791 10.1891 87.8595 10.6094 88.2318 11.1097C88.524 11.6742 88.7722 12.2546 89.0444 12.819L89.1284 12.7349C89.6288 12.3787 89.881 11.8183 89.881 10.9616C89.6729 10.7094 89.6288 10.4412 89.4447 10.2091C89.2365 9.8528 88.7762 9.66866 88.484 9.39646ZM31.7137 79.8208H26.7741C26.6245 71.9583 26.145 64.1056 25.337 56.2833H25.297L17.7714 79.8208H13.9966L6.53102 56.2833H6.46697C5.88681 64.1171 5.53973 71.9664 5.4262 79.8208H0.922852C1.1667 69.9501 1.89746 60.0975 3.11248 50.2989H9.24104L16.3703 71.983H16.4104L23.6037 50.2989H29.4401C30.733 61.0589 31.5056 70.8982 31.7338 79.8208H31.7137ZM53.1457 58.0366C51.1442 68.9608 48.4742 76.9067 45.2038 81.8463C42.6179 85.6612 39.8038 87.5786 36.7375 87.5786C35.9249 87.5786 34.9241 87.3264 33.7152 86.826V84.2001C34.3197 84.2841 35.0082 84.3442 35.7808 84.3442C37.2178 84.3442 38.3667 83.9279 39.2433 83.1553C40.2841 82.1946 40.8085 81.1138 40.8085 79.9249C40.8085 79.0923 40.4122 77.423 39.5796 74.8811L34.1796 58.0366H39.0392L42.9181 70.63C43.7947 73.5081 44.171 75.4896 44.0029 76.6345C46.1485 70.9622 47.6296 64.7496 48.4662 58.0366H53.1457ZM118.943 79.8208H104.892V50.2989H109.624V76.1941H118.943V79.8208ZM101.221 80.5334L95.8014 77.8634C96.2818 77.4671 96.7381 77.0308 97.1584 76.5304C99.4721 73.8404 100.621 69.8174 100.621 64.5215C100.621 54.7422 96.7861 49.8666 89.1124 49.8666C85.3576 49.8666 82.4194 51.0955 80.3139 53.5773C78.0202 56.2873 76.8513 60.2903 76.8513 65.5662C76.8513 70.7581 77.8721 74.5529 79.9176 76.9907C81.795 79.1603 84.6091 80.2652 88.3839 80.2652C89.7809 80.2652 91.0739 80.097 92.2428 79.7448L99.312 83.8718L101.249 80.5374L101.221 80.5334ZM83.6484 73.9004C82.4395 71.983 81.855 68.8967 81.855 64.6415C81.855 57.2 84.1087 53.4893 88.6321 53.4893C90.9898 53.4893 92.7391 54.3859 93.8439 56.1592C95.0328 58.0967 95.6373 61.1429 95.6373 65.3541C95.6373 72.8396 93.3636 76.6144 88.8602 76.6144C86.4825 76.6144 84.7532 75.7178 83.6283 73.9445L83.6484 73.9004ZM74.8058 71.6508C74.8058 74.1526 73.8891 76.2181 72.0317 77.7993C70.1984 79.4045 67.7565 80.2171 64.6502 80.2171C61.7521 80.2171 58.978 79.3004 56.248 77.4631L57.5209 74.9212C59.8547 76.09 61.9602 76.6745 63.8817 76.6745C65.655 76.6745 67.052 76.2782 68.0528 75.5056C69.0535 74.713 69.658 73.6082 69.658 72.2112C69.658 70.4579 68.429 68.9567 66.1954 67.7078C64.1298 66.563 59.9828 64.2052 59.9828 64.2052C57.7291 62.56 56.6243 60.8067 56.6243 57.9085C56.6243 55.5108 57.4569 53.5933 59.1261 52.1322C60.8154 50.6311 62.961 49.9026 65.631 49.9026C68.2873 49.8795 70.8914 50.6412 73.1165 52.0922L71.9717 54.6341C70.1831 53.8465 68.2537 53.4285 66.2995 53.4052C64.7783 53.4052 63.6095 53.7815 62.7969 54.51C61.9843 55.2385 61.4839 56.1552 61.4839 57.3041C61.4839 59.0574 62.7368 60.5585 65.0265 61.8475C67.1321 62.9923 71.3632 65.4141 71.3632 65.4141C73.6769 67.0393 74.8258 68.7926 74.8258 71.6467L74.8058 71.6508ZM124.867 40.3995C122.009 40.3355 119.799 40.6277 117.946 41.4203C117.425 41.6284 116.569 41.6284 116.485 42.2969C116.777 42.5891 116.817 43.0495 117.069 43.4418C117.506 44.1503 118.238 45.111 118.927 45.6114C119.679 46.1958 120.428 46.7803 121.2 47.2806C122.597 48.1373 124.162 48.6376 125.536 49.4903C126.308 49.9907 127.101 50.6351 127.869 51.1595C128.266 51.4317 128.514 51.9121 129.014 52.0762V51.9721C128.762 51.6599 128.702 51.1995 128.45 50.8273C128.093 50.471 127.741 50.1588 127.385 49.8065C126.341 48.4205 125.089 47.2039 123.674 46.1998C122.529 45.4272 120.027 44.3425 119.567 43.0295L119.503 42.9454C120.276 42.8814 121.192 42.5891 121.941 42.381C123.15 42.0688 124.275 42.1288 125.528 41.8166C126.102 41.6674 126.672 41.5005 127.237 41.3162V41.004C126.592 40.3595 126.112 39.4828 125.443 38.8784C123.601 37.2665 121.635 35.8022 119.563 34.4991C118.438 33.7706 117.021 33.3102 115.832 32.7058C115.416 32.4976 114.687 32.3936 114.455 32.0373C113.811 31.2447 113.435 30.2239 112.974 29.2833C111.927 27.2481 110.954 25.1759 110.056 23.0706C109.412 21.6736 109.035 20.2966 108.243 19.0036C104.572 12.9351 100.569 9.26837 94.4404 5.66169C93.1274 4.90913 91.5422 4.59689 89.873 4.2006C88.9763 4.16057 88.0997 4.09652 87.203 4.05649C86.6186 3.80431 86.0582 3.13981 85.5578 2.80356C83.5163 1.5106 78.2604 -1.26346 76.7793 2.40727C75.8185 4.741 78.1963 7.01469 79.0329 8.18356C79.6374 9.01618 80.41 9.93687 80.8463 10.8535C81.0985 11.478 81.1585 12.1265 81.4107 12.771C81.9751 14.3361 82.5155 16.0854 83.2681 17.5465C83.6644 18.2991 84.0807 19.0877 84.5811 19.7562C84.8733 20.1525 85.3736 20.3206 85.4777 20.9651C84.9774 21.6936 84.9373 22.7584 84.6651 23.635C83.3722 27.6781 83.8725 32.6618 85.6859 35.644C86.2703 36.5406 87.6233 38.5021 89.4407 37.7495C91.0459 37.1051 90.6936 35.0796 91.1499 33.2862C91.254 32.8499 91.19 32.5777 91.4021 32.2855V32.3695C91.9225 33.3703 92.4229 34.331 92.8832 35.3317C93.968 37.0851 95.9055 38.8984 97.5107 40.1073C98.3673 40.7518 99.0318 41.8606 100.097 42.2529V42.1488H100.013C99.7844 41.8366 99.4921 41.6885 99.1999 41.4403C98.5239 40.7706 97.8965 40.0536 97.3225 39.2947C95.8414 37.2932 94.5084 35.0836 93.3396 32.8099C92.7765 31.6865 92.2623 30.5392 91.7984 29.3713C91.5903 28.955 91.5903 28.3065 91.234 28.0984C90.6936 28.8709 89.901 29.5354 89.5247 30.5162C88.8362 32.0373 88.7722 33.9347 88.504 35.8962C88.3799 35.9362 88.4399 35.8962 88.3799 35.9802C87.235 35.688 86.8387 34.5191 86.4184 33.5184C85.3336 30.9765 85.1655 26.9095 86.0862 23.9913C86.3384 23.2388 87.3992 20.885 86.9828 20.1765C86.7547 19.488 86.0462 19.0917 85.6699 18.5513C85.1895 17.8828 84.7092 17.0301 84.3769 16.2776C83.5203 14.2761 83.104 12.0665 82.1673 10.065C81.751 9.14828 80.9984 8.18756 80.3939 7.33493C79.7054 6.37422 78.9569 5.68971 78.4325 4.56087C78.2443 4.16457 77.9962 3.52009 78.2884 3.09978C78.3524 2.80756 78.4965 2.70349 78.7887 2.61942C79.2491 2.22313 80.5821 2.7235 81.0424 2.95167C82.3554 3.47206 83.4602 3.97243 84.565 4.72499C85.0654 5.08125 85.6058 5.74575 86.2543 5.93389H87.0069C88.1517 6.18608 89.4247 5.99794 90.4894 6.33018C92.3869 6.93463 94.0961 7.81128 95.6373 8.76799C100.35 11.7934 104.183 16.0072 106.75 20.9851C107.186 21.7977 107.374 22.5502 107.77 23.4029C108.499 25.1762 109.44 26.9455 110.188 28.6348C110.937 30.324 111.649 32.0333 112.73 33.4303C113.27 34.1829 115.4 34.5752 116.377 34.9515C117.085 35.2837 118.19 35.5759 118.815 35.9522C120.043 36.7048 121.252 37.5574 122.401 38.39C122.986 38.7863 124.759 39.683 124.863 40.3915L124.867 40.3995Z" fill="#EBEBEB"/>
</svg>
