<svg width="31" height="25" viewBox="0 0 31 25" fill="none" xmlns="http://www.w3.org/2000/svg">
<path d="M29.8986 5.35771C28.3072 3.82853 26.7322 2.28337 25.151 0.745062C24.2166 -0.164388 23.1369 -0.243471 22.0729 0.519981C21.2088 1.13972 20.3439 1.75945 19.4814 2.38223C19.1111 2.64989 19.0955 2.87877 19.4213 3.20195C19.5924 3.37076 19.7658 3.53805 19.9377 3.70762C19.9502 3.72055 19.958 3.7388 19.9807 3.77454C19.9283 3.83157 19.876 3.8962 19.8158 3.95475C18.9393 4.80869 18.0658 5.66492 17.1791 6.50897C17.076 6.60706 16.8994 6.67702 16.7541 6.68234C16.1885 6.70211 15.6221 6.69679 15.0557 6.68463C14.9424 6.68234 14.801 6.63976 14.7229 6.566C13.7908 5.67252 12.8682 4.76915 11.9439 3.86883C11.9174 3.84221 11.8963 3.81104 11.8432 3.7464C12.0541 3.54793 12.2689 3.35783 12.4697 3.15404C12.7369 2.8841 12.7158 2.63468 12.4049 2.41036C11.4799 1.74196 10.558 1.06976 9.62285 0.416565C8.72051 -0.212294 7.6127 -0.119524 6.81426 0.631001C6.54785 0.881936 6.28613 1.13819 6.02754 1.39749C5.81191 1.61497 5.79707 1.84386 5.97519 2.0294C6.16035 2.22254 6.41504 2.21494 6.64551 1.99898C6.89863 1.76173 7.14238 1.5146 7.39316 1.27507C7.91504 0.776239 8.55254 0.723011 9.14316 1.13211C9.44316 1.3397 9.73691 1.55718 10.0158 1.75717C7.5791 4.12813 5.15957 6.48388 2.71816 8.86092C2.46738 8.51569 2.17441 8.16971 1.94785 7.78646C1.65879 7.2998 1.78223 6.73785 2.22598 6.30442C3.21738 5.33414 4.21348 4.36842 5.20723 3.40041C5.27598 3.3335 5.35332 3.26962 5.40645 3.19206C5.53613 3.0012 5.52285 2.80882 5.3541 2.64837C5.18613 2.48792 4.98926 2.47652 4.79473 2.60731C4.72363 2.65521 4.66504 2.72137 4.60254 2.7822C3.71895 3.64222 2.84395 4.51137 1.94785 5.35847C1.47832 5.80331 1.06426 6.26792 0.922852 6.91123V7.5956C1.08691 8.18644 1.47129 8.65333 1.83691 9.13087C2.3502 9.80155 2.85566 10.4776 3.36816 11.1482C3.63457 11.4965 3.87754 11.5163 4.19082 11.2136C4.38301 11.0273 4.56348 10.8296 4.74004 10.6464C4.93301 10.8289 5.09082 10.9787 5.26113 11.1406C5.22129 11.1825 5.17129 11.238 5.11816 11.2897C3.77363 12.6029 3.28223 14.1777 3.76738 15.9631C4.2502 17.7364 5.4666 18.8702 7.28848 19.3637C7.48301 19.4162 7.56504 19.493 7.62051 19.6869C7.93535 20.794 8.63613 21.5985 9.71191 22.0738C9.91582 22.1643 9.98535 22.2654 9.97598 22.4753C9.95957 22.8646 9.9666 23.2547 9.97285 23.6448C9.98457 24.3223 10.3494 24.7976 10.9689 24.9542C11.5463 25.1002 12.1033 24.8516 12.4479 24.2942C12.5799 24.082 13.0752 24.0744 13.2072 24.2836C13.8088 25.2371 14.9447 25.2386 15.5439 24.2874C15.6752 24.0775 16.1721 24.0805 16.3033 24.2919C16.8861 25.2272 18.0611 25.2341 18.6275 24.3048C18.7752 24.0615 19.2635 24.0729 19.415 24.3231C19.6994 24.7923 20.1221 25.0295 20.6799 24.9847C21.2002 24.9421 21.5799 24.6683 21.7689 24.1953C21.8471 23.9976 21.8674 23.7688 21.8697 23.5536C21.8799 22.584 21.8791 21.6145 21.8705 20.645C21.8689 20.4442 21.9291 20.3743 22.1369 20.2975C22.5955 20.1279 23.0252 19.8838 23.4682 19.674C23.6119 19.6055 23.7557 19.512 23.908 19.4922C24.665 19.3926 25.3666 19.1561 26.008 18.7523C26.2986 18.5698 26.3768 18.3333 26.226 18.109C26.076 17.8839 25.8408 17.868 25.5314 18.0292C25.176 18.2155 24.808 18.3797 24.3916 18.5797C24.4752 18.2094 24.5322 17.9258 24.6064 17.6459C24.6229 17.5843 24.6885 17.5151 24.7494 17.487C26.6666 16.5951 27.2049 13.9176 25.3143 12.3398C25.5221 12.1535 25.7283 11.968 25.9533 11.7664C26.6439 12.3292 27.1002 13.0622 27.2854 13.9458C27.4939 14.9442 27.333 15.8909 26.7908 16.7692C26.7705 16.8019 26.7494 16.8338 26.7314 16.8673C26.5916 17.122 26.6432 17.3623 26.8635 17.4878C27.0783 17.6102 27.3299 17.5395 27.4869 17.2969C28.0182 16.4802 28.2744 15.5875 28.2455 14.6195C28.2064 13.3344 27.7064 12.2425 26.7729 11.3368C26.7049 11.2714 26.615 11.2281 26.5338 11.1726C26.7393 10.9711 26.8939 10.819 27.0822 10.6357C27.2799 10.8357 27.4697 11.0372 27.6705 11.2281C27.9619 11.5064 28.2135 11.4919 28.4549 11.1764C29.1416 10.2768 29.8369 9.38256 30.4979 8.46475C30.6932 8.19252 30.7838 7.84957 30.9229 7.53857V6.91123C30.7807 6.26868 30.3643 5.80559 29.8986 5.35771ZM14.7291 7.66632C14.801 7.59712 14.9307 7.55301 15.0346 7.55073C15.6299 7.54009 16.226 7.54009 16.8205 7.55149C16.9244 7.55301 17.0518 7.60244 17.1244 7.67316C19.0752 9.56278 21.0213 11.4577 22.9635 13.3565C23.026 13.4181 23.0814 13.542 23.0619 13.6188C22.9924 13.891 22.89 14.1557 22.7916 14.4499C22.6783 14.3754 22.59 14.3207 22.5057 14.2614C20.8463 13.0926 19.1869 11.9223 17.5268 10.7536C16.3393 9.91789 15.1096 10.0038 14.0635 10.9977C12.59 12.3983 11.1182 13.8013 9.64551 15.202C9.57051 15.2742 9.49082 15.3419 9.38066 15.4407C9.17051 14.8111 8.96973 14.2264 8.78769 13.6371C8.76426 13.561 8.80879 13.4295 8.86895 13.3702C10.8174 11.4638 12.7705 9.56278 14.7291 7.66632ZM17.5244 12.6288C17.5135 13.4949 16.8025 14.1731 15.9104 14.1678C15.0205 14.1625 14.3174 13.4705 14.3213 12.6044C14.3244 11.7391 15.033 11.0494 15.9205 11.0479C16.8182 11.0471 17.5354 11.7535 17.5244 12.6288ZM13.9463 7.12262C12.0619 8.95597 10.1385 10.8273 8.24316 12.6706C7.35098 11.8014 6.42363 10.8981 5.49395 9.99241C5.65957 9.83805 5.87363 9.63806 6.12363 9.40537C6.4877 9.76277 6.87754 10.1445 7.26504 10.527C7.57051 10.8289 7.93535 10.9908 8.37129 10.9368C8.88848 10.873 9.25879 10.6 9.44082 10.1202C9.62363 9.63882 9.52051 9.19778 9.16582 8.8267C8.83379 8.47919 8.4791 8.15146 8.13535 7.81459C8.06816 7.74844 8.0041 7.67848 7.9541 7.62677C8.2252 7.34542 8.47051 7.09068 8.75176 6.79869C9.16738 7.21463 9.56426 7.6321 9.98457 8.02523C10.3611 8.3773 10.8174 8.47083 11.3119 8.29669C11.7955 8.1256 12.0736 7.77505 12.1494 7.28611C12.215 6.86256 12.0627 6.50061 11.7549 6.201C11.3619 5.81852 10.965 5.43983 10.5549 5.04518C10.7979 4.83379 11.0197 4.63988 11.2205 4.46575C12.1111 5.33414 13.0393 6.23903 13.9463 7.12262ZM6.71035 8.78032C6.9166 8.57577 7.09316 8.40011 7.27598 8.21913C7.70332 8.62823 8.13223 9.02517 8.54238 9.43807C8.70801 9.60536 8.68535 9.81219 8.51504 9.97188C8.33379 10.143 8.12207 10.1369 7.9416 9.96808C7.5291 9.58027 7.12676 9.18333 6.71035 8.78032ZM9.36504 6.20633C9.55488 6.01851 9.7377 5.83753 9.92441 5.65351C10.3455 6.05653 10.7674 6.44738 11.1721 6.8542C11.3471 7.03061 11.3307 7.24277 11.1471 7.41006C10.9736 7.56822 10.765 7.56898 10.5955 7.40854C10.1775 7.01388 9.77207 6.6063 9.36504 6.20633ZM3.80879 10.2829C3.65645 10.0844 3.47832 9.85325 3.31895 9.64566C5.82598 7.20855 8.31738 4.7874 10.8322 2.34268C11.0408 2.49248 11.276 2.6613 11.4869 2.81338C8.93066 5.30068 6.37832 7.78342 3.80879 10.2829ZM7.48301 18.4953C6.59004 18.4003 5.03535 17.4254 4.59473 15.7023C4.22129 14.2454 4.80488 12.4949 5.91582 11.7702C6.11973 11.9596 6.32285 12.1474 6.52598 12.336C4.55098 13.98 5.18613 16.935 7.6291 17.703C7.57832 17.9767 7.53066 18.2368 7.48301 18.4953ZM7.79238 16.8414C6.95488 16.5395 6.41816 15.9685 6.26973 15.1168C6.11738 14.2431 6.43223 13.5161 7.16582 12.9626C7.55723 13.304 7.91582 13.6363 8.04395 14.1686C8.18379 14.7473 8.40254 15.3084 8.60332 15.8719C8.66348 16.0415 8.63379 16.1464 8.50566 16.2688C8.36113 16.4072 8.23223 16.5669 8.1252 16.735C8.03457 16.8779 7.94707 16.8969 7.79238 16.8414ZM11.6916 23.7992C11.6783 24.0197 11.4947 24.1444 11.258 24.1322C11.0213 24.1193 10.8713 23.9786 10.8627 23.7528C10.8471 23.3102 10.858 22.8669 10.858 22.3901H11.7002C11.7002 22.8585 11.7197 23.33 11.6916 23.7992ZM12.5885 23.2699C12.5885 22.9224 12.5533 22.5772 12.6072 22.2464C12.6268 22.127 12.8619 22.0411 13.0346 21.9134C13.0502 22.0274 13.0611 22.0715 13.0611 22.1156C13.0619 22.4936 13.0619 22.8722 13.0619 23.2699H12.5885ZM11.2088 21.5415C9.62129 21.5172 8.35488 20.2625 8.3666 18.7272C8.3791 17.1912 9.67441 15.9555 11.2596 15.9685C12.8416 15.9806 14.1166 17.2391 14.1025 18.7767C14.0893 20.3081 12.7729 21.5659 11.2088 21.5415ZM14.8049 23.7034C14.7885 23.9687 14.608 24.1414 14.3635 24.1353C14.1213 24.1292 13.9494 23.9573 13.9439 23.6806C13.9346 23.1498 13.983 22.6152 13.9299 22.0898C13.8697 21.4974 14.0377 21.0427 14.5393 20.7028C14.6182 20.6496 14.6807 20.5743 14.8072 20.4564V23.2768C14.8072 23.419 14.8135 23.5612 14.8049 23.7034ZM14.9869 19.077C15.0174 17.9493 14.7002 16.9927 13.9174 16.2164C13.14 15.4453 12.1877 15.0788 11.158 15.1077C11.8744 14.3632 12.6221 13.5853 13.4182 12.7573C13.7158 14.2416 14.7033 15.0674 16.0338 15.0195C17.3721 14.9716 18.2385 14.0629 18.4291 12.4607C19.2525 13.0371 20.0533 13.5975 20.851 14.1564C20.84 14.1838 20.8369 14.2089 20.8283 14.2112C20.0119 14.3807 19.3924 14.8476 18.8158 15.4103C17.5689 16.6277 16.2994 17.8224 14.9869 19.077ZM16.1361 23.2745H15.708V20.4017H16.1361V23.2745ZM17.9002 23.7292C17.8682 23.9824 17.6932 24.1414 17.458 24.1353C17.2252 24.1292 17.0471 23.9611 17.0424 23.7064C17.0322 23.165 17.0385 22.6228 17.0385 22.0814C17.0377 21.5309 17.0385 20.9803 17.0385 20.3979H17.8783C17.8877 20.4777 17.9033 20.5492 17.9033 20.6214C17.9049 21.61 17.9049 22.5985 17.9041 23.5863C17.9041 23.6342 17.9064 23.6821 17.9002 23.7292ZM15.9408 19.5036C16.6557 18.7691 17.408 17.995 18.2229 17.157C18.2525 18.1007 18.5471 18.8535 19.2025 19.5036H15.9408ZM19.2393 23.2775H18.8025V20.4077H19.2393V23.2775ZM20.9861 23.7513C20.9502 23.9908 20.8104 24.1292 20.5572 24.133C20.3229 24.1368 20.1439 23.9642 20.1408 23.7117C20.133 23.0661 20.1377 22.4213 20.1369 21.7757V20.4009H20.9775C20.9838 20.4944 20.9947 20.5857 20.9947 20.6777C20.9963 21.6358 20.9955 22.5947 20.9955 23.5528C20.9955 23.619 20.9963 23.6859 20.9861 23.7513ZM21.4275 19.5272C20.151 19.5257 19.1236 18.5288 19.1182 17.2863C19.1127 16.04 20.1619 15.0149 21.4385 15.0187C22.7041 15.0233 23.7424 16.0331 23.7518 17.2688C23.7619 18.5105 22.7135 19.5295 21.4275 19.5272ZM24.5533 16.5874C24.3947 15.9875 24.1049 15.4803 23.6689 15.0507C23.6158 14.9982 23.5854 14.8788 23.6064 14.8066C23.715 14.4332 23.7963 14.0401 23.9807 13.7024C24.1346 13.4196 24.4182 13.2036 24.6393 12.9626C25.9596 13.7793 25.908 15.8483 24.5533 16.5874ZM23.6197 12.7124C21.701 10.8448 19.7768 8.9727 17.8768 7.12262C18.7893 6.2337 19.7182 5.32805 20.6549 4.41632C20.84 4.60414 21.0416 4.80869 21.2619 5.03149C21.2283 5.07256 21.1861 5.13263 21.1346 5.18358C20.7768 5.53412 20.4111 5.87631 20.0596 6.2337C19.5502 6.7523 19.5541 7.50815 20.0572 8.00318C20.5572 8.49592 21.34 8.51113 21.8729 8.01458C22.2885 7.62753 22.6783 7.21539 23.076 6.8177C23.3564 7.10589 23.6072 7.36443 23.8877 7.65415C23.5197 8.00926 23.1049 8.39555 22.7072 8.79628C22.2072 9.30044 22.19 10.0236 22.6494 10.5232C23.151 11.0676 23.9627 11.098 24.5268 10.5726C24.9361 10.1924 25.3213 9.78862 25.7033 9.40917C25.9385 9.64034 26.1525 9.85097 26.3557 10.051C25.4658 10.9163 24.5416 11.8159 23.6197 12.7124ZM21.9166 5.65199C22.1033 5.83981 22.2846 6.02079 22.476 6.21241C22.0752 6.60554 21.6713 7.01388 21.2525 7.40702C21.0721 7.57583 20.8557 7.56898 20.6799 7.39257C20.5143 7.2268 20.5064 7.02225 20.6713 6.85648C21.0768 6.4489 21.4971 6.05653 21.9166 5.65199ZM24.5447 8.21761C24.733 8.41456 24.9104 8.59858 25.1057 8.80313C24.7166 9.18181 24.3221 9.57494 23.9166 9.95591C23.7189 10.1414 23.4814 10.1399 23.3205 9.96579C23.151 9.78178 23.1533 9.58103 23.3275 9.40613C23.7268 9.0054 24.1361 8.61531 24.5447 8.21761ZM28.0354 10.2882C25.4721 7.79406 22.9213 5.31132 20.3564 2.81566C20.5697 2.66282 20.8096 2.4902 21.0252 2.33508C23.5275 4.77143 26.0166 7.1941 28.5299 9.6411C28.365 9.85706 28.1916 10.0837 28.0354 10.2882ZM29.7236 8.06249C29.5236 8.33015 29.3205 8.59554 29.1369 8.83659C26.7127 6.47247 24.2979 4.11824 21.8533 1.73512C22.1752 1.51156 22.5229 1.23325 22.9057 1.01273C23.4104 0.72149 23.9986 0.835551 24.4541 1.27583C25.4299 2.2195 26.401 3.16849 27.3736 4.1152C28.1119 4.83379 28.851 5.55161 29.5869 6.27172C30.1502 6.82378 30.1955 7.43135 29.7236 8.06249Z" fill="#1B1B1B"/>
<path d="M11.244 17.4629C10.5072 17.4584 9.89787 18.0515 9.90646 18.7632C9.91584 19.4719 10.5088 20.0384 11.2393 20.0369C11.969 20.0346 12.5596 19.462 12.5619 18.7541C12.5635 18.0507 11.9682 17.4667 11.244 17.4629ZM11.6776 18.7784C11.6611 19.0187 11.4572 19.1929 11.2072 19.1792C10.9619 19.1662 10.7736 18.9617 10.7901 18.7252C10.8065 18.4902 11.0221 18.3055 11.2611 18.3199C11.5026 18.3343 11.6932 18.545 11.6776 18.7784Z" fill="#E65425"/>
<path d="M21.4307 15.9844C20.7096 15.9859 20.1119 16.5668 20.1065 17.2717C20.1018 17.9766 20.6916 18.5561 21.4205 18.5614C22.151 18.5667 22.7455 18.0055 22.7612 17.2953C22.776 16.5881 22.1627 15.9836 21.4307 15.9844ZM21.4198 17.7037C21.1713 17.6976 20.9807 17.5029 20.9893 17.2634C20.9971 17.0299 21.2096 16.8338 21.4463 16.8414C21.683 16.8497 21.8862 17.0596 21.8791 17.2885C21.8713 17.5265 21.6682 17.7097 21.4198 17.7037Z" fill="#E65425"/>
</svg>
