<svg width="31" height="28" viewBox="0 0 31 28" fill="none" xmlns="http://www.w3.org/2000/svg">
<g clip-path="url(#clip0_1607_4558)">
<path d="M29.4923 18.787C29.4423 18.7878 29.3673 18.7296 29.3463 18.6807C29.2095 18.3678 29.0845 18.0496 28.9572 17.7367C29.6783 16.9181 29.6619 16.3674 28.9252 15.5756C28.8353 15.4784 28.7931 15.3048 28.7931 15.1663C28.7861 11.2366 28.79 7.30686 28.783 3.37713C28.783 3.02524 28.7588 2.66723 28.6845 2.32375C28.3916 0.96131 27.2759 0.00354795 25.9798 0.00278296C18.5595 -0.00180695 11.1384 0.000488007 3.71735 0.00125299C3.10797 0.00125299 2.56657 0.195559 2.10172 0.577287C1.26657 1.26424 0.923598 2.16846 0.922816 3.21496C0.922816 8.54997 0.922035 13.885 0.92516 19.2207C0.92516 19.4579 0.946254 19.6981 0.983754 19.933C1.18688 21.2067 2.13063 22.2776 3.34547 22.3786C4.63532 22.4849 5.93922 22.4268 7.23766 22.4184C7.55016 22.4161 7.76344 22.1216 7.74625 21.8209C7.72828 21.4989 7.48375 21.2824 7.115 21.2809C6.02125 21.277 4.9275 21.274 3.83375 21.2809C3.25485 21.2847 2.82282 21.0384 2.50094 20.5832C2.20172 20.1586 2.09938 19.6805 2.09938 19.171C2.10172 15.825 2.10016 12.4782 2.10094 9.13212C2.10094 9.03114 2.11032 8.93016 2.115 8.82842H27.5752V14.5681C27.2681 14.6568 26.9244 14.6576 26.7494 14.8259C26.3767 15.1847 26.0517 15.109 25.6806 14.8894C25.64 14.8657 25.5916 14.8466 25.5447 14.8389C25.2931 14.8007 25.2142 14.6637 25.1955 14.4128C25.1447 13.7488 24.6588 13.2783 23.9814 13.237C23.5345 13.2095 23.0806 13.2064 22.6361 13.25C22.0767 13.3051 21.7158 13.6425 21.5533 14.1642C21.497 14.344 21.4955 14.539 21.4689 14.7318C21.2041 14.8404 20.9259 14.9338 20.6697 15.0669C20.4916 15.1594 20.3892 15.1396 20.2416 15.0057C19.7166 14.5314 18.9759 14.5222 18.4627 14.9804C18.1603 15.2505 17.8705 15.5358 17.5931 15.8319C17.2166 16.2335 17.0845 16.8875 17.4408 17.283C17.8306 17.7168 17.7017 18.0595 17.4947 18.4604C17.4681 18.5108 17.4697 18.5835 17.4314 18.6187C17.3588 18.6876 17.2705 18.7801 17.1822 18.7878C16.297 18.8658 15.8283 19.3554 15.8236 20.2313C15.8213 20.5717 15.8228 20.9121 15.8228 21.2793H15.4986C14.483 21.2793 13.4673 21.2763 12.4525 21.2809C12.04 21.2824 11.7908 21.5318 11.8158 21.8982C11.8384 22.2256 12.0884 22.4299 12.4877 22.4306C13.9822 22.4329 15.4759 22.4421 16.9697 22.423C17.2853 22.4192 17.4517 22.4979 17.5158 22.8039C17.5463 22.9508 17.6166 23.0962 17.697 23.2247C17.8072 23.3983 17.7838 23.5116 17.6361 23.6646C17.1502 24.1664 17.1447 24.8916 17.6173 25.4049C17.8916 25.7025 18.1853 25.9855 18.4884 26.2548C18.8947 26.6159 19.5525 26.752 19.9455 26.4131C20.397 26.0238 20.7541 26.137 21.172 26.3611C21.1892 26.3703 21.2072 26.3802 21.2259 26.3833C21.4478 26.4116 21.5119 26.5317 21.5252 26.7505C21.572 27.504 22.1197 27.9913 22.89 27.9982C23.1931 28.0013 23.4955 27.9997 23.7986 27.999C24.6556 27.9959 25.1838 27.504 25.2384 26.6664C25.2439 26.5929 25.2759 26.4805 25.3283 26.4575C25.6541 26.3152 25.9892 26.1936 26.3158 26.0674C26.9986 26.6679 27.7002 26.7436 28.2611 26.2594C28.5752 25.9878 28.8705 25.6925 29.1509 25.3881C29.5322 24.9742 29.6416 24.3178 29.2783 23.9086C28.9353 23.5223 29.0056 23.2254 29.2166 22.8621C29.2681 22.7718 29.2822 22.6609 29.3337 22.5699C29.365 22.514 29.4338 22.4383 29.4845 22.4383C30.233 22.4452 30.6783 22.0581 30.9228 21.401V19.7945C30.6627 19.1641 30.2275 18.7748 29.4923 18.787ZM2.12125 7.62969C2.11422 7.54554 2.10172 7.4721 2.10172 7.39866C2.10016 5.99262 2.09938 4.58734 2.10172 3.1813C2.1025 2.61903 2.25797 2.10573 2.63922 1.67275C2.96657 1.30096 3.38219 1.14873 3.88375 1.14873C8.49313 1.15485 13.1025 1.15256 17.7119 1.15256H25.6806C26.797 1.15256 27.5455 1.82192 27.5822 2.92732C27.6197 4.07327 27.597 5.22151 27.5994 6.36899C27.6009 6.77902 27.6002 7.18906 27.6002 7.62969H2.12125ZM29.1345 21.2793C28.5705 21.2793 28.4673 21.3818 28.2877 21.9058C28.1361 22.3457 27.9384 22.7733 27.7306 23.1918C27.5509 23.5552 27.5588 23.7533 27.8447 24.0417C28.3478 24.5504 28.3509 24.5527 27.8416 25.0446C27.3337 25.5357 27.4736 25.5449 26.9634 25.0538C26.5697 24.6751 26.4205 24.6751 25.933 24.913C25.5002 25.1241 25.0423 25.2932 24.5853 25.4508C24.1963 25.5847 24.0627 25.7269 24.0564 26.1301C24.0447 26.8469 24.0447 26.8484 23.297 26.8469C22.6384 26.8454 22.7041 26.915 22.7017 26.2632C22.7002 25.6964 22.5916 25.5915 22.0431 25.4125C21.5931 25.2657 21.158 25.0683 20.7306 24.8648C20.3619 24.6904 20.1595 24.7003 19.8619 24.9819C19.3439 25.4699 19.3416 25.473 18.8392 24.9742C18.3455 24.4838 18.3275 24.6154 18.8361 24.1159C19.2134 23.7449 19.2158 23.5796 18.9736 23.1061C18.7658 22.6991 18.5923 22.2723 18.4447 21.8401C18.2978 21.4124 18.1564 21.2831 17.6923 21.2786C16.9228 21.2709 17.0166 21.3811 17.0119 20.6046C17.0088 19.9613 17.0111 19.9613 17.6525 19.9559C18.147 19.9521 18.2908 19.8159 18.447 19.3653C18.6017 18.9155 18.7994 18.4787 19.008 18.0496C19.1939 17.6671 19.1853 17.4812 18.8861 17.1752C18.3931 16.6718 18.3923 16.6711 18.9025 16.1738C19.0197 16.0598 19.1408 15.9489 19.2634 15.8395C19.2822 15.8227 19.3181 15.8234 19.358 15.8135C19.4002 15.841 19.4525 15.8671 19.4947 15.9038C19.5673 15.9673 19.6338 16.0376 19.7033 16.105C20.1759 16.5662 20.2822 16.5624 20.8713 16.2694C21.2681 16.0721 21.6908 15.9183 22.1142 15.7791C22.5322 15.6421 22.6681 15.4968 22.6728 15.0608C22.6798 14.3868 22.6798 14.3868 23.3791 14.3868C24.0189 14.3868 24.0189 14.3868 24.0275 15.0279C24.033 15.4807 24.1744 15.6299 24.5994 15.7714C25.0673 15.9283 25.5291 16.1096 25.9736 16.3207C26.3947 16.5211 26.5853 16.5211 26.9134 16.209C27.4056 15.7408 27.4056 15.7408 27.8955 16.2205C28.3517 16.6672 28.3517 16.6672 27.8931 17.1209C27.5463 17.4643 27.5431 17.6395 27.7541 18.061C27.9713 18.4955 28.1572 18.9484 28.3213 19.4051C28.4634 19.7998 28.615 19.9444 29.0283 19.9559C29.7447 19.9758 29.7463 19.9758 29.7447 20.675C29.7439 21.329 29.815 21.2793 29.1345 21.2793Z" fill="#1B1B1B"/>
<path d="M15.208 15.5995C14.683 16.1893 14.151 16.7737 13.615 17.3536C13.3643 17.6252 13.0064 17.6527 12.7564 17.44C12.4947 17.2174 12.4846 16.8648 12.7439 16.5748C13.1994 16.0669 13.6611 15.5643 14.1385 15.0395C13.6658 14.5186 13.2189 14.0282 12.7744 13.5348C12.4932 13.2219 12.4838 12.8815 12.7447 12.6482C13.0064 12.4133 13.3627 12.4516 13.6424 12.7553C14.1643 13.3221 14.6846 13.8913 15.1978 14.465C15.5291 14.8353 15.5346 15.2331 15.208 15.5995Z" fill="#E65425"/>
<path d="M6.87673 17.4932C6.64626 17.6393 6.3361 17.6018 6.12985 17.3861C5.79704 17.0372 5.47751 16.6754 5.15251 16.3189C4.93219 16.0764 4.70719 15.8362 4.49313 15.5883C4.18844 15.2342 4.17985 14.8417 4.48532 14.4975C5.01735 13.8985 5.55719 13.3072 6.10094 12.7189C6.35329 12.4466 6.70954 12.4228 6.95954 12.6416C7.20876 12.8604 7.22438 13.2115 6.97907 13.4877C6.5236 13.9987 6.05954 14.5021 5.57282 15.0376C6.02594 15.5363 6.46266 16.0114 6.89157 16.4926C6.98532 16.5981 7.08532 16.7175 7.12595 16.8475C7.20641 17.1114 7.12048 17.3394 6.87673 17.4932Z" fill="#E65425"/>
<path d="M11.0518 12.6082C10.9057 13.2179 10.7752 13.7657 10.6416 14.3134C10.3893 15.3538 10.1424 16.3957 9.87288 17.4315C9.826 17.612 9.70725 17.8017 9.56428 17.9234C9.38147 18.0802 9.14006 18.0503 8.93772 17.9111C8.72678 17.7658 8.64006 17.5608 8.69944 17.3098C8.90569 16.4454 9.11506 15.5817 9.32444 14.7181C9.49709 14.0028 9.66663 13.2868 9.84866 12.5731C9.97366 12.0819 10.4869 11.8892 10.8252 12.2112C10.9408 12.3214 10.9908 12.4973 11.0518 12.6082Z" fill="#E65425"/>
<path d="M10.3815 21.8692C10.3713 22.1805 10.1135 22.4276 9.79476 22.4291C9.47132 22.4314 9.19241 22.1614 9.19398 21.8485C9.19632 21.5303 9.46819 21.2748 9.80101 21.2794C10.1369 21.2839 10.3916 21.5433 10.3815 21.8692Z" fill="#E65425"/>
<path d="M23.7142 2.48294C21.9767 2.46841 20.2392 2.47606 18.5017 2.48218C18.0181 2.48371 17.5814 2.63823 17.2119 2.95111C16.5838 3.48278 16.3572 4.30055 16.626 5.05788C16.8947 5.81598 17.6135 6.34612 18.4471 6.36142C19.3346 6.37748 20.2236 6.36524 21.1119 6.36524V6.36754H23.6885C24.8338 6.34994 25.7033 5.52682 25.7135 4.45048C25.7236 3.35426 24.8674 2.49289 23.7142 2.48294ZM24.4635 4.74271C24.3127 5.06247 24.0377 5.20935 23.6869 5.21011C21.9697 5.21317 20.2517 5.21623 18.5346 5.20782C18.0439 5.20476 17.6978 4.86205 17.6963 4.42524C17.6939 3.98996 18.0392 3.65184 18.5322 3.64572C19.401 3.63348 20.2697 3.64189 21.1385 3.64189C21.9869 3.64189 22.8361 3.63118 23.6853 3.64495C24.3252 3.6549 24.7127 4.21181 24.4635 4.74271Z" fill="#1B1B1B"/>
<path d="M11.5479 2.48049C10.4596 2.4759 9.55104 3.36863 9.55963 4.43273C9.56822 5.49529 10.4573 6.36279 11.5378 6.36508C12.6331 6.36738 13.5253 5.49071 13.5221 4.41437C13.519 3.35487 12.6315 2.48508 11.5479 2.48049ZM11.5276 5.20766C11.0862 5.19695 10.7401 4.83894 10.7503 4.40137C10.7604 3.97833 11.1128 3.64326 11.5448 3.64479C11.9862 3.64709 12.3495 4.0051 12.344 4.43273C12.3378 4.85959 11.9604 5.2176 11.5276 5.20766Z" fill="#E65425"/>
<path d="M6.41431 2.48051C5.32213 2.47362 4.42681 3.35183 4.42994 4.42969C4.43228 5.49608 5.31119 6.36052 6.39713 6.36511C7.49556 6.3697 8.38463 5.49761 8.38228 4.41822C8.37994 3.35259 7.50103 2.48739 6.41431 2.48051ZM6.41275 5.20845C5.97838 5.2138 5.61041 4.85426 5.60963 4.42434C5.60885 4.00207 5.95025 3.65859 6.38306 3.64635C6.8276 3.63334 7.19322 3.97529 7.19869 4.4098C7.20494 4.84355 6.85181 5.20233 6.41275 5.20845Z" fill="#1B1B1B"/>
<path d="M23.3783 17.084C21.3822 17.0809 19.7666 18.6614 19.7689 20.6144C19.7705 22.5613 21.3994 24.1525 23.3853 24.1479C25.3541 24.1425 26.9814 22.5498 26.9877 20.6228C26.9947 18.679 25.3705 17.0863 23.3783 17.084ZM23.3681 22.9897C22.0322 22.9828 20.9533 21.921 20.9525 20.6121C20.9517 19.2994 22.0267 18.2437 23.3666 18.2406C24.7174 18.2376 25.8181 19.3139 25.8041 20.6251C25.79 21.9309 24.6924 22.9966 23.3681 22.9897Z" fill="#E65425"/>
</g>
<defs>
<clipPath id="clip0_1607_4558">
<rect width="30" height="28" fill="white" transform="translate(0.922852)"/>
</clipPath>
</defs>
</svg>
