<svg width="109" height="72" viewBox="0 0 109 72" fill="none" xmlns="http://www.w3.org/2000/svg">
<g clip-path="url(#clip0_1812_20409)">
<path d="M5.94188 38.5275C4.16188 36.2775 -0.678119 29.5475 0.481881 21.4375C2.15188 9.83748 15.0519 2.96748 24.1919 1.24748C30.4119 0.0774797 31.6919 1.93748 53.3019 4.81748C68.0119 6.78748 66.4719 5.79748 70.6619 6.86748C73.8619 7.68748 95.1419 13.1075 103.852 32.3975C104.912 34.7475 113.792 54.0675 103.862 64.9875C97.4619 72.0275 83.3519 74.6475 54.8319 64.5675C39.8019 59.8175 24.2219 52.5175 9.51188 41.3375C8.29188 40.4075 7.10188 39.4775 5.94188 38.5275Z" fill="#FFF4F0"/>
</g>
<g clip-path="url(#clip1_1812_20409)">
<path d="M60.6563 24.225C60.2019 23.7713 59.7186 23.2806 59.2258 22.8C58.5551 22.1456 57.6029 22.1312 56.9793 22.7569C56.3546 23.3844 56.3778 24.3225 57.0434 24.99C57.8844 25.8325 58.7286 26.6719 59.5765 27.5081C60.2648 28.1869 61.1806 28.1919 61.8669 27.5119C63.7218 25.6744 65.5729 23.8331 67.4208 21.9894C68.0701 21.3412 68.0883 20.3975 67.4799 19.7787C66.857 19.1456 65.9054 19.1531 65.236 19.8056C65.043 19.9938 64.8733 20.2056 64.7237 20.3731C64.2397 20.1106 63.8374 19.8675 63.4125 19.6719C63.2045 19.5756 63.1222 19.4637 63.1504 19.2494C63.1599 19.1775 63.1523 19.1037 63.1517 19.0306C63.1467 17.9294 62.52 17.3025 61.4207 17.3019C59.9756 17.3013 58.5306 17.3019 57.0849 17.3019H56.7298C56.7298 17.1019 56.7317 16.9462 56.7298 16.7912C56.7197 16.1494 56.4859 15.6006 55.9598 15.225C55.6952 15.0356 55.3652 14.9369 55.0648 14.7969H48.9678C48.9427 14.8138 48.9194 14.8381 48.8911 14.8463C47.849 15.1619 47.3393 15.8381 47.3367 16.9156C47.3355 17.5819 47.3336 18.2487 47.338 18.915C47.3424 19.6294 47.795 20.0931 48.5153 20.0956C50.8617 20.1019 53.208 20.1019 55.5538 20.095C56.2678 20.0931 56.7072 19.6506 56.7292 18.945C56.7361 18.72 56.7304 18.4944 56.7304 18.2556C56.8662 18.2487 56.9586 18.24 57.051 18.24C58.5067 18.2387 59.9624 18.2381 61.4188 18.2394C62.058 18.2406 62.3277 18.6088 62.158 19.2419C58.5444 18.5431 55.1477 21.2663 55.0214 24.9163C54.9655 26.5394 55.4934 27.9769 56.6135 29.1613C58.1264 30.7606 60.0089 31.3263 62.1894 30.9869C62.1963 31.0925 62.2064 31.1744 62.2064 31.2563C62.207 35.87 62.2076 40.4844 62.2057 45.0987C62.2051 45.6569 61.9889 45.8587 61.4119 45.8587C55.1584 45.8594 48.905 45.8594 42.6515 45.8587C42.0663 45.8587 41.8658 45.655 41.8658 45.0625V19.0338C41.8658 18.4456 42.0695 18.2406 42.6559 18.2394C43.6195 18.2381 44.5831 18.2413 45.5466 18.2375C45.871 18.2362 46.0696 18.06 46.0784 17.7887C46.0872 17.4919 45.8779 17.3044 45.5152 17.3031C44.5416 17.2994 43.5673 17.3 42.5931 17.3025C41.5717 17.3044 40.923 17.9475 40.923 18.9606C40.9218 27.6894 40.9224 36.4175 40.9243 45.1456C40.9243 45.2906 40.9337 45.4381 40.9639 45.5794C41.1034 46.2437 41.5723 46.59 42.1795 46.7969H61.916C62.8556 46.4762 63.1668 45.8013 63.1624 44.8444C63.1391 40.2731 63.1548 35.7013 63.1454 31.1294C63.1448 30.8244 63.2196 30.6725 63.5188 30.5275C65.6439 29.5 66.8048 27.7975 67.0009 25.4537C67.0317 25.0856 66.857 24.8694 66.5628 24.855C66.2643 24.84 66.0864 25.0331 66.06 25.4012C65.8752 28.015 63.9324 29.9462 61.2994 30.135C58.3684 30.345 55.7863 27.8125 55.9623 24.9006C56.1478 21.8406 58.8235 19.695 61.8682 20.1756C62.6294 20.2956 63.3277 20.5813 63.8928 21.0069C62.8098 22.0837 61.74 23.1475 60.6563 24.225ZM55.4394 19.1606C54.3092 19.1506 53.1785 19.1562 52.0484 19.1562C50.9182 19.1562 49.7875 19.1494 48.6573 19.1613C48.3739 19.1644 48.2664 19.08 48.2745 18.7869C48.2934 18.1425 48.2771 17.4969 48.2815 16.8519C48.2859 16.1644 48.7095 15.7375 49.3971 15.7356C51.1552 15.7319 52.9132 15.7319 54.6719 15.7356C55.3501 15.7375 55.7706 16.145 55.7826 16.8212C55.7945 17.4869 55.7775 18.1531 55.7895 18.8187C55.7945 19.0787 55.6958 19.1625 55.4394 19.1606ZM65.7426 20.6287C65.8237 20.5475 65.9022 20.4619 65.9921 20.3913C66.2435 20.1937 66.5716 20.2106 66.7929 20.425C67.0066 20.6319 67.033 20.9763 66.8476 21.2231C66.7916 21.2981 66.7212 21.3619 66.6546 21.4281C64.8695 23.2031 63.0851 24.9781 61.2994 26.7525C60.8644 27.185 60.5847 27.1862 60.1548 26.7594C59.3395 25.95 58.5224 25.1425 57.7122 24.3275C57.3382 23.9519 57.435 23.4269 57.8964 23.2731C57.9548 23.2531 58.0177 23.2456 58.1516 23.2169C58.2729 23.2944 58.4564 23.375 58.5916 23.505C59.1635 24.055 59.7198 24.6219 60.2849 25.1794C60.6199 25.5106 60.8298 25.5113 61.1642 25.1788C62.691 23.6631 64.2165 22.1456 65.7426 20.6287Z" fill="#E65425"/>
<path d="M44.9511 31.9336C43.9108 31.928 43.0547 32.7699 43.044 33.8099C43.0334 34.8661 43.8813 35.7267 44.936 35.7305C45.9813 35.7336 46.8336 34.8961 46.843 33.8561C46.8524 32.7974 46.0089 31.9399 44.9511 31.9336ZM44.9492 34.7911C44.4243 34.7949 43.9913 34.3649 43.9881 33.8386C43.9856 33.313 44.4137 32.8774 44.9379 32.873C45.4583 32.8686 45.897 33.3042 45.8989 33.8274C45.9014 34.3542 45.474 34.788 44.9492 34.7911Z" fill="#E65425"/>
<path d="M44.9192 26.1739C43.877 26.1846 43.0398 27.0346 43.0442 28.0783C43.0486 29.1189 43.894 29.9633 44.9368 29.9689C45.9902 29.9739 46.8469 29.1164 46.8432 28.0608C46.8394 27.0052 45.9808 26.1633 44.9192 26.1739ZM44.9324 29.0296C44.4082 29.0214 43.9845 28.5852 43.9889 28.0583C43.9933 27.5314 44.4276 27.1058 44.955 27.1121C45.4805 27.1183 45.9035 27.5521 45.8991 28.0802C45.8947 28.6039 45.4534 29.0371 44.9324 29.0296Z" fill="#E65425"/>
<path d="M44.9668 37.6389C43.9266 37.6214 43.0623 38.4558 43.0447 39.4952C43.0271 40.5427 43.8524 41.4058 44.8895 41.4252C45.9624 41.4446 46.8267 40.6246 46.8424 39.5727C46.8588 38.5102 46.031 37.6577 44.9668 37.6389ZM44.9322 40.4871C44.4024 40.4814 43.9831 40.0533 43.9888 39.5227C43.9938 38.9971 44.4294 38.5721 44.9555 38.5789C45.4847 38.5864 45.9034 39.0152 45.8983 39.5458C45.8939 40.0739 45.4646 40.4921 44.9322 40.4871Z" fill="#E65425"/>
<path d="M55.9113 33.1764C55.795 33.2133 55.6643 33.2164 55.5405 33.2164C53.1036 33.2189 50.6667 33.2183 48.2298 33.2183C48.1669 33.2183 48.1034 33.2214 48.0412 33.2158C47.7345 33.1883 47.5359 32.9845 47.5522 32.7158C47.5679 32.4564 47.759 32.2845 48.0664 32.2833C49.353 32.2789 50.639 32.2814 51.9257 32.2814C53.1601 32.2808 54.394 32.2739 55.6284 32.2889C55.7975 32.2908 56.0094 32.3595 56.125 32.4739C56.3463 32.6933 56.2161 33.0783 55.9113 33.1764Z" fill="#E65425"/>
<path d="M55.9136 41.0521C55.7885 41.0934 55.6471 41.0959 55.5126 41.0959C53.0964 41.0984 50.6803 41.0977 48.2635 41.0977C48.1906 41.0977 48.1171 41.1009 48.0442 41.0946C47.7362 41.0677 47.5376 40.8652 47.552 40.5971C47.5658 40.3377 47.7563 40.1615 48.0624 40.1596C49.1919 40.1534 50.322 40.1565 51.4515 40.1559H51.8909C53.1354 40.1559 54.3806 40.149 55.6251 40.164C55.7948 40.1659 56.0066 40.234 56.1235 40.3484C56.3448 40.5652 56.2178 40.9527 55.9136 41.0521Z" fill="#E65425"/>
<path d="M54.2429 38.4324C54.2505 38.7293 54.0242 38.9149 53.6408 38.9155C51.8086 38.9174 49.9757 38.9174 48.1435 38.9155C47.7758 38.9149 47.5583 38.7405 47.5508 38.4549C47.5426 38.1537 47.7588 37.9799 48.1523 37.9793C49.0631 37.978 49.9738 37.9787 50.8852 37.9787C51.8067 37.9787 52.7281 37.978 53.6496 37.9793C54.0204 37.9799 54.2366 38.148 54.2429 38.4324Z" fill="#E65425"/>
<path d="M54.2398 29.2556C54.2096 29.515 54.0581 29.675 53.7872 29.6856C53.505 29.6969 53.2222 29.6919 52.9399 29.6919C52.2592 29.6925 51.5791 29.6919 50.8984 29.6919V29.69C49.9462 29.69 48.9933 29.695 48.041 29.6875C47.7412 29.685 47.5526 29.4919 47.552 29.2294C47.5508 28.9706 47.7406 28.785 48.0372 28.7581C48.1095 28.7512 48.1837 28.755 48.2566 28.7544H49.6382C50.9261 28.7544 52.2133 28.7544 53.5012 28.755C53.6056 28.755 53.7118 28.7506 53.8143 28.7656C54.0826 28.805 54.2687 29.0131 54.2398 29.2556Z" fill="#E65425"/>
<path d="M54.243 27.052C54.2417 27.3564 54.0205 27.5183 53.5956 27.5195C52.6848 27.5208 51.7741 27.5195 50.8633 27.5195C49.9846 27.5195 49.1052 27.5208 48.2259 27.5183C48.1115 27.5183 47.9613 27.5433 47.8909 27.4827C47.7539 27.3658 47.5986 27.2089 47.5672 27.0458C47.5244 26.827 47.6784 26.6514 47.9166 26.6039C48.0285 26.5814 48.1454 26.5833 48.2605 26.5833C50.0191 26.582 51.7772 26.582 53.5359 26.582C53.5566 26.582 53.5774 26.582 53.5987 26.5827C54.0192 26.587 54.2443 26.7514 54.243 27.052Z" fill="#E65425"/>
<path d="M52.3593 34.9087C52.3674 35.2055 52.1474 35.3893 51.7584 35.3924C51.1512 35.3974 50.5434 35.3937 49.9362 35.3937C49.3397 35.3937 48.7426 35.3974 48.1461 35.3924C47.7709 35.3893 47.5597 35.2193 47.5515 34.9337C47.5433 34.6368 47.7621 34.4518 48.1524 34.4505C49.3561 34.4462 50.5604 34.4462 51.7647 34.4505C52.1399 34.4518 52.3511 34.6243 52.3593 34.9087Z" fill="#E65425"/>
<path d="M47.5861 22.2141C47.5798 22.4948 47.3737 22.6691 47.0273 22.6723C46.5251 22.6766 46.0223 22.6729 45.5201 22.6729C45.0279 22.6729 44.5358 22.676 44.0442 22.6723C43.6791 22.6691 43.4716 22.4898 43.4779 22.1923C43.4842 21.9104 43.6879 21.736 44.0348 21.7348C45.0292 21.7316 46.0236 21.7316 47.0179 21.7348C47.3812 21.7354 47.593 21.9204 47.5861 22.2141Z" fill="#E65425"/>
</g>
<defs>
<clipPath id="clip0_1812_20409">
<rect width="108.22" height="70.33" fill="white" transform="translate(0.302002 0.898438)"/>
</clipPath>
<clipPath id="clip1_1812_20409">
<rect width="27" height="32" fill="white" transform="translate(40.9229 14.7969)"/>
</clipPath>
</defs>
</svg>
