<svg width="109" height="72" viewBox="0 0 109 72" fill="none" xmlns="http://www.w3.org/2000/svg">
<g clip-path="url(#clip0_1812_20389)">
<path d="M5.94188 38.5275C4.16188 36.2775 -0.678119 29.5475 0.481881 21.4375C2.15188 9.83748 15.0519 2.96748 24.1919 1.24748C30.4119 0.0774797 31.6919 1.93748 53.3019 4.81748C68.0119 6.78748 66.4719 5.79748 70.6619 6.86748C73.8619 7.68748 95.1419 13.1075 103.852 32.3975C104.912 34.7475 113.792 54.0675 103.862 64.9875C97.4619 72.0275 83.3519 74.6475 54.8319 64.5675C39.8019 59.8175 24.2219 52.5175 9.51188 41.3375C8.29188 40.4075 7.10188 39.4775 5.94188 38.5275Z" fill="#FFF4F0"/>
</g>
<g clip-path="url(#clip1_1812_20389)">
<path d="M68.9179 20.2036C68.872 19.4619 68.2679 18.8453 67.5262 18.8045C67.1521 18.7837 66.7762 18.7903 66.4013 18.802C66.0963 18.8112 65.9171 19.0095 65.9188 19.3003C65.9204 19.5903 66.1004 19.7803 66.4079 19.7936C66.6679 19.8044 66.9287 19.7969 67.1896 19.7969C67.7904 19.7978 67.922 19.9277 67.922 20.5285V34.7815H39.9228V20.4502C39.9237 19.9561 40.082 19.7994 40.5778 19.7969C40.8586 19.7961 41.1403 19.8036 41.4211 19.7944C41.7453 19.7828 41.9328 19.5853 41.9253 19.2828C41.9194 18.9962 41.7361 18.812 41.4253 18.8003C41.1653 18.7903 40.9045 18.797 40.6436 18.797C39.5145 18.7978 38.9229 19.3836 38.9229 20.5035V38.0946C38.9229 39.1953 39.5203 39.7953 40.6203 39.7953H67.2121C68.3345 39.7953 68.922 39.2036 68.922 38.0762V20.516C68.922 20.4119 68.9245 20.3077 68.9179 20.2036ZM67.9204 38.2104C67.9179 38.6087 67.7421 38.782 67.3521 38.7928C67.2787 38.7945 67.2062 38.7928 67.1329 38.7928H40.7053C40.0395 38.7928 39.9228 38.6778 39.9228 38.0171V35.8064H67.9004C67.9087 35.8639 67.9204 35.9131 67.9204 35.9614C67.922 36.7113 67.9245 37.4613 67.9204 38.2104Z" fill="#E65425"/>
<path d="M63.2373 15.7969H44.617C43.5153 15.7969 42.9229 16.3918 42.9229 17.4976V33.0546C42.9229 33.5721 43.0753 33.7954 43.427 33.792C43.777 33.7895 43.9228 33.5712 43.9228 33.0479V20.8098H63.9214V33.0271C63.9214 33.1413 63.9148 33.2571 63.9281 33.3704C63.9581 33.6321 64.1523 33.797 64.4164 33.7987C64.7622 33.8004 64.9206 33.5921 64.9206 33.1279C64.9214 27.9109 64.9214 22.6938 64.9214 17.4767C64.9206 16.3968 64.3189 15.7969 63.2373 15.7969ZM63.9214 19.7857H43.9437C43.9362 19.7082 43.9245 19.6391 43.9237 19.5691C43.9228 18.8508 43.9212 18.1325 43.9237 17.4142C43.9253 16.9626 44.0928 16.8018 44.5503 16.7968H63.1681C63.7939 16.7968 63.9206 16.9218 63.9214 17.5384V19.7857Z" fill="#E65425"/>
<path d="M60.9172 44.2045C60.8888 43.5803 60.4438 43.0154 59.8338 42.8629C59.5764 42.7979 59.2964 42.7837 59.0305 42.8029C58.7089 42.8254 58.4589 42.7296 58.2697 42.4829C57.9039 42.0063 57.5397 41.5288 57.1914 41.0397C57.0081 40.7831 56.7464 40.6831 56.4973 40.8206C56.2631 40.9497 56.1814 41.2239 56.3031 41.4963C56.3581 41.6188 56.4198 41.7413 56.4939 41.8538C56.6989 42.1596 56.9123 42.4604 57.1364 42.7837H50.7308C50.9966 42.3679 51.2608 41.9846 51.4924 41.5813C51.6866 41.243 51.6057 40.9439 51.3249 40.8081C51.0533 40.6764 50.8024 40.7989 50.6116 41.1172C50.4258 41.428 50.2249 41.733 50.0075 42.023C49.6125 42.5496 49.1616 42.8879 48.4133 42.8162C47.6067 42.7387 46.9525 43.4454 46.9259 44.2603C46.9175 44.5203 46.9234 44.7811 46.9234 45.0411C46.9242 45.6585 47.0584 45.7943 47.6717 45.7943H59.6064C59.8672 45.7943 60.1272 45.801 60.3872 45.7918C60.7213 45.7802 60.9105 45.596 60.9197 45.266C60.9288 44.9119 60.933 44.5578 60.9172 44.2045ZM59.9038 44.7736H47.9233C47.9233 44.6278 47.9217 44.5044 47.9242 44.3803C47.9325 43.9703 48.1042 43.7962 48.52 43.7953C50.2791 43.7937 52.0391 43.7945 53.7982 43.7945H59.0447C59.8647 43.7945 59.973 43.9153 59.9038 44.7736Z" fill="#E65425"/>
<path d="M55.9524 23.2115C55.9065 23.384 55.8857 23.4856 55.8532 23.5831C54.8807 26.4995 53.9074 29.4151 52.9333 32.3307C52.8041 32.7165 52.5733 32.8665 52.275 32.7707C51.9725 32.6732 51.8583 32.4191 51.9741 32.0674C52.3908 30.8042 52.8124 29.5435 53.2333 28.2819C53.7882 26.617 54.3424 24.9513 54.9024 23.2881C54.9474 23.154 55.0049 22.9782 55.1099 22.9223C55.2565 22.844 55.4765 22.7999 55.6224 22.854C55.7674 22.9082 55.859 23.1032 55.9524 23.2115Z" fill="#E65425"/>
<path d="M50.2 30.7368C49.9875 30.8734 49.7851 30.8293 49.5984 30.6743C48.9426 30.1285 48.2876 29.5827 47.6326 29.0369C47.3135 28.7703 46.991 28.5069 46.6743 28.237C46.3326 27.9462 46.3351 27.6412 46.6818 27.3504C47.6134 26.5688 48.5484 25.7897 49.4834 25.0106C49.8067 24.7406 50.1009 24.7264 50.3034 24.9681C50.5117 25.2172 50.4525 25.5039 50.1334 25.7713C49.3359 26.4371 48.5376 27.1021 47.7051 27.7962C48.5451 28.4953 49.3526 29.1644 50.1542 29.841C50.2609 29.9318 50.3725 30.0468 50.4184 30.1735C50.5017 30.4043 50.405 30.6043 50.2 30.7368Z" fill="#E65425"/>
<path d="M61.1948 28.2166C60.2248 29.0348 59.2482 29.8464 58.2707 30.6547C58.0024 30.8763 57.7199 30.8547 57.5266 30.6214C57.3357 30.3897 57.3716 30.1064 57.6366 29.8847C58.4574 29.1965 59.2815 28.5132 60.1415 27.7974C59.2965 27.0916 58.4824 26.4142 57.6699 25.7334C57.3541 25.4693 57.3357 25.0951 57.6299 24.8918C57.8457 24.7427 58.0632 24.7627 58.2624 24.9277C59.2457 25.7459 60.2307 26.5634 61.2081 27.39C61.5064 27.6424 61.4989 27.9607 61.1948 28.2166Z" fill="#E65425"/>
<path d="M55.4616 37.3027C55.4599 37.596 55.2599 37.7868 54.9333 37.7927C54.6 37.7985 54.2666 37.7935 53.9333 37.7935C53.61 37.7935 53.2875 37.8002 52.9642 37.791C52.6417 37.7827 52.4358 37.581 52.4375 37.2952C52.4392 37.0127 52.6508 36.8028 52.97 36.7994C53.6258 36.7911 54.2825 36.7903 54.9383 36.8003C55.2591 36.8044 55.4633 37.0152 55.4616 37.3027Z" fill="#E65425"/>
<path d="M62.9121 18.3081C62.9046 18.6156 62.6904 18.7955 62.3129 18.7964C61.3454 18.7989 60.3771 18.7972 59.4088 18.7972C58.4514 18.7972 57.493 18.798 56.5356 18.7964C56.1214 18.7955 55.9198 18.6331 55.9173 18.3056C55.9148 17.9764 56.1223 17.799 56.5256 17.7981C58.4514 17.7965 60.378 17.7965 62.3037 17.7981C62.6996 17.7981 62.9196 17.9873 62.9121 18.3081Z" fill="#E65425"/>
<path d="M45.9201 18.3013C45.9167 18.5721 45.6867 18.7971 45.4167 18.7938C45.1459 18.7904 44.9218 18.5613 44.9251 18.2905C44.9284 18.018 45.1559 17.7963 45.4276 17.7988C45.7001 17.8022 45.9234 18.0305 45.9201 18.3013Z" fill="#E65425"/>
<path d="M47.9201 18.2856C47.926 18.5555 47.7035 18.788 47.4326 18.7939C47.1627 18.8005 46.931 18.578 46.9252 18.3064C46.9193 18.0348 47.1393 17.8056 47.4118 17.7989C47.6835 17.7931 47.9135 18.0139 47.9201 18.2856Z" fill="#E65425"/>
<path d="M49.9201 18.3072C49.9135 18.5772 49.681 18.8005 49.411 18.7939C49.141 18.788 48.9193 18.5555 48.9252 18.2856C48.9318 18.0131 49.161 17.7931 49.4335 17.7989C49.7051 17.8056 49.926 18.0364 49.9201 18.3072Z" fill="#E65425"/>
</g>
<defs>
<clipPath id="clip0_1812_20389">
<rect width="108.22" height="70.33" fill="white" transform="translate(0.302002 0.898438)"/>
</clipPath>
<clipPath id="clip1_1812_20389">
<rect width="30" height="30" fill="white" transform="translate(38.9229 15.7969)"/>
</clipPath>
</defs>
</svg>
