<svg width="109" height="72" viewBox="0 0 109 72" fill="none" xmlns="http://www.w3.org/2000/svg">
<g clip-path="url(#clip0_1812_20429)">
<path d="M5.94188 38.5275C4.16188 36.2775 -0.678119 29.5475 0.481881 21.4375C2.15188 9.83748 15.0519 2.96748 24.1919 1.24748C30.4119 0.0774797 31.6919 1.93748 53.3019 4.81748C68.0119 6.78748 66.4719 5.79748 70.6619 6.86748C73.8619 7.68748 95.1419 13.1075 103.852 32.3975C104.912 34.7475 113.792 54.0675 103.862 64.9875C97.4619 72.0275 83.3519 74.6475 54.8319 64.5675C39.8019 59.8175 24.2219 52.5175 9.51188 41.3375C8.29188 40.4075 7.10188 39.4775 5.94188 38.5275Z" fill="#FFF4F0"/>
</g>
<g clip-path="url(#clip1_1812_20429)">
<path d="M60.2094 28.6418H50.2874V15.5059C50.2874 14.9274 50.1637 14.7969 49.6092 14.7969H33.5958C33.0583 14.7969 32.9261 14.9317 32.9261 15.4841C32.9218 25.3491 32.9218 35.2142 32.9261 45.0835C32.9261 45.649 33.054 45.7751 33.6171 45.7751C36.4538 45.7795 39.2905 45.7751 42.1314 45.7795C45.5994 45.7838 49.0632 45.7969 52.5312 45.7969C55.0991 45.7969 57.6713 45.7838 60.2393 45.7751C60.7938 45.7751 60.9218 45.6446 60.9218 45.0748V29.3552C60.9218 28.7767 60.7895 28.6418 60.2094 28.6418ZM41.0948 25.6406V31.1907H36.6884V25.6406H41.0948ZM36.6969 24.614V19.1465H41.1034V24.614H36.6969ZM41.1034 44.7834H36.6969V38.7939H41.1034V44.7834ZM41.1076 37.7805H36.6927V32.2042H41.1076V37.7805ZM46.5165 44.7791H42.0973V38.7939H46.5165V44.7791ZM42.1058 37.7805V32.2042H46.5123V37.7805H42.1058ZM46.5251 31.1864H42.1016V25.6406H46.5251V31.1864ZM46.5251 24.6184C46.4184 24.6271 46.3246 24.6401 46.2265 24.6401C44.9382 24.6401 43.65 24.6358 42.3575 24.6401C42.1911 24.6401 42.076 24.6358 42.076 24.4053C42.0845 22.7046 42.0845 20.9995 42.0845 19.2988C42.0845 19.2596 42.093 19.2205 42.1016 19.1552H46.5251V24.6184ZM49.3063 44.7791H47.4977V44.4224C47.5019 42.3737 47.5105 40.325 47.5105 38.2763C47.5105 36.2363 47.4977 34.1963 47.4977 32.1607C47.5019 29.8162 47.5105 27.4718 47.5105 25.1273C47.5105 23.0264 47.5019 20.9255 47.4977 18.829C47.4977 18.2983 47.3526 18.1548 46.8407 18.1505H36.4666C35.831 18.1505 35.7115 18.2679 35.7115 18.916V44.7791H33.9029V15.7973H49.3063V44.7791ZM54.6299 44.7747H52.6847V32.2042H54.6299V44.7747ZM57.5817 44.7617H55.6366V32.2042H57.5817V44.7617ZM59.9364 44.7791H58.5586V31.9693C58.5586 31.3343 58.4306 31.2081 57.7993 31.2081H52.4288C51.8359 31.2081 51.7036 31.3386 51.7036 31.9389V44.7834H50.3045V29.6466H59.9364V44.7791Z" fill="#E65425"/>
<path d="M58.5545 24.084C58.529 24.458 58.3285 24.6755 58.0299 24.6581C57.7398 24.6451 57.5905 24.4363 57.5948 24.0535C57.599 23.5968 57.2962 23.3532 56.8696 23.4968C56.5795 23.5924 56.3748 23.5185 56.1999 23.2662C55.9439 22.8922 55.6709 22.7878 55.2401 22.9096C54.9756 22.9878 54.7837 22.927 54.6045 22.7182C54.1993 22.2397 53.6319 22.144 53.1584 22.4615C52.6935 22.766 52.5442 23.3228 52.7788 23.8882C52.9452 24.2884 52.7788 24.6668 52.4119 24.6451C52.2541 24.6364 52.0323 24.5102 51.9641 24.3754C51.819 24.0753 51.7508 23.7316 51.6953 23.5533C51.7337 22.5529 52.0878 21.9178 52.8215 21.5394C53.5765 21.1479 54.3017 21.2436 54.997 21.7308C55.1207 21.8178 55.2956 21.8743 55.4449 21.8787C55.9056 21.8874 56.3023 22.0222 56.6648 22.3137C56.7672 22.3963 56.9208 22.4528 57.0573 22.4572C57.936 22.4702 58.6185 23.2053 58.5545 24.084Z" fill="#E65425"/>
</g>
<defs>
<clipPath id="clip0_1812_20429">
<rect width="108.22" height="70.33" fill="white" transform="translate(0.302002 0.898438)"/>
</clipPath>
<clipPath id="clip1_1812_20429">
<rect width="28" height="31" fill="white" transform="translate(32.9014 14.7969)"/>
</clipPath>
</defs>
</svg>
