<svg width="109" height="72" viewBox="0 0 109 72" fill="none" xmlns="http://www.w3.org/2000/svg">
<g clip-path="url(#clip0_1812_20378)">
<path d="M5.94188 38.5275C4.16188 36.2775 -0.678119 29.5475 0.481881 21.4375C2.15188 9.83748 15.0519 2.96748 24.1919 1.24748C30.4119 0.0774797 31.6919 1.93748 53.3019 4.81748C68.0119 6.78748 66.4719 5.79748 70.6619 6.86748C73.8619 7.68748 95.1419 13.1075 103.852 32.3975C104.912 34.7475 113.792 54.0675 103.862 64.9875C97.4619 72.0275 83.3519 74.6475 54.8319 64.5675C39.8019 59.8175 24.2219 52.5175 9.51188 41.3375C8.29188 40.4075 7.10188 39.4775 5.94188 38.5275Z" fill="#FFF4F0"/>
</g>
<g clip-path="url(#clip1_1812_20378)">
<path d="M67.8392 41.4317C67.8908 40.9663 67.9775 40.5331 67.9791 40.0991C67.9923 37.3776 67.9861 34.6552 67.9853 31.9337C67.9853 30.6197 67.2142 29.8211 65.947 29.8211C62.7048 29.8211 59.4634 29.8155 56.2212 29.8268C55.6994 29.8284 55.1767 29.9066 54.6548 29.9453C54.5775 29.9518 54.4994 29.9389 54.4228 29.9316C54.0251 29.8953 53.6283 29.8413 53.2298 29.8252C52.7642 29.8066 52.297 29.8211 51.8337 29.8211C51.8033 29.4686 51.8025 29.467 52.0236 29.2823C52.7931 28.6402 53.2939 27.8191 53.5478 26.8342C53.5814 26.7027 53.6095 26.5688 53.6384 26.4462C54.7056 26.351 55.3986 25.742 55.5408 24.7741C55.5798 24.5079 55.5681 24.2312 55.5619 23.9594C55.5423 23.0737 55.6048 22.1735 55.4744 21.3048C54.9494 17.7976 51.9111 15.4527 48.4744 15.8383C45.7822 16.1408 43.4353 18.3525 43.0431 21.1039C42.8759 22.2808 42.9228 23.4948 42.9337 24.691C42.9369 25.0153 43.1173 25.371 43.3001 25.6541C43.6541 26.2034 44.2095 26.4188 44.84 26.4462C45.0533 27.5981 45.5689 28.558 46.4572 29.2815C46.6369 29.4275 46.7017 29.5751 46.6267 29.8219C46.0712 29.8219 45.5072 29.8171 44.9431 29.8235C42.1751 29.855 39.8931 32.1958 39.865 35.0497C39.8486 36.6928 39.8408 38.3367 39.8759 39.979C39.8845 40.3847 40.0728 40.7864 40.1845 41.1881C40.2064 41.2671 40.2587 41.3365 40.3103 41.4365C40.0267 41.4365 39.783 41.4357 39.5392 41.4365C39.0783 41.4389 38.9236 41.5962 38.9236 42.0705C38.922 43.0788 38.9228 44.0863 38.9228 45.0946C38.9228 45.6511 39.0587 45.7923 39.5955 45.7923C49.1447 45.7923 58.6939 45.7915 68.2431 45.7971C68.5291 45.7979 68.7564 45.735 68.9228 45.4898V41.739C68.6369 41.2736 68.1556 41.5027 67.8392 41.4317ZM54.3923 41.1066C54.3923 38.0527 54.3916 34.9997 54.3923 31.9458C54.3923 31.144 54.7384 30.7891 55.5197 30.7891H65.9447C66.6978 30.7891 67.0478 31.1553 67.0478 31.9409C67.0486 34.723 67.0486 37.5042 67.0478 40.2855C67.0478 41.0719 66.6978 41.4365 65.9431 41.4365H54.3923V41.1066ZM53.7009 25.4444V23.548C54.2087 23.502 54.6431 24.0312 54.6275 24.5143C54.6103 25.0354 54.2228 25.4363 53.7009 25.4444ZM44.7673 25.45C44.2291 25.4178 43.8548 25.0209 43.8447 24.5022C43.8361 24.0917 44.1712 23.5424 44.7673 23.5424V25.45ZM43.847 22.8358C43.7767 20.6103 44.5337 18.8438 46.3181 17.6604C48.1408 16.4513 50.0564 16.4223 51.9455 17.5193C53.7509 18.5671 54.7517 20.5901 54.6158 22.7349C54.2501 22.6768 53.8814 22.6268 53.5173 22.5518C53.4369 22.5357 53.3626 22.4397 53.3056 22.3647C52.8197 21.721 52.34 21.0725 51.8548 20.428C51.5798 20.0634 51.3103 20.0408 51.0001 20.3667C49.5681 21.871 47.8275 22.5897 45.7908 22.5615C45.7126 22.5607 45.6345 22.5599 45.5564 22.5615C44.9861 22.5728 44.4033 22.4816 43.847 22.8358ZM45.7931 26.3188C45.6962 25.4145 45.7759 24.4909 45.7759 23.5383C46.7681 23.5464 47.7837 23.3996 48.7587 23.0221C49.7283 22.647 50.5892 22.0872 51.3697 21.362C51.8181 21.963 52.2361 22.5204 52.6494 23.0818C52.6986 23.1487 52.747 23.2407 52.7462 23.3205C52.7353 24.3167 52.7869 25.321 52.6814 26.3067C52.4962 28.0248 50.9431 29.3404 49.2275 29.3371C47.5291 29.3339 45.9751 28.0175 45.7931 26.3188ZM50.1158 31.9692C49.5275 32.3539 48.9126 32.3475 48.3291 31.9506C47.6509 31.4884 47.5314 30.7915 47.615 29.9897C48.6994 30.41 49.7751 30.4067 50.8564 29.9921C50.9447 30.8068 50.8134 31.5134 50.1158 31.9692ZM40.7986 35.236C40.8033 32.6919 42.6501 30.7939 45.122 30.7891C45.6291 30.7883 46.1361 30.7891 46.6361 30.7891C47.1783 32.4733 47.9525 33.2001 49.2087 33.2073C49.8814 33.2114 50.472 32.9766 50.9705 32.5128C51.4619 32.0555 51.7189 31.4691 51.8103 30.7996H53.6705C53.2861 31.824 53.483 32.8766 53.4626 33.9107C53.4314 35.4933 53.4548 37.0759 53.4548 38.6585V39.015C52.5634 39.015 51.6978 39.0191 50.8322 39.0094C50.7572 39.0086 50.6767 38.9352 50.6095 38.8811C49.9416 38.3391 49.1814 38.0576 48.3353 38.0519C46.7923 38.0422 45.2501 38.0479 43.7072 38.0495C43.3603 38.0503 43.1501 38.2326 43.1447 38.5238C43.1392 38.8255 43.3564 39.015 43.7205 39.0158C44.9697 39.0175 46.2197 39.0166 47.4697 39.0166H47.8087V41.4228C47.7126 41.4277 47.6181 41.4357 47.5244 41.4357C45.7962 41.4365 44.0681 41.4373 42.34 41.4365C41.3697 41.4357 40.7994 40.842 40.7986 39.833C40.797 38.3004 40.7962 36.7686 40.7986 35.236ZM53.4408 40.0023V41.4212H52.0619C51.9072 40.9396 51.758 40.4774 51.6048 40.0023H53.4408ZM51.0408 41.4357C50.3103 41.4357 49.608 41.4357 48.9056 41.4349C48.8689 41.4349 48.8322 41.426 48.7822 41.4188V39.0925C49.8392 39.1643 50.9783 40.3387 51.0408 41.4357ZM67.9712 44.8026H39.8728V42.4206H67.9712V44.8026Z" fill="#E65425"/>
<path d="M60.7175 33.6934C59.4371 33.6934 58.3816 34.7759 58.3777 36.0931C58.373 37.4458 59.43 38.5371 60.7394 38.5323C62.016 38.5283 63.0613 37.4409 63.0629 36.1165C63.0652 34.7783 62.0144 33.6934 60.7175 33.6934ZM60.6957 37.5627C59.9215 37.5506 59.2996 36.8779 59.316 36.0713C59.3316 35.2881 59.9816 34.6476 60.7449 34.6629C61.523 34.6782 62.1425 35.3477 62.1246 36.1536C62.1066 36.94 61.4629 37.5748 60.6957 37.5627Z" fill="#E65425"/>
</g>
<defs>
<clipPath id="clip0_1812_20378">
<rect width="108.22" height="70.33" fill="white" transform="translate(0.302002 0.898438)"/>
</clipPath>
<clipPath id="clip1_1812_20378">
<rect width="30" height="30" fill="white" transform="translate(38.9229 15.7969)"/>
</clipPath>
</defs>
</svg>
