<svg width="110" height="110" viewBox="0 0 110 110" fill="none" xmlns="http://www.w3.org/2000/svg">
<g clip-path="url(#clip0_1612_926)">
<path d="M37.5977 110C35.4607 109.118 34.7732 107.488 34.7904 105.233C34.862 96.4276 34.8104 87.6219 34.8219 78.8162C34.8333 71.4399 39.6917 65.6104 46.9591 64.3729C48.4945 64.1122 50.0987 64.2326 51.6714 64.1867C52.1268 64.1724 52.5852 64.1839 53.0435 64.1839C53.287 62.9206 53.201 62.0297 52.1354 61.1703C49.182 58.7927 47.3115 55.6617 46.2917 52.0008C46.1628 51.5339 45.7417 51.0383 45.3177 50.7833C44.0487 50.0214 43.2323 48.9357 42.7826 47.5693C42.1839 45.7445 41.9805 43.8682 42.2956 41.9576C42.5362 40.5081 43.3182 39.3451 44.6904 38.901C45.9307 38.5 45.925 37.7781 45.7302 36.7469C43.344 36.7469 40.9693 36.7469 38.4828 36.7469C38.4828 37.5174 38.4885 38.225 38.4828 38.9326C38.4398 42.9057 34.8706 45.1172 31.2956 43.3555C27.5115 41.4906 23.7302 39.6201 19.9919 37.6664C18.6169 36.9474 17.2591 36.5893 15.7008 36.638C12.7674 36.7297 9.82839 36.5836 6.89792 36.7039C3.4776 36.85 1.07995 35.601 0 32.2266C0 22.9883 0 13.75 0 4.51172C0.661719 2.16563 2.16849 0.664583 4.51172 0C19.8372 0 35.1628 0 50.4883 0C52.7656 0.701823 54.4042 2.04245 54.8883 4.48594C54.9914 5.00729 54.9943 5.55156 54.9943 6.08724C55.0029 11.7448 55 17.4023 55 23.0599C55 23.4495 55 23.8391 55 24.0596C57.5352 23.9852 59.9901 23.8419 62.4422 23.8563C69.3544 23.8906 74.9977 29.4708 75.1724 36.3802C75.1839 36.8443 75.0979 37.3313 75.2068 37.7695C75.2898 38.1018 75.5477 38.5372 75.8341 38.6461C77.4956 39.2792 78.5125 40.425 78.7445 42.1781C79.0081 44.1948 78.7961 46.18 78.0169 48.0763C77.5242 49.2737 76.7135 50.1789 75.582 50.8406C75.2125 51.0555 74.8573 51.5023 74.7427 51.9148C73.7201 55.5672 71.8867 58.724 68.9362 61.113C67.8648 61.981 67.6872 62.8805 67.9766 64.1839C69.1425 64.1839 70.3141 64.1695 71.4857 64.1867C77.6617 64.2698 82.119 67.1 84.8289 72.6344C85.1354 73.2617 85.5135 73.3219 86.0807 73.3219C92.4544 73.3104 98.8281 73.3677 105.202 73.2875C107.442 73.2589 109.098 73.9263 110.003 76.0547C110.003 76.6992 110.003 77.3438 110.003 77.9883C109.923 78.1773 109.814 78.3578 109.768 78.5555C107.7 87.7995 105.609 97.0406 103.606 106.299C103.225 108.064 102.377 109.278 100.765 110.003C79.707 110 58.6523 110 37.5977 110ZM27.5974 3.66094C20.4417 3.66094 13.2831 3.65807 6.12734 3.66094C4.27682 3.66094 3.6638 4.2625 3.66094 6.08724C3.65807 14.2456 3.65807 22.4039 3.66094 30.5651C3.66094 32.3956 4.27109 33.0086 6.11302 33.0115C9.5849 33.0201 13.0568 33.063 16.5258 32.9914C18.1156 32.9599 19.5451 33.2693 20.9315 34.0484C22.4583 34.9049 24.0539 35.6326 25.618 36.4146C28.0471 37.632 30.4677 38.8609 32.9055 40.0583C34.0656 40.6284 34.7818 40.1729 34.8161 38.8896C34.8333 38.2823 34.8161 37.6721 34.819 37.0648C34.8362 34.4753 36.2771 33.0344 38.8896 33.0172C41.0724 33.0029 43.2552 32.9971 45.438 33.0258C46.0854 33.0344 46.4349 32.8997 46.6784 32.1979C47.4518 29.9922 48.7867 28.1331 50.6401 26.7065C51.1987 26.2768 51.3505 25.8357 51.3477 25.1768C51.3276 18.8432 51.3362 12.5096 51.3362 6.17604C51.3362 4.25677 50.749 3.66094 48.8497 3.66094C41.7685 3.65807 34.6815 3.66094 27.5974 3.66094ZM64.1781 106.282C76.1063 106.282 87.9341 106.282 99.825 106.282C101.991 96.5393 104.148 86.8284 106.322 77.0372C94.3766 77.0372 82.5773 77.0372 70.6779 77.0372C68.5151 86.7625 66.3552 96.4849 64.1781 106.282ZM62.0039 99.0172C62.1185 98.5646 62.2159 98.2208 62.2932 97.8742C63.863 90.8274 65.4271 83.7776 66.9969 76.7307C67.5354 74.3216 68.7529 73.3305 71.205 73.319C74.1039 73.3076 77.0057 73.319 79.9047 73.3133C80.2427 73.3133 80.5779 73.276 81.0677 73.2474C79.3776 70.4802 77.1175 68.6927 74.0896 68.1398C72.3479 67.8219 70.5289 67.9565 68.7471 67.8419C67.9422 67.7904 67.5268 67.988 67.1917 68.8388C65.8482 72.2505 62.1042 74.0438 58.5664 73.0526C55.9023 72.3078 54.2638 70.4917 53.4302 67.9737C51.4078 67.9737 49.4083 67.7273 47.4919 68.0195C42.1523 68.8359 38.5172 73.2159 38.4971 78.6901C38.4599 87.6391 38.4857 96.5909 38.4885 105.54C38.4885 105.778 38.5372 106.018 38.5716 106.339C40.4078 106.339 42.1924 106.339 43.9742 106.339C45.7875 106.339 47.6008 106.339 49.4857 106.339C49.4857 105.19 49.4799 104.193 49.4857 103.194C49.5029 100.435 50.9094 99.0229 53.6479 99.0172C56.4036 99.0115 59.1565 99.0172 62.0039 99.0172ZM74.9747 42.2927C72.6258 43.3354 71.5172 42.605 71.5143 40.1013C71.5143 38.9555 71.5344 37.8096 71.5086 36.6667C71.3969 32.0318 68.3089 28.3451 63.7284 27.6661C61.8005 27.3797 59.7953 27.4169 57.8417 27.5573C53.5047 27.8667 49.9956 31.3357 49.5974 35.6526C49.437 37.3914 49.5229 39.156 49.4742 40.9063C49.4427 42.0206 48.8326 42.8656 47.9044 42.8742C47.3172 42.8799 46.7299 42.5477 46.1284 42.3643C45.5755 43.5016 45.9078 46.3375 46.7815 47.2685C46.962 47.4604 47.2628 47.638 47.5148 47.6466C48.8526 47.6953 49.3625 48.5089 49.5831 49.6891C50.0013 51.9263 50.832 54.0089 52.0982 55.9052C56.2289 62.0956 64.8484 62.0755 68.9477 55.8708C70.2482 53.9029 71.0417 51.7315 71.4857 49.4313C71.6891 48.3828 72.2219 47.7813 73.3161 47.6581C73.6427 47.6208 74.0953 47.4719 74.2357 47.2255C75.1094 45.6987 75.4503 44.0688 74.9747 42.2927ZM56.8734 63.9862C56.7904 65.9341 56.5727 67.9766 58.7326 69.1969C60.0417 69.9359 61.6917 69.7698 62.8375 68.8102C64.0865 67.7646 64.5734 65.6677 64.0406 63.9862C61.6573 63.9862 59.3284 63.9862 56.8734 63.9862ZM53.2182 106.273C55.6846 106.273 58.0594 106.273 60.4513 106.273C60.7063 105.073 60.9469 103.93 61.199 102.735C58.5206 102.735 55.8995 102.735 53.2182 102.735C53.2182 103.924 53.2182 105.05 53.2182 106.273Z" fill="#19283E"/>
<path d="M100.762 110C102.374 109.275 103.222 108.061 103.603 106.296C105.606 97.0377 107.697 87.7994 109.765 78.5525C109.808 78.3549 109.92 78.1744 110 77.9854C110 88.6559 110 99.3265 110 109.997C106.921 110 103.841 110 100.762 110Z" fill="white"/>
<path d="M4.51172 0C2.16849 0.664583 0.661719 2.16563 0 4.51172C0 3.00781 0 1.50391 0 0C1.50391 0 3.00781 0 4.51172 0Z" fill="white"/>
<path d="M39.6571 18.2991C38.285 16.967 36.993 15.7353 35.7269 14.4749C34.6727 13.4293 34.5725 12.4038 35.4003 11.5702C36.2253 10.7423 37.2594 10.8454 38.3107 11.8853C39.912 13.4723 41.5105 15.0621 43.0946 16.6634C44.3063 17.8866 44.3092 18.7631 43.1204 19.9605C41.4818 21.6105 39.8404 23.2577 38.1847 24.8933C37.2222 25.8444 36.1279 25.9246 35.3488 25.1368C34.5581 24.3376 34.6384 23.2806 35.6066 22.3066C36.8928 21.0118 38.199 19.74 39.6571 18.2991Z" fill="#19283E"/>
<path d="M15.3397 18.3476C16.8064 19.7798 18.1928 21.1119 19.5506 22.4697C20.2009 23.1199 20.347 23.9048 19.8743 24.7212C19.4532 25.4489 18.7657 25.7496 17.9579 25.5606C17.5683 25.4689 17.1673 25.2225 16.8751 24.939C15.1363 23.2431 13.4204 21.5244 11.716 19.7942C10.7449 18.8087 10.7306 17.8778 11.6902 16.8952C13.4147 15.1335 15.1564 13.3918 16.9181 11.6673C17.8032 10.8022 18.8144 10.7793 19.5879 11.5212C20.39 12.2918 20.3756 13.3489 19.4733 14.2684C18.1556 15.6176 16.7892 16.9239 15.3397 18.3476Z" fill="#19283E"/>
<path d="M31.1725 12.9537C31.1238 13.137 31.0665 13.4149 30.9748 13.6841C29.8176 17.1761 28.6689 20.6737 27.4886 24.1599C26.9931 25.6266 25.4175 26.1823 24.4923 25.1654C24.0998 24.7357 23.7933 23.8677 23.9509 23.355C25.111 19.6024 26.3772 15.8813 27.6634 12.1688C27.9814 11.255 28.7577 10.8482 29.7316 11.0774C30.6426 11.2836 31.1066 11.9167 31.1725 12.9537Z" fill="#19283E"/>
<path d="M78.8047 90.309C78.8477 88.1433 79.412 86.2985 80.7727 84.7517C83.4768 81.6751 87.5674 81.7696 90.1456 84.9665C92.8526 88.3238 91.85 94.0157 88.1604 96.2616C84.382 98.5618 79.2773 95.7545 78.8448 91.1368C78.8161 90.816 78.8133 90.4952 78.8047 90.309ZM82.4141 90.1457C82.4398 90.1514 82.4685 90.1543 82.4943 90.16C82.4943 90.3376 82.4771 90.5181 82.4971 90.6957C82.6289 91.9618 83.7547 93.2738 84.8575 93.4571C85.843 93.6204 86.963 92.9415 87.5044 91.6668C87.8167 90.9306 88.0086 90.0913 88.0258 89.292C88.0573 87.8368 86.7825 86.3415 85.5422 86.184C84.531 86.0551 83.2877 87.0204 82.8094 88.3811C82.606 88.9454 82.5401 89.5556 82.4141 90.1457Z" fill="#19283E"/>
</g>
<defs>
<clipPath id="clip0_1612_926">
<rect width="110" height="110" fill="white"/>
</clipPath>
</defs>
</svg>
