<svg width="93" height="110" viewBox="0 0 93 110" fill="none" xmlns="http://www.w3.org/2000/svg">
<g clip-path="url(#clip0_1619_16)">
<path d="M48.3463 9.7658e-05C49.3733 0.481348 50.5012 0.820801 51.4057 1.47178C53.204 2.76299 54.0032 4.64932 54.0376 6.85576C54.0461 7.39072 54.0397 7.92569 54.0397 8.61104C54.4952 8.61104 54.8733 8.61104 55.2536 8.61104C60.195 8.61104 65.1342 8.60889 70.0756 8.61104C73.8333 8.61319 75.9752 10.7681 75.9924 14.5536C75.9946 14.805 76.0204 15.0585 75.9881 15.3056C75.8915 16.0446 76.1729 16.4271 76.884 16.7579C78.3364 17.4304 79.7135 18.2661 81.3657 19.1706C81.8792 18.5948 82.4571 17.8665 83.1167 17.2198C85.4047 14.9769 88.6596 14.9511 90.7866 17.1274C92.8684 19.2544 92.8061 22.4985 90.5868 24.7265C84.2682 31.0665 77.9411 37.3958 71.5989 43.7101C69.2528 46.0476 66.1225 46.0304 63.7678 43.6972C60.8696 40.8247 57.9842 37.9372 55.1096 35.0411C52.8344 32.7487 52.7549 29.5218 54.8905 27.3669C57.0217 25.2163 60.2766 25.2657 62.569 27.5151C64.2534 29.1673 65.9055 30.8538 67.4588 32.4136C71.1627 28.7097 74.8194 25.053 78.5211 21.3513C76.5897 19.8903 74.2028 18.9085 71.5989 18.4939C61.1897 16.8417 52.0438 24.2173 51.41 34.736C50.8084 44.7456 59.6342 53.4511 69.6545 52.7292C78.6565 52.0804 85.2973 45.4417 85.929 36.4569C86.017 35.1915 86.6272 34.5276 87.6477 34.5771C88.6532 34.6265 89.2504 35.3698 89.1452 36.6374C88.4749 44.6941 84.5045 50.5443 77.2407 54.0784C76.218 54.5747 75.9623 55.0989 75.9645 56.1474C75.9967 71.8632 75.943 87.579 76.0225 103.293C76.0397 106.582 74.9741 108.902 71.7622 110.004C49.2723 110.004 26.7825 110.004 4.29263 110.004C2.21724 109.293 0.614502 108.103 0.1354 105.819C0.0344238 105.334 4.88281e-05 104.827 4.88281e-05 104.33C4.88281e-05 74.321 -0.00209961 44.3181 0.00219727 14.313C0.00219727 10.8282 2.22153 8.61963 5.7106 8.61104C9.04067 8.60244 12.3708 8.6003 15.7008 8.61319C16.9405 8.61748 17.6559 9.26201 17.6237 10.2825C17.5958 11.2171 16.9147 11.8208 15.8083 11.8251C12.5147 11.838 9.21899 11.8272 5.92544 11.8315C3.9231 11.8337 3.227 12.5384 3.227 14.5622C3.22485 44.3868 3.22485 74.2114 3.227 104.036C3.227 106.073 3.91235 106.773 5.91255 106.773C27.2895 106.775 48.6686 106.775 70.0456 106.773C72.0178 106.773 72.7569 106.079 72.759 104.159C72.7655 88.2966 72.7633 72.4368 72.7612 56.5749C72.7612 56.2935 72.7268 56.012 72.7032 55.6489C65.2502 56.8155 58.8135 54.8734 53.6444 49.3755C49.8137 45.3042 48.009 40.3628 48.2002 34.7812C48.6321 22.2343 60.2422 12.8735 72.5957 15.2755C73.1758 13.0991 72.2542 11.8337 70.0692 11.8294C65.0913 11.8251 60.1155 11.8272 55.1376 11.8294C54.8217 11.8294 54.5059 11.8595 54.0418 11.8831C54.0418 12.7038 54.0612 13.4794 54.0376 14.2528C53.9624 16.6784 52.4606 18.1995 50.02 18.206C41.9999 18.2274 33.9776 18.2274 25.9575 18.206C23.4954 18.1995 21.9485 16.6032 21.9334 14.1497C21.9184 11.8573 21.927 9.56709 21.9313 7.27471C21.9377 3.5708 23.6801 1.24619 27.2444 0.163379C27.3389 0.133301 27.4184 0.0516602 27.5065 -0.00634766C34.4502 9.7658e-05 41.3983 9.7658e-05 48.3463 9.7658e-05ZM38.0338 14.9855C41.8989 14.9855 45.7618 14.9661 49.6268 15.0005C50.5034 15.0091 50.8407 14.719 50.8235 13.8274C50.7827 11.5394 50.8385 9.24912 50.7999 6.95889C50.759 4.63643 49.3217 3.2335 47.0036 3.2292C40.9922 3.21631 34.9831 3.21631 28.9717 3.2292C26.6213 3.2335 25.1754 4.70303 25.1583 7.06416C25.1432 9.28135 25.1991 11.5007 25.1346 13.7179C25.1067 14.7255 25.4741 15.0134 26.443 15.0048C30.3059 14.9618 34.1709 14.9855 38.0338 14.9855ZM58.8995 28.9439C58.4418 29.0427 58.227 29.0685 58.025 29.1351C56.4481 29.6657 56.1172 31.4683 57.3956 32.7616C60.1649 35.561 62.96 38.3368 65.7444 41.1212C67.2118 42.5886 68.17 42.5843 69.6567 41.0976C75.7604 34.9982 81.862 28.8966 87.9635 22.795C88.1913 22.5673 88.4319 22.3482 88.6231 22.0903C89.2569 21.2417 89.1666 20.0579 88.4362 19.3446C87.6799 18.6099 86.5584 18.5519 85.6991 19.2308C85.3918 19.4735 85.1233 19.7679 84.8461 20.045C79.6297 25.2593 74.4155 30.4757 69.1969 35.6878C68.0518 36.8308 67.3364 36.8286 66.1891 35.6899C64.2577 33.7735 62.3563 31.8249 60.4012 29.9321C59.9415 29.4874 59.312 29.2103 58.8995 28.9439Z" fill="#19283E"/>
<path d="M20.2385 65.5167C20.2062 69.0917 17.293 71.9728 13.7201 71.9599C10.1129 71.947 7.21464 68.9886 7.25331 65.3577C7.28984 61.7827 10.2139 58.8888 13.7717 58.9103C17.3875 58.9296 20.2707 61.8773 20.2385 65.5167ZM10.4803 65.4566C10.4889 67.2655 11.9713 68.7437 13.7652 68.7308C15.5592 68.72 17.0201 67.229 17.0115 65.4179C17.0029 63.6196 15.5055 62.1222 13.7266 62.1372C11.9348 62.1523 10.4717 63.6497 10.4803 65.4566Z" fill="#19283E"/>
<path d="M7.25104 45.6565C7.236 42.0708 10.0977 39.1467 13.662 39.1102C17.2907 39.0737 20.2254 41.9676 20.2383 45.5963C20.2512 49.2251 17.3229 52.1727 13.7221 52.1555C10.1579 52.1362 7.26607 49.2336 7.25104 45.6565ZM17.0114 45.6629C17.0264 43.8475 15.5805 42.3565 13.7823 42.335C11.9819 42.3135 10.4973 43.7766 10.4801 45.5877C10.4651 47.3989 11.9131 48.8985 13.7071 48.9264C15.4881 48.9522 16.9963 47.4633 17.0114 45.6629Z" fill="#19283E"/>
<path d="M7.25534 84.8977C7.3155 81.3248 10.2696 78.4566 13.8253 78.5168C17.4647 78.5791 20.2921 81.5096 20.2383 85.1619C20.1846 88.7777 17.2284 91.5965 13.561 91.5299C10.0161 91.4654 7.19518 88.4984 7.25534 84.8977ZM17.0092 85.0717C17.0243 83.2477 15.5934 81.7738 13.7844 81.7502C11.9862 81.7266 10.4973 83.1854 10.4801 84.9943C10.463 86.8184 11.896 88.29 13.7049 88.3094C15.5268 88.3244 16.9942 86.8871 17.0092 85.0717Z" fill="#19283E"/>
<path d="M37.6129 60.1047C41.8324 60.1025 46.052 60.0789 50.2693 60.1305C50.8473 60.1369 51.5734 60.3711 51.9666 60.7642C52.7229 61.5205 52.2781 62.8418 51.2361 63.1791C50.8387 63.308 50.3918 63.3187 49.9686 63.3187C41.6369 63.3252 33.3074 63.3252 24.9758 63.323C24.7609 63.323 24.5461 63.3338 24.3334 63.3145C23.2828 63.2199 22.606 62.5195 22.6619 61.5978C22.7156 60.7062 23.3666 60.1154 24.4193 60.1111C28.8172 60.0961 33.215 60.1047 37.6129 60.1047Z" fill="#19283E"/>
<path d="M37.4943 87.1729C41.7504 87.1729 46.0043 87.1493 50.2603 87.2008C50.8404 87.2073 51.5644 87.4414 51.9641 87.8346C52.7225 88.5801 52.2863 89.9143 51.2486 90.2559C50.8211 90.3977 50.3355 90.4041 49.8758 90.4063C41.615 90.4149 33.3564 90.4127 25.0957 90.4127C24.8465 90.4127 24.593 90.4256 24.3459 90.402C23.2932 90.3096 22.6142 89.6135 22.6637 88.6918C22.7109 87.8002 23.3619 87.1944 24.4082 87.1879C28.2689 87.1664 32.1318 87.1772 35.9947 87.175C36.4932 87.1729 36.9937 87.1729 37.4943 87.1729Z" fill="#19283E"/>
<path d="M34.0572 79.6899C37.2068 79.6899 40.3564 79.6856 43.5082 79.692C44.7758 79.6942 45.5148 80.2721 45.5385 81.2496C45.5621 82.268 44.7887 82.9082 43.4803 82.9104C37.2154 82.9168 30.9506 82.9168 24.6879 82.9104C23.431 82.9082 22.6877 82.311 22.6619 81.327C22.634 80.2914 23.373 79.6963 24.718 79.6942C27.8289 79.6877 30.942 79.6899 34.0572 79.6899Z" fill="#19283E"/>
<path d="M34.1023 51.1973C30.8452 51.1973 27.5903 51.2144 24.3333 51.1865C23.3085 51.1779 22.664 50.5141 22.6597 49.6117C22.6575 48.7223 23.3042 48.0842 24.3183 47.9918C24.5675 47.9682 24.8189 47.981 25.0702 47.981C26.645 47.981 28.2198 47.981 29.7946 47.981C34.1968 47.981 38.5968 47.981 42.9989 47.9832C43.3556 47.9832 43.7187 47.9682 44.0689 48.0197C44.9862 48.1551 45.6222 48.8705 45.5255 49.7041C45.4202 50.5957 44.9024 51.1457 43.9786 51.1822C43.014 51.2209 42.0472 51.2016 41.0804 51.2037C38.7536 51.2058 36.429 51.2037 34.1023 51.2037C34.1023 51.2016 34.1023 51.1994 34.1023 51.1973Z" fill="#19283E"/>
<path d="M33.9838 43.7335C30.9781 43.7335 27.9725 43.7378 24.9668 43.7292C24.5758 43.7292 24.0623 43.813 23.8217 43.6067C23.3533 43.2028 22.8227 42.6636 22.7152 42.105C22.5691 41.353 23.0955 40.7493 23.9098 40.586C24.29 40.5108 24.6918 40.5151 25.085 40.5151C31.0963 40.5108 37.1076 40.513 43.1189 40.513C43.1898 40.513 43.2629 40.513 43.3338 40.513C44.7732 40.5302 45.5424 41.0931 45.5381 42.1265C45.5338 43.1728 44.7754 43.7292 43.323 43.7314C40.2078 43.7378 37.0969 43.7335 33.9838 43.7335Z" fill="#19283E"/>
<path d="M30.8128 70.8038C28.7717 70.8038 26.7329 70.8167 24.6919 70.7995C23.4093 70.7888 22.6874 70.2065 22.6594 69.2247C22.6315 68.2042 23.3792 67.5661 24.7134 67.5618C28.8298 67.5468 32.9462 67.5468 37.0626 67.5618C38.3452 67.5661 39.0692 68.1591 39.095 69.1388C39.1229 70.1593 38.3688 70.7888 37.0389 70.7995C34.9657 70.8167 32.8882 70.8038 30.8128 70.8038Z" fill="#19283E"/>
<path d="M15.7156 27.0767C14.0334 27.0767 12.3512 27.0874 10.6689 27.0745C9.42069 27.0638 8.71385 26.4472 8.73534 25.4267C8.75468 24.4556 9.45292 23.8562 10.6389 23.854C14.0377 23.8433 17.4387 23.8433 20.8375 23.854C22.0771 23.8583 22.8012 24.4921 22.7797 25.504C22.7582 26.4686 22.0535 27.0659 20.8697 27.0767C19.151 27.0895 17.4322 27.0767 15.7156 27.0767Z" fill="#19283E"/>
</g>
<defs>
<clipPath id="clip0_1619_16">
<rect width="92.3012" height="110" fill="white"/>
</clipPath>
</defs>
</svg>
