<svg width="27" height="29" viewBox="0 0 27 29" fill="none" xmlns="http://www.w3.org/2000/svg">
<path d="M24.2777 19.2664L25.8805 20.2281C26.1961 20.4176 26.2985 20.8271 26.1092 21.1428C26.0528 21.2365 25.9742 21.3151 25.8805 21.3715L14.1858 28.3881C13.7636 28.6415 13.2361 28.6415 12.8138 28.3881L1.11931 21.3715C0.803587 21.182 0.701201 20.7725 0.890641 20.4568C0.946934 20.3629 1.02547 20.2844 1.11931 20.2281L2.72209 19.2664L13.4998 25.7331L24.2777 19.2664ZM24.2777 12.9997L25.8805 13.9615C26.1961 14.1509 26.2985 14.5604 26.1092 14.8761C26.0528 14.9699 25.9742 15.0484 25.8805 15.1048L13.4998 22.5331L1.11931 15.1048C0.803587 14.9153 0.701201 14.5059 0.890641 14.1901C0.946934 14.0963 1.02547 14.0177 1.11931 13.9615L2.72209 12.9997L13.4998 19.4664L24.2777 12.9997ZM14.1858 0.744697L25.8805 7.76144C26.1961 7.95087 26.2985 8.36038 26.1092 8.6761C26.0528 8.76994 25.9742 8.84847 25.8805 8.90476L13.4998 16.3331L1.11931 8.90476C0.803587 8.71534 0.701201 8.30583 0.890641 7.99011C0.946934 7.89627 1.02547 7.81774 1.11931 7.76144L12.8138 0.744697C13.2361 0.491351 13.7636 0.491351 14.1858 0.744697ZM13.4998 3.44295L5.3496 8.33311L13.4998 13.2232L21.6501 8.33311L13.4998 3.44295Z" fill="#6B7385"/>
</svg>
