<svg width="16" height="16" viewBox="0 0 16 16" fill="none" xmlns="http://www.w3.org/2000/svg">
<path d="M10 2C10.3682 2 10.6667 2.29848 10.6667 2.66667V4H14C14.3682 4 14.6667 4.29848 14.6667 4.66667V13.3333C14.6667 13.7015 14.3682 14 14 14H2.00004C1.63185 14 1.33337 13.7015 1.33337 13.3333V4.66667C1.33337 4.29848 1.63185 4 2.00004 4H5.33337V2.66667C5.33337 2.29848 5.63185 2 6.00004 2H10ZM10.6667 5.33333H5.33337V12.6667H10.6667V5.33333ZM2.66671 5.33333V12.6667H4.00004V5.33333H2.66671ZM9.33337 3.33333H6.66671V4H9.33337V3.33333ZM12 5.33333V12.6667H13.3334V5.33333H12Z" fill="#529CFF"/>
</svg>
