<svg width="17" height="16" viewBox="0 0 17 16" fill="none" xmlns="http://www.w3.org/2000/svg">
<path d="M13.5833 14.6663H2.91667C2.54848 14.6663 2.25 14.3679 2.25 13.9997V1.99967C2.25 1.63149 2.54848 1.33301 2.91667 1.33301H13.5833C13.9515 1.33301 14.25 1.63149 14.25 1.99967V13.9997C14.25 14.3679 13.9515 14.6663 13.5833 14.6663ZM12.9167 13.333V2.66634H3.58333V13.333H12.9167ZM4.91667 3.99967H7.58333V6.66634H4.91667V3.99967ZM4.91667 7.99967H11.5833V9.33301H4.91667V7.99967ZM4.91667 10.6663H11.5833V11.9997H4.91667V10.6663ZM8.91667 4.66634H11.5833V5.99967H8.91667V4.66634Z" fill="#34C759"/>
</svg>
