<svg width="31" height="31" viewBox="0 0 31 31" fill="none" xmlns="http://www.w3.org/2000/svg">
<path d="M25.9417 3.18879C24.7345 2.84464 23.5652 2.9563 22.4499 3.5471C21.0766 4.27456 20.2484 5.4495 19.8815 6.98942H17.3736V6.63194C17.3736 5.48616 17.3744 4.34039 17.3736 3.19545C17.372 1.27139 16.147 0.00145825 14.2923 0.000624966C10.8659 -0.000208322 7.43944 -0.000208322 4.0122 0.000624966C2.15424 0.00145825 0.922852 1.27056 0.922852 3.18629V27.8058C0.922852 29.7265 2.15101 30.9981 4.00575 30.999C7.43218 30.9998 10.8586 30.9998 14.2858 30.999C16.1446 30.9981 17.3728 29.7307 17.3736 27.8108C17.3744 24.9993 17.3736 22.1869 17.3736 19.3754V18.9996H22.4935C23.0321 18.9996 23.1797 18.8496 23.1797 18.3021V12.8008C26.2804 13.7507 28.9447 11.4675 29.3955 8.91431C29.839 6.40278 28.3359 3.87292 25.9417 3.18879ZM17.8437 8.01853V11.2034C17.8236 11.2225 17.8042 11.2425 17.784 11.2617C17.6187 11.075 17.4607 10.8809 17.2857 10.7042C17.0091 10.4251 16.772 10.4242 16.4978 10.7009C16.3244 10.875 16.1672 11.065 15.9487 11.3084V8.01853H17.8437ZM11.265 18.9996C12.8577 19.0004 14.4495 18.9996 16.0422 18.9996H16.3873V23.9843H1.91231V5.01536H16.3914V7.00025H11.2642C10.7497 7.00108 10.5998 7.15524 10.5998 7.68771V18.3113C10.5998 18.8438 10.7505 18.9988 11.265 18.9996ZM1.94538 2.59465C2.10505 1.67054 2.87839 1.00724 3.78318 1.00474C7.3596 0.996405 10.936 0.995572 14.5124 1.00557C15.5406 1.0089 16.3696 1.87302 16.4019 2.9313C16.4131 3.27295 16.4043 3.61543 16.4043 3.97874H1.87038C1.89296 3.5021 1.86877 3.03879 1.94538 2.59465ZM16.3914 28.1624C16.3494 29.2141 15.4809 29.9957 14.4197 29.9973C11.4481 30.0015 8.47567 29.999 5.50406 29.999C4.92989 29.999 4.35573 30.0082 3.78157 29.9957C2.80178 29.974 1.95263 29.1924 1.90748 28.1891C1.8607 27.1417 1.89699 26.0901 1.89699 25.0201H16.4002C16.4002 26.0834 16.4325 27.1242 16.3914 28.1624ZM22.1991 17.983H11.582V17.0222H22.1991V17.983ZM22.212 15.9806H11.5828V8.02269H14.9544C14.9544 9.48178 14.9487 10.9184 14.9616 12.355C14.9632 12.5266 15.0221 12.7316 15.1253 12.8616C15.2963 13.0791 15.5882 13.0466 15.8172 12.8124C16.1672 12.4541 16.5059 12.0841 16.8849 11.6825C17.2357 12.0525 17.5591 12.3908 17.8792 12.7324C18.0558 12.9199 18.2421 13.0749 18.5155 12.9599C18.8009 12.8399 18.8283 12.5899 18.8275 12.3141C18.8227 11.0017 18.8251 9.68927 18.8251 8.37684V8.01936H19.6872C19.8662 8.70599 19.9863 9.38262 20.2218 10.0134C20.5686 10.9409 21.2089 11.6467 22.0096 12.1975C22.0967 12.2566 22.2024 12.3758 22.2032 12.4683C22.2161 13.6324 22.212 14.7973 22.212 15.9806ZM24.6224 12C22.4983 11.9958 20.7605 10.1959 20.7605 7.99853C20.7613 5.78948 22.512 3.99208 24.6546 4.00041C26.7771 4.00958 28.5085 5.81698 28.502 8.01686C28.4948 10.2117 26.7505 12.0033 24.6224 12Z" fill="#E65425"/>
<path d="M28.2376 22.0059C26.5845 21.88 25.1201 23.2858 25.1152 25.1432C25.1217 25.7865 25.3483 26.4948 25.7878 27.1314C26.3724 27.9781 26.9563 28.8255 27.5441 29.6696C27.849 30.1088 28.1836 30.1146 28.4836 29.6838C29.0771 28.8313 29.6658 27.9747 30.2553 27.1189C30.6004 26.619 30.8053 26.064 30.8931 25.4549C31.1359 23.7699 29.8779 22.13 28.2376 22.0059ZM29.9303 25.3165C29.8932 25.5907 29.8376 25.8898 29.6981 26.1157C29.1723 26.9606 28.6086 27.7806 28.0151 28.6772C27.4183 27.7656 26.791 26.9564 26.3248 26.0582C25.7458 24.9432 26.1821 23.6933 27.2151 23.1916C27.8707 22.8725 28.5142 22.9283 29.1005 23.3666C29.7384 23.8441 30.0408 24.4991 29.9303 25.3165Z" fill="#E65425"/>
<path d="M18.8 21.0195H17.8799V21.992H18.8V21.0195Z" fill="#E65425"/>
<path d="M20.7363 21.0156H19.8057V21.9764H20.7363V21.0156Z" fill="#E65425"/>
<path d="M20.7436 23.0195H19.8154V23.9845H20.7436V23.0195Z" fill="#E65425"/>
<path d="M20.7389 25.0234H19.8091V25.9851H20.7389V25.0234Z" fill="#E65425"/>
<path d="M20.7454 27.0137H19.814V27.9753H20.7454V27.0137Z" fill="#E65425"/>
<path d="M20.7394 29.0234H19.7983V29.9792H20.7394V29.0234Z" fill="#E65425"/>
<path d="M22.6814 29.0156H21.7476V29.9856H22.6814V29.0156Z" fill="#E65425"/>
<path d="M24.612 29.0117H23.6782V29.9817H24.612V29.0117Z" fill="#E65425"/>
<path d="M26.5498 29.0195H25.6216V29.9845H26.5498V29.0195Z" fill="#E65425"/>
<path d="M6.97573 8.29546C5.93223 7.77048 4.91051 7.91131 3.99847 8.64627C2.71789 9.67955 2.47597 11.4861 3.42672 12.961C4.03475 13.9035 4.69036 14.8134 5.33307 15.7326C5.58951 16.1 5.93788 16.095 6.19835 15.7217C6.82815 14.8193 7.45554 13.9152 8.07164 13.0027C8.46839 12.4152 8.64822 11.7503 8.66838 10.9286C8.61999 9.78121 8.06196 8.84293 6.97573 8.29546ZM7.66924 11.3378C7.61521 11.6503 7.5386 11.9853 7.3757 12.2461C6.87493 13.0477 6.32737 13.8185 5.7645 14.6518C5.20969 13.8393 4.66537 13.1027 4.18555 12.3236C3.6122 11.3928 3.72026 10.3295 4.39441 9.62205C5.00244 8.98292 5.8395 8.82043 6.57978 9.19707C7.35716 9.59289 7.81842 10.4712 7.66924 11.3378Z" fill="#E65425"/>
<path d="M10.0932 21.0137H9.16504V21.9861H10.0932V21.0137Z" fill="#E65425"/>
<path d="M12.0375 21.0156H11.1021V21.9764H12.0375V21.0156Z" fill="#E65425"/>
<path d="M13.969 21.0195H13.0425V21.9828H13.969V21.0195Z" fill="#E65425"/>
<path d="M15.8981 21.0059H14.9731V21.9783H15.8981V21.0059Z" fill="#E65425"/>
<path d="M6.23942 17.0195H5.29834V17.9753H6.23942V17.0195Z" fill="#E65425"/>
<path d="M6.22085 19.0156H5.2959V19.9881H6.22085V19.0156Z" fill="#E65425"/>
<path d="M6.22261 21.0137H5.29443V21.9786H6.22261V21.0137Z" fill="#E65425"/>
<path d="M8.15813 21.0156H7.22754V21.9789H8.15813V21.0156Z" fill="#E65425"/>
<path d="M9.13429 26C8.34562 26.0067 7.69807 26.68 7.69727 27.4966C7.69646 28.3257 8.35852 29.0049 9.1609 28.9982C9.95037 28.9915 10.5979 28.3174 10.5987 27.5008C10.5987 26.6708 9.93828 25.9942 9.13429 26ZM9.13912 27.9966C8.87785 27.9916 8.66173 27.7608 8.66657 27.49C8.67141 27.2191 8.89478 26.9967 9.15606 27.0017C9.41814 27.0067 9.63426 27.2375 9.62942 27.5075C9.62458 27.7774 9.4004 28.0016 9.13912 27.9966Z" fill="#E65425"/>
<path d="M26.8632 6.87944C26.8318 6.91777 26.7786 6.9886 26.7181 7.0511C25.8576 7.94188 24.9964 8.83183 24.1344 9.72095C23.7682 10.0993 23.5594 10.0984 23.1941 9.72095C22.9312 9.4493 22.6699 9.17515 22.4094 8.90016C22.3965 8.88683 22.3949 8.86267 22.3853 8.83267C22.5949 8.61685 22.8078 8.39852 23.0755 8.12437C23.2473 8.35853 23.4167 8.58851 23.5989 8.836C24.5093 7.89272 25.352 7.02026 26.2084 6.13281C26.4415 6.39863 26.6431 6.62862 26.8632 6.87944Z" fill="#E65425"/>
<path d="M10.5748 2.01758H7.71045V2.97919H10.5748V2.01758Z" fill="#E65425"/>
</svg>
