<svg width="31" height="33" viewBox="0 0 31 33" fill="none" xmlns="http://www.w3.org/2000/svg">
<path d="M25.3232 7.26161C25.2393 6.61811 24.886 6.12441 24.3857 5.73796C23.6789 5.19285 23.2228 4.51921 23.1354 3.62576C23.1309 3.58233 23.1101 3.54156 23.1002 3.49813C22.8027 2.21823 22.1014 1.57562 20.7853 1.55523C19.7531 1.54016 18.9022 1.23969 18.1089 0.58467C17.1597 -0.198871 16.1086 -0.19178 15.1513 0.587329C14.3778 1.21576 13.5593 1.6093 12.5425 1.53573C12.52 1.53396 12.4974 1.53839 12.4749 1.53928C11.1705 1.62437 10.4142 2.21291 10.1825 3.46977C10.005 4.43412 9.56956 5.17955 8.80964 5.81596C7.79552 6.66509 7.62785 7.64274 8.27779 8.78614C8.74383 9.60602 8.98001 10.4277 8.75195 11.353C8.73302 11.4275 8.72761 11.5055 8.71679 11.5826C8.57076 12.5904 9.07827 13.5122 10.0203 13.9465C10.2231 14.0396 10.4295 14.1247 10.645 14.2186C10.5873 14.3472 10.5395 14.4579 10.4881 14.5679C9.82827 15.9612 9.16841 17.3555 8.50585 18.7479C8.39588 18.9793 8.33097 19.2097 8.49774 19.4375C8.66811 19.6688 8.91601 19.6697 9.17022 19.6254C9.83548 19.512 10.5025 19.4074 11.1633 19.2744C11.3878 19.2301 11.5068 19.2664 11.6203 19.4721C11.9142 20.0074 12.236 20.5277 12.547 21.0533C12.6994 21.3113 12.8238 21.6091 13.2006 21.5967C13.5972 21.5834 13.6928 21.2607 13.8253 20.9815C14.4653 19.6281 15.1107 18.2764 15.7408 16.9185C15.84 16.704 15.977 16.6047 16.2015 16.5418C16.6432 16.4186 17.0434 16.5568 17.4599 16.6526C17.8042 16.7315 18.008 16.8963 18.1459 17.2358C18.5632 18.2622 19.0266 19.27 19.4665 20.2875C19.5647 20.5144 19.6937 20.7015 19.9641 20.728C20.2498 20.7555 20.4193 20.5942 20.5581 20.3708C20.9151 19.7938 21.2892 19.2274 21.6381 18.646C21.7489 18.4616 21.8661 18.4146 22.0744 18.4599C22.7216 18.6017 23.3751 18.7178 24.0224 18.8605C24.3036 18.9225 24.565 18.9465 24.7607 18.6983C24.9455 18.4625 24.8571 18.2188 24.7507 17.9777C24.2225 16.7802 23.6979 15.5818 23.1732 14.3835C23.1263 14.2754 23.0885 14.1637 23.0443 14.0458C23.1056 14.0157 23.1453 13.9962 23.184 13.9775C24.236 13.4679 24.7201 12.6303 24.5155 11.4842C24.3424 10.5128 24.4208 9.61755 24.9959 8.79057C25.0338 8.73651 25.0599 8.67446 25.0906 8.61507C25.3123 8.18785 25.3854 7.73581 25.3232 7.26161ZM13.133 19.9197C12.8364 19.4207 12.5678 18.9686 12.2982 18.5166C12.0602 18.1186 11.9322 18.0663 11.468 18.1479C10.9605 18.2374 10.4521 18.3189 9.85802 18.4182C10.4593 17.148 11.0227 15.9577 11.6113 14.715C11.7348 14.8728 11.8385 14.9933 11.9277 15.1227C12.1414 15.4338 12.3397 15.7573 12.5614 16.0631C12.9761 16.6357 13.4557 16.8653 14.5086 17.0124C14.056 17.9688 13.6071 18.9181 13.133 19.9197ZM23.4265 17.6488C22.8794 17.5407 22.3854 17.4459 21.8932 17.3448C21.3532 17.234 21.2333 17.281 20.9476 17.7322C20.6816 18.1523 20.4166 18.5715 20.1101 19.0555C19.7937 18.3349 19.5035 17.6745 19.2015 16.9867C19.3322 16.946 19.4358 16.9149 19.5386 16.883C20.0632 16.7217 20.4725 16.4088 20.7754 15.9603C20.9935 15.6377 21.1946 15.3035 21.4298 14.9951C21.5786 14.7992 21.7769 14.6405 22.0068 14.4119C22.4971 15.5304 22.9506 16.5657 23.4265 17.6488ZM23.9782 8.41653C23.8962 8.5743 23.825 8.73828 23.733 8.88985C23.3247 9.56171 23.2616 10.2841 23.3824 11.0393C23.4211 11.2795 23.4536 11.5206 23.4797 11.7625C23.5383 12.3041 23.2922 12.7437 22.7892 12.9786C22.4854 13.1213 22.1753 13.2534 21.8607 13.373C21.227 13.6141 20.7438 14.0236 20.3914 14.5909C20.2264 14.855 20.0542 15.1147 19.8739 15.3691C19.5251 15.8619 19.0599 16.0623 18.4956 15.8442C17.2634 15.3682 16.0635 15.3372 14.8232 15.83C14.1867 16.0835 13.7279 15.8664 13.3448 15.3062C13.3385 15.2964 13.3313 15.2885 13.3259 15.2787C12.7498 14.1513 11.8421 13.4253 10.6197 13.0362C10.0221 12.8457 9.76427 12.422 9.77508 11.899C9.82196 11.4691 9.86162 11.0499 9.91481 10.6333C9.98602 10.0634 9.86884 9.53423 9.5975 9.03078C9.44966 8.75778 9.31174 8.47946 9.17202 8.20203C8.87004 7.60019 8.95387 7.12954 9.44155 6.67129C9.51457 6.60304 9.58398 6.52859 9.66421 6.46832C10.5539 5.80266 11.0452 4.91542 11.1931 3.83317C11.2138 3.68072 11.2598 3.53004 11.312 3.38468C11.477 2.92022 11.816 2.66761 12.3117 2.6162C12.3451 2.61266 12.3794 2.60734 12.4127 2.60911C13.7369 2.67204 14.8745 2.26432 15.8679 1.38594C16.3601 0.949849 16.8712 0.995054 17.4103 1.38151C17.4193 1.38771 17.4283 1.39391 17.4364 1.40189C18.3766 2.28205 19.4998 2.63925 20.7907 2.6162C21.5065 2.60379 21.849 2.93529 22.0176 3.61601C22.0365 3.69135 22.0635 3.76492 22.0735 3.84115C22.2141 4.94112 22.7595 5.79557 23.6221 6.50466C24.3992 7.14283 24.4361 7.52929 23.9782 8.41653Z" fill="#E65425"/>
<path d="M30.9201 21.9083C30.8399 19.594 30.7831 17.2797 30.7164 14.9654C30.6984 14.345 30.6767 13.7254 30.6596 13.105C30.6362 12.2559 30.0529 11.545 29.1993 11.3296C28.3862 11.124 27.6037 11.4537 27.162 12.2044C26.7897 12.8355 26.6788 13.5349 26.6761 14.2502C26.6698 15.9458 26.6779 17.6405 26.6806 19.3352V19.7536C25.7368 18.9993 24.7461 18.9895 24.0304 19.6534C22.9333 20.67 21.8327 21.684 20.7149 22.6794C20.0902 23.2352 19.689 23.9097 19.6512 24.7243C19.5872 26.083 19.598 27.4463 19.5773 28.8077C19.5755 28.938 19.5773 29.0674 19.5773 29.2252C19.3952 29.2252 19.2509 29.2207 19.1067 29.2261C18.4387 29.2527 17.9628 29.7003 17.9294 30.3579C17.9051 30.8224 17.8979 31.2886 17.9087 31.754C17.924 32.4214 18.3937 32.924 19.0373 32.9319C21.4928 32.9638 23.9493 32.9851 26.4057 32.9975C27.0403 33.0002 27.5253 32.5517 27.5695 31.9303C27.6037 31.434 27.6127 30.9332 27.5938 30.4359C27.5695 29.765 27.0791 29.312 26.3931 29.2872C26.2155 29.2801 26.0379 29.2854 25.8549 29.2854C25.7729 28.9123 25.8198 28.6393 26.1046 28.3663C27.3396 27.1848 28.543 25.9705 29.7708 24.7801C30.5893 23.985 30.9589 23.0375 30.9201 21.9083ZM26.1641 30.342C26.4517 30.3384 26.5409 30.4333 26.5229 30.7045C26.4994 31.036 26.5058 31.3693 26.5049 31.7017C26.5049 31.8603 26.4553 31.9428 26.2714 31.9401C23.8835 31.9126 21.4955 31.8913 19.1076 31.8674C19.086 31.8674 19.0653 31.8532 19.0103 31.8346C19.0103 31.3746 19.0003 30.9022 19.0247 30.4315C19.0274 30.3783 19.2293 30.2941 19.3384 30.295C20.6338 30.2994 21.9291 30.3198 23.2245 30.3314C24.2044 30.3402 25.1842 30.3526 26.1641 30.342ZM29.0433 23.9895C27.7561 25.2454 26.4877 26.52 25.1887 27.7636C24.8525 28.0853 24.6749 28.4168 24.7344 28.8733C24.7497 28.9912 24.7362 29.1135 24.7362 29.2465H20.7248C20.6924 29.1977 20.6698 29.18 20.6698 29.1622C20.6842 27.7237 20.6842 26.2851 20.7257 24.8475C20.7419 24.2846 21.0358 23.8317 21.4694 23.4461C22.5782 22.4587 23.6662 21.4492 24.7597 20.4458C25.049 20.1799 25.4637 20.1436 25.7395 20.3731C26.0397 20.6222 26.0758 21.0113 25.7738 21.3446C25.3699 21.7913 24.9318 22.207 24.5046 22.6316C24.2512 22.8842 23.9826 23.1208 23.7338 23.3779C23.4967 23.6225 23.4994 23.9363 23.7203 24.1481C23.9303 24.3502 24.2503 24.3688 24.4775 24.1393C25.3348 23.2768 26.1993 22.4206 27.0178 21.5227C27.5532 20.9351 27.7696 20.2029 27.7651 19.407C27.7543 17.7566 27.7317 16.1062 27.766 14.4576C27.7768 13.9151 27.8759 13.3523 28.0616 12.8435C28.2807 12.2452 28.9 12.1504 29.3363 12.5962C29.4634 12.7256 29.5616 12.9401 29.568 13.1192C29.668 16.1071 29.7509 19.0959 29.8384 22.0838C29.8609 22.8354 29.5842 23.4612 29.0433 23.9895Z" fill="#E65425"/>
<path d="M13.9145 30.347C13.8793 29.692 13.3989 29.2497 12.7264 29.2258C12.584 29.2205 12.4415 29.2249 12.2685 29.2249V28.8287C12.2685 27.688 12.2739 26.5463 12.2658 25.4056C12.2567 24.201 11.8259 23.2181 10.8478 22.4221C9.80032 21.5703 8.83487 20.6193 7.85591 19.6895C7.17982 19.0477 6.11702 18.9751 5.39857 19.5663C5.33637 19.6177 5.26967 19.6638 5.1651 19.7418V19.2232C5.1669 17.5392 5.17772 15.8551 5.1669 14.171C5.1615 13.4796 5.0407 12.8025 4.67832 12.1926C4.23571 11.4499 3.44425 11.1219 2.63385 11.332C1.79551 11.5483 1.21137 12.2565 1.18704 13.0843C1.1014 16.0191 1.02478 18.9538 0.925617 21.8876C0.886855 23.0293 1.25464 23.9848 2.08487 24.7878C3.29821 25.9604 4.48361 27.1606 5.70236 28.3279C5.98631 28.6 6.09629 28.8713 5.98631 29.2843C5.83307 29.2843 5.68704 29.2825 5.5419 29.2843C4.7288 29.2958 4.24563 29.7762 4.24563 30.5793C4.24563 30.9781 4.24833 31.3779 4.26186 31.7758C4.2898 32.5514 4.76666 33.0061 5.55272 32.9999C7.94154 32.9822 10.3295 32.96 12.7183 32.9361C13.4196 32.929 13.9118 32.4681 13.9352 31.775C13.9515 31.2999 13.9406 30.8221 13.9145 30.347ZM2.85921 24.0486C2.24893 23.46 1.9776 22.7722 2.00555 21.9328C2.1047 19.0114 2.18223 16.0891 2.26786 13.1676C2.28049 12.744 2.5383 12.4382 2.95927 12.3469C3.2883 12.2751 3.62363 12.4125 3.76336 12.7998C3.92652 13.251 4.06444 13.7367 4.07526 14.21C4.11131 15.793 4.13205 17.3787 4.06895 18.96C4.02027 20.1973 4.42411 21.2158 5.28139 22.0835C5.95657 22.766 6.64166 23.4388 7.33036 24.108C7.59178 24.3615 7.91991 24.3606 8.13896 24.1346C8.35621 23.9112 8.33818 23.601 8.07496 23.3404C7.46468 22.735 6.84809 22.1349 6.23511 21.5322C6.1639 21.4622 6.09539 21.3868 6.0377 21.3062C5.7916 20.9632 5.81414 20.6263 6.09359 20.3826C6.36672 20.1459 6.78499 20.1699 7.07436 20.4349C8.20296 21.4666 9.32616 22.5037 10.4656 23.5247C10.9929 23.9981 11.1588 24.6088 11.1723 25.2611C11.1985 26.5446 11.1822 27.8298 11.1822 29.1141C11.1822 29.1451 11.1651 29.1762 11.1462 29.2417H7.13115C7.12393 29.1806 7.1014 29.1141 7.11222 29.0538C7.22129 28.4281 6.92562 28.0035 6.4794 27.5834C5.25164 26.4258 4.07345 25.2195 2.85921 24.0486ZM12.8436 31.8884H5.32736C5.32736 31.4488 5.32466 30.9967 5.32826 30.5456C5.33097 30.2983 5.52478 30.3497 5.67351 30.3488C7.26186 30.3355 8.8502 30.3258 10.4385 30.3134C11.1372 30.3071 11.8358 30.3036 12.5335 30.2841C12.7697 30.2779 12.8544 30.3586 12.8472 30.589C12.8346 31.0056 12.8436 31.4231 12.8436 31.8884Z" fill="#E65425"/>
<path d="M16.6623 3.22467C13.7037 3.21049 11.2699 5.57973 11.2617 8.48255C11.2536 11.3951 13.6614 13.7803 16.6163 13.7856C19.5739 13.7918 21.9997 11.4155 22.0015 8.51091C22.0042 5.61784 19.6019 3.23974 16.6623 3.22467ZM16.6443 12.722C14.2969 12.7282 12.3552 10.8367 12.3435 8.53573C12.3318 6.20993 14.259 4.29451 16.6172 4.2883C18.9772 4.2821 20.9207 6.18865 20.9198 8.50914C20.9189 10.8137 18.988 12.7167 16.6443 12.722Z" fill="#E65425"/>
<path d="M20.368 31.097C20.3275 31.3567 20.1832 31.5083 19.9227 31.5171C19.6784 31.526 19.4774 31.3044 19.5026 31.0607C19.5297 30.801 19.6883 30.6618 19.9525 30.6724C20.2229 30.684 20.3365 30.8604 20.368 31.097Z" fill="#E65425"/>
<path d="M12.3432 31.0782C12.3567 31.321 12.144 31.54 11.9042 31.5178C11.6473 31.4948 11.4814 31.3423 11.4859 31.087C11.4904 30.8362 11.6464 30.6873 11.9177 30.666C12.1719 30.6873 12.3288 30.8158 12.3432 31.0782Z" fill="#E65425"/>
<path d="M19.6864 7.14275C19.6332 7.22518 19.5539 7.29254 19.4791 7.35991C18.3459 8.37301 17.2128 9.38612 16.0779 10.3975C15.6299 10.7972 15.4253 10.7901 14.9926 10.3647C14.5698 9.94985 14.1452 9.5368 13.727 9.11844C13.4331 8.82594 13.4096 8.5042 13.6557 8.27552C13.8901 8.05836 14.2056 8.08672 14.4887 8.36504C14.8393 8.70894 15.1819 9.06083 15.5497 9.43044C16.635 8.46342 17.6771 7.53363 18.7209 6.60562C18.8039 6.53205 18.8859 6.44962 18.9833 6.39998C19.2185 6.27944 19.4466 6.30869 19.6287 6.50191C19.8117 6.69514 19.8288 6.91939 19.6864 7.14275Z" fill="#E65425"/>
</svg>
