<svg width="31" height="29" viewBox="0 0 31 29" fill="none" xmlns="http://www.w3.org/2000/svg">
<path d="M30.8182 15.5523C30.1291 11.1217 27.7618 7.9681 23.6952 6.12907C23.0522 5.83816 22.3607 5.65417 21.6662 5.41201C21.6662 5.02675 21.6763 4.61397 21.6623 4.20276C21.656 4.02507 21.7216 3.9543 21.881 3.89298C22.7748 3.54781 23.3069 2.64127 23.1569 1.74416C22.9897 0.740906 22.231 0.0364272 21.2263 0.0207022C19.7911 -0.00288523 18.3543 -0.011534 16.9198 0.023061C15.5979 0.0537247 14.6939 1.3133 15.0549 2.57051C15.2635 3.29857 15.7667 3.74674 16.4917 3.98104C16.4917 4.38596 16.4925 4.78773 16.4917 5.19029C16.4909 5.27756 16.4839 5.36484 16.48 5.45683C16.3964 5.48434 16.3245 5.51344 16.2495 5.53152C13.6908 6.16995 11.5828 7.52859 9.91088 9.57284C9.76946 9.74581 9.63039 9.80085 9.41944 9.79928C8.14985 9.79142 6.88025 9.79377 5.61065 9.79613C5.1911 9.79692 4.91452 10.0375 4.9153 10.3882C4.91608 10.742 5.18719 10.9731 5.61143 10.9739C6.60758 10.9755 7.60372 10.9739 8.59987 10.9755C8.69128 10.9755 8.78347 10.9842 8.86082 10.9889C8.56081 11.6682 8.25923 12.3239 7.98421 12.9922C7.90452 13.1849 7.8178 13.2564 7.60763 13.2548C5.6544 13.247 3.70118 13.2501 1.74795 13.2509C1.64091 13.2509 1.53231 13.2478 1.42606 13.2611C1.14948 13.2957 0.945565 13.5159 0.92447 13.7911C0.904156 14.0639 1.07682 14.3241 1.34402 14.3902C1.4745 14.4224 1.61435 14.4279 1.75029 14.4279C3.56601 14.4303 5.38252 14.4295 7.19902 14.4295H7.51544C7.41621 15.2087 7.32324 15.936 7.22714 16.69H6.91775C6.17553 16.69 5.4333 16.6845 4.69107 16.6931C4.33559 16.6978 4.08635 16.9541 4.08792 17.2812C4.0887 17.6099 4.33793 17.8607 4.6942 17.8662C5.23094 17.8748 5.76847 17.8693 6.30522 17.8693H7.24589C7.36856 18.6375 7.48497 19.3695 7.60763 20.1361H7.2873C6.22318 20.1361 5.15828 20.1353 4.09417 20.1361C3.99651 20.1361 3.89806 20.1337 3.80118 20.1455C3.47851 20.1856 3.25975 20.4317 3.26756 20.7399C3.27459 21.0387 3.4871 21.2675 3.79962 21.3037C3.90588 21.3162 4.01369 21.3147 4.12073 21.3147C5.30282 21.3155 6.48414 21.3225 7.66623 21.3092C7.92562 21.306 8.05219 21.3729 8.15688 21.6323C10.9047 28.4066 19.1481 31.0846 25.3203 27.2163C25.7851 26.9246 25.9187 26.5943 25.7055 26.2649C25.4937 25.9386 25.1718 25.9229 24.7046 26.2083C22.3146 27.6739 19.7356 28.1425 16.9987 27.5929C10.207 26.2287 6.50836 18.8749 9.4171 12.5582C12.5313 5.79727 21.4904 4.2232 26.6688 9.55554C29.0736 12.0314 30.0354 15.0396 29.6455 18.4795C29.4674 20.0559 28.9236 21.5057 28.0884 22.8486C27.8649 23.2087 27.9267 23.5618 28.229 23.7473C28.5251 23.929 28.8548 23.8283 29.0736 23.4816C29.8127 22.3101 30.3416 21.0497 30.6276 19.6919C30.7502 19.1092 30.826 18.5164 30.9229 17.9283V16.2772C30.8878 16.0358 30.8557 15.7936 30.8182 15.5523ZM20.4794 5.21859H17.6832V4.05888H20.4794V5.21859ZM20.17 2.84412C19.8028 2.84412 19.4356 2.84334 19.0684 2.84334H18.4379C17.9754 2.84412 17.5128 2.84491 17.0503 2.84176C16.5159 2.83783 16.1635 2.51783 16.1542 2.04136C16.144 1.55389 16.5034 1.19772 17.0394 1.19457C18.3949 1.1875 19.7505 1.18828 21.106 1.19457C21.642 1.19693 22.0146 1.55389 22.0084 2.03114C22.0021 2.50918 21.6318 2.83862 21.0872 2.84176C20.7818 2.84334 20.4755 2.84412 20.17 2.84412Z" fill="#E65425"/>
<path d="M19.0995 7.94537C14.1023 7.92807 10.0217 12.0126 10.0006 17.0525C9.97948 22.0963 14.0414 26.2162 19.0581 26.239C24.0607 26.2618 28.1609 22.1545 28.1726 17.1091C28.1843 12.0582 24.1302 7.96266 19.0995 7.94537ZM19.0753 25.0596C14.7008 25.051 11.1506 21.4515 11.1725 17.047C11.1936 12.6629 14.7453 9.11216 19.0979 9.12474C23.488 9.13811 27.0202 12.7148 27.0007 17.1295C26.9811 21.5074 23.4231 25.0675 19.0753 25.0596Z" fill="#E65425"/>
<path d="M2.09092 20.7189C2.09561 21.0397 1.84404 21.2999 1.52292 21.3078C1.18775 21.3157 0.918987 21.0523 0.922894 20.7205C0.9268 20.4028 1.18931 20.1434 1.50652 20.1426C1.82372 20.1426 2.08624 20.4013 2.09092 20.7189Z" fill="#E65425"/>
<path d="M27.6291 25.107C27.6197 25.4238 27.3548 25.6794 27.0368 25.6762C26.7157 25.6731 26.4642 25.4191 26.4634 25.0952C26.4626 24.7697 26.7118 24.5157 27.0345 24.5118C27.365 24.5071 27.6384 24.7815 27.6291 25.107Z" fill="#E65425"/>
<path d="M23.6271 12.5362C23.4388 12.338 23.138 12.2956 22.9044 12.445C22.8146 12.5024 22.738 12.581 22.6622 12.6573C21.7911 13.5316 20.9199 14.4059 20.0535 15.2849C19.9457 15.3942 19.8613 15.4359 19.7019 15.373C19.2972 15.2134 18.8769 15.2134 18.4722 15.3722C18.3136 15.4343 18.2276 15.3973 18.1206 15.2857C17.7815 14.9319 17.4338 14.5867 17.0869 14.2408C16.7689 13.9231 16.4166 13.8846 16.1619 14.1354C15.8978 14.3949 15.9283 14.7377 16.2486 15.0632C16.5846 15.406 16.9189 15.7512 17.2658 16.0822C17.4026 16.2127 17.4346 16.318 17.3698 16.5099C16.9666 17.6987 17.8549 18.9315 19.0956 18.9237C20.3254 18.915 21.2028 17.6963 20.8059 16.5209C20.7348 16.311 20.7848 16.2072 20.9223 16.0704C21.7762 15.2204 22.6232 14.3642 23.4716 13.5088C23.5474 13.4325 23.6271 13.3562 23.6873 13.269C23.8427 13.0441 23.8131 12.7312 23.6271 12.5362ZM19.0902 17.7419C18.7362 17.7443 18.4401 17.4439 18.4417 17.0854C18.4432 16.7222 18.7331 16.4391 19.0972 16.4438C19.4597 16.4493 19.741 16.7442 19.7308 17.1074C19.7207 17.4542 19.4324 17.7396 19.0902 17.7419Z" fill="#E65425"/>
<path d="M19.6739 11.0681C19.6739 11.1656 19.6801 11.2639 19.6731 11.3614C19.6489 11.6703 19.4262 11.8944 19.1317 11.9125C18.8285 11.9322 18.5543 11.723 18.5191 11.4085C18.4926 11.1766 18.4926 10.9383 18.5176 10.7064C18.552 10.3903 18.8192 10.1843 19.1278 10.2001C19.4356 10.2158 19.6551 10.4446 19.6739 10.7748C19.6794 10.8723 19.6747 10.9706 19.6747 11.0681H19.6739Z" fill="#E65425"/>
<path d="M25.9374 17.0848C25.9429 17.4056 25.6945 17.6604 25.346 17.6855C25.2585 17.6918 25.171 17.6863 25.0835 17.6863V17.6832C24.9772 17.6832 24.8686 17.6934 24.7639 17.6808C24.4311 17.6415 24.2178 17.3883 24.2327 17.0613C24.2467 16.7507 24.4725 16.5274 24.8007 16.5117C24.9757 16.503 25.1507 16.5054 25.3249 16.5101C25.6796 16.5211 25.9312 16.7601 25.9374 17.0848Z" fill="#E65425"/>
<path d="M19.6614 23.11C19.6614 23.2272 19.6747 23.3467 19.659 23.4615C19.6153 23.7752 19.3497 23.9977 19.0535 23.982C18.752 23.9662 18.5168 23.728 18.5004 23.4088C18.4902 23.224 18.4918 23.0377 18.4988 22.8521C18.5129 22.514 18.7488 22.2703 19.0621 22.2601C19.3747 22.2499 19.6301 22.4842 19.6637 22.8175C19.6731 22.9142 19.6653 23.0125 19.6653 23.11H19.6614Z" fill="#E65425"/>
<path d="M13.5133 17.6366C13.2563 17.6759 12.9867 17.6783 12.7281 17.6507C12.4234 17.6185 12.2211 17.3441 12.2367 17.0524C12.2523 16.7552 12.4726 16.5303 12.7844 16.5028C12.8906 16.4926 12.9984 16.5012 13.1063 16.5012V16.4902C13.2235 16.4957 13.3414 16.4918 13.4571 16.5083C13.736 16.5484 13.9282 16.7701 13.9399 17.0516C13.9524 17.3386 13.7907 17.5941 13.5133 17.6366Z" fill="#E65425"/>
</svg>
