<svg width="40" height="45" viewBox="0 0 40 45" fill="none" xmlns="http://www.w3.org/2000/svg">
<path d="M14.7501 1.3764C10.7717 3.81929 9.23618 10.3802 11.3999 15.6149L12.377 17.988L9.72475 19.1746C5.67654 20.9893 4.3504 22.804 2.04711 29.6441C-0.535369 37.3915 -0.674962 40.6022 1.69813 42.9055L3.37325 44.6504H19.7057H36.0381L37.9226 42.9055C40.3655 40.672 40.2957 37.6009 37.5737 29.5045C35.8985 24.4791 34.9214 22.5946 33.0369 20.9195C31.7107 19.8027 30.0356 18.8256 29.3376 18.8256C27.3833 18.8256 27.2437 18.2672 28.3605 15.1264C29.6168 11.5667 29.198 6.47157 27.4531 3.81929C24.9404 -0.0195312 19.0077 -1.20608 14.7501 1.3764ZM23.7539 4.79644C24.8707 5.91319 25.778 7.51852 25.778 8.28628C25.778 10.3802 25.1498 10.101 24.3123 7.65811C23.3351 5.00583 22.0788 5.00583 19.6359 7.58831C18.5889 8.70506 16.9138 9.82181 15.8669 10.0312C14.0522 10.45 13.9126 10.3104 13.9126 8.42587C13.9126 5.98299 17.3326 2.77234 19.9849 2.77234C20.962 2.77234 22.5674 3.6797 23.7539 4.79644ZM24.9404 13.2418C25.9874 13.87 25.8478 14.1492 23.8237 16.0337C20.8922 18.7558 18.5889 18.7558 15.7971 15.8941L13.5636 13.6606L16.2159 13.1023C17.6816 12.8231 19.5661 12.1251 20.3339 11.5667C21.5902 10.6594 21.9392 10.6594 22.7767 11.4969C23.3351 12.0553 24.3123 12.8231 24.9404 13.2418ZM28.1511 21.8966C31.4315 23.2926 33.0369 25.6657 35.1308 32.5058C36.8757 38.0895 36.9455 38.5781 35.8985 40.1834C35.3402 41.0908 34.2234 41.8585 33.5254 41.8585C32.3389 41.8585 32.1993 41.1606 31.9201 35.0184C31.7805 30.4816 31.3617 27.6898 30.7336 26.9918C29.9658 26.0147 28.2907 25.8053 20.2641 25.8053C7.77045 25.8053 8.04963 25.5959 7.77044 34.809C7.63085 38.7177 7.21207 41.8585 6.79329 41.8585C5.60675 41.8585 3.58264 40.5324 3.16386 39.3458C2.95447 38.7177 3.58264 35.5768 4.55979 32.3662C6.5141 25.8053 9.37577 21.8966 12.377 21.4081C16.9836 20.7101 25.9874 20.9893 28.1511 21.8966ZM28.4303 35.4372L28.6397 41.8585H19.8453H11.1207V35.7164C11.1207 32.2964 11.3301 29.2951 11.6093 29.0159C11.8885 28.8065 15.7273 28.6669 20.1245 28.7367L28.2209 28.9461L28.4303 35.4372Z" fill="#FE4A23"/>
</svg>
