<svg width="31" height="30" viewBox="0 0 31 30" fill="none" xmlns="http://www.w3.org/2000/svg">
<g clip-path="url(#clip0_1625_34879)">
<path d="M29.5996 14.9919C28.7244 15.0227 27.8471 15 26.9295 15V14.6719C26.9295 13.511 26.931 12.3501 26.9288 11.1892C26.9281 10.385 26.5502 10.0078 25.7461 10.0042C25.4854 10.0034 25.224 10.0042 24.9274 10.0042V9.65698C24.9274 8.50562 24.9289 7.35425 24.9267 6.20288C24.9252 5.38184 24.5444 4.99878 23.7308 4.99585C23.3119 4.99438 22.8923 4.99585 22.4265 4.99585C22.4265 4.67578 22.4265 4.36816 22.4258 4.06055C22.4258 3.8562 22.4346 3.65039 22.4199 3.44678C22.3833 2.92163 21.9989 2.5415 21.4731 2.51221C21.2197 2.49756 20.9656 2.50562 20.7122 2.50415C20.461 2.50342 20.2098 2.50415 19.9206 2.50415C19.9206 2.07568 19.8979 1.67725 19.9257 1.2832C19.9682 0.661377 19.7397 0.225586 19.1472 0H6.66859C6.08054 0.25708 5.91065 0.722168 5.91431 1.33887C5.93188 4.1001 5.92236 6.86279 5.92236 9.62476V10.0042H5.57671C4.25928 10.0042 2.94184 10.0034 1.62441 10.0049C1.08543 10.0049 0.927245 10.1638 0.927245 10.7007C0.927245 16.8984 0.92871 23.0955 0.922852 29.2932C0.922852 29.6045 0.997548 29.8455 1.27876 30H25.4744C25.9299 29.8499 26.1621 29.5151 26.3188 29.0735C27.8296 24.8123 29.352 20.5547 30.8723 16.2971C30.8811 16.2722 30.906 16.2524 30.9229 16.2305V15.7617C30.679 15.1648 30.2235 14.9707 29.5996 14.9919ZM24.9494 11.0259H25.9109V14.9854H24.9494V11.0259ZM23.9014 6.02271V14.9919H20.762C21.8898 13.9966 22.4668 12.7852 22.4126 11.3342C22.3577 9.87451 21.7147 8.68213 20.5225 7.83179C18.65 6.49731 16.0078 6.76758 14.4428 8.65649C13.1364 10.2341 12.8823 13.0364 15.0551 14.9729H11.9464V6.02271H23.9014ZM18.5563 13.1206C19.178 13.3718 19.4585 13.79 19.4226 14.4543C19.4175 14.5496 19.3237 14.6968 19.241 14.7224C18.817 14.8528 18.3834 14.9509 17.9316 15.0667C17.4819 14.9531 17.0396 14.8513 16.6054 14.7217C16.5285 14.699 16.4399 14.562 16.434 14.4727C16.3644 13.3674 17.4563 12.676 18.5563 13.1206ZM16.9254 10.9819C16.9349 10.4399 17.3809 10.0071 17.9279 10.0085C18.4794 10.01 18.9129 10.4399 18.9173 10.9893C18.9217 11.5466 18.4684 12.0066 17.9213 12.0015C17.3721 11.9956 16.9151 11.5283 16.9254 10.9819ZM19.353 12.405C19.8129 11.8792 20.0106 11.2852 19.8825 10.6121C19.7851 10.1038 19.5134 9.69507 19.0982 9.38306C18.349 8.81982 17.2469 8.89307 16.5424 9.55518C15.7676 10.2839 15.7412 11.3079 16.4596 12.3735C16.2377 12.6072 15.9851 12.8152 15.8093 13.0752C15.6394 13.3264 15.5479 13.6304 15.4241 13.908C14.188 12.7559 13.9939 10.4399 15.5164 8.96191C16.9225 7.59668 19.2681 7.70068 20.5811 9.22925C21.8934 10.7563 21.5404 12.9097 20.3892 13.927C20.2721 13.2722 19.9264 12.7742 19.353 12.405ZM21.4079 3.52148V4.99585H21.0454C18.0876 4.99585 15.129 4.99438 12.1712 4.99878C11.9779 4.99878 11.7765 5.0105 11.5934 5.06689C11.1555 5.20093 10.9307 5.58325 10.9307 6.15234C10.9292 8.94507 10.9299 11.7378 10.9299 14.5305V14.9868H9.4404V3.52148H21.4079ZM6.94687 1.01001H18.9012V2.50415H9.67474C8.77033 2.50415 8.42615 2.85278 8.42615 3.76465V14.9766H6.94687V1.01001ZM5.89673 11.0142C5.90552 11.0962 5.9209 11.1702 5.9209 11.2441C5.92236 12.4336 5.91724 13.6223 5.92676 14.8118C5.92822 15.019 5.87037 15.0967 5.658 15.126C5.03187 15.2124 4.41013 15.3274 3.75471 15.4365C3.21939 13.9644 2.68919 12.5061 2.14655 11.0142H5.89673ZM1.93052 26.4507V13.4158C1.99496 13.5637 2.03084 13.6333 2.05794 13.7065C2.30326 14.3745 2.54346 15.0447 2.79318 15.7104C2.99896 16.2605 3.37318 16.4905 3.95463 16.4114C4.50314 16.3367 5.04871 16.2385 5.66605 16.1389C4.42624 19.6128 3.20401 23.0361 1.98178 26.4587C1.96494 26.4558 1.94736 26.4529 1.93052 26.4507ZM29.0459 18.4578C27.823 21.8811 26.5971 25.3037 25.3814 28.73C25.3075 28.9387 25.2189 29.0076 24.994 29.0076C17.4768 29.001 9.95888 29.0017 2.44167 29.0017H2.14142C2.22857 28.7571 2.30473 28.5388 2.38235 28.3213C3.8133 24.3098 5.24497 20.2983 6.67152 16.2854C6.74036 16.0913 6.81286 15.9917 7.05159 15.9917C14.5886 15.9998 22.1256 15.9983 29.6633 15.9983H29.9218C29.6201 16.845 29.3337 17.6514 29.0459 18.4578Z" fill="#E65425"/>
<path d="M23.4029 18.7225C23.2374 17.7469 22.519 17.087 21.5319 17.0049C20.667 16.9324 19.7809 17.5455 19.5173 18.3987C19.2485 19.2659 19.5817 20.2833 20.3887 20.667C20.8904 20.9051 20.9826 21.212 20.9211 21.6749C20.9145 21.7225 20.9204 21.7723 20.9204 21.8213C20.916 22.3399 20.7563 22.4988 20.2342 22.4996C18.3895 22.5003 16.5448 22.4996 14.7001 22.4996C14.2995 22.4996 13.8997 22.5054 13.4991 22.4974C13.1256 22.4908 12.9425 22.3062 12.9323 21.9385C12.9264 21.7042 12.9477 21.4683 12.9264 21.2361C12.9045 21.0032 12.9879 20.9036 13.2084 20.8172C14.0447 20.4891 14.5353 19.5853 14.3977 18.6844C14.2592 17.7711 13.4976 17.0738 12.5595 16.9998C11.6705 16.9302 10.8144 17.5074 10.531 18.3687C10.2484 19.2278 10.5633 20.2686 11.3629 20.6495C11.8946 20.9029 11.9993 21.2266 11.9327 21.721C11.9261 21.7686 11.9312 21.8184 11.9319 21.8675C11.9393 22.8936 12.5456 23.4949 13.5789 23.4971C14.692 23.4993 15.8044 23.4979 16.9168 23.4979C16.9168 23.4971 16.9168 23.4964 16.9168 23.4964C18.0885 23.4964 19.2595 23.5066 20.4312 23.4927C21.2492 23.4832 21.8563 22.8943 21.9083 22.0879C21.9266 21.806 21.9354 21.5211 21.9156 21.2398C21.8988 21.0054 21.9822 20.9066 22.2019 20.8209C23.0265 20.5001 23.5465 19.5684 23.4029 18.7225ZM12.416 19.0059C12.0909 19.0132 11.9598 19.2191 11.9173 19.7867C11.6017 19.6746 11.3871 19.2835 11.431 18.8997C11.4852 18.4214 11.8507 18.0545 12.3259 17.9996C12.7653 17.949 13.1974 18.2215 13.3585 18.6507C13.5203 19.0843 13.3768 19.5267 12.9609 19.813C12.8722 19.1949 12.736 18.9979 12.416 19.0059ZM21.9588 19.783C21.8328 19.1663 21.7135 18.9964 21.4132 19.0045C21.1035 19.0132 20.9775 19.2022 20.8947 19.7823C20.5418 19.6065 20.3609 19.1963 20.4524 18.7796C20.5476 18.3438 20.9782 17.9974 21.4242 17.9974C21.8665 17.9966 22.273 18.316 22.3835 18.7518C22.4927 19.1817 22.3242 19.5904 21.9588 19.783Z" fill="#E65425"/>
</g>
<defs>
<clipPath id="clip0_1625_34879">
<rect width="30" height="30" fill="white" transform="translate(0.922852)"/>
</clipPath>
</defs>
</svg>
