<svg width="34" height="39" viewBox="0 0 34 39" fill="none" xmlns="http://www.w3.org/2000/svg">
<path d="M12.8421 0.884445C12.3665 1.30718 11.9966 1.94128 11.9966 2.20548C11.9966 2.46969 11.204 2.68106 10.2529 2.68106C9.3017 2.68106 8.03351 3.05095 7.39941 3.47368C6.44826 4.16062 5.02154 4.58335 3.38345 4.74187C3.17209 4.79472 2.53799 5.27029 1.95673 5.85155C0.952744 6.85554 0.899902 7.59532 0.899902 21.704C0.899902 35.8127 0.952744 36.5525 1.95673 37.5565C2.96072 38.5604 3.7005 38.6133 14.8501 38.6133C28.1661 38.6133 28.6417 38.5076 29.2758 34.8087C29.54 32.9592 29.4872 32.8007 28.2718 32.8007C27.215 32.8007 26.8451 33.1178 26.5809 34.386L26.2638 35.9712L15.0614 35.8655L3.80619 35.707V21.704V7.701L5.18007 7.54247C5.91985 7.43679 6.81815 7.75384 7.24088 8.17657C8.19203 9.39193 21.3496 9.39193 22.882 8.22941C24.203 7.22543 26.0525 7.22543 26.4752 8.28226C26.6337 8.75783 26.7922 11.1357 26.7922 13.6192C26.7922 17.9523 26.8451 18.0579 28.0076 17.8994C29.1173 17.7409 29.1701 17.4767 29.3286 12.6153C29.3815 9.65614 29.223 6.96122 28.9059 6.37996C28.5889 5.85155 27.3735 5.05893 26.1053 4.74187C24.8899 4.37199 23.4104 3.73789 22.8291 3.368C22.2479 2.9981 21.0325 2.68106 20.1342 2.68106C18.9189 2.68106 18.2319 2.31116 17.5978 1.36002C16.5938 -0.172386 14.1103 -0.436592 12.8421 0.884445ZM15.6955 2.94526C15.6955 3.368 15.3256 3.73789 14.9029 3.73789C14.4802 3.73789 14.1103 3.368 14.1103 2.94526C14.1103 2.52253 14.4802 2.15264 14.9029 2.15264C15.3256 2.15264 15.6955 2.52253 15.6955 2.94526Z" fill="#FE4A23"/>
<path d="M6.87161 12.0345C5.92046 12.4043 6.02615 13.6197 7.03013 13.9896C8.08696 14.4123 22.2485 14.4123 23.3053 13.9896C24.415 13.5669 24.415 12.4043 23.3053 11.9816C22.3013 11.6117 7.82276 11.6117 6.87161 12.0345Z" fill="#FE4A23"/>
<path d="M6.28957 16.262C6.44809 17.1074 7.29355 17.2131 14.1101 17.3716C22.4591 17.5302 24.15 17.3188 24.15 16.1563C24.15 15.4693 22.7233 15.3637 15.1141 15.3637C6.81798 15.3637 6.13104 15.4165 6.28957 16.262Z" fill="#FE4A23"/>
<path d="M29.4346 21.6505C27.6909 23.9227 26.9511 24.5568 26.634 24.0284C26.4227 23.6057 25.7357 23.2886 25.2073 23.2886C24.626 23.2886 24.1505 23.0244 24.1505 22.7602C24.1505 22.4432 24.9431 22.2318 25.8942 22.2318C27.4795 22.2318 29.4346 20.9636 29.4346 19.9596C29.4346 19.7482 27.7965 19.5897 25.7357 19.5897C21.2442 19.5897 20.98 19.9596 20.98 25.6136C20.98 30.7921 21.4027 31.2148 26.5812 31.2148C32.1295 31.2148 32.6051 30.845 32.6051 26.9875C32.6051 25.2438 32.4466 23.817 32.2881 23.817C31.654 23.817 30.0159 26.1949 29.963 27.0932C29.963 27.7273 29.5403 28.0444 28.642 28.0444C27.3738 28.0444 27.4795 27.833 30.4915 24.1869C32.2352 22.0204 33.6619 19.9068 33.6619 19.4312C33.6619 17.6346 31.7596 18.6386 29.4346 21.6505ZM25.4187 26.7233C26.2641 27.9915 26.2641 28.0444 25.2073 28.0444C24.4147 28.0444 24.1505 27.6745 24.1505 26.7233C24.1505 25.9835 24.2562 25.4023 24.3618 25.4023C24.4675 25.4023 24.9431 25.9835 25.4187 26.7233Z" fill="#FE4A23"/>
<path d="M6.29023 30C6.44875 30.7926 7.08285 30.9512 10.6761 30.9512C14.2693 30.9512 14.9034 30.7926 15.0619 30C15.2204 29.2074 14.7449 29.1017 10.6761 29.1017C6.60728 29.1017 6.1317 29.2074 6.29023 30Z" fill="#FE4A23"/>
</svg>
