<svg width="42" height="42" viewBox="0 0 42 42" fill="none" xmlns="http://www.w3.org/2000/svg">
<path d="M36.3716 3.38672H20.9966C20.3172 3.3874 19.6658 3.65759 19.1854 4.13801C18.705 4.61842 18.4348 5.26981 18.4341 5.94922V18.7617H5.62158C4.94217 18.7624 4.29079 19.0326 3.81037 19.513C3.32996 19.9934 3.05976 20.6448 3.05908 21.3242V39.2617H38.9341V5.94922C38.9334 5.26981 38.6632 4.61842 38.1828 4.13801C37.7024 3.65759 37.051 3.3874 36.3716 3.38672ZM12.0278 36.6992V27.7305H17.1528V36.6992H12.0278ZM36.3716 36.6992H19.7153V26.4492C19.7153 26.1094 19.5803 25.7835 19.3401 25.5432C19.0998 25.303 18.7739 25.168 18.4341 25.168H10.7466C10.4068 25.168 10.0809 25.303 9.8406 25.5432C9.60032 25.7835 9.46533 26.1094 9.46533 26.4492V36.6992H5.62158V21.3242H20.9966V5.94922H36.3716V36.6992Z" fill="#FE4A23"/>
<path d="M23.5591 11.0742H26.1216V13.6367H23.5591V11.0742ZM31.2466 11.0742H33.8091V13.6367H31.2466V11.0742ZM23.5591 18.7617H26.1216V21.3242H23.5591V18.7617ZM31.2466 18.7617H33.8091V21.3242H31.2466V18.7617ZM23.5591 26.4492H26.1216V29.0117H23.5591V26.4492ZM31.2466 26.4492H33.8091V29.0117H31.2466V26.4492ZM12.0278 16.1992H9.46533C9.46737 14.5008 10.143 12.8725 11.3439 11.6716C12.5449 10.4706 14.1732 9.795 15.8716 9.79297V12.3555C14.8525 12.3565 13.8754 12.7618 13.1548 13.4824C12.4341 14.203 12.0288 15.1801 12.0278 16.1992ZM5.62158 16.1992H3.05908C3.06281 12.8023 4.4139 9.54554 6.8159 7.14353C9.2179 4.74153 12.4746 3.39045 15.8716 3.38672V5.94922C13.1542 5.95261 10.549 7.03361 8.62748 8.95512C6.70597 10.8766 5.62497 13.4818 5.62158 16.1992Z" fill="#FE4A23"/>
</svg>
