<svg width="38" height="43" viewBox="0 0 38 43" fill="none" xmlns="http://www.w3.org/2000/svg">
<path d="M17.8535 1.50804C16.6689 4.79272 16.0766 8.50819 16.6689 9.10051C17.5843 10.0159 18.2843 8.99282 19.1459 5.65428C20.169 1.88497 20.169 0.323394 19.1459 0.323394C18.6612 0.323394 18.1228 0.861868 17.8535 1.50804Z" fill="#FE4A23"/>
<path d="M11.7685 2.90874C10.9069 3.39336 10.2607 4.20107 10.2607 4.6857C10.2607 5.65495 12.4146 7.32422 13.707 7.32422C14.9993 7.32422 15.3224 6.13958 14.2454 5.33187C13.2762 4.63185 13.2762 4.52416 14.1378 4.03953C15.107 3.50106 14.8916 1.93948 13.8147 1.93948C13.4916 1.93948 12.5762 2.37026 11.7685 2.90874Z" fill="#FE4A23"/>
<path d="M21.5684 2.69335C21.5684 3.07028 21.9453 3.71645 22.4299 4.14722C23.1838 4.73955 23.1838 4.84724 22.4299 5.27802C21.2991 5.92419 21.2991 7.32422 22.4299 7.32422C23.6684 7.32422 26.4146 5.6011 26.4146 4.84724C26.4146 3.98568 23.5607 1.93948 22.4299 1.93948C21.9453 1.93948 21.5684 2.26257 21.5684 2.69335Z" fill="#FE4A23"/>
<path d="M14.784 12.762C13.9224 13.0313 12.5762 13.839 11.8224 14.6467C10.6916 15.8313 10.53 16.5313 10.53 19.7622V23.4776H8.80693C6.06071 23.4776 4.39144 24.3392 4.01451 26.0085C3.85297 26.8162 3.09911 28.7008 2.39909 30.2086C1.53753 32.0932 0.999059 34.3548 0.78367 37.5857L0.406738 42.3242H19.0918H37.723V40.5473C37.723 38.3934 36.3768 36.9395 34.3306 36.9395C33.0921 36.9395 32.8767 36.7241 32.8767 35.4318C32.8767 33.0625 31.8536 30.1009 30.5074 28.4854C29.8074 27.6777 29.0535 26.4392 28.892 25.7392C28.4074 24.2854 26.6304 23.4776 23.9919 23.4776C22.2149 23.4776 22.1611 23.4238 22.4842 21.7007C22.6457 20.7853 22.8072 19.8699 22.7534 19.7083C22.6995 17.016 22.4303 16.2082 20.9226 14.6467C18.9302 12.6005 17.261 12.062 14.784 12.762ZM18.9302 15.8852C20.1149 17.1237 20.4918 17.9852 20.4918 19.5468C20.4918 22.5084 19.6302 23.3699 16.5071 23.5315C14.2455 23.693 13.8147 23.5315 13.1686 22.4007C11.9301 20.0853 12.2532 17.6621 13.9763 15.8852C14.8378 15.0236 15.9686 14.3236 16.4533 14.3236C16.9379 14.3236 18.0687 15.0236 18.9302 15.8852ZM26.7381 27.5162C26.4689 28.5931 26.6304 28.9701 27.6535 29.347C28.3535 29.6162 29.2689 30.6393 29.6997 31.6624C30.669 33.924 30.7228 39.6857 29.8074 40.0088C29.3766 40.1703 29.1074 39.7395 29.1074 38.9318C29.1074 36.9395 28.0304 34.2471 27.1689 34.2471C26.7919 34.2471 26.3073 34.8394 26.0919 35.5933L25.7688 36.9395H16.4533H7.13766L6.81457 34.3548C6.49149 31.7163 6.32995 28.7547 6.43764 27.0854C6.49149 26.2239 7.35305 26.17 16.7763 26.17H27.0612L26.7381 27.5162ZM4.2299 37.1549C3.96066 37.478 3.79912 38.2318 3.79912 38.9318C3.79912 39.6319 3.52989 40.1703 3.2068 40.1703C2.66833 40.1703 2.93756 35.5395 3.69143 32.6317C3.96066 31.5547 4.06836 31.824 4.3376 33.9779C4.49914 35.4318 4.44529 36.8856 4.2299 37.1549ZM26.9535 39.6319C26.9535 39.9549 23.0765 40.1703 16.4533 40.1703C9.83003 40.1703 5.95302 39.9549 5.95302 39.6319C5.95302 39.3088 9.83003 39.0934 16.4533 39.0934C23.0765 39.0934 26.9535 39.3088 26.9535 39.6319ZM35.2998 39.6319C35.5152 39.9549 35.0306 40.1703 34.2229 40.1703C33.4152 40.1703 32.9305 39.9549 33.1459 39.6319C33.3075 39.3088 33.7921 39.0934 34.2229 39.0934C34.6537 39.0934 35.1383 39.3088 35.2998 39.6319Z" fill="#FE4A23"/>
<path d="M18.0986 36.6707C16.8806 37.1195 17.0729 38.6579 18.4832 39.1066C20.9832 39.8759 23.0986 37.5041 20.7268 36.6066C19.5729 36.1579 19.2524 36.1579 18.0986 36.6707Z" fill="#FE4A23"/>
<path d="M31.3682 37.8236C31.3682 38.3364 31.9451 38.7852 32.6502 38.7852C33.3553 38.7852 33.9323 38.3364 33.9323 37.8236C33.9323 37.3108 33.3553 36.8621 32.6502 36.8621C31.9451 36.8621 31.3682 37.3108 31.3682 37.8236Z" fill="#FE4A23"/>
</svg>
