<svg width="28" height="28" viewBox="0 0 28 28" fill="none" xmlns="http://www.w3.org/2000/svg">
<path d="M14 0.666656C21.36 0.666656 27.3333 6.63999 27.3333 14C27.3333 21.36 21.36 27.3333 14 27.3333C6.63996 27.3333 0.666626 21.36 0.666626 14C0.666626 6.63999 6.63996 0.666656 14 0.666656ZM14 24.6667C19.8933 24.6667 24.6666 19.8933 24.6666 14C24.6666 8.10666 19.8933 3.33332 14 3.33332C8.10663 3.33332 3.33329 8.10666 3.33329 14C3.33329 19.8933 8.10663 24.6667 14 24.6667ZM18.714 7.40032L20.5996 9.28595L14 15.8856L12.1144 14L18.714 7.40032Z" fill="#6B7385"/>
</svg>
