<svg width="20" height="21" viewBox="0 0 20 21" fill="none" xmlns="http://www.w3.org/2000/svg">
<path d="M12.5002 3.83337C8.81683 3.83337 5.8335 6.81671 5.8335 10.5C5.8335 14.1834 8.81683 17.1667 12.5002 17.1667C16.1835 17.1667 19.1668 14.1834 19.1668 10.5C19.1668 6.81671 16.1835 3.83337 12.5002 3.83337ZM12.5002 15.5C9.74183 15.5 7.50016 13.2584 7.50016 10.5C7.50016 7.74171 9.74183 5.50004 12.5002 5.50004C15.2585 5.50004 17.5002 7.74171 17.5002 10.5C17.5002 13.2584 15.2585 15.5 12.5002 15.5Z" fill="#FF5B37"/>
<path d="M2.50016 10.5C2.50016 8.32505 3.89183 6.47505 5.8335 5.79171V4.05005C2.9585 4.79172 0.833496 7.39171 0.833496 10.5C0.833496 13.6084 2.9585 16.2084 5.8335 16.95V15.2084C3.89183 14.525 2.50016 12.675 2.50016 10.5Z" fill="#FF5B37"/>
</svg>
