<svg width="18" height="17" viewBox="0 0 18 17" fill="none" xmlns="http://www.w3.org/2000/svg">
<path d="M12.4333 1.32505L13.4999 0.0500488L17.3333 3.25838L16.2583 4.53338L12.4333 1.32505ZM0.666584 3.26672L4.49992 0.0500488L5.57492 1.32505L1.74159 4.54172L0.666584 3.26672ZM8.99992 1.83338C13.1416 1.83338 16.4999 5.19172 16.4999 9.33338C16.4999 13.4751 13.1499 16.8334 8.99992 16.8334C4.85825 16.8334 1.49992 13.4751 1.49992 9.33338C1.49992 5.19172 4.85825 1.83338 8.99992 1.83338ZM8.99992 15.1667C12.2249 15.1667 14.8333 12.5584 14.8333 9.33338C14.8333 6.10838 12.2249 3.50005 8.99992 3.50005C5.77492 3.50005 3.16658 6.10838 3.16658 9.33338C3.16658 12.5584 5.77492 15.1667 8.99992 15.1667ZM8.16658 6.00005H9.83325V8.50005H12.3333V10.1667H9.83325V12.6667H8.16658V10.1667H5.66658V8.50005H8.16658V6.00005Z" fill="#FF5B37"/>
</svg>
