<svg width="24" height="25" viewBox="0 0 24 25" fill="none" xmlns="http://www.w3.org/2000/svg">
<path d="M8.49626 21.1667H10.0474L10.5852 17.7912C10.8012 16.43 11.9747 15.4253 13.3545 15.4253H13.8545C16.5322 15.4253 17.915 14.4421 18.4055 11.9224C18.6134 10.8564 18.5222 10.1918 18.2339 9.82047C17.0272 12.8744 14.4449 13.9793 11.2725 13.9793H10.3878C10.004 13.9793 9.59454 14.1889 9.53611 14.5602L8.49626 21.1667ZM3.55247 20.8733C3.21381 20.8733 2.95514 20.5713 3.00781 20.236L5.68247 3.276C5.75314 2.82933 6.13847 2.5 6.59047 2.5H13.0138C15.2265 2.5 16.9558 2.96733 17.9131 4.058C18.783 5.04853 19.0364 6.14237 18.7846 7.75001C19.1438 7.94133 19.4518 8.17467 19.6998 8.456C20.5185 9.38867 20.6785 10.716 20.3685 12.3053C19.6278 16.1107 17.0925 17.4253 13.8545 17.4253H13.3545C12.9591 17.4253 12.6225 17.714 12.5605 18.1047L11.8578 22.488C11.7958 22.8787 11.4591 23.1667 11.0638 23.1667H6.72114C6.42447 23.1667 6.19781 22.902 6.24381 22.6093L6.51781 20.8733H3.55247ZM10.3878 11.9793H11.2725C14.462 11.9793 16.1671 10.7667 16.7549 7.7501C16.7744 7.64856 16.7919 7.54727 16.8086 7.44101C16.9746 6.38187 16.8586 5.88808 16.4104 5.37773C15.9451 4.84763 14.8073 4.5 13.0138 4.5H7.51416L5.24742 18.8733H6.80845L7.53821 14.2452L7.54562 14.2463C7.84632 12.9296 9.0169 11.9793 10.3878 11.9793Z" fill="#E65425"/>
</svg>
