<svg width="61" height="60" viewBox="0 0 61 60" fill="none" xmlns="http://www.w3.org/2000/svg">
<rect x="0.922852" width="60" height="60" rx="10" fill="#FFF6F1"/>
<path d="M39.1334 35.136V28.8L42.9229 25.2L37.8702 20.4L34.0807 24H25.2386V22.8H29.0281V18H18.9229V22.8H22.7123V30H18.9229V34.8H22.7123V40.8H28.1186C28.3391 41.1627 28.6556 41.4643 29.0367 41.6748C29.4179 41.8853 29.8504 41.9974 30.2913 42C30.7354 42.0025 31.1723 41.8938 31.5581 41.6848C31.9439 41.4757 32.2648 41.1738 32.4886 40.8094C32.7124 40.445 32.8311 40.0309 32.8328 39.609C32.8344 39.1872 32.719 38.7723 32.4981 38.4063C32.2772 38.0403 31.9587 37.736 31.5746 37.5243C31.1905 37.3125 30.7544 37.2007 30.3103 37.2C29.8662 37.1994 29.4298 37.31 29.045 37.5206C28.6602 37.7313 28.3407 38.0346 28.1186 38.4H25.2386V34.8H29.0281V30H25.2386V26.4H34.0807L36.6071 28.8V35.124C36.1254 35.3881 35.749 35.7959 35.5362 36.284C35.3234 36.7721 35.286 37.3133 35.43 37.8236C35.5739 38.3339 35.8911 38.7848 36.3323 39.1065C36.7735 39.4281 37.3141 39.6024 37.8702 39.6024C38.4263 39.6024 38.9669 39.4281 39.4081 39.1065C39.8493 38.7848 40.1665 38.3339 40.3105 37.8236C40.4544 37.3133 40.4171 36.7721 40.2042 36.284C39.9914 35.7959 39.615 35.3881 39.1334 35.124V35.136ZM20.186 21.6V19.2H27.765V21.6H20.186ZM30.2913 38.4C30.5411 38.4 30.7853 38.4703 30.993 38.6022C31.2008 38.7341 31.3627 38.9215 31.4583 39.1407C31.5539 39.36 31.5789 39.6013 31.5302 39.8341C31.4814 40.0668 31.3611 40.2807 31.1845 40.4485C31.0078 40.6163 30.7827 40.7306 30.5377 40.7769C30.2927 40.8232 30.0387 40.7994 29.8079 40.7086C29.5771 40.6178 29.3798 40.464 29.241 40.2666C29.1022 40.0693 29.0281 39.8373 29.0281 39.6C29.0281 39.2817 29.1612 38.9765 29.3981 38.7514C29.635 38.5264 29.9563 38.4 30.2913 38.4ZM27.765 31.2V33.6H20.186V31.2H27.765ZM37.8702 22.092L41.1418 25.2L37.8702 28.308L34.5986 25.2L37.8702 22.092ZM37.8702 38.4C37.6204 38.4 37.3762 38.3296 37.1684 38.1977C36.9607 38.0659 36.7988 37.8785 36.7032 37.6592C36.6076 37.4399 36.5826 37.1986 36.6313 36.9659C36.6801 36.7331 36.8004 36.5193 36.977 36.3514C37.1537 36.1836 37.3788 36.0693 37.6238 36.023C37.8688 35.9767 38.1228 36.0005 38.3536 36.0913C38.5844 36.1821 38.7817 36.3359 38.9205 36.5333C39.0593 36.7306 39.1334 36.9626 39.1334 37.2C39.1334 37.5182 39.0003 37.8234 38.7634 38.0485C38.5265 38.2735 38.2052 38.4 37.8702 38.4Z" fill="#FE4A23"/>
</svg>
