<svg width="25" height="26" viewBox="0 0 25 26" fill="none" xmlns="http://www.w3.org/2000/svg">
<path d="M12.5 0.5C10.9132 0.5 9.34188 0.823322 7.87587 1.45151C6.40985 2.07969 5.07779 3.00043 3.95575 4.16117C1.68969 6.50537 0.416626 9.68479 0.416626 13C0.416626 16.3152 1.68969 19.4946 3.95575 21.8388C5.07779 22.9996 6.40985 23.9203 7.87587 24.5485C9.34188 25.1767 10.9132 25.5 12.5 25.5C15.7047 25.5 18.7781 24.183 21.0442 21.8388C23.3102 19.4946 24.5833 16.3152 24.5833 13C24.5833 11.3585 24.2707 9.73303 23.6635 8.21646C23.0563 6.69989 22.1662 5.3219 21.0442 4.16117C19.9221 3.00043 18.5901 2.07969 17.1241 1.45151C15.658 0.823322 14.0868 0.5 12.5 0.5ZM6.54288 20.85C7.06246 19.725 10.2283 18.625 12.5 18.625C14.7716 18.625 17.9375 19.725 18.457 20.85C16.7646 22.245 14.6639 23.0032 12.5 23C10.2525 23 8.18621 22.2 6.54288 20.85ZM20.185 19.0375C18.457 16.8625 14.2641 16.125 12.5 16.125C10.7358 16.125 6.54288 16.8625 4.81496 19.0375C3.52952 17.3058 2.83289 15.1834 2.83329 13C2.83329 7.4875 7.17121 3 12.5 3C17.8287 3 22.1666 7.4875 22.1666 13C22.1666 15.275 21.4175 17.375 20.185 19.0375ZM12.5 5.5C10.1558 5.5 8.27079 7.45 8.27079 9.875C8.27079 12.3 10.1558 14.25 12.5 14.25C14.8441 14.25 16.7291 12.3 16.7291 9.875C16.7291 7.45 14.8441 5.5 12.5 5.5ZM12.5 11.75C12.0193 11.75 11.5582 11.5525 11.2183 11.2008C10.8784 10.8492 10.6875 10.3723 10.6875 9.875C10.6875 9.37772 10.8784 8.90081 11.2183 8.54917C11.5582 8.19754 12.0193 8 12.5 8C12.9807 8 13.4417 8.19754 13.7816 8.54917C14.1215 8.90081 14.3125 9.37772 14.3125 9.875C14.3125 10.3723 14.1215 10.8492 13.7816 11.2008C13.4417 11.5525 12.9807 11.75 12.5 11.75Z" fill="#2E2E2E"/>
</svg>
