<svg width="14" height="12" viewBox="0 0 14 12" fill="none" xmlns="http://www.w3.org/2000/svg">
<path d="M12.3367 2.66667V1.33333H1.67V10.6667H12.3367V9.33333H7.00335C6.63515 9.33333 6.33668 9.03487 6.33668 8.66667V3.33333C6.33668 2.96515 6.63515 2.66667 7.00335 2.66667H12.3367ZM1.00334 0H13.0033C13.3715 0 13.67 0.29848 13.67 0.666667V11.3333C13.67 11.7015 13.3715 12 13.0033 12H1.00334C0.63515 12 0.33667 11.7015 0.33667 11.3333V0.666667C0.33667 0.29848 0.63515 0 1.00334 0ZM7.67002 4V8H12.3367V4H7.67002ZM9.00335 5.33333H11.0033V6.66667H9.00335V5.33333Z" fill="#6B7385"/>
</svg>
