<svg width="14" height="14" viewBox="0 0 14 14" fill="none" xmlns="http://www.w3.org/2000/svg">
<path d="M0.333252 6.99987C0.333252 6.42353 0.406385 5.86427 0.543885 5.33087C1.27073 5.36855 1.99224 5.00677 2.38112 4.33321C2.7697 3.66017 2.72263 2.85514 2.32739 2.24467C3.12228 1.46353 4.11213 0.880145 5.21727 0.574219C5.54805 1.22257 6.22212 1.66655 6.99992 1.66655C7.77772 1.66655 8.45179 1.22257 8.78259 0.574219C9.88772 0.880145 10.8776 1.46353 11.6725 2.24467C11.2772 2.85514 11.2301 3.66017 11.6187 4.33321C12.0076 5.00677 12.7291 5.36855 13.456 5.33087C13.5935 5.86427 13.6666 6.42353 13.6666 6.99987C13.6666 7.5762 13.5935 8.13547 13.456 8.66887C12.7291 8.6312 12.0076 8.993 11.6187 9.66653C11.2301 10.3396 11.2772 11.1446 11.6725 11.7551C10.8776 12.5362 9.88772 13.1196 8.78259 13.4255C8.45179 12.7772 7.77772 12.3332 6.99992 12.3332C6.22212 12.3332 5.54805 12.7772 5.21727 13.4255C4.11213 13.1196 3.12228 12.5362 2.32739 11.7551C2.72263 11.1446 2.7697 10.3396 2.38112 9.66653C1.99224 8.993 1.27073 8.6312 0.543885 8.66887C0.406385 8.13547 0.333252 7.5762 0.333252 6.99987ZM3.53582 8.99987C3.95589 9.72747 4.07631 10.5639 3.91204 11.3491C4.1839 11.5425 4.47329 11.7101 4.77651 11.8494C5.37443 11.3141 6.15939 10.9999 6.99992 10.9999C7.84045 10.9999 8.62539 11.3141 9.22332 11.8494C9.52652 11.7101 9.81592 11.5425 10.0878 11.3491C9.92352 10.5639 10.0439 9.72747 10.4641 8.99987C10.8841 8.27233 11.5483 7.74987 12.3103 7.49953C12.3255 7.33433 12.3333 7.16773 12.3333 6.99987C12.3333 6.83207 12.3255 6.6654 12.3103 6.50027C11.5483 6.24993 10.8841 5.72747 10.4641 4.99988C10.0439 4.2723 9.92352 3.43585 10.0878 2.6507C9.81592 2.45725 9.52652 2.28965 9.22332 2.15035C8.62539 2.68563 7.84045 2.99988 6.99992 2.99988C6.15939 2.99988 5.37443 2.68563 4.77651 2.15035C4.47329 2.28965 4.1839 2.45725 3.91204 2.6507C4.07631 3.43585 3.95589 4.2723 3.53582 4.99988C3.11576 5.72747 2.45161 6.24993 1.68959 6.50027C1.6743 6.6654 1.66659 6.83207 1.66659 6.99987C1.66659 7.16773 1.6743 7.33433 1.68959 7.49953C2.45161 7.74987 3.11576 8.27233 3.53582 8.99987ZM6.99992 8.99987C5.89532 8.99987 4.99992 8.10447 4.99992 6.99987C4.99992 5.89533 5.89532 4.99988 6.99992 4.99988C8.10452 4.99988 8.99992 5.89533 8.99992 6.99987C8.99992 8.10447 8.10452 8.99987 6.99992 8.99987ZM6.99992 7.66653C7.36812 7.66653 7.66659 7.36807 7.66659 6.99987C7.66659 6.63167 7.36812 6.3332 6.99992 6.3332C6.63172 6.3332 6.33325 6.63167 6.33325 6.99987C6.33325 7.36807 6.63172 7.66653 6.99992 7.66653Z" fill="#6B7385"/>
</svg>
