<svg width="31" height="30" viewBox="0 0 31 30" fill="none" xmlns="http://www.w3.org/2000/svg">
<path d="M2.78887 3.86133C2.65997 3.91992 2.47247 4.06055 2.367 4.16602C1.96856 4.58789 1.99786 3.9375 1.99786 13.125C1.99786 22.3125 1.96856 21.6621 2.367 22.084C2.47247 22.1895 2.65997 22.3301 2.78887 22.3887C3.01153 22.4941 3.26348 22.5 7.58184 22.5C10.0838 22.5 12.1346 22.5176 12.1346 22.541C12.1346 22.5703 11.9764 23.1914 11.7947 23.9355L11.4549 25.2832L10.324 25.3125C9.29278 25.3418 9.18731 25.3535 9.11114 25.4531C8.98809 25.623 9.00567 25.9922 9.14629 26.1328C9.26348 26.25 9.33965 26.25 15.1229 26.25C20.9061 26.25 20.9822 26.25 21.0994 26.1328C21.24 25.9922 21.2576 25.623 21.1346 25.4531C21.0584 25.3535 20.9529 25.3418 19.9217 25.3125L18.7908 25.2832L18.451 23.9355C18.2693 23.1914 18.1111 22.5703 18.1111 22.541C18.1111 22.5176 20.1619 22.5 22.6697 22.5C26.9822 22.5 27.2342 22.4941 27.4568 22.3887C27.5857 22.3301 27.7732 22.1895 27.8787 22.084C28.2772 21.6621 28.2479 22.3184 28.2479 13.1133C28.2479 5.11523 28.242 4.76367 28.1365 4.54102C28.0779 4.41211 27.9373 4.22461 27.8318 4.11914C27.41 3.7207 28.4588 3.75 15.1111 3.75C3.4627 3.75 3.01739 3.75586 2.78887 3.86133ZM26.9588 4.75195C27.3279 4.88086 27.3104 4.50586 27.3104 12.2168V19.2188H15.1229H2.93536V12.2227C2.93536 7.16016 2.95294 5.17969 2.99981 5.03906C3.13458 4.66992 2.31426 4.69336 15.0994 4.6875C23.66 4.6875 26.8182 4.70508 26.9588 4.75195ZM27.3104 20.5957C27.3104 21.1523 27.2107 21.4043 26.9588 21.498C26.6834 21.5918 3.56231 21.5918 3.28692 21.498C3.03497 21.4043 2.93536 21.1523 2.93536 20.5957V20.1562H15.1229H27.3104V20.5957ZM17.4197 23.877C17.6014 24.6152 17.7596 25.2422 17.7596 25.2656C17.7596 25.2949 16.576 25.3125 15.1229 25.3125C13.6756 25.3125 12.4861 25.3008 12.4861 25.2832C12.4861 25.2422 13.1248 22.6699 13.16 22.5703C13.1834 22.5117 13.6053 22.5 15.1346 22.5117L17.0799 22.5293L17.4197 23.877Z" fill="#E65425"/>
<path d="M8.67754 8.56641C8.00957 8.81836 7.49395 9.33984 7.25957 10.002C7.1541 10.3008 7.14825 10.4707 7.16582 12.2988L7.1834 14.2676L7.35332 14.6191C7.58184 15.082 7.99785 15.4922 8.49004 15.7207C8.85918 15.8965 8.92364 15.9082 9.52715 15.9082C10.1307 15.9082 10.1951 15.8965 10.5701 15.7207C11.4549 15.2988 12.1287 14.1738 11.7244 13.7695C11.4197 13.4648 11.074 13.5762 10.8455 14.0449C10.5584 14.6426 10.1131 14.9473 9.52715 14.9473C9.12285 14.9473 8.76543 14.7891 8.4959 14.4902C8.13848 14.0977 8.1209 13.9863 8.1209 12.1875C8.1209 10.3887 8.13848 10.2773 8.4959 9.88477C9.05254 9.26367 10.0018 9.26953 10.5643 9.89062C10.6814 10.0195 10.8104 10.2363 10.8514 10.3652C10.9451 10.6816 11.0975 10.8105 11.3787 10.8105C11.9705 10.8105 12.0174 10.166 11.4783 9.39258C11.2498 9.05859 10.7635 8.70117 10.3475 8.55469C9.87871 8.39648 9.12285 8.39648 8.67754 8.56641Z" fill="#E65425"/>
<path d="M14.7713 9.96094C14.6658 10.0664 14.6541 10.1543 14.6541 10.8984V11.7188H13.8338C13.0897 11.7188 13.0018 11.7305 12.8963 11.8359C12.8201 11.9121 12.7791 12.0293 12.7791 12.1875C12.7791 12.3457 12.8201 12.4629 12.8963 12.5391C13.0018 12.6445 13.0897 12.6562 13.8338 12.6562H14.6541V13.4766C14.6541 14.2207 14.6658 14.3086 14.7713 14.4141C14.8475 14.4902 14.9647 14.5312 15.1229 14.5312C15.2811 14.5312 15.3983 14.4902 15.4744 14.4141C15.5799 14.3086 15.5916 14.2207 15.5916 13.4766V12.6562H16.4119C17.1561 12.6562 17.244 12.6445 17.3494 12.5391C17.4256 12.4629 17.4666 12.3457 17.4666 12.1875C17.4666 12.0293 17.4256 11.9121 17.3494 11.8359C17.244 11.7305 17.1561 11.7188 16.4119 11.7188H15.5916V10.8984C15.5916 10.1543 15.5799 10.0664 15.4744 9.96094C15.3983 9.88477 15.2811 9.84375 15.1229 9.84375C14.9647 9.84375 14.8475 9.88477 14.7713 9.96094Z" fill="#E65425"/>
<path d="M20.3963 9.96094C20.2908 10.0664 20.2791 10.1543 20.2791 10.8984V11.7188H19.4588C18.7147 11.7188 18.6268 11.7305 18.5213 11.8359C18.4451 11.9121 18.4041 12.0293 18.4041 12.1875C18.4041 12.3457 18.4451 12.4629 18.5213 12.5391C18.6268 12.6445 18.7147 12.6562 19.4588 12.6562H20.2791V13.4766C20.2791 14.2207 20.2908 14.3086 20.3963 14.4141C20.4725 14.4902 20.5897 14.5312 20.7479 14.5312C20.9061 14.5312 21.0233 14.4902 21.0994 14.4141C21.2049 14.3086 21.2166 14.2207 21.2166 13.4766V12.6562H22.0369C22.7811 12.6562 22.869 12.6445 22.9744 12.5391C23.0506 12.4629 23.0916 12.3457 23.0916 12.1875C23.0916 12.0293 23.0506 11.9121 22.9744 11.8359C22.869 11.7305 22.7811 11.7188 22.0369 11.7188H21.2166V10.8984C21.2166 10.1543 21.2049 10.0664 21.0994 9.96094C21.0233 9.88477 20.9061 9.84375 20.7479 9.84375C20.5897 9.84375 20.4725 9.88477 20.3963 9.96094Z" fill="#E65425"/>
</svg>
