<svg width="31" height="30" viewBox="0 0 31 30" fill="none" xmlns="http://www.w3.org/2000/svg">
<g clip-path="url(#clip0_2003_35481)">
<path d="M23.7393 0.107422C23.3584 0.242188 22.8838 0.546875 22.6787 0.787109C22.585 0.892578 22.0811 1.625 21.5479 2.42188L20.5811 3.86328L12.3779 3.88086L4.17481 3.89844L3.87012 4.02148C3.14356 4.32031 2.61621 4.91211 2.42285 5.63867C2.3291 5.97852 2.32324 6.69336 2.34082 14.0059L2.3584 22.0039L2.5459 22.3965C2.78613 22.9121 3.20801 23.334 3.72363 23.5742L4.11621 23.7617L8.99707 23.7793C12.8174 23.791 13.8779 23.8086 13.8604 23.8672C13.8486 23.9023 13.6904 24.5469 13.5147 25.2969L13.1982 26.6504L12.2022 26.6738C11.2529 26.6914 11.1943 26.6973 10.9072 26.8496C10.5322 27.0488 10.1572 27.4648 10.04 27.8164C9.98731 27.9688 9.94629 28.2559 9.94629 28.4609V28.8301H8.89746C7.86621 28.8301 7.83692 28.8359 7.67871 28.9707C7.53809 29.0938 7.51465 29.1582 7.51465 29.416C7.51465 29.6738 7.53809 29.7383 7.67871 29.8613L7.84278 30.002H15.9229H24.0029L24.167 29.8613C24.3076 29.7383 24.3311 29.6738 24.3311 29.416C24.3311 29.1582 24.3076 29.0938 24.167 28.9707C24.0088 28.8359 23.9795 28.8301 22.9482 28.8301H21.8994V28.4609C21.8994 28.2559 21.8584 27.9688 21.8057 27.8164C21.6885 27.4648 21.3135 27.0488 20.9385 26.8496C20.6514 26.6973 20.5928 26.6914 19.6436 26.6738L18.6475 26.6504L18.3311 25.2969C18.1553 24.5469 17.9971 23.9023 17.9854 23.8672C17.9678 23.8086 19.0283 23.791 22.8486 23.7793L27.7295 23.7617L28.1221 23.5742C28.6377 23.334 29.0596 22.9121 29.2998 22.3965L29.4873 22.0039L29.5049 14.0059C29.5225 5.05859 29.5459 5.61523 29.1064 4.93555C28.7139 4.32617 28.04 3.94531 27.2549 3.88672L26.8389 3.85156L26.9443 3.63477C27.2783 2.94922 27.2373 2.00586 26.8389 1.2793C26.6221 0.880859 26.1299 0.441406 25.667 0.21875C25.3096 0.0546875 25.2041 0.03125 24.6533 0.0195312C24.1729 0.00195312 23.9736 0.0253906 23.7393 0.107422ZM25.0869 1.31445C25.6201 1.53711 25.9834 2.12891 25.9248 2.68555C25.9072 2.85547 25.8428 3.08398 25.7783 3.18945C25.7197 3.28906 24.7764 4.46094 23.6924 5.78516L21.7119 8.19922L20.8857 7.57812C20.4287 7.23242 20.0596 6.93359 20.0713 6.9043C20.0772 6.875 20.874 5.66797 21.8408 4.2207C23.5166 1.71289 23.6162 1.57812 23.9092 1.4082C24.1494 1.26758 24.2842 1.23242 24.5537 1.23242C24.7412 1.23242 24.9756 1.26758 25.0869 1.31445ZM19.6963 5.16992C19.6729 5.21094 19.0752 6.10742 18.3721 7.16211C16.96 9.28906 17.1533 9.08984 16.3857 9.17188C15.8936 9.22461 15.126 9.51758 14.6748 9.82227C13.9951 10.291 13.4971 11.0293 13.2451 11.9551C13.1162 12.418 13.0986 14.2344 13.2158 14.7969C13.5264 16.2676 13.6143 16.4375 14.0713 16.4375C14.2764 16.4375 14.3818 16.3906 14.6397 16.1914C15.2783 15.6992 15.3486 15.6816 17.0361 15.6465C18.4014 15.6113 18.5596 15.5996 18.8643 15.4766C19.5967 15.1895 20.2061 14.5566 20.4932 13.7832C20.6631 13.3438 20.71 12.5293 20.5986 12.0078L20.5166 11.627L23.1885 8.36328L25.8545 5.10547L26.5928 5.09961C27.2959 5.09961 27.3545 5.11133 27.6475 5.26367C27.8994 5.39258 27.9932 5.48633 28.1221 5.73828L28.2861 6.04883V11.7559V17.4629H18.9639H9.6416L9.47168 17.6328C9.33692 17.7676 9.30176 17.8555 9.30176 18.0488C9.30176 18.3535 9.37793 18.4941 9.59473 18.6055C9.74121 18.6816 10.8779 18.6934 19.0283 18.6934H28.292L28.2744 20.2402L28.2568 21.7871L28.0811 22.0391C27.9873 22.1738 27.7881 22.3496 27.6475 22.4258L27.3897 22.5605H15.9229H4.45606L4.19824 22.4258C4.05762 22.3496 3.86426 22.1738 3.76465 22.0391L3.58887 21.7871L3.57129 20.2402L3.55371 18.6934H4.43848C5.60449 18.6934 5.78613 18.6055 5.78613 18.0488C5.78613 17.8555 5.75098 17.7676 5.61621 17.6328L5.44629 17.4629H4.50293H3.55957V11.7852C3.55957 7.60156 3.57715 6.06055 3.62988 5.91406C3.73535 5.59766 3.91113 5.4043 4.22754 5.24609L4.52051 5.09961H12.1318C18.2022 5.09961 19.7314 5.11719 19.6963 5.16992ZM20.8037 9.08398C20.9033 9.17773 20.8799 9.21289 20.3057 9.91602L19.6963 10.6484L19.0283 10.1621C18.665 9.89258 18.3369 9.64648 18.3076 9.61719C18.2783 9.58789 18.4775 9.24805 18.7998 8.77344L19.3389 7.98242L20.0186 8.48633C20.3936 8.76172 20.7451 9.03125 20.8037 9.08398ZM18.249 11.1406C19.292 11.9141 19.3096 11.9316 19.374 12.207C19.5322 12.8867 19.3799 13.5078 18.9639 13.9297C18.5361 14.3691 18.4775 14.3809 16.8311 14.4219C15.4482 14.457 15.3428 14.4629 14.9326 14.6094C14.6924 14.6973 14.4873 14.7559 14.4814 14.75C14.4287 14.6973 14.3408 13.7891 14.3408 13.3496C14.3467 11.8906 14.8857 10.9531 15.9639 10.5488C16.3154 10.4199 16.8604 10.3145 17.0713 10.3379C17.1416 10.3496 17.6689 10.707 18.249 11.1406ZM17.0068 25.0801C17.1709 25.7715 17.3232 26.4102 17.3467 26.498L17.3877 26.6621H15.9229C14.5459 26.6621 14.4522 26.6562 14.4814 26.5566C14.499 26.5039 14.6455 25.8887 14.8096 25.1973C14.9736 24.5059 15.1201 23.9023 15.1318 23.8613C15.1553 23.8027 15.3428 23.791 15.9346 23.8027L16.708 23.8203L17.0068 25.0801ZM20.499 28.0625C20.6397 28.209 20.6689 28.2793 20.6689 28.5312V28.8301H15.9229H11.1768V28.5312C11.1768 28.2793 11.2061 28.209 11.3467 28.0625L11.5166 27.8926H15.9229H20.3291L20.499 28.0625Z" fill="#E65425"/>
<path d="M7.12793 17.6328C6.99316 17.7676 6.95801 17.8555 6.95801 18.0488C6.95801 18.1836 6.9873 18.3418 7.0166 18.4062C7.09277 18.541 7.37402 18.6934 7.55566 18.6934C7.78418 18.6934 8.05957 18.4824 8.11816 18.2715C8.28223 17.6445 7.5791 17.1875 7.12793 17.6328Z" fill="#E65425"/>
</g>
<defs>
<clipPath id="clip0_2003_35481">
<rect width="30" height="30" fill="white" transform="translate(0.922852 0.00195312)"/>
</clipPath>
</defs>
</svg>
