<svg width="31" height="30" viewBox="0 0 31 30" fill="none" xmlns="http://www.w3.org/2000/svg">
<path d="M12.2776 0.585938C10.842 0.966797 9.64673 2.16797 9.27759 3.60938C9.19556 3.91992 9.1604 4.25977 9.1604 4.6875C9.1604 5.90625 9.54126 6.82617 10.3909 7.67578C11.2405 8.52539 12.1604 8.90625 13.3792 8.90625C14.5979 8.90625 15.5178 8.52539 16.3674 7.67578C17.217 6.82617 17.5979 5.90625 17.5979 4.6875C17.5979 4.25977 17.5627 3.91992 17.4807 3.60938C17.1116 2.15625 15.9104 0.955079 14.4573 0.585938C13.8538 0.427735 12.8752 0.433595 12.2776 0.585938ZM14.4631 1.62891C15.4827 2.00391 16.3147 2.94727 16.5432 3.99023C16.6487 4.45898 16.5901 5.33203 16.4377 5.77148C16.0686 6.78516 15.1194 7.62305 14.0764 7.85156C13.6077 7.95703 12.7346 7.89844 12.2952 7.74609C11.2815 7.37695 10.4436 6.42773 10.2151 5.38477C10.1096 4.91602 10.1682 4.04297 10.3206 3.60352C10.6721 2.63672 11.5393 1.83398 12.5413 1.54688C12.9749 1.42383 14.0237 1.4707 14.4631 1.62891Z" fill="#E65425"/>
<path d="M12.0901 2.92975C11.9788 3.04108 11.9729 3.12311 11.9729 4.68756C11.9729 6.9903 11.8733 6.93756 14.1351 5.8067C14.9671 5.38483 15.6643 5.00397 15.6878 4.95123C15.7347 4.82819 15.7347 4.54694 15.6878 4.42389C15.6643 4.37116 14.9671 3.9903 14.1351 3.56842C12.5237 2.76569 12.3186 2.70123 12.0901 2.92975ZM13.5257 4.37702C13.8304 4.52936 14.0823 4.66998 14.0823 4.68756C14.0823 4.71686 12.9983 5.2735 12.9397 5.2735C12.9222 5.2735 12.9104 5.00983 12.9104 4.68756C12.9104 4.3653 12.9222 4.10162 12.9397 4.10162C12.9573 4.10162 13.221 4.22467 13.5257 4.37702Z" fill="#E65425"/>
<path d="M22.1389 1.04879C22.01 1.10738 21.8225 1.24801 21.717 1.35348C21.4065 1.68746 21.3479 1.8984 21.3479 2.75387C21.3479 3.43941 21.3596 3.5273 21.4651 3.63277C21.5413 3.70895 21.6584 3.74996 21.8167 3.74996C22.2092 3.74996 22.2854 3.62105 22.2854 2.95895C22.2854 2.2734 22.3674 2.03316 22.637 1.93941C22.9065 1.84566 28.2268 1.84566 28.4963 1.93941C28.842 2.06246 28.8479 2.09762 28.8479 5.15621C28.8479 8.2148 28.842 8.24996 28.4963 8.37301C28.2268 8.46676 22.9065 8.46676 22.637 8.37301C22.3147 8.25582 22.2854 8.10348 22.2854 6.41598C22.2854 4.99801 22.2795 4.91598 22.1682 4.80465C22.092 4.72848 21.9749 4.68746 21.8167 4.68746C21.6584 4.68746 21.5413 4.72848 21.4651 4.80465C21.3538 4.91598 21.3479 4.99801 21.3479 6.63277C21.3479 8.54879 21.3655 8.62496 21.7639 9.00582C22.1624 9.38668 22.0745 9.37496 25.5784 9.37496C29.1292 9.37496 29.012 9.38668 29.4163 8.95894C29.7913 8.56051 29.7854 8.6484 29.7854 5.15621C29.7854 1.66402 29.7913 1.75191 29.4163 1.35348C29.012 0.925742 29.1292 0.937461 25.5667 0.937461C22.5784 0.937461 22.3557 0.94918 22.1389 1.04879Z" fill="#E65425"/>
<path d="M25.4202 2.92383C25.1331 3.05859 24.8401 3.35742 24.7229 3.64453C24.6643 3.77344 24.6292 4.03711 24.6292 4.27734V4.6875H24.2776C23.8381 4.6875 23.6917 4.80469 23.6917 5.15625C23.6917 5.50781 23.8381 5.625 24.2776 5.625H24.6292V6.44531C24.6292 7.18945 24.6409 7.27734 24.7463 7.38281C24.8225 7.45898 24.9397 7.5 25.0979 7.5C25.2561 7.5 25.3733 7.45898 25.4495 7.38281C25.5549 7.27734 25.5667 7.18945 25.5667 6.44531V5.625H25.9182C26.3577 5.625 26.5042 5.50781 26.5042 5.15625C26.5042 4.80469 26.3577 4.6875 25.9182 4.6875H25.5667V4.48242C25.5667 4.14844 25.7014 3.89062 25.9182 3.81445C26.0237 3.7793 26.3577 3.75 26.6565 3.75C27.3127 3.75 27.4417 3.67383 27.4417 3.28125C27.4417 3.12305 27.4006 3.00586 27.3245 2.92969C27.219 2.82422 27.1311 2.8125 26.4338 2.8125C25.801 2.8125 25.6135 2.83594 25.4202 2.92383Z" fill="#E65425"/>
<path d="M1.77759 5.27344C1.6604 5.39062 1.6604 5.4668 1.6604 9.375C1.6604 13.2832 1.6604 13.3594 1.77759 13.4766C1.88892 13.5879 1.97095 13.5938 4.94165 13.5938C7.91235 13.5938 7.99438 13.5879 8.10571 13.4766C8.2229 13.3594 8.2229 13.2832 8.2229 9.375C8.2229 5.4668 8.2229 5.39062 8.10571 5.27344C7.99438 5.16211 7.91235 5.15625 4.94165 5.15625C1.97095 5.15625 1.88892 5.16211 1.77759 5.27344ZM7.2854 9.375V12.6562H4.94165H2.5979V9.375V6.09375H4.94165H7.2854V9.375Z" fill="#E65425"/>
<path d="M4.59009 7.14844C4.51392 7.22461 4.4729 7.3418 4.4729 7.5C4.4729 7.91016 4.59009 7.96875 5.4104 7.96875C6.23071 7.96875 6.3479 7.91016 6.3479 7.5C6.3479 7.08984 6.23071 7.03125 5.4104 7.03125C4.78345 7.03125 4.69556 7.04297 4.59009 7.14844Z" fill="#E65425"/>
<path d="M3.65259 9.02344C3.57642 9.09961 3.5354 9.2168 3.5354 9.375C3.5354 9.5332 3.57642 9.65039 3.65259 9.72656C3.76392 9.83789 3.84595 9.84375 4.94165 9.84375C6.03735 9.84375 6.11938 9.83789 6.23071 9.72656C6.30688 9.65039 6.3479 9.5332 6.3479 9.375C6.3479 9.2168 6.30688 9.09961 6.23071 9.02344C6.11938 8.91211 6.03735 8.90625 4.94165 8.90625C3.84595 8.90625 3.76392 8.91211 3.65259 9.02344Z" fill="#E65425"/>
<path d="M3.65259 10.8984C3.57642 10.9746 3.5354 11.0918 3.5354 11.25C3.5354 11.4082 3.57642 11.5254 3.65259 11.6016C3.76392 11.7129 3.84595 11.7188 4.94165 11.7188C6.03735 11.7188 6.11938 11.7129 6.23071 11.6016C6.30688 11.5254 6.3479 11.4082 6.3479 11.25C6.3479 11.0918 6.30688 10.9746 6.23071 10.8984C6.11938 10.7871 6.03735 10.7812 4.94165 10.7812C3.84595 10.7812 3.76392 10.7871 3.65259 10.8984Z" fill="#E65425"/>
<path d="M19.1975 8.01562C19.1565 8.03906 18.7815 8.51953 18.3596 9.08203C17.6917 9.97266 17.5979 10.125 17.5979 10.3242C17.5979 10.6172 17.762 10.7812 18.0549 10.7812C18.1721 10.7812 18.301 10.7578 18.342 10.7344C18.3831 10.7109 18.7581 10.2305 19.1799 9.66797C19.8479 8.77734 19.9417 8.625 19.9417 8.42578C19.9417 8.13281 19.7776 7.96875 19.4905 7.96875C19.3674 7.96875 19.2385 7.99219 19.1975 8.01562Z" fill="#E65425"/>
<path d="M20.1174 11.0742C19.5549 11.4961 19.0745 11.8711 19.051 11.9121C19.0276 11.9531 19.0042 12.082 19.0042 12.1992C19.0042 12.4922 19.1682 12.6562 19.4612 12.6562C19.6604 12.6562 19.8127 12.5625 20.7034 11.8945C21.2659 11.4727 21.7463 11.0977 21.7698 11.0566C21.7932 11.0156 21.8167 10.8867 21.8167 10.7637C21.8167 10.4766 21.6526 10.3125 21.3596 10.3125C21.1604 10.3125 21.0081 10.4062 20.1174 11.0742Z" fill="#E65425"/>
<path d="M12.2893 13.5299C8.98462 16.2545 8.94946 16.2838 7.90063 16.8873C6.71704 17.567 6.50024 17.7311 6.25415 18.1764C6.10181 18.4576 6.08423 18.5396 6.08423 19.026V19.565L5.80884 19.7174C5.24634 20.0221 4.94751 20.4732 4.94165 21.0064C4.94165 21.4986 5.04126 21.7389 5.37524 22.067C5.88501 22.565 6.48267 22.6236 7.16821 22.2604L7.51392 22.0787L7.67798 22.1959C8.35181 22.6646 9.07251 22.7115 9.82837 22.3248C10.0979 22.19 10.1916 22.1666 10.2268 22.2193C10.2561 22.2604 10.467 22.6236 10.6956 23.0279C10.9299 23.4322 11.2229 23.8717 11.3459 24.0064C12.1428 24.8736 13.6252 24.3521 13.7717 23.1568C13.8186 22.7584 13.7307 22.524 13.2268 21.6393C12.9807 21.2057 12.7932 20.8424 12.8049 20.8307C12.8108 20.8189 14.3987 20.2213 16.3264 19.4947C18.2541 18.7682 19.8831 18.1295 19.9475 18.0768C20.1995 17.8424 20.1291 17.6783 18.8811 15.4986C18.2366 14.3678 17.6389 13.3893 17.5627 13.3131C17.3752 13.149 17.1174 13.149 16.9241 13.3189C16.6194 13.5768 16.6663 13.6939 17.803 15.6686C18.3772 16.6588 18.8342 17.4732 18.8225 17.485C18.7874 17.5143 11.4104 20.274 11.3694 20.274C11.3459 20.274 10.8186 20.5611 10.2034 20.9186C9.27759 21.4518 9.04321 21.5631 8.84399 21.5631C8.55688 21.5631 8.29321 21.4107 8.09399 21.1412C7.85376 20.8189 7.10962 19.4889 7.05103 19.2779C6.98071 19.0436 7.05688 18.7271 7.22681 18.5279C7.34985 18.3756 8.99048 17.3971 9.04907 17.4381C9.07251 17.4498 9.3479 17.9127 9.66431 18.4635C9.97485 19.0084 10.2913 19.5006 10.3557 19.5475C10.5022 19.6471 10.7952 19.6529 10.9241 19.5533C11.0413 19.4596 11.1526 19.2545 11.1526 19.1197C11.1526 19.0611 10.8713 18.5279 10.5315 17.942C10.1916 17.3502 9.92212 16.8463 9.93384 16.817C9.94556 16.7936 11.2522 15.7037 12.8342 14.3912C15.5881 12.1236 15.7229 12.024 15.7874 12.1471C15.9924 12.5396 16.3733 12.6627 16.6663 12.4283C16.8948 12.2467 16.8479 11.9479 16.5198 11.3795C16.2151 10.858 16.1272 10.7818 15.8225 10.7818C15.6467 10.7818 15.2483 11.0924 12.2893 13.5299ZM6.78149 20.9303L6.9397 21.2115L6.74634 21.3287C6.44165 21.5162 6.30103 21.5338 6.12524 21.4049C5.9436 21.2701 5.88501 20.9654 6.00806 20.8189C6.04907 20.7662 6.17212 20.6666 6.28931 20.5963C6.52368 20.4498 6.48853 20.4264 6.78149 20.9303ZM12.3713 22.1959C12.5999 22.6002 12.7932 22.9811 12.7932 23.0396C12.7932 23.1979 12.5295 23.4381 12.3655 23.4381C12.1311 23.4381 11.9963 23.2799 11.5159 22.4361L11.053 21.6334L11.4104 21.4283C11.8323 21.1822 11.7327 21.1002 12.3713 22.1959Z" fill="#E65425"/>
<path d="M22.1682 13.2773C21.635 13.3828 21.0608 13.5059 20.8909 13.541C20.4924 13.623 20.3518 13.7578 20.3518 14.0625C20.3518 14.3906 20.5042 14.5312 20.8674 14.5312C21.0256 14.5312 21.676 14.4258 22.3206 14.2969C23.6272 14.0332 23.7209 13.9863 23.7209 13.5938C23.7209 13.3184 23.5745 13.1426 23.3108 13.1016C23.2112 13.084 22.7014 13.166 22.1682 13.2773Z" fill="#E65425"/>
<path d="M3.18384 15.1172C3.06665 15.2344 3.06665 15.3105 3.06665 20.2734V25.3125H2.48071C1.6311 25.3125 1.64282 25.2949 1.67212 26.4727C1.6897 27.3516 1.69556 27.4102 1.85962 27.7441C2.08228 28.1953 2.52759 28.6406 2.97876 28.8633L3.33032 29.0332H10.0979H16.8655L17.217 28.8633C17.6682 28.6406 18.1135 28.1953 18.3362 27.7441C18.5002 27.4102 18.5061 27.3516 18.5237 26.4727C18.553 25.2949 18.5647 25.3125 17.7151 25.3125H17.1292V22.8867V20.4551L16.9768 20.3379C16.7776 20.1797 16.5432 20.1797 16.344 20.3379L16.1917 20.4551V22.8867V25.3125H10.0979H4.00415V20.625V15.9375H6.07837H8.15845L8.27564 15.7852C8.43384 15.5859 8.43384 15.3516 8.27564 15.1523L8.15845 15H5.72681C3.3772 15 3.29517 15.0059 3.18384 15.1172ZM17.5745 26.6426C17.5276 27.123 17.387 27.4453 17.1233 27.6973C16.8245 27.9785 16.5315 28.0781 15.8577 28.1133L15.2542 28.1426V27.7793C15.2542 27.334 15.137 27.1875 14.7854 27.1875C14.4338 27.1875 14.3167 27.334 14.3167 27.7734V28.125H10.0979H5.87915V27.7734C5.87915 27.334 5.76196 27.1875 5.4104 27.1875C5.05884 27.1875 4.94165 27.334 4.94165 27.7793V28.1426L4.33814 28.1133C3.20142 28.0547 2.72681 27.6445 2.62134 26.6426L2.58032 26.25H10.0979H17.6155L17.5745 26.6426Z" fill="#E65425"/>
<path d="M22.139 15.58C22.01 15.6386 21.8225 15.7793 21.7171 15.8847C21.3362 16.2832 21.3479 16.1953 21.3479 19.6992C21.3479 23.25 21.3362 23.1328 21.764 23.5371C22.1624 23.9179 22.0745 23.9062 25.5784 23.9062C29.1292 23.9062 29.012 23.9179 29.4163 23.4902C29.7268 23.1562 29.7854 22.9453 29.7854 22.0898C29.7854 21.4043 29.7737 21.3164 29.6683 21.2109C29.51 21.0527 29.1233 21.0527 28.9651 21.2109C28.8655 21.3105 28.8479 21.4043 28.8479 21.8847C28.8479 22.5703 28.7659 22.8105 28.4964 22.9043C28.2268 22.998 22.9065 22.998 22.637 22.9043C22.2913 22.7812 22.2854 22.7461 22.2854 19.6875C22.2854 16.6289 22.2913 16.5937 22.637 16.4707C22.9065 16.3769 28.2268 16.3769 28.4964 16.4707C28.8186 16.5879 28.8479 16.7402 28.8479 18.4277C28.8479 19.8457 28.8538 19.9277 28.9651 20.039C29.0413 20.1152 29.1585 20.1562 29.3167 20.1562C29.4749 20.1562 29.5921 20.1152 29.6683 20.039C29.7796 19.9277 29.7854 19.8457 29.7854 18.2226C29.7854 16.3418 29.7737 16.2597 29.4163 15.8847C29.012 15.457 29.1292 15.4687 25.5667 15.4687C22.5784 15.4687 22.3558 15.4804 22.139 15.58Z" fill="#E65425"/>
<path d="M24.8167 17.9352C23.6214 18.3981 23.2933 20.1032 24.219 21.0349C25.1565 21.9665 26.8675 21.6325 27.3186 20.4196C27.6936 19.4177 27.2249 18.2809 26.2991 17.9352C25.8655 17.7712 25.2444 17.7712 24.8167 17.9352ZM26.0237 18.9255C26.7854 19.3884 26.4573 20.5661 25.5667 20.5661C24.6761 20.5661 24.3479 19.3884 25.1097 18.9255C25.3616 18.7731 25.7718 18.7731 26.0237 18.9255Z" fill="#E65425"/>
</svg>
