<svg width="31" height="30" viewBox="0 0 31 30" fill="none" xmlns="http://www.w3.org/2000/svg">
<g clip-path="url(#clip0_2003_35542)">
<path d="M1.1424 0.111084C0.790833 0.269287 0.445129 0.603271 0.275208 0.954834L0.122864 1.25366V14.9939C0.122864 28.2302 0.128723 28.7517 0.234192 28.9802C0.380676 29.3025 0.673645 29.6189 0.995911 29.8123L1.26544 29.9705L8.64825 29.988C13.9803 29.9998 16.0955 29.988 16.2713 29.9353C16.6287 29.8416 17.0447 29.49 17.2557 29.1208L17.4373 28.7986L17.4549 25.8572L17.4725 22.9099L18.3455 23.3494C18.826 23.5896 19.3123 23.8708 19.4236 23.9705C19.5408 24.0701 19.7635 24.3689 19.9276 24.6384C20.3846 25.3943 20.9588 25.8455 21.7147 26.0447C22.1131 26.1443 22.8221 26.156 23.2088 26.0681C23.5018 26.0037 26.3963 24.5271 26.5604 24.363C26.701 24.2224 26.6951 23.9001 26.5545 23.7244C26.3553 23.4724 26.1561 23.5369 24.6912 24.3044C23.1209 25.1365 22.9686 25.1951 22.4705 25.1951C21.7147 25.1951 21.1697 24.8435 20.6893 24.0525C20.3084 23.4197 19.91 23.0681 19.1483 22.6931C15.369 20.8181 12.6151 19.4412 12.5389 19.3767C12.0584 19.0076 12.0936 18.1638 12.6033 17.7302C13.0428 17.3611 13.3006 17.4197 14.8592 18.2458C15.6092 18.6384 16.2186 18.9255 16.3123 18.9255C16.5174 18.9255 16.7635 18.6912 16.7635 18.4861C16.7635 18.4041 15.7967 16.4998 14.5897 14.1912C12.1756 9.59741 12.2225 9.7146 12.4861 9.16968C12.6268 8.88257 12.9139 8.64819 13.2479 8.55444C13.5233 8.47241 13.8572 8.57788 14.074 8.80639C14.1678 8.91186 15.1053 10.6228 16.1483 12.6208C17.1912 14.613 18.0936 16.2947 18.1463 16.3533C18.3924 16.6228 18.9315 16.4001 18.9315 16.031C18.9315 15.9431 18.7498 15.5212 18.5213 15.0935C18.1932 14.4666 18.1111 14.2615 18.1111 14.0564C18.1111 13.6873 18.3455 13.3416 18.7205 13.1541C19.0838 12.9724 19.242 12.9724 19.576 13.1365C19.8221 13.2595 19.869 13.3298 20.285 14.115C20.5252 14.5779 20.783 14.9998 20.8533 15.0466C21.1346 15.2283 21.5682 14.9939 21.5682 14.6599C21.5682 14.5837 21.369 14.1443 21.1287 13.6814C20.8475 13.1541 20.6893 12.7791 20.6893 12.6619C20.6893 12.1697 21.2049 11.6951 21.7381 11.6951C22.2244 11.7009 22.3358 11.8005 22.8279 12.7439C23.2615 13.5701 23.4197 13.7693 23.6307 13.7693C23.9236 13.7693 24.2049 13.4529 24.1229 13.2009C24.1053 13.1423 23.8885 12.7146 23.6483 12.2517C23.2791 11.5486 23.2088 11.3728 23.2381 11.2263C23.4139 10.3943 24.5096 10.0603 25.0604 10.6755C25.1834 10.8044 26.1151 12.5505 26.8416 13.9978C27.5037 15.3337 28.0018 16.6521 28.4295 18.2458C28.5526 18.7263 28.7401 19.3064 28.8397 19.5349C29.1502 20.2498 29.1795 20.3494 29.1854 20.7537C29.1854 21.4568 28.8455 22.0837 28.2713 22.4177C28.0135 22.5701 27.9139 22.7517 27.949 22.9978C27.9725 23.1736 28.1893 23.3787 28.3475 23.3787C28.7225 23.3787 29.5135 22.7224 29.7889 22.1716C30.0584 21.6384 30.1404 21.2517 30.1111 20.6013C30.0877 20.0505 30.0701 19.9685 29.8182 19.3943C29.6658 19.0544 29.4901 18.5564 29.4197 18.281C29.0799 16.9333 28.5994 15.5271 28.0721 14.3552C27.9373 14.0505 27.41 13.0076 26.9061 12.0408C25.869 10.0427 25.6756 9.79077 25.0545 9.55639C24.5565 9.36889 23.8416 9.39819 23.367 9.63257C22.9861 9.81421 22.6229 10.2009 22.4647 10.5759C22.3709 10.8103 22.3475 10.8279 22.2127 10.7927C22.1307 10.7693 21.8787 10.7517 21.6561 10.7576C20.9236 10.7634 20.2674 11.1736 19.9393 11.8298L19.7752 12.1638L19.5408 12.1111C18.9432 11.9822 18.0936 12.2576 17.6776 12.7146L17.4666 12.949L17.4549 7.07202L17.4373 1.20093L17.2557 0.878662C17.0565 0.52124 16.6404 0.169678 16.2947 0.064209C16.1424 0.017334 14.5135 -0.000244141 10.6522 -0.000244141H5.22638L5.13849 0.128662C5.01544 0.304443 5.0213 0.603271 5.15021 0.755615L5.24982 0.878662L10.5818 0.890381C15.7967 0.907959 15.9197 0.907959 16.1131 1.02515C16.4529 1.23022 16.5291 1.44702 16.5291 2.26733V2.98804H8.79474H1.06036V2.25562C1.06036 1.42944 1.10724 1.27124 1.42365 1.04272C1.59943 0.919678 1.69318 0.907959 2.43732 0.890381C3.38654 0.861084 3.46271 0.831787 3.46271 0.439209C3.46271 0.0231934 3.39825 -0.000244141 2.31427 -0.000244141C1.52911 -0.000244141 1.34161 0.017334 1.1424 0.111084ZM16.5291 7.59936L16.5233 11.2791L16.0311 10.3416L15.533 9.40405V7.98022C15.533 6.46264 15.5037 6.29272 15.2225 5.98804C14.9236 5.66577 15.2459 5.68335 8.78302 5.68335H2.78888L2.5545 5.81812C2.4256 5.89429 2.2674 6.05249 2.19122 6.18139C2.06232 6.40991 2.05646 6.45679 2.05646 8.25561C2.05646 10.0017 2.06232 10.113 2.1795 10.3474C2.24982 10.4998 2.39044 10.658 2.51349 10.7341L2.73029 10.8689L7.26544 10.8982L11.8065 10.9275L13.4588 14.0916C14.3729 15.8259 15.1111 17.2615 15.0994 17.2673C15.0877 17.2791 14.8358 17.156 14.5311 16.9978C14.2264 16.8396 13.8865 16.6814 13.7693 16.6462C13.5584 16.5818 13.5526 16.5642 13.4822 16.1833C13.2947 15.1755 12.8026 14.2615 12.0526 13.5525C11.5193 13.0427 10.9861 12.7205 10.2596 12.4685C9.72638 12.2869 9.66193 12.281 8.82404 12.2751C8.15021 12.2751 7.85724 12.3044 7.56427 12.3865C6.62677 12.6443 5.70685 13.2361 5.11505 13.9451C4.77521 14.3552 4.27716 15.322 4.16583 15.7908C3.867 17.0505 4.03693 18.2927 4.65216 19.3943C4.98029 19.9861 5.8006 20.8005 6.3924 21.1345C7.46466 21.738 8.7713 21.9138 9.99591 21.6208C10.4705 21.5095 11.4315 21.0115 11.8475 20.6658L12.2342 20.3435L13.6053 21.0291C14.3611 21.4041 15.3279 21.8787 15.7557 22.0837L16.5291 22.4529V23.2966V24.1404H8.79474H1.06036V14.033V3.92554H8.79474H16.5291V7.59936ZM14.5838 7.31225L14.6014 7.97436L14.2908 7.8103C14.0096 7.66382 13.9217 7.64624 13.3943 7.64624C12.867 7.64624 12.7791 7.66382 12.4979 7.8103C11.824 8.16772 11.4315 8.76538 11.3846 9.53296L11.3553 9.96069L7.18927 9.94897L3.02325 9.93139L3.00568 8.27319L2.99396 6.62085L8.77716 6.63257L14.5662 6.65014L14.5838 7.31225ZM9.69708 13.3005C10.4061 13.4822 10.9217 13.781 11.4608 14.3201C12.0057 14.865 12.3104 15.3982 12.4861 16.0896C12.5506 16.3416 12.6033 16.5642 12.6033 16.5876C12.6033 16.6111 12.492 16.6873 12.3514 16.7517C11.9295 16.9568 11.6248 17.2615 11.4197 17.6833C11.244 18.0291 11.2264 18.1287 11.2264 18.574C11.2264 18.9958 11.2498 19.1189 11.3787 19.3826L11.5311 19.6931L11.2029 19.9568C10.4998 20.5193 9.65021 20.8181 8.76544 20.8181C7.74005 20.8123 6.84357 20.4314 6.09943 19.6873C5.35529 18.9431 4.97443 18.0466 4.96857 17.0212C4.96271 15.5447 5.78302 14.2322 7.12482 13.5642C7.91583 13.1775 8.83575 13.0779 9.69708 13.3005ZM16.5291 26.7654C16.5291 28.6521 16.5115 28.74 16.1131 28.9744C15.9197 29.0916 15.8084 29.0916 8.79474 29.0916C2.0506 29.0916 1.66388 29.0857 1.48224 28.9861C1.37677 28.9275 1.23615 28.7986 1.17755 28.6931C1.06622 28.5173 1.06036 28.3884 1.06036 26.7888V25.0779H8.79474H16.5291V26.7654Z" fill="#E65425"/>
<path d="M9.33966 16.418L7.8631 17.8945L7.30646 17.3555C6.69708 16.7637 6.5506 16.7051 6.25177 16.9395C6.13458 17.0273 6.09943 17.1094 6.09943 17.2734C6.09943 17.4727 6.15802 17.5547 6.87872 18.2695C7.57599 18.9668 7.6756 19.043 7.85724 19.043C8.04474 19.043 8.18536 18.9141 9.77325 17.3262C11.2674 15.8379 11.4901 15.5918 11.4901 15.4395C11.4842 15.2402 11.4022 15.1113 11.2147 15.0117C10.9217 14.8535 10.869 14.8945 9.33966 16.418Z" fill="#E65425"/>
<path d="M6.93146 26.0222C6.08185 26.4441 6.15802 27.8972 7.04864 28.2195C7.17755 28.2722 7.74005 28.2956 8.79474 28.2956C10.1893 28.3015 10.3709 28.2898 10.5877 28.1902C11.2791 27.8738 11.4666 26.8659 10.9451 26.2683C10.6287 25.9109 10.5584 25.8992 8.78302 25.8992C7.26544 25.8992 7.17169 25.905 6.93146 26.0222ZM10.2479 26.907C10.3358 26.9949 10.3358 27.2058 10.2479 27.2937C10.1951 27.3464 9.79669 27.364 8.8006 27.364C7.60528 27.364 7.41192 27.3523 7.31817 27.2644C7.18927 27.1472 7.18341 27.0476 7.30646 26.9304C7.38263 26.8484 7.59942 26.8367 8.78888 26.8367C9.79083 26.8367 10.1951 26.8542 10.2479 26.907Z" fill="#E65425"/>
</g>
<defs>
<clipPath id="clip0_2003_35542">
<rect width="30" height="30" fill="white" transform="translate(0.122864)"/>
</clipPath>
</defs>
</svg>
