<svg width="31" height="30" viewBox="0 0 31 30" fill="none" xmlns="http://www.w3.org/2000/svg">
<path d="M8.66238 1.76953C8.38113 1.86914 8.11745 2.0918 7.94753 2.39062L7.78347 2.66602L7.76589 5.92969L7.74831 9.19922H6.34792C5.07644 9.19922 4.91823 9.21094 4.62527 9.32227C4.23269 9.46875 3.85183 9.82031 3.65261 10.2246L3.50613 10.5176L3.48855 17.3613L3.47683 24.1992H3.06667C2.72683 24.1992 2.63308 24.2227 2.53347 24.3223C2.41628 24.4395 2.41628 24.4922 2.43386 25.5645C2.45144 26.6719 2.45144 26.6953 2.62136 27.041C2.84402 27.4863 3.23659 27.8789 3.68191 28.1016L4.03347 28.2715H15.7229H27.4124L27.7522 28.1074C28.1858 27.8906 28.6135 27.4629 28.8303 27.0293C28.9885 26.6953 28.9944 26.666 29.012 25.5645C29.0296 24.4922 29.0296 24.4395 28.9124 24.3223C28.8128 24.2227 28.719 24.1992 28.3792 24.1992H27.969L27.9573 17.3555L27.9397 10.5176L27.7932 10.2246C27.5999 9.82617 27.2132 9.46875 26.8206 9.32227C26.5276 9.21094 26.3694 9.19922 25.0979 9.19922H23.6917V7.72266V6.24023L21.4182 3.97266L19.1507 1.69922L13.9944 1.70508C10.5608 1.70508 8.77956 1.72852 8.66238 1.76953ZM18.4768 4.58789C18.4768 6.5332 18.4827 6.60352 18.594 6.72656C18.7171 6.85547 18.7346 6.85547 20.7327 6.85547H22.7542V13.6758C22.7542 20.4844 22.7542 20.4902 22.6311 20.6484L22.5139 20.8008H15.7229H8.93191L8.81472 20.6484L8.69167 20.4902V11.6895V2.88867L8.82644 2.77148C8.89675 2.70703 8.99636 2.63672 9.04323 2.61914C9.09011 2.60156 11.2346 2.58398 13.8069 2.58398L18.4768 2.57812V4.58789ZM20.762 4.6582L22.0803 5.97656H20.7444H19.4143V4.6582C19.4143 3.93164 19.4202 3.33984 19.4319 3.33984C19.4378 3.33984 20.0354 3.93164 20.762 4.6582ZM7.75417 10.5469V11.0156H6.67019C5.59206 11.0156 5.58034 11.0156 5.43972 11.1621L5.29323 11.3027V17.7539V24.1992H4.85378H4.41433V17.4902C4.41433 10.3008 4.40261 10.6172 4.69558 10.3535C4.94753 10.125 5.2112 10.084 6.51198 10.0781H7.75417V10.5469ZM26.5628 10.2305C26.6741 10.2949 26.8264 10.4355 26.8968 10.5469L27.0315 10.7402V17.4668V24.1992H26.5921H26.1526V17.7539V11.3027L26.0061 11.1621C25.8655 11.0156 25.8538 11.0156 24.7757 11.0156H23.6917V10.541V10.0723L25.0276 10.0898C26.2464 10.1074 26.3753 10.1191 26.5628 10.2305ZM7.75417 16.1895C7.75417 20.8418 7.75417 20.8242 8.07058 21.2344C8.15261 21.3457 8.35769 21.5039 8.52761 21.5859L8.8323 21.7383H15.7229H22.6135L22.9182 21.5859C23.0882 21.5039 23.2932 21.3457 23.3753 21.2344C23.6917 20.8242 23.6917 20.8418 23.6917 16.1895V11.8945H24.4534H25.2151V18.0469V24.1992H21.8284C17.9378 24.1992 18.3889 24.123 18.0081 24.832L17.7971 25.2246H15.7229H13.6487L13.4378 24.832C13.0569 24.123 13.5081 24.1992 9.61745 24.1992H6.23073V18.0469V11.8945H6.99245H7.75417V16.1895ZM12.7464 25.5176C13.1448 26.2266 12.8518 26.1621 15.594 26.1797C17.1292 26.1914 18.055 26.1738 18.1897 26.1387C18.3655 26.0859 18.43 26.0098 18.6643 25.5938L18.928 25.1074L23.5452 25.0898L28.1624 25.0781L28.1331 25.7344C28.0979 26.6074 27.9163 26.959 27.3538 27.2637L27.1194 27.3926H15.7229H4.32644L4.09206 27.2637C3.52956 26.959 3.34792 26.6074 3.31277 25.7344L3.28347 25.0781L7.90066 25.0898L12.512 25.1074L12.7464 25.5176Z" fill="#E65425"/>
<path d="M12.4006 9.44604L11.7971 10.0437L11.5451 9.7976C11.3576 9.61596 11.2463 9.5515 11.1115 9.5515C10.8772 9.5515 10.6955 9.70971 10.6486 9.94994C10.6135 10.1316 10.6369 10.1726 11.1408 10.6765C11.844 11.3796 11.8029 11.3913 12.8752 10.3191C13.6369 9.55736 13.6838 9.49877 13.6838 9.28197C13.6838 9.00658 13.5139 8.84838 13.2151 8.84838C13.0334 8.84838 12.9397 8.91283 12.4006 9.44604Z" fill="#E65425"/>
<path d="M15.0784 9.66797C14.9085 9.83789 14.9026 10.1484 15.0608 10.3242C15.1487 10.4238 15.3597 10.4297 17.8675 10.4297H20.5804L20.7034 10.2715C20.8557 10.0781 20.8265 9.80859 20.639 9.65039C20.5218 9.55664 20.2991 9.55078 17.8557 9.55078C15.2718 9.55078 15.1897 9.55664 15.0784 9.66797Z" fill="#E65425"/>
<path d="M12.4006 12.6688L11.7971 13.2665L11.5451 13.0204C11.2346 12.7157 10.9416 12.6805 10.7483 12.9266C10.5315 13.202 10.5842 13.3309 11.0998 13.8583C11.5979 14.368 11.7385 14.4442 12.0139 14.327C12.2365 14.2274 13.6721 12.7626 13.678 12.622C13.7014 12.2352 13.5725 12.0712 13.2444 12.0712C13.0276 12.0712 12.969 12.1122 12.4006 12.6688Z" fill="#E65425"/>
<path d="M15.0784 12.8789C14.9846 12.9551 14.9495 13.0488 14.9495 13.2129C14.9495 13.377 14.9846 13.4707 15.0784 13.5469C15.2014 13.6465 15.4006 13.6523 17.8909 13.6523C20.5159 13.6523 20.5686 13.6523 20.6741 13.5352C20.8147 13.377 20.8147 13.0488 20.6741 12.8906C20.5686 12.7734 20.5159 12.7734 17.8909 12.7734C15.4006 12.7734 15.2014 12.7793 15.0784 12.8789Z" fill="#E65425"/>
<path d="M13.057 15.293C12.9925 15.3164 12.6937 15.5918 12.389 15.9023L11.8382 16.459L11.5745 16.2246C11.2406 15.9316 10.9359 15.9082 10.7425 16.1543C10.5433 16.4121 10.6195 16.6055 11.1409 17.1211C11.5511 17.5371 11.6097 17.5781 11.8206 17.5781C12.0374 17.5781 12.096 17.5312 12.8109 16.8281C13.5784 16.0723 13.7308 15.8613 13.6839 15.6152C13.637 15.3516 13.3031 15.1816 13.057 15.293Z" fill="#E65425"/>
<path d="M15.0608 16.0957C14.9026 16.2773 14.9085 16.5879 15.0784 16.7578C15.1897 16.8691 15.2718 16.875 17.8557 16.875C20.2991 16.875 20.5218 16.8691 20.639 16.7695C20.8265 16.6172 20.8557 16.3477 20.7034 16.1543L20.5804 15.9961H17.8675C15.3597 15.9961 15.1487 16.002 15.0608 16.0957Z" fill="#E65425"/>
</svg>
