<svg width="31" height="30" viewBox="0 0 31 30" fill="none" xmlns="http://www.w3.org/2000/svg">
<g clip-path="url(#clip0_2003_35716)">
<path d="M0.734619 12.8438L0.752197 25.6934L0.922119 26.1914C1.53735 28.0195 2.70337 29.1855 4.53149 29.8008L5.02954 29.9707L17.8792 29.9883L30.7229 30L30.7112 17.1562L30.6936 4.30664L30.5647 3.89648C30.0022 2.15039 28.842 0.908203 27.1838 0.292969C26.3811 -0.0117188 27.0081 0 13.3909 0H0.7229L0.734619 12.8438ZM26.2932 1.52344C27.7229 1.88672 28.8362 3 29.1995 4.42969C29.3167 4.875 29.3167 5.13867 29.3167 16.7402V28.5938H17.4631C5.93774 28.5938 5.59204 28.5879 5.16431 28.4824C3.71118 28.1074 2.61548 27.0117 2.24048 25.5586C2.13501 25.1309 2.12915 24.7852 2.12915 13.2598V1.40625H13.9827C25.5842 1.40625 25.8479 1.40625 26.2932 1.52344Z" fill="#E65425"/>
<path d="M8.95532 9.85547C8.93774 9.89648 8.93188 12.2109 8.93774 15L8.95532 20.0684H9.92212H10.8889L10.9065 18.293L10.9182 16.5234H11.7561C12.7288 16.5234 13.1741 16.459 13.8362 16.2363C15.4417 15.6855 16.2151 14.5488 16.1155 12.8906C16.0686 12.041 15.7463 11.3145 15.1604 10.7461C14.803 10.4004 14.387 10.1777 13.76 9.98438C13.2327 9.82031 13.2268 9.82031 11.1116 9.79688C9.3772 9.7793 8.97876 9.79102 8.95532 9.85547ZM12.3479 11.3086C12.9749 11.3848 13.2795 11.5078 13.637 11.8359C14.0237 12.1934 14.1584 12.5859 14.1292 13.2715C14.0823 14.2559 13.637 14.748 12.5823 14.9707C12.1721 15.0586 11.2932 15.0879 11.053 15.0234L10.9182 14.9883V13.1543C10.9182 11.4551 10.9241 11.3145 11.0237 11.291C11.2112 11.2383 11.8206 11.25 12.3479 11.3086Z" fill="#E65425"/>
<path d="M19.1389 12.5101C18.6057 12.6273 18.2776 12.7913 17.926 13.1253C17.4573 13.5648 17.2756 13.9984 17.2756 14.678C17.2756 15.1351 17.2991 15.2523 17.4456 15.5745C17.7444 16.2191 18.0959 16.4769 19.7659 17.2445C20.0061 17.3558 20.2756 17.514 20.3635 17.6077C20.6799 17.9241 20.6155 18.4105 20.2229 18.6097C19.6487 18.9085 18.4065 18.6917 17.6213 18.1702C17.4749 18.0706 17.3284 18.0003 17.2991 18.0179C17.2698 18.0413 17.2463 18.4222 17.2463 18.8675V19.6878L17.5276 19.8284C17.9963 20.0687 18.4592 20.1624 19.2971 20.1976C20.8381 20.2562 21.7874 19.8519 22.2854 18.9144C22.467 18.5863 22.4905 18.4866 22.5081 17.9886C22.5374 17.2445 22.4026 16.8636 21.9397 16.4007C21.6057 16.0726 21.553 16.0433 19.8655 15.2347C19.3147 14.9769 19.1213 14.7718 19.1213 14.4554C19.1213 14.1155 19.5959 13.8284 20.1467 13.8284C20.551 13.8284 21.1721 13.9925 21.594 14.2093C21.8225 14.3206 22.0276 14.4027 22.0569 14.3792C22.1272 14.3382 22.1272 12.9671 22.051 12.8323C21.8752 12.5042 20.0881 12.305 19.1389 12.5101Z" fill="#E65425"/>
</g>
<defs>
<clipPath id="clip0_2003_35716">
<rect width="30" height="30" fill="white" transform="translate(0.7229)"/>
</clipPath>
</defs>
</svg>
