<svg width="31" height="30" viewBox="0 0 31 30" fill="none" xmlns="http://www.w3.org/2000/svg">
<g clip-path="url(#clip0_2003_35710)">
<path d="M7.19751 0.111328C6.9104 0.240234 6.61743 0.5625 6.52368 0.849609C6.48267 0.966797 6.46509 1.23047 6.47681 1.43555C6.5061 1.88672 6.70532 2.2207 7.08032 2.44922L7.33813 2.60742L7.34399 3.20508C7.34399 4.11328 7.15063 4.04297 9.62915 4.04297H11.6799V4.48242V4.92188L6.62329 4.93359L1.56665 4.95117L1.32056 5.11523C1.18579 5.20312 1.00415 5.38477 0.91626 5.51953L0.752197 5.76562V14.7363V23.707L0.91626 23.9531C1.00415 24.0879 1.18579 24.2695 1.32056 24.3574L1.56665 24.5215L6.57056 24.5391L11.5803 24.5508L11.5393 24.791C11.4221 25.5234 11.0002 26.3262 10.4202 26.9473L10.051 27.334L8.84985 27.3633L7.64868 27.3926L7.39673 27.5684C6.64087 28.1016 6.64087 29.2617 7.39673 29.7949L7.64868 29.9707H15.7229H23.7971L24.0491 29.7949C24.8049 29.2617 24.8049 28.1016 24.0491 27.5684L23.7971 27.3926L22.6077 27.3633L21.4124 27.334L21.1428 27.0703C20.5159 26.4609 20.0413 25.5879 19.9124 24.8027L19.8713 24.5508L24.8752 24.5391L29.8792 24.5215L30.1252 24.3574C30.26 24.2695 30.4417 24.0879 30.5295 23.9531L30.6936 23.707V14.7363V5.76562L30.5295 5.51953C30.4417 5.38477 30.26 5.20312 30.1252 5.11523L29.8792 4.95117L26.4397 4.93359L22.9944 4.92188L22.8772 5.05078C22.7131 5.22656 22.719 5.51367 22.8889 5.67188L23.0237 5.80078H26.1643C28.3499 5.80078 29.3577 5.81836 29.4924 5.86523C29.8616 6 29.844 5.48438 29.844 14.7363C29.844 23.9883 29.8616 23.4727 29.4924 23.6074C29.3518 23.6543 25.7014 23.6719 15.7112 23.6719C0.787354 23.6719 1.80103 23.6953 1.66626 23.3203C1.61938 23.1797 1.60181 20.8418 1.60181 14.7246C1.60181 5.48438 1.58423 6 1.95337 5.86523C2.09399 5.81836 3.5061 5.80078 6.9104 5.80078H11.6799V6.24023V6.67969H7.17993C2.89087 6.67969 2.66821 6.68555 2.58032 6.78516C2.48657 6.88477 2.48071 7.39453 2.48071 12.9316C2.48071 18.9434 2.48071 18.9668 2.5979 19.0723C2.66821 19.1367 2.80884 19.1836 2.92017 19.1836C3.03149 19.1836 3.17212 19.1367 3.24243 19.0723C3.35962 18.9668 3.35962 18.9375 3.35962 13.2598V7.55859H7.51978H11.6799V8.73047V9.90234L10.7073 10.3711C10.1682 10.6289 9.6936 10.8867 9.65259 10.9395C9.5354 11.0977 9.5354 18.498 9.65259 18.6504C9.7522 18.7793 15.553 21.5625 15.7229 21.5625C15.887 21.5625 19.0569 20.0508 19.2209 19.8984C19.5139 19.6113 19.3381 19.1016 18.9397 19.1016C18.8518 19.1016 18.2073 19.377 17.5042 19.7168L16.2209 20.332L16.2034 17.3027C16.1975 15.6387 16.2092 14.2559 16.2327 14.2324C16.262 14.209 17.3284 13.6875 18.6116 13.0781L20.9377 11.9648V15.0234V18.0879L20.6331 18.2227C20.1819 18.4277 20.0588 18.5508 20.0588 18.8145C20.0588 19.0664 20.2639 19.2773 20.51 19.2773C20.6741 19.2773 21.6995 18.7734 21.7991 18.6387C21.9104 18.498 21.9045 11.0859 21.7932 10.9395C21.7522 10.8867 21.2776 10.6289 20.7385 10.3652L19.7659 9.89648V8.73047V7.55859H23.926H28.0862V14.7363V21.9141H15.7229H3.35962V21.1523C3.35962 20.4668 3.3479 20.3789 3.24243 20.2734C3.08423 20.1152 2.7561 20.1152 2.5979 20.2734C2.48657 20.3848 2.48071 20.4668 2.48071 21.4922C2.48071 22.4883 2.49243 22.6113 2.58618 22.6934C2.68579 22.7871 3.68188 22.793 15.7346 22.793C28.2913 22.793 28.7776 22.7871 28.8655 22.6875C28.9592 22.5879 28.9651 21.9492 28.9651 14.7246C28.9651 7.19531 28.9592 6.86719 28.8596 6.7793C28.76 6.68555 28.3557 6.67969 24.26 6.67969H19.7659V6.24023V5.80078H20.6682H21.5764L21.6936 5.64844C21.8577 5.44336 21.8518 5.20898 21.6819 5.05078C21.553 4.92773 21.4885 4.92188 20.6565 4.92188H19.7659V4.48242V4.04297H21.8167C24.2952 4.04297 24.1018 4.11328 24.1018 3.21094L24.1077 2.60742L24.3655 2.44922C24.7405 2.2207 24.9397 1.88672 24.969 1.43555C24.9983 0.990234 24.9104 0.703125 24.6702 0.427734C24.1721 -0.140625 23.1936 -0.158203 22.6897 0.392578C22.426 0.673828 22.3264 0.9375 22.3264 1.32422C22.3323 1.82812 22.5901 2.2793 23.0061 2.49609C23.1467 2.57227 23.1643 2.61328 23.1643 2.87109V3.16406H21.1135C19.1389 3.16406 19.0569 3.16992 18.9456 3.28125C18.8401 3.38672 18.8284 3.47461 18.8284 4.16016V4.92188H17.51H16.1917V3.75C16.1917 2.68359 16.2034 2.57227 16.2971 2.53711C16.7073 2.38477 17.012 1.92188 17.053 1.38867C17.0764 1.07227 17.0588 0.984375 16.9124 0.703125C16.8069 0.503906 16.6487 0.316406 16.4905 0.205078C16.2561 0.0410156 16.2034 0.0292969 15.7229 0.0292969C15.2424 0.0292969 15.1897 0.0410156 14.9553 0.205078C14.7971 0.316406 14.6389 0.503906 14.5334 0.703125C14.387 0.984375 14.3694 1.07227 14.3928 1.38867C14.4338 1.92188 14.7385 2.38477 15.1545 2.53711C15.2424 2.57227 15.2542 2.68359 15.2542 3.75V4.92188H13.9358H12.6174V4.16016C12.6174 3.47461 12.6057 3.38672 12.5002 3.28125C12.3889 3.16992 12.3069 3.16406 10.3323 3.16406H8.28149V2.87109C8.28149 2.61328 8.29907 2.57227 8.44556 2.49609C8.85571 2.2793 9.11353 1.82812 9.11938 1.32422C9.12524 0.791016 8.85571 0.357422 8.38696 0.111328C8.09985 -0.0351562 7.51978 -0.0351562 7.19751 0.111328ZM8.07642 1.05469C8.29907 1.30078 8.12915 1.69922 7.79517 1.69922C7.69556 1.69922 7.56665 1.6582 7.50806 1.59961C7.37915 1.48242 7.37329 1.18945 7.5022 1.04297C7.6311 0.902344 7.94165 0.908203 8.07642 1.05469ZM16.0159 1.05469C16.2561 1.29492 16.0745 1.69922 15.7229 1.69922C15.5061 1.69922 15.3127 1.51758 15.3127 1.31836C15.3127 1.11914 15.5061 0.9375 15.7229 0.9375C15.8225 0.9375 15.9514 0.990234 16.0159 1.05469ZM23.9377 1.03711C24.0667 1.1543 24.0725 1.44727 23.9436 1.59375C23.7268 1.83398 23.2698 1.65234 23.2698 1.31836C23.2698 0.990234 23.6917 0.808594 23.9377 1.03711ZM15.2542 6.24023V6.67969H13.9358H12.6174V6.24023V5.80078H13.9358H15.2542V6.24023ZM18.8284 6.24023V6.67969H17.51H16.1917V6.24023V5.80078H17.51H18.8284V6.24023ZM15.2424 7.88086L15.2249 8.20898L13.9417 8.81836C13.2385 9.1582 12.6467 9.43359 12.635 9.43359C12.6292 9.43359 12.6174 9.01172 12.6174 8.49609V7.55859H13.9358H15.26L15.2424 7.88086ZM18.8284 8.49609C18.8284 9.01172 18.8167 9.43359 18.8049 9.43359C18.7932 9.43359 18.2073 9.1582 17.5042 8.81836L16.2209 8.20312L16.2034 7.88086L16.1858 7.55859H17.51H18.8284V8.49609ZM18.0725 10.1484L20.3108 11.2207L19.9651 11.373C19.7776 11.4609 18.7639 11.9414 17.7209 12.4453C16.6721 12.9492 15.7815 13.3594 15.7288 13.3594C15.6409 13.3594 11.1467 11.2324 11.176 11.2031C11.2581 11.127 15.7112 9.03516 15.7639 9.05273C15.8049 9.06445 16.842 9.55664 18.0725 10.1484ZM14.3928 13.8164L15.2542 14.2324V17.2793C15.2542 20.2031 15.2483 20.3262 15.1487 20.2852C15.0901 20.2617 14.0237 19.7578 12.7756 19.1602L10.5081 18.0762V15.0176V11.9648L12.0198 12.6855C12.8459 13.0781 13.9124 13.5879 14.3928 13.8164ZM18.9456 24.7148C18.9456 25.248 19.426 26.4668 19.8479 27.0234C19.9651 27.1758 20.0588 27.3105 20.0588 27.3281C20.0588 27.3457 18.1077 27.3633 15.7229 27.3633C13.3381 27.3633 11.387 27.3457 11.387 27.3281C11.387 27.3105 11.4631 27.1934 11.5569 27.0762C11.9788 26.543 12.3889 25.5586 12.4709 24.8848L12.512 24.5508H15.7288H18.9456V24.7148ZM23.428 28.3242C23.7795 28.4707 23.7795 28.8926 23.4221 29.0391C23.1292 29.1621 8.31665 29.1621 8.02368 29.0391C7.67798 28.8926 7.66626 28.4766 8.0061 28.3301C8.29321 28.207 23.1292 28.2012 23.428 28.3242Z" fill="#E65425"/>
</g>
<defs>
<clipPath id="clip0_2003_35710">
<rect width="30" height="30" fill="white" transform="translate(0.7229)"/>
</clipPath>
</defs>
</svg>
