<svg width="31" height="30" viewBox="0 0 31 30" fill="none" xmlns="http://www.w3.org/2000/svg">
<g clip-path="url(#clip0_2003_35655)">
<path d="M8.48584 0.0820308C7.64795 0.398437 7.09131 0.984375 6.88623 1.78711C6.81592 2.05078 6.79248 2.45508 6.79248 3.49805V4.86328H7.29053H7.78857V4.39453V3.92578H15.5229H23.2573V4.39453V4.86328H23.7554H24.2534V3.49805C24.2534 2.00977 24.2007 1.6582 23.9194 1.17773C23.6909 0.791015 23.2749 0.416015 22.8472 0.210937L22.4663 0.0292964L15.5815 0.0175776C10.0151 0.0117183 8.65576 0.023437 8.48584 0.0820308ZM22.396 1.13672C22.8999 1.38281 23.1753 1.83398 23.2397 2.49023L23.2749 2.87109H15.5288H7.78857V2.64844C7.78857 2.0918 8.07568 1.48242 8.44482 1.25977C8.87842 0.996094 8.6792 1.00195 15.5815 1.01367C21.9272 1.02539 22.1792 1.03125 22.396 1.13672Z" fill="#E65425"/>
<path d="M0.522949 14.0332V22.2656H15.5229H30.5229V14.0332V5.80078H15.5229H0.522949V14.0332ZM29.5269 14.0332V21.2695H15.5229H1.51904V14.0332V6.79688H15.5229H29.5269V14.0332Z" fill="#E65425"/>
<path d="M7.46045 7.85177C5.10498 8.34982 3.30029 10.0549 2.64404 12.4045C2.49756 12.9319 2.48584 13.0666 2.48584 14.0334C2.48584 15.0061 2.49756 15.135 2.6499 15.674C3.20068 17.6545 4.63623 19.2365 6.53467 19.9514C7.49561 20.3147 8.80225 20.426 9.85693 20.2444C11.4038 19.9748 12.8276 19.1076 13.7651 17.8596C15.0015 16.219 15.3706 14.1447 14.7847 12.1936C14.1226 9.99631 12.2651 8.30881 10.0151 7.85177C9.25928 7.69943 8.19873 7.69943 7.46045 7.85177ZM8.24561 9.97287L8.22803 11.1565L7.9585 11.2209C7.021 11.4611 6.17725 12.3225 5.91357 13.3069C5.80811 13.6936 5.81982 14.4494 5.94287 14.8479C6.0542 15.2287 6.31787 15.7092 6.53467 15.9377L6.67529 16.0901L5.98975 17.0686L5.3042 18.0471L5.07568 17.8303C4.43115 17.2033 3.86865 16.2248 3.62256 15.2932C3.43506 14.6018 3.43506 13.4299 3.62256 12.7444C4.04443 11.174 5.1167 9.90256 6.59326 9.22287C7.02686 9.01779 7.80029 8.80099 8.09912 8.79513L8.25732 8.78927L8.24561 9.97287ZM10.021 8.91232C11.4038 9.25216 12.7456 10.2951 13.4077 11.549C13.6304 11.9533 13.9175 12.8264 13.9702 13.2307L14.0112 13.5354L12.8276 13.5236L11.644 13.5061L11.5386 13.1721C11.2515 12.2404 10.4487 11.4494 9.55811 11.2268L9.28271 11.1565L9.26514 9.97287L9.25342 8.78927H9.38818C9.46436 8.78927 9.74561 8.84201 10.021 8.91232ZM9.25928 12.2111C10.0913 12.4631 10.6245 13.1779 10.6245 14.0334C10.6245 14.9299 10.0269 15.6682 9.14209 15.8791C7.72412 16.2131 6.46436 14.7541 6.97412 13.3772C7.32568 12.4514 8.33936 11.9358 9.25928 12.2111ZM13.9702 14.8361C13.9058 15.3342 13.5718 16.2541 13.2612 16.7697C12.8687 17.426 12.1245 18.1643 11.4507 18.5627C9.93896 19.4533 8.17529 19.5471 6.54639 18.8264C6.35889 18.7444 6.20654 18.6506 6.20654 18.6213C6.20654 18.5803 7.36084 16.8928 7.48975 16.7463C7.50732 16.7229 7.67725 16.758 7.86475 16.8225C8.26318 16.9572 9.01318 16.9807 9.4585 16.8694C10.3901 16.6408 11.2339 15.8674 11.5093 14.9826C11.562 14.8127 11.6147 14.6428 11.6265 14.6018C11.644 14.549 11.937 14.5315 12.8335 14.5315H14.0112L13.9702 14.8361Z" fill="#E65425"/>
<path d="M24.6636 10.1367V12.5391H23.7261H22.7886V11.1035V9.66797H20.8257H18.8628V10.6348V11.6016H17.4272H15.9917V15.9668V20.332H22.2905H28.5894V14.0332V7.73438H26.6265H24.6636V10.1367ZM27.5933 14.0332V19.3359H26.6558H25.7183V14.0332V8.73047H26.6558H27.5933V14.0332ZM21.7925 15V19.3359H20.855H19.9175V15V10.6641H20.855H21.7925V15ZM18.8628 15.9668V19.3359H17.9253H16.9878V15.9668V12.5977H17.9253H18.8628V15.9668ZM24.6636 16.4648V19.3359H23.7261H22.7886V16.4648V13.5938H23.7261H24.6636V16.4648Z" fill="#E65425"/>
<path d="M6.79248 23.7012V24.1992H7.29053H7.78857V23.7012V23.2031H7.29053H6.79248V23.7012Z" fill="#E65425"/>
<path d="M23.2573 23.7012V24.1992H23.7554H24.2534V23.7012V23.2031H23.7554H23.2573V23.7012Z" fill="#E65425"/>
<path d="M6.79248 26.502C6.79248 27.9902 6.84521 28.3418 7.12646 28.8223C7.35498 29.209 7.771 29.584 8.19873 29.7891L8.57959 29.9707H15.5229H22.4663L22.8472 29.7891C23.2749 29.584 23.6909 29.209 23.9194 28.8223C24.2007 28.3418 24.2534 27.9902 24.2534 26.502V25.1367H15.5229H6.79248V26.502ZM23.2456 26.9941C23.228 27.709 23.2046 27.9082 23.105 28.125C22.9585 28.4414 22.7007 28.7109 22.396 28.8633C22.1792 28.9688 21.9331 28.9746 15.5229 28.9746C9.11279 28.9746 8.8667 28.9688 8.6499 28.8633C8.34521 28.7109 8.0874 28.4414 7.94092 28.125C7.84131 27.9082 7.81787 27.709 7.80029 26.9941L7.77686 26.1328H15.5229H23.269L23.2456 26.9941Z" fill="#E65425"/>
<path d="M13.062 27.5684V28.0664H15.5229H17.9839V27.5684V27.0703H15.5229H13.062V27.5684Z" fill="#E65425"/>
</g>
<defs>
<clipPath id="clip0_2003_35655">
<rect width="30" height="30" fill="white" transform="translate(0.522949)"/>
</clipPath>
</defs>
</svg>
