<svg width="30" height="30" viewBox="0 0 30 30" fill="none" xmlns="http://www.w3.org/2000/svg">
<path d="M1.47546 0.958984C1.18835 1.06445 0.85437 1.36914 0.713745 1.65625L0.590698 1.9082V12.3672C0.590698 22.3633 0.596558 22.832 0.702026 23.0547C0.830933 23.3477 1.10046 23.6172 1.39343 23.7637C1.5575 23.8457 1.78601 23.875 2.29578 23.8926L2.98132 23.916L2.9989 24.6074C3.02234 25.2695 3.0282 25.3105 3.19812 25.5508C3.43835 25.8906 3.7782 26.1191 4.15906 26.1895C4.59265 26.2715 19.7919 26.2715 20.2255 26.1895C20.8876 26.0664 21.327 25.5566 21.3798 24.8477C21.4091 24.4434 21.4091 24.4375 21.5907 24.4023C22.2528 24.2676 23.1903 23.8633 23.8641 23.418L24.0165 23.3125L24.2274 23.5879C24.3446 23.7402 24.4384 23.8809 24.4384 23.8984C24.4384 23.916 24.3329 24.0098 24.204 24.1035C23.829 24.3848 23.6942 24.8008 23.8759 25.1523C24.0575 25.4922 26.8407 28.9844 26.9872 29.0488C27.0692 29.0898 27.2567 29.1191 27.3973 29.1191C27.6376 29.1191 27.7196 29.0723 28.493 28.4688C29.5653 27.6426 29.6532 27.543 29.6532 27.1504C29.6532 26.793 29.7762 26.9746 28.0184 24.7246C27.3036 23.8047 26.6473 23.0078 26.5594 22.9551C26.2899 22.7793 25.9032 22.8145 25.5575 23.0547L25.2587 23.2598L25.0243 22.9609C24.8954 22.7969 24.7899 22.6445 24.7899 22.6211C24.7899 22.5977 24.8544 22.5156 24.9364 22.4395C25.1415 22.2461 25.6219 21.5371 25.827 21.1211C27.0399 18.707 26.5594 15.748 24.661 13.8789C23.8348 13.0645 22.663 12.4316 21.5848 12.2148L21.3915 12.1738V8.30078C21.3915 5.81055 21.368 4.3457 21.3329 4.20508C21.2391 3.87695 20.9286 3.50781 20.6063 3.34375C20.3661 3.2207 20.2196 3.19727 19.663 3.17383L19.0009 3.15039L18.9774 2.52344C18.954 1.83203 18.8602 1.58008 18.5087 1.24609C18.0985 0.847656 18.7255 0.876953 9.7782 0.882812C3.56726 0.882812 1.62781 0.900391 1.47546 0.958984ZM17.8466 2.01953C17.9813 2.14844 17.993 2.20703 17.993 2.6582V3.16211L11.038 3.17383C4.1239 3.19141 4.07703 3.19141 3.81335 3.31445C3.52039 3.44922 3.19812 3.7832 3.07507 4.07617C3.00476 4.24023 2.99304 5.81641 2.99304 13.5918V22.9082H2.44226C1.93835 22.9082 1.86804 22.8965 1.72156 22.7676L1.5575 22.627L1.53992 12.6133C1.5282 7.11133 1.53992 2.49414 1.5575 2.35352C1.58093 2.21289 1.64539 2.05469 1.72156 1.99023C1.83875 1.87305 1.95007 1.87305 9.77234 1.87305H17.7059L17.8466 2.01953ZM20.2255 4.32812L20.3954 4.49805V8.27734V12.0508L19.8446 12.0918C19.0067 12.1504 18.245 12.3613 17.4364 12.7656L16.7333 13.1172L14.9637 13.1348C13.2118 13.1523 13.1884 13.1523 13.0594 13.2871C12.8954 13.4512 12.8778 13.832 13.0302 13.9844C13.118 14.0781 13.2938 14.0957 14.3544 14.1191L15.579 14.1484L15.2919 14.5293C15.1337 14.7402 14.8759 15.1562 14.7235 15.4492L14.4481 15.9941H10.0419H5.63562L5.51843 16.1465C5.34851 16.3633 5.36023 16.6445 5.54773 16.8203L5.70007 16.9609L9.93054 16.9785L14.1669 16.9961L14.1141 17.2715C14.0848 17.4238 14.0555 17.8281 14.0497 18.1738L14.038 18.8066H9.86023H5.6825L5.54187 18.9531C5.38367 19.1113 5.34851 19.416 5.47156 19.5742C5.64734 19.8027 5.67664 19.8027 10.0067 19.8027H14.2137L14.3251 20.1895C14.3895 20.4062 14.5477 20.793 14.6766 21.0566C14.8055 21.3203 14.9227 21.5488 14.9344 21.5723C14.9462 21.6016 12.8719 21.6191 10.3173 21.6191H5.6825L5.54187 21.7656C5.39539 21.9062 5.35437 22.1465 5.43054 22.3516C5.53601 22.6152 5.495 22.6152 10.7626 22.6152H15.7196L16.0536 22.9199C17.0555 23.8398 18.4501 24.4316 19.8446 24.5254L20.3954 24.5664V24.7305C20.3954 24.8184 20.3309 24.9707 20.2548 25.0586L20.1141 25.2227L12.3563 25.2402C8.09656 25.2461 4.51648 25.2402 4.41101 25.2227C4.30554 25.2051 4.16492 25.1348 4.10046 25.0703C3.98914 24.959 3.98914 24.7832 3.98914 14.7168C3.98914 6.60742 4.00671 4.45703 4.06531 4.38086C4.10046 4.33398 4.18835 4.26367 4.25281 4.22852C4.33484 4.18164 6.64929 4.16406 12.2098 4.1582H20.0555L20.2255 4.32812ZM21.538 13.2285C22.8505 13.5859 23.8993 14.3418 24.62 15.4258C25.5458 16.832 25.7391 18.4785 25.1766 20.1016C24.7196 21.4141 23.5419 22.627 22.2059 23.1602C19.7919 24.127 17.0614 23.1836 15.7372 20.9277C15.1981 20.0137 14.9344 18.7773 15.0575 17.7578C15.3505 15.3789 17.079 13.5508 19.4403 13.123C19.8915 13.041 21.0692 13.0996 21.538 13.2285ZM27.3387 25.5098C28.0067 26.3652 28.5458 27.0801 28.5341 27.1094C28.5223 27.1328 28.2645 27.3555 27.954 27.6016L27.3915 28.0469L26.2196 26.5527C25.5809 25.7324 25.0184 25.0117 24.9774 24.9531C24.913 24.8594 24.9657 24.8008 25.4462 24.4082C25.745 24.168 26.0204 23.9688 26.0614 23.9688C26.1024 23.9629 26.6766 24.6602 27.3387 25.5098Z" fill="#E65425"/>
<path d="M6.03407 7.45703C5.86415 7.55078 5.71767 7.69141 5.60048 7.87891L5.4247 8.16016L5.40712 10.5977C5.3954 12.2676 5.40712 13.1055 5.45399 13.2578C5.53603 13.5332 5.88759 13.9316 6.13954 14.043C6.28603 14.1016 6.83095 14.1191 8.61806 14.1191C10.7802 14.1191 10.9208 14.1133 11.1317 14.002C11.4306 13.8496 11.7001 13.5215 11.7763 13.2051C11.8173 13.0469 11.8407 12.1211 11.8407 10.6738C11.8407 8.76953 11.8231 8.34766 11.7528 8.13672C11.6415 7.83203 11.4247 7.58594 11.1259 7.43359C10.9208 7.32812 10.7567 7.32227 8.60048 7.32227C6.29774 7.32227 6.29189 7.32227 6.03407 7.45703ZM10.7626 8.40039C10.827 8.49414 10.8446 8.91016 10.8446 10.709C10.8446 12.1035 10.8212 12.9355 10.786 13.0117C10.7274 13.1172 10.6395 13.123 8.62978 13.123C7.07704 13.123 6.51454 13.1055 6.46181 13.0527C6.40907 13 6.39149 12.4023 6.39149 10.7148V8.44141L6.52626 8.34766C6.63759 8.26562 6.90712 8.25977 8.66493 8.27148C10.5809 8.28906 10.6806 8.29492 10.7626 8.40039Z" fill="#E65425"/>
<path d="M13.0712 7.66797C12.8837 7.84961 12.8544 8.01367 12.9657 8.21875C13.1122 8.49414 13.0653 8.48828 16.0067 8.49414C18.743 8.49414 18.8016 8.49414 18.954 8.37109C19.1415 8.21875 19.1649 7.87891 18.995 7.66797L18.8837 7.52734L16.0594 7.50977L13.2411 7.49219L13.0712 7.66797Z" fill="#E65425"/>
<path d="M13.1883 10.3867C12.8836 10.5391 12.8251 10.9434 13.0711 11.1895C13.1825 11.3008 13.2762 11.3066 16.0184 11.3066H18.8544L18.9774 11.1719C19.1063 11.0371 19.1473 10.7734 19.0711 10.5742C18.9715 10.3223 18.8426 10.3105 16.0184 10.3105C13.9735 10.3105 13.2997 10.3281 13.1883 10.3867Z" fill="#E65425"/>
<path d="M19.4872 14.1489C17.8348 14.4595 16.5223 15.7017 16.1415 17.313C16.0184 17.8403 16.0184 18.772 16.1415 19.2935C16.6337 21.3853 18.6786 22.7915 20.7997 22.4985C23.8114 22.0884 25.4169 18.854 23.9403 16.188C23.6708 15.7075 22.9149 14.94 22.4344 14.6587C21.5614 14.1431 20.4891 13.9614 19.4872 14.1489ZM21.0048 15.1743C21.6259 15.3325 22.118 15.6079 22.5399 16.0298C23.3016 16.8032 23.6473 17.9224 23.4364 18.936C23.4012 19.106 23.2723 19.4634 23.1434 19.7271C22.7509 20.5474 22.0302 21.1509 21.1278 21.4204C20.6825 21.5493 19.8329 21.5552 19.4227 21.4321C17.993 20.9868 17.0555 19.7681 17.0497 18.3267C17.0438 17.4126 17.3544 16.6802 18.0165 16.0239C18.8485 15.1978 19.9149 14.8931 21.0048 15.1743Z" fill="#E65425"/>
<path d="M19.7684 15.8185C19.5399 15.8946 19.3993 16.0821 19.3993 16.3165C19.4052 16.6739 19.6512 16.8263 20.1493 16.7794C20.87 16.7032 21.5555 17.1368 21.7723 17.8165C21.8251 17.9923 21.9247 18.1798 21.9891 18.2325C22.1649 18.3907 22.4813 18.3673 22.663 18.1857C22.7919 18.0567 22.8094 17.9982 22.7802 17.7755C22.704 17.1017 22.0887 16.3282 21.3563 15.9825C21.0399 15.836 20.8817 15.8009 20.4657 15.7833C20.1844 15.7716 19.8739 15.7892 19.7684 15.8185Z" fill="#E65425"/>
</svg>
