<svg width="31" height="30" viewBox="0 0 31 30" fill="none" xmlns="http://www.w3.org/2000/svg">
<path d="M5.47329 1.45898L5.33266 1.57031L5.31508 9.60352L5.30337 17.6367H4.69985C4.19594 17.6367 4.0729 17.6543 3.90297 17.7598C3.61587 17.9297 3.50454 18.0938 3.43422 18.416C3.35219 18.7676 3.35219 24.7148 3.42837 25.043C3.48696 25.3066 3.62758 25.5176 3.86196 25.6875C3.99672 25.793 4.12563 25.8164 4.65883 25.8281L5.29751 25.8516L5.31508 27.1406C5.33266 28.4121 5.33266 28.4297 5.47329 28.541C5.60805 28.6523 5.84829 28.6523 15.3229 28.6523C24.7975 28.6523 25.0377 28.6523 25.1725 28.541C25.3131 28.4297 25.3131 28.4121 25.3307 27.1406L25.3483 25.8516L25.987 25.8281C26.5202 25.8164 26.6491 25.793 26.7838 25.6875C27.0182 25.5176 27.1588 25.3066 27.2174 25.043C27.2936 24.7148 27.2936 18.7676 27.2116 18.416C27.1413 18.0938 27.0299 17.9297 26.7428 17.7598C26.5729 17.6543 26.4498 17.6367 25.9459 17.6367H25.3424V12.2871C25.3424 9.35156 25.3248 6.89062 25.3073 6.82031C25.2897 6.75 24.0475 5.49609 22.5534 4.01953L19.8288 1.34766H12.7213C5.80727 1.34766 5.60805 1.35352 5.47329 1.45898ZM19.0729 4.71094V7.14258L19.2135 7.30664L19.3541 7.4707L21.8502 7.48828L24.3463 7.50586V12.5684V17.6367H15.3229H6.29946V9.96094V2.28516H12.6862H19.0729V4.71094ZM22.9987 5.88281L23.6139 6.50391H21.8385H20.069V4.76953V3.03516L21.2291 4.14844C21.862 4.76367 22.6588 5.54297 22.9987 5.88281ZM26.2799 21.7383V24.8438H15.3229H4.36587V21.7383V18.6328H15.3229H26.2799V21.7383ZM24.3463 26.7773V27.7148H15.3229H6.29946V26.7773V25.8398H15.3229H24.3463V26.7773Z" fill="#E65425"/>
<path d="M15.8619 9.76758C15.8209 9.7793 15.7623 9.84961 15.7272 9.91406C15.569 10.207 14.0338 14.748 14.0338 14.918C14.0338 15.2051 14.2096 15.3809 14.4967 15.3809C14.6608 15.3809 14.7721 15.3398 14.8483 15.2637C14.9889 15.1172 16.6119 10.4355 16.6119 10.1719C16.6119 9.91406 16.4069 9.72656 16.1373 9.73242C16.026 9.73242 15.903 9.75 15.8619 9.76758Z" fill="#E65425"/>
<path d="M11.3561 10.1709C11.321 10.1885 10.8405 10.6748 10.2897 11.2549C8.97134 12.6377 8.98306 12.4561 10.1608 13.6983C11.3737 14.9815 11.3561 14.9639 11.6139 14.958C11.8835 14.9522 12.1002 14.7295 12.1002 14.4658C12.1002 14.2783 11.9596 14.1084 10.9401 13.0596L10.4479 12.5498L11.1452 11.8291C12.0006 10.9443 12.1002 10.8096 12.1002 10.5928C12.1002 10.2705 11.6901 10.0361 11.3561 10.1709Z" fill="#E65425"/>
<path d="M18.692 10.2822C18.5104 10.458 18.5045 10.71 18.6744 10.9326C18.7448 11.0264 19.1198 11.4307 19.5006 11.8291L20.2037 12.5498L19.6764 13.0889C18.692 14.0967 18.5455 14.2725 18.5455 14.4658C18.5455 14.7295 18.7623 14.9522 19.0319 14.958C19.2897 14.9639 19.2721 14.9815 20.485 13.6983C21.6627 12.4561 21.6744 12.6318 20.3561 11.249C19.8053 10.6748 19.3131 10.1885 19.2662 10.1709C19.0729 10.0947 18.8268 10.1416 18.692 10.2822Z" fill="#E65425"/>
<path d="M11.9831 19.4291C10.5592 19.8217 9.82096 21.4448 10.4655 22.7748C10.7702 23.4135 11.4733 23.9467 12.1881 24.0756C12.651 24.1635 13.8288 24.1576 13.9928 24.0698C14.3034 23.9057 14.3678 23.5307 14.1217 23.2905C13.987 23.1498 13.946 23.144 13.2546 23.144C12.1706 23.144 11.7546 22.974 11.4147 22.394C11.2799 22.1655 11.2506 22.0483 11.2506 21.7377C11.2565 21.1752 11.5143 20.7533 12.0124 20.4897C12.2116 20.3842 12.3815 20.3608 13.1432 20.3315C13.9987 20.3022 14.0514 20.2963 14.1569 20.1615C14.2975 19.9858 14.2975 19.6811 14.1569 19.5053C14.0514 19.3705 14.0104 19.3647 13.1725 19.353C12.5456 19.3412 12.2174 19.3647 11.9831 19.4291Z" fill="#E65425"/>
<path d="M16.5885 19.4656C16.4772 19.5594 16.3951 19.7235 16.3248 19.9813L16.2194 20.3621L15.7213 20.3914C15.1588 20.4266 14.942 20.532 14.8834 20.7957C14.8424 20.9891 14.9713 21.2938 15.1178 21.3524C15.1705 21.3699 15.3697 21.3875 15.5631 21.3875C15.7506 21.3875 15.9088 21.4051 15.9088 21.4285C15.9088 21.4578 15.8736 21.5926 15.8268 21.7391L15.7506 22.0027L15.3346 22.032C14.8307 22.0672 14.6725 22.1844 14.6608 22.5301C14.6549 22.8289 14.8776 23.0281 15.2174 23.0281C15.4342 23.0281 15.4518 23.0399 15.4166 23.157C15.3287 23.4383 15.3111 23.7781 15.3756 23.8953C15.4694 24.077 15.8033 24.1707 16.0084 24.0711C16.1959 23.9832 16.2838 23.825 16.4127 23.3621L16.5006 23.0281H17.1627H17.8248L17.7311 23.3738C17.649 23.6902 17.649 23.7254 17.7486 23.8719C17.9303 24.159 18.3053 24.2059 18.5397 23.9715C18.5983 23.9129 18.692 23.6785 18.7506 23.45L18.8619 23.0281H19.3776C19.8522 23.0281 19.9108 23.0164 20.0397 22.8817C20.1861 22.741 20.2272 22.5008 20.151 22.2957C20.0924 22.1492 19.8053 22.032 19.483 22.032C19.1608 22.032 19.1608 22.032 19.2604 21.6512L19.3307 21.3875H19.7526C20.1393 21.3875 20.1861 21.3758 20.2975 21.2352C20.567 20.8953 20.3736 20.4852 19.9166 20.4149L19.6471 20.3738L19.694 20.1629C19.776 19.7938 19.7467 19.618 19.5768 19.4715C19.3717 19.2957 19.108 19.2957 18.9322 19.4715C18.8619 19.5418 18.7506 19.782 18.692 19.9988L18.5865 20.3914H17.9127C17.2975 20.3914 17.2447 20.3856 17.2858 20.286C17.3033 20.2332 17.3385 20.0692 17.3561 19.9227C17.3971 19.5945 17.2623 19.407 16.9576 19.3602C16.7936 19.3309 16.7174 19.3543 16.5885 19.4656ZM18.2057 21.7098L18.1178 22.032H17.444C16.8873 22.032 16.7819 22.0203 16.8053 21.95C16.8229 21.9031 16.8697 21.7567 16.9049 21.6277L16.9694 21.3875H17.6315H18.2936L18.2057 21.7098Z" fill="#E65425"/>
</svg>
