<svg width="31" height="30" viewBox="0 0 31 30" fill="none" xmlns="http://www.w3.org/2000/svg">
<g clip-path="url(#clip0_2003_35561)">
<path d="M25.5819 0.275391C24.9842 0.492188 25.0897 0.363281 21.5975 5.19727L20.783 6.32812H15.035C10.1365 6.32812 9.24005 6.33984 8.95294 6.41602C7.79279 6.71484 6.83771 7.72852 6.63263 8.87109C6.59747 9.06445 6.56818 9.60938 6.56818 10.084V10.9512L4.79279 10.9688L3.0174 10.9863L2.57208 11.209C1.91583 11.5312 1.50568 12.0352 1.31818 12.7441C1.25372 12.9727 1.23615 13.9102 1.23615 17.1738C1.23615 21.1523 1.242 21.3223 1.34747 21.4512C1.50568 21.6445 1.90411 21.6445 2.06232 21.4512C2.16779 21.3223 2.17365 21.1523 2.17365 17.2324C2.17365 12.75 2.16779 12.8438 2.52521 12.4102C2.62482 12.293 2.83575 12.1289 3.00568 12.0469L3.31036 11.8945H4.93927H6.56818V12.3926V12.8906H4.90411H3.23419L3.117 13.043C2.99396 13.2012 2.99396 13.2129 2.99396 19.6348V26.0742H2.5838H2.17365V24.7031C2.17365 23.4492 2.16193 23.3203 2.06232 23.1973C1.90411 23.0039 1.50568 23.0039 1.34747 23.1973C1.24786 23.3203 1.23615 23.4492 1.23615 24.7031V26.0742H0.831848C0.509583 26.0742 0.398254 26.0977 0.275208 26.1973L0.111145 26.3262L0.134583 27.2988C0.152161 28.1484 0.169739 28.3066 0.281067 28.5527C0.474426 28.9629 0.943176 29.4258 1.37091 29.625L1.73419 29.7949H13.0662H24.3983L24.5154 29.6367C24.6151 29.502 24.6268 29.4375 24.5799 29.2559C24.5447 29.1152 24.4744 29.0098 24.3807 28.9629C24.2635 28.9043 21.9432 28.8867 13.1424 28.8867C0.978333 28.8867 1.8338 28.9102 1.45294 28.5469C1.18341 28.2949 1.06622 28.002 1.02521 27.4863L0.984192 27.0117H6.88458H12.7791V27.1875C12.7791 27.5977 13.1131 28.0723 13.5701 28.3184C13.7928 28.4414 13.8807 28.4473 15.1229 28.4473C16.3651 28.4473 16.4529 28.4414 16.6756 28.3184C17.1326 28.0723 17.4666 27.5977 17.4666 27.1875V27.0117H23.3611H29.2615L29.2205 27.4863C29.1795 27.9902 29.0916 28.2305 28.8397 28.4941C28.5408 28.8223 28.4119 28.8516 27.3572 28.8867C26.2733 28.9219 26.2205 28.9395 26.1619 29.3027C26.1385 29.4551 26.1619 29.543 26.2557 29.666L26.3904 29.8359L27.451 29.8125C28.4764 29.7949 28.5233 29.7891 28.8748 29.625C29.3026 29.4258 29.7713 28.9629 29.9647 28.5527C30.076 28.3066 30.0936 28.1484 30.1111 27.2988L30.1346 26.3262L29.9705 26.1973C29.8475 26.0977 29.7361 26.0742 29.4139 26.0742H29.0096V19.5527C29.0096 14.3027 28.992 12.9785 28.9276 12.7441C28.7401 12.0352 28.3299 11.5312 27.6736 11.209L27.2283 10.9863L25.3651 10.9688L23.5018 10.9512V10.1016V9.24609L24.9139 7.28906C25.6932 6.21094 26.3494 5.33203 26.3729 5.33203C26.4315 5.33203 26.5486 5.66602 26.5486 5.83008C26.5486 6.10547 26.3846 6.38086 25.4002 7.74609C24.2986 9.27539 24.2401 9.39844 24.5154 9.65625C24.6912 9.82031 25.0252 9.82617 25.1717 9.66797C25.2244 9.60938 25.7166 8.94141 26.2615 8.19141C27.3924 6.63281 27.533 6.33984 27.4686 5.64844C27.4334 5.26758 27.2459 4.74609 27.0994 4.62305C26.9588 4.50586 27.0057 4.39453 27.4569 3.77344C28.0721 2.93555 28.16 2.72461 28.16 2.10938C28.16 1.69336 28.1365 1.55859 28.0076 1.2832C27.8201 0.884766 27.5213 0.580078 27.117 0.369141C26.7127 0.164062 26.0154 0.123047 25.5819 0.275391ZM26.66 1.19531C27.0701 1.41211 27.3104 1.875 27.2283 2.30859C27.199 2.46094 26.7654 3.12891 26.2322 3.84961C26.2205 3.86133 24.7733 2.81836 24.6912 2.73633C24.5799 2.63086 25.4764 1.38867 25.7752 1.23047C26.033 1.0957 26.4315 1.07812 26.66 1.19531ZM25.16 4.26562C25.4061 4.44141 25.6111 4.61719 25.6111 4.64648C25.6111 4.6875 20.0682 12.4102 19.9276 12.5625C19.8865 12.6035 18.5975 11.7305 18.3221 11.4844C18.2986 11.4551 19.5701 9.63867 21.1522 7.44727L24.035 3.45703L24.369 3.69727C24.5506 3.82617 24.908 4.08398 25.16 4.26562ZM19.9744 7.45312C19.5643 7.99805 17.244 11.2383 17.1912 11.3379C17.1561 11.4023 17.1151 12.0996 17.0975 12.8789L17.0565 14.3086L17.2264 14.4785C17.3201 14.5723 17.449 14.6484 17.5076 14.6484C17.5662 14.6426 18.2166 14.4258 18.9549 14.1621L20.3026 13.6816L21.3865 12.1758C21.9901 11.3496 22.4998 10.6523 22.5233 10.623C22.5467 10.5996 22.5643 11.8594 22.5526 13.418C22.535 16.2422 22.535 16.2598 22.4002 16.5527C22.0076 17.4023 21.3865 17.8535 20.4315 17.9766C20.1502 18.0117 20.0623 18.0469 19.9686 18.1758C19.869 18.3105 19.8572 18.375 19.9041 18.5566C19.9803 18.8848 20.1678 18.9551 20.7479 18.873C21.9315 18.7148 22.91 17.9238 23.3143 16.7988C23.4608 16.4004 23.4725 16.3008 23.4901 15.0996L23.5135 13.8281H24.9139H26.3143V19.9512V26.0742H15.1229H3.93146V19.9512V13.8281H5.24396H6.55646L6.5799 15.0996C6.59747 16.3008 6.60919 16.4004 6.75568 16.7988C7.1131 17.7949 7.95099 18.5566 8.9588 18.8145L9.26349 18.8906V20.6016C9.26349 21.5449 9.28107 22.3594 9.29865 22.4121C9.35724 22.5527 9.66193 22.6934 9.84357 22.6465C9.93732 22.623 10.6756 21.9316 11.8416 20.7715L13.6873 18.9258L15.9842 18.9141C18.5272 18.8965 18.4334 18.9082 18.4979 18.5098C18.5213 18.3574 18.4979 18.2695 18.4041 18.1465L18.2811 17.9883H15.7791H13.2772L11.742 19.5234L10.201 21.0645V19.6816C10.201 18.3691 10.1951 18.2871 10.0779 18.1406C9.99591 18.0352 9.90216 17.9883 9.7674 17.9883C9.48029 17.9883 8.91193 17.8242 8.62482 17.6543C8.2381 17.4316 7.92169 17.0801 7.72247 16.6523L7.53497 16.2598V12.627V8.99414L7.66974 8.66016C7.90997 8.06836 8.48419 7.54688 9.10529 7.35352C9.29865 7.28906 10.4529 7.27148 14.7361 7.27148L20.1151 7.26562L19.9744 7.45312ZM27.2401 12.0469C27.41 12.1289 27.6209 12.293 27.7205 12.4102C28.0897 12.8555 28.0721 12.5098 28.0721 19.6113V26.0742H27.6619H27.2518V19.6348C27.2518 13.2129 27.2518 13.2012 27.1287 13.043L27.0115 12.8906H25.2537H23.5018V12.3926V11.8945H25.2186H26.9354L27.2401 12.0469ZM18.7967 13.0078C18.867 13.0547 18.9315 13.1133 18.9315 13.1367C18.9315 13.1543 18.7557 13.2305 18.5389 13.3066C18.3162 13.377 18.117 13.4473 18.0819 13.459C18.0467 13.4707 18.0291 13.2949 18.0408 12.9785L18.0584 12.4746L18.3631 12.6973C18.533 12.8145 18.7264 12.9551 18.7967 13.0078ZM16.5291 27.1172C16.5291 27.1758 16.4588 27.2871 16.3768 27.3691C16.2303 27.5098 16.2127 27.5098 15.1229 27.5098C14.033 27.5098 14.0154 27.5098 13.869 27.3691C13.7869 27.2871 13.7166 27.1758 13.7166 27.1172C13.7166 27.0176 13.7986 27.0117 15.1229 27.0117C16.4471 27.0117 16.5291 27.0176 16.5291 27.1172Z" fill="#E65425"/>
<path d="M10.0896 10.7578C9.93729 10.9512 9.93143 11.1973 10.0779 11.373L10.1892 11.5137H12.867H15.5447L15.656 11.373C15.8025 11.1973 15.7967 10.9512 15.6443 10.7578L15.5271 10.6055H12.867H10.2068L10.0896 10.7578Z" fill="#E65425"/>
<path d="M10.0896 13.863C9.93729 14.0564 9.93143 14.3025 10.0779 14.4783L10.1892 14.6189L12.7322 14.6365C14.1267 14.6423 15.3279 14.6365 15.4041 14.6189C15.7498 14.531 15.8728 14.1501 15.6443 13.863L15.5271 13.7107H12.867H10.2068L10.0896 13.863Z" fill="#E65425"/>
</g>
<defs>
<clipPath id="clip0_2003_35561">
<rect width="30" height="30" fill="white" transform="translate(0.122864)"/>
</clipPath>
</defs>
</svg>
