<svg width="31" height="30" viewBox="0 0 31 30" fill="none" xmlns="http://www.w3.org/2000/svg">
<path d="M16.6948 1.55247C14.4214 1.85716 11.48 2.24974 10.1558 2.42552C7.56006 2.76537 7.48389 2.7888 7.03271 3.1931C6.75732 3.43919 6.50537 3.98997 6.49365 4.35326C6.48193 4.54662 6.45264 4.63451 6.38818 4.65208C4.61865 5.17357 2.6792 5.77708 2.50928 5.86497C1.9292 6.15794 1.56592 6.77318 1.56592 7.45872C1.56592 7.84544 1.81787 8.72435 4.53076 17.7243C6.15967 23.1384 7.53662 27.6794 7.5835 27.8142C7.81201 28.4177 8.47412 28.8806 9.18311 28.9275C9.54053 28.9509 9.69287 28.9216 10.8354 28.5759C11.5269 28.365 14.2573 27.5388 16.8999 26.7478L21.7046 25.3005L22.9058 25.1423C24.2183 24.9665 24.4937 24.8786 24.8862 24.5212C25.1616 24.281 25.3315 23.9529 25.4253 23.5193C25.4839 23.2497 25.4253 22.7283 24.9331 18.949C24.6226 16.5993 24.3647 14.5954 24.3589 14.4958C24.3472 14.3142 24.5054 14.0564 28.2378 8.34935C28.8062 7.4763 29.3218 6.65013 29.3745 6.50365C29.5269 6.12279 29.5151 5.45482 29.3569 5.02708C29.1929 4.59349 28.8062 4.17162 28.3784 3.95482C27.9097 3.72044 27.1948 3.67943 26.7026 3.86693C26.1401 4.07787 25.9058 4.35326 24.6636 6.25755C24.0366 7.22435 23.5151 8.00365 23.5034 7.99779C23.4976 7.99193 23.3218 6.71458 23.1167 5.16771C22.7886 2.6599 22.73 2.30833 22.5894 2.02708C22.3257 1.48802 21.7515 1.1013 21.1187 1.03685C20.9253 1.01341 19.4253 1.18919 16.6948 1.55247ZM21.4292 2.16185C21.5347 2.23216 21.6577 2.37279 21.7104 2.4724C21.769 2.57787 21.9624 3.87279 22.2437 5.96458L22.689 9.28685L21.5581 11.0154C20.937 11.9646 20.4214 12.7556 20.4097 12.7673C20.3979 12.779 19.4194 12.9138 18.2358 13.072C17.0522 13.2302 15.9917 13.3708 15.8862 13.3884C15.6226 13.4353 15.4644 13.6111 15.4644 13.8454C15.4644 14.1033 15.605 14.2849 15.8335 14.3201C15.939 14.3376 16.8413 14.238 17.8374 14.0974C18.8394 13.9568 19.6597 13.8513 19.6714 13.8572C19.6772 13.863 19.3374 14.4079 18.9038 15.0701C18.2358 16.0896 18.1011 16.3357 17.9897 16.7458C17.9136 17.0095 17.8198 17.2263 17.7847 17.2263C17.7495 17.2263 16.2729 17.4255 14.4976 17.6658C11.3394 18.0876 11.2749 18.0993 11.146 18.2517C11.0698 18.3337 11.0112 18.4685 11.0112 18.5505C11.0112 18.7087 11.2983 19.0427 11.4331 19.0427C11.48 19.0427 12.8276 18.8728 14.4272 18.6618C16.0327 18.4509 17.3745 18.281 17.4214 18.281C17.48 18.281 17.4448 18.4509 17.2983 18.9372C17.146 19.4353 17.105 19.6638 17.1284 19.8513C17.228 20.6072 17.8901 21.0701 18.646 20.906C18.8862 20.8591 19.0737 20.7185 20.0229 19.9099C20.6265 19.3943 21.23 18.8611 21.3706 18.7263C21.5112 18.5974 22.0386 17.8474 22.5425 17.0681C23.0464 16.2888 23.48 15.6677 23.4976 15.6911C23.5386 15.738 24.4878 22.9802 24.4878 23.238C24.4878 23.3376 24.4292 23.5076 24.3589 23.613C24.0894 24.0115 24.0718 24.0115 21.9917 24.2868C13.2085 25.447 10.9761 25.7283 10.7886 25.6931C10.519 25.6462 10.2202 25.3415 10.1382 25.0486C10.0679 24.7908 7.43701 4.78685 7.43701 4.5056C7.43701 4.1599 7.78271 3.73802 8.12256 3.66771C8.21631 3.65013 10.7124 3.31615 13.6772 2.92357C16.6421 2.53685 19.4136 2.16771 19.8296 2.10912C20.7964 1.97435 21.1831 1.98607 21.4292 2.16185ZM28.021 4.86302C28.3198 5.0681 28.4897 5.35521 28.519 5.70677C28.5425 5.99974 28.4722 6.2224 28.2495 6.55638C28.2026 6.61497 27.9976 6.50365 27.2769 6.0349L26.3628 5.43724L26.5386 5.18529C26.8784 4.6931 27.5581 4.54662 28.021 4.86302ZM7.07959 9.32787C9.13623 25.031 9.18311 25.365 9.31787 25.6462C9.61084 26.2556 10.2612 26.6599 10.9409 26.6599C11.1226 26.6599 12.1948 26.5427 13.3198 26.3962C14.439 26.2497 15.3823 26.1326 15.4116 26.1443C15.4585 26.1618 11.9663 27.2283 9.9624 27.8142C9.19482 28.0368 8.99561 28.0193 8.68506 27.7029C8.47998 27.4861 8.75537 28.3826 4.54248 14.3845C3.4292 10.6755 2.51514 7.55247 2.51514 7.44115C2.51514 7.20091 2.68506 6.90208 2.896 6.76146C3.04248 6.66771 6.30615 5.64232 6.49951 5.6306C6.57568 5.62474 6.66943 6.22826 7.07959 9.32787ZM26.7495 6.86107L27.6577 7.45872L27.5581 7.61107C27.312 7.99193 27.4058 8.00951 26.4155 7.36497L25.5015 6.76732L25.6538 6.51537C25.7358 6.3806 25.812 6.26927 25.8237 6.26927C25.8354 6.26927 26.2515 6.5388 26.7495 6.86107ZM25.894 8.18529C26.3745 8.50169 26.7671 8.78294 26.7554 8.80638C26.7495 8.83568 25.4604 10.8161 23.9019 13.2068L21.0601 17.5544L20.1812 16.9861C19.7007 16.6697 19.3022 16.3767 19.3022 16.3298C19.3022 16.2361 24.9097 7.62279 24.9741 7.61693C24.9976 7.61693 25.4136 7.87474 25.894 8.18529ZM19.5835 17.7595C19.9761 18.0232 20.3101 18.2458 20.3218 18.2576C20.3569 18.2868 20.1577 18.5036 19.8999 18.7029L19.6831 18.8786L19.4429 18.6618C19.3081 18.5388 19.0562 18.3806 18.8862 18.2986C18.7104 18.2224 18.5698 18.1345 18.5698 18.1052C18.5698 18.0173 18.8101 17.2849 18.8394 17.2849C18.8511 17.2849 19.1909 17.5017 19.5835 17.7595ZM18.4995 19.1833C18.5874 19.2302 18.7163 19.3298 18.7925 19.4118L18.9272 19.5525L18.6812 19.7693C18.3999 20.0095 18.2593 20.0329 18.1421 19.863C18.0718 19.7576 18.0718 19.699 18.1479 19.4236C18.1948 19.2478 18.2593 19.1013 18.2886 19.1013C18.3179 19.1013 18.4116 19.1365 18.4995 19.1833Z" fill="#E65425"/>
<path d="M16.0269 5.12727C12.646 5.57844 12.3882 5.61946 12.2886 5.74251C12.0952 5.98274 12.1597 6.34016 12.4234 6.47493C12.5698 6.5511 12.9038 6.5218 16.1499 6.09407C20.3687 5.54329 20.064 5.59016 20.2105 5.43782C20.4858 5.13899 20.2515 4.62336 19.8472 4.63508C19.7417 4.64094 18.0191 4.8636 16.0269 5.12727Z" fill="#E65425"/>
<path d="M15.1714 9.34473C10.5659 9.96582 10.2143 10.0186 10.1206 10.1357C9.92137 10.3818 10.0093 10.7979 10.2847 10.8975C10.4077 10.9443 14.6265 10.4229 19.9409 9.69629C20.4448 9.62598 20.6147 9.57911 20.7202 9.4795C21.0307 9.18653 20.7905 8.66504 20.3452 8.67676C20.2222 8.68262 17.896 8.98145 15.1714 9.34473Z" fill="#E65425"/>
<path d="M11.7144 13.9163C10.8237 14.0393 10.7417 14.0627 10.6187 14.2034C10.5425 14.2913 10.4839 14.426 10.4839 14.4963C10.4839 14.6604 10.6772 14.9182 10.8296 14.9709C10.9233 15.0002 12.3003 14.8479 12.9917 14.7307C13.6011 14.6311 13.5249 13.7581 12.9038 13.7756C12.7808 13.7815 12.2476 13.8459 11.7144 13.9163Z" fill="#E65425"/>
<path d="M13.5308 21.9141C12.646 22.0372 11.8726 22.1544 11.814 22.1778C11.6851 22.2305 11.5972 22.3887 11.5972 22.5821C11.5972 22.8047 11.6558 22.9044 11.8315 22.9981C11.978 23.0743 12.1831 23.0626 13.8354 22.8516C15.8804 22.5879 15.9507 22.5704 15.98 22.1778C15.9976 22.0137 15.9683 21.9258 15.8687 21.8204C15.6929 21.6329 15.5288 21.6387 13.5308 21.9141Z" fill="#E65425"/>
</svg>
