<svg width="31" height="30" viewBox="0 0 31 30" fill="none" xmlns="http://www.w3.org/2000/svg">
<g clip-path="url(#clip0_2003_35516)">
<path d="M3.03809 0.505863C2.45801 0.664066 2.08887 0.980473 1.81934 1.55469L1.65527 1.90625V15.002V28.0977L1.84863 28.4902C2.07129 28.9414 2.43457 29.2988 2.84473 29.457C3.1084 29.5566 3.68262 29.5625 15.7705 29.5801C26.8037 29.5918 28.4678 29.5801 28.7666 29.5039C29.376 29.3516 29.751 29.0293 30.0381 28.4199L30.1904 28.0977V15.002V1.90625L29.9971 1.51368C29.7744 1.0625 29.4111 0.705082 29.001 0.546879C28.7373 0.447269 28.1631 0.44141 16.04 0.429691C5.06543 0.417973 3.31348 0.429691 3.03809 0.505863ZM28.5498 1.41407C28.8428 1.4961 29.1357 1.78907 29.2178 2.08204C29.2588 2.22852 29.2822 2.92579 29.2822 3.88086V5.45118H15.9521H2.62207V3.75196C2.62207 1.94727 2.63379 1.8711 2.90332 1.625C3.21387 1.34375 2.68066 1.35547 15.8936 1.34961C24.7354 1.34961 28.3799 1.36719 28.5498 1.41407ZM29.2236 17.1934V27.9922L29.0889 28.1856C29.0186 28.2969 28.8662 28.4375 28.7549 28.502C28.5498 28.625 28.5381 28.625 16.0459 28.6426C7.10449 28.6484 3.47754 28.6367 3.30762 28.5898C3.00293 28.5078 2.70996 28.2207 2.62793 27.9219C2.58105 27.7578 2.56348 24.5879 2.56348 17.0352V6.38868H15.8936H29.2236V17.1934Z" fill="#E65425"/>
<path d="M5.22365 3.07227C5.00685 3.25391 4.99513 3.59961 5.19435 3.75781C5.32326 3.86328 5.5049 3.86914 9.15529 3.86914C12.7412 3.86914 12.9873 3.86328 13.1104 3.76367C13.3096 3.60547 13.2979 3.24805 13.0869 3.07227L12.9287 2.93164H9.15529H5.38185L5.22365 3.07227Z" fill="#E65425"/>
<path d="M19.5146 2.99023C19.2392 3.10156 19.1748 3.5293 19.3975 3.74023C19.5205 3.85742 19.5967 3.86914 20.2646 3.86914C20.956 3.86914 21.0088 3.86328 21.126 3.73438C21.2842 3.56445 21.29 3.2832 21.1435 3.10156C21.0381 2.9668 20.9853 2.96094 20.335 2.94922C19.9541 2.9375 19.585 2.96094 19.5146 2.99023Z" fill="#E65425"/>
<path d="M22.3271 2.99023C22.0517 3.10156 21.9873 3.5293 22.21 3.74023C22.333 3.85742 22.4092 3.86914 23.083 3.86914C23.8154 3.86914 23.8271 3.86914 23.9443 3.7168C24.0967 3.52344 24.1025 3.27734 23.956 3.10156C23.8506 2.9668 23.7978 2.96094 23.1475 2.94922C22.7666 2.9375 22.3975 2.96094 22.3271 2.99023Z" fill="#E65425"/>
<path d="M25.1396 2.99023C24.8642 3.10156 24.7998 3.5293 25.0225 3.74023C25.1455 3.85742 25.2217 3.86914 25.8955 3.86914C26.6279 3.86914 26.6396 3.86914 26.7568 3.7168C26.9092 3.52344 26.915 3.27734 26.7685 3.10156C26.6631 2.9668 26.6103 2.96094 25.96 2.94922C25.5791 2.9375 25.21 2.96094 25.1396 2.99023Z" fill="#E65425"/>
<path d="M20.9619 7.3495C19.8076 7.5956 19.4326 7.86513 17.417 9.91005C15.6416 11.7089 15.4658 11.9315 15.1787 12.8046C15.0381 13.2206 15.0205 13.3612 15.0205 14.0936C15.0205 14.9198 15.0498 15.0897 15.3545 15.8222C15.3779 15.8808 15.2432 16.0683 14.9678 16.3671L14.54 16.8241L13.9893 16.6308C13.4678 16.455 13.3857 16.4433 12.6416 16.4433C11.9443 16.4433 11.7979 16.4608 11.3818 16.6015C10.4912 16.9003 10.2979 17.0468 8.39355 18.9569C6.54199 20.8085 6.37207 21.0136 6.10254 21.787C5.71582 22.912 5.78613 24.0429 6.3252 25.1386C6.6416 25.789 7.4209 26.5917 8.04199 26.9081C9.17871 27.494 10.4326 27.5702 11.5986 27.1308C12.2783 26.8788 12.7236 26.5097 14.4346 24.7811C16.2217 22.9765 16.3799 22.7714 16.667 21.869C16.9424 21.0194 16.9014 19.8417 16.5732 19.0917L16.4619 18.8397L16.9248 18.3651L17.3936 17.8964L17.9033 18.0722C18.3721 18.2362 18.4717 18.2479 19.2041 18.2479C19.8955 18.2479 20.0537 18.2304 20.4463 18.0956C21.3838 17.7851 21.5479 17.6561 23.4521 15.7401C25.3564 13.83 25.5146 13.6366 25.8076 12.746C25.9482 12.33 25.9658 12.1893 25.9658 11.4569C25.9658 10.7069 25.9541 10.5956 25.8018 10.1679C25.3271 8.79677 24.3721 7.87685 22.9834 7.44911C22.4561 7.28505 21.4951 7.23817 20.9619 7.3495ZM22.4561 8.29286C23.0303 8.41591 23.54 8.68544 23.9795 9.08974C25.0869 10.1327 25.3564 11.5624 24.7002 12.9335C24.5361 13.2851 24.3193 13.5253 22.8955 14.9608C22.0107 15.8573 21.1377 16.6893 20.9619 16.8065C20.2822 17.2577 19.3916 17.4393 18.5947 17.287C18.3838 17.246 18.1963 17.1991 18.1787 17.1757C18.167 17.1522 18.3018 16.9706 18.4775 16.7772C18.7822 16.4315 18.7998 16.4198 19.0283 16.4491C19.1572 16.4667 19.4268 16.4491 19.626 16.4081C20.3174 16.2792 20.5225 16.1151 22.21 14.4276C23.8975 12.7343 23.9971 12.5995 24.1377 11.8436C24.3193 10.8651 23.7334 9.76942 22.79 9.32997C22.4912 9.18935 22.3916 9.17177 21.7822 9.17177C20.751 9.17177 20.71 9.20107 18.7939 11.1288C17.1064 12.8222 16.9951 12.9628 16.8604 13.7069C16.8252 13.9179 16.8076 14.1698 16.8252 14.2694C16.8545 14.4276 16.8252 14.4862 16.4854 14.8202L16.1104 15.1952L16.04 14.9667C15.917 14.5507 15.9053 13.8358 16.0049 13.3964C16.21 12.5351 16.3682 12.3241 18.2021 10.4843C19.7607 8.92567 19.9131 8.79091 20.3291 8.58583C21.0791 8.21669 21.7002 8.13466 22.4561 8.29286ZM22.3975 10.2206C22.9131 10.455 23.2061 10.9179 23.2061 11.4862C23.2061 12.0194 23.0713 12.2069 21.5244 13.7597C20.751 14.5448 20.0654 15.2128 20.0127 15.2421C19.9248 15.289 19.9248 15.2714 20.0244 15.0487C20.1709 14.7265 20.1768 14.2284 20.0303 13.9179C19.8955 13.6308 19.5967 13.3378 19.3096 13.2206C19.0342 13.1034 18.501 13.1034 18.2373 13.2147C18.0439 13.2909 18.0322 13.2909 18.085 13.1972C18.1143 13.1444 18.7705 12.4706 19.5381 11.7089C20.5342 10.7186 21.0088 10.285 21.1963 10.203C21.5596 10.039 22.0225 10.0448 22.3975 10.2206ZM19.0811 14.2167C19.333 14.539 19.3564 14.5038 16.9072 17.0058C15.6416 18.2948 14.3584 19.6073 14.0654 19.9237C13.5088 20.5097 13.2979 20.6503 13.0693 20.5624C12.8818 20.4921 12.7412 20.246 12.7822 20.0702C12.8057 19.9882 14.0127 18.7108 15.6943 16.994C18.3545 14.287 18.583 14.0643 18.7646 14.0643C18.9053 14.0643 18.9932 14.1054 19.0811 14.2167ZM13.415 17.4393L13.8252 17.5331L13.4619 17.9022C13.1104 18.2597 13.0928 18.2655 12.8408 18.2362C12.501 18.2011 11.9268 18.3183 11.5576 18.4999C11.3408 18.6054 10.8369 19.0741 9.67676 20.2401C7.94238 21.9745 7.8252 22.1268 7.73145 22.8358C7.58496 23.9022 8.10059 24.8866 9.03809 25.3495C9.36035 25.5077 9.44238 25.5194 10.0342 25.5194C10.6436 25.5194 10.7021 25.5077 11.0889 25.3261C11.4463 25.1561 11.6514 24.9745 12.9229 23.7147C13.708 22.9354 14.4404 22.1679 14.5576 22.0155C14.8447 21.6229 14.9912 21.2011 15.0205 20.6854L15.0381 20.2518L15.3896 19.9003L15.7354 19.5546L15.7998 19.7831C16.0107 20.5097 15.9229 21.3124 15.5596 22.0507C15.3369 22.5018 15.2256 22.6308 13.6436 24.2069C12.0205 25.8358 11.9502 25.8944 11.4697 26.1229C10.7139 26.4862 10.1514 26.5565 9.38965 26.3983C8.74512 26.2636 8.28223 25.9999 7.77246 25.496C6.72949 24.453 6.50098 23.0585 7.16309 21.7343C7.35645 21.3417 7.53809 21.1425 9.08496 19.5956C10.585 18.1073 10.8428 17.8729 11.1826 17.7089C11.9209 17.3515 12.6475 17.2636 13.415 17.4393ZM11.9619 19.5194C11.71 20.0116 11.8271 20.7323 12.2197 21.1073C12.6006 21.4706 12.9814 21.5936 13.4619 21.5058C13.6084 21.4765 13.7373 21.4706 13.7549 21.4823C13.7666 21.4999 13.1455 22.1444 12.3779 22.9179C10.8252 24.4706 10.6201 24.6171 10.0459 24.6171C9.6709 24.6171 9.40137 24.5175 9.1084 24.2655C8.64551 23.8554 8.50488 23.1522 8.77441 22.619C8.96191 22.2382 11.8506 19.3378 12.0381 19.3378C12.0498 19.3378 12.0146 19.4198 11.9619 19.5194Z" fill="#E65425"/>
<path d="M5.22365 9.10702C5.00685 9.28866 4.99513 9.63436 5.19435 9.79257C5.32326 9.89804 5.45216 9.90389 7.44435 9.89218L9.55372 9.8746L9.67091 9.71639C9.7588 9.59921 9.77638 9.51132 9.74708 9.35311C9.67677 8.97225 9.62404 8.96639 7.37404 8.96639H5.38185L5.22365 9.10702Z" fill="#E65425"/>
<path d="M5.22365 11.3867C5.00685 11.5742 4.99513 11.9141 5.19435 12.0781C5.32326 12.1836 5.46388 12.1895 7.42677 12.1895H9.53029L9.64747 12.0371C9.79982 11.8438 9.80568 11.5977 9.65919 11.4219L9.54786 11.2812L7.46779 11.2637L5.38771 11.2461L5.22365 11.3867Z" fill="#E65425"/>
</g>
<defs>
<clipPath id="clip0_2003_35516">
<rect width="30" height="30" fill="white" transform="translate(0.922852 0.00195312)"/>
</clipPath>
</defs>
</svg>
