<svg width="31" height="30" viewBox="0 0 31 30" fill="none" xmlns="http://www.w3.org/2000/svg">
<g clip-path="url(#clip0_2003_35678)">
<path d="M1.73579 2.42578C1.21431 2.61328 0.81001 3.01758 0.610791 3.5332C0.52876 3.75586 0.522901 4.73438 0.53462 13.2129L0.552198 22.6465L0.686963 22.8984C0.868604 23.2383 1.20259 23.5664 1.55415 23.7363L1.84126 23.877L6.54048 23.8945L11.2397 23.9062L11.2163 24.0703C11.1752 24.2754 10.894 26.5605 10.894 26.6484C10.894 26.7012 10.6831 26.7188 10.1674 26.7188C9.40571 26.7188 9.11275 26.7773 9.019 26.9531C8.92525 27.1348 8.95454 27.416 9.07759 27.5391C9.19478 27.6562 9.27095 27.6562 15.5229 27.6562C21.7749 27.6562 21.851 27.6562 21.9682 27.5391C22.0913 27.416 22.1206 27.1348 22.0268 26.9531C21.9331 26.7773 21.6401 26.7188 20.8784 26.7188C20.3627 26.7188 20.1518 26.7012 20.1518 26.6484C20.1518 26.5605 19.8706 24.2754 19.8295 24.0703L19.8061 23.9062L24.5053 23.8945L29.2045 23.877L29.4916 23.7363C29.8432 23.5664 30.1772 23.2383 30.3588 22.8984L30.4936 22.6465V13.125V3.60352L30.3237 3.29297C30.1303 2.94141 29.8784 2.70117 29.5092 2.50781L29.2631 2.37305L15.6108 2.36133C4.23189 2.34961 1.92329 2.36133 1.73579 2.42578ZM29.0991 3.38086C29.2104 3.43359 29.3745 3.58008 29.4565 3.70898L29.6147 3.94922V13.0898V22.2363L29.4916 22.4707C29.4213 22.6113 29.2749 22.7578 29.1401 22.834L28.9116 22.9688H15.5229H2.13423L1.90571 22.834C1.77095 22.7578 1.62446 22.6113 1.55415 22.4707L1.4311 22.2363V13.0898V3.94922L1.58345 3.71484C1.89985 3.24023 0.53462 3.28125 15.5112 3.28125C27.851 3.28125 28.9116 3.28711 29.0991 3.38086ZM13.8471 24.3398C14.0698 25.2832 14.6499 25.7812 15.5229 25.7812C16.3959 25.7812 16.976 25.2832 17.1987 24.3398L17.3042 23.9062H18.0776H18.851L18.8862 24.123C18.9038 24.2461 18.9741 24.7793 19.0385 25.3125C19.103 25.8457 19.1733 26.3789 19.1909 26.4961L19.226 26.7188H15.5229H11.8198L11.8549 26.4961C11.8725 26.3789 11.9428 25.8457 12.0073 25.3125C12.0717 24.7793 12.142 24.2461 12.1596 24.123L12.1948 23.9062H12.9682H13.7417L13.8471 24.3398ZM16.2729 24.123C16.1381 24.627 15.9096 24.8438 15.5229 24.8438C15.1362 24.8438 14.9077 24.627 14.7729 24.123L14.7143 23.9062H15.5229H16.3315L16.2729 24.123Z" fill="#E65425"/>
<path d="M2.51514 4.33594C2.39795 4.45312 2.39795 4.5293 2.39795 13.125C2.39795 21.7207 2.39795 21.7969 2.51514 21.9141C2.62061 22.0195 2.7085 22.0312 3.28271 22.0312C3.64014 22.0312 3.97998 22.0078 4.03857 21.9727C4.18506 21.8965 4.27881 21.5918 4.21436 21.4219C4.13232 21.2051 3.92725 21.0938 3.6167 21.0938H3.33545V13.125V5.15625L14.4741 5.14453L25.6128 5.12695L25.7241 4.98633C25.8706 4.80469 25.8706 4.48828 25.7183 4.33594C25.6011 4.21875 25.5249 4.21875 14.1167 4.21875C2.7085 4.21875 2.63232 4.21875 2.51514 4.33594Z" fill="#E65425"/>
<path d="M26.9429 4.33008C26.8491 4.40625 26.8081 4.5 26.8081 4.65234C26.8081 4.96289 26.978 5.10938 27.3823 5.14453L27.7105 5.16797V13.1309V21.0938H16.6128H5.521L5.36279 21.2168C5.16944 21.3691 5.146 21.7324 5.32764 21.9141C5.44483 22.0312 5.521 22.0312 16.9292 22.0312C28.3374 22.0312 28.4136 22.0312 28.5308 21.9141C28.648 21.7969 28.648 21.7207 28.648 13.125C28.648 4.5293 28.648 4.45312 28.5308 4.33594C28.4253 4.23047 28.3374 4.21875 27.7456 4.21875C27.1831 4.21875 27.0601 4.23633 26.9429 4.33008Z" fill="#E65425"/>
<path d="M8.62056 7.16543C8.49166 7.3002 8.4565 7.51699 8.52681 7.70449C8.55025 7.75723 8.87838 8.00918 9.25924 8.26113C9.63424 8.51895 9.96236 8.7709 9.97994 8.82949C9.99752 8.88809 10.3549 10.1479 10.7768 11.6303C11.1987 13.1127 11.5971 14.4486 11.6616 14.5951L11.7846 14.8646L11.4565 15.515C11.0815 16.2592 11.0463 16.5111 11.2573 16.8803C11.3276 17.0092 11.4038 17.1088 11.4272 17.1088C11.4506 17.1088 11.4272 17.2201 11.3803 17.3549C10.9702 18.5326 12.2124 19.6225 13.3256 19.0717C13.8647 18.808 14.1635 18.2689 14.0991 17.6596L14.0639 17.3432H15.9917H17.9194L17.8842 17.6596C17.8198 18.2631 18.1128 18.8021 18.6401 19.0658C19.3491 19.4174 20.2104 19.1361 20.5385 18.433C20.6909 18.1107 20.726 17.6479 20.6206 17.3666C20.5737 17.2553 20.5737 17.1908 20.6206 17.1439C20.7319 17.0326 20.685 16.6986 20.5327 16.5521L20.392 16.4057H16.226H12.0659L12.3295 15.8783L12.5932 15.351H12.9331C13.5717 15.351 19.396 14.642 19.7182 14.5189C20.1225 14.3725 20.521 14.0092 20.7026 13.6342C20.8022 13.4291 20.9721 12.7084 21.2299 11.3959C21.4467 10.3295 21.6167 9.39199 21.6167 9.30996C21.6167 9.22793 21.5522 9.10488 21.4819 9.02871C21.3471 8.90566 21.2592 8.89981 16.103 8.66543C13.0971 8.53066 10.8588 8.40176 10.8471 8.37246C10.7768 8.19082 10.4311 7.89199 9.82174 7.4877C9.0483 6.98379 8.84322 6.9252 8.62056 7.16543ZM12.4467 9.43301H12.8042L12.9506 10.3412L13.0971 11.2494H12.3823H11.6616L11.5385 10.8393C11.4741 10.6107 11.3686 10.2357 11.2983 10.0014C11.2338 9.77285 11.1635 9.52676 11.146 9.46816C11.1167 9.3627 11.1401 9.35684 11.603 9.39199C11.8725 9.41543 12.2534 9.43301 12.4467 9.43301ZM15.0952 9.5502H15.5229V10.3998V11.2494H14.7963H14.0698L14.0346 11.0854C14.017 10.9975 13.9643 10.6752 13.9116 10.3705C13.8588 10.0658 13.8061 9.7377 13.7885 9.64395L13.7534 9.47402L14.2045 9.50918C14.4565 9.53262 14.8549 9.5502 15.0952 9.5502ZM17.6499 9.66738H18.1186L18.0776 10.2357C18.0542 10.5521 18.019 10.9096 18.0014 11.0268L17.9663 11.2494H17.2163H16.4604V10.4232V9.59121L16.8178 9.63223C17.017 9.64981 17.392 9.66738 17.6499 9.66738ZM20.5561 9.81973C20.5678 9.83145 20.5151 10.1537 20.4389 10.5463L20.3042 11.2494H19.6069C18.9096 11.2494 18.9096 11.2494 18.9389 11.1146C18.9565 11.0443 18.9917 10.7045 19.0151 10.3588L19.0561 9.73184L19.7944 9.76699C20.1987 9.78457 20.5444 9.80801 20.5561 9.81973ZM13.4253 13.1537C13.5131 13.6693 13.5835 14.1498 13.5835 14.2201C13.5893 14.3607 13.4545 14.4076 13.0151 14.4252C12.6167 14.4369 12.5288 14.3021 12.2182 13.2123C12.0717 12.6967 11.9487 12.2572 11.9487 12.2279C11.9487 12.2045 12.2417 12.1928 12.6049 12.1986L13.2612 12.2162L13.4253 13.1537ZM15.5229 13.1479C15.5229 13.6811 15.5053 14.1264 15.4819 14.1381C15.4526 14.1557 15.2358 14.185 14.9897 14.2025L14.5503 14.2436L14.392 13.2592C14.3042 12.7201 14.2338 12.2572 14.2338 12.2279C14.2338 12.2045 14.5268 12.1869 14.8784 12.1869H15.5229V13.1479ZM17.8256 13.0189C17.7846 13.476 17.7378 13.8568 17.7319 13.8627C17.7085 13.8861 16.7534 14.0033 16.5952 14.0033C16.4604 14.0033 16.4604 14.0033 16.4604 13.0951V12.1869H17.1811H17.9018L17.8256 13.0189ZM20.0932 12.2396C20.0932 12.2689 20.0522 12.4857 20.0053 12.7201C19.8588 13.3998 19.6128 13.64 18.9624 13.7396C18.7045 13.7748 18.6811 13.7689 18.7045 13.6693C18.7221 13.6107 18.7514 13.3236 18.7749 13.0365C18.7924 12.7436 18.8217 12.4389 18.8393 12.3451L18.8745 12.1869H19.4838C19.8237 12.1869 20.0932 12.2104 20.0932 12.2396ZM13.0092 17.5131C13.1909 17.7006 13.2143 17.8061 13.1088 18.0053C12.9506 18.31 12.6225 18.3686 12.3881 18.1342C12.1538 17.9057 12.2065 17.5834 12.5053 17.4135C12.6928 17.308 12.8276 17.3314 13.0092 17.5131ZM19.4663 17.4135C19.771 17.5717 19.8295 17.8998 19.5952 18.1342C19.3608 18.3686 19.0327 18.31 18.8745 18.0053C18.769 17.8061 18.7924 17.7006 18.9741 17.5131C19.1616 17.3314 19.267 17.308 19.4663 17.4135Z" fill="#E65425"/>
</g>
<defs>
<clipPath id="clip0_2003_35678">
<rect width="30" height="30" fill="white" transform="translate(0.522949)"/>
</clipPath>
</defs>
</svg>
