<svg width="29" height="30" viewBox="0 0 29 30" fill="none" xmlns="http://www.w3.org/2000/svg">
<path d="M1.58862 0.954597C1.26049 1.02491 1.04955 1.1421 0.826898 1.37647C0.42846 1.79249 0.457757 0.644049 0.457757 15.0171C0.457757 26.6421 0.469476 28.0542 0.551507 28.2476C0.668694 28.5347 0.961663 28.8335 1.24877 28.9683C1.47143 29.0737 1.84643 29.0796 10.7585 29.0796C21.0007 29.0796 20.2449 29.1089 20.6667 28.7105C21.0593 28.3355 21.0828 28.2241 21.0828 26.5718C21.0828 25.1714 21.0769 25.0894 20.9656 24.978C20.8132 24.8257 20.4441 24.8198 20.2566 24.9722C20.116 25.0835 20.116 25.1011 20.0867 26.5015C20.0574 27.814 20.0515 27.9253 19.946 28.0015C19.8464 28.0718 18.4929 28.0835 10.7585 28.0835C1.7644 28.0835 1.68823 28.0835 1.57104 27.9663C1.45385 27.8491 1.45385 27.773 1.45385 14.9995V2.14405L1.5769 2.03272C1.69409 1.92725 1.91674 1.92139 9.0476 1.90382L16.3953 1.8921V3.23975C16.3953 4.73389 16.4187 4.8628 16.7644 5.22608C17.1335 5.6128 17.2624 5.6421 18.7566 5.6421H20.0867V10.3237C20.0867 13.5874 20.1042 15.0581 20.1511 15.187C20.1863 15.2866 20.2624 15.398 20.321 15.4273C20.5085 15.5269 20.8367 15.4976 20.9656 15.3687C21.0828 15.2515 21.0828 15.1753 21.0828 10.0835V4.90968L19.1023 2.93507L17.1277 0.954597H15.1003C13.9871 0.954597 10.5476 0.942879 7.45385 0.925301C4.19018 0.913582 1.7351 0.919441 1.58862 0.954597ZM18.698 4.69288C17.3972 4.72803 17.3914 4.72218 17.3914 3.5503V2.68311L18.3874 3.67921L19.3835 4.6753L18.698 4.69288Z" fill="#E65425"/>
<path d="M6.63354 4.82812C6.56909 4.9043 6.52222 5.0332 6.52222 5.17383C6.52222 5.31445 6.56909 5.44336 6.63354 5.51953C6.74487 5.64258 6.77417 5.64258 10.5359 5.64258C14.2976 5.64258 14.3269 5.64258 14.4382 5.51953C14.5847 5.36133 14.5847 4.98633 14.4382 4.82812C14.3269 4.70508 14.2976 4.70508 10.5359 4.70508C6.77417 4.70508 6.74487 4.70508 6.63354 4.82812Z" fill="#E65425"/>
<path d="M3.38159 7.62891C3.20581 7.76953 3.18823 8.15039 3.35229 8.33203C3.46362 8.45508 3.46948 8.45508 8.89526 8.45508C14.321 8.45508 14.3269 8.45508 14.4382 8.33203C14.5847 8.17383 14.5847 7.79883 14.4382 7.64062C14.3269 7.51758 14.321 7.51758 8.92456 7.51758C3.70385 7.51758 3.51049 7.52344 3.38159 7.62891Z" fill="#E65425"/>
<path d="M15.5398 7.64062C15.4753 7.7168 15.4285 7.8457 15.4285 7.98633C15.4285 8.12695 15.4753 8.25586 15.5398 8.33203C15.6453 8.44922 15.7097 8.45508 16.864 8.45508C18.0183 8.45508 18.0828 8.44922 18.1882 8.33203C18.3347 8.17383 18.3347 7.79883 18.1882 7.64062C18.0828 7.52344 18.0183 7.51758 16.864 7.51758C15.7097 7.51758 15.6453 7.52344 15.5398 7.64062Z" fill="#E65425"/>
<path d="M3.38159 10.4414C3.20581 10.582 3.18823 10.9629 3.35229 11.1445L3.46362 11.2676H10.7703H18.0769L18.1882 11.1445C18.3347 10.9863 18.3347 10.6113 18.1882 10.4531L18.0769 10.3301H10.7996C3.73901 10.3301 3.51049 10.3359 3.38159 10.4414Z" fill="#E65425"/>
<path d="M25.6414 12.3398C25.4597 12.416 25.2078 12.5625 25.0847 12.6621C24.9617 12.7617 22.7527 14.959 20.1687 17.5488L15.4753 22.2539L14.9949 23.9355C14.7371 24.8613 14.5203 25.7109 14.5203 25.8281C14.5203 26.0977 14.6902 26.2676 14.9597 26.2676C15.0769 26.2676 15.9265 26.0508 16.8523 25.793L18.5339 25.3125L23.2156 20.6484C25.7878 18.082 27.991 15.8613 28.114 15.709C28.4363 15.3047 28.5886 14.8594 28.5886 14.3145C28.5886 13.7168 28.4304 13.3008 28.0496 12.8789C27.616 12.4102 27.2351 12.2402 26.532 12.2168C26.0515 12.2051 25.9285 12.2227 25.6414 12.3398ZM27.03 13.3359C27.1531 13.4062 27.323 13.5527 27.3933 13.6641C27.739 14.1738 27.6863 14.666 27.2292 15.1523L26.948 15.457L26.1394 14.6543L25.3367 13.8457L25.5652 13.6055C25.6941 13.4766 25.8523 13.3359 25.9167 13.3008C26.2566 13.1191 26.6492 13.1309 27.03 13.3359ZM24.8328 14.8125L25.032 15.0234L21.0652 18.9902L17.0984 22.957L16.8816 22.7344L16.6589 22.5176L20.614 18.5625C22.7878 16.3887 24.5808 14.6074 24.6042 14.6074C24.6218 14.6074 24.7214 14.7012 24.8328 14.8125ZM26.0046 15.9844L26.2039 16.1953L22.2371 20.1621L18.2703 24.1289L18.0535 23.9062L17.8308 23.6895L21.7859 19.7344C23.9597 17.5605 25.7527 15.7793 25.7761 15.7793C25.7937 15.7793 25.8933 15.873 26.0046 15.9844ZM17.198 24.6328C17.0691 24.7031 15.7976 25.0488 15.7683 25.0195C15.7566 25.002 15.7976 24.8086 15.8562 24.5859C15.9207 24.3691 16.0203 24.0293 16.073 23.8418L16.1667 23.4961L16.7234 24.0469C17.0808 24.4043 17.2449 24.6094 17.198 24.6328Z" fill="#E65425"/>
<path d="M3.38745 13.2715C3.22925 13.4414 3.22925 13.8047 3.38745 13.9629C3.49878 14.0742 3.58081 14.0801 4.70581 14.0801C5.86011 14.0801 5.90698 14.0742 6.02417 13.9512C6.18823 13.7695 6.18237 13.4355 6.00659 13.2715C5.87769 13.1484 5.81909 13.1426 4.68823 13.1426C3.55151 13.1426 3.50464 13.1484 3.38745 13.2715Z" fill="#E65425"/>
<path d="M7.13745 13.2598C7.06128 13.3359 7.02026 13.4531 7.02026 13.6113C7.02026 13.7695 7.06128 13.8867 7.13745 13.9629C7.25464 14.0801 7.33081 14.0801 12.6746 14.0801C18.0183 14.0801 18.0945 14.0801 18.2117 13.9629C18.2878 13.8867 18.3289 13.7695 18.3289 13.6113C18.3289 13.4531 18.2878 13.3359 18.2117 13.2598C18.0945 13.1426 18.0183 13.1426 12.6746 13.1426C7.33081 13.1426 7.25464 13.1426 7.13745 13.2598Z" fill="#E65425"/>
<path d="M3.35229 16.0781C3.28784 16.1543 3.24097 16.2832 3.24097 16.4238C3.24097 16.5645 3.28784 16.6934 3.35229 16.7695L3.46362 16.8926H10.7703H18.0769L18.1882 16.7695C18.3347 16.6113 18.3347 16.2363 18.1882 16.0781L18.0769 15.9551H10.7703H3.46362L3.35229 16.0781Z" fill="#E65425"/>
<path d="M3.35229 18.8906C3.28784 18.9668 3.24097 19.0957 3.24097 19.2363C3.24097 19.377 3.28784 19.5059 3.35229 19.582C3.46362 19.7051 3.4812 19.7051 7.95776 19.7051C12.4343 19.7051 12.4519 19.7051 12.5632 19.582C12.7097 19.4238 12.7097 19.0488 12.5632 18.8906C12.4519 18.7676 12.4343 18.7676 7.95776 18.7676C3.4812 18.7676 3.46362 18.7676 3.35229 18.8906Z" fill="#E65425"/>
<path d="M13.6648 18.8906C13.6003 18.9668 13.5535 19.0957 13.5535 19.2363C13.5535 19.377 13.6003 19.5059 13.6648 19.582C13.7703 19.6992 13.8347 19.7051 14.989 19.7051C16.1433 19.7051 16.2078 19.6992 16.3132 19.582C16.4597 19.4238 16.4597 19.0488 16.3132 18.8906C16.2078 18.7734 16.1433 18.7676 14.989 18.7676C13.8347 18.7676 13.7703 18.7734 13.6648 18.8906Z" fill="#E65425"/>
<path d="M3.38159 21.6914C3.20581 21.832 3.18823 22.2129 3.35229 22.3945C3.46362 22.5176 3.47534 22.5176 8.42651 22.5176C13.3777 22.5176 13.3894 22.5176 13.5007 22.3945C13.6472 22.2363 13.6472 21.8613 13.5007 21.7031C13.3894 21.5801 13.3777 21.5801 8.4558 21.5801C3.69799 21.5801 3.51049 21.5859 3.38159 21.6914Z" fill="#E65425"/>
<path d="M3.38159 24.5039C3.20581 24.6445 3.18823 25.0254 3.35229 25.207C3.45776 25.3242 3.52221 25.3301 4.67651 25.3301C5.83081 25.3301 5.89526 25.3242 6.00073 25.207C6.06518 25.1309 6.11206 25.002 6.11206 24.8613C6.11206 24.7207 6.06518 24.5918 6.00073 24.5156C5.89526 24.3984 5.83081 24.3926 4.70581 24.3926C3.62768 24.3926 3.50463 24.4043 3.38159 24.5039Z" fill="#E65425"/>
<path d="M7.13159 24.5039C6.95581 24.6445 6.93823 25.0254 7.10229 25.207C7.21362 25.3301 7.25463 25.3301 9.83276 25.3301C12.4109 25.3301 12.4519 25.3301 12.5632 25.207C12.7097 25.0488 12.7097 24.6738 12.5632 24.5156C12.4519 24.3926 12.4109 24.3926 9.86206 24.3926C7.40112 24.3926 7.26049 24.3984 7.13159 24.5039Z" fill="#E65425"/>
</svg>
