<svg width="31" height="30" viewBox="0 0 31 30" fill="none" xmlns="http://www.w3.org/2000/svg">
<g clip-path="url(#clip0_2003_35607)">
<path d="M8.49668 0.0761719C7.72325 0.333984 7.11387 0.966797 6.91465 1.72852C6.7916 2.19727 6.79746 3.32812 6.92051 3.75586C6.97324 3.93164 7.06699 4.1543 7.12559 4.25391L7.23692 4.44141L6.66856 4.72266C6.19395 4.95703 6.00645 5.08594 5.59043 5.50781C5.17442 5.92383 5.04551 6.09961 4.81699 6.5625C4.46543 7.27734 4.37168 7.6582 4.33067 8.52539C4.30137 9.13477 4.31309 9.25781 4.40684 9.43359C4.58262 9.77344 4.64121 9.7793 7.45957 9.7793L9.99082 9.78516V9.96094C9.99082 10.1836 10.1314 10.4648 10.2779 10.5469C10.3482 10.582 10.899 10.6055 11.6549 10.6055H12.9088L13.0904 10.4531C13.2428 10.3242 13.2721 10.2598 13.2721 10.043C13.2721 9.70898 13.1432 9.50977 12.8678 9.43359C12.7506 9.4043 12.3346 9.375 11.942 9.375H11.2213V9.21094C11.2213 9.12305 11.2623 8.86523 11.3092 8.64258C11.5201 7.62891 12.2291 6.72656 13.1549 6.28125C13.6354 6.05273 14.1451 5.91797 14.5436 5.91797H14.7369V6.43359C14.7369 6.79688 14.7604 6.98438 14.8248 7.07227C14.9479 7.24219 15.2643 7.33008 15.5221 7.25977C15.8268 7.17773 15.9088 7.00195 15.9088 6.41602V5.91797H16.1022C16.5006 5.91797 17.0104 6.05273 17.4908 6.28125C18.4166 6.72656 19.1256 7.62891 19.3365 8.64258C19.3834 8.86523 19.4244 9.12305 19.4244 9.21094V9.375H18.7096C17.5963 9.375 17.3736 9.48633 17.3736 10.0254C17.3736 10.2598 17.3971 10.3242 17.5553 10.4531L17.7369 10.6055H18.9908C19.7467 10.6055 20.2975 10.582 20.3678 10.5469C20.5143 10.4648 20.6549 10.1836 20.6549 9.96094V9.78516L23.192 9.7793C26.0045 9.7793 26.0631 9.77344 26.2389 9.43359C26.3326 9.25781 26.3443 9.13477 26.315 8.52539C26.274 7.66406 26.1803 7.27734 25.8463 6.5918C25.4186 5.71875 24.7037 5.03906 23.7779 4.61719L23.4029 4.44727L23.5143 4.25977C23.7311 3.9082 23.8189 3.47461 23.8189 2.75977C23.8189 2.38477 23.7896 1.96875 23.7604 1.82812C23.6021 1.14844 23.11 0.533203 22.4889 0.222656C22.1549 0.0585938 22.026 0.0292969 21.5572 0.0117188C20.6783 -0.0292969 20.0221 0.263672 19.5299 0.908203C19.1842 1.35938 19.067 1.74609 19.0318 2.49023C18.9967 3.22266 19.067 3.67969 19.2721 4.14258L19.4186 4.45312L19.0436 4.62305C18.8385 4.7168 18.5514 4.875 18.4049 4.97461L18.1412 5.16211L17.7662 5.0332L17.3971 4.89844L17.5729 4.57617C17.8131 4.125 17.901 3.70898 17.901 2.92969C17.901 1.91602 17.7252 1.36523 17.2389 0.837891C16.6998 0.251953 16.1197 0 15.3287 0C14.5143 0 13.9518 0.246094 13.401 0.84375C12.8795 1.41211 12.7213 1.99219 12.7564 3.17578C12.7799 3.97266 12.7857 3.98438 13.0143 4.44141L13.2428 4.9043L12.8795 5.0332L12.5162 5.15625L12.1471 4.92188C11.9479 4.79297 11.6549 4.64062 11.5025 4.58203C11.3443 4.5293 11.233 4.45898 11.2447 4.42383C11.5436 3.77344 11.5904 3.58008 11.6197 2.95898C11.6314 2.60156 11.6139 2.15625 11.5787 1.96289C11.4381 1.20117 10.9283 0.527344 10.2545 0.205078C9.94981 0.0585938 9.8209 0.0351562 9.317 0.0175781C8.942 0.00585938 8.64317 0.0292969 8.49668 0.0761719ZM9.83262 1.40039C10.2135 1.64648 10.3541 1.94531 10.3893 2.57812C10.4361 3.53906 10.1256 4.06055 9.4166 4.22461C8.95371 4.33008 8.3795 4.01953 8.16856 3.55078C8.01621 3.21094 8.01621 2.23828 8.16856 1.9043C8.37364 1.46484 8.73692 1.23047 9.23496 1.23047C9.49278 1.23047 9.60996 1.26562 9.83262 1.40039ZM15.8854 1.3418C16.19 1.48242 16.5182 1.86914 16.6119 2.19727C16.6588 2.35547 16.6764 2.69531 16.6647 3.09375C16.6412 3.67969 16.6236 3.75586 16.4654 4.01953C16.3541 4.19531 16.1783 4.37109 16.0025 4.48242C15.7564 4.62891 15.6568 4.6582 15.3229 4.6582C14.9889 4.6582 14.8893 4.62891 14.6432 4.48242C14.4674 4.37109 14.2916 4.19531 14.1803 4.01953C14.0162 3.75 14.0045 3.68555 13.9811 3.06445C13.9576 2.30273 14.0338 2.00977 14.3502 1.65234C14.7076 1.24805 15.3756 1.10742 15.8854 1.3418ZM22.1021 1.44141C22.4771 1.74023 22.5885 2.0332 22.5885 2.72461C22.5885 3.41602 22.4889 3.69141 22.149 3.9668C21.4752 4.52344 20.5318 4.18945 20.2975 3.31641C20.2623 3.18164 20.2447 2.85352 20.2564 2.57812C20.2916 1.94531 20.4322 1.64648 20.8189 1.40039C21.0709 1.23633 21.1295 1.22461 21.4869 1.24219C21.815 1.25977 21.9146 1.28906 22.1021 1.44141ZM8.58457 5.77148C8.58457 5.91797 8.61973 6.12891 8.6666 6.24023C8.83653 6.63867 9.37559 6.72656 9.67442 6.4043C9.7916 6.27539 9.81504 6.19336 9.81504 5.88281V5.50781H10.067C10.3717 5.50781 10.6764 5.58984 11.1158 5.7832L11.4557 5.93555L11.1627 6.25195C10.6705 6.78516 10.2428 7.64062 10.0787 8.39062L10.0494 8.55469H7.7877H5.53184L5.56699 8.27344C5.71348 7.16016 6.32871 6.26367 7.26621 5.80664C7.67637 5.60156 7.9752 5.51953 8.33848 5.51367L8.58457 5.50781V5.77148ZM20.8307 5.88281C20.8307 6.19336 20.8541 6.27539 20.9713 6.4043C21.2701 6.72656 21.8092 6.63867 21.9791 6.24023C22.026 6.12891 22.0611 5.91797 22.0611 5.77148V5.50781H22.2838C22.8287 5.51367 23.5436 5.8125 24.0416 6.24609C24.6041 6.73828 24.9674 7.45312 25.0787 8.27344L25.1139 8.55469H22.858H20.5963L20.567 8.39062C20.4029 7.64062 19.9752 6.78516 19.4889 6.25781L19.1959 5.93555L19.4127 5.83008C19.7877 5.64844 20.2623 5.51367 20.5553 5.51367L20.8307 5.50781V5.88281Z" fill="#E65425"/>
<path d="M0.481079 9.30469L0.322876 9.46875V15.0059V20.5488L0.451782 20.666C0.651001 20.8418 0.527954 20.7949 3.22327 21.6504C5.04553 22.2305 5.77795 22.4355 5.89514 22.4121C6.09436 22.3652 6.33459 22.0957 6.38733 21.8555C6.4342 21.6504 6.42834 21.6504 6.65686 21.7676C6.80334 21.8496 6.82092 21.8789 6.78577 22.0195C6.69788 22.3242 6.74475 22.9863 6.8678 23.2734C7.12561 23.8477 7.72913 24.3164 8.32678 24.4102C8.56116 24.4453 8.57288 24.457 8.60803 24.6914C8.72522 25.4707 9.40491 26.1504 10.2018 26.2793C10.4362 26.3145 10.4479 26.3262 10.483 26.5781C10.5299 26.9473 10.7584 27.3574 11.0748 27.6504C11.3737 27.9258 11.5963 28.0371 12.0416 28.1309C12.317 28.1895 12.3346 28.2012 12.3346 28.377C12.3346 28.6406 12.5924 29.168 12.8502 29.4375C12.9674 29.5605 13.2252 29.7363 13.4186 29.8301C13.7174 29.9766 13.8405 30 14.2389 30C14.9479 30 15.2408 29.8359 16.0905 28.9688C16.4772 28.5703 16.8053 28.1719 16.8639 28.0371L16.9694 27.8027H17.5084C18.1295 27.7969 18.4342 27.6914 18.8268 27.334C19.0905 27.0996 19.4244 26.4961 19.4244 26.2559C19.4244 26.0332 19.4772 25.9863 19.8346 25.9102C20.6022 25.7344 21.194 25.1074 21.2819 24.3809L21.3112 24.0938L21.6041 24.0645C22.3834 23.9707 23.1744 23.1152 23.1744 22.3652C23.1744 22.1836 23.1979 22.1602 23.6725 21.9258C23.9479 21.791 24.1823 21.6797 24.194 21.6797C24.2115 21.6797 24.235 21.7676 24.2584 21.8672C24.3112 22.1074 24.5455 22.3652 24.7565 22.4121C24.8678 22.4355 25.6588 22.207 27.4225 21.6504C30.1178 20.7949 29.9948 20.8418 30.194 20.666L30.3229 20.5488V15.0059V9.46875L30.1647 9.30469C29.8483 8.9707 29.8834 8.95898 25.9869 10.9805C21.944 13.0781 22.1666 12.9258 22.2955 13.5762C22.3365 13.7812 22.3541 13.9629 22.3424 13.9805C22.3248 13.9922 21.2233 13.7402 19.8873 13.4121C17.4733 12.8262 17.4557 12.8203 16.8756 12.8496C16.2018 12.8789 15.8092 13.0078 15.2701 13.3652L14.9186 13.5996L14.6256 13.4531C14.4674 13.3711 14.1041 13.2305 13.817 13.1484C13.3717 13.0137 13.1959 12.9902 12.5104 12.9902C11.7252 12.9902 11.7135 12.9902 10.026 13.4062C9.09436 13.6406 8.32678 13.8223 8.31506 13.8164C8.3092 13.8047 8.33264 13.6699 8.3678 13.5176C8.42053 13.2891 8.41467 13.207 8.33264 13.043C8.22717 12.8203 8.48499 12.9609 3.72131 10.4941C0.838501 9 0.791626 8.98242 0.481079 9.30469ZM4.36584 12.2285C5.83069 12.9902 7.03772 13.6172 7.04944 13.623C7.07874 13.6523 5.35022 20.8887 5.30334 20.9414C5.25647 20.9883 5.00452 20.918 2.59631 20.1504L1.49475 19.7988V15.2871C1.49475 11.0098 1.50061 10.7695 1.60022 10.8047C1.65295 10.8281 2.901 11.4668 4.36584 12.2285ZM29.151 15.293V19.7988L28.0553 20.1504C25.6412 20.918 25.3893 20.9883 25.3424 20.9414C25.2662 20.8535 23.567 13.6289 23.6198 13.6055C23.649 13.5996 24.8854 12.9609 26.3678 12.1875C27.8502 11.4141 29.0807 10.7812 29.11 10.7812C29.1334 10.7812 29.151 12.8086 29.151 15.293ZM19.9987 14.7129C21.4694 15.0703 22.6881 15.375 22.6998 15.3867C22.7115 15.3984 22.9928 16.5352 23.3209 17.9121L23.9186 20.4199L23.3854 20.6953C23.0924 20.8477 22.8346 20.9707 22.817 20.9707C22.7877 20.9766 20.0104 18.0762 18.6862 16.6641C18.2584 16.2012 18.2584 16.2012 16.0494 17.0508C15.0475 17.4375 14.1393 17.7539 14.0397 17.7539C13.6588 17.7539 13.2604 17.4141 13.1901 17.0215C13.1549 16.8574 13.1783 16.7402 13.2838 16.5352C13.401 16.3066 13.5826 16.1426 14.5612 15.4219C15.8971 14.4434 16.2252 14.2207 16.4655 14.1328C16.8815 13.9863 17.2623 14.0508 19.9987 14.7129ZM13.4655 14.3379L13.8053 14.4434L13.2369 14.8535C12.2467 15.5684 11.9655 16.0312 11.9596 16.9043C11.9596 17.5195 12.1588 17.9766 12.6041 18.3984C13.0026 18.7734 13.36 18.9258 13.9225 18.9668C14.444 19.0078 14.3619 19.0312 16.3307 18.2754C17.1569 17.9531 17.86 17.6953 17.8893 17.6953C17.9655 17.6953 21.7623 21.6855 21.8619 21.8672C22.026 22.1543 21.9147 22.5645 21.6276 22.7578C21.5455 22.8105 21.3698 22.8516 21.2291 22.8516C20.983 22.8516 20.9713 22.8457 19.278 21.1582C18.3463 20.2266 17.5201 19.4355 17.4498 19.4004C17.028 19.1836 16.5533 19.4941 16.5533 19.9922C16.5533 20.1621 16.7233 20.3496 18.2174 21.8555C19.1315 22.7754 19.9225 23.5898 19.9752 23.6719C20.0924 23.8535 20.0983 24.252 19.9752 24.4219C19.7936 24.6855 19.3834 24.8027 19.1139 24.6621C19.0436 24.627 18.2174 23.8359 17.2858 22.9043L15.5807 21.2109H15.3053C15.0885 21.2109 14.9948 21.2402 14.8834 21.3516C14.7135 21.5215 14.649 21.7383 14.7076 21.9551C14.7311 22.0605 15.3522 22.7285 16.4655 23.8477C17.7662 25.1602 18.1881 25.623 18.2233 25.7578C18.3112 26.1914 17.9069 26.6309 17.4733 26.5781C17.2799 26.5547 17.0924 26.3965 15.8033 25.1484C14.9713 24.3457 14.2506 23.6953 14.11 23.6191C13.9694 23.5488 13.7408 23.4785 13.6002 23.4609C13.3541 23.4258 13.3424 23.4141 13.3073 23.1855C13.1783 22.3887 12.4987 21.7031 11.7135 21.5859C11.4791 21.5508 11.4674 21.5449 11.4323 21.293C11.3561 20.7246 10.8756 20.1094 10.3131 19.8516C10.0846 19.7461 9.91467 19.7227 9.52209 19.7227C8.88928 19.7227 8.60217 19.8516 8.01624 20.4082L7.5885 20.8125L7.16077 20.6191L6.72717 20.4258L6.8678 19.8398C6.94397 19.5117 7.22522 18.3398 7.48889 17.2266L7.96936 15.2051L9.66858 14.7832C10.6061 14.5488 11.5377 14.3203 11.7487 14.2676C12.2233 14.1621 12.9908 14.1914 13.4655 14.3379ZM9.87952 21.0527C10.2604 21.3105 10.3307 21.6973 10.0612 22.0664C9.8092 22.4121 9.01819 23.1387 8.84827 23.1797C8.36194 23.3027 7.88147 22.8691 7.96936 22.3945C7.99866 22.2305 8.13342 22.0488 8.54358 21.6328C9.25842 20.8945 9.49866 20.7949 9.87952 21.0527ZM11.8776 23.0215C12.2467 23.4316 12.1764 23.666 11.4967 24.3633C10.7643 25.1074 10.5709 25.2012 10.1842 24.9609C9.93225 24.8086 9.79163 24.5332 9.8385 24.2637C9.86194 24.1055 9.99084 23.9355 10.442 23.4785C10.7584 23.1621 11.069 22.875 11.1334 22.8457C11.3561 22.7461 11.7076 22.8281 11.8776 23.0215ZM13.6764 24.8203C13.9342 25.0371 14.0162 25.3535 13.8873 25.623C13.7584 25.8984 12.7565 26.8652 12.5455 26.918C12.1588 27.0117 11.6901 26.6602 11.6901 26.2734C11.6901 26.1621 11.7252 25.998 11.7721 25.9102C11.8658 25.7344 12.7682 24.8379 12.9498 24.7383C13.1608 24.6211 13.483 24.6562 13.6764 24.8203ZM15.5573 26.7012C15.7682 26.8945 15.8502 27.1465 15.7858 27.3926C15.7565 27.5039 15.5104 27.791 15.1295 28.1719C14.526 28.7578 14.5143 28.7695 14.2389 28.7695C14.0045 28.7695 13.9342 28.7402 13.7643 28.5703C13.5944 28.4004 13.5651 28.3301 13.5651 28.0898C13.5651 27.8086 13.5709 27.8027 14.1979 27.1758C14.8248 26.5488 14.8365 26.543 15.1061 26.543C15.3229 26.543 15.4166 26.5781 15.5573 26.7012Z" fill="#E65425"/>
<path d="M15.1061 9.43945C14.8541 9.51562 14.7369 9.69727 14.7369 10.0254C14.7369 10.2598 14.7604 10.3242 14.9186 10.4531C15.0416 10.5586 15.1647 10.6055 15.3229 10.6055C15.4811 10.6055 15.6041 10.5586 15.7272 10.4531C15.8854 10.3242 15.9088 10.2656 15.9088 10.0254C15.9088 9.80859 15.8737 9.70898 15.7623 9.58594C15.6862 9.50391 15.5807 9.43359 15.5338 9.43359C15.4869 9.43359 15.4166 9.42188 15.3698 9.41016C15.3287 9.39844 15.2115 9.41016 15.1061 9.43945Z" fill="#E65425"/>
</g>
<defs>
<clipPath id="clip0_2003_35607">
<rect width="30" height="30" fill="white" transform="translate(0.322876)"/>
</clipPath>
</defs>
</svg>
