<svg width="25" height="30" viewBox="0 0 25 30" fill="none" xmlns="http://www.w3.org/2000/svg">
<path d="M1.17102 0.152344C0.842896 0.316406 0.643677 0.521484 0.438599 0.902344L0.309692 1.14258L0.292114 12.5742L0.280396 24.0059L0.403442 24.1641C0.573364 24.3809 0.924927 24.3809 1.09485 24.1641L1.2179 24.0059V12.7324C1.2179 0.416016 1.19446 1.25977 1.55188 1.01953C1.71008 0.914062 1.99719 0.908203 11.296 0.890625C16.5636 0.878906 21.0226 0.890625 21.1925 0.908203C21.6144 0.960938 21.8722 1.20117 21.9249 1.58789C21.9484 1.72852 21.9542 6.14062 21.9484 11.3965L21.9308 20.9473L21.3741 20.4434L20.8175 19.9395L20.8351 19.6699C20.8702 19.2188 20.5831 18.7148 20.0909 18.3691C19.7921 18.1641 19.4347 18.0938 19.0714 18.1758C18.796 18.2344 18.7902 18.2285 18.4679 17.9766C18.2863 17.8418 18.1046 17.6953 18.0577 17.6602C17.9933 17.6074 18.0284 17.4961 18.2921 16.9863C18.6788 16.2539 18.9308 15.5156 19.0656 14.7656C19.2062 13.9395 19.1534 12.5391 18.9484 11.748C18.8663 11.4258 18.796 11.1562 18.796 11.1504C18.796 11.1387 18.9952 11.1328 19.2355 11.1328C19.7511 11.1328 19.9386 11.0566 20.0206 10.834C20.0909 10.6289 20.0031 10.3359 19.8507 10.2539C19.7921 10.2188 19.4288 10.1953 19.048 10.1953L18.3566 10.1895L18.087 9.72656L17.8116 9.25781H18.7433C19.7628 9.25781 19.9269 9.2168 20.0206 8.95898C20.0909 8.75391 20.0031 8.46094 19.8507 8.37891C19.7863 8.34375 19.1476 8.32031 18.3624 8.32031H16.9855L16.6984 8.06836C16.546 7.92773 16.2882 7.72266 16.1359 7.61133L15.8546 7.41211L17.8058 7.38281C18.8839 7.36523 19.8097 7.33008 19.8624 7.30664C20.1085 7.18359 20.0968 6.63867 19.8507 6.50391C19.7804 6.46875 18.5734 6.44531 16.7042 6.44531C14.1495 6.44531 13.587 6.42773 13.1417 6.35156C12.4738 6.22852 11.4425 6.22852 10.6691 6.35156C10.1769 6.42773 9.57336 6.44531 7.38196 6.44531C4.76282 6.44531 4.6925 6.44531 4.56946 6.5625C4.3761 6.74414 4.39368 7.10156 4.5929 7.25977C4.74524 7.37695 4.82141 7.38281 6.33899 7.38281H7.92688L7.63391 7.58203C7.46985 7.6875 7.20618 7.89844 7.04211 8.05078L6.73743 8.32031H5.06165H3.38L3.23938 8.4668C3.0636 8.63672 3.05188 8.90039 3.20422 9.08789C3.31555 9.22852 3.33899 9.22852 4.60461 9.25781L5.89368 9.28711L5.61829 9.73828L5.34875 10.1895L4.36438 10.1953C3.39758 10.1953 3.38 10.1953 3.23938 10.3418C3.04602 10.5293 3.04602 10.7988 3.23938 10.9863C3.37415 11.127 3.4093 11.1328 4.16516 11.1328H4.95032L4.82141 11.584L4.68665 12.041L4.0011 12.0703C3.36829 12.0996 3.30969 12.1113 3.20422 12.2402C3.05188 12.4277 3.0636 12.6914 3.23938 12.8613C3.36829 12.9961 3.42102 13.0078 3.9718 13.0078H4.55774V13.4766V13.9453H3.9718C3.42102 13.9453 3.36829 13.957 3.23938 14.0918C3.04602 14.2793 3.04602 14.5488 3.23938 14.7363C3.37415 14.877 3.42102 14.8828 4.01868 14.8828H4.66321L4.75696 15.252C4.80383 15.457 4.86243 15.668 4.88586 15.7207C4.91516 15.8086 4.84485 15.8203 4.15344 15.8203C3.4093 15.8203 3.37415 15.8262 3.23938 15.9668C3.04602 16.1543 3.04602 16.4238 3.23938 16.6113C3.38 16.752 3.40344 16.7578 4.33508 16.7578L5.29016 16.7637L5.55969 17.2266L5.83508 17.6953H5.26672C4.74524 17.6953 4.68665 17.707 4.56946 17.8301C4.38196 18.0293 4.39368 18.3516 4.5929 18.5098C4.73938 18.6211 4.82727 18.6328 5.6886 18.6328H6.6261L6.95422 18.9434C7.13586 19.1074 7.3761 19.3184 7.48743 19.4062L7.6925 19.5645L5.53625 19.5703H3.38L3.23938 19.7168C3.0636 19.8867 3.05188 20.1504 3.20422 20.3379L3.31555 20.4785L6.56165 20.5078C9.71399 20.543 9.81946 20.543 10.3878 20.6836C11.1378 20.8594 12.5148 20.877 13.2589 20.7188C14.1613 20.5254 14.964 20.209 15.6671 19.7812L15.9015 19.6348L16.2238 20.0449C16.3995 20.2734 16.5284 20.502 16.5167 20.5547C16.505 20.6074 16.4933 20.8301 16.4874 21.0469L16.4816 21.4453H9.93079H3.38L3.23938 21.5918C3.0636 21.7617 3.05188 22.0254 3.20422 22.2129L3.31555 22.3535L10.3995 22.3887C14.2902 22.4121 17.6593 22.4531 17.8878 22.4766L18.2921 22.5293L19.5753 23.9648C21.298 25.8984 21.4386 26.0449 21.7257 26.1914L21.9718 26.3145L21.9484 27.4453C21.9308 28.6699 21.9073 28.7695 21.5675 28.9863C21.4152 29.0859 20.8702 29.0918 11.5597 29.0918C1.98547 29.0918 1.71008 29.0859 1.55188 28.9805C1.23547 28.7695 1.2179 28.6641 1.2179 27.1465C1.21204 25.6465 1.20618 25.6055 0.901489 25.4883C0.684692 25.4062 0.356567 25.5469 0.309692 25.7402C0.286255 25.8164 0.280396 26.5488 0.292114 27.3691C0.309692 28.7695 0.315552 28.8691 0.438599 29.0977C0.643677 29.4785 0.842896 29.6836 1.17102 29.8477L1.47571 30H11.5538H21.6378L21.9308 29.8594C22.0948 29.7891 22.3234 29.6191 22.4406 29.4844C22.8273 29.0566 22.8566 28.9336 22.8859 27.6211L22.9093 26.4375L23.1378 26.4082C23.4718 26.3613 23.8878 26.1445 24.1749 25.8516C24.8546 25.1777 24.9601 24.0586 24.4269 23.2617C24.3273 23.1152 23.9464 22.7344 23.5773 22.4121L22.9093 21.8262L22.8859 11.5137C22.8683 1.78711 22.8624 1.18945 22.7628 0.978516C22.6046 0.644531 22.2589 0.287109 21.9308 0.140625L21.6378 0H11.5538H1.47571L1.17102 0.152344ZM12.5089 7.21289C14.0558 7.38281 15.3741 8.04492 16.4698 9.19922C17.3429 10.1191 17.8409 11.0684 18.0929 12.3105C18.2687 13.1543 18.2335 14.3555 18.0109 15.1699C16.9503 19.002 12.7374 20.9766 9.20422 19.3066C7.88586 18.6855 6.80774 17.6367 6.15735 16.3477C4.97961 14.0156 5.41907 11.127 7.24133 9.1875C8.39563 7.96289 10.0304 7.22461 11.7531 7.1543C11.8585 7.1543 12.1984 7.17773 12.5089 7.21289ZM17.7355 18.627L18.0812 18.9082L17.6534 19.3359L17.2316 19.7578L16.9562 19.4355C16.8097 19.2598 16.6866 19.1016 16.6866 19.084C16.6866 19.0547 17.337 18.3633 17.3781 18.3457C17.3898 18.3457 17.548 18.4688 17.7355 18.627ZM19.7863 19.3711C19.8566 19.459 19.9093 19.5703 19.9093 19.6172C19.9093 19.7578 18.0929 21.5625 17.9523 21.5625C17.8116 21.5625 17.3898 21.1699 17.3898 21.0352C17.3898 20.9824 17.8234 20.5137 18.3507 19.9863L19.3116 19.0312L19.4874 19.125C19.587 19.1777 19.7218 19.2891 19.7863 19.3711ZM21.8898 22.1836C23.7238 23.8066 23.8702 23.9941 23.8116 24.5156C23.7238 25.2891 22.88 25.7285 22.212 25.3535C22.0597 25.2715 21.4503 24.6328 20.507 23.5781L19.0421 21.9316L19.6339 21.3398C19.962 21.0117 20.2374 20.7422 20.2491 20.7422C20.2609 20.7422 20.9991 21.3926 21.8898 22.1836Z" fill="#E65425"/>
<path d="M10.798 7.88064C8.60657 8.28494 6.84875 9.93142 6.27454 12.1228C6.15149 12.5916 6.12805 12.826 6.12219 13.5056C6.12219 14.4314 6.23352 15.0174 6.56165 15.8084C6.76672 16.3064 7.35266 17.2146 7.58704 17.4021C7.7804 17.5545 8.0968 17.5545 8.24915 17.4021C8.46008 17.1912 8.40149 16.9568 8.00891 16.406C7.34094 15.4802 7.07141 14.6834 7.05969 13.5935C7.05383 12.7498 7.16516 12.2459 7.54602 11.4549C8.03821 10.4412 8.73547 9.7322 9.74329 9.23415C10.4288 8.89431 10.8273 8.78884 11.6241 8.74783C15.462 8.54861 17.9581 12.7263 15.9777 16.0369C15.7081 16.4763 15.046 17.1853 14.6241 17.4724C13.2413 18.4041 11.5714 18.6033 10.089 18.0115C9.60266 17.8181 9.39758 17.8123 9.22766 17.9763C9.08704 18.1228 9.0636 18.451 9.18079 18.5974C9.28625 18.7263 9.69641 18.9021 10.2999 19.0838C10.9152 19.2654 12.1046 19.3299 12.8077 19.2185C13.8683 19.0486 14.9581 18.5095 15.755 17.7654C16.3644 17.197 16.7042 16.7342 17.0441 16.0252C18.6613 12.656 16.6866 8.65994 13.0245 7.90408C12.4093 7.77517 11.4191 7.76345 10.798 7.88064Z" fill="#E65425"/>
<path d="M14.1964 10.6992C13.7277 10.8164 13.6398 10.8867 12.2921 12.2227L10.9093 13.5938L10.3292 13.002C9.67297 12.334 9.42102 12.1875 8.95227 12.1875C8.02649 12.1875 7.41125 13.0488 7.67492 13.9688C7.72766 14.1621 7.96203 14.4316 8.91711 15.3984C9.5675 16.0547 10.2003 16.6465 10.3292 16.7168C10.4991 16.8047 10.6691 16.8398 10.9445 16.8457C11.4542 16.8457 11.6827 16.7051 12.4855 15.8906C13.0011 15.3633 13.1124 15.2227 13.1124 15.0762C13.1124 14.8066 12.9132 14.5898 12.6613 14.5898C12.4738 14.5898 12.3859 14.6543 11.7999 15.2285C11.4132 15.6094 11.0851 15.8848 10.9855 15.9141C10.8331 15.9492 10.7452 15.8789 9.70813 14.8477C9.09875 14.2383 8.58313 13.6758 8.55969 13.6055C8.51282 13.418 8.71203 13.1602 8.92297 13.1367C9.0636 13.1191 9.18664 13.2188 9.85461 13.8809C10.6691 14.6895 10.839 14.8008 11.1085 14.7012C11.1964 14.666 11.9581 13.957 12.8019 13.1133C14.1437 11.7773 14.3488 11.5957 14.4718 11.6309C14.5421 11.6543 14.6534 11.7246 14.712 11.7891C14.9113 12.0234 14.8468 12.1641 14.2257 12.8027C13.7335 13.3066 13.6398 13.4355 13.6398 13.5879C13.6398 13.8398 13.8683 14.0625 14.1202 14.0625C14.2843 14.0625 14.3956 13.9746 14.9581 13.4004C15.4562 12.9023 15.6261 12.6855 15.6788 12.5039C15.9366 11.6074 15.4445 10.8047 14.5773 10.7051C14.4308 10.6875 14.2609 10.6875 14.1964 10.6992Z" fill="#E65425"/>
<path d="M4.46984 2.27869C4.21203 2.43103 3.98351 2.724 3.93664 2.95251C3.91906 3.06384 3.9132 3.42712 3.92492 3.76111C3.9425 4.30603 3.96008 4.39978 4.1007 4.61072C4.40539 5.07361 3.83117 5.03845 11.589 5.03845C19.1769 5.03845 18.6788 5.06189 18.9894 4.68689C19.1945 4.44665 19.2648 4.1654 19.2648 3.6029C19.2648 3.03454 19.1945 2.75915 18.9894 2.51306C18.714 2.19079 18.5851 2.16736 17.0792 2.16736C15.7257 2.16736 15.7081 2.16736 15.5851 2.30212C15.38 2.51892 15.4327 2.90564 15.673 3.02283C15.7316 3.05212 16.3468 3.08728 17.0382 3.10486L18.298 3.13415L18.3155 3.57361C18.3273 3.93689 18.3155 4.02478 18.2335 4.08337C18.1515 4.14197 16.7862 4.15954 11.5655 4.15954C7.95031 4.15954 4.96203 4.13611 4.92101 4.10681C4.86828 4.07751 4.8507 3.93103 4.86242 3.59704L4.88 3.13415L9.45031 3.10486C11.964 3.08728 14.0616 3.05212 14.1144 3.02869C14.2257 2.97595 14.3429 2.74158 14.3429 2.58337C14.3429 2.52478 14.2902 2.40759 14.2198 2.3197L14.1027 2.16736H9.37414C4.87414 2.16736 4.63976 2.17322 4.46984 2.27869Z" fill="#E65425"/>
<path d="M3.23938 23.4668C3.14563 23.5547 3.0929 23.6777 3.0929 23.7891C3.0929 23.9004 3.14563 24.0234 3.23938 24.1113L3.38 24.2578H7.71008C12.005 24.2578 12.046 24.2578 12.1984 24.1348C12.4152 23.9648 12.4152 23.6133 12.1984 23.4434C12.046 23.3203 12.005 23.3203 7.71008 23.3203H3.38L3.23938 23.4668Z" fill="#E65425"/>
<path d="M8.80579 26.3379C8.71204 26.4258 8.6593 26.5488 8.6593 26.6602C8.6593 26.7715 8.71204 26.8945 8.80579 26.9824L8.94641 27.1289H11.548C14.0909 27.1289 14.1554 27.1289 14.3077 27.0059C14.507 26.8477 14.5245 26.4902 14.3312 26.3086C14.2081 26.1914 14.1378 26.1914 11.5773 26.1914H8.94641L8.80579 26.3379Z" fill="#E65425"/>
</svg>
