<svg width="31" height="30" viewBox="0 0 31 30" fill="none" xmlns="http://www.w3.org/2000/svg">
<g clip-path="url(#clip0_2003_35589)">
<path d="M7.66467 0.0990486C7.33069 0.216236 6.85608 0.64983 6.66272 1.01897L6.50452 1.3178V14.9994V28.6811L6.66272 28.9799C6.75061 29.144 6.95569 29.4018 7.11975 29.5483C7.65881 30.0346 7.04358 29.9994 15.3229 29.9994C23.6022 29.9994 22.9869 30.0346 23.526 29.5483C23.6901 29.4018 23.8951 29.144 23.983 28.9799L24.1412 28.6811V14.9994V1.3178L23.983 1.01897C23.8951 0.854908 23.6901 0.597095 23.526 0.450611C22.9928 -0.0298576 23.3619 -0.00056076 17.3092 -0.00056076H11.9303L11.8131 0.151783C11.6549 0.351002 11.6549 0.526783 11.8131 0.726002L11.9303 0.878345H17.069C19.9401 0.878345 22.3073 0.901783 22.4362 0.936939C22.6998 0.995533 22.9108 1.13616 23.0807 1.37053C23.192 1.51702 23.2037 1.62835 23.2213 2.67131L23.2389 3.80803H15.3287H7.41272V2.75335C7.41272 1.59905 7.44788 1.43499 7.74084 1.1596C7.98108 0.936939 8.30334 0.884205 9.41077 0.878345C10.5182 0.878345 10.5768 0.854908 10.5768 0.427174C10.5768 0.011158 10.5358 -0.00056076 9.13538 0.00529861C8.20959 0.00529861 7.85217 0.0287361 7.66467 0.0990486ZM23.233 14.9994V25.2533H15.3229H7.41272V14.9994V4.74553H15.3229H23.233V14.9994ZM23.2213 27.3276C23.2037 28.3705 23.192 28.4819 23.0807 28.6283C22.9108 28.8627 22.6998 29.0033 22.4362 29.0619C22.1315 29.1323 8.51428 29.1323 8.20959 29.0619C7.94592 29.0033 7.73499 28.8627 7.56506 28.6283C7.45374 28.4819 7.44202 28.3705 7.42444 27.3276L7.40686 26.1908H15.3229H23.2389L23.2213 27.3276Z" fill="#E65425"/>
<path d="M21.8268 5.49023C21.7096 5.63671 21.7037 5.71289 21.7213 6.22851C21.7389 6.75585 21.7506 6.82031 21.8795 6.91992C22.067 7.07226 22.36 7.0664 22.5182 6.89648C22.6353 6.77343 22.6471 6.69726 22.6471 6.16406C22.6471 5.64257 22.6295 5.54882 22.5299 5.44921C22.3482 5.26757 21.985 5.29101 21.8268 5.49023Z" fill="#E65425"/>
<path d="M20.5319 5.67773C20.403 5.7832 20.3912 5.83593 20.3912 6.29882C20.3912 6.76171 20.403 6.81445 20.5319 6.91992C20.7194 7.07226 21.0123 7.0664 21.1705 6.89648C21.2819 6.77929 21.2994 6.6914 21.2994 6.2871C21.2994 5.84179 21.2877 5.80078 21.1471 5.68945C20.9537 5.5371 20.7076 5.53124 20.5319 5.67773Z" fill="#E65425"/>
<path d="M19.1373 6.0114C18.9557 6.23991 18.9674 6.69695 19.1608 6.88445C19.3483 7.0778 19.6471 7.08366 19.8229 6.89616C19.9987 6.70866 20.0045 6.14616 19.8346 5.97624C19.653 5.7946 19.2897 5.81804 19.1373 6.0114Z" fill="#E65425"/>
<path d="M13.2018 7.6696C12.9733 7.85124 12.9498 8.05046 13.1198 8.37859L13.2662 8.65984L12.9264 8.92351C12.4987 9.26335 12.153 9.70866 11.901 10.2594C11.6373 10.8337 11.5553 11.2555 11.5494 12.07C11.5494 12.6559 11.5612 12.7731 11.6725 12.9841C11.8307 13.2829 12.0944 13.5114 12.3815 13.5934C12.528 13.6403 13.5299 13.652 15.4518 13.6403L18.2994 13.6227L18.5573 13.4469C18.692 13.3473 18.8737 13.1481 18.9557 13.0075C19.0905 12.7673 19.1022 12.6852 19.0963 12.07C19.0963 11.7009 19.0553 11.238 19.0201 11.0446C18.8502 10.2594 18.3053 9.37468 17.6901 8.90593L17.3854 8.6657L17.526 8.38445C17.7018 8.05632 17.6725 7.85124 17.444 7.6696C17.3326 7.58171 17.2389 7.55827 17.1158 7.58171C16.8932 7.62859 16.8053 7.70476 16.6588 7.99187C16.5944 8.12663 16.5358 8.23796 16.5299 8.24382C16.524 8.24968 16.3658 8.21452 16.1725 8.16765C15.9791 8.12663 15.5983 8.08562 15.3229 8.08562C15.0475 8.08562 14.6666 8.12663 14.4733 8.16765C14.2799 8.21452 14.1217 8.24968 14.1158 8.24382C14.11 8.23796 14.0514 8.12663 13.9869 7.99187C13.8405 7.70476 13.7526 7.62859 13.5299 7.58171C13.4069 7.55827 13.3131 7.58171 13.2018 7.6696ZM16.0553 9.11101C16.9752 9.35124 17.7428 10.0954 18.024 11.027C18.1705 11.5134 18.2057 12.4684 18.0826 12.6149C18.0123 12.7028 17.7545 12.7145 15.3229 12.7145C12.8912 12.7145 12.6334 12.7028 12.5631 12.6149C12.4401 12.4684 12.4752 11.5134 12.6217 11.027C13.0612 9.5739 14.5787 8.73015 16.0553 9.11101Z" fill="#E65425"/>
<path d="M13.817 10.6172C13.6295 10.7051 13.5475 10.9688 13.5768 11.3496C13.6119 11.7363 13.7526 11.8945 14.069 11.8945C14.403 11.8945 14.5026 11.7363 14.5026 11.2266C14.5026 10.8223 14.4908 10.7813 14.3502 10.6699C14.1803 10.5352 14.0162 10.5176 13.817 10.6172Z" fill="#E65425"/>
<path d="M16.2955 10.6699C16.1549 10.7813 16.1432 10.8223 16.1432 11.2266C16.1432 11.7363 16.2428 11.8945 16.5768 11.8945C16.8932 11.8945 17.0338 11.7363 17.069 11.3496C17.0983 10.957 17.0104 10.7051 16.8112 10.6113C16.6002 10.5176 16.4713 10.5293 16.2955 10.6699Z" fill="#E65425"/>
<path d="M9.19983 14.2025C8.95959 14.308 8.70764 14.5717 8.57874 14.8529C8.48499 15.0521 8.46741 15.2455 8.46741 16.142C8.46741 16.7221 8.4967 17.2963 8.53186 17.4252C8.56702 17.5541 8.69592 17.7533 8.83655 17.8939C9.46936 18.5209 10.4655 18.3627 10.8756 17.5658C10.9752 17.3725 10.9869 17.2143 10.9869 16.183C10.9869 15.0814 10.9811 15.0053 10.8522 14.7592C10.7701 14.601 10.6061 14.4252 10.4362 14.308C10.1842 14.1439 10.108 14.1205 9.76233 14.1205C9.55139 14.1264 9.29944 14.1615 9.19983 14.2025ZM9.97913 15.1283C10.026 15.1752 10.0494 15.4916 10.0494 16.1654C10.0494 16.9799 10.0319 17.1439 9.94983 17.2377C9.82678 17.3783 9.66858 17.3725 9.52209 17.226C9.41663 17.1205 9.40491 17.0326 9.40491 16.1889C9.40491 15.4154 9.42249 15.2572 9.50452 15.1635C9.60999 15.0463 9.87366 15.0228 9.97913 15.1283Z" fill="#E65425"/>
<path d="M12.1881 14.2026C11.8951 14.3315 11.649 14.6596 11.5728 15.0287C11.526 15.2455 11.5084 15.8959 11.526 16.9799C11.5436 18.5209 11.5494 18.6147 11.6725 18.849C11.8189 19.1127 12.0416 19.3178 12.2584 19.3705C12.3932 19.4057 12.3932 19.4115 12.3932 20.2787C12.3932 21.4389 12.4518 21.6791 12.8033 22.0365C13.0201 22.2533 13.1432 22.3237 13.3951 22.3822C14.0807 22.5346 14.7252 22.1596 14.9127 21.4975C14.9478 21.3862 14.9713 20.8822 14.9713 20.3783V19.4526H15.3228H15.6744V20.3783C15.6744 20.8822 15.6978 21.3862 15.733 21.4975C15.9205 22.1596 16.565 22.5346 17.2506 22.3822C17.5025 22.3237 17.6256 22.2533 17.8424 22.0365C18.1939 21.685 18.2525 21.4389 18.2525 20.2846V19.4233L18.4811 19.3295C18.774 19.2065 19.0025 18.8959 19.067 18.5326C19.1666 18.0053 19.026 17.7533 18.6334 17.7533C18.3463 17.7533 18.1939 17.8822 18.1939 18.1283C18.1939 18.2162 18.1646 18.3393 18.1353 18.4037C18.0768 18.5092 17.983 18.5151 15.3228 18.5151C12.6627 18.5151 12.5689 18.5092 12.5103 18.4037C12.4752 18.3334 12.4518 17.7006 12.4518 16.7631C12.4518 15.31 12.4576 15.2279 12.5689 15.1166C12.6803 15.0053 12.7623 14.9994 15.3228 14.9994C18.4693 14.9994 18.1939 14.9233 18.1939 15.808C18.1939 16.4819 18.2525 16.5815 18.6451 16.5815C19.0025 16.5815 19.0904 16.4467 19.1197 15.8608C19.1666 14.9643 18.9381 14.4076 18.4459 14.2026C18.1705 14.0854 12.4518 14.0854 12.1881 14.2026ZM14.0338 20.3315C14.0338 21.1928 14.0279 21.2221 13.8873 21.3569C13.7174 21.5326 13.6764 21.5385 13.5006 21.392C13.3658 21.2865 13.36 21.2455 13.3424 20.3666L13.3248 19.4526H13.6764H14.0338V20.3315ZM17.3033 20.3666C17.2857 21.2455 17.2799 21.2865 17.1451 21.392C16.9752 21.5326 16.9576 21.5326 16.7643 21.3803L16.6119 21.2631V20.3549V19.4526H16.9693H17.3209L17.3033 20.3666Z" fill="#E65425"/>
<path d="M20.2096 14.3086C20.0397 14.4258 19.8756 14.6016 19.7936 14.7598C19.6647 15.0059 19.6588 15.082 19.6588 16.1836C19.6588 17.2148 19.6705 17.373 19.7701 17.5664C20.1803 18.3574 21.1764 18.5215 21.7975 17.9004C22.1315 17.5664 22.1783 17.3555 22.1783 16.1367C22.1783 14.9824 22.1315 14.7891 21.7916 14.4492C21.5514 14.209 21.2994 14.1211 20.8658 14.1211C20.5436 14.1211 20.4557 14.1445 20.2096 14.3086ZM21.1354 15.1582C21.2291 15.2402 21.2408 15.3574 21.2408 16.1836C21.2408 17.0332 21.2291 17.1211 21.1237 17.2266C20.983 17.3672 20.8483 17.373 20.7018 17.2441C20.608 17.1621 20.5963 17.0449 20.5963 16.1719C20.5963 15.4922 20.6198 15.1758 20.6666 15.1289C20.7662 15.0293 21.0065 15.041 21.1354 15.1582Z" fill="#E65425"/>
<path d="M14.2799 27.3223C14.1217 27.4922 14.1158 27.7734 14.2623 27.9551C14.3736 28.0898 14.3971 28.0957 15.3229 28.0957C16.2486 28.0957 16.2721 28.0898 16.3834 27.9551C16.5358 27.7676 16.5299 27.4746 16.36 27.3164C16.2311 27.1934 16.1666 27.1875 15.317 27.1875C14.4381 27.1875 14.4029 27.1934 14.2799 27.3223Z" fill="#E65425"/>
<path d="M13.067 1.89239C12.9498 1.98614 12.9029 2.09747 12.8795 2.29083C12.8502 2.53107 12.8678 2.5838 13.0201 2.75372C13.4713 3.25763 14.2975 2.742 14.0338 2.10919C13.8873 1.75763 13.36 1.64044 13.067 1.89239Z" fill="#E65425"/>
<path d="M15.1061 1.93359C14.8424 2.03906 14.7779 2.40234 14.9772 2.66016L15.0944 2.8125H16.5006C17.3092 2.8125 17.9537 2.78906 18.0182 2.75391C18.1647 2.67773 18.2584 2.37305 18.194 2.20312C18.0768 1.89258 17.983 1.875 16.5533 1.88086C15.8268 1.88086 15.1764 1.9043 15.1061 1.93359Z" fill="#E65425"/>
</g>
<defs>
<clipPath id="clip0_2003_35589">
<rect width="30" height="30" fill="white" transform="translate(0.322876)"/>
</clipPath>
</defs>
</svg>
