<svg width="28" height="26" viewBox="0 0 28 26" fill="none" xmlns="http://www.w3.org/2000/svg">
<path d="M12.3255 0.900028C11.1623 1.02522 9.58173 1.4686 8.50196 1.97979C7.79255 2.31363 7.64128 2.5275 7.88644 2.84048C8.07423 3.07521 8.20464 3.06477 8.8671 2.7518C9.58173 2.42317 10.2025 2.19366 10.9067 2.01631C11.3605 1.90155 12.2942 1.72941 12.4663 1.72941C12.508 1.72941 12.3724 1.90676 12.169 2.12585C11.4648 2.8822 10.578 4.05586 10.0095 4.98957L9.72778 5.45903L7.46393 5.47468L5.20007 5.48512L5.66954 5.01565C5.93035 4.75484 6.30592 4.40535 6.50414 4.24365C6.9736 3.86808 6.99968 3.83156 6.99968 3.60205C6.99968 3.28386 6.69192 3.10129 6.41024 3.25256C6.05032 3.44034 4.89231 4.53576 4.31853 5.2243C3.41611 6.30407 2.71714 7.52989 2.22681 8.89655L2.05467 9.36601L1.75213 9.43382C1.35569 9.52771 1.0688 9.69985 0.77669 10.0233C0.328092 10.524 0.322876 10.5553 0.322876 12.9965C0.322876 15.4377 0.328092 15.469 0.77669 15.9698C1.0688 16.2932 1.35569 16.4653 1.75213 16.5592L2.05467 16.627L2.22681 17.0965C2.86841 18.8857 3.80733 20.3462 5.17921 21.692C5.81559 22.3127 6.26941 22.6831 6.9736 23.1473C9.0288 24.4984 11.2196 25.1504 13.6974 25.1504C15.57 25.1504 17.4165 24.7174 19.0857 23.8933C20.0247 23.429 20.1968 23.2256 19.936 22.8918C19.743 22.6466 19.6282 22.6622 18.851 23.0535C18.0112 23.4812 17.3226 23.7472 16.5246 23.9559C16.0134 24.0863 15.0797 24.2636 14.8867 24.2636C14.8449 24.2636 14.9805 24.0863 15.184 23.8672C15.8777 23.1213 16.6915 22.0415 17.3539 20.9878L17.6565 20.5079H19.9047L22.1529 20.5131L21.4539 21.1965C20.8228 21.8068 20.7497 21.8954 20.7497 22.0519C20.7497 22.2919 20.9166 22.4588 21.1566 22.4588C21.36 22.4588 21.6417 22.2397 22.3459 21.5303C23.5352 20.3358 24.5576 18.724 25.1001 17.1852L25.2931 16.627L25.6008 16.5592C25.9973 16.4653 26.2842 16.2932 26.5763 15.9698C27.0249 15.469 27.0301 15.4377 27.0301 12.9965C27.0301 10.5553 27.0249 10.524 26.5763 10.0233C26.2842 9.69985 25.9973 9.52771 25.6008 9.43382L25.2983 9.36601L25.1262 8.89655C24.8758 8.19235 24.6567 7.70202 24.3333 7.12823C22.9666 4.67138 20.7915 2.74137 18.2251 1.70855C17.2235 1.3069 16.0707 1.02 14.9545 0.894812C14.3963 0.832216 12.9462 0.837433 12.3255 0.900028ZM15.9195 1.89633C17.9642 2.28234 19.9934 3.3621 21.553 4.89046L22.1529 5.48512H19.9047H17.6565L17.3539 5C16.6915 3.94632 15.8777 2.87177 15.1788 2.12063L14.8032 1.71898L15.0849 1.75549C15.2414 1.77636 15.6169 1.83895 15.9195 1.89633ZM14.3337 2.47534C15.0431 3.21083 15.6639 3.98805 16.2429 4.85395L16.6445 5.45903L15.1631 5.47468C14.3442 5.4799 13.0088 5.4799 12.1899 5.47468L10.7084 5.45903L11.1101 4.85395C11.3292 4.52532 11.71 3.99848 11.9551 3.68551C12.3933 3.13259 13.593 1.83374 13.6765 1.83374C13.6974 1.83374 13.9947 2.12585 14.3337 2.47534ZM9.23224 6.35623C9.22181 6.38231 9.11226 6.60661 8.98707 6.86742C8.68975 7.49337 8.30374 8.43752 8.12639 8.96436L7.98034 9.39731H5.45567H2.931L3.04054 9.09476C3.23876 8.54706 3.80733 7.42035 4.16726 6.86742L4.52196 6.31972H6.88492C8.18899 6.31972 9.24267 6.33537 9.23224 6.35623ZM17.5522 7.13867C17.8912 7.84286 18.3137 8.86003 18.4441 9.27733L18.4807 9.39731H13.6765H8.87232L8.90883 9.27733C9.03924 8.86003 9.46175 7.84286 9.80081 7.13867L10.1972 6.31972H13.6765H17.1557L17.5522 7.13867ZM23.1857 6.86742C23.5456 7.42035 24.1142 8.54706 24.3124 9.09476L24.422 9.39731H21.8973H19.3726L19.2266 8.96436C19.0544 8.44795 18.6789 7.52467 18.3503 6.82569L18.1155 6.31972H20.4733H22.831L23.1857 6.86742ZM25.6113 10.331C25.8356 10.4458 25.9868 10.6023 26.1225 10.8579C26.2164 11.0248 26.2216 11.1865 26.2216 12.9965C26.2216 14.8066 26.2164 14.9683 26.1225 15.1352C25.9868 15.3908 25.8356 15.5473 25.6113 15.662C25.4235 15.7611 25.1157 15.7611 13.6765 15.7611C2.96752 15.7611 1.91905 15.7559 1.76778 15.6777C1.53305 15.5577 1.37134 15.4012 1.24615 15.1613C1.13661 14.9578 1.1314 14.9005 1.1314 12.9965C1.1314 11.0926 1.13661 11.0352 1.24615 10.8318C1.37134 10.597 1.52783 10.4406 1.75735 10.3206C1.89818 10.2423 3.05098 10.2371 13.6661 10.2319C25.1157 10.2319 25.4235 10.2319 25.6113 10.331ZM8.12639 17.0235C8.30374 17.5555 8.68975 18.4997 8.98707 19.1256C9.11226 19.3812 9.22181 19.6107 9.23224 19.6316C9.24267 19.6577 8.18899 19.6733 6.88492 19.6733H4.52196L4.16726 19.1256C3.80733 18.5727 3.23876 17.446 3.04054 16.8931L2.931 16.5957H5.45567H7.98034L8.12639 17.0235ZM18.4441 16.7105C18.3137 17.133 17.8912 18.1502 17.5522 18.8492L17.1557 19.6733H13.6765H10.1972L9.80081 18.8492C9.46175 18.1502 9.03924 17.133 8.90883 16.7105L8.87232 16.5957H13.6765H18.4807L18.4441 16.7105ZM24.2968 16.9296C23.9734 17.7798 23.6187 18.4788 23.1023 19.2665L22.8362 19.6733H20.4733H18.1155L18.3503 19.1621C18.6789 18.4684 19.0544 17.5451 19.2266 17.0235L19.3726 16.5957H21.8973H24.422L24.2968 16.9296ZM9.77994 20.6227C10.5937 21.958 11.3657 23.0065 12.1742 23.8724L12.5498 24.2741L12.2681 24.2375C11.1675 24.0967 9.79559 23.6951 8.87753 23.2569C7.69866 22.6935 6.73887 22.0154 5.79994 21.0974L5.20007 20.5079H7.4535H9.71213L9.77994 20.6227ZM16.462 20.8053C15.836 21.7963 15.1162 22.704 14.3181 23.5281L13.6765 24.1854L13.0401 23.5281C12.2368 22.704 11.517 21.7963 10.891 20.8053L10.698 20.5079H13.6765H16.655L16.462 20.8053Z" fill="#E65425"/>
<path d="M5.42442 11.2073C5.24707 11.4107 5.26272 11.4994 5.8365 13.0747C6.14426 13.9302 6.43637 14.6813 6.49375 14.7491C6.62416 14.9213 6.93713 14.9213 7.0884 14.7544C7.14578 14.6918 7.33878 14.2223 7.52657 13.7163C7.70914 13.2051 7.87084 12.8087 7.88649 12.8296C7.90736 12.8504 8.06906 13.2782 8.25163 13.7789C8.42898 14.2797 8.61155 14.7335 8.6585 14.7804C8.75239 14.89 9.0758 14.9056 9.21142 14.8065C9.32096 14.7283 10.4425 11.7029 10.4425 11.489C10.4425 11.1656 9.96256 10.9778 9.74348 11.2177C9.69653 11.2699 9.49831 11.7498 9.30531 12.2819L8.95061 13.2469L8.5959 12.2662C8.4029 11.7237 8.19947 11.2438 8.15252 11.2021C8.04298 11.103 7.73 11.0926 7.61003 11.1812C7.56308 11.2177 7.35965 11.6924 7.16143 12.2349C6.96843 12.7774 6.79108 13.1999 6.78065 13.1738C6.765 13.1478 6.60329 12.7148 6.42072 12.214C6.23816 11.7133 6.05037 11.2647 5.99821 11.2125C5.87302 11.0873 5.52874 11.0873 5.42442 11.2073Z" fill="#E65425"/>
<path d="M11.2249 11.2236C11.1675 11.281 11.1205 11.3958 11.1205 11.4897C11.1205 11.6879 12.1899 14.6559 12.3046 14.7811C12.4142 14.9063 12.7584 14.9063 12.8836 14.7811C12.9358 14.7289 13.1236 14.2751 13.3062 13.7639C13.4887 13.258 13.6556 12.8407 13.6765 12.8407C13.6974 12.8407 13.8643 13.258 14.0469 13.7639C14.2294 14.2751 14.4172 14.7289 14.4694 14.7811C14.5946 14.9063 14.9388 14.9063 15.0484 14.7811C15.1631 14.6559 16.2325 11.6879 16.2325 11.4897C16.2325 11.3958 16.1855 11.281 16.1281 11.2236C15.9925 11.088 15.6535 11.0828 15.5439 11.208C15.497 11.2601 15.3144 11.7139 15.1371 12.2147C14.9545 12.7155 14.7928 13.1432 14.7719 13.1641C14.7563 13.1849 14.5946 12.7937 14.412 12.2877C14.2294 11.787 14.0312 11.3175 13.9791 11.2497C13.8382 11.0724 13.5148 11.0671 13.3792 11.2445C13.327 11.3123 13.1288 11.7818 12.9462 12.2877C12.7532 12.8146 12.5967 13.1797 12.5759 13.1432C12.555 13.1067 12.3933 12.6737 12.216 12.1886C12.0386 11.6983 11.856 11.2601 11.8091 11.208C11.6995 11.0828 11.3605 11.088 11.2249 11.2236Z" fill="#E65425"/>
<path d="M17.0149 11.2334C16.9575 11.296 16.9106 11.4055 16.9106 11.4786C16.9106 11.6716 18.0112 14.6709 18.1208 14.7804C18.2459 14.9056 18.5902 14.9056 18.6945 14.7804C18.7415 14.7335 18.9241 14.2797 19.1014 13.7789C19.284 13.2782 19.4457 12.8504 19.4665 12.8296C19.4822 12.8087 19.6439 13.2051 19.8265 13.7163C20.0143 14.2223 20.2073 14.6918 20.2646 14.7544C20.4159 14.9213 20.7289 14.9213 20.8593 14.7491C20.9167 14.6813 21.2088 13.9302 21.5165 13.0747C22.0903 11.4994 22.106 11.4107 21.9286 11.2073C21.8243 11.0873 21.48 11.0873 21.3548 11.2125C21.3027 11.2647 21.1149 11.7133 20.9323 12.214C20.7497 12.7148 20.588 13.1478 20.5724 13.1738C20.562 13.1999 20.3846 12.7774 20.1916 12.2349C19.9934 11.6924 19.79 11.2177 19.743 11.1812C19.623 11.0926 19.3101 11.103 19.2005 11.2021C19.1536 11.2438 18.9501 11.7237 18.7571 12.2662L18.4024 13.2469L18.0477 12.2819C17.8547 11.7498 17.6565 11.2699 17.6096 11.2177C17.4844 11.0769 17.1557 11.0873 17.0149 11.2334Z" fill="#E65425"/>
</svg>
