<svg width="24" height="30" viewBox="0 0 24 30" fill="none" xmlns="http://www.w3.org/2000/svg">
<path d="M3.06735 1.04839C2.2236 1.31792 1.49118 1.90972 1.11618 2.62457C0.688445 3.43902 0.723601 2.40777 0.723601 14.9996C0.723601 25.2183 0.73532 26.3785 0.817351 26.6656C1.0693 27.5152 1.68454 28.2886 2.4111 28.6695C3.2197 29.0914 2.50485 29.0621 11.9736 29.0621C21.4424 29.0621 20.7275 29.0914 21.5361 28.6695C22.2627 28.2886 22.8779 27.5152 23.1299 26.6656C23.2119 26.3785 23.2236 25.3472 23.2236 16.5582V6.76714L20.3056 3.85503L17.3935 0.937065L10.3916 0.942924C3.85837 0.942924 3.36618 0.948784 3.06735 1.04839ZM16.6611 3.32769C16.6611 4.94488 16.6904 5.1148 17.0537 5.81206C17.4345 6.53863 18.208 7.15386 19.0576 7.40581C19.3154 7.48199 19.6728 7.49956 20.833 7.49956H22.2861V14.0621V20.6246H11.9736H1.6611V12.4918C1.6611 7.35308 1.68454 4.21246 1.71969 3.95464C1.80173 3.398 2.0068 2.98785 2.38766 2.60113C2.76266 2.23199 3.19626 2.00933 3.68845 1.93902C3.8818 1.90972 6.87595 1.88628 10.3506 1.88042L16.6611 1.87457V3.32769ZM20.8681 6.55034C19.5439 6.5855 18.8935 6.40386 18.3252 5.8355C17.7627 5.26714 17.6045 4.72222 17.5986 3.33941V2.60699L19.5615 4.56988L21.5244 6.53277L20.8681 6.55034ZM22.2861 23.5953C22.2861 24.7203 22.2568 25.816 22.2275 26.0445C22.1455 26.6011 21.9404 27.0113 21.5595 27.398C21.1728 27.7789 20.7627 27.9839 20.206 28.066C19.6494 28.1421 4.29782 28.1421 3.74118 28.066C3.18454 27.9839 2.77438 27.7789 2.38766 27.398C2.0068 27.0113 1.80173 26.6011 1.71969 26.0445C1.6904 25.816 1.6611 24.7203 1.6611 23.5953V21.5621H11.9736H22.2861V23.5953Z" fill="#E65425"/>
<path d="M13.1689 7.52344C13.0693 7.57031 12.9697 7.65234 12.9404 7.71094C12.917 7.77539 12.2666 9.70898 11.499 12.0117C10.6611 14.5137 10.0986 16.2891 10.0986 16.418C10.0986 16.7168 10.2627 16.875 10.5674 16.875C10.7197 16.875 10.8428 16.834 10.9131 16.7637C11.0596 16.6172 13.8486 8.25 13.8486 7.95117C13.8486 7.74609 13.6963 7.5 13.5615 7.5C13.5322 7.5 13.4736 7.48828 13.4268 7.4707C13.3857 7.45898 13.2686 7.48242 13.1689 7.52344Z" fill="#E65425"/>
<path d="M6.92285 10.418L5.41113 11.9238V12.1875V12.4512L6.92285 13.957C8.41699 15.457 8.43457 15.4688 8.68066 15.4688C9.00879 15.4688 9.16113 15.3164 9.16113 14.9883C9.16113 14.748 9.14355 14.7246 7.88965 13.4648L6.61816 12.1875L7.88965 10.9102C9.14355 9.65039 9.16113 9.62695 9.16113 9.38672C9.16113 9.05859 9.00879 8.90625 8.68066 8.90625C8.43457 8.90625 8.41699 8.91797 6.92285 10.418Z" fill="#E65425"/>
<path d="M14.9033 9.02344C14.8213 9.10547 14.7861 9.2168 14.7861 9.38672C14.7861 9.62695 14.8037 9.65039 16.0576 10.9102L17.3291 12.1875L16.0576 13.4648C14.8037 14.7246 14.7861 14.748 14.7861 14.9883C14.7861 15.3164 14.9385 15.4688 15.2666 15.4688C15.5127 15.4688 15.5303 15.457 17.0244 13.957L18.5361 12.4512V12.1875V11.9238L17.0244 10.418C15.5303 8.91797 15.5127 8.90625 15.2666 8.90625C15.0967 8.90625 14.9854 8.94141 14.9033 9.02344Z" fill="#E65425"/>
<path d="M4.59082 22.6177C4.47949 22.729 4.47363 22.811 4.47363 24.8442C4.47363 26.8774 4.47949 26.9595 4.59082 27.0708C4.66699 27.147 4.78418 27.188 4.94238 27.188C5.10059 27.188 5.21777 27.147 5.29395 27.0708C5.39941 26.9653 5.41113 26.8774 5.41113 26.1333V25.313H5.87988H6.34863V26.1333C6.34863 26.8774 6.36035 26.9653 6.46582 27.0708C6.62402 27.229 7.01074 27.229 7.16895 27.0708C7.28027 26.9595 7.28613 26.8774 7.28613 24.8442C7.28613 22.811 7.28027 22.729 7.16895 22.6177C7.09277 22.5415 6.97559 22.5005 6.81738 22.5005C6.65918 22.5005 6.54199 22.5415 6.46582 22.6177C6.36035 22.7231 6.34863 22.811 6.34863 23.5552V24.3755H5.87988H5.41113V23.5552C5.41113 22.811 5.39941 22.7231 5.29395 22.6177C5.21777 22.5415 5.10059 22.5005 4.94238 22.5005C4.78418 22.5005 4.66699 22.5415 4.59082 22.6177Z" fill="#E65425"/>
<path d="M8.34082 22.6177C8.26465 22.6938 8.22363 22.811 8.22363 22.9692C8.22363 23.3208 8.37012 23.438 8.80957 23.438H9.16113V25.1958C9.16113 26.8774 9.16699 26.9595 9.27832 27.0708C9.43652 27.229 9.82324 27.229 9.98145 27.0708C10.0928 26.9595 10.0986 26.8774 10.0986 25.1958V23.438H10.4502C10.8896 23.438 11.0361 23.3208 11.0361 22.9692C11.0361 22.811 10.9951 22.6938 10.9189 22.6177C10.8076 22.5063 10.7256 22.5005 9.62988 22.5005C8.53418 22.5005 8.45215 22.5063 8.34082 22.6177Z" fill="#E65425"/>
<path d="M12.0908 22.6172C11.9795 22.7285 11.9736 22.8105 11.9736 24.8438C11.9736 26.877 11.9795 26.959 12.0908 27.0703C12.167 27.1465 12.2842 27.1875 12.4424 27.1875C12.6006 27.1875 12.7178 27.1465 12.7939 27.0703C12.8994 26.9648 12.9111 26.8711 12.917 25.998V25.0488L13.1807 25.5762C13.3271 25.8633 13.4912 26.1387 13.5439 26.1738C13.6611 26.2734 14.0361 26.2734 14.1533 26.1738C14.2061 26.1387 14.3701 25.8633 14.5166 25.5762L14.7803 25.0488V25.998C14.7861 26.8711 14.7979 26.9648 14.9033 27.0703C14.9795 27.1465 15.0967 27.1875 15.2549 27.1875C15.4131 27.1875 15.5303 27.1465 15.6064 27.0703C15.7178 26.959 15.7236 26.877 15.7236 24.8438C15.7236 22.8105 15.7178 22.7285 15.6064 22.6172C15.4834 22.4941 15.1494 22.459 14.9736 22.5527C14.9209 22.582 14.6514 23.0566 14.376 23.6074C14.1064 24.1582 13.8662 24.6094 13.8486 24.6094C13.8311 24.6094 13.5908 24.1582 13.3213 23.6074C13.0459 23.0566 12.7764 22.582 12.7236 22.5527C12.5479 22.459 12.2139 22.4941 12.0908 22.6172Z" fill="#E65425"/>
<path d="M16.7783 22.6172C16.667 22.7285 16.6611 22.8105 16.6611 24.8438C16.6611 26.877 16.667 26.959 16.7783 27.0703C16.8896 27.1816 16.9717 27.1875 18.0674 27.1875C19.1631 27.1875 19.2451 27.1816 19.3564 27.0703C19.4326 26.9941 19.4736 26.877 19.4736 26.7188C19.4736 26.5605 19.4326 26.4434 19.3564 26.3672C19.251 26.2617 19.1631 26.25 18.4189 26.25H17.5986V24.4922C17.5986 22.8105 17.5928 22.7285 17.4814 22.6172C17.4053 22.541 17.2881 22.5 17.1299 22.5C16.9717 22.5 16.8545 22.541 16.7783 22.6172Z" fill="#E65425"/>
</svg>
