<svg width="31" height="30" viewBox="0 0 31 30" fill="none" xmlns="http://www.w3.org/2000/svg">
<g clip-path="url(#clip0_2003_35489)">
<path d="M15.999 0.176758C15.3955 0.522461 15.1436 1.24902 15.3662 1.96387C15.3955 2.05762 14.9854 2.49707 13.1514 4.3252L10.9072 6.56934L10.5615 6.40527C10.2451 6.25879 10.1455 6.24121 9.56543 6.24121C8.96191 6.24121 8.89746 6.25293 8.52832 6.42871C7.9834 6.68652 7.64355 7.01465 7.37988 7.54785C7.16895 7.98145 7.16309 8.01074 7.16309 8.6377C7.16309 9.22949 7.18066 9.32324 7.32715 9.63965L7.49121 9.98535L5.24707 12.2295C3.41895 14.0635 2.97949 14.4736 2.88574 14.4443C2.1709 14.2217 1.43848 14.4795 1.09277 15.0889C0.946289 15.3408 0.922852 15.4463 0.922852 15.8213C0.922852 16.2197 0.94043 16.3018 1.11621 16.583C1.69629 17.5498 3.14355 17.5088 3.6416 16.5127C3.80566 16.1904 3.85254 15.6221 3.74121 15.335C3.68848 15.2061 3.79395 15.0889 4.97168 13.9111C6.12598 12.7568 6.24902 12.6572 6.14941 12.8916C5.80371 13.7178 5.44629 15.0654 5.29395 16.1143C4.80762 19.4893 5.63965 23.0811 7.56738 25.8701L7.88965 26.3389L7.4502 26.7842C7.0459 27.2002 7.0166 27.2529 7.0166 27.4873C7.0166 27.7334 7.02832 27.751 8.14746 28.8701C9.65918 30.3818 9.41309 30.3818 10.9248 28.8701C11.9092 27.8916 12.0615 27.7158 12.0967 27.5225L12.1318 27.2998L10.9658 26.1279C10.3271 25.4834 9.74121 24.9443 9.6709 24.9268C9.46582 24.874 9.2959 24.9561 8.94434 25.2959L8.61035 25.6123L8.22363 25.0088C7.22168 23.4619 6.55957 21.6924 6.27246 19.8057C6.1377 18.8975 6.1377 17.21 6.27832 16.2666C6.53027 14.5439 7.11035 12.9268 8.02441 11.3916C8.2998 10.9229 8.41113 10.7881 8.47559 10.8174C8.91504 11.0049 9.0791 11.04 9.56543 11.0342C9.95215 11.0342 10.1748 11.0049 10.3916 10.917C11.0537 10.6592 11.5752 10.1436 11.8271 9.51074C12.0146 9.03613 12.0205 8.18066 11.833 7.77637L11.71 7.49512L12.1318 7.21973C12.3662 7.07324 12.8232 6.80957 13.1514 6.64551C17.2646 4.55371 22.0869 4.81738 25.9893 7.34277L26.5342 7.69434L26.2061 8.02832C25.9658 8.27441 25.8721 8.41504 25.8428 8.5791L25.8076 8.80176L27.0146 10.0029L28.2158 11.21L28.4443 11.1748C28.6377 11.1396 28.8135 10.9873 29.792 10.0029C30.8818 8.91309 30.9229 8.86035 30.9229 8.6377C30.9229 8.41504 30.8818 8.3623 29.7627 7.24902C28.6611 6.14746 28.5967 6.09473 28.3799 6.09473C28.1807 6.09473 28.1104 6.1416 27.7061 6.52832L27.2607 6.96777L26.792 6.64551C23.8799 4.63574 20.1416 3.82129 16.626 4.43066C15.6826 4.59473 14.2529 5.00488 13.7256 5.25684C13.626 5.30957 14.1123 4.77637 14.833 4.05566C16.0107 2.87207 16.1279 2.7666 16.2568 2.81934C16.4971 2.90723 17.1064 2.87793 17.3584 2.76074C17.6748 2.62012 18.0557 2.1748 18.1494 1.84668C18.3311 1.19629 18.0732 0.52832 17.5049 0.188477C17.2236 0.0185547 17.1416 0.000976562 16.7432 0.000976562C16.3623 0.000976562 16.2627 0.0244141 15.999 0.176758ZM17.0889 1.14941C17.2471 1.35449 17.2412 1.53613 17.0771 1.73535C16.8896 1.94629 16.5908 1.94629 16.4092 1.72949C16.2393 1.53613 16.2393 1.34863 16.3975 1.14941C16.4912 1.03223 16.5674 0.99707 16.7432 0.99707C16.9189 0.99707 16.9951 1.03223 17.0889 1.14941ZM10.1572 7.34863C10.7373 7.61816 11.083 8.27441 10.96 8.87793C10.8311 9.4873 10.4092 9.90918 9.7998 10.0381C9.19629 10.1611 8.54004 9.81543 8.27051 9.23535C8.00684 8.66699 8.1123 8.10449 8.56934 7.64746C9.02051 7.19043 9.58887 7.08496 10.1572 7.34863ZM29.0771 7.96973L29.7217 8.61426L29.0596 9.27637L28.4033 9.93262L27.7471 9.27637L27.085 8.61426L27.7295 7.96973C28.0811 7.61816 28.3857 7.3252 28.4033 7.3252C28.4209 7.3252 28.7256 7.61816 29.0771 7.96973ZM2.64551 15.4756C2.82715 15.6162 2.85645 15.9502 2.69824 16.126C2.46973 16.3779 1.91895 16.1436 1.91895 15.792C1.91895 15.5986 2.15918 15.3525 2.34668 15.3525C2.42285 15.3525 2.55762 15.4053 2.64551 15.4756ZM10.21 28.126L9.53613 28.7998L8.87988 28.1377L8.21777 27.4814L8.8916 26.8076L9.56543 26.1338L10.2217 26.79L10.8838 27.4521L10.21 28.126Z" fill="#E65425"/>
<path d="M11.9033 10.9688C11.1357 11.7363 10.9424 11.959 10.9424 12.0879C10.9424 12.2871 15.8408 24.5566 15.958 24.6445C16.0049 24.6797 17.2002 25.1543 18.6123 25.6992L21.1787 26.6895L21.958 28.2422C22.3857 29.0977 22.7725 29.8418 22.8252 29.8945C22.8838 29.9648 23.001 30 23.1533 30C23.3936 30 23.4053 29.9883 27.1611 26.2324C30.9111 22.4824 30.9229 22.4707 30.9229 22.2305C30.9229 22.0781 30.8877 21.9609 30.8232 21.9023C30.7646 21.8496 30.0205 21.4629 29.165 21.0352L27.6123 20.2559L26.6807 17.8184C26.165 16.4766 25.7021 15.2871 25.6436 15.1699L25.5381 14.959L19.3975 12.5039C16.0225 11.1563 13.1689 10.043 13.0635 10.0313C12.876 10.0078 12.8115 10.0547 11.9033 10.9688ZM19.0283 13.4414L24.7998 15.75L25.7139 18.1172L26.6279 20.4785L24.0264 23.0918L21.4189 25.7051L19.0459 24.791L16.6729 23.877L14.3643 18.1055C13.0928 14.9297 12.0557 12.3047 12.0557 12.2695C12.0557 12.2344 12.0967 12.1699 12.1494 12.123C12.2256 12.0586 12.6357 12.4453 15.2256 15.0352L18.2139 18.0234L18.0381 18.3984C17.3701 19.834 17.9443 21.457 19.3623 22.1367C19.8135 22.3477 19.8311 22.3535 20.5225 22.3535C21.1201 22.3535 21.2783 22.3301 21.5654 22.2188C22.251 21.9375 22.8604 21.3281 23.1416 20.6367C23.2529 20.3555 23.2764 20.1973 23.2764 19.5996C23.2764 18.9082 23.2705 18.8906 23.0596 18.4395C22.3799 17.0215 20.7393 16.4414 19.3154 17.1152L18.9463 17.291L15.958 14.3027C13.3682 11.7129 12.9814 11.3027 13.0459 11.2266C13.0928 11.1738 13.1572 11.1328 13.1924 11.1328C13.2275 11.1328 15.8525 12.1699 19.0283 13.4414ZM21.249 17.9883C21.6299 18.1523 22.0869 18.6445 22.2158 19.0195C22.5088 19.8867 22.1279 20.7949 21.3018 21.2109C20.417 21.6504 19.3506 21.2637 18.917 20.3379C18.7236 19.916 18.7119 19.3242 18.8936 18.9199C19.3096 17.9941 20.3232 17.5898 21.249 17.9883ZM28.4619 21.8262C29.0771 22.1309 29.5752 22.3887 29.5752 22.4004C29.5752 22.4063 28.1689 23.8184 26.4463 25.541L23.3174 28.6699L22.749 27.5391L22.1807 26.4082L24.7529 23.8359C26.165 22.4238 27.3252 21.2695 27.3369 21.2695C27.3428 21.2695 27.8525 21.5215 28.4619 21.8262Z" fill="#E65425"/>
</g>
<defs>
<clipPath id="clip0_2003_35489">
<rect width="30" height="30" fill="white" transform="translate(0.922852 0.00195312)"/>
</clipPath>
</defs>
</svg>
