<svg width="31" height="30" viewBox="0 0 31 30" fill="none" xmlns="http://www.w3.org/2000/svg">
<path d="M1.93123 0.177734C1.52107 0.382812 1.26326 0.658203 1.06404 1.08008L0.923413 1.37891V8.38672C0.923413 16.2676 0.888256 15.6934 1.37458 16.2324C1.52107 16.3965 1.77888 16.6016 1.94294 16.6895L2.24177 16.8477L7.53279 16.8652L12.8179 16.8828L12.9644 16.7363C13.1578 16.543 13.1578 16.2734 12.9644 16.0859L12.8238 15.9395H7.72029C3.54255 15.9395 2.58162 15.9277 2.42927 15.8574C2.20662 15.7637 1.93708 15.4707 1.87263 15.248C1.84919 15.1602 1.83162 12.0547 1.83162 8.35156C1.83162 1.71875 1.83162 1.60742 1.9488 1.41406C2.10115 1.15625 2.31208 1.00391 2.59919 0.939453C2.90388 0.869141 15.7593 0.869141 16.064 0.939453C16.3277 0.998047 16.5386 1.13867 16.7086 1.37305C16.8316 1.53125 16.8316 1.5957 16.8609 6.75195L16.8902 11.9668L17.0308 12.0781C17.2242 12.2363 17.482 12.2188 17.6578 12.043L17.7984 11.8965L17.7867 6.61133L17.7691 1.32031L17.6109 1.02148C17.523 0.857422 17.3179 0.599609 17.1539 0.453125C16.6148 -0.0332031 17.189 0.00195312 9.30232 0.00195312H2.28865L1.93123 0.177734Z" fill="#E65425"/>
<path d="M9.00935 3.86914C8.9156 3.96289 8.89216 4.0625 8.89216 4.33789V4.68945H6.89997C4.98396 4.68945 4.90193 4.69531 4.7906 4.80664C4.62653 4.9707 4.63239 5.33398 4.79646 5.48633C4.91364 5.5918 5.07185 5.59766 8.22419 5.61523C10.0406 5.62109 11.5289 5.64453 11.5289 5.66211C11.5289 5.67383 11.441 5.91992 11.3297 6.20117C10.9429 7.20898 10.3336 8.31055 9.67732 9.17773L9.34919 9.61133L9.17341 9.39453C8.82185 8.96094 8.17146 7.92969 7.88435 7.35547C7.52107 6.62305 7.46247 6.56445 7.19294 6.56445C6.92927 6.56445 6.72419 6.75781 6.72419 7.01562C6.72419 7.36133 7.66169 9.00781 8.38825 9.92773C8.53474 10.1211 8.65778 10.2969 8.65778 10.3203C8.65778 10.4082 7.64997 11.3047 7.14021 11.6621C6.06794 12.418 6.10896 12.377 6.09138 12.6406C6.0738 12.8457 6.09724 12.8984 6.23786 13.0098C6.35505 13.1035 6.45466 13.127 6.58943 13.1094C6.90583 13.0566 8.00153 12.2773 8.83357 11.5156C9.09724 11.2754 9.33161 11.0762 9.35505 11.0762C9.37849 11.0762 9.48982 11.1699 9.60114 11.2871C10.2222 11.9375 11.8922 13.127 12.1851 13.127C12.5015 13.127 12.7242 12.7695 12.607 12.4531C12.5836 12.4004 12.2965 12.1719 11.9625 11.9492C11.3648 11.5508 10.4801 10.8418 10.1636 10.5078L9.99958 10.332L10.4566 9.72266C11.2828 8.62695 11.9039 7.47266 12.3258 6.24805L12.5367 5.62695H13.0875C13.691 5.62695 13.8843 5.56836 13.984 5.35156C14.0777 5.14648 14.066 5.01758 13.9254 4.8418L13.8082 4.68945H11.816H9.82966V4.37305C9.82966 3.95117 9.67732 3.75195 9.35505 3.75195C9.20271 3.75195 9.08552 3.79297 9.00935 3.86914Z" fill="#E65425"/>
<path d="M19.8492 4.53125C19.1695 5.04688 18.8062 5.35742 18.7711 5.46289C18.6714 5.75 18.8121 5.91406 19.8023 6.65234C20.3179 7.03906 20.8101 7.39062 20.8863 7.43164C21.191 7.60156 21.5484 7.36719 21.5484 7.00391C21.5484 6.80469 21.4429 6.6875 20.9332 6.30664L20.6402 6.08398L21.6656 6.10742C22.5621 6.125 22.732 6.14844 23.025 6.26562C23.7339 6.54102 24.3785 7.19141 24.6656 7.90039C24.7886 8.2168 24.8004 8.33398 24.8297 10.0508C24.8472 11.0469 24.8824 11.9082 24.9058 11.9609C24.9586 12.0723 25.1929 12.1895 25.3511 12.1895C25.4097 12.1895 25.5269 12.1367 25.6148 12.0664L25.7672 11.9492V10.1445C25.7672 8.1875 25.7437 7.97656 25.4214 7.29688C25.0875 6.58203 24.4429 5.9082 23.775 5.56836C23.1304 5.24023 22.9254 5.19922 21.7535 5.16406L20.6461 5.12891L21.0621 4.81836C21.2906 4.64844 21.4957 4.47266 21.5132 4.41992C21.648 4.07422 21.4429 3.75195 21.0914 3.75195C20.9039 3.75195 20.7339 3.85742 19.8492 4.53125Z" fill="#E65425"/>
<path d="M15.2964 13.2377C14.9273 13.3608 14.6226 13.5893 14.3941 13.9057C14.0308 14.4096 14.0425 14.0639 14.0601 21.7162L14.0777 28.683L14.2359 28.9819C14.3238 29.1459 14.5289 29.4037 14.6929 29.5502C15.232 30.0365 14.6578 30.0014 22.5445 30.0014H29.5582L29.9156 29.8256C30.3257 29.6205 30.5836 29.3451 30.7828 28.9233L30.9234 28.6244V21.6166C30.9234 13.7358 30.9586 14.31 30.4722 13.7709C30.3257 13.6069 30.0679 13.4018 29.9039 13.3139L29.605 13.1557L27.4371 13.1381C26.2476 13.1264 25.2164 13.1323 25.1402 13.1557C24.982 13.1967 24.8062 13.5014 24.8531 13.6772C24.8707 13.7416 24.9234 13.853 24.9703 13.9174C25.0523 14.0287 25.1402 14.0346 27.2203 14.0639C29.3062 14.0932 29.4 14.099 29.5582 14.2162C29.816 14.4096 29.9742 14.685 30.0152 15.019C30.0328 15.1889 30.0445 18.2651 30.0328 21.8569L30.0152 28.3901L29.8804 28.6069C29.8043 28.724 29.6461 28.8823 29.5289 28.9584L29.3121 29.0932H22.5738C18.8707 29.0932 15.7652 29.0756 15.6773 29.0522C15.4546 28.9877 15.1617 28.7182 15.0679 28.4955C14.9976 28.3373 14.9859 27.1244 14.9859 21.558C14.9859 14.0522 14.9566 14.5795 15.3843 14.2514L15.5894 14.0932L19.6207 14.0639C23.4761 14.0346 23.6519 14.0287 23.7691 13.9233C23.9566 13.7533 23.939 13.4076 23.7398 13.2494C23.5875 13.1264 23.5406 13.1264 19.5914 13.1264C15.9175 13.1323 15.5777 13.1381 15.2964 13.2377Z" fill="#E65425"/>
<path d="M22.1812 16.9711C22.0933 17.0179 21.9937 17.1058 21.9586 17.1703C21.8355 17.3988 18.6773 25.7484 18.6773 25.8422C18.6773 25.9008 18.73 26.0121 18.8004 26.1C18.9468 26.2875 19.316 26.3168 19.4859 26.1468C19.5386 26.0941 19.7437 25.6312 19.9312 25.1215L20.2769 24.2015L22.5093 24.2133L24.7359 24.2308L25.0757 25.139C25.2632 25.6371 25.4625 26.0883 25.5152 26.1468C25.7554 26.4105 26.2945 26.1937 26.2945 25.8363C26.2945 25.6957 23.23 17.4691 23.066 17.1586C22.9312 16.9066 22.4742 16.807 22.1812 16.9711ZM23.441 20.8031C23.9097 22.0453 24.314 23.1058 24.3316 23.1586C24.3726 23.2582 24.2613 23.264 22.5211 23.264C21.5015 23.264 20.6695 23.2465 20.6695 23.223C20.6695 23.1996 21.0855 22.0922 21.5894 20.7621C22.1871 19.1976 22.5269 18.3773 22.5504 18.4476C22.5738 18.5004 22.9722 19.5609 23.441 20.8031Z" fill="#E65425"/>
<path d="M6.23199 17.9375L6.07965 18.0547V19.8594C6.07965 21.8223 6.10309 22.0215 6.43121 22.7246C6.84723 23.6211 7.62653 24.3066 8.65778 24.6875C8.92145 24.7871 9.17926 24.8105 10.0933 24.8398L11.2007 24.875L10.7847 25.1855C10.5562 25.3555 10.3511 25.5312 10.3336 25.584C10.1988 25.9297 10.4039 26.252 10.7554 26.252C10.9429 26.252 11.1129 26.1465 11.9976 25.4727C12.6773 24.957 13.0406 24.6465 13.0757 24.541C13.1754 24.2539 13.0347 24.0898 12.0445 23.3516C11.5289 22.9648 11.0367 22.6133 10.9605 22.5723C10.6558 22.4023 10.2984 22.6367 10.2984 23C10.2984 23.1992 10.4039 23.3223 10.9078 23.6914L11.1949 23.9082H10.2867C9.63043 23.9082 9.29645 23.8848 9.06207 23.8145C8.14801 23.5449 7.40973 22.8242 7.13434 21.9219C7.02887 21.5937 7.01715 21.377 7.01715 19.8887C7.01715 18.1309 6.99957 17.9961 6.74176 17.8789C6.53668 17.7852 6.40778 17.7969 6.23199 17.9375Z" fill="#E65425"/>
</svg>
