<svg width="31" height="30" viewBox="0 0 31 30" fill="none" xmlns="http://www.w3.org/2000/svg">
<g clip-path="url(#clip0_2003_35551)">
<path d="M0.222446 0.105194C0.134555 0.198944 0.122836 0.392303 0.122836 1.62277C0.122836 3.30441 0.0876801 3.22238 0.814243 3.22238H1.29471V8.49582V13.7693H1.00174C0.779086 13.7693 0.685336 13.7986 0.591586 13.8982C0.486118 14.0154 0.474399 14.1032 0.474399 14.9997C0.474399 15.9431 0.480258 15.9782 0.609164 16.1013C0.708774 16.195 0.820102 16.2302 1.01932 16.2302H1.29471V21.5036V26.7771H0.808383C0.0876801 26.7771 0.122836 26.695 0.122836 28.4001C0.122836 29.6892 0.134555 29.8122 0.228305 29.9001C0.322055 29.988 0.515414 29.9997 1.74588 29.9997C3.42752 29.9997 3.34549 30.0349 3.34549 29.3083V28.8279H8.61893H13.8924V29.115C13.8924 29.3611 13.9158 29.4255 14.0447 29.5251C14.1853 29.6364 14.2791 29.6482 15.1228 29.6482C15.9666 29.6482 16.0603 29.6364 16.201 29.5251C16.3299 29.4255 16.3533 29.3611 16.3533 29.115V28.8279H19.6228C23.3142 28.8279 23.0916 28.8571 23.0916 28.3767C23.0916 27.9255 23.2849 27.9489 19.617 27.9489H16.3533V27.6677C16.3533 27.445 16.324 27.3571 16.2185 27.2575C16.0896 27.1345 16.0252 27.1286 15.117 27.1286C14.2264 27.1286 14.1385 27.1404 14.0213 27.2458C13.9217 27.3396 13.8924 27.4333 13.8924 27.656V27.9489H8.61893H3.34549V27.4626C3.34549 26.8181 3.30448 26.7771 2.65409 26.7771H2.17362V21.5036V16.2302H2.46073C2.70682 16.2302 2.77127 16.2068 2.87088 16.0779C2.98221 15.9314 2.99393 15.8435 2.99393 14.9704C2.99393 14.0564 2.98807 14.0212 2.85916 13.8982C2.75955 13.8044 2.64823 13.7693 2.44901 13.7693H2.17362V8.49582V3.22238H2.65995C3.30448 3.22238 3.34549 3.18137 3.34549 2.53098V2.05051H4.68143C5.93534 2.05051 6.02909 2.04465 6.12284 1.93918C6.2576 1.78683 6.2576 1.43527 6.12284 1.28293C6.02909 1.17746 5.93534 1.1716 4.68143 1.1716H3.34549V0.685272C3.34549 -0.0354309 3.42752 -0.000274658 1.72245 -0.000274658C0.433383 -0.000274658 0.310336 0.0114441 0.222446 0.105194ZM2.46659 1.61105V2.34348H1.73416H1.00174V1.61105V0.878632H1.73416H2.46659V1.61105ZM2.05643 14.9997V15.3513H1.73416H1.4119V14.9997V14.6482H1.73416H2.05643V14.9997ZM2.46659 28.3884V29.1208H1.73416H1.00174V28.3884V27.656H1.73416H2.46659V28.3884ZM15.4744 28.3884V28.7107H15.1228H14.7713V28.3884V28.0661H15.1228H15.4744V28.3884Z" fill="#E65425"/>
<path d="M26.9998 0.10519C26.9236 0.187222 26.9002 0.327847 26.9002 0.691128V1.1716H21.6268H16.3533V0.890347C16.3533 0.66769 16.324 0.5798 16.2186 0.48019C16.0897 0.357143 16.0252 0.351284 15.117 0.351284C14.2264 0.351284 14.1385 0.363003 14.0213 0.468472C13.9217 0.562222 13.8924 0.655972 13.8924 0.878628V1.1716H10.7635H7.62873L7.54083 1.3005C7.41193 1.48214 7.42365 1.79269 7.56427 1.93332C7.6756 2.04464 7.75763 2.0505 10.7869 2.0505H13.8924V2.33761C13.8924 2.58371 13.9158 2.64816 14.0447 2.74777C14.1854 2.8591 14.2791 2.87082 15.1229 2.87082C15.9666 2.87082 16.0604 2.8591 16.201 2.74777C16.3299 2.64816 16.3533 2.58371 16.3533 2.33761V2.0505H21.6268H26.9002V2.53683C26.9002 3.18136 26.9412 3.22238 27.5916 3.22238H28.0721V8.49582V13.7693H27.7791C27.5565 13.7693 27.4627 13.7985 27.369 13.8982C27.2635 14.0153 27.2518 14.1032 27.2518 14.9997C27.2518 15.9431 27.2576 15.9782 27.3865 16.1013C27.4861 16.195 27.5975 16.2302 27.7967 16.2302H28.0721V21.5036V26.7771H27.5858C26.9412 26.7771 26.9002 26.8181 26.9002 27.4685V27.9489H25.6815C24.2928 27.9489 24.2635 27.9607 24.2635 28.4001C24.2635 28.8161 24.3045 28.8278 25.6873 28.8278H26.9002V29.3142C26.9002 30.0349 26.8182 29.9997 28.5233 29.9997C29.8123 29.9997 29.9354 29.988 30.0233 29.8943C30.1111 29.8005 30.1229 29.6071 30.1229 28.3767C30.1229 26.695 30.158 26.7771 29.4315 26.7771H28.951V21.5036V16.2302H29.2381C29.4842 16.2302 29.5486 16.2068 29.6483 16.0778C29.7596 15.9314 29.7713 15.8435 29.7713 14.9704C29.7713 14.0564 29.7654 14.0212 29.6365 13.8982C29.5369 13.8044 29.4256 13.7693 29.2264 13.7693H28.951V8.49582V3.22238H29.4373C30.158 3.22238 30.1229 3.30441 30.1229 1.59933C30.1229 0.310268 30.1111 0.187222 30.0174 0.0993309C29.9236 0.0114403 29.7303 -0.000278473 28.4998 -0.000278473C27.2108 -0.000278473 27.0877 0.0114403 26.9998 0.10519ZM29.244 1.61105V2.34347H28.5115H27.7791V1.61105V0.878628H28.5115H29.244V1.61105ZM15.4744 1.61105V1.93332H15.1229H14.7713V1.61105V1.28878H15.1229H15.4744V1.61105ZM28.8338 14.9997V15.3513H28.5115H28.1893V14.9997V14.6482H28.5115H28.8338V14.9997ZM29.244 28.3884V29.1208H28.5115H27.7791V28.3884V27.656H28.5115H29.244V28.3884Z" fill="#E65425"/>
<path d="M11.9998 4.74609C11.7654 4.81641 11.449 5.07422 11.3436 5.26758C11.2967 5.36133 9.7674 9.68555 7.94513 14.877C5.70099 21.2812 4.63458 24.3984 4.63458 24.5566C4.63458 24.873 4.76349 25.1016 5.00958 25.2188C5.18536 25.3008 5.52521 25.3125 7.86896 25.3125C9.61505 25.3125 10.6053 25.2891 10.7576 25.248C10.9041 25.207 11.0799 25.0898 11.2264 24.9375C11.4373 24.7207 11.5369 24.4922 12.1287 22.8926L12.7908 21.0938L15.1346 21.1055L17.4783 21.123L18.1463 22.9395C18.7557 24.5977 18.8318 24.7734 19.0369 24.9727C19.1658 25.0898 19.3709 25.2129 19.494 25.248C19.6404 25.2891 20.6658 25.3125 22.3768 25.3125C24.7205 25.3125 25.0604 25.3008 25.2361 25.2188C25.4822 25.1016 25.6111 24.873 25.6111 24.5566C25.6111 24.3984 24.5447 21.2812 22.3006 14.8828C20.4783 9.69141 18.949 5.36719 18.9022 5.2793C18.785 5.05078 18.4979 4.82227 18.2401 4.74609C17.9764 4.67578 12.2459 4.67578 11.9998 4.74609ZM15.2049 5.75391C15.2518 5.83008 15.6443 6.90234 16.0779 8.14453C16.5115 9.38672 16.9041 10.4707 16.9393 10.5527C17.0154 10.7168 17.2147 10.8398 17.4139 10.8398C17.5838 10.8398 17.8182 10.582 17.8182 10.3887C17.8182 10.3008 17.4608 9.21094 17.0272 7.97461C16.5936 6.73828 16.2361 5.70703 16.2361 5.67773C16.2361 5.58984 17.8943 5.61328 18.0057 5.69531C18.0584 5.73633 19.535 9.85547 21.3397 15C23.1151 20.0742 24.5858 24.2637 24.5975 24.3047C24.6209 24.3574 24.4158 24.375 23.701 24.375H22.7693L20.6014 18.1875C19.0252 13.6816 18.4041 11.9766 18.3221 11.918C18.035 11.7188 17.5838 11.9238 17.5838 12.2578C17.5838 12.3516 18.5096 15.0762 19.6404 18.2988C20.7772 21.5273 21.7147 24.2168 21.7322 24.2695C21.7557 24.3691 21.6795 24.375 20.7537 24.375C19.7811 24.375 19.7518 24.3691 19.6697 24.2402C19.6229 24.1699 19.283 23.2793 18.908 22.2656C18.3983 20.877 18.1932 20.3848 18.0818 20.291L17.9295 20.1562H13.7283C10.4705 20.1562 9.492 20.1738 9.38068 20.2324C9.2049 20.3203 8.85333 21.1465 8.81232 21.5684C8.78302 21.8086 8.8006 21.8496 8.94122 21.9609C9.28107 22.2305 9.59161 22.0547 9.79669 21.4746L9.93146 21.0938H10.8572H11.783L11.7186 21.252C11.6834 21.3457 11.4315 22.0195 11.1561 22.7637C10.8865 23.502 10.6229 24.1699 10.576 24.2402C10.494 24.3691 10.4588 24.375 9.61505 24.375C9.12872 24.375 8.73615 24.3633 8.73615 24.3457C8.73615 24.334 8.78888 24.1875 8.85333 24.0234C9.00568 23.6367 9.00568 23.3906 8.84161 23.2207C8.68927 23.0566 8.39044 23.0391 8.22052 23.1855C8.15607 23.2441 8.03302 23.4902 7.94513 23.7305C7.69318 24.4102 7.76349 24.375 6.60919 24.375C5.84161 24.375 5.62482 24.3574 5.64825 24.2988C5.65997 24.2637 7.13068 20.0742 8.91193 15C10.7049 9.87891 12.1873 5.73633 12.2401 5.69531C12.3104 5.64258 12.7029 5.625 13.7283 5.625C15.1053 5.625 15.1229 5.625 15.2049 5.75391Z" fill="#E65425"/>
<path d="M13.5526 8.25C13.4822 8.26172 13.3826 8.32617 13.3358 8.39648C13.2303 8.56641 10.0838 17.5957 10.0838 17.7422C10.0838 17.8066 10.1365 17.9238 10.2068 18.0117L10.324 18.1641H13.6873C16.8807 18.1641 17.0506 18.1582 17.1795 18.0527C17.2733 17.9766 17.3143 17.8828 17.3143 17.748C17.3084 17.5137 14.1619 8.51367 14.033 8.37305C13.9334 8.26172 13.7576 8.2207 13.5526 8.25ZM14.1736 11.4844C14.408 12.1465 14.5955 12.7266 14.5955 12.7734C14.5955 12.8262 14.2557 13.8398 13.8397 15.0293L13.0838 17.1973L12.1697 17.2148C11.6658 17.2207 11.2557 17.209 11.2557 17.1914C11.2557 17.0625 13.6873 10.2012 13.7166 10.2363C13.7401 10.2656 13.9451 10.8223 14.1736 11.4844ZM15.6678 15.7441C15.949 16.541 16.1658 17.1973 16.1541 17.209C16.1424 17.2207 15.6736 17.2207 15.1111 17.2148L14.0916 17.1973L14.5897 15.75C14.8709 14.9531 15.1111 14.2969 15.1287 14.2969C15.1463 14.2969 15.3865 14.9473 15.6678 15.7441Z" fill="#E65425"/>
</g>
<defs>
<clipPath id="clip0_2003_35551">
<rect width="30" height="30" fill="white" transform="translate(0.122864)"/>
</clipPath>
</defs>
</svg>
