<svg width="31" height="30" viewBox="0 0 31 30" fill="none" xmlns="http://www.w3.org/2000/svg">
<path d="M14.7311 1.58324C13.0963 1.84105 11.8131 3.02464 11.4205 4.63011C11.3151 5.06371 11.3151 6.10082 11.4264 6.53441C11.7018 7.61839 12.5397 8.66136 13.5065 9.13011C13.7819 9.26488 14.1745 9.41136 14.3854 9.45824C14.8717 9.57543 15.7741 9.57543 16.2604 9.4641C17.3385 9.20628 18.4049 8.36839 18.8854 7.38402C19.2135 6.71605 19.3073 6.31175 19.3073 5.57347C19.3073 4.5598 19.0319 3.75121 18.4342 3.01292C17.5788 1.95238 16.067 1.3723 14.7311 1.58324ZM15.7916 2.57933C16.8698 2.75511 17.8717 3.6223 18.194 4.67699C18.3639 5.22191 18.3522 6.00121 18.1705 6.51097C17.4088 8.67308 14.6666 9.25902 13.1198 7.5891C12.7916 7.23753 12.4928 6.69261 12.3991 6.27074C12.2995 5.83128 12.3229 5.093 12.4518 4.67699C12.8209 3.48753 13.9987 2.58519 15.2643 2.5266C15.3463 2.5266 15.5807 2.55003 15.7916 2.57933Z" fill="#E65425"/>
<path d="M14.7604 3.27539C14.1979 3.52734 13.9049 4.22461 14.1158 4.79883C14.1862 4.99219 14.1803 5.00391 13.9108 5.25586C13.5416 5.60156 13.3131 6.11133 13.3072 6.60938C13.3014 6.93164 13.319 6.99609 13.442 7.0957C13.5182 7.1543 13.6647 7.20703 13.7701 7.20703C14.0514 7.20703 14.2096 7.04883 14.2506 6.73828C14.2975 6.375 14.4615 6.07031 14.7194 5.87695C14.901 5.73633 14.983 5.71289 15.3229 5.71289C15.6627 5.71289 15.7448 5.73633 15.9264 5.87695C16.1842 6.07031 16.3483 6.375 16.3951 6.73828C16.4362 7.05469 16.5944 7.20703 16.8873 7.20703C17.0221 7.20703 17.1334 7.16016 17.2389 7.05469C17.3737 6.91406 17.3854 6.87305 17.3619 6.5332C17.3209 6.05273 17.0983 5.57812 16.7584 5.25L16.4948 4.98633L16.5533 4.7168C16.653 4.27734 16.5065 3.76758 16.1901 3.47461C15.8561 3.16406 15.2115 3.07031 14.7604 3.27539ZM15.5221 4.21289C15.7155 4.42969 15.4635 4.76367 15.2115 4.62891C14.9596 4.5 15.0475 4.10156 15.3229 4.10156C15.3756 4.10156 15.4694 4.1543 15.5221 4.21289Z" fill="#E65425"/>
<path d="M23.403 4.80531C22.0846 5.01039 20.9362 5.85414 20.3854 7.02015C20.1627 7.48304 20.0104 8.09828 20.0104 8.52015V8.87172L18.985 9.90297C17.8424 11.0573 17.7311 11.233 17.7252 11.8248C17.7252 12.2526 17.8131 12.4928 18.0768 12.7916L18.2643 13.0084L17.9127 13.4069C17.4147 13.9694 16.9928 14.3444 16.8346 14.3795C16.7643 14.3971 16.5299 14.4205 16.3248 14.4381C15.8795 14.4791 15.4987 14.6666 15.1471 15.0299L14.901 15.2819L14.6315 15.1412C14.485 15.0651 14.2858 15.0006 14.1862 15.0006C14.028 15.0006 13.8873 14.8834 13.1842 14.1803L12.3698 13.3659L12.5631 13.1256C12.6627 12.9967 12.7916 12.7975 12.8385 12.6862C12.944 12.4284 12.944 11.8307 12.8385 11.5729C12.7916 11.4616 12.2936 10.8932 11.7369 10.3131L10.7233 9.24672L10.6823 8.65492C10.6119 7.55336 10.2311 6.68031 9.48694 5.94789C7.59436 4.05531 4.29553 4.58851 3.1178 6.97914C2.77209 7.68226 2.63733 8.31507 2.6842 9.05336C2.76624 10.4303 3.59241 11.7194 4.79358 12.3346L5.23889 12.5631L3.79749 14.0221C2.22717 15.6159 2.12756 15.7506 2.12756 16.3483C2.12756 16.9166 2.24475 17.0866 3.4928 18.3229C4.73499 19.5534 4.86975 19.6412 5.44983 19.6412C5.85413 19.6412 6.13538 19.5416 6.42249 19.2897L6.62756 19.108L7.45959 19.9401C8.16858 20.6491 8.29163 20.8014 8.29163 20.9537C8.29163 21.0534 8.35608 21.2584 8.43225 21.4108L8.57288 21.692L8.45569 21.8854C8.3092 22.1432 8.25647 22.653 8.35022 22.9459C8.51428 23.4733 8.95374 23.9069 9.44592 24.0358C9.61584 24.0768 9.69788 24.1295 9.69788 24.194C9.69788 24.3698 9.97327 24.8737 10.1725 25.0612C10.3717 25.2487 10.8229 25.483 10.9928 25.4889C11.0514 25.4889 11.11 25.5885 11.1569 25.7819C11.2858 26.2858 11.942 26.8893 12.3698 26.8952C12.4694 26.8952 12.5045 26.942 12.5338 27.1178C12.61 27.6217 13.1725 28.1784 13.7174 28.3014C14.0514 28.3776 14.3151 28.3424 14.6666 28.1725C14.8893 28.067 14.9303 28.0612 15.0182 28.1432C15.358 28.4362 16.0084 28.5299 16.4362 28.3424C16.5475 28.2955 17.8424 27.3756 19.3073 26.2975C21.1412 24.9498 22.0201 24.2702 22.1373 24.1061C22.3248 23.8366 22.4069 23.3268 22.3073 23.0397C22.2545 22.8932 22.2838 22.7057 22.4479 22.0202C22.6119 21.3522 22.653 21.0944 22.6354 20.7487L22.6119 20.3151L23.3151 19.5651L24.0123 18.8151L24.2526 19.0202C24.4811 19.2135 24.9323 19.3952 25.1959 19.3952C25.2662 19.3952 25.4655 19.3541 25.6412 19.3014C25.9342 19.2135 26.0514 19.1198 27.0885 18.0885C27.7155 17.4674 28.2897 16.8522 28.3717 16.7174C28.5709 16.3717 28.6178 15.8561 28.4772 15.4869C28.3951 15.2584 28.1315 14.9596 27.0065 13.8287L25.6354 12.4518L25.9752 12.276C26.4557 12.0299 27.2526 11.2155 27.5221 10.694C27.8854 9.99086 27.9967 9.48109 27.9674 8.61976C27.944 7.98109 27.9147 7.81703 27.7623 7.41273C27.2819 6.12367 26.3033 5.23304 25.0143 4.89906C24.5631 4.78187 23.819 4.74086 23.403 4.80531ZM7.52991 5.91859C8.44983 6.18812 9.23499 6.96742 9.52209 7.89906C9.76233 8.66664 9.63928 9.68617 9.23499 10.3248C8.63147 11.2799 7.74084 11.778 6.65686 11.778C5.85999 11.778 5.24475 11.5436 4.64124 11.0162C3.56311 10.067 3.33459 8.37953 4.11975 7.1725C4.87561 6.0182 6.18811 5.53187 7.52991 5.91859ZM24.8795 5.91859C25.5533 6.12367 26.1158 6.55726 26.5201 7.1725C27.1588 8.14515 27.1412 9.50453 26.4791 10.4713C25.5475 11.8248 23.7252 12.1998 22.3776 11.3151C21.4752 10.7233 21.0065 9.86195 21.0065 8.78968C21.0065 7.68812 21.5573 6.73304 22.5182 6.17054C23.1569 5.79554 24.1412 5.69007 24.8795 5.91859ZM20.3033 10.4069C20.4205 10.7467 20.9303 11.4557 21.317 11.8073C21.7155 12.1705 22.5182 12.5924 23.0573 12.7213C23.233 12.7623 23.6373 12.7975 23.9596 12.8034H24.5338L25.9928 14.2858C26.8014 15.1002 27.4811 15.8327 27.5104 15.9147C27.5514 16.0202 27.5455 16.108 27.4869 16.2194C27.3463 16.4772 25.3776 18.3991 25.2487 18.3991C25.1901 18.3932 25.0846 18.3639 25.0201 18.3229C24.9557 18.2819 23.5084 16.8522 21.8092 15.1412C19.2487 12.5573 18.7213 12.0006 18.7213 11.8717C18.7213 11.7428 18.8795 11.5436 19.442 10.9518C19.8346 10.5358 20.1744 10.1959 20.1979 10.1959C20.2155 10.1959 20.2682 10.2897 20.3033 10.4069ZM11.9244 12.1588C11.9244 12.2877 11.403 12.8444 8.84241 15.4284C7.14319 17.1452 5.69006 18.5807 5.61389 18.6217C5.53186 18.6686 5.40881 18.6862 5.3385 18.6686C5.26819 18.651 4.73499 18.153 4.14319 17.5612C3.29358 16.6998 3.07678 16.4479 3.07678 16.3248C3.07678 16.1959 3.39319 15.8385 4.73499 14.4733L6.38733 12.7741H6.76819C7.47717 12.7682 8.32092 12.5104 8.91272 12.1061C9.41663 11.7662 10.1432 10.9108 10.3014 10.4772C10.3248 10.401 10.5182 10.5651 11.1276 11.1862C11.7604 11.8307 11.9244 12.0299 11.9244 12.1588ZM21.1705 15.903C22.3365 17.0748 23.2916 18.0592 23.2916 18.0827C23.2916 18.112 22.8932 18.5338 22.4069 19.0143C21.9205 19.5006 21.4987 19.9577 21.4694 20.0338C21.4283 20.1334 21.4459 20.2623 21.528 20.5084L21.6451 20.8424L21.5221 21.358L21.4049 21.8737L20.0631 20.5319C19.3248 19.7936 18.7213 19.1725 18.7213 19.1491C18.7213 19.1198 18.7565 19.1022 18.7975 19.1022C18.9557 19.1022 19.6002 18.7389 19.7467 18.569C20.1451 18.0944 19.653 17.485 19.1315 17.8073C18.733 18.0534 18.399 18.1881 18.0944 18.2116C17.8307 18.235 17.7662 18.2174 17.6139 18.0885C17.3151 17.8424 16.9576 17.737 16.524 17.7662C16.149 17.8014 16.108 17.819 15.5221 18.2116C15.2936 18.3698 15.194 18.3991 15.0358 18.3756C14.4791 18.2877 14.1627 17.7018 14.4381 17.2565C14.6198 16.9635 16.0084 15.5455 16.1842 15.4811C16.2721 15.4459 16.5123 15.4049 16.7174 15.3932C17.2858 15.3463 17.6022 15.1588 18.3405 14.4147C18.692 14.0631 18.9967 13.7702 19.0143 13.7702C19.0377 13.7702 20.0045 14.7311 21.1705 15.903ZM12.6393 15.0358L13.6178 16.0143L13.8463 15.9733C13.9694 15.9557 14.0924 15.9557 14.11 15.9791C14.1334 15.9967 14.0162 16.1549 13.858 16.3248C12.7565 17.5377 13.5065 19.3541 15.1061 19.3541C15.5807 19.3541 15.903 19.237 16.2838 18.9323C16.7291 18.5748 16.6178 18.4987 19.0612 20.9303C20.2858 22.1549 21.2584 23.1803 21.2819 23.2565C21.3287 23.4381 21.2643 23.5319 20.9069 23.8014L20.608 24.0182L20.2272 23.6725C19.8932 23.362 19.817 23.3209 19.6119 23.3209C19.4244 23.3209 19.3483 23.3561 19.2545 23.4733C19.0494 23.7311 19.0963 23.9303 19.4244 24.2819C19.5885 24.4518 19.7174 24.6217 19.7174 24.651C19.7174 24.6862 19.6119 24.7858 19.483 24.8737L19.2487 25.0377L18.8209 24.6217C18.5807 24.3932 18.3229 24.1881 18.235 24.1705C17.9069 24.0885 17.5553 24.4401 17.6373 24.7682C17.6549 24.8502 17.8365 25.0905 18.0299 25.2897C18.2291 25.4948 18.3756 25.6764 18.3639 25.6881C18.3522 25.6998 18.235 25.7936 18.1119 25.8932L17.8834 26.0748L17.3737 25.5768C16.8405 25.0553 16.7233 25.0026 16.4127 25.1432C16.2311 25.2252 16.1198 25.4948 16.1666 25.7057C16.1901 25.7877 16.3951 26.0514 16.6178 26.2799L17.028 26.7018L16.4948 27.0944C15.9733 27.4752 15.8444 27.528 15.6803 27.4284C15.61 27.3815 15.6334 27.3287 15.8092 27.1354C16.1842 26.7194 16.278 26.1159 16.0553 25.5709C15.944 25.3014 15.5924 24.9381 15.3346 24.8209C15.1119 24.7213 15.1002 24.7037 15.0709 24.3815C15.0592 24.194 14.9889 23.942 14.9244 23.8131C14.7955 23.5553 14.2975 23.0631 14.11 23.0045C14.0104 22.9752 13.9869 22.9049 13.9635 22.6295C13.9049 21.8327 13.278 21.2174 12.5338 21.2116C12.2643 21.2116 12.2291 21.194 12.194 21.0709C12.1412 20.86 11.6608 20.3561 11.3795 20.2213C11.0748 20.0748 10.5006 20.0573 10.1901 20.1862C10.0787 20.233 9.82678 20.4205 9.63928 20.6022L9.28772 20.9362V20.6666C9.28772 20.4323 9.25256 20.3561 9.00061 20.0573C8.84241 19.8698 8.40881 19.4127 8.03381 19.0436L7.35413 18.3756L9.48108 16.2252C10.6471 15.0416 11.6139 14.0748 11.6315 14.069C11.6432 14.069 12.1002 14.5026 12.6393 15.0358ZM10.9283 21.1237C11.1393 21.235 11.2975 21.5104 11.2448 21.7037C11.2272 21.7799 10.9283 22.1198 10.5826 22.4655C9.8678 23.1627 9.75647 23.2096 9.45764 22.9166C9.15295 22.612 9.20569 22.4537 9.83264 21.8092C10.278 21.3522 10.6471 21.0358 10.7408 21.0358C10.7526 21.0358 10.8346 21.0768 10.9283 21.1237ZM12.7975 22.3307C13.1139 22.6412 13.0729 22.7291 12.1764 23.6608C11.5084 24.3522 11.3385 24.4928 11.2037 24.4928C10.9635 24.4928 10.694 24.2057 10.694 23.9596C10.694 23.7897 10.7936 23.6666 11.5026 22.9577C12.4049 22.0553 12.4869 22.0143 12.7975 22.3307ZM13.9342 24.0885C14.2155 24.3932 14.1686 24.4987 13.4303 25.237C12.6803 25.987 12.569 26.0338 12.2701 25.7174C11.9713 25.3952 12.0182 25.2721 12.7037 24.569C13.0319 24.2291 13.3541 23.9303 13.4186 23.9069C13.5885 23.8366 13.7467 23.8952 13.9342 24.0885ZM15.024 25.8112C15.1237 25.9284 15.2057 26.0748 15.2057 26.1452C15.2057 26.2272 15.0182 26.4616 14.6901 26.7897C14.1041 27.3756 13.9694 27.4225 13.6764 27.1354C13.3776 26.8307 13.4244 26.6608 13.9928 26.0924C14.5729 25.5123 14.7252 25.4713 15.024 25.8112Z" fill="#E65425"/>
<path d="M6.53383 6.5625C6.46938 6.62695 6.41665 6.72656 6.41079 6.7793C6.41079 6.84375 6.2936 6.94336 6.1061 7.03125C5.27993 7.44141 5.23305 8.64258 6.02993 9.11133C6.16469 9.19336 6.35219 9.25781 6.44008 9.25781C6.66274 9.25781 6.8268 9.35742 6.8268 9.49219C6.8268 9.66211 6.64516 9.72656 6.15883 9.72656C5.61977 9.72656 5.47915 9.82617 5.47915 10.1953C5.47915 10.5469 5.62563 10.6641 6.06508 10.6641C6.37563 10.6641 6.41665 10.6758 6.41665 10.7812C6.41665 10.9746 6.62172 11.1328 6.8854 11.1328C7.19594 11.1328 7.35415 10.9746 7.35415 10.6641C7.35415 10.5059 7.38344 10.4121 7.44204 10.3945C7.49477 10.3711 7.60024 10.2422 7.68227 10.1016C7.88149 9.76172 7.89321 9.26953 7.71157 8.91211C7.56508 8.625 7.12563 8.32031 6.86782 8.32031C6.6393 8.32031 6.47524 8.2207 6.47524 8.08594C6.47524 7.91602 6.65688 7.85156 7.14321 7.85156C7.51235 7.85156 7.61196 7.82812 7.70571 7.73438C7.95766 7.48242 7.7936 6.91406 7.47133 6.91406C7.39516 6.91406 7.35415 6.87305 7.35415 6.79688C7.35415 6.60352 7.14907 6.44531 6.8854 6.44531C6.72719 6.44531 6.61001 6.48633 6.53383 6.5625Z" fill="#E65425"/>
<path d="M23.8776 6.5625C23.8131 6.62695 23.7604 6.72656 23.7545 6.7793C23.7545 6.84375 23.6373 6.94336 23.4498 7.03125C22.6237 7.44141 22.5768 8.64258 23.3737 9.11133C23.5084 9.19336 23.6959 9.25781 23.7838 9.25781C24.0065 9.25781 24.1706 9.35742 24.1706 9.49219C24.1706 9.66211 23.9889 9.72656 23.5026 9.72656C22.9635 9.72656 22.8229 9.82617 22.8229 10.1953C22.8229 10.5469 22.9694 10.6641 23.4088 10.6641C23.7194 10.6641 23.7604 10.6758 23.7604 10.7812C23.7604 10.9746 23.9655 11.1328 24.2291 11.1328C24.5397 11.1328 24.6979 10.9746 24.6979 10.6641C24.6979 10.5059 24.7272 10.4121 24.7858 10.3945C24.8385 10.3711 24.944 10.2422 25.026 10.1016C25.2252 9.76172 25.237 9.26953 25.0553 8.91211C24.9088 8.625 24.4694 8.32031 24.2116 8.32031C23.9831 8.32031 23.819 8.2207 23.819 8.08594C23.819 7.91602 24.0006 7.85156 24.487 7.85156C24.8561 7.85156 24.9557 7.82812 25.0495 7.73438C25.3014 7.48242 25.1373 6.91406 24.8151 6.91406C24.7389 6.91406 24.6979 6.87305 24.6979 6.79688C24.6979 6.60352 24.4928 6.44531 24.2291 6.44531C24.0709 6.44531 23.9538 6.48633 23.8776 6.5625Z" fill="#E65425"/>
</svg>
