<svg width="72" height="14" viewBox="0 0 72 14" fill="none" xmlns="http://www.w3.org/2000/svg">
<path d="M8.00835 13.3633C6.38383 13.3633 5.02814 13.1291 3.94127 12.6609C2.8544 12.1868 2.03925 11.467 1.49582 10.5016C0.952381 9.53611 0.680664 8.3105 0.680664 6.82472C0.680664 5.35051 0.961053 4.1249 1.52183 3.14787C2.08261 2.17085 2.90354 1.43952 3.98463 0.953902C5.06571 0.462499 6.38961 0.216797 7.95632 0.216797C8.45929 0.216797 8.95069 0.242812 9.43053 0.294843C9.91615 0.346874 10.3902 0.427811 10.8527 0.537655V2.8617C10.4018 2.75186 9.95662 2.67092 9.51725 2.61889C9.08366 2.56686 8.64718 2.54084 8.2078 2.54084C7.1614 2.54084 6.3 2.68537 5.6236 2.97444C4.9472 3.2635 4.44134 3.72599 4.10603 4.36193C3.7765 4.99208 3.61174 5.82746 3.61174 6.86808C3.61174 7.83933 3.76494 8.63424 4.07135 9.25283C4.38353 9.86564 4.84892 10.3195 5.46751 10.6143C6.0861 10.9034 6.86078 11.0479 7.79156 11.0479C8.14421 11.0479 8.49397 11.0363 8.84085 11.0132C9.18772 10.9843 9.50569 10.9467 9.79475 10.9005L8.58936 11.9498V6.97214H11.2169V13.0771C10.6619 13.1696 10.1185 13.239 9.58662 13.2852C9.06053 13.3373 8.53444 13.3633 8.00835 13.3633Z" fill="#0E0E0E" fill-opacity="0.5"/>
<path d="M19.089 13.3806C17.8692 13.3806 16.8055 13.1436 15.8978 12.6695C14.9959 12.1955 14.2935 11.4728 13.7906 10.5016C13.2934 9.52455 13.0448 8.29026 13.0448 6.79871C13.0448 5.30716 13.2934 4.07576 13.7906 3.10451C14.2935 2.12749 14.9959 1.40195 15.8978 0.927886C16.8055 0.453827 17.8692 0.216797 19.089 0.216797C20.3089 0.216797 21.3697 0.456717 22.2716 0.936558C23.1792 1.41062 23.8817 2.13616 24.3789 3.11318C24.8818 4.08443 25.1333 5.31294 25.1333 6.79871C25.1333 8.28448 24.8818 9.51588 24.3789 10.4929C23.8817 11.4641 23.1792 12.1897 22.2716 12.6695C21.3639 13.1436 20.3031 13.3806 19.089 13.3806ZM19.089 11.1086C19.7481 11.1086 20.3118 10.967 20.78 10.6837C21.2541 10.3946 21.6154 9.93791 21.864 9.31354C22.1184 8.68916 22.2456 7.87112 22.2456 6.85941C22.2456 5.80723 22.1184 4.96317 21.864 4.32724C21.6096 3.68552 21.2454 3.22014 20.7714 2.93108C20.3031 2.63623 19.7423 2.48881 19.089 2.48881C18.4358 2.48881 17.8721 2.63045 17.398 2.91373C16.9298 3.19701 16.5684 3.65084 16.3141 4.27521C16.0597 4.89958 15.9325 5.72051 15.9325 6.73801C15.9325 7.79597 16.0568 8.64581 16.3054 9.28752C16.5598 9.92345 16.9211 10.386 17.3894 10.675C17.8634 10.9641 18.43 11.1086 19.089 11.1086Z" fill="#0E0E0E" fill-opacity="0.5"/>
<path d="M32.6388 13.3806C31.4189 13.3806 30.3552 13.1436 29.4475 12.6695C28.5457 12.1955 27.8432 11.4728 27.3403 10.5016C26.8431 9.52455 26.5945 8.29026 26.5945 6.79871C26.5945 5.30716 26.8431 4.07576 27.3403 3.10451C27.8432 2.12749 28.5457 1.40195 29.4475 0.927886C30.3552 0.453827 31.4189 0.216797 32.6388 0.216797C33.8586 0.216797 34.9194 0.456717 35.8213 0.936558C36.729 1.41062 37.4314 2.13616 37.9286 3.11318C38.4315 4.08443 38.683 5.31294 38.683 6.79871C38.683 8.28448 38.4315 9.51588 37.9286 10.4929C37.4314 11.4641 36.729 12.1897 35.8213 12.6695C34.9137 13.1436 33.8528 13.3806 32.6388 13.3806ZM32.6388 11.1086C33.2978 11.1086 33.8615 10.967 34.3298 10.6837C34.8038 10.3946 35.1651 9.93791 35.4137 9.31354C35.6681 8.68916 35.7953 7.87112 35.7953 6.85941C35.7953 5.80723 35.6681 4.96317 35.4137 4.32724C35.1594 3.68552 34.7952 3.22014 34.3211 2.93108C33.8528 2.63623 33.292 2.48881 32.6388 2.48881C31.9855 2.48881 31.4218 2.63045 30.9478 2.91373C30.4795 3.19701 30.1181 3.65084 29.8638 4.27521C29.6094 4.89958 29.4822 5.72051 29.4822 6.73801C29.4822 7.79597 29.6065 8.64581 29.8551 9.28752C30.1095 9.92345 30.4708 10.386 30.9391 10.675C31.4131 10.9641 31.9797 11.1086 32.6388 11.1086Z" fill="#0E0E0E" fill-opacity="0.5"/>
<path d="M47.4719 13.3633C45.8474 13.3633 44.4917 13.1291 43.4048 12.6609C42.318 12.1868 41.5028 11.467 40.9594 10.5016C40.4159 9.53611 40.1442 8.3105 40.1442 6.82472C40.1442 5.35051 40.4246 4.1249 40.9854 3.14787C41.5462 2.17085 42.3671 1.43952 43.4482 0.953902C44.5293 0.462499 45.8532 0.216797 47.4199 0.216797C47.9228 0.216797 48.4142 0.242812 48.8941 0.294843C49.3797 0.346874 49.8538 0.427811 50.3163 0.537655V2.8617C49.8653 2.75186 49.4202 2.67092 48.9808 2.61889C48.5472 2.56686 48.1107 2.54084 47.6714 2.54084C46.625 2.54084 45.7636 2.68537 45.0872 2.97444C44.4108 3.2635 43.9049 3.72599 43.5696 4.36193C43.2401 4.99208 43.0753 5.82746 43.0753 6.86808C43.0753 7.83933 43.2285 8.63424 43.5349 9.25283C43.8471 9.86564 44.3125 10.3195 44.9311 10.6143C45.5497 10.9034 46.3243 11.0479 47.2551 11.0479C47.6078 11.0479 47.9575 11.0363 48.3044 11.0132C48.6513 10.9843 48.9692 10.9467 49.2583 10.9005L48.0529 11.9498V6.97214H50.6805V13.0771C50.1255 13.1696 49.582 13.239 49.0502 13.2852C48.5241 13.3373 47.998 13.3633 47.4719 13.3633Z" fill="#0E0E0E" fill-opacity="0.5"/>
<path d="M52.9333 13.2159V0.381562H55.7516V10.8745H61.6484V13.2159H52.9333Z" fill="#0E0E0E" fill-opacity="0.5"/>
<path d="M62.8923 13.2159V0.381562H71.9023V2.63623H65.6759V10.9612H71.989V13.2159H62.8923ZM64.566 7.77862V5.52395H71.0178V7.77862H64.566Z" fill="#0E0E0E" fill-opacity="0.5"/>
</svg>
