<svg width="63" height="21" viewBox="0 0 63 21" fill="none" xmlns="http://www.w3.org/2000/svg">
<path d="M0.166992 0.857422H62.165V20.7401H0.166992V0.857422ZM17.7178 15.8525L17.7168 14.0746H16.627V10.3305C16.627 8.38655 15.282 7.49605 13.8108 7.49605C12.5205 7.49605 11.5946 8.16907 11.1403 9.25888C10.7407 8.05972 9.64857 7.49605 8.46988 7.49605C7.32643 7.49605 6.47238 8.02328 5.98148 8.89452V7.66001H2.45922V9.44003H3.63791V14.0746H2.5481V15.8546H7.54391V14.0746H5.98584V11.2199C5.98584 10.0754 6.44017 9.27595 7.56643 9.27595C8.49337 9.27595 8.96502 9.82146 8.96502 11.2381V15.8546H12.394V14.0746H11.3097V11.2199C11.3097 10.0754 11.7641 9.27595 12.8904 9.27595C13.8162 9.27595 14.2887 9.82146 14.2887 11.2381V15.8525H17.718H17.7178ZM22.9312 16.0336V16.0346C25.5471 16.0346 27.4363 14.3811 27.4341 11.7642C27.4341 9.47526 25.9961 7.49496 23.0555 7.49496C20.115 7.49496 18.6619 9.47526 18.6619 11.8736C18.6619 14.4894 20.4064 16.0336 22.9312 16.0336ZM23.0212 9.29424C24.1304 9.29424 25.0197 10.0389 25.023 11.6924C25.023 13.2548 24.2235 14.2353 23.0062 14.2353C21.731 14.2353 21.0773 13.1455 21.0773 11.7289C21.0773 10.1836 21.822 9.29424 23.0212 9.29424ZM35.9748 15.8525L36.4786 12.9838L34.6257 12.8027L34.2442 14.0746H31.5962L36.1399 8.8944L35.9587 7.65892H28.7575L28.4671 10.5297L30.1571 10.7109L30.5203 9.43882H33.0814L28.5807 14.6169L28.8165 15.8525H35.9748ZM40.407 10.6015V7.66001H37.954V10.6015H40.407ZM40.407 15.8525V12.9099H37.954V15.8525H40.407ZM41.6929 15.8525H44.0033L47.5461 3.35853H45.2391L41.6931 15.8525H41.6929ZM46.453 15.8525H48.7634L52.304 3.35853H49.9969L46.4531 15.8525H46.453ZM58.6608 16.0336L58.664 16.0346C59.18 16.0281 59.6865 15.8957 60.1396 15.6489L60.1215 14.4133C60.0096 14.4478 59.8933 14.4662 59.7764 14.4679C59.3937 14.4679 59.2127 14.304 59.2127 13.8314V10.2705C59.2127 8.39938 57.7232 7.49072 55.9604 7.49072C54.6155 7.49072 53.889 7.65904 52.4541 8.24087L52.0908 10.3658L53.9618 10.5662L54.2651 9.40346C54.6465 9.20414 55.028 9.16782 55.5189 9.16782C56.8455 9.16782 56.8637 10.1664 56.8637 11.0023V11.2745C56.4174 11.2221 55.9682 11.1978 55.5189 11.2016C53.6479 11.2016 51.7039 11.6732 51.7039 13.69C51.7039 15.397 53.0498 16.0336 54.2286 16.0336C55.5542 16.0336 56.3901 15.2342 56.8627 14.3983C56.9719 15.397 57.5711 16.0336 58.6609 16.0336H58.6608ZM54.1226 13.4177C54.1226 12.5283 54.8491 12.2925 55.6883 12.2936C56.0831 12.3025 56.4769 12.3383 56.867 12.4008C56.8134 13.7628 55.9228 14.3629 55.0869 14.3629C54.3765 14.3629 54.1226 13.9451 54.1226 13.4177Z" fill="#1A1A1A" fill-opacity="0.5"/>
</svg>
