<svg width="98" height="22" viewBox="0 0 98 22" fill="none" xmlns="http://www.w3.org/2000/svg">
<path d="M12.9517 0.0192839C12.204 -0.0341189 11.4243 0.13677 10.7301 0.542631C10.2841 0.797976 9.89296 1.13884 9.57901 1.54567C9.26505 1.95251 9.03448 2.41731 8.90053 2.91344C8.76657 3.40956 8.73187 3.92725 8.7984 4.43681C8.86493 4.94638 9.03138 5.4378 9.28823 5.88291L17.1278 19.4472C18.2065 21.327 20.5989 21.9465 22.4787 20.8784C24.3478 19.8103 24.9673 17.4072 23.8992 15.5381L16.0811 1.97382C15.7581 1.41773 15.3042 0.948968 14.7588 0.608321C14.2134 0.267675 13.593 0.0654641 12.9517 0.0192839ZM7.15212 5.66929L1.47006 15.5381C1.12383 16.1316 0.939669 16.8056 0.936035 17.4927C0.936035 18.0074 1.03742 18.5171 1.23441 18.9927C1.4314 19.4683 1.72012 19.9004 2.08411 20.2644C2.44809 20.6283 2.8802 20.9171 3.35577 21.1141C3.83134 21.311 4.34105 21.4124 4.8558 21.4124C5.54288 21.4103 6.21733 21.2277 6.81157 20.8827C7.4058 20.5378 7.89893 20.0428 8.24153 19.4472V19.4579L11.6166 13.6049C10.1747 11.1484 8.7008 8.70257 7.37641 6.17128C7.29096 6.01107 7.2162 5.84018 7.1628 5.66929H7.15212Z" fill="black" fill-opacity="0.5"/>
<path d="M31.6935 18.2805L35.2867 7.1553H38.8422L42.4353 18.2805H40.0299L36.9178 8.22272H37.1734L34.0689 18.2805H31.6935ZM34.1892 15.3113L34.7154 13.3644H39.406L39.9246 15.3113H34.1892Z" fill="black" fill-opacity="0.5"/>
<path d="M43.4353 18.2805V6.13299H45.8257V18.2805H43.4353Z" fill="black" fill-opacity="0.5"/>
<path d="M47.6196 21.588V10.0569H49.6342L49.777 10.9364H49.8897C50.1253 10.6307 50.4259 10.3876 50.7918 10.2072C51.1626 10.0218 51.5911 9.92908 52.0772 9.92908C52.6836 9.92908 53.2423 10.0669 53.7535 10.3425C54.2646 10.6181 54.6731 11.0566 54.9788 11.658C55.2895 12.2543 55.4448 13.0386 55.4448 14.0108C55.4448 14.968 55.2744 15.7748 54.9337 16.4313C54.5979 17.0878 54.0968 17.5864 53.4303 17.9272C52.7688 18.2629 51.9469 18.4308 50.9647 18.4308C50.7993 18.4308 50.6339 18.4233 50.4685 18.4083C50.3082 18.3982 50.1553 18.3857 50.01 18.3707V21.588H47.6196ZM50.9647 16.6117C51.6562 16.6117 52.1749 16.4263 52.5207 16.0554C52.8665 15.6846 53.0394 15.0657 53.0394 14.1987C53.0394 13.5974 52.9692 13.1288 52.8289 12.7931C52.6886 12.4573 52.4931 12.2218 52.2426 12.0865C51.992 11.9512 51.7013 11.8835 51.3706 11.8835C51.125 11.8835 50.8795 11.9286 50.6339 12.0188C50.3934 12.104 50.1854 12.2443 50.01 12.4398V16.514C50.1453 16.539 50.2982 16.5616 50.4685 16.5816C50.6389 16.6017 50.8043 16.6117 50.9647 16.6117Z" fill="black" fill-opacity="0.5"/>
<path d="M56.8103 18.2805V6.13299H59.2007V10.8837H59.321C59.6016 10.573 59.9324 10.3375 60.3132 10.1771C60.6941 10.0118 61.1201 9.92908 61.5911 9.92908C62.0923 9.92908 62.5458 10.0343 62.9517 10.2448C63.3576 10.4553 63.6784 10.7985 63.9139 11.2746C64.1544 11.7457 64.2747 12.3721 64.2747 13.1539V18.2805H61.8768V13.3117C61.8768 12.8106 61.7715 12.4673 61.5611 12.2819C61.3556 12.0915 61.075 11.9963 60.7192 11.9963C60.5388 11.9963 60.3558 12.0213 60.1704 12.0714C59.985 12.1165 59.8071 12.1892 59.6367 12.2894C59.4713 12.3896 59.326 12.5149 59.2007 12.6653V18.2805H56.8103Z" fill="black" fill-opacity="0.5"/>
<path d="M68.2486 18.4308C67.4067 18.4308 66.7502 18.2128 66.2792 17.7768C65.8131 17.3358 65.5801 16.762 65.5801 16.0554C65.5801 15.2787 65.8482 14.6723 66.3844 14.2363C66.9256 13.8003 67.7976 13.5423 69.0003 13.4621L70.7292 13.3193L70.9848 14.6422L69.2409 14.7851C68.7798 14.8201 68.4466 14.9254 68.2411 15.1008C68.0406 15.2762 67.9404 15.5167 67.9404 15.8224C67.9404 16.1231 68.0331 16.3561 68.2186 16.5215C68.404 16.6819 68.6746 16.762 69.0304 16.762C69.2509 16.762 69.4764 16.7245 69.7069 16.6493C69.9374 16.5691 70.1479 16.4338 70.3384 16.2434V13.2366C70.3384 12.8607 70.2757 12.565 70.1504 12.3496C70.0302 12.1341 69.8322 11.9812 69.5566 11.891C69.286 11.7958 68.9227 11.7482 68.4666 11.7482C68.1509 11.7482 67.7926 11.7758 67.3917 11.8309C66.9908 11.881 66.6074 11.9637 66.2416 12.0789V10.2749C66.6425 10.1596 67.081 10.0744 67.5571 10.0193C68.0381 9.95915 68.4842 9.92908 68.8951 9.92908C69.7671 9.92908 70.4812 10.0368 71.0374 10.2523C71.5987 10.4678 72.0121 10.8286 72.2777 11.3348C72.5433 11.8359 72.6761 12.5199 72.6761 13.3869V18.2805H70.7067L70.5413 17.4611H70.4286C70.183 17.7969 69.8698 18.0424 69.4889 18.1978C69.1081 18.3531 68.6946 18.4308 68.2486 18.4308Z" fill="black" fill-opacity="0.5"/>
<path d="M77.5636 18.4308C77.0374 18.4308 76.4962 18.3932 75.9399 18.3181C75.3887 18.2429 74.875 18.1276 74.3989 17.9723V6.13299H76.7894V10.8612H76.9096C77.1502 10.5655 77.4483 10.3375 77.8042 10.1771C78.16 10.0118 78.5709 9.92908 79.0369 9.92908C79.6082 9.92908 80.1369 10.0694 80.623 10.35C81.1091 10.6307 81.4975 11.0717 81.7882 11.673C82.0788 12.2744 82.2242 13.0511 82.2242 14.0033C82.2242 15.4516 81.8383 16.5516 81.0665 17.3033C80.2998 18.055 79.1322 18.4308 77.5636 18.4308ZM77.7741 16.6192C78.4506 16.6192 78.9593 16.4338 79.3 16.063C79.6458 15.6871 79.8187 15.0632 79.8187 14.1912C79.8187 13.5949 79.746 13.1313 79.6007 12.8006C79.4604 12.4648 79.2625 12.2293 79.0069 12.094C78.7563 11.9587 78.4631 11.891 78.1274 11.891C77.8868 11.891 77.6488 11.9311 77.4133 12.0113C77.1777 12.0865 76.9698 12.2092 76.7894 12.3796V16.4989C76.9247 16.534 77.075 16.5641 77.2404 16.5892C77.4108 16.6092 77.5887 16.6192 77.7741 16.6192Z" fill="black" fill-opacity="0.5"/>
<path d="M87.9224 18.4383C86.8901 18.4383 86.0406 18.2905 85.3741 17.9948C84.7076 17.6992 84.2115 17.2356 83.8858 16.6042C83.565 15.9728 83.4047 15.1584 83.4047 14.1612C83.4047 13.2541 83.5525 12.4849 83.8482 11.8534C84.1489 11.222 84.5823 10.7434 85.1486 10.4177C85.7199 10.0919 86.4115 9.92908 87.2233 9.92908C88.0001 9.92908 88.6541 10.0945 89.1853 10.4252C89.7165 10.7509 90.1174 11.2345 90.388 11.876C90.6586 12.5174 90.7939 13.3042 90.7939 14.2363V14.8602H84.7728V13.4846H88.9447L88.5613 13.6274C88.5613 13.0862 88.5112 12.6552 88.411 12.3345C88.3108 12.0138 88.1579 11.7858 87.9525 11.6505C87.752 11.5152 87.5014 11.4475 87.2008 11.4475C86.8951 11.4475 86.637 11.5152 86.4265 11.6505C86.221 11.7858 86.0632 12.0138 85.9529 12.3345C85.8477 12.6502 85.7951 13.0787 85.7951 13.6199V14.5821C85.7951 15.0883 85.8678 15.4917 86.0131 15.7923C86.1634 16.088 86.4165 16.301 86.7723 16.4313C87.1331 16.5616 87.6292 16.6267 88.2607 16.6267C88.5814 16.6267 88.9172 16.6042 89.268 16.5591C89.6238 16.509 89.9796 16.4438 90.3354 16.3636V18.1602C89.8994 18.2604 89.4834 18.3306 89.0875 18.3707C88.6966 18.4158 88.3083 18.4383 87.9224 18.4383Z" fill="black" fill-opacity="0.5"/>
<path d="M95.6484 18.4308C94.6561 18.4308 93.8919 18.1853 93.3557 17.6942C92.8245 17.198 92.5589 16.4138 92.5589 15.3413V10.0569L92.9949 7.1553H94.9493V14.9655C94.9493 15.5318 95.0545 15.9226 95.265 16.1381C95.4805 16.3536 95.8263 16.4614 96.3023 16.4614C96.4326 16.4614 96.5654 16.4538 96.7007 16.4388C96.8411 16.4188 96.9964 16.3937 97.1668 16.3636V18.2579C96.9513 18.303 96.7083 18.3431 96.4376 18.3782C96.172 18.4133 95.909 18.4308 95.6484 18.4308ZM91.2208 11.9436V10.0569H97.1142V11.9436H91.2208Z" fill="black" fill-opacity="0.5"/>
</svg>
