<svg width="19" height="18" viewBox="0 0 19 18" fill="none" xmlns="http://www.w3.org/2000/svg">
<path d="M3.92285 16.5C3.92285 13.1863 6.60914 10.5 9.92285 10.5C13.2366 10.5 15.9229 13.1863 15.9229 16.5H14.4229C14.4229 14.0147 12.4081 12 9.92285 12C7.43757 12 5.42285 14.0147 5.42285 16.5H3.92285ZM9.92285 9.75C7.4366 9.75 5.42285 7.73625 5.42285 5.25C5.42285 2.76375 7.4366 0.75 9.92285 0.75C12.4091 0.75 14.4229 2.76375 14.4229 5.25C14.4229 7.73625 12.4091 9.75 9.92285 9.75ZM9.92285 8.25C11.5804 8.25 12.9229 6.9075 12.9229 5.25C12.9229 3.5925 11.5804 2.25 9.92285 2.25C8.26535 2.25 6.92285 3.5925 6.92285 5.25C6.92285 6.9075 8.26535 8.25 9.92285 8.25Z" fill="#6B7385"/>
</svg>
