<svg width="58" height="51" viewBox="0 0 58 51" fill="none" xmlns="http://www.w3.org/2000/svg">
<path d="M28.1908 19.1714C28.1905 17.1683 27.5551 15.2204 26.3819 13.6252C25.2086 12.03 23.5618 10.8752 21.6931 10.3371C19.8245 9.79907 17.8366 9.90738 16.0331 10.6455C14.2296 11.3836 12.7098 12.711 11.7056 14.4248C10.7014 16.1387 10.2682 18.1448 10.472 20.1368C10.6759 22.1288 11.5057 23.9971 12.8346 25.4564C14.1635 26.9157 15.9185 27.8857 17.8315 28.2184C19.7446 28.551 21.7105 28.228 23.429 27.2985C22.835 29.5734 21.9974 31.4787 20.9948 32.9988C18.9895 36.0442 16.3624 37.5171 13.5957 37.5171C13.0908 37.5171 12.6066 37.7242 12.2496 38.0928C11.8926 38.4615 11.692 38.9614 11.692 39.4827C11.692 40.004 11.8926 40.504 12.2496 40.8726C12.6066 41.2413 13.0908 41.4483 13.5957 41.4483C17.8372 41.4483 21.5583 39.1342 24.1448 35.2108C26.7084 31.3162 28.1908 25.8204 28.1908 19.1714Z" fill="#FE4A23"/>
<path d="M48.9589 19.1714C48.9585 17.1683 48.3232 15.2204 47.1499 13.6252C45.9766 12.03 44.3299 10.8752 42.4612 10.3371C40.5925 9.79907 38.6046 9.90738 36.8012 10.6455C34.9977 11.3836 33.4778 12.711 32.4737 14.4248C31.4695 16.1387 31.0363 18.1448 31.2401 20.1368C31.444 22.1288 32.2737 23.9971 33.6026 25.4564C34.9315 26.9157 36.6866 27.8857 38.5996 28.2184C40.5126 28.551 42.4785 28.228 44.197 27.2985C43.6031 29.5734 42.7655 31.4787 41.7628 32.9988C39.7576 36.0442 37.1305 37.5171 34.3638 37.5171C33.8589 37.5171 33.3747 37.7242 33.0176 38.0928C32.6606 38.4615 32.4601 38.9614 32.4601 39.4827C32.4601 40.004 32.6606 40.504 33.0176 40.8726C33.3747 41.2413 33.8589 41.4483 34.3638 41.4483C38.6052 41.4483 42.3263 39.1342 44.9128 35.2108C47.4765 31.3162 48.9589 25.8204 48.9589 19.1714Z" fill="#FE4A23"/>
</svg>
