<svg width="14" height="14" viewBox="0 0 14 14" fill="none" xmlns="http://www.w3.org/2000/svg">
<path d="M1.94802 9.91699C1.69587 9.48024 1.50661 9.02449 1.37744 8.56009C1.94472 8.27064 2.33317 7.68084 2.33317 7.00032C2.33317 6.32033 1.9453 5.73087 1.37872 5.44119C1.63931 4.5015 2.13416 3.62636 2.83776 2.91104C3.37207 3.25763 4.07712 3.29915 4.6665 2.95887C5.25588 2.61859 5.57245 1.98724 5.53945 1.35123C6.51076 1.09955 7.51607 1.10856 8.46014 1.35273C8.42771 1.98824 8.74422 2.61886 9.33316 2.95887C9.92256 3.29914 10.6276 3.25763 11.1618 2.91108C11.4994 3.25512 11.7995 3.64692 12.0517 4.08366C12.3038 4.52039 12.4931 4.97618 12.6222 5.44053C12.0549 5.72998 11.6665 6.3198 11.6665 7.00032C11.6665 7.68037 12.0543 8.26977 12.6209 8.55945C12.3604 9.49914 11.8655 10.3743 11.1619 11.0896C10.6276 10.743 9.92256 10.7015 9.33316 11.0418C8.74376 11.382 8.42724 12.0134 8.4602 12.6494C7.48895 12.9011 6.48363 12.8921 5.53952 12.6479C5.57195 12.0124 5.25542 11.3818 4.6665 11.0418C4.07714 10.7015 3.37213 10.743 2.83782 11.0895C2.50026 10.7455 2.20017 10.3537 1.94802 9.91699ZM5.24984 10.0314C5.88647 10.399 6.34369 10.9801 6.56267 11.647C6.85335 11.6746 7.14595 11.675 7.43668 11.6479C7.65555 10.9807 8.11288 10.3992 8.74982 10.0314C9.38677 9.66364 10.1191 9.55841 10.8064 9.70244C10.9752 9.4642 11.1211 9.21057 11.2425 8.94503C10.7745 8.42196 10.4998 7.73544 10.4998 7.00032C10.4998 6.2652 10.7745 5.57874 11.2425 5.05566C11.1818 4.92383 11.1147 4.79416 11.0413 4.66699C10.9678 4.53981 10.8891 4.4169 10.8053 4.29845C10.1183 4.44215 9.38647 4.33678 8.74982 3.96923C8.11317 3.60167 7.65602 3.02052 7.43697 2.35369C7.14636 2.32603 6.8537 2.32564 6.56302 2.35274C6.3441 3.01995 5.88677 3.60149 5.24984 3.96923C4.61288 4.33698 3.88059 4.44225 3.19333 4.29822C3.02449 4.53644 2.87853 4.79005 2.75716 5.05559C3.22514 5.57868 3.49984 6.2652 3.49984 7.00032C3.49984 7.73544 3.22515 8.4219 2.75716 8.94498C2.81789 9.07681 2.88496 9.20649 2.95839 9.33365C3.03181 9.46082 3.11057 9.58373 3.1944 9.7022C3.88136 9.55853 4.61322 9.66388 5.24984 10.0314ZM6.99982 8.75032C6.03336 8.75032 5.24984 7.96684 5.24984 7.00032C5.24984 6.03385 6.03336 5.25032 6.99982 5.25032C7.96635 5.25032 8.74982 6.03385 8.74982 7.00032C8.74982 7.96684 7.96635 8.75032 6.99982 8.75032ZM6.99982 7.58365C7.322 7.58365 7.58316 7.32249 7.58316 7.00032C7.58316 6.67814 7.322 6.41699 6.99982 6.41699C6.67765 6.41699 6.41649 6.67814 6.41649 7.00032C6.41649 7.32249 6.67765 7.58365 6.99982 7.58365Z" fill="#1B1B1B"/>
</svg>
