<svg width="20" height="18" viewBox="0 0 20 18" fill="none" xmlns="http://www.w3.org/2000/svg">
<path d="M18.0049 4V2H2.00488V16H18.0049V14H10.0049C9.4526 14 9.0049 13.5523 9.0049 13V5C9.0049 4.44772 9.4526 4 10.0049 4H18.0049ZM1.00488 0H19.0049C19.5572 0 20.0049 0.44772 20.0049 1V17C20.0049 17.5523 19.5572 18 19.0049 18H1.00488C0.452603 18 0.00488281 17.5523 0.00488281 17V1C0.00488281 0.44772 0.452603 0 1.00488 0ZM11.0049 6V12H18.0049V6H11.0049ZM13.0049 8H16.0049V10H13.0049V8Z" fill="#E65425"/>
</svg>
