<svg width="20" height="20" viewBox="0 0 20 20" fill="none" xmlns="http://www.w3.org/2000/svg">
<path d="M9.90005 0.416504C15.1927 0.416504 19.4834 4.70711 19.4834 9.99984C19.4834 15.2925 15.1927 19.5832 9.90005 19.5832C4.60731 19.5832 0.316711 15.2925 0.316711 9.99984C0.316711 4.70711 4.60731 0.416504 9.90005 0.416504ZM10.0531 13.8332C8.1025 13.8332 6.34637 14.6657 5.12061 15.9948C6.43125 17.0411 8.09263 17.6665 9.90005 17.6665C11.7875 17.6665 13.5155 16.9845 14.8514 15.8534C13.6333 14.6069 11.9335 13.8332 10.0531 13.8332ZM9.90005 2.33317C5.66586 2.33317 2.23338 5.76565 2.23338 9.99984C2.23338 11.735 2.80982 13.3355 3.78163 14.6203C5.35409 12.9554 7.58226 11.9165 10.0531 11.9165C12.434 11.9165 14.5895 12.8812 16.1501 14.4409C17.0421 13.1879 17.5667 11.6552 17.5667 9.99984C17.5667 5.76565 14.1342 2.33317 9.90005 2.33317ZM9.90005 3.2915C12.0171 3.2915 13.7334 5.00774 13.7334 7.12484C13.7334 9.24189 12.0171 10.9582 9.90005 10.9582C7.78295 10.9582 6.06671 9.24189 6.06671 7.12484C6.06671 5.00774 7.78295 3.2915 9.90005 3.2915ZM9.90005 5.20817C8.84147 5.20817 7.98338 6.06629 7.98338 7.12484C7.98338 8.18341 8.84147 9.0415 9.90005 9.0415C10.9586 9.0415 11.8167 8.18341 11.8167 7.12484C11.8167 6.06629 10.9586 5.20817 9.90005 5.20817Z" fill="#6B7385"/>
</svg>
