<svg width="20" height="20" viewBox="0 0 20 20" fill="none" xmlns="http://www.w3.org/2000/svg">
<path d="M7.79001 0.516131C6.44685 0.0813259 4.9867 0.68613 4.34438 1.94337L3.57218 3.45482C3.48042 3.63441 3.33436 3.78047 3.15477 3.87222L1.64332 4.64443C0.386081 5.28675 -0.218723 6.7469 0.216082 8.09006L0.738815 9.70485C0.800915 9.89671 0.800915 10.1033 0.738815 10.2952L0.216082 11.91C-0.218723 13.2532 0.386081 14.7133 1.64332 15.3557L3.15477 16.1278C3.33436 16.2196 3.48042 16.3657 3.57218 16.5452L4.34438 18.0567C4.9867 19.314 6.44685 19.9188 7.79001 19.484L9.4048 18.9612C9.59666 18.8991 9.80328 18.8991 9.99514 18.9612L11.6099 19.484C12.9531 19.9188 14.4132 19.314 15.0556 18.0567L15.8277 16.5452C15.9196 16.3657 16.0656 16.2196 16.2452 16.1278L17.7567 15.3557C19.0139 14.7133 19.6187 13.2532 19.1839 11.91L18.6612 10.2952C18.5991 10.1033 18.5991 9.89671 18.6612 9.70485L19.1839 8.09006C19.6187 6.7469 19.0139 5.28675 17.7567 4.64443L16.2452 3.87222C16.0656 3.78047 15.9196 3.63441 15.8277 3.45482L15.0556 1.94337C14.4132 0.68613 12.9531 0.0813259 11.6099 0.516131L9.99514 1.03886C9.80328 1.10096 9.59666 1.10097 9.4048 1.03886L7.79001 0.516131ZM6.05119 2.81538C6.2653 2.3963 6.75202 2.1947 7.19975 2.33964L8.81457 2.86236C9.39014 3.04869 10.0098 3.04869 10.5854 2.86236L12.2003 2.33964C12.6479 2.1947 13.1346 2.3963 13.3487 2.81537L14.121 4.32684C14.3962 4.86559 14.8344 5.30378 15.3732 5.57903L16.8846 6.35124C17.3037 6.56535 17.5053 7.05207 17.3604 7.49979L16.8376 9.11461C16.6513 9.69019 16.6513 10.3098 16.8376 10.8854L17.3604 12.5003C17.5053 12.9479 17.3037 13.4347 16.8846 13.6488L15.3732 14.421C14.8344 14.6962 14.3962 15.1345 14.121 15.6733L13.3487 17.1846C13.1346 17.6037 12.6479 17.8054 12.2003 17.6605L10.5854 17.1377C10.0098 16.9514 9.39014 16.9514 8.81457 17.1377L7.19975 17.6605C6.75202 17.8054 6.2653 17.6037 6.05119 17.1846L5.27899 15.6733C5.00373 15.1345 4.56555 14.6962 4.02679 14.421L2.51533 13.6488C2.09626 13.4347 1.89465 12.9479 2.03959 12.5003L2.56231 10.8854C2.74864 10.3098 2.74864 9.69019 2.56231 9.11461L2.03959 7.49979C1.89465 7.05207 2.09626 6.56535 2.51533 6.35124L4.02679 5.57903C4.56555 5.30378 5.00373 4.86559 5.27899 4.32684L6.05119 2.81538ZM4.67792 9.76753L8.74374 13.8334L15.5202 7.05695L14.1649 5.70166L8.74374 11.1228L6.03321 8.41216L4.67792 9.76753Z" fill="#6B7385"/>
</svg>
