<svg width="70" height="70" viewBox="0 0 70 70" fill="none" xmlns="http://www.w3.org/2000/svg">
<g clip-path="url(#clip0_78_1210)">
<path d="M40.1673 52.6091L34.9998 49.5283L30.0498 52.4795L32.3917 57.6508L30.3325 68.633H39.9418L37.8835 57.6508L40.1673 52.6091Z" fill="#E95440"/>
<path d="M49.6886 44.0235C47.6789 44.0235 43.1589 44.0235 41.1524 44.0235V39.6344C45.254 37.4424 47.9883 33.1321 47.9883 28.1837C47.9883 26.6213 47.9883 14.7298 47.9883 12.9158L51.73 9.19804C52.1908 8.73717 52.2742 8.01516 51.9127 7.47293L49.173 3.3547C48.9746 3.05692 48.6702 2.84897 48.3202 2.77528L35.2802 0.0294287C35.0944 -0.00980955 34.9034 -0.00980955 34.7175 0.0294287L21.6766 2.77501C21.3266 2.8487 21.0194 3.05679 20.821 3.35442L18.0756 7.47279C17.7139 8.01502 17.8094 8.73703 18.2701 9.19791L22.0117 12.9157V28.1836C22.0117 33.132 24.7461 37.4424 28.8476 39.6343V44.0234C26.8332 44.0234 22.3175 44.0234 20.3115 44.0234C12.8964 44.0235 6.83594 50.0983 6.83594 57.5133V68.6327C6.83594 69.3877 7.47605 69.9999 8.23101 69.9999H61.7689C62.5238 69.9999 63.164 69.3877 63.164 68.6327V57.5133C63.164 50.0983 57.1035 44.0235 49.6886 44.0235ZM45.2706 46.7579L42.7076 52.5106L37.3389 49.2992L40.3082 46.7579H45.2706ZM33.6215 9.60396C33.6215 8.84381 34.2398 8.22556 34.9999 8.22556C35.7601 8.22556 36.3783 8.84381 36.3783 9.60396C36.3783 10.364 35.7601 10.9822 34.9999 10.9822C34.2399 10.9822 33.6215 10.3638 33.6215 9.60396ZM45.2538 13.672V16.4064H24.7461V13.672H45.2538ZM45.0749 19.1408C44.5169 20.7814 42.9905 22.0118 41.1997 22.0118H28.8003C27.0096 22.0118 25.4831 20.7814 24.9252 19.1408H45.0749ZM22.7866 5.33575L34.9999 2.76435L47.2133 5.33575L49.0275 8.03457L46.1022 10.9375H38.8744C39.0282 10.5274 39.1127 10.0648 39.1127 9.58154C39.1127 7.31379 37.2677 5.47985 34.9999 5.47985C32.7322 5.47985 30.8872 7.30818 30.8872 9.57593C30.8872 10.0592 30.9717 10.5274 31.1255 10.9375H23.8977L20.9725 8.03457L22.7866 5.33575ZM24.7461 28.1836V23.3278C25.8398 24.188 27.2625 24.7461 28.8002 24.7461H41.1996C42.7373 24.7461 44.1599 24.188 45.2537 23.3278V28.1836C45.2537 33.7941 40.7517 38.4179 35.0473 38.4179H34.9525C29.2619 38.4181 24.7461 33.7986 24.7461 28.1836ZM38.4179 40.7222V44.8021L34.9999 47.732L31.582 44.8021V40.7222C33.7099 41.2915 36.2411 41.3046 38.4179 40.7222ZM29.6917 46.7579L32.661 49.3099L27.2923 52.4999L24.7292 46.7578H29.6917V46.7579ZM60.4296 67.2657H9.57031V57.5134C9.57031 51.6062 14.4041 46.7579 20.3115 46.7579H21.734L25.4238 55.0303C25.7669 55.7977 26.6843 56.0753 27.372 55.6651L34.9999 51.1187L42.6279 55.667C43.3204 56.08 44.2232 55.8192 44.5761 55.0302L48.2659 46.7579H49.6884C55.5956 46.7579 60.4296 51.6062 60.4296 57.5134V67.2657Z" fill="black"/>
<path d="M31.4021 33.1067C33.6009 34.7129 36.6726 34.7134 38.8722 33.1067C39.482 32.6613 39.6153 31.8058 39.1699 31.1962C38.7246 30.5865 37.8689 30.4533 37.2594 30.8986C36.0296 31.797 34.2447 31.7968 33.0152 30.8987C32.4054 30.4529 31.5501 30.5866 31.1047 31.1961C30.6591 31.8058 30.7924 32.6612 31.4021 33.1067Z" fill="black"/>
<path d="M53.5323 55.6445H49.4141C48.6591 55.6445 48.0469 56.2568 48.0469 57.0117C48.0469 57.7667 48.6591 58.3789 49.4141 58.3789H53.5323C54.2873 58.3789 54.8995 57.7667 54.8995 57.0117C54.8995 56.2568 54.2873 55.6445 53.5323 55.6445Z" fill="black"/>
</g>
<defs>
<clipPath id="clip0_78_1210">
<rect width="70" height="70" fill="white"/>
</clipPath>
</defs>
</svg>
