<svg width="200" height="216" viewBox="0 0 200 216" fill="none" xmlns="http://www.w3.org/2000/svg">
<g clip-path="url(#clip0_77_1642)">
<path d="M6.8429 136.405C9.50676 119.16 39.1759 115.69 33.7259 84.4909C29.625 61.0294 61.9971 18.4124 84.3931 22.7284C101.403 26.0032 93.0152 44.6503 105.235 50.281C112.835 53.7856 116.306 43.878 126.331 47.5585C138.13 51.894 133.247 76.6557 153.83 88.1275C172.765 98.6607 187.067 94.8238 192.106 108.505C197.8 123.97 180.791 127.694 183.626 138.262C187.15 151.376 199.829 150.149 197.16 165.076C191.871 194.672 136.009 205.113 101.3 205.113C66.5917 205.113 1.87198 168.518 6.8429 136.405Z" fill="#FDEEEC"/>
<path d="M165.365 29.3905H153.287C149.194 29.3905 145.877 32.708 145.877 36.8004V48.9369C145.877 53.0293 149.194 56.3469 153.287 56.3469H165.365C169.457 56.3469 172.775 53.0293 172.775 48.9369V36.8004C172.775 32.708 169.457 29.3905 165.365 29.3905Z" fill="#FFFDF7"/>
<path d="M165.375 56.6988H153.277C151.226 56.6936 149.261 55.8751 147.812 54.4227C146.363 52.9704 145.55 51.0029 145.55 48.9516V36.8053C145.55 34.754 146.363 32.7864 147.812 31.3341C149.261 29.8818 151.226 29.0633 153.277 29.0581H165.375C167.427 29.062 169.394 29.8799 170.843 31.3324C172.293 32.7848 173.107 34.7532 173.107 36.8053V48.9271C173.111 49.9453 172.913 50.9542 172.526 51.896C172.139 52.8378 171.57 53.694 170.852 54.4158C170.134 55.1376 169.281 55.7108 168.341 56.1025C167.401 56.4942 166.393 56.6968 165.375 56.6988ZM153.277 29.718C151.401 29.7231 149.603 30.4721 148.279 31.8007C146.954 33.1293 146.21 34.929 146.21 36.8053V48.9271C146.21 50.803 146.954 52.6022 148.279 53.93C149.604 55.2578 151.402 56.0057 153.277 56.0096H165.375C167.251 56.0057 169.049 55.2579 170.375 53.9303C171.701 52.6026 172.446 50.8034 172.448 48.9271V36.8053C172.448 34.9282 171.703 33.1277 170.377 31.799C169.051 30.4703 167.252 29.7218 165.375 29.718H153.277Z" fill="black"/>
<path d="M126.429 66.1079C124.366 63.4636 126.404 59.3773 130.266 58.7761C134.127 58.1749 137.827 61.4791 138.77 65.0277C141.459 64.3483 143.854 68.41 142.832 70.7171C144.973 75.1455 138.316 78.6305 138.316 78.6305C138.316 78.6305 131.923 77.7898 131.883 77.6236C131.844 77.4574 126.429 66.1079 126.429 66.1079Z" fill="black"/>
<path d="M71.0395 34.0095L68.7471 57.3685C67.9364 63.9095 65.7568 70.2064 62.3502 75.8489C58.9437 81.4915 54.3866 86.353 48.9758 90.1169L44.9972 92.8834C44.5315 93.2091 43.9769 93.3838 43.4086 93.3838C42.8403 93.3838 42.2857 93.2091 41.8201 92.8834L37.8756 90.1267C32.496 86.3587 27.9674 81.5034 24.5827 75.8748C21.1979 70.2462 19.0325 63.9698 18.2265 57.4515L15.9195 33.99C15.8711 33.5983 15.9064 33.2007 16.0229 32.8236C16.1395 32.4465 16.3347 32.0985 16.5957 31.8024C16.8567 31.5063 17.1775 31.2689 17.537 31.1059C17.8965 30.9429 18.2864 30.8581 18.6811 30.8569C21.4965 30.8569 64.6267 31.0084 68.2779 30.8569C68.6762 30.8521 69.0708 30.9336 69.4345 31.0959C69.7983 31.2582 70.1226 31.4973 70.385 31.797C70.6475 32.0966 70.8419 32.4495 70.9549 32.8315C71.0679 33.2134 71.0967 33.6154 71.0395 34.0095Z" fill="#E95440"/>
<path d="M43.4138 93.7191C42.7753 93.7206 42.152 93.5242 41.6297 93.157L37.6901 90.4247C32.2747 86.6279 27.7155 81.7378 24.3067 76.0702C20.8979 70.4025 18.7151 64.0832 17.8993 57.5199L15.5923 34.0583C15.5383 33.6207 15.5779 33.1765 15.7084 32.7553C15.839 32.3341 16.0575 31.9454 16.3495 31.615C16.6416 31.2846 17.0005 31.02 17.4025 30.8388C17.8045 30.6575 18.2404 30.5637 18.6814 30.5635H23.5692C36.0478 30.5977 65.2672 30.6759 68.2488 30.5635C68.6793 30.5481 69.1078 30.6277 69.504 30.7967C69.9002 30.9656 70.2543 31.2198 70.5412 31.5411C70.8505 31.8753 71.084 32.2723 71.2258 32.7051C71.3675 33.1378 71.4141 33.5961 71.3624 34.0485L69.07 57.4026C68.2565 63.9956 66.0638 70.3435 62.6346 76.033C59.2054 81.7225 54.6166 86.6261 49.1667 90.4247L45.1881 93.1863C44.6648 93.5407 44.0457 93.7266 43.4138 93.7191ZM18.6814 31.2087C18.3319 31.2057 17.9858 31.2778 17.6665 31.42C17.3472 31.5621 17.0621 31.7712 16.8305 32.0329C16.5988 32.2947 16.426 32.6031 16.3237 32.9373C16.2214 33.2715 16.192 33.6238 16.2375 33.9703L18.5445 57.4319C19.3494 63.9018 21.5017 70.1311 24.8625 75.7179C28.2234 81.3047 32.7181 86.1249 38.0567 89.8675L41.9963 92.6242C42.4073 92.9124 42.8971 93.0669 43.3991 93.0669C43.9011 93.0669 44.3909 92.9124 44.8019 92.6242L48.7806 89.8577C54.1558 86.1189 58.6834 81.2902 62.0688 75.6857C65.4542 70.0813 67.6215 63.8268 68.4297 57.3292L70.722 33.9703C70.7679 33.6091 70.7344 33.2421 70.6238 32.8952C70.5132 32.5482 70.3282 32.2295 70.0817 31.9614C69.8587 31.713 69.5836 31.5167 69.2761 31.3866C68.9686 31.2565 68.6362 31.1958 68.3026 31.2087C65.3063 31.3309 36.0723 31.2527 23.5936 31.2087H18.6814Z" fill="black"/>
<path d="M72.1246 50.5254H14.8344C10.383 50.5254 6.77441 54.134 6.77441 58.5854V58.6001C6.77441 63.0515 10.383 66.6601 14.8344 66.6601H72.1246C76.576 66.6601 80.1846 63.0515 80.1846 58.6001V58.5854C80.1846 54.134 76.576 50.5254 72.1246 50.5254Z" fill="#FF9B38"/>
<path d="M72.1392 66.9877H14.8245C12.5974 66.9877 10.4615 66.103 8.88675 64.5282C7.31196 62.9534 6.42725 60.8175 6.42725 58.5904C6.42725 56.3633 7.31196 54.2274 8.88675 52.6526C10.4615 51.0778 12.5974 50.1931 14.8245 50.1931H72.1392C74.3663 50.1931 76.5021 51.0778 78.0769 52.6526C79.6517 54.2274 80.5364 56.3633 80.5364 58.5904C80.5364 60.8175 79.6517 62.9534 78.0769 64.5282C76.5021 66.103 74.3663 66.9877 72.1392 66.9877ZM14.8245 50.8579C12.8067 50.9086 10.8887 51.7458 9.47947 53.1908C8.07029 54.6359 7.28156 56.5744 7.28156 58.5928C7.28156 60.6113 8.07029 62.5498 9.47947 63.9948C10.8887 65.4399 12.8067 66.2771 14.8245 66.3278H72.1392C74.1569 66.2771 76.075 65.4399 77.4842 63.9948C78.8934 62.5498 79.6821 60.6113 79.6821 58.5928C79.6821 56.5744 78.8934 54.6359 77.4842 53.1908C76.075 51.7458 74.1569 50.9086 72.1392 50.8579H14.8245Z" fill="black"/>
<path d="M12.1904 58.693C12.1914 58.321 12.3026 57.9576 12.51 57.6488C12.7173 57.34 13.0116 57.0996 13.3555 56.9579C13.6994 56.8162 14.0776 56.7796 14.4424 56.8528C14.8071 56.926 15.1419 57.1056 15.4046 57.3689C15.6673 57.6323 15.846 57.9676 15.9183 58.3325C15.9905 58.6974 15.9529 59.0755 15.8103 59.4191C15.6678 59.7627 15.4266 60.0563 15.1172 60.2629C14.8079 60.4694 14.4442 60.5797 14.0722 60.5797C13.8247 60.5797 13.5796 60.5308 13.351 60.436C13.1223 60.3411 12.9147 60.202 12.7399 60.0268C12.5651 59.8515 12.4266 59.6435 12.3323 59.4146C12.238 59.1857 12.1898 58.9405 12.1904 58.693Z" fill="#FFFDF7"/>
<path d="M20.5825 58.693C20.5835 58.3218 20.6942 57.9593 20.9007 57.6509C21.1073 57.3425 21.4003 57.1021 21.7432 56.9598C22.086 56.8176 22.4632 56.7799 22.8273 56.8515C23.1915 56.9231 23.5264 57.1008 23.7898 57.3622C24.0533 57.6236 24.2335 57.9571 24.308 58.3207C24.3824 58.6843 24.3476 59.0618 24.208 59.4057C24.0684 59.7496 23.8303 60.0445 23.5235 60.2534C23.2167 60.4623 22.855 60.5758 22.4839 60.5797C22.2346 60.5829 21.9871 60.5365 21.7559 60.443C21.5247 60.3495 21.3144 60.2109 21.1374 60.0352C20.9604 59.8596 20.8201 59.6504 20.7249 59.42C20.6296 59.1895 20.5812 58.9424 20.5825 58.693Z" fill="#FFFDF7"/>
<path d="M28.9751 58.693C28.9761 58.3208 29.0874 57.9572 29.295 57.6483C29.5026 57.3394 29.7971 57.099 30.1413 56.9574C30.4855 56.8159 30.864 56.7796 31.2288 56.8532C31.5937 56.9267 31.9285 57.1068 32.191 57.3707C32.4535 57.6345 32.6319 57.9703 32.7035 58.3355C32.7752 58.7007 32.7369 59.079 32.5936 59.4225C32.4503 59.766 32.2083 60.0593 31.8983 60.2652C31.5883 60.4712 31.2242 60.5806 30.852 60.5797C30.6047 60.5797 30.3599 60.5308 30.1315 60.4359C29.9032 60.3409 29.6958 60.2018 29.5214 60.0265C29.347 59.8511 29.2089 59.6431 29.1152 59.4142C29.0214 59.1854 28.9738 58.9403 28.9751 58.693Z" fill="#FFFDF7"/>
<path d="M37.3623 58.693C37.3633 58.321 37.4745 57.9576 37.6818 57.6488C37.8892 57.34 38.1834 57.0996 38.5274 56.9579C38.8713 56.8162 39.2495 56.7796 39.6142 56.8528C39.9789 56.926 40.3138 57.1056 40.5765 57.3689C40.8392 57.6323 41.0179 57.9676 41.0901 58.3325C41.1623 58.6974 41.1248 59.0755 40.9822 59.4191C40.8396 59.7627 40.5984 60.0563 40.2891 60.2629C39.9797 60.4694 39.6161 60.5797 39.2441 60.5797C38.9966 60.5797 38.7515 60.5308 38.5229 60.436C38.2942 60.3411 38.0866 60.202 37.9117 60.0268C37.7369 59.8515 37.5984 59.6435 37.5041 59.4146C37.4099 59.1857 37.3617 58.9405 37.3623 58.693Z" fill="#FFFDF7"/>
<path d="M45.7549 58.693C45.7559 58.321 45.867 57.9576 46.0744 57.6488C46.2818 57.34 46.576 57.0996 46.9199 56.9579C47.2639 56.8162 47.6421 56.7796 48.0068 56.8528C48.3715 56.926 48.7064 57.1056 48.9691 57.3689C49.2317 57.6323 49.4105 57.9676 49.4827 58.3325C49.5549 58.6974 49.5174 59.0755 49.3748 59.4191C49.2322 59.7627 48.991 60.0563 48.6817 60.2629C48.3723 60.4694 48.0087 60.5797 47.6367 60.5797C47.3892 60.5797 47.1441 60.5308 46.9154 60.436C46.6868 60.3411 46.4791 60.202 46.3043 60.0268C46.1295 59.8515 45.991 59.6435 45.8967 59.4146C45.8024 59.1857 45.7542 58.9405 45.7549 58.693Z" fill="#FFFDF7"/>
<path d="M54.1475 58.693C54.1484 58.321 54.2596 57.9576 54.467 57.6488C54.6743 57.34 54.9686 57.0996 55.3125 56.9579C55.6565 56.8162 56.0347 56.7796 56.3994 56.8528C56.7641 56.926 57.099 57.1056 57.3616 57.3689C57.6243 57.6323 57.8031 57.9676 57.8753 58.3325C57.9475 58.6974 57.9099 59.0755 57.7674 59.4191C57.6248 59.7627 57.3836 60.0563 57.0743 60.2629C56.7649 60.4694 56.4013 60.5797 56.0293 60.5797C55.7817 60.5797 55.5366 60.5308 55.308 60.436C55.0794 60.3411 54.8717 60.202 54.6969 60.0268C54.5221 59.8515 54.3836 59.6435 54.2893 59.4146C54.195 59.1857 54.1468 58.9405 54.1475 58.693Z" fill="#FFFDF7"/>
<path d="M62.564 58.693C62.565 58.3208 62.6763 57.9572 62.8839 57.6483C63.0914 57.3394 63.386 57.099 63.7302 56.9574C64.0744 56.8159 64.4529 56.7796 64.8177 56.8532C65.1826 56.9267 65.5174 57.1068 65.7799 57.3707C66.0424 57.6345 66.2207 57.9703 66.2924 58.3355C66.3641 58.7007 66.3258 59.079 66.1825 59.4225C66.0392 59.766 65.7972 60.0593 65.4872 60.2652C65.1772 60.4712 64.8131 60.5806 64.4409 60.5797C64.1936 60.5797 63.9487 60.5308 63.7204 60.4359C63.492 60.3409 63.2847 60.2018 63.1103 60.0265C62.9358 59.8511 62.7978 59.6431 62.704 59.4142C62.6103 59.1854 62.5627 58.9403 62.564 58.693Z" fill="#FFFDF7"/>
<path d="M72.8091 60.5748C73.8484 60.5748 74.6909 59.7323 74.6909 58.693C74.6909 57.6537 73.8484 56.8112 72.8091 56.8112C71.7698 56.8112 70.9272 57.6537 70.9272 58.693C70.9272 59.7323 71.7698 60.5748 72.8091 60.5748Z" fill="#FFFDF7"/>
<path d="M12.1904 58.693C12.1914 58.321 12.3026 57.9576 12.51 57.6488C12.7173 57.34 13.0116 57.0996 13.3555 56.9579C13.6994 56.8162 14.0776 56.7796 14.4424 56.8528C14.8071 56.926 15.1419 57.1056 15.4046 57.3689C15.6673 57.6323 15.846 57.9676 15.9183 58.3325C15.9905 58.6974 15.9529 59.0755 15.8103 59.4191C15.6678 59.7627 15.4266 60.0563 15.1172 60.2629C14.8079 60.4694 14.4442 60.5797 14.0722 60.5797C13.8247 60.5797 13.5796 60.5308 13.351 60.436C13.1223 60.3411 12.9147 60.202 12.7399 60.0268C12.5651 59.8515 12.4266 59.6435 12.3323 59.4146C12.238 59.1857 12.1898 58.9405 12.1904 58.693Z" fill="#FFFDF7"/>
<path d="M14.0721 60.8681C13.6415 60.87 13.22 60.7441 12.861 60.5063C12.502 60.2685 12.2217 59.9294 12.0556 59.5322C11.8895 59.1349 11.845 58.6973 11.9278 58.2747C12.0106 57.8521 12.217 57.4636 12.5208 57.1585C12.8246 56.8533 13.2122 56.6452 13.6343 56.5605C14.0565 56.4757 14.4944 56.5182 14.8924 56.6826C15.2904 56.8469 15.6307 57.1257 15.8701 57.4836C16.1096 57.8415 16.2374 58.2624 16.2374 58.693C16.2374 59.2682 16.0096 59.8199 15.6038 60.2276C15.198 60.6352 14.6472 60.8655 14.0721 60.8681ZM14.0721 57.0996C13.7546 57.0937 13.4425 57.1826 13.1757 57.3549C12.9089 57.5272 12.6995 57.775 12.5742 58.0668C12.4489 58.3586 12.4133 58.6811 12.472 58.9931C12.5307 59.3052 12.6811 59.5928 12.9039 59.819C13.1267 60.0453 13.4118 60.2001 13.723 60.2636C14.0341 60.3272 14.3571 60.2966 14.6508 60.1758C14.9445 60.0549 15.1955 59.8494 15.3719 59.5853C15.5483 59.3212 15.642 59.0106 15.6411 58.693C15.6411 58.2746 15.4766 57.873 15.183 57.5748C14.8895 57.2767 14.4904 57.106 14.0721 57.0996Z" fill="black"/>
<path d="M20.5825 58.693C20.5835 58.3218 20.6942 57.9593 20.9007 57.6509C21.1073 57.3425 21.4003 57.1021 21.7432 56.9598C22.086 56.8176 22.4632 56.7799 22.8273 56.8515C23.1915 56.9231 23.5264 57.1008 23.7898 57.3622C24.0533 57.6236 24.2335 57.9571 24.308 58.3207C24.3824 58.6843 24.3476 59.0618 24.208 59.4057C24.0684 59.7496 23.8303 60.0445 23.5235 60.2534C23.2167 60.4623 22.855 60.5758 22.4839 60.5797C22.2346 60.5829 21.9871 60.5365 21.7559 60.443C21.5247 60.3495 21.3144 60.2109 21.1374 60.0352C20.9604 59.8596 20.8201 59.6504 20.7249 59.42C20.6296 59.1895 20.5812 58.9424 20.5825 58.693Z" fill="#FFFDF7"/>
<path d="M22.4842 60.8681C22.0538 60.8691 21.6328 60.7423 21.2744 60.5039C20.9161 60.2655 20.6366 59.9261 20.4712 59.5288C20.3058 59.1314 20.262 58.6939 20.3454 58.2717C20.4288 57.8494 20.6355 57.4614 20.9395 57.1567C21.2435 56.8521 21.6311 56.6444 22.0531 56.5601C22.4752 56.4758 22.9128 56.5186 23.3105 56.683C23.7082 56.8475 24.0482 57.1263 24.2875 57.4841C24.5267 57.8419 24.6544 58.2626 24.6544 58.693C24.6544 59.269 24.4259 59.8215 24.019 60.2293C23.6122 60.6371 23.0602 60.8668 22.4842 60.8681ZM22.4842 57.0996C22.1676 57.0986 21.8579 57.1917 21.5944 57.3669C21.3308 57.5422 21.1251 57.7917 21.0036 58.084C20.882 58.3763 20.8499 58.698 20.9114 59.0085C20.973 59.319 21.1253 59.6043 21.3491 59.8281C21.5729 60.0519 21.8582 60.2042 22.1687 60.2657C22.4792 60.3273 22.8009 60.2952 23.0932 60.1736C23.3854 60.052 23.635 59.8464 23.8103 59.5828C23.9855 59.3192 24.0786 59.0096 24.0776 58.693C24.0776 58.2704 23.9097 57.8651 23.6109 57.5663C23.3121 57.2675 22.9068 57.0996 22.4842 57.0996Z" fill="black"/>
<path d="M28.9751 58.693C28.9761 58.3208 29.0874 57.9572 29.295 57.6483C29.5026 57.3394 29.7971 57.099 30.1413 56.9574C30.4855 56.8159 30.864 56.7796 31.2288 56.8532C31.5937 56.9267 31.9285 57.1068 32.191 57.3707C32.4535 57.6345 32.6319 57.9703 32.7035 58.3355C32.7752 58.7007 32.7369 59.079 32.5936 59.4225C32.4503 59.766 32.2083 60.0593 31.8983 60.2652C31.5883 60.4712 31.2242 60.5806 30.852 60.5797C30.6047 60.5797 30.3599 60.5308 30.1315 60.4359C29.9032 60.3409 29.6958 60.2018 29.5214 60.0265C29.347 59.8511 29.2089 59.6431 29.1152 59.4142C29.0214 59.1854 28.9738 58.9403 28.9751 58.693Z" fill="#FFFDF7"/>
<path d="M30.8518 60.8681C30.4214 60.8691 30.0004 60.7423 29.6421 60.5039C29.2838 60.2655 29.0042 59.9261 28.8389 59.5288C28.6735 59.1314 28.6297 58.6939 28.7131 58.2717C28.7964 57.8494 29.0032 57.4614 29.3072 57.1567C29.6112 56.8521 29.9988 56.6444 30.4208 56.5601C30.8429 56.4758 31.2805 56.5186 31.6782 56.683C32.0759 56.8475 32.4159 57.1263 32.6551 57.4841C32.8943 57.8419 33.022 58.2626 33.022 58.693C33.022 59.269 32.7936 59.8215 32.3867 60.2293C31.9799 60.6371 31.4279 60.8668 30.8518 60.8681ZM30.8518 57.0996C30.5353 57.0986 30.2256 57.1917 29.962 57.3669C29.6984 57.5422 29.4928 57.7917 29.3712 58.084C29.2497 58.3763 29.2176 58.698 29.2791 59.0085C29.3406 59.319 29.493 59.6043 29.7168 59.8281C29.9406 60.0519 30.2258 60.2042 30.5363 60.2657C30.8468 60.3273 31.1686 60.2952 31.4609 60.1736C31.7531 60.052 32.0027 59.8464 32.1779 59.5828C32.3532 59.3192 32.4462 59.0096 32.4453 58.693C32.444 58.2708 32.2757 57.8663 31.9771 57.5677C31.6786 57.2692 31.2741 57.1009 30.8518 57.0996Z" fill="black"/>
<path d="M37.3623 58.693C37.3633 58.321 37.4745 57.9576 37.6818 57.6488C37.8892 57.34 38.1834 57.0996 38.5274 56.9579C38.8713 56.8162 39.2495 56.7796 39.6142 56.8528C39.9789 56.926 40.3138 57.1056 40.5765 57.3689C40.8392 57.6323 41.0179 57.9676 41.0901 58.3325C41.1623 58.6974 41.1248 59.0755 40.9822 59.4191C40.8396 59.7627 40.5984 60.0563 40.2891 60.2629C39.9797 60.4694 39.6161 60.5797 39.2441 60.5797C38.9966 60.5797 38.7515 60.5308 38.5229 60.436C38.2942 60.3411 38.0866 60.202 37.9117 60.0268C37.7369 59.8515 37.5984 59.6435 37.5041 59.4146C37.4099 59.1857 37.3617 58.9405 37.3623 58.693Z" fill="#FFFDF7"/>
<path d="M39.2444 60.8681C38.8138 60.87 38.3923 60.7441 38.0334 60.5063C37.6744 60.2685 37.3941 59.9294 37.228 59.5322C37.0618 59.1349 37.0174 58.6973 37.1002 58.2747C37.183 57.8521 37.3894 57.4636 37.6932 57.1585C37.997 56.8533 38.3845 56.6452 38.8067 56.5605C39.2289 56.4757 39.6667 56.5182 40.0647 56.6826C40.4628 56.8469 40.803 57.1257 41.0425 57.4836C41.2819 57.8415 41.4097 58.2624 41.4097 58.693C41.4104 58.978 41.3549 59.2603 41.2464 59.5239C41.1379 59.7874 40.9786 60.027 40.7776 60.229C40.5765 60.431 40.3376 60.5914 40.0746 60.701C39.8115 60.8107 39.5294 60.8674 39.2444 60.8681ZM39.2444 57.0996C38.9279 57.0986 38.6182 57.1916 38.3546 57.3669C38.091 57.5422 37.8854 57.7917 37.7638 58.084C37.6422 58.3762 37.6102 58.698 37.6717 59.0085C37.7332 59.319 37.8855 59.6042 38.1094 59.8281C38.3332 60.0519 38.6184 60.2042 38.9289 60.2657C39.2394 60.3272 39.5612 60.2952 39.8535 60.1736C40.1457 60.052 40.3953 59.8464 40.5705 59.5828C40.7458 59.3192 40.8388 59.0095 40.8379 58.693C40.8379 58.4838 40.7966 58.2765 40.7166 58.0832C40.6365 57.8899 40.5191 57.7142 40.3712 57.5663C40.2232 57.4183 40.0475 57.3009 39.8542 57.2209C39.6609 57.1408 39.4537 57.0996 39.2444 57.0996Z" fill="black"/>
<path d="M45.7549 58.693C45.7559 58.321 45.867 57.9576 46.0744 57.6488C46.2818 57.34 46.576 57.0996 46.9199 56.9579C47.2639 56.8162 47.6421 56.7796 48.0068 56.8528C48.3715 56.926 48.7064 57.1056 48.9691 57.3689C49.2317 57.6323 49.4105 57.9676 49.4827 58.3325C49.5549 58.6974 49.5174 59.0755 49.3748 59.4191C49.2322 59.7627 48.991 60.0563 48.6817 60.2629C48.3723 60.4694 48.0087 60.5797 47.6367 60.5797C47.3892 60.5797 47.1441 60.5308 46.9154 60.436C46.6868 60.3411 46.4791 60.202 46.3043 60.0268C46.1295 59.8515 45.991 59.6435 45.8967 59.4146C45.8024 59.1857 45.7542 58.9405 45.7549 58.693Z" fill="#FFFDF7"/>
<path d="M47.6365 60.8681C47.2059 60.87 46.7844 60.7441 46.4255 60.5063C46.0665 60.2685 45.7862 59.9294 45.62 59.5322C45.4539 59.1349 45.4095 58.6973 45.4923 58.2747C45.5751 57.8521 45.7815 57.4636 46.0853 57.1585C46.3891 56.8533 46.7766 56.6452 47.1988 56.5605C47.621 56.4757 48.0588 56.5182 48.4568 56.6826C48.8549 56.8469 49.1951 57.1257 49.4346 57.4836C49.674 57.8415 49.8018 58.2624 49.8018 58.693C49.8018 59.2682 49.574 59.8199 49.1682 60.2276C48.7624 60.6352 48.2117 60.8655 47.6365 60.8681ZM47.6365 57.0996C47.32 57.0986 47.0103 57.1916 46.7467 57.3669C46.4831 57.5422 46.2775 57.7917 46.1559 58.084C46.0343 58.3762 46.0023 58.698 46.0638 59.0085C46.1253 59.319 46.2776 59.6042 46.5015 59.8281C46.7253 60.0519 47.0105 60.2042 47.321 60.2657C47.6315 60.3272 47.9533 60.2952 48.2455 60.1736C48.5378 60.052 48.7874 59.8464 48.9626 59.5828C49.1379 59.3192 49.2309 59.0095 49.2299 58.693C49.2299 58.4838 49.1887 58.2765 49.1087 58.0832C49.0286 57.8899 48.9112 57.7142 48.7632 57.5663C48.6153 57.4183 48.4396 57.3009 48.2463 57.2209C48.053 57.1408 47.8458 57.0996 47.6365 57.0996Z" fill="black"/>
<path d="M54.1475 58.693C54.1484 58.321 54.2596 57.9576 54.467 57.6488C54.6743 57.34 54.9686 57.0996 55.3125 56.9579C55.6565 56.8162 56.0347 56.7796 56.3994 56.8528C56.7641 56.926 57.099 57.1056 57.3616 57.3689C57.6243 57.6323 57.8031 57.9676 57.8753 58.3325C57.9475 58.6974 57.9099 59.0755 57.7674 59.4191C57.6248 59.7627 57.3836 60.0563 57.0743 60.2629C56.7649 60.4694 56.4013 60.5797 56.0293 60.5797C55.7817 60.5797 55.5366 60.5308 55.308 60.436C55.0794 60.3411 54.8717 60.202 54.6969 60.0268C54.5221 59.8515 54.3836 59.6435 54.2893 59.4146C54.195 59.1857 54.1468 58.9405 54.1475 58.693Z" fill="#FFFDF7"/>
<path d="M56.0291 60.8681C55.5985 60.87 55.177 60.7441 54.818 60.5063C54.4591 60.2685 54.1788 59.9294 54.0126 59.5322C53.8465 59.1349 53.802 58.6973 53.8848 58.2747C53.9677 57.8521 54.1741 57.4636 54.4778 57.1585C54.7816 56.8533 55.1692 56.6452 55.5914 56.5605C56.0136 56.4757 56.4514 56.5182 56.8494 56.6826C57.2474 56.8469 57.5877 57.1257 57.8271 57.4836C58.0666 57.8415 58.1944 58.2624 58.1944 58.693C58.1944 59.2682 57.9666 59.8199 57.5608 60.2276C57.155 60.6352 56.6043 60.8655 56.0291 60.8681ZM56.0291 57.0996C55.7126 57.0986 55.4029 57.1916 55.1393 57.3669C54.8757 57.5422 54.6701 57.7917 54.5485 58.084C54.4269 58.3762 54.3949 58.698 54.4564 59.0085C54.5179 59.319 54.6702 59.6042 54.894 59.8281C55.1179 60.0519 55.4031 60.2042 55.7136 60.2657C56.0241 60.3272 56.3459 60.2952 56.6381 60.1736C56.9304 60.052 57.1799 59.8464 57.3552 59.5828C57.5305 59.3192 57.6235 59.0095 57.6225 58.693C57.6225 58.2704 57.4546 57.8651 57.1558 57.5663C56.857 57.2675 56.4517 57.0996 56.0291 57.0996Z" fill="black"/>
<path d="M62.564 58.693C62.565 58.3208 62.6763 57.9572 62.8839 57.6483C63.0914 57.3394 63.386 57.099 63.7302 56.9574C64.0744 56.8159 64.4529 56.7796 64.8177 56.8532C65.1826 56.9267 65.5174 57.1068 65.7799 57.3707C66.0424 57.6345 66.2207 57.9703 66.2924 58.3355C66.3641 58.7007 66.3258 59.079 66.1825 59.4225C66.0392 59.766 65.7972 60.0593 65.4872 60.2652C65.1772 60.4712 64.8131 60.5806 64.4409 60.5797C64.1936 60.5797 63.9487 60.5308 63.7204 60.4359C63.492 60.3409 63.2847 60.2018 63.1103 60.0265C62.9358 59.8511 62.7978 59.6431 62.704 59.4142C62.6103 59.1854 62.5627 58.9403 62.564 58.693Z" fill="#FFFDF7"/>
<path d="M64.4168 60.8681C63.9864 60.8691 63.5654 60.7423 63.207 60.5039C62.8487 60.2655 62.5692 59.9261 62.4038 59.5288C62.2384 59.1314 62.1946 58.6939 62.278 58.2717C62.3614 57.8494 62.5682 57.4614 62.8722 57.1567C63.1761 56.8521 63.5637 56.6444 63.9858 56.5601C64.4078 56.4758 64.8454 56.5186 65.2431 56.683C65.6409 56.8475 65.9809 57.1263 66.2201 57.4841C66.4593 57.8419 66.587 58.2626 66.587 58.693C66.587 59.269 66.3585 59.8215 65.9516 60.2293C65.5448 60.6371 64.9928 60.8668 64.4168 60.8681ZM64.4168 57.0996C64.1003 57.0986 63.7906 57.1917 63.527 57.3669C63.2634 57.5422 63.0578 57.7917 62.9362 58.084C62.8146 58.3763 62.7825 58.698 62.8441 59.0085C62.9056 59.319 63.0579 59.6043 63.2817 59.8281C63.5055 60.0519 63.7908 60.2042 64.1013 60.2657C64.4118 60.3273 64.7336 60.2952 65.0258 60.1736C65.3181 60.052 65.5676 59.8464 65.7429 59.5828C65.9181 59.3192 66.0112 59.0096 66.0102 58.693C66.0102 58.2704 65.8423 57.8651 65.5435 57.5663C65.2447 57.2675 64.8394 57.0996 64.4168 57.0996Z" fill="black"/>
<path d="M72.8091 60.5748C73.8484 60.5748 74.6909 59.7323 74.6909 58.693C74.6909 57.6537 73.8484 56.8112 72.8091 56.8112C71.7698 56.8112 70.9272 57.6537 70.9272 58.693C70.9272 59.7323 71.7698 60.5748 72.8091 60.5748Z" fill="#FFFDF7"/>
<path d="M72.8284 60.8681C72.398 60.8691 71.977 60.7423 71.6187 60.5039C71.2603 60.2655 70.9808 59.9261 70.8154 59.5288C70.65 59.1314 70.6063 58.6939 70.6896 58.2717C70.773 57.8494 70.9798 57.4614 71.2838 57.1567C71.5878 56.8521 71.9753 56.6444 72.3974 56.5601C72.8194 56.4758 73.257 56.5186 73.6548 56.683C74.0525 56.8475 74.3925 57.1263 74.6317 57.4841C74.8709 57.8419 74.9986 58.2626 74.9986 58.693C74.9986 59.269 74.7701 59.8215 74.3633 60.2293C73.9564 60.6371 73.4044 60.8668 72.8284 60.8681ZM72.8284 57.0996C72.5119 57.0986 72.2022 57.1917 71.9386 57.3669C71.675 57.5422 71.4694 57.7917 71.3478 58.084C71.2262 58.3763 71.1942 58.698 71.2557 59.0085C71.3172 59.319 71.4695 59.6043 71.6934 59.8281C71.9172 60.0519 72.2024 60.2042 72.5129 60.2657C72.8234 60.3273 73.1452 60.2952 73.4374 60.1736C73.7297 60.052 73.9793 59.8464 74.1545 59.5828C74.3298 59.3192 74.4228 59.0096 74.4218 58.693C74.4206 58.2708 74.2523 57.8663 73.9537 57.5677C73.6552 57.2692 73.2506 57.1009 72.8284 57.0996Z" fill="black"/>
<path d="M12.1904 58.693C12.1914 58.321 12.3026 57.9576 12.51 57.6488C12.7173 57.34 13.0116 57.0996 13.3555 56.9579C13.6994 56.8162 14.0776 56.7796 14.4424 56.8528C14.8071 56.926 15.1419 57.1056 15.4046 57.3689C15.6673 57.6323 15.846 57.9676 15.9183 58.3325C15.9905 58.6974 15.9529 59.0755 15.8103 59.4191C15.6678 59.7627 15.4266 60.0563 15.1172 60.2629C14.8079 60.4694 14.4442 60.5797 14.0722 60.5797C13.8247 60.5797 13.5796 60.5308 13.351 60.436C13.1223 60.3411 12.9147 60.202 12.7399 60.0268C12.5651 59.8515 12.4266 59.6435 12.3323 59.4146C12.238 59.1857 12.1898 58.9405 12.1904 58.693Z" fill="#FFFDF7"/>
<path d="M14.0721 60.8681C13.6415 60.87 13.22 60.7441 12.861 60.5063C12.502 60.2685 12.2217 59.9294 12.0556 59.5322C11.8895 59.1349 11.845 58.6973 11.9278 58.2747C12.0106 57.8521 12.217 57.4636 12.5208 57.1585C12.8246 56.8533 13.2122 56.6452 13.6343 56.5605C14.0565 56.4757 14.4944 56.5182 14.8924 56.6826C15.2904 56.8469 15.6307 57.1257 15.8701 57.4836C16.1096 57.8415 16.2374 58.2624 16.2374 58.693C16.2374 59.2682 16.0096 59.8199 15.6038 60.2276C15.198 60.6352 14.6472 60.8655 14.0721 60.8681ZM14.0721 57.0996C13.7546 57.0937 13.4425 57.1826 13.1757 57.3549C12.9089 57.5272 12.6995 57.775 12.5742 58.0668C12.4489 58.3586 12.4133 58.6811 12.472 58.9931C12.5307 59.3052 12.6811 59.5928 12.9039 59.819C13.1267 60.0453 13.4118 60.2001 13.723 60.2636C14.0341 60.3272 14.3571 60.2966 14.6508 60.1758C14.9445 60.0549 15.1955 59.8494 15.3719 59.5853C15.5483 59.3212 15.642 59.0106 15.6411 58.693C15.6411 58.2746 15.4766 57.873 15.183 57.5748C14.8895 57.2767 14.4904 57.106 14.0721 57.0996Z" fill="black"/>
<path d="M20.5825 58.693C20.5835 58.3218 20.6942 57.9593 20.9007 57.6509C21.1073 57.3425 21.4003 57.1021 21.7432 56.9598C22.086 56.8176 22.4632 56.7799 22.8273 56.8515C23.1915 56.9231 23.5264 57.1008 23.7898 57.3622C24.0533 57.6236 24.2335 57.9571 24.308 58.3207C24.3824 58.6843 24.3476 59.0618 24.208 59.4057C24.0684 59.7496 23.8303 60.0445 23.5235 60.2534C23.2167 60.4623 22.855 60.5758 22.4839 60.5797C22.2346 60.5829 21.9871 60.5365 21.7559 60.443C21.5247 60.3495 21.3144 60.2109 21.1374 60.0352C20.9604 59.8596 20.8201 59.6504 20.7249 59.42C20.6296 59.1895 20.5812 58.9424 20.5825 58.693Z" fill="#FFFDF7"/>
<path d="M22.4842 60.8681C22.0538 60.8691 21.6328 60.7423 21.2744 60.5039C20.9161 60.2655 20.6366 59.9261 20.4712 59.5288C20.3058 59.1314 20.262 58.6939 20.3454 58.2717C20.4288 57.8494 20.6355 57.4614 20.9395 57.1567C21.2435 56.8521 21.6311 56.6444 22.0531 56.5601C22.4752 56.4758 22.9128 56.5186 23.3105 56.683C23.7082 56.8475 24.0482 57.1263 24.2875 57.4841C24.5267 57.8419 24.6544 58.2626 24.6544 58.693C24.6544 59.269 24.4259 59.8215 24.019 60.2293C23.6122 60.6371 23.0602 60.8668 22.4842 60.8681ZM22.4842 57.0996C22.1676 57.0986 21.8579 57.1917 21.5944 57.3669C21.3308 57.5422 21.1251 57.7917 21.0036 58.084C20.882 58.3763 20.8499 58.698 20.9114 59.0085C20.973 59.319 21.1253 59.6043 21.3491 59.8281C21.5729 60.0519 21.8582 60.2042 22.1687 60.2657C22.4792 60.3273 22.8009 60.2952 23.0932 60.1736C23.3854 60.052 23.635 59.8464 23.8103 59.5828C23.9855 59.3192 24.0786 59.0096 24.0776 58.693C24.0776 58.2704 23.9097 57.8651 23.6109 57.5663C23.3121 57.2675 22.9068 57.0996 22.4842 57.0996Z" fill="black"/>
<path d="M28.9751 58.693C28.9761 58.3208 29.0874 57.9572 29.295 57.6483C29.5026 57.3394 29.7971 57.099 30.1413 56.9574C30.4855 56.8159 30.864 56.7796 31.2288 56.8532C31.5937 56.9267 31.9285 57.1068 32.191 57.3707C32.4535 57.6345 32.6319 57.9703 32.7035 58.3355C32.7752 58.7007 32.7369 59.079 32.5936 59.4225C32.4503 59.766 32.2083 60.0593 31.8983 60.2652C31.5883 60.4712 31.2242 60.5806 30.852 60.5797C30.6047 60.5797 30.3599 60.5308 30.1315 60.4359C29.9032 60.3409 29.6958 60.2018 29.5214 60.0265C29.347 59.8511 29.2089 59.6431 29.1152 59.4142C29.0214 59.1854 28.9738 58.9403 28.9751 58.693Z" fill="#FFFDF7"/>
<path d="M30.8518 60.8681C30.4214 60.8691 30.0004 60.7423 29.6421 60.5039C29.2838 60.2655 29.0042 59.9261 28.8389 59.5288C28.6735 59.1314 28.6297 58.6939 28.7131 58.2717C28.7964 57.8494 29.0032 57.4614 29.3072 57.1567C29.6112 56.8521 29.9988 56.6444 30.4208 56.5601C30.8429 56.4758 31.2805 56.5186 31.6782 56.683C32.0759 56.8475 32.4159 57.1263 32.6551 57.4841C32.8943 57.8419 33.022 58.2626 33.022 58.693C33.022 59.269 32.7936 59.8215 32.3867 60.2293C31.9799 60.6371 31.4279 60.8668 30.8518 60.8681ZM30.8518 57.0996C30.5353 57.0986 30.2256 57.1917 29.962 57.3669C29.6984 57.5422 29.4928 57.7917 29.3712 58.084C29.2497 58.3763 29.2176 58.698 29.2791 59.0085C29.3406 59.319 29.493 59.6043 29.7168 59.8281C29.9406 60.0519 30.2258 60.2042 30.5363 60.2657C30.8468 60.3273 31.1686 60.2952 31.4609 60.1736C31.7531 60.052 32.0027 59.8464 32.1779 59.5828C32.3532 59.3192 32.4462 59.0096 32.4453 58.693C32.444 58.2708 32.2757 57.8663 31.9771 57.5677C31.6786 57.2692 31.2741 57.1009 30.8518 57.0996Z" fill="black"/>
<path d="M37.3623 58.693C37.3633 58.321 37.4745 57.9576 37.6818 57.6488C37.8892 57.34 38.1834 57.0996 38.5274 56.9579C38.8713 56.8162 39.2495 56.7796 39.6142 56.8528C39.9789 56.926 40.3138 57.1056 40.5765 57.3689C40.8392 57.6323 41.0179 57.9676 41.0901 58.3325C41.1623 58.6974 41.1248 59.0755 40.9822 59.4191C40.8396 59.7627 40.5984 60.0563 40.2891 60.2629C39.9797 60.4694 39.6161 60.5797 39.2441 60.5797C38.9966 60.5797 38.7515 60.5308 38.5229 60.436C38.2942 60.3411 38.0866 60.202 37.9117 60.0268C37.7369 59.8515 37.5984 59.6435 37.5041 59.4146C37.4099 59.1857 37.3617 58.9405 37.3623 58.693Z" fill="#FFFDF7"/>
<path d="M39.2444 60.8681C38.8138 60.87 38.3923 60.7441 38.0334 60.5063C37.6744 60.2685 37.3941 59.9294 37.228 59.5322C37.0618 59.1349 37.0174 58.6973 37.1002 58.2747C37.183 57.8521 37.3894 57.4636 37.6932 57.1585C37.997 56.8533 38.3845 56.6452 38.8067 56.5605C39.2289 56.4757 39.6667 56.5182 40.0647 56.6826C40.4628 56.8469 40.803 57.1257 41.0425 57.4836C41.2819 57.8415 41.4097 58.2624 41.4097 58.693C41.4104 58.978 41.3549 59.2603 41.2464 59.5239C41.1379 59.7874 40.9786 60.027 40.7776 60.229C40.5765 60.431 40.3376 60.5914 40.0746 60.701C39.8115 60.8107 39.5294 60.8674 39.2444 60.8681ZM39.2444 57.0996C38.9279 57.0986 38.6182 57.1916 38.3546 57.3669C38.091 57.5422 37.8854 57.7917 37.7638 58.084C37.6422 58.3762 37.6102 58.698 37.6717 59.0085C37.7332 59.319 37.8855 59.6042 38.1094 59.8281C38.3332 60.0519 38.6184 60.2042 38.9289 60.2657C39.2394 60.3272 39.5612 60.2952 39.8535 60.1736C40.1457 60.052 40.3953 59.8464 40.5705 59.5828C40.7458 59.3192 40.8388 59.0095 40.8379 58.693C40.8379 58.4838 40.7966 58.2765 40.7166 58.0832C40.6365 57.8899 40.5191 57.7142 40.3712 57.5663C40.2232 57.4183 40.0475 57.3009 39.8542 57.2209C39.6609 57.1408 39.4537 57.0996 39.2444 57.0996Z" fill="black"/>
<path d="M45.7549 58.693C45.7559 58.321 45.867 57.9576 46.0744 57.6488C46.2818 57.34 46.576 57.0996 46.9199 56.9579C47.2639 56.8162 47.6421 56.7796 48.0068 56.8528C48.3715 56.926 48.7064 57.1056 48.9691 57.3689C49.2317 57.6323 49.4105 57.9676 49.4827 58.3325C49.5549 58.6974 49.5174 59.0755 49.3748 59.4191C49.2322 59.7627 48.991 60.0563 48.6817 60.2629C48.3723 60.4694 48.0087 60.5797 47.6367 60.5797C47.3892 60.5797 47.1441 60.5308 46.9154 60.436C46.6868 60.3411 46.4791 60.202 46.3043 60.0268C46.1295 59.8515 45.991 59.6435 45.8967 59.4146C45.8024 59.1857 45.7542 58.9405 45.7549 58.693Z" fill="#FFFDF7"/>
<path d="M47.6365 60.8681C47.2059 60.87 46.7844 60.7441 46.4255 60.5063C46.0665 60.2685 45.7862 59.9294 45.62 59.5322C45.4539 59.1349 45.4095 58.6973 45.4923 58.2747C45.5751 57.8521 45.7815 57.4636 46.0853 57.1585C46.3891 56.8533 46.7766 56.6452 47.1988 56.5605C47.621 56.4757 48.0588 56.5182 48.4568 56.6826C48.8549 56.8469 49.1951 57.1257 49.4346 57.4836C49.674 57.8415 49.8018 58.2624 49.8018 58.693C49.8018 59.2682 49.574 59.8199 49.1682 60.2276C48.7624 60.6352 48.2117 60.8655 47.6365 60.8681ZM47.6365 57.0996C47.32 57.0986 47.0103 57.1916 46.7467 57.3669C46.4831 57.5422 46.2775 57.7917 46.1559 58.084C46.0343 58.3762 46.0023 58.698 46.0638 59.0085C46.1253 59.319 46.2776 59.6042 46.5015 59.8281C46.7253 60.0519 47.0105 60.2042 47.321 60.2657C47.6315 60.3272 47.9533 60.2952 48.2455 60.1736C48.5378 60.052 48.7874 59.8464 48.9626 59.5828C49.1379 59.3192 49.2309 59.0095 49.2299 58.693C49.2299 58.4838 49.1887 58.2765 49.1087 58.0832C49.0286 57.8899 48.9112 57.7142 48.7632 57.5663C48.6153 57.4183 48.4396 57.3009 48.2463 57.2209C48.053 57.1408 47.8458 57.0996 47.6365 57.0996Z" fill="black"/>
<path d="M54.1475 58.693C54.1484 58.321 54.2596 57.9576 54.467 57.6488C54.6743 57.34 54.9686 57.0996 55.3125 56.9579C55.6565 56.8162 56.0347 56.7796 56.3994 56.8528C56.7641 56.926 57.099 57.1056 57.3616 57.3689C57.6243 57.6323 57.8031 57.9676 57.8753 58.3325C57.9475 58.6974 57.9099 59.0755 57.7674 59.4191C57.6248 59.7627 57.3836 60.0563 57.0743 60.2629C56.7649 60.4694 56.4013 60.5797 56.0293 60.5797C55.7817 60.5797 55.5366 60.5308 55.308 60.436C55.0794 60.3411 54.8717 60.202 54.6969 60.0268C54.5221 59.8515 54.3836 59.6435 54.2893 59.4146C54.195 59.1857 54.1468 58.9405 54.1475 58.693Z" fill="#FFFDF7"/>
<path d="M56.0291 60.8681C55.5985 60.87 55.177 60.7441 54.818 60.5063C54.4591 60.2685 54.1788 59.9294 54.0126 59.5322C53.8465 59.1349 53.802 58.6973 53.8848 58.2747C53.9677 57.8521 54.1741 57.4636 54.4778 57.1585C54.7816 56.8533 55.1692 56.6452 55.5914 56.5605C56.0136 56.4757 56.4514 56.5182 56.8494 56.6826C57.2474 56.8469 57.5877 57.1257 57.8271 57.4836C58.0666 57.8415 58.1944 58.2624 58.1944 58.693C58.1944 59.2682 57.9666 59.8199 57.5608 60.2276C57.155 60.6352 56.6043 60.8655 56.0291 60.8681ZM56.0291 57.0996C55.7126 57.0986 55.4029 57.1916 55.1393 57.3669C54.8757 57.5422 54.6701 57.7917 54.5485 58.084C54.4269 58.3762 54.3949 58.698 54.4564 59.0085C54.5179 59.319 54.6702 59.6042 54.894 59.8281C55.1179 60.0519 55.4031 60.2042 55.7136 60.2657C56.0241 60.3272 56.3459 60.2952 56.6381 60.1736C56.9304 60.052 57.1799 59.8464 57.3552 59.5828C57.5305 59.3192 57.6235 59.0095 57.6225 58.693C57.6225 58.2704 57.4546 57.8651 57.1558 57.5663C56.857 57.2675 56.4517 57.0996 56.0291 57.0996Z" fill="black"/>
<path d="M62.564 58.693C62.565 58.3208 62.6763 57.9572 62.8839 57.6483C63.0914 57.3394 63.386 57.099 63.7302 56.9574C64.0744 56.8159 64.4529 56.7796 64.8177 56.8532C65.1826 56.9267 65.5174 57.1068 65.7799 57.3707C66.0424 57.6345 66.2207 57.9703 66.2924 58.3355C66.3641 58.7007 66.3258 59.079 66.1825 59.4225C66.0392 59.766 65.7972 60.0593 65.4872 60.2652C65.1772 60.4712 64.8131 60.5806 64.4409 60.5797C64.1936 60.5797 63.9487 60.5308 63.7204 60.4359C63.492 60.3409 63.2847 60.2018 63.1103 60.0265C62.9358 59.8511 62.7978 59.6431 62.704 59.4142C62.6103 59.1854 62.5627 58.9403 62.564 58.693Z" fill="#FFFDF7"/>
<path d="M64.4168 60.8681C63.9864 60.8691 63.5654 60.7423 63.207 60.5039C62.8487 60.2655 62.5692 59.9261 62.4038 59.5288C62.2384 59.1314 62.1946 58.6939 62.278 58.2717C62.3614 57.8494 62.5682 57.4614 62.8722 57.1567C63.1761 56.8521 63.5637 56.6444 63.9858 56.5601C64.4078 56.4758 64.8454 56.5186 65.2431 56.683C65.6409 56.8475 65.9809 57.1263 66.2201 57.4841C66.4593 57.8419 66.587 58.2626 66.587 58.693C66.587 59.269 66.3585 59.8215 65.9516 60.2293C65.5448 60.6371 64.9928 60.8668 64.4168 60.8681ZM64.4168 57.0996C64.1003 57.0986 63.7906 57.1917 63.527 57.3669C63.2634 57.5422 63.0578 57.7917 62.9362 58.084C62.8146 58.3763 62.7825 58.698 62.8441 59.0085C62.9056 59.319 63.0579 59.6043 63.2817 59.8281C63.5055 60.0519 63.7908 60.2042 64.1013 60.2657C64.4118 60.3273 64.7336 60.2952 65.0258 60.1736C65.3181 60.052 65.5676 59.8464 65.7429 59.5828C65.9181 59.3192 66.0112 59.0096 66.0102 58.693C66.0102 58.2704 65.8423 57.8651 65.5435 57.5663C65.2447 57.2675 64.8394 57.0996 64.4168 57.0996Z" fill="black"/>
<path d="M72.8091 60.5748C73.8484 60.5748 74.6909 59.7323 74.6909 58.693C74.6909 57.6537 73.8484 56.8112 72.8091 56.8112C71.7698 56.8112 70.9272 57.6537 70.9272 58.693C70.9272 59.7323 71.7698 60.5748 72.8091 60.5748Z" fill="#FFFDF7"/>
<path d="M72.8284 60.8681C72.398 60.8691 71.977 60.7423 71.6187 60.5039C71.2603 60.2655 70.9808 59.9261 70.8154 59.5288C70.65 59.1314 70.6063 58.6939 70.6896 58.2717C70.773 57.8494 70.9798 57.4614 71.2838 57.1567C71.5878 56.8521 71.9753 56.6444 72.3974 56.5601C72.8194 56.4758 73.257 56.5186 73.6548 56.683C74.0525 56.8475 74.3925 57.1263 74.6317 57.4841C74.8709 57.8419 74.9986 58.2626 74.9986 58.693C74.9986 59.269 74.7701 59.8215 74.3633 60.2293C73.9564 60.6371 73.4044 60.8668 72.8284 60.8681ZM72.8284 57.0996C72.5119 57.0986 72.2022 57.1917 71.9386 57.3669C71.675 57.5422 71.4694 57.7917 71.3478 58.084C71.2262 58.3763 71.1942 58.698 71.2557 59.0085C71.3172 59.319 71.4695 59.6043 71.6934 59.8281C71.9172 60.0519 72.2024 60.2042 72.5129 60.2657C72.8234 60.3273 73.1452 60.2952 73.4374 60.1736C73.7297 60.052 73.9793 59.8464 74.1545 59.5828C74.3298 59.3192 74.4228 59.0096 74.4218 58.693C74.4206 58.2708 74.2523 57.8663 73.9537 57.5677C73.6552 57.2692 73.2506 57.1009 72.8284 57.0996Z" fill="black"/>
<path d="M182.453 161.865H96.4954C92.6433 161.865 89.5205 164.988 89.5205 168.84V208.598C89.5205 212.45 92.6433 215.573 96.4954 215.573H182.453C186.305 215.573 189.428 212.45 189.428 208.598V168.84C189.428 164.988 186.305 161.865 182.453 161.865Z" fill="#FFFDF7"/>
<path d="M182.462 215.905H96.4904C94.5518 215.896 92.6958 215.12 91.3282 213.746C89.9606 212.372 89.1928 210.512 89.1929 208.573V168.85C89.1928 166.911 89.9606 165.052 91.3282 163.678C92.6958 162.304 94.5518 161.527 96.4904 161.518H182.462C184.401 161.527 186.257 162.304 187.625 163.678C188.992 165.052 189.76 166.911 189.76 168.85V208.593C189.755 210.528 188.985 212.383 187.618 213.752C186.251 215.122 184.398 215.896 182.462 215.905ZM96.4904 162.198C94.7286 162.201 93.0403 162.904 91.796 164.151C90.5516 165.398 89.8527 167.088 89.8527 168.85V208.593C89.8527 210.355 90.5516 212.044 91.796 213.292C93.0403 214.539 94.7286 215.241 96.4904 215.245H182.462C184.223 215.24 185.91 214.537 187.154 213.29C188.397 212.043 189.095 210.354 189.095 208.593V168.85C189.096 167.089 188.399 165.399 187.155 164.151C185.911 162.904 184.224 162.201 182.462 162.198H96.4904Z" fill="black"/>
<path d="M28.188 160.355L38.1934 169.656L46.141 161.073L36.1356 151.767L28.188 160.355Z" fill="#F4C7A8"/>
<path d="M41.923 169.363L42.5828 168.63C42.9289 168.256 43.1124 167.759 43.0932 167.25C43.0739 166.74 42.8535 166.259 42.4802 165.912L41.9914 165.477C41.7328 165.239 41.4135 165.076 41.0687 165.007C40.7238 164.938 40.3666 164.966 40.0363 165.086L38.1593 165.78C37.8284 165.9 37.4711 165.926 37.1263 165.856C36.7816 165.786 36.4626 165.623 36.2042 165.384L32.162 161.626C31.9375 161.418 31.7658 161.16 31.6613 160.872C31.5567 160.585 31.5222 160.277 31.5608 159.974L32.2206 154.763C32.2585 154.461 32.2243 154.154 32.1206 153.868C32.0169 153.581 31.8469 153.324 31.6243 153.116C31.204 152.793 30.6877 152.621 30.158 152.627C23.5105 152.011 16.5845 151.087 10.069 149.958C9.01323 149.778 7.96723 149.572 7.02388 150.085L3.25537 152.133L32.5188 179.339L41.923 169.363Z" fill="#E95440"/>
<path d="M29.0188 182.873C28.6229 182.874 28.2417 182.724 27.9532 182.453L0.48854 156.929C0.185597 156.645 0.00690415 156.253 -0.00865736 155.839C-0.0242189 155.424 0.124611 155.02 0.405447 154.714L3.00577 151.909C3.03471 151.875 3.07027 151.847 3.11032 151.826C3.15036 151.806 3.19406 151.794 3.23878 151.792C3.2835 151.789 3.32833 151.795 3.37057 151.81C3.4128 151.825 3.45158 151.848 3.48456 151.879C3.51753 151.909 3.54404 151.946 3.56247 151.987C3.5809 152.028 3.59089 152.072 3.59182 152.116C3.59276 152.161 3.58462 152.206 3.5679 152.247C3.55119 152.289 3.52624 152.327 3.49455 152.358L0.89423 155.164C0.731625 155.341 0.645502 155.574 0.654659 155.814C0.663817 156.054 0.767511 156.281 0.943108 156.445L28.398 181.969C28.5747 182.131 28.8085 182.218 29.0484 182.208C29.2883 182.199 29.5149 182.096 29.6786 181.92L32.2594 179.114C32.32 179.054 32.4018 179.019 32.4875 179.017C32.5732 179.015 32.6564 179.047 32.7195 179.105C32.7826 179.163 32.8208 179.243 32.8262 179.329C32.8315 179.414 32.8036 179.499 32.7482 179.564L30.1527 182.37C30.0081 182.526 29.8328 182.652 29.6378 182.739C29.4428 182.825 29.2321 182.871 29.0188 182.873Z" fill="black"/>
<path d="M26.717 174.192L26.5605 173.552L33.8141 171.729C34.439 171.571 35.0934 171.573 35.7176 171.733C36.3418 171.894 36.9157 172.208 37.3871 172.648L38.1887 173.396L37.7439 173.884L36.9374 173.141C36.5467 172.777 36.0709 172.516 35.5535 172.383C35.0361 172.25 34.4935 172.248 33.9754 172.379L26.717 174.192Z" fill="black"/>
<path d="M24.8154 158.18C24.7039 158.18 24.5927 158.17 24.483 158.15L15.1961 156.567C14.6864 156.477 14.2329 156.189 13.9351 155.766C13.6374 155.343 13.5196 154.819 13.6076 154.309L14.2479 150.628L14.898 150.74L14.2577 154.421C14.2261 154.589 14.2284 154.761 14.2644 154.928C14.3003 155.095 14.3693 155.253 14.4672 155.393C14.5651 155.532 14.69 155.651 14.8345 155.742C14.979 155.833 15.1401 155.894 15.3086 155.922L24.5954 157.51C24.768 157.539 24.9447 157.533 25.1148 157.491C25.2848 157.45 25.4447 157.374 25.5846 157.269C25.7245 157.164 25.8415 157.031 25.9286 156.88C26.0157 156.728 26.071 156.56 26.0911 156.386L26.5799 152.217L27.2397 152.295L26.751 156.464C26.695 156.937 26.4686 157.373 26.114 157.691C25.7594 158.008 25.3012 158.186 24.8251 158.19L24.8154 158.18Z" fill="black"/>
<path d="M23.7644 152.011L23.041 157.349L23.7644 152.011Z" fill="#E95440"/>
<path d="M23.0411 157.662H22.9971C22.9105 157.65 22.8322 157.604 22.7791 157.534C22.726 157.465 22.7025 157.377 22.7136 157.29L23.4615 151.948C23.4759 151.861 23.5231 151.784 23.5931 151.731C23.6631 151.678 23.7507 151.654 23.8378 151.664C23.9245 151.678 24.0025 151.725 24.0547 151.795C24.1069 151.866 24.1291 151.954 24.1164 152.041L23.3686 157.388C23.354 157.464 23.3134 157.533 23.2537 157.583C23.194 157.633 23.1189 157.661 23.0411 157.662Z" fill="black"/>
<path d="M20.7683 151.586L20.04 156.924L20.7683 151.586Z" fill="#E95440"/>
<path d="M20.0401 157.256H19.9912C19.9482 157.251 19.9067 157.237 19.8692 157.215C19.8317 157.193 19.799 157.164 19.773 157.129C19.747 157.095 19.7283 157.055 19.7179 157.013C19.7075 156.971 19.7057 156.927 19.7126 156.884L20.4409 151.523C20.4463 151.479 20.4602 151.438 20.4819 151.4C20.5036 151.362 20.5326 151.329 20.5672 151.303C20.6018 151.276 20.6412 151.257 20.6833 151.246C20.7254 151.235 20.7693 151.233 20.8124 151.239C20.899 151.251 20.9773 151.297 21.0304 151.367C21.0835 151.436 21.107 151.524 21.0959 151.611L20.3725 156.948C20.3652 157.031 20.3271 157.109 20.2657 157.166C20.2043 157.223 20.1238 157.255 20.0401 157.256Z" fill="black"/>
<path d="M17.8113 151.073L17.1074 156.41L17.8113 151.073Z" fill="#E95440"/>
<path d="M17.1075 156.738H17.0635C16.9769 156.726 16.8986 156.68 16.8455 156.61C16.7924 156.541 16.7689 156.453 16.7801 156.366L17.4839 151.034C17.5035 150.954 17.5518 150.885 17.6196 150.839C17.6873 150.793 17.7696 150.773 17.8508 150.784C17.9321 150.795 18.0064 150.835 18.0595 150.898C18.1127 150.96 18.1409 151.04 18.1389 151.122L17.4106 156.454C17.3989 156.529 17.3627 156.597 17.3078 156.648C17.2529 156.7 17.1824 156.731 17.1075 156.738Z" fill="black"/>
<path d="M53.0967 199.55H66.7435L69.1434 187.839H55.4966L53.0967 199.55Z" fill="#F4C7A8"/>
<path d="M70.6338 196.794V195.816C70.6338 195.307 70.4321 194.82 70.0729 194.459C69.7137 194.099 69.2264 193.896 68.7178 193.895H68.0775C67.723 193.895 67.3755 193.993 67.0734 194.179C66.7714 194.364 66.5268 194.63 66.3667 194.946L65.4625 196.735C65.3024 197.051 65.0578 197.317 64.7558 197.502C64.4538 197.688 64.1062 197.786 63.7518 197.786H58.2334C57.932 197.782 57.6358 197.707 57.369 197.567C57.1022 197.427 56.8725 197.225 56.6986 196.979L53.6437 192.712C53.4664 192.464 53.2324 192.262 52.9612 192.123C52.69 191.983 52.3894 191.911 52.0845 191.911C51.5596 191.953 51.064 192.17 50.6768 192.527C45.3833 196.613 39.6743 200.655 34.1315 204.257C33.2371 204.844 32.3279 205.411 31.9858 206.423L30.6123 210.494H70.5312L70.6338 196.794Z" fill="#E95440"/>
<path d="M69.2802 215.91H31.8297C31.4145 215.909 31.0166 215.743 30.7234 215.449C30.4303 215.154 30.2656 214.756 30.2656 214.341V210.514C30.2755 210.433 30.3144 210.359 30.3752 210.305C30.436 210.251 30.5144 210.222 30.5956 210.222C30.6767 210.222 30.7551 210.251 30.8159 210.305C30.8767 210.359 30.9157 210.433 30.9255 210.514V214.341C30.9248 214.46 30.9478 214.578 30.9929 214.688C31.0381 214.799 31.1046 214.899 31.1886 214.983C31.2726 215.068 31.3725 215.135 31.4826 215.181C31.5926 215.226 31.7106 215.25 31.8297 215.25H69.2802C69.3994 215.25 69.5174 215.226 69.6274 215.181C69.7374 215.135 69.8373 215.068 69.9214 214.983C70.0054 214.899 70.0719 214.799 70.1171 214.688C70.1622 214.578 70.1851 214.46 70.1845 214.341V210.514C70.1943 210.433 70.2333 210.359 70.2941 210.305C70.3549 210.251 70.4332 210.222 70.5144 210.222C70.5956 210.222 70.674 210.251 70.7348 210.305C70.7955 210.359 70.8345 210.433 70.8443 210.514V214.341C70.8443 214.756 70.6797 215.154 70.3865 215.449C70.0933 215.743 69.6955 215.909 69.2802 215.91Z" fill="black"/>
<path d="M62.7647 210.695L62.2124 210.333L66.2986 204.057C66.6476 203.515 67.1273 203.069 67.6936 202.761C68.2598 202.452 68.8945 202.291 69.5393 202.292H70.6341V202.957H69.5393C69.0041 202.956 68.4773 203.09 68.0074 203.346C67.5376 203.603 67.1399 203.973 66.851 204.423L62.7647 210.695Z" fill="black"/>
<path d="M41.2972 205.944C41.1594 205.945 41.0217 205.932 40.8866 205.904C40.6358 205.852 40.3981 205.749 40.1875 205.603C39.9768 205.457 39.7974 205.27 39.6598 205.054L37.6362 201.921L38.1886 201.559L40.217 204.697C40.4039 204.983 40.6967 205.184 41.0312 205.254C41.3657 205.325 41.7145 205.26 42.0011 205.074L49.8802 199.912C50.0259 199.815 50.1503 199.69 50.2461 199.544C50.3419 199.398 50.407 199.234 50.4374 199.062C50.468 198.892 50.4638 198.718 50.4251 198.55C50.3865 198.382 50.3142 198.223 50.2126 198.084L47.7345 194.697L48.2672 194.306L50.7454 197.693C50.9014 197.906 51.0128 198.148 51.0728 198.405C51.1329 198.662 51.1403 198.928 51.0946 199.188C51.0489 199.448 50.9511 199.696 50.8071 199.917C50.6631 200.138 50.4758 200.327 50.2566 200.474L42.3579 205.626C42.0423 205.832 41.674 205.942 41.2972 205.944Z" fill="black"/>
<path d="M45.5352 196.432L48.6243 200.831L45.5352 196.432Z" fill="#E95440"/>
<path d="M48.6241 201.173C48.5712 201.173 48.5191 201.16 48.4723 201.135C48.4254 201.111 48.3853 201.075 48.3553 201.031L45.2662 196.632C45.2164 196.561 45.1966 196.472 45.2113 196.386C45.2259 196.301 45.2737 196.224 45.3444 196.173C45.3809 196.144 45.4231 196.123 45.4681 196.112C45.513 196.1 45.56 196.098 45.6059 196.105C45.6518 196.112 45.6956 196.129 45.7348 196.154C45.7739 196.179 45.8074 196.212 45.8332 196.251L48.9223 200.65C48.9473 200.686 48.9651 200.726 48.9745 200.768C48.9839 200.811 48.9847 200.854 48.977 200.897C48.9692 200.94 48.9531 200.981 48.9294 201.017C48.9058 201.054 48.8751 201.085 48.8392 201.109C48.778 201.157 48.7012 201.18 48.6241 201.173Z" fill="black"/>
<path d="M43.0615 198.177L46.1506 202.576L43.0615 198.177Z" fill="#E95440"/>
<path d="M46.151 202.918C46.098 202.918 46.0459 202.905 45.9991 202.88C45.9523 202.856 45.9122 202.82 45.8821 202.776L42.793 198.377C42.7432 198.306 42.7235 198.217 42.7381 198.131C42.7527 198.046 42.8006 197.969 42.8712 197.918C42.9078 197.889 42.9499 197.868 42.9949 197.857C43.0399 197.845 43.0868 197.843 43.1327 197.85C43.1786 197.857 43.2225 197.874 43.2616 197.899C43.3007 197.924 43.3342 197.957 43.36 197.996L46.4442 202.395C46.4697 202.431 46.4878 202.471 46.4977 202.513C46.5075 202.556 46.5088 202.6 46.5015 202.643C46.4943 202.687 46.4786 202.728 46.4553 202.765C46.4321 202.802 46.4017 202.834 46.366 202.859C46.3031 202.903 46.2272 202.923 46.151 202.918Z" fill="black"/>
<path d="M40.5688 199.819L43.658 204.218L40.5688 199.819Z" fill="#E95440"/>
<path d="M43.6335 204.555C43.5798 204.556 43.5267 204.544 43.4789 204.519C43.4312 204.494 43.3903 204.458 43.3598 204.414L40.2756 200.015C40.2505 199.979 40.2327 199.939 40.2231 199.897C40.2135 199.855 40.2123 199.811 40.2195 199.769C40.2268 199.726 40.2424 199.685 40.2654 199.649C40.2884 199.612 40.3185 199.58 40.3538 199.555C40.3891 199.53 40.429 199.512 40.4712 199.503C40.5134 199.493 40.557 199.492 40.5997 199.499C40.6424 199.506 40.6832 199.522 40.7198 199.545C40.7565 199.568 40.7882 199.598 40.8132 199.633L43.9023 204.032C43.9517 204.105 43.9706 204.193 43.9551 204.279C43.9395 204.365 43.8907 204.442 43.8192 204.492C43.7654 204.532 43.7005 204.554 43.6335 204.555Z" fill="black"/>
<path d="M104.824 120.109L101.892 129.058L79.002 117.362C76.0437 115.716 72.6212 115.102 69.2754 115.618C65.9295 116.134 62.851 117.75 60.526 120.211L31.8394 150.545C31.7404 150.649 31.6634 150.773 31.6131 150.907C31.5627 151.042 31.5401 151.186 31.5465 151.329C31.5529 151.473 31.5881 151.614 31.6502 151.744C31.7123 151.874 31.7999 151.99 31.9078 152.085L46.6544 165.13C46.7618 165.226 46.8875 165.299 47.0238 165.345C47.1602 165.391 47.3045 165.408 47.4479 165.397C47.5913 165.386 47.7309 165.345 47.8583 165.278C47.9857 165.212 48.0982 165.12 48.1892 165.008L58.1017 152.94L50.6673 189.569C50.6357 189.724 50.6385 189.883 50.6754 190.036C50.7123 190.19 50.7824 190.333 50.8808 190.456C50.9792 190.579 51.1035 190.679 51.2448 190.749C51.3861 190.819 51.541 190.857 51.6986 190.86L71.8462 191.168C72.0942 191.171 72.3355 191.088 72.5289 190.932C72.7224 190.777 72.856 190.56 72.9069 190.317L79.0216 161.611H118.124C120.655 161.608 123.126 160.845 125.217 159.421C127.309 157.997 128.925 155.978 129.855 153.624L136.346 132.387L104.824 120.109Z" fill="black"/>
<path d="M142.099 123.462L158.766 155.164L151.469 161.865H162.109C162.109 161.865 163.649 172.193 164.167 175.36C164.685 178.528 168.405 178.704 168.405 175.849C168.405 177.408 169.71 178.718 170.849 178.367C171.743 178.088 172.535 176.797 172.535 173.816C172.442 175.927 176.675 175.502 176.25 171.787C176.528 173.4 179.486 173.396 179.554 170.204C179.593 168.386 179.52 165.639 179.466 163.85C179.427 162.685 179.039 161.559 178.352 160.619L173.356 153.776L157.916 116.785L142.099 123.462Z" fill="#F4C7A8"/>
<path d="M170.639 178.376C169.984 178.381 169.351 178.14 168.865 177.702C168.695 177.546 168.548 177.367 168.43 177.169C168.268 177.459 168.036 177.705 167.755 177.883C167.474 178.061 167.153 178.167 166.822 178.191C165.58 178.293 164.163 177.369 163.84 175.414C163.381 172.574 162.08 163.879 161.826 162.217H151.469C151.402 162.218 151.337 162.198 151.282 162.16C151.227 162.123 151.185 162.069 151.161 162.007C151.138 161.944 151.133 161.876 151.148 161.811C151.163 161.746 151.196 161.687 151.244 161.64L158.366 155.091L147.559 134.532C147.518 134.455 147.509 134.365 147.535 134.282C147.561 134.198 147.618 134.129 147.696 134.088C147.773 134.047 147.863 134.038 147.946 134.064C148.03 134.09 148.1 134.147 148.14 134.225L159.07 155.008C159.103 155.073 159.115 155.147 159.103 155.219C159.09 155.292 159.055 155.358 159.001 155.408L152.329 161.538H162.105C162.184 161.537 162.261 161.565 162.321 161.616C162.381 161.667 162.421 161.738 162.432 161.816C162.432 161.919 163.977 172.179 164.49 175.307C164.744 176.866 165.805 177.614 166.763 177.531C167.398 177.482 168.073 177.008 168.073 175.839C168.073 175.796 168.082 175.753 168.098 175.712C168.115 175.672 168.139 175.635 168.17 175.604C168.201 175.574 168.238 175.549 168.278 175.532C168.318 175.516 168.362 175.507 168.405 175.507C168.493 175.508 168.576 175.544 168.637 175.606C168.698 175.668 168.733 175.752 168.733 175.839C168.726 176.096 168.773 176.351 168.871 176.588C168.97 176.824 169.118 177.037 169.305 177.213C169.51 177.393 169.75 177.528 170.01 177.612C170.269 177.696 170.543 177.727 170.815 177.702C170.985 177.692 171.152 177.647 171.304 177.569C171.456 177.492 171.591 177.384 171.7 177.252C172.188 176.666 172.36 175.483 172.188 173.831C172.184 173.788 172.188 173.744 172.2 173.702C172.212 173.661 172.232 173.622 172.26 173.589C172.287 173.555 172.321 173.527 172.359 173.506C172.397 173.486 172.439 173.473 172.482 173.469C172.569 173.463 172.654 173.491 172.722 173.546C172.789 173.602 172.832 173.681 172.843 173.767C172.85 173.99 172.915 174.206 173.034 174.395C173.153 174.583 173.32 174.736 173.518 174.837C173.758 174.925 174.018 174.948 174.27 174.904C174.522 174.86 174.758 174.752 174.955 174.588C175.698 174.041 176.04 173.029 175.903 171.812C175.895 171.727 175.919 171.642 175.97 171.574C176.022 171.506 176.098 171.46 176.182 171.445C176.267 171.434 176.354 171.456 176.423 171.507C176.492 171.558 176.539 171.634 176.553 171.719C176.602 171.966 176.744 172.184 176.95 172.329C177.156 172.474 177.409 172.534 177.658 172.496C178.352 172.447 179.168 171.807 179.203 170.184C179.242 168.298 179.163 165.399 179.115 163.83C179.082 162.733 178.717 161.671 178.069 160.785L173.068 153.942C173.054 153.921 173.043 153.898 173.034 153.874L162.96 129.747C162.936 129.668 162.942 129.583 162.977 129.508C163.012 129.433 163.074 129.374 163.15 129.343C163.227 129.311 163.312 129.309 163.39 129.336C163.468 129.364 163.532 129.42 163.571 129.493L173.626 153.585L178.601 160.428C179.329 161.424 179.738 162.617 179.774 163.85C179.828 165.419 179.906 168.332 179.867 170.233C179.828 172.135 178.753 173.112 177.707 173.166C177.303 173.205 176.898 173.101 176.563 172.873C176.527 173.313 176.401 173.741 176.191 174.129C175.982 174.518 175.694 174.859 175.346 175.131C175.055 175.362 174.71 175.513 174.343 175.569C173.976 175.626 173.601 175.586 173.254 175.453C173.129 175.397 173.011 175.326 172.902 175.243C172.935 176.113 172.687 176.97 172.193 177.687C172.029 177.886 171.826 178.049 171.597 178.166C171.367 178.284 171.116 178.354 170.859 178.371L170.639 178.376Z" fill="black"/>
<path d="M99.8043 79.5641L69.0404 68.1901C69.0404 68.1901 62.3636 63.6004 61.3127 63.2681C60.2618 62.9357 58.4289 63.3951 58.38 64.3923C56.4249 63.141 54.4697 64.055 54.3036 65.1743C52.3924 64.2554 50.5106 65.6631 50.5302 66.9437C50.5302 66.9437 43.1495 62.6033 41.8249 61.7822C40.5003 60.961 37.5823 62.7597 39.1611 64.3923C41.4486 66.7433 51.322 74.2559 51.322 74.2559L48.4822 77.3597C48.4822 77.3597 47.0842 75.5512 45.4322 75.6538C44.8073 75.6842 44.1967 75.8511 43.6432 76.1426C43.5543 76.1896 43.4769 76.2557 43.4164 76.3361C43.3559 76.4165 43.3139 76.5092 43.2934 76.6077C43.2729 76.7062 43.2743 76.808 43.2976 76.9059C43.3209 77.0037 43.3655 77.0952 43.4282 77.1739C44.4057 78.4203 46.4782 80.5954 47.7979 81.9249C48.1531 82.2921 48.6085 82.5467 49.1074 82.657C49.6062 82.7674 50.1265 82.7287 50.6035 82.5456L57.3633 79.96L94.2175 95.6841L99.8043 79.5641Z" fill="#F4C7A8"/>
<path d="M64.0988 83.1712C64.057 83.1808 64.0135 83.1808 63.9717 83.1712L57.3585 80.3509L50.7208 82.8877C50.1838 83.0952 49.5975 83.1401 49.0351 83.0166C48.4728 82.8932 47.9592 82.607 47.5584 82.1936C46.092 80.6882 44.1369 78.6402 43.1593 77.4182C43.0677 77.3035 43.0023 77.1701 42.9677 77.0274C42.9331 76.8847 42.9301 76.7362 42.9589 76.5922C42.9845 76.4458 43.0415 76.3067 43.1258 76.1844C43.2102 76.0621 43.32 75.9594 43.4477 75.8835C44.0518 75.563 44.7197 75.3811 45.4029 75.3507C46.7959 75.2627 47.9739 76.3283 48.4773 76.8904L50.8332 74.2949C49.1616 73.0143 41.0136 66.7628 38.9363 64.6219C38.6122 64.3343 38.4154 63.9301 38.3888 63.4977C38.3623 63.0653 38.5081 62.6399 38.7945 62.3149C39.5033 61.4302 41.0283 60.8925 42.0107 61.4986C43.13 62.1927 48.707 65.4773 50.2858 66.3864C50.4815 65.8119 50.8724 65.3242 51.3904 65.0081C51.7894 64.7537 52.2411 64.5937 52.7112 64.5403C53.1813 64.487 53.6574 64.5416 54.1032 64.7001C54.3338 64.2445 54.7207 63.8871 55.1932 63.6932C55.6731 63.4929 56.1924 63.4046 56.7116 63.4351C57.2308 63.4656 57.7362 63.6141 58.1894 63.8692C58.3033 63.6482 58.4715 63.4599 58.6782 63.3218C59.0795 63.0701 59.5287 62.9046 59.9974 62.8356C60.466 62.7666 60.9439 62.7957 61.4007 62.921C62.4516 63.2582 68.3512 67.32 69.187 67.8674L81.7096 72.4962C81.7917 72.527 81.8583 72.5889 81.8949 72.6686C81.9315 72.7482 81.9352 72.8391 81.9051 72.9214C81.8904 72.9619 81.8678 72.9991 81.8387 73.0308C81.8096 73.0625 81.7745 73.0882 81.7355 73.1064C81.6965 73.1245 81.6542 73.1348 81.6112 73.1366C81.5682 73.1384 81.5252 73.1318 81.4848 73.117L68.9182 68.5028L68.8449 68.4637C66.1761 66.6308 61.9384 63.8154 61.2003 63.5759C60.8398 63.4831 60.4644 63.4629 60.096 63.5166C59.7276 63.5704 59.3736 63.6968 59.0546 63.8887C58.9611 63.9419 58.8813 64.0158 58.8211 64.1048C58.7609 64.1938 58.722 64.2955 58.7075 64.402C58.7048 64.4603 58.6872 64.517 58.6564 64.5666C58.6256 64.6162 58.5826 64.6571 58.5316 64.6855C58.4809 64.7142 58.4236 64.7292 58.3654 64.7292C58.3071 64.7292 58.2499 64.7142 58.1992 64.6855C57.8053 64.4059 57.3485 64.2279 56.8692 64.1674C56.39 64.1068 55.9033 64.1656 55.4522 64.3384C55.2529 64.4118 55.074 64.5316 54.9303 64.6881C54.7866 64.8445 54.6824 65.033 54.6262 65.2378C54.6194 65.2893 54.6004 65.3384 54.5706 65.3809C54.5408 65.4235 54.5012 65.4582 54.4551 65.4822C54.4087 65.505 54.3577 65.5169 54.306 65.5169C54.2543 65.5169 54.2033 65.505 54.157 65.4822C53.7778 65.2905 53.3553 65.201 52.931 65.2224C52.5067 65.2438 52.0954 65.3755 51.7375 65.6044C51.4927 65.7414 51.2848 65.9357 51.1316 66.1706C50.9783 66.4056 50.8844 66.6742 50.8577 66.9534C50.8598 67.0116 50.8459 67.0694 50.8175 67.1202C50.789 67.1711 50.7471 67.2131 50.6964 67.2418C50.6457 67.2705 50.5884 67.2856 50.5302 67.2856C50.4719 67.2856 50.4147 67.2705 50.364 67.2418C50.2858 67.1978 42.9638 62.8867 41.6539 62.0754C41.0478 61.7039 39.865 62.0411 39.3029 62.745C39.2111 62.843 39.1406 62.9588 39.0956 63.0852C39.0505 63.2116 39.032 63.346 39.0412 63.4799C39.0504 63.6138 39.087 63.7443 39.1489 63.8635C39.2107 63.9826 39.2964 64.0877 39.4006 64.1722C41.6343 66.4793 51.41 73.9234 51.5126 74.0016C51.5483 74.0293 51.578 74.0639 51.5998 74.1034C51.6217 74.1429 51.6352 74.1865 51.6397 74.2314C51.6436 74.2772 51.6383 74.3232 51.624 74.3669C51.6098 74.4106 51.5868 74.4509 51.5566 74.4855L48.7168 77.5942C48.6857 77.628 48.6479 77.6549 48.6058 77.6734C48.5638 77.6918 48.5183 77.7013 48.4724 77.7013C48.4265 77.7013 48.3811 77.6918 48.339 77.6734C48.2969 77.6549 48.2591 77.628 48.228 77.5942C48.228 77.5942 46.923 75.8835 45.4566 75.9861C44.8808 76.0143 44.3183 76.1696 43.8094 76.4407C43.7608 76.4663 43.7185 76.5024 43.6856 76.5464C43.6526 76.5903 43.6298 76.641 43.6188 76.6948C43.6086 76.7442 43.6095 76.7952 43.6213 76.8442C43.6331 76.8933 43.6556 76.939 43.6872 76.9783C44.699 78.2443 46.8497 80.4829 48.0374 81.7049C48.3478 82.0233 48.7446 82.2438 49.1789 82.3394C49.6132 82.4349 50.0659 82.4012 50.4813 82.2425L57.2461 79.6715C57.3261 79.6397 57.4153 79.6397 57.4953 79.6715L64.2308 82.5456C64.3108 82.581 64.3737 82.6465 64.4057 82.7279C64.4377 82.8094 64.4363 82.9002 64.4018 82.9806C64.3753 83.0383 64.3325 83.0871 64.2787 83.121C64.2248 83.1548 64.1623 83.1723 64.0988 83.1712Z" fill="black"/>
<path d="M140.344 120.24L136.341 132.382L104.824 120.108L109.976 101.906L94.2178 95.6938L99.8046 79.564L141.224 92.5118C142.906 93.0419 144.464 93.9037 145.808 95.0463C147.151 96.1889 148.252 97.5891 149.044 99.1641L157.901 116.76L142.084 123.471L140.344 120.24Z" fill="#E95440"/>
<path d="M136.585 91.1285C135.378 94.2225 129.953 98.7193 125.187 96.7007C120.421 94.682 119.634 90.7424 121.13 86.1821L123.496 85.5662C124.283 85.3598 125.002 84.9513 125.583 84.3811C126.163 83.811 126.584 83.099 126.805 82.3158L127.245 80.7566C127.245 80.7566 124.278 80.6246 124.434 76.3575C124.591 72.0905 126.428 66.1224 126.428 66.1224C128.731 67.5595 131.082 68.4393 133.501 68.449C132.524 70.8343 134.195 71.807 135.016 72.1247C134.528 73.9625 134.503 75.4191 136.673 76.2109C139.43 75.4289 140.285 77.1885 140.041 78.6548C139.845 79.8328 138.609 81.4116 136.258 80.2043L134.933 85.2289C134.64 86.3352 134.762 87.5104 135.275 88.5331L136.585 91.1285Z" fill="#F4C7A8"/>
<path d="M106.936 112.972C106.907 112.977 106.877 112.977 106.848 112.972C106.764 112.948 106.693 112.892 106.65 112.816C106.607 112.741 106.596 112.651 106.618 112.567L111.408 95.029C111.42 94.9873 111.44 94.9483 111.466 94.9142C111.493 94.88 111.526 94.8515 111.564 94.8302C111.601 94.8088 111.643 94.7951 111.686 94.7898C111.729 94.7845 111.772 94.7878 111.814 94.7993C111.856 94.8109 111.895 94.8305 111.929 94.8572C111.963 94.8838 111.992 94.9169 112.013 94.9546C112.034 94.9922 112.048 95.0338 112.053 95.0767C112.059 95.1197 112.055 95.1633 112.044 95.205L107.254 112.743C107.233 112.81 107.191 112.87 107.134 112.911C107.076 112.953 107.007 112.974 106.936 112.972Z" fill="black"/>
<path d="M142.099 123.794C142.041 123.794 141.984 123.779 141.934 123.75C141.885 123.72 141.844 123.678 141.815 123.628L134.19 110.201C134.148 110.125 134.137 110.035 134.16 109.951C134.182 109.867 134.237 109.795 134.313 109.751C134.35 109.729 134.391 109.714 134.435 109.708C134.478 109.702 134.522 109.705 134.564 109.716C134.606 109.728 134.645 109.748 134.679 109.775C134.713 109.802 134.742 109.835 134.762 109.873L142.241 123.071L157.457 116.609L150.154 102.742C150.122 102.665 150.119 102.579 150.147 102.501C150.175 102.422 150.232 102.357 150.306 102.318C150.38 102.279 150.465 102.27 150.546 102.291C150.626 102.313 150.696 102.364 150.741 102.434L158.204 116.609C158.224 116.651 158.234 116.697 158.234 116.743C158.234 116.79 158.224 116.836 158.204 116.878C158.19 116.921 158.166 116.96 158.135 116.993C158.103 117.025 158.066 117.051 158.024 117.068L142.236 123.77C142.192 123.785 142.146 123.793 142.099 123.794Z" fill="black"/>
<path d="M109.976 102.234C109.937 102.241 109.898 102.241 109.859 102.234L93.7974 95.8796L99.5992 79.1827L109.976 82.2474C110.055 82.2768 110.12 82.3352 110.158 82.4109C110.196 82.4865 110.203 82.5736 110.179 82.6545C110.155 82.7355 110.1 82.8041 110.027 82.8465C109.954 82.8889 109.868 82.9019 109.785 82.8828L100.039 79.9746L94.6625 95.4983L110.128 101.598C110.201 101.625 110.263 101.677 110.301 101.744C110.34 101.812 110.353 101.892 110.338 101.968C110.324 102.045 110.282 102.114 110.221 102.162C110.16 102.211 110.083 102.236 110.005 102.234H109.976Z" fill="black"/>
<path d="M62.9162 67.7257C62.8503 67.7269 62.7855 67.7082 62.7304 67.672L57.9941 64.5437C57.9317 64.4915 57.8905 64.4181 57.8786 64.3376C57.8666 64.257 57.8847 64.1748 57.9293 64.1067C57.9739 64.0386 58.042 63.9892 58.1206 63.9679C58.1993 63.9467 58.283 63.955 58.3558 63.9914L63.097 67.1196C63.1549 67.1595 63.1987 67.2166 63.222 67.2829C63.2454 67.3492 63.2472 67.4211 63.2271 67.4885C63.207 67.5558 63.1661 67.615 63.1102 67.6577C63.0544 67.7003 62.9864 67.7241 62.9162 67.7257Z" fill="black"/>
<path d="M59.5629 69.1041C59.4965 69.1035 59.4318 69.0831 59.3771 69.0454L54.1276 65.448C54.0642 65.3952 54.0226 65.3207 54.0111 65.239C53.9995 65.1573 54.0188 65.0742 54.0652 65.0059C54.1115 64.9376 54.1816 64.8889 54.2618 64.8695C54.342 64.85 54.4266 64.8611 54.4991 64.9006L59.7486 68.498C59.8209 68.5475 59.8706 68.6236 59.8871 68.7096C59.9036 68.7957 59.8854 68.8847 59.8366 68.9575C59.807 69.003 59.7664 69.0402 59.7185 69.0659C59.6707 69.0915 59.6172 69.1047 59.5629 69.1041Z" fill="black"/>
<path d="M55.0516 70.5704C54.9837 70.5699 54.9174 70.5495 54.861 70.5117L49.6114 66.7823C49.5759 66.7575 49.5457 66.7258 49.5225 66.6892C49.4993 66.6526 49.4836 66.6117 49.4763 66.5689C49.469 66.5262 49.4703 66.4824 49.4801 66.4402C49.4899 66.398 49.5079 66.3581 49.5332 66.3229C49.5835 66.2514 49.6599 66.2026 49.7459 66.1871C49.8319 66.1715 49.9206 66.1905 49.9927 66.2398L55.2324 69.9692C55.2889 70.0102 55.331 70.068 55.3528 70.1342C55.3746 70.2005 55.3749 70.272 55.3539 70.3385C55.3328 70.405 55.2913 70.4632 55.2353 70.5048C55.1793 70.5465 55.1116 70.5694 55.0418 70.5704H55.0516Z" fill="black"/>
<path d="M119.928 161.577H117.972C116.063 161.575 114.184 161.099 112.503 160.194L101.994 155.105L78.6939 142.529C76.5334 141.377 74.1233 140.773 71.6749 140.769H71.6358C68.7036 140.763 65.8554 141.748 63.5543 143.566C61.2532 145.383 59.6346 147.926 58.9617 150.78L58.424 153.028C58.4141 153.07 58.396 153.11 58.3707 153.145C58.3454 153.18 58.3135 153.21 58.2767 153.232C58.2399 153.255 58.1991 153.27 58.1564 153.277C58.1138 153.284 58.0702 153.282 58.0281 153.272C57.9861 153.262 57.9464 153.244 57.9114 153.219C57.8764 153.194 57.8466 153.162 57.8239 153.125C57.8013 153.088 57.786 153.047 57.7791 153.005C57.7722 152.962 57.7738 152.919 57.7837 152.877L58.3214 150.628C59.0266 147.628 60.7263 144.956 63.1438 143.045C65.5614 141.134 68.5544 140.098 71.6358 140.105H71.6749C74.2348 140.118 76.7524 140.759 79.0067 141.972L102.268 154.543L112.782 159.631C114.368 160.49 116.144 160.94 117.948 160.941H119.903C121.924 160.94 123.894 160.306 125.536 159.129C127.179 157.952 128.412 156.29 129.063 154.377L130.94 148.883C130.969 148.8 131.029 148.732 131.107 148.693C131.186 148.654 131.277 148.646 131.36 148.673C131.443 148.702 131.511 148.762 131.549 148.841C131.588 148.92 131.594 149.01 131.565 149.093L129.689 154.592C128.99 156.627 127.674 158.393 125.925 159.645C124.175 160.897 122.079 161.572 119.928 161.577Z" fill="#FAF5FF"/>
<path d="M126.008 142.588C125.959 142.586 125.911 142.574 125.867 142.553C122.699 141.087 120.456 136.688 122.303 132.709C122.341 132.63 122.408 132.568 122.49 132.538C122.572 132.508 122.663 132.511 122.743 132.548C122.822 132.587 122.883 132.655 122.912 132.739C122.941 132.822 122.937 132.913 122.9 132.993C121.067 136.903 123.657 140.813 126.145 141.952C126.215 141.983 126.271 142.038 126.305 142.105C126.34 142.173 126.35 142.251 126.334 142.325C126.318 142.4 126.277 142.466 126.217 142.514C126.158 142.562 126.084 142.588 126.008 142.588Z" fill="#FAF5FF"/>
<path d="M176.25 172.11C176.167 172.11 176.087 172.079 176.027 172.023C175.966 171.967 175.929 171.89 175.923 171.807L175.282 163.698C175.275 163.611 175.304 163.524 175.36 163.457C175.417 163.39 175.498 163.349 175.585 163.341C175.629 163.337 175.674 163.341 175.716 163.354C175.758 163.367 175.797 163.389 175.831 163.418C175.864 163.447 175.891 163.482 175.91 163.522C175.93 163.562 175.94 163.605 175.942 163.649L176.578 171.753C176.584 171.841 176.556 171.927 176.499 171.994C176.443 172.061 176.362 172.103 176.274 172.11H176.25Z" fill="black"/>
<path d="M172.54 174.139C172.457 174.139 172.378 174.108 172.317 174.051C172.256 173.995 172.219 173.918 172.213 173.836L171.352 163.825C171.348 163.782 171.353 163.738 171.366 163.696C171.379 163.654 171.4 163.615 171.429 163.581C171.457 163.548 171.491 163.52 171.53 163.5C171.569 163.48 171.612 163.467 171.656 163.464C171.743 163.458 171.829 163.487 171.895 163.543C171.962 163.6 172.004 163.68 172.012 163.767L172.868 173.777C172.872 173.82 172.867 173.863 172.854 173.905C172.842 173.946 172.821 173.984 172.793 174.017C172.765 174.051 172.731 174.078 172.693 174.098C172.655 174.118 172.613 174.13 172.57 174.134L172.54 174.139Z" fill="black"/>
<path d="M168.41 176.172C168.326 176.171 168.246 176.139 168.184 176.082C168.123 176.025 168.085 175.947 168.078 175.864L167.125 163.698C167.118 163.611 167.146 163.524 167.203 163.457C167.259 163.391 167.34 163.349 167.428 163.341C167.471 163.337 167.516 163.342 167.557 163.356C167.599 163.369 167.638 163.391 167.671 163.42C167.705 163.448 167.732 163.483 167.751 163.523C167.771 163.562 167.782 163.605 167.784 163.649L168.762 175.815C168.769 175.902 168.741 175.989 168.684 176.056C168.627 176.123 168.546 176.164 168.459 176.172H168.41Z" fill="black"/>
<path d="M129.244 81.4751C126.458 81.4751 124.791 80.3313 124.278 78.0536C124.259 77.9681 124.274 77.8785 124.321 77.8044C124.368 77.7302 124.442 77.6775 124.527 77.6577C124.57 77.6476 124.614 77.6461 124.657 77.6532C124.7 77.6603 124.741 77.6759 124.778 77.6992C124.814 77.7224 124.846 77.7527 124.871 77.7884C124.896 77.8241 124.914 77.8644 124.923 77.907C125.412 80.0136 127.025 80.9521 129.914 80.7664C130.001 80.7623 130.087 80.7928 130.153 80.8512C130.219 80.9096 130.259 80.9914 130.266 81.0792C130.27 81.1671 130.239 81.253 130.181 81.3188C130.122 81.3845 130.04 81.4248 129.953 81.4311C129.708 81.4653 129.474 81.4751 129.244 81.4751Z" fill="black"/>
<path d="M122.655 95.557C122.576 95.5563 122.499 95.5268 122.44 95.4739C118.217 91.7787 120.803 86.0991 120.832 86.0404C120.853 85.9956 120.883 85.9561 120.921 85.9248C120.96 85.8935 121.004 85.8712 121.052 85.8596L123.403 85.2877C124.037 85.1347 124.623 84.8257 125.107 84.3886C125.591 83.9515 125.958 83.4003 126.175 82.7851L126.854 80.874C126.868 80.8332 126.891 80.7957 126.92 80.7636C126.949 80.7314 126.984 80.7053 127.023 80.6867C127.062 80.6681 127.104 80.6574 127.147 80.6551C127.19 80.6529 127.234 80.6591 127.274 80.6736C127.315 80.688 127.353 80.7103 127.385 80.7393C127.417 80.7682 127.443 80.8032 127.462 80.8422C127.48 80.8813 127.491 80.9236 127.493 80.9668C127.495 81.01 127.489 81.0532 127.475 81.0939L126.795 83.0051C126.544 83.7253 126.116 84.3711 125.551 84.8834C124.986 85.3957 124.301 85.7582 123.56 85.9378L121.365 86.4754C120.998 87.3503 119.336 91.8911 122.875 94.9851C122.908 95.0136 122.934 95.0482 122.954 95.087C122.973 95.1258 122.984 95.168 122.987 95.2112C122.989 95.2544 122.984 95.2976 122.969 95.3385C122.955 95.3794 122.933 95.4171 122.905 95.4495C122.874 95.4847 122.835 95.5126 122.792 95.5312C122.749 95.5498 122.702 95.5586 122.655 95.557Z" fill="black"/>
<path d="M125.862 74.3927C125.809 74.3925 125.757 74.3796 125.71 74.3549C125.663 74.3302 125.623 74.2945 125.593 74.2509L125.031 73.4493C124.961 73.3495 124.916 73.2343 124.9 73.1136C124.884 72.9928 124.897 72.87 124.938 72.7553C124.973 72.6399 125.036 72.5349 125.121 72.4496C125.206 72.3644 125.311 72.3015 125.427 72.2665C125.842 72.1443 126.57 71.8608 126.736 71.3769C126.785 71.225 126.803 71.0648 126.788 70.9059C126.773 70.7471 126.725 70.593 126.648 70.4531C126.427 70.0393 126.054 69.7274 125.607 69.5831C125.565 69.5713 125.526 69.5513 125.492 69.5241C125.458 69.4969 125.43 69.463 125.41 69.4247C125.389 69.3863 125.377 69.3442 125.373 69.3009C125.369 69.2575 125.374 69.2139 125.387 69.1725C125.399 69.1305 125.419 69.0913 125.446 69.0572C125.474 69.023 125.507 68.9947 125.545 68.9737C125.584 68.9528 125.626 68.9397 125.669 68.9352C125.712 68.9307 125.756 68.935 125.798 68.9476C126.417 69.1452 126.934 69.579 127.235 70.1549C127.355 70.3735 127.428 70.6144 127.45 70.8626C127.471 71.1107 127.442 71.3607 127.362 71.5968C127.108 72.3202 126.272 72.7064 125.612 72.9019C125.598 72.9061 125.585 72.9136 125.574 72.9238C125.563 72.934 125.554 72.9465 125.549 72.9605C125.541 72.9757 125.537 72.9924 125.537 73.0094C125.537 73.0264 125.541 73.0432 125.549 73.0583L126.111 73.8648C126.146 73.9143 126.167 73.9726 126.171 74.0333C126.175 74.094 126.163 74.1547 126.134 74.2085C126.106 74.2623 126.063 74.3071 126.01 74.3379C125.958 74.3687 125.898 74.3843 125.837 74.3829L125.862 74.3927Z" fill="black"/>
<path d="M132.206 73.5276C132.132 73.5275 132.061 73.5029 132.004 73.4577C131.946 73.4125 131.905 73.3494 131.888 73.2783C131.793 72.8659 131.546 72.5045 131.196 72.2663C130.847 72.028 130.42 71.9303 130.001 71.9928C129.916 72.0102 129.827 71.9934 129.754 71.9458C129.681 71.8982 129.629 71.8238 129.61 71.7386C129.601 71.6959 129.6 71.6518 129.608 71.6088C129.615 71.5658 129.632 71.5247 129.655 71.488C129.679 71.4512 129.709 71.4194 129.745 71.3945C129.781 71.3696 129.822 71.352 129.864 71.3427C130.45 71.2425 131.052 71.3698 131.547 71.6987C132.043 72.0276 132.393 72.5332 132.528 73.1121C132.539 73.1545 132.542 73.1986 132.536 73.2419C132.53 73.2853 132.515 73.327 132.493 73.3647C132.471 73.4024 132.441 73.4353 132.406 73.4616C132.371 73.4879 132.331 73.507 132.289 73.5178L132.206 73.5276Z" fill="black"/>
<path d="M126.409 71.9195C126.345 72.0263 126.252 72.1128 126.14 72.1693C126.029 72.2257 125.904 72.2497 125.78 72.2386C125.656 72.2274 125.537 72.1816 125.438 72.1063C125.339 72.0309 125.262 71.9292 125.218 71.8126C125.174 71.6961 125.163 71.5694 125.188 71.4471C125.212 71.3248 125.27 71.2117 125.355 71.1209C125.441 71.0301 125.55 70.9652 125.671 70.9335C125.791 70.9019 125.918 70.9048 126.037 70.9419C126.214 71.0249 126.351 71.1733 126.421 71.3556C126.49 71.538 126.486 71.7401 126.409 71.9195Z" fill="black"/>
<path d="M130.749 73.8697C130.74 73.9687 130.709 74.0643 130.658 74.1496C130.607 74.2348 130.537 74.3076 130.454 74.3624C130.371 74.4172 130.277 74.4527 130.178 74.4662C130.08 74.4798 129.98 74.4711 129.885 74.4408C129.79 74.4105 129.704 74.3593 129.631 74.2911C129.559 74.2228 129.503 74.1392 129.467 74.0464C129.431 73.9536 129.417 73.854 129.425 73.7549C129.433 73.6558 129.463 73.5597 129.513 73.4738C129.522 73.3748 129.553 73.2791 129.605 73.1939C129.656 73.1086 129.725 73.0359 129.808 72.9811C129.891 72.9263 129.985 72.8908 130.084 72.8772C130.182 72.8636 130.283 72.8723 130.377 72.9026C130.472 72.9329 130.559 72.9841 130.631 73.0524C130.703 73.1206 130.759 73.2042 130.795 73.297C130.831 73.3898 130.845 73.4894 130.837 73.5885C130.829 73.6876 130.799 73.7837 130.749 73.8697Z" fill="black"/>
<path d="M158.942 48.4676C158.675 48.4662 158.411 48.409 158.167 48.2996C157.923 48.1902 157.704 48.031 157.525 47.8322L153.072 42.8515C152.905 42.6644 152.776 42.4461 152.692 42.2091C152.609 41.9722 152.574 41.7211 152.587 41.4704C152.601 41.2196 152.664 40.974 152.773 40.7476C152.882 40.5213 153.034 40.3185 153.221 40.151C153.408 39.9834 153.627 39.8544 153.864 39.7712C154.101 39.6881 154.352 39.6524 154.602 39.6662C154.853 39.6801 155.099 39.7432 155.325 39.8519C155.551 39.9607 155.754 40.1129 155.922 40.3001L158.854 43.57L163.742 37.2158C164.052 36.8159 164.508 36.5555 165.01 36.4918C165.512 36.428 166.018 36.5663 166.418 36.8761C166.818 37.186 167.079 37.642 167.142 38.1438C167.206 38.6457 167.068 39.1523 166.758 39.5522L160.453 47.7344C160.282 47.9561 160.065 48.1375 159.817 48.2659C159.569 48.3943 159.295 48.4665 159.016 48.4774L158.942 48.4676Z" fill="#FF9B38"/>
<path d="M158.942 48.7952C158.628 48.7952 158.318 48.7291 158.032 48.6011C157.745 48.4731 157.489 48.286 157.28 48.0522L152.827 43.0715C152.631 42.8527 152.479 42.5973 152.382 42.3199C152.284 42.0425 152.242 41.7486 152.258 41.4549C152.274 41.1612 152.347 40.8735 152.474 40.6083C152.601 40.343 152.78 40.1055 152.998 39.9091C153.216 39.7105 153.472 39.5575 153.75 39.4593C154.027 39.361 154.322 39.3195 154.616 39.3372C154.909 39.3536 155.196 39.4277 155.46 39.5552C155.724 39.6827 155.961 39.8611 156.156 40.0802L158.815 43.0569L163.478 37.0008C163.657 36.7678 163.88 36.5723 164.135 36.4257C164.39 36.2792 164.671 36.1843 164.963 36.1466C165.254 36.1089 165.55 36.1291 165.834 36.2061C166.118 36.2831 166.383 36.4153 166.616 36.5952C167.085 36.9593 167.391 37.4946 167.466 38.0837C167.541 38.6729 167.38 39.2678 167.017 39.738L160.711 47.9251C160.512 48.1858 160.258 48.399 159.966 48.5495C159.674 48.6999 159.353 48.7838 159.025 48.7952H158.942ZM154.489 39.9971C154.101 39.9971 153.726 40.1417 153.438 40.4028C153.128 40.682 152.941 41.0728 152.918 41.4895C152.895 41.9063 153.038 42.3152 153.316 42.6267L157.769 47.6074C157.917 47.7728 158.097 47.9053 158.299 47.9963C158.501 48.0872 158.72 48.1346 158.942 48.1353V48.4677L159.001 48.1353C159.232 48.1262 159.458 48.0663 159.663 47.9599C159.869 47.8534 160.048 47.703 160.188 47.5194L166.494 39.3323C166.621 39.1692 166.715 38.9824 166.77 38.7826C166.824 38.5829 166.838 38.3743 166.811 38.169C166.786 37.9635 166.719 37.7651 166.616 37.5852C166.514 37.4053 166.376 37.2475 166.212 37.1208C166.048 36.9941 165.861 36.901 165.661 36.8468C165.461 36.7927 165.252 36.7786 165.047 36.8053C164.841 36.831 164.643 36.8974 164.463 37.0007C164.284 37.1039 164.127 37.2419 164.001 37.4065L159.113 43.7607C159.082 43.7986 159.043 43.8296 159 43.8515C158.956 43.8734 158.908 43.8857 158.859 43.8878C158.811 43.8894 158.764 43.8807 158.72 43.8621C158.676 43.8435 158.637 43.8156 158.605 43.7803L155.672 40.5103C155.536 40.354 155.37 40.227 155.183 40.1371C154.997 40.0472 154.794 39.9962 154.587 39.9873L154.489 39.9971Z" fill="black"/>
<path d="M126.776 77.4769C126.421 77.4742 126.077 77.3538 125.798 77.1348C125.638 77.0201 125.503 76.8745 125.4 76.7066C125.298 76.5386 125.23 76.3518 125.202 76.1572C125.204 76.0703 125.24 75.9877 125.302 75.9267C125.364 75.8657 125.447 75.8309 125.534 75.8297C125.621 75.8322 125.704 75.8682 125.765 75.9301C125.826 75.9921 125.86 76.0752 125.862 76.1621C125.935 76.3635 126.072 76.5352 126.253 76.6509C126.372 76.7325 126.509 76.7855 126.652 76.8058C126.795 76.8261 126.941 76.8133 127.079 76.7682C127.121 76.7563 127.165 76.7528 127.208 76.7579C127.251 76.7631 127.293 76.7767 127.331 76.798C127.37 76.8193 127.403 76.848 127.43 76.8823C127.457 76.9166 127.477 76.9559 127.489 76.9979C127.501 77.0399 127.505 77.0839 127.499 77.1273C127.494 77.1707 127.481 77.2126 127.459 77.2508C127.438 77.2889 127.409 77.3224 127.375 77.3495C127.341 77.3766 127.301 77.3966 127.259 77.4085C127.102 77.4528 126.939 77.4759 126.776 77.4769Z" fill="black"/>
<path d="M194.286 142.113C194.199 142.115 194.115 142.081 194.052 142.021C189.428 137.387 188.973 133.623 192.522 129.434C199.682 120.983 201.217 112.669 197.214 104.018C192.815 94.5598 179.657 91.5441 172.575 89.9213C171.773 89.7356 171.05 89.5743 170.443 89.4325C170.359 89.4095 170.286 89.3542 170.241 89.2784C170.196 89.2026 170.183 89.1123 170.204 89.0268C170.214 88.9846 170.233 88.9448 170.259 88.9099C170.284 88.8749 170.317 88.8454 170.354 88.8231C170.392 88.8008 170.433 88.7862 170.476 88.78C170.519 88.7739 170.563 88.7764 170.605 88.7873C171.206 88.9388 171.925 89.105 172.721 89.2761C179.916 90.9233 193.304 93.988 197.815 103.739C201.877 112.537 200.259 121.335 193.025 129.865C189.706 133.775 190.141 137.167 194.521 141.556C194.554 141.588 194.58 141.626 194.598 141.668C194.616 141.71 194.626 141.755 194.626 141.801C194.626 141.846 194.616 141.892 194.598 141.934C194.58 141.976 194.554 142.014 194.521 142.045C194.454 142.097 194.37 142.121 194.286 142.113Z" fill="black"/>
<path d="M106.936 44.0247C106.892 44.0249 106.848 44.0149 106.809 43.9953C103.182 42.4557 101.706 37.8856 99.9951 32.5921C99.6383 31.4874 99.2717 30.3437 98.866 29.1706C95.8258 20.3725 90.7571 16.8777 82.4234 17.8064C82.3382 17.8116 82.2544 17.7838 82.1891 17.7289C82.1239 17.674 82.0823 17.5961 82.0728 17.5113C82.0634 17.4266 82.0869 17.3414 82.1385 17.2735C82.1901 17.2056 82.2659 17.1602 82.35 17.1465C91.0357 16.169 96.3292 19.8202 99.4916 28.9506C99.8973 30.1237 100.269 31.2675 100.626 32.3721C102.283 37.5092 103.715 41.9473 107.068 43.3746C107.137 43.4056 107.193 43.4593 107.227 43.5267C107.262 43.5941 107.272 43.6712 107.257 43.7453C107.241 43.8193 107.201 43.8859 107.143 43.9341C107.084 43.9822 107.011 44.009 106.936 44.01V44.0247Z" fill="black"/>
<path d="M22.4839 118.96C22.0119 118.961 21.5503 118.822 21.1574 118.56C20.7645 118.299 20.458 117.927 20.2767 117.491C20.0954 117.055 20.0475 116.575 20.139 116.112C20.2305 115.649 20.4573 115.224 20.7906 114.89C21.124 114.556 21.549 114.328 22.0119 114.236C22.4747 114.143 22.9545 114.19 23.3907 114.37C23.8268 114.551 24.1996 114.857 24.4619 115.249C24.7242 115.641 24.8643 116.103 24.8643 116.575C24.8643 117.206 24.6136 117.812 24.1674 118.259C23.7211 118.707 23.1157 118.959 22.4839 118.96ZM22.4839 114.854C22.1436 114.854 21.811 114.955 21.528 115.144C21.2451 115.333 21.0246 115.602 20.8943 115.916C20.7641 116.231 20.7301 116.576 20.7964 116.91C20.8628 117.244 21.0267 117.551 21.2673 117.791C21.5079 118.032 21.8145 118.196 22.1482 118.262C22.482 118.328 22.8279 118.294 23.1423 118.164C23.4567 118.034 23.7254 117.813 23.9145 117.53C24.1035 117.248 24.2044 116.915 24.2044 116.575C24.2018 116.12 24.0194 115.685 23.697 115.364C23.3747 115.044 22.9385 114.864 22.4839 114.864V114.854Z" fill="black"/>
<path d="M186.612 75.6098C186.225 75.6147 185.844 75.5041 185.52 75.2923C185.195 75.0804 184.94 74.7768 184.789 74.42C184.637 74.0632 184.595 73.6693 184.667 73.2885C184.74 72.9076 184.924 72.557 185.197 72.2811C185.469 72.0052 185.818 71.8165 186.197 71.7391C186.577 71.6617 186.972 71.6989 187.33 71.8462C187.689 71.9934 187.996 72.244 188.212 72.566C188.428 72.888 188.543 73.267 188.543 73.6547C188.543 74.169 188.34 74.6626 187.979 75.0286C187.618 75.3946 187.127 75.6034 186.612 75.6098ZM186.612 72.3985C186.36 72.3975 186.113 72.4715 185.902 72.6111C185.692 72.7507 185.528 72.9496 185.43 73.1826C185.333 73.4157 185.307 73.6723 185.356 73.9201C185.404 74.1679 185.525 74.3957 185.704 74.5746C185.882 74.7535 186.109 74.8755 186.357 74.9251C186.604 74.9747 186.861 74.9497 187.095 74.8533C187.328 74.7569 187.527 74.5934 187.668 74.3835C187.808 74.1736 187.883 73.9268 187.883 73.6742C187.883 73.3367 187.749 73.013 187.511 72.7739C187.273 72.5348 186.95 72.3998 186.612 72.3985Z" fill="black"/>
<path d="M71.3233 13.1971C70.9366 13.1971 70.5586 13.0825 70.2371 12.8676C69.9156 12.6528 69.665 12.3474 69.517 11.9902C69.369 11.6329 69.3303 11.2398 69.4057 10.8606C69.4812 10.4813 69.6674 10.1329 69.9408 9.85951C70.2142 9.58608 70.5626 9.39987 70.9419 9.32443C71.3211 9.24899 71.7142 9.28771 72.0715 9.43569C72.4287 9.58367 72.7341 9.83426 72.9489 10.1558C73.1638 10.4773 73.2784 10.8553 73.2784 11.242C73.2784 11.7605 73.0724 12.2578 72.7058 12.6245C72.3391 12.9911 71.8418 13.1971 71.3233 13.1971ZM71.3233 9.99071C71.0719 9.99071 70.8262 10.0652 70.6173 10.2049C70.4083 10.3445 70.2454 10.543 70.1492 10.7752C70.053 11.0074 70.0278 11.263 70.0769 11.5095C70.1259 11.756 70.247 11.9824 70.4247 12.1602C70.6024 12.3379 70.8288 12.4589 71.0754 12.508C71.3219 12.557 71.5774 12.5318 71.8096 12.4356C72.0418 12.3395 72.2403 12.1766 72.38 11.9676C72.5196 11.7586 72.5941 11.5129 72.5941 11.2615C72.5974 11.0926 72.5669 10.9247 72.5045 10.7677C72.4421 10.6107 72.349 10.4677 72.2307 10.3471C72.1123 10.2265 71.9711 10.1307 71.8153 10.0653C71.6595 9.99991 71.4923 9.96624 71.3233 9.96627V9.99071Z" fill="black"/>
<path d="M81.6268 7.20952C80.9127 7.21242 80.2139 7.00333 79.6187 6.60873C79.0236 6.21414 78.559 5.65179 78.2837 4.99292C78.0084 4.33404 77.9349 3.6083 78.0724 2.9076C78.2099 2.20691 78.5523 1.56279 79.0562 1.05685C79.5601 0.550902 80.2028 0.205889 80.903 0.0655109C81.6031 -0.0748669 82.3291 -0.00429338 82.9891 0.268292C83.6491 0.540877 84.2133 1.00321 84.6104 1.59673C85.0074 2.19024 85.2193 2.88824 85.2193 3.6023C85.2193 4.55646 84.8413 5.47176 84.168 6.14782C83.4947 6.82388 82.5809 7.20564 81.6268 7.20952ZM81.6268 0.664721C81.0467 0.664721 80.4797 0.836721 79.9974 1.15897C79.5152 1.48122 79.1393 1.93924 78.9173 2.47512C78.6953 3.011 78.6373 3.60067 78.7504 4.16956C78.8636 4.73844 79.1429 5.261 79.553 5.67114C79.9632 6.08129 80.4857 6.3606 81.0546 6.47376C81.6235 6.58692 82.2132 6.52884 82.7491 6.30687C83.2849 6.0849 83.743 5.70901 84.0652 5.22673C84.3875 4.74445 84.5595 4.17745 84.5595 3.59742C84.5595 2.81962 84.2505 2.07367 83.7005 1.52369C83.1505 0.9737 82.4046 0.664721 81.6268 0.664721Z" fill="black"/>
<path d="M14.072 110.831C13.2837 110.833 12.5125 110.601 11.8562 110.165C11.1998 109.728 10.6877 109.107 10.3847 108.379C10.0817 107.651 10.0014 106.85 10.154 106.077C10.3066 105.303 10.6852 104.593 11.2419 104.034C11.7986 103.476 12.5084 103.096 13.2814 102.942C14.0544 102.787 14.8559 102.865 15.5844 103.167C16.3128 103.468 16.9356 103.978 17.3737 104.634C17.8119 105.289 18.0458 106.06 18.0458 106.848C18.0445 107.902 17.6257 108.913 16.881 109.66C16.1364 110.406 15.1264 110.828 14.072 110.831ZM14.072 103.524C13.4142 103.522 12.7706 103.715 12.2228 104.079C11.6749 104.444 11.2474 104.962 10.9943 105.569C10.7412 106.176 10.674 106.845 10.8011 107.49C10.9283 108.136 11.2441 108.729 11.7085 109.195C12.1729 109.66 12.7652 109.978 13.4102 110.107C14.0552 110.236 14.724 110.171 15.3319 109.919C15.9398 109.668 16.4594 109.242 16.8251 108.695C17.1907 108.149 17.3859 107.506 17.3859 106.848C17.3859 105.968 17.0371 105.124 16.4159 104.501C15.7947 103.878 14.9518 103.527 14.072 103.524Z" fill="black"/>
<path d="M111.208 133.892C111.157 133.89 111.107 133.879 111.061 133.858L96.1044 126.472C96.0276 126.432 95.9696 126.364 95.9427 126.281C95.9158 126.199 95.9221 126.109 95.9604 126.031C95.9986 125.954 96.0658 125.894 96.1475 125.865C96.2292 125.836 96.3189 125.84 96.3977 125.876L111.354 133.262C111.433 133.302 111.492 133.37 111.52 133.453C111.549 133.536 111.544 133.627 111.506 133.706C111.479 133.762 111.436 133.809 111.383 133.842C111.331 133.875 111.27 133.892 111.208 133.892Z" fill="#FAF5FF"/>
</g>
<defs>
<clipPath id="clip0_77_1642">
<rect width="200" height="215.91" fill="white"/>
</clipPath>
</defs>
</svg>
