<svg width="70" height="70" viewBox="0 0 70 70" fill="none" xmlns="http://www.w3.org/2000/svg">
<g clip-path="url(#clip0_78_1143)">
<path fill-rule="evenodd" clip-rule="evenodd" d="M15.3301 23.0797L17.7019 27.1799L20.0737 23.0797L24.1739 20.7079L20.0737 18.3363L17.7019 14.2361L15.3301 18.3363L11.2261 20.7079L15.3301 23.0797Z" fill="#E95440"/>
<path fill-rule="evenodd" clip-rule="evenodd" d="M30.278 16.8481L32.8901 21.363L35.4981 16.8481L40.013 14.2399L35.4981 11.6279L32.8901 7.11304L30.278 11.6279L25.7632 14.2399L30.278 16.8481Z" fill="#E95440"/>
<path fill-rule="evenodd" clip-rule="evenodd" d="M6.81592 43.8404H20.2753V34.2566H15.4388C12.8268 34.2566 11.2572 35.0239 10.0016 37.512L6.81592 43.8404Z" fill="#E95440"/>
<path fill-rule="evenodd" clip-rule="evenodd" d="M31.6265 34.2566H42.9815V43.8404H31.6265V34.2566Z" fill="#E95440"/>
<path d="M65.7098 43.8037C63.7666 42.9582 61.1721 42.4733 58.5916 42.4733H57.3914L51.3829 35.3945C49.4018 33.0621 48.1106 32.9411 45.3789 32.8897C45.3703 32.8895 45.3618 32.8894 45.3532 32.8894H15.4388C12.1462 32.8894 10.2174 34.0501 8.78049 36.8972L5.97365 42.4733H2.62281C1.1766 42.4733 0 43.6499 0 45.0961V54.9744C0 56.4206 1.1766 57.5972 2.62281 57.5972H9.98047C10.4772 60.5942 13.086 62.8871 16.2217 62.8871C19.3573 62.8871 21.9661 60.5941 22.4629 57.5972H46.5607C47.0574 60.5942 49.6662 62.8871 52.8019 62.8871C55.9375 62.8871 58.5462 60.5941 59.0431 57.5972H65.5442C68.0012 57.5972 70.0001 55.6002 70.0001 53.1452V49.3784C70 47.6867 69.2557 45.3465 65.7098 43.8037ZM11.2221 38.1278C12.1789 36.2322 13.2035 35.6236 15.4388 35.6236H45.34C47.6216 35.6666 48.0354 35.6771 49.2986 37.1642L53.8048 42.4733H9.03479L11.2221 38.1278ZM16.2217 60.1529C14.2404 60.1529 12.6283 58.5408 12.6283 56.5595C12.6283 54.5782 14.2404 52.9661 16.2217 52.9661C18.203 52.9661 19.8151 54.5782 19.8151 56.5595C19.8151 58.5408 18.203 60.1529 16.2217 60.1529ZM52.8017 60.1529C50.8204 60.1529 49.2084 58.5408 49.2084 56.5595C49.2084 54.5782 50.8204 52.9661 52.8017 52.9661C54.7831 52.9661 56.3951 54.5782 56.3951 56.5595C56.3951 58.5408 54.7831 60.1529 52.8017 60.1529ZM65.5441 54.863H58.8965C58.1529 52.1955 55.703 50.2319 52.8017 50.2319C49.9004 50.2319 47.4504 52.1955 46.707 54.863H22.3165C21.5729 52.1955 19.123 50.2319 16.2217 50.2319C13.3204 50.2319 10.8704 52.1955 10.1269 54.863H2.73438V51.2533H5.07213C5.82723 51.2533 6.43932 50.6412 6.43932 49.8861C6.43932 49.131 5.82723 48.519 5.07213 48.519H2.73438V45.2076H58.5916C62.0784 45.2076 67.2656 46.3185 67.2656 49.3784V49.5303H64.7303C63.9752 49.5303 63.3631 50.1424 63.3631 50.8975C63.3631 51.6525 63.9752 52.2646 64.7303 52.2646H67.2656V53.1452C67.2656 54.0924 66.4934 54.863 65.5441 54.863Z" fill="black"/>
<path d="M34.347 48.6699H28.3169C27.5618 48.6699 26.9497 49.282 26.9497 50.0371C26.9497 50.7922 27.5618 51.4043 28.3169 51.4043H34.347C35.1021 51.4043 35.7142 50.7922 35.7142 50.0371C35.7142 49.282 35.1021 48.6699 34.347 48.6699Z" fill="black"/>
</g>
<defs>
<clipPath id="clip0_78_1143">
<rect width="70" height="70" fill="white"/>
</clipPath>
</defs>
</svg>
