<svg width="70" height="70" viewBox="0 0 70 70" fill="none" xmlns="http://www.w3.org/2000/svg">
<g clip-path="url(#clip0_78_1164)">
<path d="M51.2453 22.256C52.0002 22.256 52.6124 21.6439 52.6124 20.8888V7.48467C52.6124 3.35754 49.2549 0 45.1278 0H18.1111C13.9841 0 10.6264 3.35754 10.6264 7.48467V35.6336H9.28586C7.02809 35.6336 5.19141 37.4704 5.19141 39.728V51.2066C5.19141 53.4643 7.02822 55.3011 9.28586 55.3011H10.1676L10.6264 56.2126V62.5155C10.6264 66.6426 13.9841 70.0001 18.1111 70.0001H45.1278C49.2548 70.0001 52.6124 66.6426 52.6124 62.5155V34.7121C52.6124 33.957 52.0002 33.3449 51.2453 33.3449C50.4903 33.3449 49.8781 33.957 49.8781 34.7121V62.5155C49.8781 65.1347 47.747 67.2658 45.1278 67.2658H18.1111C15.4918 67.2658 13.3608 65.1349 13.3608 62.5155V56.5187L14.8012 55.3011H25.4615C27.7192 55.3011 29.5559 53.4643 29.5559 51.2066V39.728C29.5559 37.4702 27.7192 35.6336 25.4615 35.6336H13.3609V7.48467C13.3609 4.86527 15.4918 2.73438 18.1111 2.73438H45.1278C47.747 2.73438 49.8781 4.86527 49.8781 7.48467V20.8888C49.8781 21.6439 50.4903 22.256 51.2453 22.256V22.256ZM26.8217 39.728V51.2066C26.8217 51.9565 26.2115 52.5667 25.4616 52.5667H14.301C13.9779 52.5667 13.6652 52.6812 13.4183 52.8898L12.4339 53.7219L12.2313 53.3192C11.999 52.8579 11.5267 52.5667 11.0102 52.5667H9.28586C8.53596 52.5667 7.92578 51.9567 7.92578 51.2066V39.728C7.92578 38.9781 8.53596 38.3679 9.28586 38.3679H25.4615C26.2115 38.3678 26.8217 38.978 26.8217 39.728Z" fill="black"/>
<path d="M29.4204 61.3933C28.6653 61.3933 28.0532 62.0054 28.0532 62.7605C28.0532 63.5156 28.6653 64.1277 29.4204 64.1277H33.8187C34.5737 64.1277 35.1858 63.5156 35.1858 62.7605C35.1858 62.0054 34.5737 61.3933 33.8187 61.3933H29.4204Z" fill="black"/>
<path d="M42.2019 7.48462C42.2019 6.72952 41.5898 6.11743 40.8347 6.11743H22.4038C21.6487 6.11743 21.0366 6.72952 21.0366 7.48462C21.0366 8.23972 21.6487 8.85181 22.4038 8.85181H40.8347C41.5897 8.85181 42.2019 8.23972 42.2019 7.48462V7.48462Z" fill="black"/>
<path d="M37.0819 14.666H60.8082C63.0176 14.666 64.8086 16.457 64.8086 18.6664V35.503C64.8086 37.7124 63.0176 39.5034 60.8082 39.5034H58.2794L56.8386 42.3658L53.4524 39.5034H37.0819C34.8726 39.5034 33.0815 37.7124 33.0815 35.503V18.6664C33.0817 16.457 34.8727 14.666 37.0819 14.666V14.666Z" fill="#E95440"/>
<path d="M55.813 25.293H42.0771C41.3221 25.293 40.71 24.6809 40.71 23.9258C40.71 23.1707 41.3221 22.5586 42.0771 22.5586H55.813C56.568 22.5586 57.1802 23.1707 57.1802 23.9258C57.1802 24.6809 56.568 25.293 55.813 25.293Z" fill="black"/>
<path d="M55.813 31.7158H42.0771C41.3221 31.7158 40.71 31.1037 40.71 30.3486C40.71 29.5935 41.3221 28.9814 42.0771 28.9814H55.813C56.568 28.9814 57.1802 29.5935 57.1802 30.3486C57.1802 31.1037 56.568 31.7158 55.813 31.7158Z" fill="black"/>
</g>
<defs>
<clipPath id="clip0_78_1164">
<rect width="70" height="70" fill="white"/>
</clipPath>
</defs>
</svg>
