<svg width="200" height="219" viewBox="0 0 200 219" fill="none" xmlns="http://www.w3.org/2000/svg">
<g clip-path="url(#clip0_77_1750)">
<path d="M131.606 196.078C131.556 196.077 131.506 196.064 131.462 196.041C123.706 191.974 118.148 185.319 116.21 177.786L115.889 176.536C115.877 176.458 115.894 176.379 115.937 176.314C115.98 176.248 116.046 176.201 116.122 176.181C116.198 176.161 116.278 176.171 116.348 176.207C116.417 176.243 116.471 176.304 116.498 176.378L116.819 177.628C118.71 184.989 124.152 191.5 131.75 195.483C131.824 195.522 131.879 195.588 131.904 195.667C131.93 195.746 131.923 195.832 131.885 195.906C131.858 195.957 131.818 196 131.769 196.03C131.72 196.06 131.664 196.077 131.606 196.078V196.078Z" fill="black"/>
<path d="M136.03 28.6597C130.365 28.6597 127.893 25.0116 123.604 16.6884C120.583 10.8281 117.46 4.77275 111.13 2.32364C108.485 1.25268 105.665 0.680717 102.812 0.636676C92.5179 0.636676 87.1178 8.57422 82.3636 15.5777C82.3135 15.638 82.2426 15.6775 82.1649 15.6885C82.0872 15.6994 82.0082 15.6811 81.9433 15.637C81.8783 15.593 81.8321 15.5263 81.8136 15.4501C81.7951 15.3738 81.8056 15.2934 81.8431 15.2245C86.6903 8.08625 92.188 0 102.812 0C105.741 0.0433461 108.637 0.629515 111.353 1.72879C117.906 4.27084 121.085 10.4331 124.157 16.3956C128.339 24.4865 130.709 28.0138 136.03 28.0138C136.075 28.0083 136.12 28.0124 136.162 28.0257C136.205 28.039 136.245 28.0612 136.278 28.0909C136.312 28.1205 136.338 28.1569 136.357 28.1977C136.375 28.2385 136.385 28.2827 136.385 28.3274C136.385 28.3722 136.375 28.4164 136.357 28.4572C136.338 28.498 136.312 28.5344 136.278 28.564C136.245 28.5937 136.205 28.6159 136.162 28.6292C136.12 28.6425 136.075 28.6466 136.03 28.6411V28.6597Z" fill="black"/>
<path d="M67.7571 35.2217C89.4273 32.1777 88.5862 0.464719 108.885 8.31861C118.872 12.1898 118.961 35.2403 136.304 35.1008C154.466 34.9521 180.453 34.2597 194.8 56.6038C219.044 94.4233 151.148 105.958 146.277 119.124C141.407 132.289 154.959 137.945 164.179 145.069C175.597 153.899 180.588 178.26 159.768 189.502C143.921 198.053 126.368 188.256 123.204 175.941C121.229 168.254 119.36 160.717 114.253 159.508C102.054 156.627 104.74 168.338 83.5067 176.703C59.7127 186.091 15.5078 153.253 10.9117 109.123C6.97079 71.3914 31.448 40.3244 67.7571 35.2217Z" fill="#FDEEEC"/>
<path d="M192.127 38.4748V121.782C192.127 123.589 191.41 125.322 190.132 126.599C188.854 127.877 187.121 128.595 185.315 128.595H147.904C146.096 128.595 144.362 127.876 143.083 126.598C141.805 125.319 141.086 123.585 141.086 121.777V38.4748C141.086 36.6666 141.805 34.9326 143.083 33.654C144.362 32.3755 146.096 31.6572 147.904 31.6572L185.315 31.6572C187.121 31.6572 188.854 32.375 190.132 33.6527C191.41 34.9303 192.127 36.6632 192.127 38.4701V38.4748Z" fill="#FFFDF7"/>
<path d="M185.32 128.915H147.895C146.958 128.913 146.03 128.726 145.165 128.365C144.3 128.004 143.514 127.476 142.853 126.811C142.192 126.147 141.668 125.359 141.312 124.492C140.955 123.625 140.773 122.696 140.775 121.759V38.484C140.775 36.5941 141.525 34.7813 142.86 33.4431C144.194 32.105 146.005 31.3507 147.895 31.3458H185.32C187.21 31.3495 189.022 32.1032 190.358 33.4415C191.694 34.7798 192.444 36.5933 192.444 38.484V121.759C192.446 122.696 192.264 123.625 191.907 124.493C191.55 125.36 191.026 126.148 190.365 126.813C189.703 127.478 188.917 128.005 188.051 128.366C187.186 128.727 186.257 128.913 185.32 128.915ZM147.895 31.9732C146.169 31.9732 144.515 32.6587 143.294 33.8788C142.074 35.099 141.389 36.7538 141.389 38.4794V121.759C141.389 123.484 142.074 125.139 143.294 126.359C144.515 127.579 146.169 128.265 147.895 128.265H185.32C187.045 128.265 188.7 127.579 189.92 126.359C191.14 125.139 191.826 123.484 191.826 121.759V38.484C191.826 36.7585 191.14 35.1036 189.92 33.8835C188.7 32.6633 187.045 31.9779 185.32 31.9779L147.895 31.9732Z" fill="black"/>
<path d="M143.703 89.5622V123.617C143.703 124.234 143.948 124.825 144.384 125.26C144.819 125.696 145.411 125.941 146.027 125.941H187.211C187.827 125.941 188.418 125.696 188.854 125.26C189.29 124.825 189.535 124.234 189.535 123.617V36.5647C189.535 35.9485 189.29 35.3574 188.854 34.9217C188.418 34.4859 187.827 34.2411 187.211 34.2411H178.618C178.33 34.2411 178.044 34.298 177.778 34.4085C177.511 34.519 177.269 34.681 177.065 34.8852C176.862 35.0894 176.7 35.3317 176.59 35.5984C176.48 35.8651 176.424 36.1508 176.425 36.4393V36.4393C176.425 37.0227 176.193 37.5823 175.781 37.9952C175.369 38.4082 174.81 38.6408 174.226 38.6421H158.993C158.409 38.6408 157.85 38.4082 157.438 37.9952C157.026 37.5823 156.795 37.0227 156.795 36.4393V36.4393C156.795 35.8563 156.563 35.2971 156.151 34.8849C155.738 34.4727 155.179 34.2411 154.596 34.2411H146.017C145.401 34.2411 144.81 34.4859 144.374 34.9217C143.939 35.3574 143.694 35.9485 143.694 36.5647V89.5436L143.703 89.5622Z" fill="#FFFDF7"/>
<path d="M187.201 126.257H146.017C145.32 126.256 144.653 125.978 144.16 125.485C143.668 124.992 143.391 124.323 143.391 123.627V89.5622C143.386 89.5178 143.39 89.4727 143.403 89.43C143.417 89.3873 143.439 89.3479 143.469 89.3144C143.498 89.281 143.535 89.2541 143.575 89.2358C143.616 89.2174 143.66 89.2079 143.705 89.2079C143.75 89.2079 143.794 89.2174 143.835 89.2358C143.876 89.2541 143.912 89.281 143.942 89.3144C143.971 89.3479 143.994 89.3873 144.007 89.43C144.02 89.4727 144.024 89.5178 144.019 89.5622V123.617C144.02 124.147 144.231 124.655 144.606 125.029C144.98 125.404 145.488 125.614 146.017 125.616H187.201C187.732 125.614 188.24 125.403 188.615 125.027C188.989 124.652 189.2 124.143 189.2 123.613V36.5647C189.198 36.0351 188.987 35.5275 188.613 35.153C188.238 34.7785 187.731 34.5676 187.201 34.5664H178.618C178.119 34.5676 177.641 34.7663 177.288 35.119C176.936 35.4717 176.737 35.9497 176.736 36.4485C176.736 36.7787 176.672 37.1057 176.546 37.411C176.42 37.7163 176.236 37.9938 176.003 38.2277C175.77 38.4616 175.493 38.6473 175.188 38.7742C174.883 38.9011 174.556 38.9667 174.226 38.9673H158.992C158.325 38.9661 157.686 38.7002 157.214 38.228C156.743 37.7557 156.478 37.1157 156.478 36.4485C156.478 35.9533 156.283 35.4781 155.935 35.1258C155.587 34.7735 155.114 34.5725 154.619 34.5664H146.017C145.488 34.5676 144.98 34.7785 144.606 35.153C144.231 35.5275 144.02 36.0351 144.019 36.5647V62.529C144.024 62.5734 144.02 62.6185 144.007 62.6612C143.994 62.7039 143.971 62.7433 143.942 62.7768C143.912 62.8102 143.876 62.8371 143.835 62.8554C143.794 62.8738 143.75 62.8833 143.705 62.8833C143.66 62.8833 143.616 62.8738 143.575 62.8554C143.535 62.8371 143.498 62.8102 143.469 62.7768C143.439 62.7433 143.417 62.7039 143.403 62.6612C143.39 62.6185 143.386 62.5734 143.391 62.529V36.5647C143.39 36.2189 143.457 35.8762 143.589 35.5563C143.72 35.2364 143.913 34.9456 144.157 34.7004C144.401 34.4552 144.691 34.2605 145.01 34.1275C145.329 33.9945 145.671 33.9257 146.017 33.925H154.596C155.262 33.9263 155.901 34.1916 156.372 34.6628C156.844 35.134 157.109 35.7728 157.11 36.4392C157.11 36.6868 157.158 36.932 157.252 37.1609C157.346 37.3898 157.485 37.5978 157.66 37.7731C157.835 37.9484 158.042 38.0874 158.271 38.1823C158.5 38.2772 158.745 38.326 158.992 38.326H174.226C174.475 38.3285 174.721 38.2818 174.952 38.1886C175.182 38.0955 175.392 37.9577 175.569 37.7833C175.746 37.6088 175.887 37.4011 175.983 37.172C176.08 36.943 176.13 36.6971 176.132 36.4485C176.132 35.7825 176.396 35.1437 176.866 34.6724C177.337 34.201 177.975 33.9356 178.641 33.9343H187.225C187.921 33.9368 188.588 34.2149 189.08 34.7078C189.572 35.2006 189.849 35.8683 189.85 36.5647V123.617C189.851 123.965 189.783 124.309 189.65 124.63C189.517 124.952 189.321 125.243 189.075 125.489C188.829 125.734 188.537 125.928 188.215 126.06C187.893 126.192 187.549 126.259 187.201 126.257V126.257Z" fill="black"/>
<path d="M160.689 47.1605H153.527C151.476 47.1605 149.814 48.823 149.814 50.8737V64.2067C149.814 66.2574 151.476 67.9199 153.527 67.9199H160.689C162.739 67.9199 164.402 66.2574 164.402 64.2067V50.8737C164.402 48.823 162.739 47.1605 160.689 47.1605Z" fill="#FFF5D7"/>
<path d="M164.402 58.1466C164.319 58.1467 164.239 58.114 164.18 58.0557C164.121 57.9975 164.087 57.9183 164.086 57.8353V49.8559C164.086 49.544 164.026 49.2351 163.907 48.9468C163.788 48.6584 163.614 48.3963 163.393 48.1753C163.173 47.9544 162.912 47.779 162.624 47.6591C162.336 47.5391 162.027 47.4771 161.716 47.4765H152.5C151.87 47.4777 151.266 47.729 150.821 48.1751C150.375 48.6211 150.125 49.2257 150.125 49.8559V57.4263C150.131 57.4707 150.127 57.5158 150.113 57.5585C150.1 57.6012 150.078 57.6406 150.048 57.6741C150.019 57.7075 149.982 57.7344 149.941 57.7527C149.901 57.7711 149.856 57.7806 149.812 57.7806C149.767 57.7806 149.723 57.7711 149.682 57.7527C149.641 57.7344 149.605 57.7075 149.575 57.6741C149.545 57.6406 149.523 57.6012 149.51 57.5585C149.497 57.5158 149.493 57.4707 149.498 57.4263V49.8559C149.498 49.0593 149.814 48.2952 150.377 47.7314C150.94 47.1677 151.703 46.8504 152.5 46.8491H161.725C162.522 46.8504 163.285 47.1677 163.848 47.7314C164.411 48.2952 164.727 49.0593 164.727 49.8559V57.8353C164.726 57.8772 164.718 57.9185 164.701 57.957C164.684 57.9954 164.66 58.0301 164.63 58.0591C164.599 58.088 164.564 58.1107 164.524 58.1257C164.485 58.1408 164.444 58.1479 164.402 58.1466V58.1466Z" fill="black"/>
<path d="M179.692 47.1605H172.53C170.479 47.1605 168.817 48.823 168.817 50.8737V64.2067C168.817 66.2574 170.479 67.9199 172.53 67.9199H179.692C181.742 67.9199 183.405 66.2574 183.405 64.2067V50.8737C183.405 48.823 181.742 47.1605 179.692 47.1605Z" fill="#FFF5D7"/>
<path d="M160.689 71.7493H153.527C151.476 71.7493 149.814 73.4117 149.814 75.4624V88.7955C149.814 90.8462 151.476 92.5086 153.527 92.5086H160.689C162.739 92.5086 164.402 90.8462 164.402 88.7955V75.4624C164.402 73.4117 162.739 71.7493 160.689 71.7493Z" fill="#FFF5D7"/>
<path d="M179.692 71.7493H172.53C170.479 71.7493 168.817 73.4117 168.817 75.4624V88.7955C168.817 90.8462 170.479 92.5086 172.53 92.5086H179.692C181.742 92.5086 183.405 90.8462 183.405 88.7955V75.4624C183.405 73.4117 181.742 71.7493 179.692 71.7493Z" fill="#FFF5D7"/>
<path d="M160.689 96.389H153.527C151.476 96.389 149.814 98.0515 149.814 100.102V113.435C149.814 115.486 151.476 117.148 153.527 117.148H160.689C162.739 117.148 164.402 115.486 164.402 113.435V100.102C164.402 98.0515 162.739 96.389 160.689 96.389Z" fill="#FFF5D7"/>
<path d="M179.692 96.389H172.53C170.479 96.389 168.817 98.0515 168.817 100.102V113.435C168.817 115.486 170.479 117.148 172.53 117.148H179.692C181.742 117.148 183.405 115.486 183.405 113.435V100.102C183.405 98.0515 181.742 96.389 179.692 96.389Z" fill="#FFF5D7"/>
<path d="M86.6622 40.6543C85.6445 36.007 77.2794 33.9994 74.728 38.3679C72.5392 37.285 71.2286 36.5415 68.6355 33.4836C66.3397 30.7742 61.9527 23.1016 55.8833 25.0209C49.814 26.9402 54.1964 33.0374 49.4841 37.8938C45.6175 41.8719 30.3791 46.1799 31.3597 57.5471C32.0475 65.4475 37.9867 64.5645 37.0572 71.0242C36.1278 77.4839 27.8138 80.2816 30.1421 90.6218C33.4277 105.177 56.376 109.982 65.1872 94.2838C75.8759 75.23 56.6223 70.7547 56.046 61.5345C55.5813 53.834 60.4749 54.796 61.8737 47.839C63.0866 41.7975 57.2682 36.8668 61.6553 35.2914C64.597 34.2318 66.2003 38.2889 71.7166 41.9741C70.6245 46.0777 71.5865 49.3494 75.5413 51.4964C79.4961 53.6434 85.3703 45.046 85.3703 45.046L86.6622 40.6543Z" fill="black"/>
<path d="M27.3862 125.839L32.066 113.714L45.4269 118.891L40.7471 131.021L27.3862 125.839Z" fill="#F4C7A8"/>
<path d="M38.8189 113.254L39.502 113.881C39.678 114.045 39.82 114.241 39.92 114.46C40.0199 114.678 40.0758 114.914 40.0844 115.154C40.093 115.394 40.0542 115.633 39.9703 115.858C39.8863 116.083 39.7587 116.29 39.5949 116.465L39.1813 116.93C38.9495 117.179 38.6526 117.359 38.3241 117.448C37.9957 117.538 37.6487 117.534 37.3224 117.437L35.4961 116.911C35.1695 116.814 34.8219 116.81 34.4932 116.9C34.1645 116.991 33.8678 117.172 33.6371 117.423L30.0634 121.271C29.8641 121.482 29.718 121.737 29.6371 122.016C29.5563 122.295 29.5431 122.589 29.5987 122.874L30.5839 127.767C30.6398 128.053 30.6268 128.348 30.546 128.628C30.4652 128.907 30.3189 129.164 30.1192 129.375V129.375C29.7559 129.699 29.2978 129.896 28.8133 129.938C22.5441 130.983 16.0379 132.345 9.94071 133.865C8.95548 134.111 7.97491 134.376 7.04545 133.958L3.32764 132.275L29.1944 104.443L38.8189 113.254Z" fill="#E95440"/>
<path d="M3.3462 132.591C3.26689 132.592 3.19043 132.562 3.13242 132.508L0.464889 130.026C0.176396 129.756 0.006568 129.383 -0.00737013 128.989C-0.0213083 128.594 0.121781 128.21 0.390533 127.921L24.6586 101.808C24.7917 101.665 24.9519 101.551 25.1299 101.471C25.3078 101.391 25.4999 101.348 25.6949 101.343C25.8901 101.335 26.085 101.366 26.2678 101.434C26.4507 101.503 26.6178 101.608 26.7592 101.743L36.8623 111.158C36.8949 111.186 36.9215 111.219 36.9406 111.257C36.9597 111.296 36.971 111.337 36.9736 111.38C36.9763 111.422 36.9703 111.465 36.9561 111.505C36.9418 111.545 36.9196 111.582 36.8908 111.613C36.8619 111.645 36.8271 111.67 36.7882 111.687C36.7494 111.705 36.7074 111.714 36.6648 111.715C36.6222 111.716 36.5799 111.708 36.5403 111.693C36.5008 111.677 36.4649 111.653 36.4348 111.623L26.3409 102.193C26.2593 102.115 26.1622 102.054 26.0558 102.015C25.9494 101.975 25.836 101.959 25.7228 101.966C25.6106 101.968 25.4999 101.993 25.3977 102.039C25.2954 102.086 25.2036 102.152 25.128 102.235L0.859908 128.348C0.782496 128.431 0.722155 128.528 0.682347 128.634C0.642539 128.74 0.624047 128.853 0.627933 128.966C0.631819 129.079 0.658007 129.19 0.704992 129.293C0.751978 129.396 0.818837 129.489 0.901733 129.566L3.55997 132.048C3.59208 132.077 3.61771 132.113 3.63523 132.153C3.65276 132.193 3.66181 132.236 3.66181 132.28C3.66181 132.324 3.65276 132.367 3.63523 132.407C3.61771 132.447 3.59208 132.483 3.55997 132.512C3.50126 132.565 3.42488 132.593 3.3462 132.591V132.591Z" fill="black"/>
<path d="M31.6013 111.627C31.3879 111.627 31.1749 111.608 30.9646 111.572L23.9565 110.349L24.0634 109.727L31.0715 110.949C31.572 111.039 32.0871 111.001 32.5689 110.838C33.0507 110.676 33.4836 110.394 33.8273 110.019L34.5384 109.257L35.0031 109.69L34.2921 110.452C33.9493 110.823 33.5332 111.119 33.07 111.322C32.6069 111.524 32.1068 111.628 31.6013 111.627V111.627Z" fill="black"/>
<path d="M13.8722 132.945L13.0125 129.496C12.893 129.018 12.9683 128.512 13.2219 128.089C13.4755 127.667 13.8866 127.362 14.3648 127.242L23.0599 125.095C23.3037 125.035 23.5575 125.025 23.8053 125.066C24.0532 125.108 24.2898 125.2 24.5005 125.337C24.7137 125.471 24.8965 125.648 25.0373 125.857C25.1781 126.066 25.2739 126.302 25.3184 126.55L26.0667 130.472L25.4486 130.588L24.7004 126.666C24.6692 126.503 24.6052 126.348 24.5123 126.211C24.4194 126.074 24.2996 125.957 24.16 125.867C24.0205 125.778 23.8642 125.717 23.7006 125.69C23.537 125.663 23.3696 125.669 23.2086 125.709L14.5135 127.856C14.3571 127.894 14.2099 127.963 14.0806 128.058C13.9513 128.154 13.8425 128.275 13.7607 128.413C13.6775 128.552 13.6224 128.705 13.5984 128.864C13.5745 129.024 13.5823 129.186 13.6213 129.343L14.4857 132.791L13.8722 132.945Z" fill="black"/>
<path d="M22.8042 130.983L21.7446 125.974L22.8042 130.983Z" fill="#E95440"/>
<path d="M22.8043 131.299C22.732 131.3 22.6618 131.275 22.6058 131.229C22.5499 131.183 22.5116 131.119 22.4976 131.048L21.438 126.039C21.4207 125.957 21.4365 125.872 21.4818 125.803C21.5271 125.733 21.5983 125.684 21.6796 125.667C21.761 125.65 21.8459 125.665 21.9156 125.711C21.9853 125.756 22.0342 125.827 22.0514 125.909L23.111 130.918C23.1198 130.959 23.1206 131 23.1132 131.041C23.1058 131.081 23.0904 131.12 23.0679 131.155C23.0454 131.189 23.0163 131.219 22.9822 131.242C22.9481 131.266 22.9098 131.282 22.8693 131.29L22.8043 131.299Z" fill="black"/>
<path d="M19.9834 131.578L18.9238 126.568L19.9834 131.578Z" fill="#E95440"/>
<path d="M19.9832 131.894C19.9111 131.894 19.8414 131.868 19.7856 131.823C19.7298 131.777 19.6913 131.714 19.6765 131.643L18.6169 126.633C18.6016 126.552 18.6181 126.468 18.6631 126.399C18.7082 126.33 18.7782 126.281 18.8586 126.262C18.8992 126.253 18.9411 126.252 18.982 126.259C19.0229 126.267 19.0619 126.282 19.0969 126.304C19.1319 126.327 19.1621 126.356 19.1858 126.39C19.2095 126.424 19.2262 126.463 19.235 126.503L20.2946 131.518C20.3034 131.558 20.3042 131.6 20.2968 131.64C20.2894 131.681 20.274 131.72 20.2515 131.754C20.229 131.789 20.1999 131.819 20.1658 131.842C20.1317 131.865 20.0933 131.881 20.0529 131.89L19.9832 131.894Z" fill="black"/>
<path d="M17.2183 132.271L16.1587 127.266L17.2183 132.271Z" fill="#E95440"/>
<path d="M17.2183 132.587C17.1469 132.586 17.0777 132.562 17.022 132.517C16.9663 132.472 16.9274 132.41 16.9116 132.34L15.852 127.335C15.8432 127.295 15.8424 127.253 15.8497 127.212C15.857 127.171 15.8724 127.132 15.8948 127.097C15.9173 127.062 15.9464 127.032 15.9805 127.008C16.0146 126.984 16.0531 126.968 16.0937 126.959C16.1756 126.942 16.2608 126.959 16.3305 127.005C16.4001 127.051 16.4487 127.123 16.4655 127.205L17.5251 132.21C17.5339 132.251 17.5347 132.293 17.5274 132.334C17.5201 132.375 17.5047 132.414 17.4823 132.449C17.4598 132.484 17.4307 132.514 17.3966 132.537C17.3625 132.561 17.324 132.578 17.2834 132.587H17.2183Z" fill="black"/>
<path d="M63.1275 173.286L50.2314 171.855L48.1353 190.752L61.0314 192.182L63.1275 173.286Z" fill="#F4C7A8"/>
<path d="M111.855 77.0796L116.089 83.6509L132.47 72.265L134.357 68.7378C134.6 68.28 134.961 67.8951 135.402 67.6224C135.843 67.3497 136.348 67.1989 136.867 67.1856L144.558 66.9764C144.681 66.9727 144.804 66.9977 144.917 67.0494C145.029 67.1012 145.128 67.1783 145.205 67.2746C145.283 67.371 145.337 67.4841 145.363 67.6049C145.389 67.7258 145.387 67.851 145.357 67.971C145.088 69.0073 143.963 70.5037 139.641 70.7593C142.034 72.6415 142.871 75.0348 141.114 76.8937C140.989 76.9216 141.114 81.3458 141.114 81.3458L138.08 82.2753L116.809 98.0574C115.824 98.7873 114.598 99.1127 113.381 98.9666C112.164 98.8206 111.049 98.2142 110.266 97.272L100.381 85.3936L111.855 77.0796Z" fill="#F4C7A8"/>
<path d="M113.956 99.2889C113.204 99.2872 112.462 99.1197 111.782 98.7984C111.103 98.4771 110.502 98.0099 110.024 97.43L107.886 94.8647C107.853 94.8016 107.841 94.729 107.854 94.6586C107.867 94.5883 107.904 94.5245 107.958 94.4775C108.012 94.4306 108.08 94.4033 108.151 94.4002C108.223 94.3971 108.293 94.4183 108.351 94.4604L110.489 97.0257C111.222 97.9037 112.263 98.4686 113.399 98.605C114.535 98.7415 115.68 98.4392 116.6 97.76L137.875 82.0057C137.908 81.9799 137.946 81.9609 137.987 81.9499L140.775 81.2761C140.668 77.4096 140.705 76.903 140.924 76.7915C141.203 76.5007 141.418 76.1541 141.554 75.7745C141.69 75.3949 141.745 74.9908 141.714 74.5887C141.621 73.3757 140.784 72.0652 139.432 71.001C139.38 70.9622 139.342 70.9081 139.323 70.8464C139.304 70.7846 139.304 70.7183 139.325 70.6571C139.344 70.597 139.381 70.5441 139.431 70.5051C139.481 70.4662 139.541 70.443 139.604 70.4387C143.814 70.1784 144.814 68.7238 145.037 67.878C145.059 67.8049 145.063 67.7275 145.049 67.6524C145.034 67.5774 145.001 67.5071 144.953 67.4478C144.905 67.3885 144.843 67.342 144.772 67.3125C144.701 67.283 144.625 67.2713 144.549 67.2785L136.857 67.4876C136.394 67.5003 135.942 67.6361 135.548 67.8811C135.155 68.1261 134.833 68.4715 134.617 68.8818L132.731 72.4091C132.714 72.4505 132.689 72.4879 132.657 72.5189C132.625 72.5499 132.587 72.5738 132.545 72.589C132.503 72.6042 132.459 72.6104 132.414 72.6072C132.37 72.604 132.327 72.5914 132.287 72.5703C132.248 72.5492 132.214 72.5201 132.187 72.4848C132.16 72.4495 132.14 72.4089 132.13 72.3656C132.119 72.3223 132.118 72.2773 132.127 72.2335C132.135 72.1898 132.152 72.1482 132.178 72.1117L134.06 68.5844C134.331 68.0767 134.732 67.6501 135.222 67.348C135.712 67.046 136.273 66.8792 136.848 66.8649L144.544 66.6604C144.718 66.6559 144.89 66.6917 145.047 66.7651C145.204 66.8385 145.342 66.9474 145.45 67.0833C145.556 67.2173 145.629 67.3739 145.663 67.5408C145.698 67.7077 145.693 67.8804 145.65 68.0453C145.348 69.2071 144.182 70.6245 140.413 71.0149C141.48 71.908 142.17 73.1711 142.346 74.5515C142.383 75.0405 142.316 75.5318 142.151 75.9937C141.987 76.4556 141.727 76.8777 141.389 77.233C141.337 77.6977 141.389 79.9609 141.421 81.5224C141.422 81.5946 141.399 81.6651 141.355 81.7224C141.311 81.7798 141.249 81.8206 141.179 81.8384L138.205 82.5587L116.995 98.2897C116.115 98.9394 115.05 99.2896 113.956 99.2889V99.2889Z" fill="black"/>
<path d="M113.607 85.7003C113.541 85.6993 113.477 85.6775 113.423 85.638C113.37 85.5984 113.331 85.5431 113.311 85.4798C113.291 85.4166 113.291 85.3486 113.312 85.2856C113.332 85.2226 113.372 85.1677 113.426 85.1287L128.558 74.6119C128.626 74.5754 128.705 74.5652 128.781 74.5834C128.856 74.6016 128.922 74.6468 128.966 74.7105C129.01 74.7742 129.03 74.8518 129.02 74.9288C129.011 75.0057 128.974 75.0765 128.915 75.1278L113.784 85.6445C113.732 85.6803 113.67 85.6998 113.607 85.7003V85.7003Z" fill="black"/>
<path d="M116.089 83.9762C116.036 83.9762 115.984 83.963 115.938 83.9378C115.892 83.9127 115.853 83.8764 115.824 83.8322L113.965 80.9137C113.938 80.879 113.918 80.8391 113.907 80.7964C113.896 80.7537 113.895 80.7092 113.902 80.6657C113.909 80.6223 113.926 80.5809 113.95 80.5441C113.974 80.5074 114.006 80.4761 114.043 80.4524C114.08 80.4286 114.122 80.4129 114.165 80.4061C114.209 80.3994 114.253 80.4019 114.296 80.4134C114.338 80.4249 114.378 80.4452 114.412 80.4729C114.447 80.5006 114.475 80.5352 114.495 80.5744L116.354 83.4883C116.398 83.5589 116.413 83.644 116.396 83.7255C116.378 83.8071 116.33 83.8787 116.261 83.9251C116.209 83.9579 116.15 83.9757 116.089 83.9762V83.9762Z" fill="black"/>
<path d="M80.751 62.0458L73.3619 64.546C71.7476 65.0912 70.3124 66.0658 69.2103 67.3652C68.1082 68.6646 67.381 70.2396 67.1066 71.9212L61.5996 99.8049H90.1571L94.1584 80.7929L108.398 71.1033L103.379 61.9528C102.652 60.6238 101.55 59.5381 100.21 58.8315C98.8707 58.1249 97.3525 57.8285 95.8454 57.9794L91.5513 58.7648L80.751 62.0458Z" fill="#E95440"/>
<path d="M87.6475 85.9002L101.822 88.1959C103.234 88.4196 104.68 88.1739 105.94 87.4965C107.199 86.8191 108.201 85.7473 108.793 84.4456L118.687 60.54C119.516 60.591 120.336 60.3477 121.004 59.8529C121.671 59.3581 122.143 58.6436 122.335 57.8353L125.857 57.7703C126.421 57.7609 126.967 57.5771 127.422 57.2442C127.876 56.9113 128.216 56.4456 128.395 55.9113C128.664 55.0795 128.952 54.2104 129.087 53.848C129.371 53.0719 128.925 51.8915 128.246 51.7939C128.43 51.5884 128.564 51.3428 128.637 51.0765C128.71 50.8103 128.72 50.5307 128.666 50.26C128.611 49.9893 128.495 49.735 128.325 49.5172C128.156 49.2994 127.938 49.1242 127.688 49.0055C127.614 47.6857 126.936 46.9607 125.829 46.7237C125.829 46.7237 130.941 43.7587 131.968 43.2196C132.996 42.6806 133.056 40.0037 130.5 40.896C128.669 41.5373 120.741 43.9772 116.409 45.3063C114.573 45.871 113.03 47.132 112.111 48.8196L99.8001 72.5811L91.198 71.5076L87.6475 85.9002Z" fill="#F4C7A8"/>
<path d="M103.439 88.6328C103.228 88.6329 103.017 88.6189 102.807 88.5909C100.075 88.2284 87.7221 86.2301 87.5967 86.2069C87.5151 86.1932 87.4421 86.148 87.3935 86.0811C87.3448 86.0142 87.3243 85.9309 87.3364 85.849C87.3501 85.7665 87.3959 85.6928 87.4639 85.644C87.5318 85.5952 87.6163 85.5754 87.6989 85.5888C87.8244 85.5888 100.168 87.6057 102.891 87.9682C105.098 88.2563 107.413 86.7552 108.523 84.3154L118.413 60.4145C118.437 60.3579 118.477 60.3095 118.528 60.2756C118.579 60.2417 118.639 60.2237 118.701 60.224H118.775C119.518 60.2533 120.248 60.0245 120.841 59.5763C121.434 59.128 121.854 58.4882 122.028 57.7656C122.043 57.6958 122.081 57.633 122.136 57.5875C122.19 57.5419 122.259 57.5162 122.33 57.5146L125.848 57.4496C126.35 57.4398 126.835 57.2744 127.238 56.9763C127.641 56.6782 127.942 56.2622 128.098 55.7858C128.367 54.9493 128.66 54.0756 128.79 53.7131C128.853 53.5013 128.871 53.2786 128.843 53.0593C128.815 52.84 128.742 52.629 128.627 52.4398C128.586 52.3522 128.527 52.2745 128.453 52.212C128.379 52.1494 128.293 52.1035 128.2 52.0773C128.143 52.0677 128.089 52.0428 128.045 52.0051C128.001 51.9675 127.967 51.9185 127.949 51.8635C127.93 51.8074 127.927 51.747 127.941 51.6894C127.955 51.6317 127.985 51.5793 128.028 51.5382C128.181 51.3834 128.293 51.1922 128.352 50.9825C128.412 50.7728 128.417 50.5515 128.367 50.3392C128.33 50.1098 128.238 49.8928 128.099 49.7066C127.96 49.5205 127.777 49.3708 127.568 49.2704C127.513 49.2472 127.466 49.2093 127.431 49.1609C127.397 49.1125 127.377 49.0555 127.373 48.9962C127.312 47.8762 126.787 47.2209 125.769 47.0025C125.707 46.9889 125.651 46.957 125.607 46.9108C125.564 46.8646 125.535 46.8064 125.525 46.7437C125.515 46.681 125.524 46.6167 125.551 46.5593C125.578 46.5018 125.622 46.4538 125.676 46.4216C125.886 46.3007 130.812 43.4473 131.829 42.9129C132.046 42.7485 132.203 42.5181 132.277 42.2564C132.351 41.9948 132.337 41.7162 132.238 41.4629C131.955 40.8077 131.095 40.9982 130.607 41.1655C128.771 41.8068 120.987 44.2048 116.507 45.5804C114.746 46.1171 113.267 47.3258 112.39 48.945L102.37 68.3149C102.332 68.3884 102.266 68.4438 102.187 68.469C102.107 68.4942 102.021 68.4873 101.947 68.4496C101.874 68.4101 101.818 68.3432 101.793 68.2633C101.768 68.1834 101.775 68.0968 101.813 68.0221L111.851 48.6476C112.804 46.8794 114.418 45.5598 116.34 44.9763C119.942 43.8749 128.521 41.2352 130.417 40.5707C132.136 39.9712 132.698 40.9099 132.829 41.212C132.993 41.6104 133.014 42.0534 132.887 42.4654C132.761 42.8774 132.495 43.2327 132.136 43.4706C131.337 43.8888 127.991 45.8221 126.606 46.6214C127.011 46.82 127.355 47.1251 127.601 47.5041C127.847 47.8831 127.985 48.3218 128 48.7731C128.261 48.9278 128.485 49.1371 128.658 49.3865C128.83 49.636 128.947 49.9197 128.999 50.2184C129.1 50.7069 129.015 51.2153 128.762 51.6451C128.933 51.7688 129.075 51.9272 129.18 52.1098C129.342 52.3789 129.445 52.6791 129.481 52.9908C129.518 53.3024 129.489 53.6183 129.394 53.9176C129.264 54.2801 128.976 55.1445 128.706 55.9717C128.511 56.572 128.134 57.0966 127.626 57.4722C127.119 57.8479 126.507 58.056 125.876 58.0676L122.595 58.1281C122.354 58.9162 121.865 59.6056 121.201 60.0944C120.538 60.5831 119.734 60.8453 118.91 60.8421L109.1 84.5432C107.975 87.0387 105.712 88.6328 103.439 88.6328Z" fill="black"/>
<path d="M91.5513 58.7648C93.3638 63.2122 90.2966 66.8697 87.2015 67.3809C82.9492 68.0872 80.4397 65.0154 79.4452 62.4129L80.5931 60.5075C80.731 60.2795 80.817 60.0239 80.8452 59.7589C80.8733 59.4938 80.8427 59.2259 80.7557 58.9739L79.1849 54.4243C79.1849 54.4243 77.8279 55.8184 75.5229 54.5776C73.2178 53.3368 73.3944 49.4656 75.3788 49.8328C79.4545 50.5577 78.3531 47.3279 78.2508 45.1855C78.13 42.4901 81.1368 39.4136 85.3565 40.3291C86.9319 40.6776 86.6484 40.6637 86.6484 40.6637C90.831 44.5813 92.8247 56.1995 87.1132 54.6055C87.1132 54.6055 87.4943 55.5814 87.7452 56.2692C87.9028 56.6966 88.2144 57.0496 88.6189 57.2591L91.5513 58.7648Z" fill="#F4C7A8"/>
<path d="M87.6477 86.2115H87.578L72.7067 82.8422C72.663 82.8367 72.6209 82.822 72.5832 82.7992C72.5455 82.7764 72.5129 82.746 72.4877 82.7099C72.4624 82.6737 72.445 82.6327 72.4366 82.5895C72.4281 82.5462 72.4288 82.5017 72.4385 82.4587C72.4483 82.4158 72.4669 82.3753 72.4933 82.34C72.5196 82.3046 72.553 82.2752 72.5914 82.2535C72.6298 82.2319 72.6723 82.2185 72.7161 82.2142C72.76 82.21 72.8043 82.2149 72.8461 82.2288L87.4153 85.5098L90.8264 71.726L79.4127 69.9135C79.37 69.9089 79.3287 69.8956 79.2913 69.8745C79.2538 69.8534 79.2211 69.8248 79.1951 69.7906C79.1691 69.7564 79.1504 69.7173 79.14 69.6756C79.1296 69.6339 79.1279 69.5905 79.1348 69.5481C79.1418 69.5057 79.1573 69.4652 79.1805 69.429C79.2036 69.3928 79.2339 69.3617 79.2695 69.3377C79.3051 69.3136 79.3452 69.297 79.3874 69.2889C79.4296 69.2809 79.473 69.2815 79.5149 69.2908L91.2632 71.1497C91.3064 71.1561 91.3477 71.1716 91.3845 71.195C91.4213 71.2184 91.4528 71.2493 91.4769 71.2857C91.501 71.322 91.5172 71.3631 91.5244 71.4061C91.5316 71.4491 91.5297 71.4932 91.5188 71.5354L87.9544 85.942C87.9443 86.0163 87.9077 86.0845 87.8514 86.134C87.795 86.1836 87.7227 86.2111 87.6477 86.2115Z" fill="black"/>
<path d="M122.349 58.1467C122.302 58.1469 122.256 58.1374 122.214 58.1188C122.176 58.1009 122.143 58.0758 122.115 58.0448C122.087 58.0138 122.065 57.9776 122.052 57.9383C122.038 57.899 122.032 57.8574 122.034 57.8158C122.037 57.7742 122.047 57.7334 122.065 57.6959C122.827 56.1112 123.413 55.8649 123.701 55.8649L125.56 55.3584C125.641 55.3383 125.726 55.3503 125.798 55.392C125.87 55.4336 125.923 55.5015 125.946 55.5814C125.957 55.6211 125.96 55.6626 125.955 55.7036C125.95 55.7445 125.937 55.7841 125.917 55.82C125.897 55.8558 125.87 55.8873 125.837 55.9126C125.804 55.9379 125.767 55.9564 125.727 55.9672L123.827 56.4876C123.781 56.4969 123.733 56.4969 123.687 56.4876C123.71 56.4876 123.292 56.6038 122.641 57.9655C122.616 58.0211 122.574 58.068 122.522 58.1003C122.47 58.1325 122.41 58.1487 122.349 58.1467V58.1467Z" fill="black"/>
<path d="M121.317 53.3785C121.244 53.3786 121.173 53.3531 121.117 53.3063C121.061 53.2596 121.023 53.1947 121.01 53.1229C121.002 53.082 121.002 53.0399 121.011 52.999C121.019 52.9582 121.035 52.9193 121.058 52.8848C121.082 52.8502 121.112 52.8206 121.147 52.7977C121.181 52.7747 121.22 52.7589 121.261 52.7511L127.991 51.4638C128.069 51.4571 128.147 51.4796 128.209 51.5269C128.271 51.5743 128.314 51.6432 128.328 51.7203C128.343 51.7973 128.328 51.877 128.287 51.9438C128.246 52.0106 128.182 52.0599 128.107 52.0819L121.378 53.3692L121.317 53.3785Z" fill="black"/>
<path d="M120.936 50.5251C120.863 50.5261 120.791 50.5009 120.735 50.454C120.679 50.4072 120.641 50.3417 120.629 50.2695C120.621 50.2289 120.621 50.1871 120.629 50.1465C120.638 50.1059 120.654 50.0674 120.677 50.0332C120.701 49.999 120.731 49.9699 120.765 49.9474C120.8 49.9249 120.839 49.9096 120.88 49.9024L127.609 48.6151C127.65 48.607 127.692 48.6072 127.732 48.6155C127.773 48.6238 127.811 48.6401 127.845 48.6634C127.88 48.6868 127.909 48.7168 127.931 48.7516C127.954 48.7863 127.969 48.8253 127.976 48.866C127.991 48.9479 127.973 49.0325 127.926 49.1012C127.879 49.17 127.807 49.2174 127.725 49.2332L120.996 50.5205L120.936 50.5251Z" fill="black"/>
<path d="M119.495 48.3316C119.422 48.3317 119.352 48.3062 119.296 48.2595C119.24 48.2127 119.202 48.1478 119.189 48.076C119.181 48.0351 119.181 47.993 119.189 47.9522C119.197 47.9113 119.213 47.8725 119.237 47.8379C119.26 47.8033 119.29 47.7737 119.325 47.7508C119.36 47.7279 119.399 47.712 119.44 47.7042L126.169 46.417C126.247 46.4102 126.325 46.4327 126.387 46.4801C126.45 46.5275 126.492 46.5964 126.507 46.6734C126.521 46.7504 126.506 46.8301 126.466 46.8969C126.425 46.9638 126.36 47.013 126.285 47.035L119.556 48.3316H119.495Z" fill="black"/>
<path d="M102.156 73.1759H102.11L96.8678 72.4463C96.7922 72.4277 96.7261 72.3817 96.6822 72.3173C96.6384 72.253 96.6199 72.1746 96.6303 72.0974C96.6406 72.0202 96.6792 71.9496 96.7384 71.899C96.7977 71.8485 96.8736 71.8216 96.9514 71.8236L102.198 72.5532C102.275 72.5663 102.345 72.6076 102.393 72.669C102.442 72.7304 102.466 72.8077 102.461 72.8858C102.455 72.9639 102.421 73.0373 102.365 73.0917C102.309 73.1462 102.235 73.1779 102.156 73.1806V73.1759Z" fill="black"/>
<path d="M61.5994 99.8094L46.3935 175.899C46.3543 176.095 46.359 176.296 46.4071 176.49C46.4553 176.683 46.5457 176.863 46.672 177.018C46.7982 177.172 46.9571 177.296 47.1371 177.382C47.3172 177.467 47.514 177.512 47.7133 177.512H65.5263C65.8432 177.512 66.1499 177.4 66.3923 177.196C66.6346 176.992 66.797 176.709 66.8508 176.396L76.7495 119.189L90.1568 99.8094H61.5994Z" fill="black"/>
<path d="M90.1572 99.8094L102.789 129.724C107.199 140.166 97.4163 151.008 86.6067 147.662L37.6988 132.512C37.4665 132.439 37.2524 132.318 37.0706 132.156C36.8888 131.994 36.7434 131.795 36.6441 131.573C36.5448 131.351 36.4939 131.11 36.4946 130.866C36.4954 130.623 36.5479 130.382 36.6485 130.161L42.69 116.944C42.8624 116.554 43.1744 116.242 43.5648 116.07C43.9551 115.898 44.3956 115.878 44.7999 116.014L80.8952 128.418L75.0118 114.983L90.1572 99.8094Z" fill="black"/>
<path d="M49.0796 180.212L49.8325 179.677C50.0283 179.539 50.2494 179.441 50.4832 179.388C50.7171 179.336 50.959 179.33 51.1951 179.371C51.4313 179.412 51.657 179.499 51.8594 179.627C52.0618 179.756 52.2369 179.923 52.3745 180.119L52.7231 180.616C52.9145 180.894 53.0269 181.218 53.0482 181.554C53.0695 181.891 52.9989 182.227 52.8439 182.526L51.9516 184.209C51.7967 184.508 51.7261 184.844 51.7474 185.18C51.7687 185.517 51.881 185.841 52.0725 186.119L55.0932 190.413C55.2599 190.65 55.4809 190.845 55.738 190.98C55.9951 191.115 56.2807 191.187 56.571 191.189L61.5529 191.231C61.8425 191.233 62.1274 191.305 62.3836 191.44C62.6399 191.575 62.8602 191.769 63.0261 192.007C63.3189 192.42 63.5884 193.006 63.3189 193.443L61.2555 196.166C60.4469 197.239 62.1849 199.28 62.7147 200.813C64.8199 206.729 69.7275 204.601 70.0249 210.289V213.449C70.0249 213.449 58.1418 213.347 56.6082 213.04C56.6082 213.04 52.6069 207.9 51.7658 206.701L38.5024 187.819L49.0796 180.212Z" fill="#E95440"/>
<path d="M68.7798 218.752H57.4265C56.6361 218.754 55.8531 218.599 55.1231 218.296C54.3931 217.993 53.7306 217.547 53.1743 216.986C51.7801 215.592 49.0429 212.092 48.9267 211.948L35.8307 193.968C35.2709 193.197 35.038 192.237 35.1825 191.295C35.3269 190.354 35.8371 189.507 36.6021 188.94L38.317 187.68C38.3501 187.654 38.3883 187.635 38.4291 187.625C38.4699 187.614 38.5124 187.613 38.554 187.62C38.6363 187.635 38.7096 187.682 38.7585 187.75L54.1316 209.197C54.1559 209.23 54.1734 209.268 54.183 209.308C54.1927 209.348 54.1943 209.389 54.1878 209.43C54.1814 209.471 54.1669 209.509 54.1453 209.544C54.1237 209.579 54.0953 209.61 54.0619 209.634C54.0277 209.662 53.988 209.683 53.9453 209.695C53.9026 209.706 53.8579 209.709 53.814 209.703C53.7702 209.696 53.7282 209.68 53.6909 209.656C53.6535 209.633 53.6216 209.601 53.5972 209.564L38.4331 188.373L36.9739 189.446C36.3434 189.915 35.9231 190.614 35.8039 191.39C35.6847 192.167 35.8763 192.96 36.3372 193.596L49.4286 211.567C49.4286 211.595 52.217 215.155 53.6111 216.54C54.1096 217.043 54.7033 217.442 55.3576 217.713C56.0119 217.984 56.7136 218.123 57.4219 218.12H68.7798C69.0263 218.12 69.2627 218.022 69.4371 217.848C69.6114 217.673 69.7093 217.437 69.7093 217.19V213.445C69.7093 213.361 69.7426 213.28 69.8018 213.221C69.8611 213.162 69.9415 213.129 70.0253 213.129C70.1091 213.129 70.1895 213.162 70.2488 213.221C70.308 213.28 70.3413 213.361 70.3413 213.445V217.19C70.3377 217.603 70.172 217.998 69.8799 218.29C69.5879 218.582 69.1928 218.748 68.7798 218.752V218.752Z" fill="black"/>
<path d="M43.7774 195.246L43.2197 194.93L45.3017 191.342C45.6886 190.67 45.9387 189.929 46.0376 189.16C46.1366 188.391 46.0823 187.61 45.878 186.862L44.8556 183.102L45.4644 182.931L46.4961 186.681C46.7228 187.509 46.7832 188.374 46.674 189.226C46.5647 190.078 46.2878 190.9 45.8594 191.644L43.7774 195.246Z" fill="black"/>
<path d="M61.4742 205.442C61.2667 205.441 61.0609 205.404 60.8654 205.335C60.6317 205.26 60.4153 205.139 60.2286 204.979C60.042 204.82 59.8888 204.625 59.7779 204.406L58.1978 201.153C57.9773 200.702 57.9439 200.183 58.105 199.709C58.2661 199.234 58.6086 198.843 59.0576 198.62L61.0327 197.649C61.07 197.629 61.1109 197.617 61.153 197.614C61.195 197.61 61.2373 197.615 61.2774 197.628C61.3175 197.641 61.3546 197.662 61.3864 197.69C61.4183 197.717 61.4443 197.751 61.4629 197.789C61.4815 197.827 61.4923 197.868 61.4948 197.91C61.4972 197.952 61.4912 197.994 61.4771 198.034C61.463 198.074 61.4411 198.11 61.4126 198.142C61.3842 198.173 61.3498 198.198 61.3115 198.215L59.3364 199.187C59.1873 199.259 59.0541 199.36 58.9447 199.485C58.8354 199.609 58.7521 199.755 58.6997 199.912C58.5915 200.228 58.6132 200.574 58.7602 200.874L60.3449 204.127C60.4172 204.275 60.5182 204.408 60.642 204.518C60.7658 204.627 60.91 204.711 61.0663 204.764C61.2226 204.818 61.388 204.84 61.5529 204.83C61.7178 204.819 61.8789 204.776 62.0272 204.703L64.0023 203.732C64.0775 203.695 64.1642 203.689 64.2435 203.716C64.3228 203.743 64.3882 203.801 64.4252 203.876C64.4609 203.951 64.4658 204.038 64.4389 204.117C64.412 204.195 64.3554 204.261 64.2811 204.299L62.306 205.27C62.0455 205.39 61.7609 205.449 61.4742 205.442V205.442Z" fill="black"/>
<path d="M58.7508 201.854C58.6917 201.854 58.6339 201.838 58.5838 201.807C58.5337 201.775 58.4933 201.731 58.4673 201.678C58.4492 201.641 58.4388 201.6 58.4365 201.559C58.4342 201.518 58.4402 201.476 58.454 201.437C58.4679 201.399 58.4893 201.363 58.5171 201.332C58.5449 201.302 58.5785 201.277 58.616 201.259L62.1619 199.559C62.2352 199.534 62.3152 199.537 62.3866 199.567C62.4579 199.597 62.5157 199.652 62.549 199.722C62.5823 199.792 62.5887 199.872 62.567 199.946C62.5453 200.021 62.4971 200.084 62.4314 200.126L58.8855 201.826C58.843 201.845 58.7971 201.854 58.7508 201.854V201.854Z" fill="black"/>
<path d="M59.7126 203.885C59.6416 203.884 59.5731 203.859 59.5181 203.814C59.463 203.77 59.4246 203.708 59.4091 203.639C59.3935 203.569 59.4017 203.497 59.4323 203.433C59.4629 203.369 59.5142 203.317 59.5778 203.286L63.1237 201.585C63.1993 201.55 63.2855 201.547 63.3635 201.576C63.4415 201.604 63.5052 201.662 63.5406 201.738C63.5761 201.813 63.5805 201.899 63.5529 201.977C63.5253 202.056 63.4679 202.12 63.3932 202.156L59.8473 203.853C59.806 203.875 59.7595 203.886 59.7126 203.885V203.885Z" fill="black"/>
<path d="M72.4463 144.349H72.3952C72.3127 144.335 72.239 144.289 72.1902 144.221C72.1414 144.154 72.1215 144.069 72.135 143.986L75.0906 126.201L76.4523 119.04L82.4937 112.966C82.5229 112.933 82.5587 112.907 82.5988 112.889C82.6388 112.871 82.6822 112.862 82.7261 112.862C82.77 112.862 82.8134 112.871 82.8534 112.889C82.8934 112.907 82.9292 112.933 82.9585 112.966C82.9899 112.996 83.015 113.032 83.0322 113.072C83.0493 113.112 83.0581 113.155 83.0581 113.198C83.0581 113.242 83.0493 113.285 83.0322 113.325C83.015 113.365 82.9899 113.401 82.9585 113.431L77.0332 119.342L75.7087 126.313L72.7577 144.065C72.7487 144.142 72.7123 144.213 72.6551 144.265C72.5978 144.318 72.5237 144.347 72.4463 144.349V144.349Z" fill="#FAF5FF"/>
<path d="M53.6528 138.977H53.5924C53.5102 138.959 53.4383 138.909 53.3922 138.839C53.3461 138.768 53.3296 138.683 53.3461 138.6L57.1615 120.299C57.1794 120.218 57.2284 120.148 57.2979 120.102C57.3675 120.057 57.452 120.041 57.5333 120.058C57.5737 120.066 57.6121 120.082 57.6462 120.105C57.6803 120.129 57.7094 120.158 57.7319 120.193C57.7544 120.228 57.7698 120.266 57.7772 120.307C57.7846 120.347 57.7838 120.389 57.775 120.429L53.9456 138.726C53.9313 138.794 53.8949 138.856 53.8419 138.901C53.789 138.946 53.7225 138.973 53.6528 138.977V138.977Z" fill="#FAF5FF"/>
<path d="M67.074 114.444C67.0296 114.449 66.9846 114.445 66.9418 114.432C66.8991 114.418 66.8597 114.396 66.8262 114.367C66.7928 114.337 66.766 114.301 66.7476 114.26C66.7292 114.219 66.7197 114.175 66.7197 114.13C66.7197 114.085 66.7292 114.041 66.7476 114C66.766 113.959 66.7928 113.923 66.8262 113.893C66.8597 113.864 66.8991 113.842 66.9418 113.828C66.9846 113.815 67.0296 113.811 67.074 113.816C71.1915 113.816 73.4686 110.024 73.4686 107.403C73.4686 107.319 73.5019 107.239 73.5612 107.18C73.6205 107.12 73.7008 107.087 73.7847 107.087C73.8685 107.087 73.9488 107.12 74.0081 107.18C74.0674 107.239 74.1007 107.319 74.1007 107.403C74.1007 110.735 71.2147 114.444 67.074 114.444Z" fill="#FAF5FF"/>
<path d="M88.6236 47.7089L88.052 47.4487C88.052 47.4487 88.3587 46.7841 88.5725 46.2729C88.5846 46.2467 88.5908 46.2182 88.5908 46.1893C88.5908 46.1604 88.5846 46.1318 88.5725 46.1056C88.5563 46.0763 88.5344 46.0504 88.508 46.0297C88.4817 46.0089 88.4514 45.9937 88.4191 45.9848C87.8104 45.8415 87.2743 45.4823 86.9102 44.9738C86.5462 44.4654 86.3789 43.8421 86.4394 43.2197C86.4546 42.8109 86.6251 42.4233 86.916 42.1358C87.207 41.8483 87.5966 41.6825 88.0055 41.6721C88.0821 41.6815 88.1527 41.7185 88.2038 41.7763C88.255 41.8341 88.2833 41.9086 88.2833 41.9858C88.2833 42.063 88.255 42.1375 88.2038 42.1953C88.1527 42.2531 88.0821 42.2902 88.0055 42.2995C87.7509 42.3167 87.5118 42.4281 87.3348 42.6119C87.1579 42.7958 87.0557 43.0389 87.0482 43.294C87.0003 43.7666 87.1257 44.2406 87.4009 44.6278C87.6761 45.0149 88.0825 45.2891 88.5446 45.3992C88.6657 45.4316 88.7783 45.49 88.8746 45.5702C88.9709 45.6505 89.0486 45.7507 89.1023 45.864C89.1516 45.9719 89.1771 46.0892 89.1771 46.2079C89.1771 46.3265 89.1516 46.4438 89.1023 46.5518C88.935 47.0351 88.6236 47.7089 88.6236 47.7089Z" fill="black"/>
<path d="M81.7455 47.7089C81.6743 47.7077 81.6055 47.6829 81.55 47.6383C81.4944 47.5937 81.4553 47.5319 81.4388 47.4626C81.3619 47.114 81.3664 46.7524 81.4518 46.4059C81.5372 46.0593 81.7014 45.7371 81.9314 45.4642C82.1604 45.1909 82.4505 44.9752 82.7783 44.8347C83.1061 44.6943 83.4623 44.6329 83.8182 44.6556C83.9016 44.6616 83.9794 44.6999 84.035 44.7624C84.0906 44.8249 84.1195 44.9067 84.1157 44.9902C84.1133 45.0316 84.1027 45.072 84.0846 45.1092C84.0664 45.1464 84.041 45.1796 84.0098 45.2069C83.9787 45.2341 83.9424 45.2549 83.9031 45.268C83.8638 45.281 83.8223 45.2862 83.781 45.283C83.5226 45.2661 83.2638 45.3104 83.0257 45.4121C82.7875 45.5138 82.5766 45.6702 82.4101 45.8686C82.2435 46.0667 82.1245 46.3005 82.0625 46.5519C82.0005 46.8033 81.997 47.0656 82.0523 47.3185C82.0706 47.3998 82.0566 47.485 82.0133 47.5561C81.9699 47.6272 81.9005 47.6787 81.8199 47.6996L81.7455 47.7089Z" fill="black"/>
<path d="M84.5479 47.6997C84.5761 47.8154 84.5709 47.9368 84.533 48.0498C84.4952 48.1628 84.4261 48.2628 84.3339 48.3382C84.2416 48.4136 84.1299 48.4615 84.0117 48.4762C83.8934 48.4908 83.7734 48.4718 83.6655 48.4212C83.5576 48.3706 83.4662 48.2906 83.4019 48.1903C83.3375 48.09 83.3028 47.9736 83.3018 47.8544C83.3007 47.7353 83.3334 47.6182 83.396 47.5168C83.4587 47.4155 83.5486 47.3338 83.6557 47.2814C83.8295 47.2199 84.0206 47.2293 84.1876 47.3076C84.3545 47.3858 84.484 47.5267 84.5479 47.6997V47.6997Z" fill="black"/>
<path d="M88.9908 44.9159C89.0182 45.0318 89.0122 45.153 88.9737 45.2656C88.9352 45.3782 88.8656 45.4777 88.7731 45.5525C88.6805 45.6273 88.5687 45.6745 88.4505 45.6886C88.3323 45.7027 88.2125 45.6831 88.105 45.6322C87.9974 45.5812 87.9065 45.5009 87.8425 45.4005C87.7786 45.3001 87.7443 45.1836 87.7437 45.0646C87.743 44.9456 87.7759 44.8288 87.8387 44.7277C87.9015 44.6265 87.9916 44.5452 88.0985 44.493C88.273 44.433 88.4641 44.4436 88.6308 44.5227C88.7976 44.6017 88.9268 44.7428 88.9908 44.9159V44.9159Z" fill="black"/>
<path d="M88.2565 51.1199C87.9696 51.116 87.6889 51.0358 87.4432 50.8876C87.372 50.8442 87.3208 50.7745 87.3007 50.6935C87.2807 50.6125 87.2935 50.5269 87.3363 50.4554C87.357 50.4199 87.3845 50.3888 87.4172 50.364C87.4499 50.3391 87.4872 50.321 87.5269 50.3106C87.5666 50.3003 87.608 50.2979 87.6487 50.3036C87.6894 50.3093 87.7285 50.3229 87.7639 50.3438C87.8808 50.4204 88.0141 50.4684 88.153 50.4837C88.2919 50.4991 88.4324 50.4814 88.5632 50.4321C88.6871 50.3776 88.7969 50.2958 88.8847 50.1928C88.9724 50.0898 89.0357 49.9682 89.0698 49.8373C89.0795 49.7972 89.0971 49.7595 89.1217 49.7265C89.1463 49.6934 89.1773 49.6656 89.2129 49.6448C89.2485 49.624 89.2879 49.6105 89.3288 49.6053C89.3696 49.6 89.4112 49.6031 89.4508 49.6142C89.4911 49.6245 89.5289 49.6426 89.562 49.6677C89.5951 49.6927 89.6228 49.7242 89.6436 49.7601C89.6644 49.796 89.6778 49.8358 89.683 49.877C89.6882 49.9181 89.6851 49.96 89.6739 49.9999C89.6162 50.2247 89.5073 50.4331 89.3558 50.6089C89.2042 50.7846 89.0141 50.9229 88.8002 51.013C88.6282 51.0854 88.4431 51.1218 88.2565 51.1199V51.1199Z" fill="black"/>
<path d="M87.8844 55.098C87.1549 55.0734 86.439 54.8945 85.7838 54.5729C85.7074 54.5378 85.648 54.4737 85.6188 54.3949C85.5896 54.316 85.593 54.2287 85.6281 54.1523C85.6632 54.0759 85.7273 54.0166 85.8062 53.9874C85.885 53.9582 85.9723 53.9615 86.0487 53.9966C87.243 54.5497 88.2236 54.6194 88.9579 54.2058C89.3275 53.9564 89.6366 53.6274 89.8626 53.2431C90.0885 52.8587 90.2256 52.4286 90.2638 51.9844C90.2758 51.903 90.319 51.8295 90.3843 51.7795C90.4497 51.7295 90.5319 51.707 90.6136 51.7167C90.6953 51.7264 90.77 51.7675 90.8218 51.8314C90.8736 51.8952 90.8985 51.9768 90.8911 52.0587C90.854 52.3794 90.5937 54.0059 89.2646 54.7542C88.8425 54.9876 88.3666 55.1062 87.8844 55.098Z" fill="black"/>
<path d="M88.8791 67.3018C88.8217 67.3023 88.7653 67.2869 88.7161 67.2574C88.6669 67.2279 88.6268 67.1853 88.6002 67.1345C88.5608 67.0605 88.5524 66.9739 88.5768 66.8937C88.6012 66.8136 88.6564 66.7463 88.7304 66.7069C91.4723 65.2477 92.4064 62.4407 91.3096 58.9924L88.9256 57.8399C88.2747 57.5284 87.7736 56.9721 87.5314 56.2924L87.0667 55.0283C87.0467 54.9884 87.0354 54.9448 87.0335 54.9002C87.0316 54.8556 87.0392 54.8112 87.0557 54.7697C87.0722 54.7283 87.0973 54.6908 87.1294 54.6598C87.1614 54.6288 87.1997 54.6049 87.2416 54.5897C87.2835 54.5745 87.3282 54.5684 87.3727 54.5717C87.4172 54.575 87.4605 54.5877 87.4997 54.6089C87.5389 54.6302 87.5732 54.6595 87.6003 54.6949C87.6274 54.7303 87.6466 54.7711 87.6569 54.8145L88.1216 56.0786C88.3089 56.6021 88.6944 57.0311 89.1951 57.2729L91.7 58.4812C91.7385 58.4993 91.7728 58.5251 91.8008 58.5571C91.8288 58.5891 91.8499 58.6266 91.8626 58.6671C93.1313 62.4918 92.0996 65.638 89.0231 67.2646C88.9786 67.2878 88.9293 67.3005 88.8791 67.3018V67.3018Z" fill="black"/>
<path d="M79.315 62.8451C79.2611 62.8449 79.2082 62.8304 79.1616 62.8033C79.1257 62.783 79.0942 62.7558 79.0689 62.7233C79.0436 62.6908 79.025 62.6535 79.0142 62.6138C79.0034 62.574 79.0006 62.5325 79.006 62.4916C79.0113 62.4507 79.0248 62.4113 79.0455 62.3757L80.0074 60.6934C80.204 60.3487 80.3248 59.966 80.3617 59.5709C80.3985 59.1758 80.3507 58.7774 80.2212 58.4023L78.827 54.387C78.8132 54.348 78.8072 54.3066 78.8096 54.2653C78.8119 54.2239 78.8225 54.1834 78.8407 54.1462C78.8588 54.109 78.8843 54.0758 78.9154 54.0485C78.9466 54.0212 78.9829 54.0004 79.0222 53.9874C79.1011 53.9607 79.1874 53.9662 79.2622 54.0028C79.337 54.0393 79.3944 54.1039 79.4219 54.1826L80.8161 58.1978C80.9734 58.6544 81.0315 59.1392 80.9866 59.6201C80.9418 60.1009 80.7949 60.5666 80.5558 60.9862L79.5892 62.6685C79.5639 62.7201 79.5249 62.7638 79.4766 62.7949C79.4283 62.826 79.3724 62.8434 79.315 62.8451V62.8451Z" fill="black"/>
<path d="M182.773 60.4517L179.905 58.0583C179.583 57.7886 179.202 57.597 178.793 57.4985C178.384 57.3999 177.958 57.3971 177.548 57.4902C177.138 57.5833 176.755 57.7698 176.429 58.0352C176.102 58.3006 175.842 58.6377 175.667 59.0203L175.463 59.485C175.262 59.9332 174.936 60.3136 174.523 60.5801C174.111 60.8465 173.63 60.9876 173.139 60.9861H160.238C159.747 60.9881 159.266 60.8473 158.853 60.5808C158.441 60.3143 158.115 59.9336 157.915 59.485L157.71 59.0203C157.538 58.6351 157.279 58.295 156.953 58.0266C156.628 57.7583 156.244 57.569 155.833 57.4735C155.422 57.3781 154.995 57.3791 154.584 57.4766C154.174 57.574 153.791 57.7652 153.467 58.0351L150.6 60.4284C150.106 60.8385 149.772 61.4083 149.655 62.039C149.538 62.6697 149.645 63.3215 149.958 63.8814L151.157 66.033C152.688 68.8639 153.096 72.1675 152.301 75.2858C151.667 77.9305 151.812 80.7022 152.72 83.266C153.627 85.8299 155.257 88.0764 157.413 89.7341L165.629 96.0265C165.928 96.2549 166.294 96.3787 166.67 96.3787C167.046 96.3787 167.412 96.2549 167.711 96.0265L175.941 89.7341C178.096 88.0763 179.725 85.8306 180.632 83.2678C181.539 80.705 181.685 77.9345 181.053 75.2904C180.257 72.1767 180.66 68.8773 182.183 66.047L183.382 63.8999C183.695 63.3437 183.806 62.6957 183.695 62.0667C183.584 61.4377 183.258 60.8669 182.773 60.4517V60.4517Z" fill="#FF9B38"/>
<path d="M166.684 96.7051C166.238 96.7059 165.805 96.5588 165.452 96.2869L157.236 89.9898C155.031 88.297 153.362 86.0023 152.432 83.3825C151.502 80.7627 151.35 77.9298 151.994 75.2254C152.77 72.1884 152.377 68.9706 150.892 66.2097L149.693 64.058C149.345 63.4332 149.225 62.7061 149.356 62.0026C149.486 61.299 149.859 60.6633 150.409 60.2054L153.276 57.8167C153.638 57.5151 154.064 57.3014 154.522 57.1923C154.979 57.0832 155.456 57.0817 155.915 57.188C156.373 57.2943 156.801 57.5054 157.164 57.8048C157.527 58.1042 157.816 58.4837 158.007 58.9135L158.212 59.3782C158.39 59.768 158.675 60.0986 159.035 60.3309C159.395 60.5632 159.814 60.6874 160.243 60.6888H173.148C173.576 60.6882 173.995 60.5643 174.354 60.3319C174.714 60.0994 174.998 59.7683 175.174 59.3782L175.379 58.9135C175.571 58.4844 175.86 58.1056 176.223 57.8068C176.587 57.508 177.014 57.2972 177.472 57.191C177.93 57.0848 178.407 57.086 178.864 57.1946C179.322 57.3031 179.748 57.5161 180.11 57.8167L182.977 60.2054C183.526 60.6652 183.897 61.302 184.027 62.0061C184.157 62.7101 184.037 63.4375 183.688 64.0627L182.489 66.2097C181.004 68.9703 180.612 72.1891 181.392 75.2254C182.034 77.9316 181.879 80.7657 180.946 83.3856C180.012 86.0055 178.34 88.2992 176.132 89.9898L167.901 96.2869C167.552 96.5559 167.125 96.7028 166.684 96.7051V96.7051ZM155.219 57.7377C154.655 57.7385 154.109 57.9376 153.676 58.3001L150.809 60.6934C150.372 61.0565 150.076 61.5612 149.972 62.1198C149.869 62.6784 149.964 63.2557 150.242 63.7513L151.441 65.903C153.003 68.8007 153.418 72.18 152.603 75.3695C151.988 77.9564 152.134 80.666 153.023 83.1718C153.913 85.6775 155.508 87.8726 157.617 89.4926L165.833 95.785C166.077 95.9726 166.376 96.0744 166.684 96.0744C166.991 96.0744 167.29 95.9726 167.534 95.785L175.765 89.4926C177.874 87.873 179.469 85.678 180.359 83.1721C181.249 80.6662 181.395 77.9564 180.779 75.3695C179.966 72.1799 180.381 68.8014 181.941 65.903L183.14 63.756C183.417 63.2594 183.512 62.6816 183.409 62.1224C183.305 61.5633 183.009 61.0578 182.573 60.6934L179.705 58.3001C179.418 58.0617 179.08 57.8928 178.717 57.8067C178.354 57.7206 177.976 57.7196 177.613 57.8037C177.249 57.8879 176.91 58.0549 176.622 58.2917C176.333 58.5286 176.104 58.8288 175.95 59.1691L175.746 59.6338C175.521 60.1349 175.156 60.5606 174.695 60.8597C174.235 61.1589 173.697 61.319 173.148 61.3208H160.238C159.688 61.3193 159.15 61.1594 158.689 60.8603C158.227 60.5611 157.861 60.1353 157.636 59.6338L157.431 59.1691C157.279 58.8274 157.05 58.526 156.761 58.2888C156.472 58.0515 156.132 57.8851 155.767 57.8028C155.588 57.7605 155.404 57.7387 155.219 57.7377V57.7377Z" fill="black"/>
<path d="M164.328 35.1659C164.328 34.8387 164.425 34.5188 164.606 34.2468C164.788 33.9747 165.047 33.7626 165.349 33.6374C165.651 33.5122 165.984 33.4794 166.305 33.5433C166.626 33.6071 166.921 33.7647 167.152 33.996C167.383 34.2274 167.541 34.5222 167.605 34.8431C167.669 35.1641 167.636 35.4967 167.511 35.799C167.385 36.1013 167.173 36.3597 166.901 36.5415C166.629 36.7233 166.309 36.8203 165.982 36.8203C165.544 36.8191 165.124 36.6444 164.814 36.3344C164.504 36.0244 164.329 35.6043 164.328 35.1659V35.1659Z" fill="#E95440"/>
<path d="M165.982 37.1363C165.591 37.1373 165.209 37.0221 164.883 36.8054C164.558 36.5887 164.304 36.2803 164.154 35.9192C164.004 35.5581 163.964 35.1606 164.04 34.7771C164.116 34.3935 164.304 34.0411 164.581 33.7646C164.857 33.4881 165.21 33.2999 165.593 33.2239C165.977 33.1478 166.374 33.1873 166.736 33.3374C167.097 33.4875 167.405 33.7413 167.622 34.0668C167.838 34.3924 167.954 34.7749 167.953 35.1659C167.953 35.6885 167.745 36.1897 167.375 36.5592C167.006 36.9287 166.505 37.1363 165.982 37.1363V37.1363ZM165.982 33.8228C165.716 33.8182 165.454 33.893 165.23 34.0378C165.006 34.1825 164.83 34.3906 164.725 34.6356C164.62 34.8806 164.59 35.1513 164.639 35.4134C164.688 35.6754 164.814 35.9169 165.001 36.1071C165.188 36.2972 165.427 36.4275 165.688 36.4812C165.949 36.5349 166.221 36.5097 166.467 36.4088C166.714 36.3079 166.925 36.1358 167.074 35.9144C167.223 35.6931 167.302 35.4325 167.302 35.1659C167.303 34.8133 167.165 34.4745 166.918 34.223C166.671 33.9715 166.335 33.8277 165.982 33.8228Z" fill="black"/>
<path d="M180.574 92.8246H177.526C177.481 92.8301 177.436 92.826 177.393 92.8127C177.351 92.7994 177.311 92.7772 177.278 92.7475C177.244 92.7179 177.218 92.6815 177.199 92.6407C177.181 92.5999 177.171 92.5557 177.171 92.511C177.171 92.4662 177.181 92.422 177.199 92.3812C177.218 92.3404 177.244 92.304 177.278 92.2744C177.311 92.2447 177.351 92.2225 177.393 92.2092C177.436 92.1959 177.481 92.1918 177.526 92.1973H180.593C181.257 92.1948 181.893 91.9303 182.363 91.4612C182.833 90.9921 183.099 90.3564 183.102 89.6924V86.8204C183.112 86.7438 183.149 86.6732 183.207 86.622C183.264 86.5709 183.339 86.5426 183.416 86.5426C183.493 86.5426 183.568 86.5709 183.626 86.622C183.683 86.6732 183.72 86.7438 183.73 86.8204V89.6924C183.726 90.526 183.392 91.3241 182.8 91.9114C182.208 92.4986 181.408 92.8271 180.574 92.8246V92.8246Z" fill="black"/>
<path d="M155.349 117.464H152.454C151.669 117.463 150.917 117.151 150.363 116.596C149.809 116.041 149.498 115.288 149.498 114.504V104.643C149.493 104.598 149.497 104.553 149.51 104.51C149.523 104.468 149.545 104.428 149.575 104.395C149.605 104.361 149.641 104.335 149.682 104.316C149.723 104.298 149.767 104.288 149.812 104.288C149.856 104.288 149.901 104.298 149.941 104.316C149.982 104.335 150.019 104.361 150.048 104.395C150.078 104.428 150.1 104.468 150.113 104.51C150.127 104.553 150.131 104.598 150.125 104.643V114.504C150.125 115.12 150.37 115.711 150.806 116.147C151.242 116.583 151.833 116.828 152.449 116.828H155.344C155.428 116.828 155.508 116.861 155.568 116.92C155.627 116.98 155.66 117.06 155.66 117.144C155.66 117.228 155.627 117.308 155.568 117.367C155.508 117.426 155.428 117.46 155.344 117.46L155.349 117.464Z" fill="black"/>
<path d="M78.1255 59.0203H73.7059C73.651 59.0211 73.5967 59.0076 73.5486 58.981C73.5005 58.9545 73.4601 58.9158 73.4315 58.8689C73.4029 58.822 73.387 58.7684 73.3854 58.7134C73.3838 58.6585 73.3966 58.6041 73.4225 58.5556L75.6113 53.6713C75.6284 53.6335 75.6528 53.5993 75.683 53.5709C75.7133 53.5425 75.7489 53.5203 75.7877 53.5056C75.8265 53.4909 75.8679 53.4841 75.9094 53.4854C75.9509 53.4867 75.9917 53.4962 76.0296 53.5133C76.1052 53.5487 76.164 53.6122 76.1935 53.6903C76.223 53.7684 76.2209 53.855 76.1876 53.9316L74.1939 58.3697H77.6375L76.1597 55.0608C76.1426 55.023 76.1331 54.9822 76.1318 54.9407C76.1305 54.8992 76.1373 54.8578 76.152 54.819C76.1667 54.7801 76.1889 54.7446 76.2173 54.7143C76.2457 54.684 76.2798 54.6597 76.3177 54.6426C76.3552 54.6256 76.3957 54.6162 76.4369 54.6149C76.478 54.6136 76.519 54.6206 76.5575 54.6353C76.5959 54.65 76.6311 54.6721 76.661 54.7005C76.6908 54.7289 76.7147 54.7629 76.7313 54.8006L78.409 58.5556C78.4348 58.6041 78.4476 58.6585 78.446 58.7134C78.4445 58.7684 78.4286 58.822 78.3999 58.8689C78.3713 58.9158 78.3309 58.9545 78.2828 58.981C78.2347 59.0076 78.1805 59.0211 78.1255 59.0203V59.0203Z" fill="black"/>
<path d="M74.7282 38.3678C73.9103 39.367 72.1908 40.3987 71.6099 42.3505L68.9935 40.3011C68.8963 40.2258 68.833 40.115 68.8173 39.9931C68.8016 39.8711 68.8349 39.7479 68.9098 39.6505L71.438 36.3974C71.5132 36.3016 71.623 36.2391 71.7438 36.2235C71.8646 36.2078 71.9868 36.2402 72.0839 36.3137L74.7282 38.3678Z" fill="#E95440"/>
<path d="M10.4005 58.3883C9.56142 58.3806 8.75133 58.0804 8.10975 57.5397C7.46816 56.9989 7.03522 56.2513 6.88551 55.4257C6.7358 54.6 6.87867 53.748 7.28953 53.0164C7.70039 52.2848 8.35351 51.7193 9.13642 51.4174C10.025 51.1064 11.0001 51.1557 11.8529 51.5547C12.7056 51.9538 13.3682 52.6709 13.6987 53.5525C14.0292 54.4341 14.0014 55.41 13.6212 56.2713C13.241 57.1326 12.5386 57.8108 11.6645 58.1606C11.26 58.3109 10.832 58.388 10.4005 58.3883V58.3883ZM10.4005 51.8125C9.9665 51.8141 9.53817 51.9109 9.14564 52.096C8.7531 52.281 8.4059 52.5499 8.12846 52.8836C7.85103 53.2173 7.65011 53.6078 7.53985 54.0275C7.42959 54.4473 7.41266 54.8861 7.49026 55.313C7.56787 55.74 7.73811 56.1448 7.98901 56.4989C8.23991 56.853 8.56537 57.1478 8.94249 57.3626C9.3196 57.5773 9.7392 57.7068 10.1718 57.7419C10.6043 57.777 11.0393 57.7169 11.4461 57.5658V57.5658C12.0947 57.3185 12.6364 56.8521 12.9773 56.2474C13.3183 55.6427 13.4369 54.9378 13.3128 54.2548C13.1887 53.5718 12.8296 52.9538 12.2977 52.5077C11.7658 52.0617 11.0946 51.8157 10.4005 51.8125V51.8125Z" fill="black"/>
<path d="M172.102 181.244C170.812 181.244 169.568 180.761 168.616 179.89C167.663 179.02 167.071 177.824 166.955 176.539C166.84 175.254 167.209 173.972 167.991 172.946C168.772 171.919 169.909 171.222 171.179 170.991C172.449 170.761 173.758 171.013 174.851 171.7C175.944 172.386 176.74 173.456 177.084 174.7C177.427 175.944 177.293 177.271 176.707 178.421C176.122 179.571 175.127 180.46 173.919 180.914V180.914C173.338 181.131 172.723 181.243 172.102 181.244V181.244ZM172.093 171.484C171.547 171.486 171.005 171.585 170.494 171.777C169.433 172.178 168.559 172.961 168.046 173.973C167.532 174.985 167.416 176.153 167.72 177.246C168.024 178.339 168.726 179.28 169.688 179.882C170.649 180.484 171.802 180.704 172.918 180.5C174.034 180.296 175.034 179.681 175.72 178.777C176.406 177.873 176.729 176.745 176.625 175.615C176.522 174.485 175.999 173.435 175.161 172.67C174.322 171.906 173.228 171.483 172.093 171.484V171.484Z" fill="black"/>
<path d="M18.8911 69.9321C18.3885 69.9347 17.903 69.749 17.5304 69.4116C17.1577 69.0742 16.9249 68.6096 16.8776 68.1092C16.8303 67.6087 16.972 67.1087 17.2749 66.7075C17.5777 66.3063 18.0198 66.033 18.514 65.9413C19.0083 65.8497 19.5189 65.9463 19.9455 66.2123C20.3721 66.4782 20.6837 66.8942 20.819 67.3783C20.9542 67.8624 20.9034 68.3797 20.6765 68.8282C20.4496 69.2768 20.063 69.6241 19.5929 69.802C19.3688 69.8877 19.131 69.9318 18.8911 69.9321V69.9321ZM18.8865 66.5442C18.7276 66.5461 18.5702 66.5759 18.4217 66.6325C18.0947 66.755 17.8255 66.9957 17.6674 67.3071C17.5093 67.6185 17.4739 67.9778 17.568 68.3141C17.6622 68.6504 17.8791 68.9391 18.1759 69.1231C18.4727 69.3071 18.8277 69.3731 19.1708 69.3079C19.5139 69.2427 19.82 69.0512 20.0286 68.7711C20.2373 68.4911 20.3332 68.1429 20.2974 67.7955C20.2617 67.4481 20.0969 67.1268 19.8356 66.8951C19.5744 66.6634 19.2356 66.5382 18.8865 66.5442V66.5442Z" fill="black"/>
<path d="M74.7329 20.6293C74.2302 20.6318 73.7448 20.4461 73.3722 20.1087C72.9995 19.7714 72.7667 19.3067 72.7194 18.8063C72.6721 18.3059 72.8138 17.8058 73.1167 17.4046C73.4195 17.0034 73.8616 16.7301 74.3558 16.6385C74.8501 16.5468 75.3607 16.6435 75.7873 16.9094C76.2139 17.1754 76.5255 17.5913 76.6607 18.0755C76.796 18.5596 76.7452 19.0768 76.5183 19.5254C76.2914 19.9739 75.9048 20.3213 75.4347 20.4991C75.2106 20.5849 74.9728 20.629 74.7329 20.6293V20.6293ZM74.7329 17.2414C74.4694 17.2443 74.2121 17.3217 73.9909 17.4649C73.7696 17.608 73.5935 17.8109 73.4828 18.05C73.3706 18.2975 73.3345 18.5727 73.379 18.8407C73.4236 19.1087 73.5467 19.3574 73.7328 19.5553C73.919 19.7532 74.1597 19.8913 74.4245 19.9522C74.6893 20.013 74.9662 19.9938 75.2201 19.8969C75.4739 19.8001 75.6932 19.6301 75.8503 19.4083C76.0073 19.1866 76.0949 18.9232 76.1019 18.6517C76.109 18.3801 76.0352 18.1125 75.8899 17.8829C75.7446 17.6533 75.5344 17.4721 75.2859 17.3622C75.1099 17.2854 74.9203 17.2443 74.7283 17.2414H74.7329Z" fill="black"/>
<path d="M164.402 146.045C164.116 146.045 163.834 145.983 163.575 145.864C163.151 145.672 162.808 145.34 162.602 144.923C162.397 144.506 162.342 144.031 162.448 143.579C162.554 143.126 162.813 142.725 163.182 142.442C163.55 142.159 164.006 142.013 164.47 142.029C164.934 142.044 165.379 142.22 165.728 142.527C166.077 142.833 166.309 143.252 166.384 143.71C166.459 144.168 166.373 144.639 166.141 145.041C165.908 145.443 165.543 145.752 165.108 145.915V145.915C164.882 145.999 164.643 146.043 164.402 146.045ZM164.402 142.671C164.243 142.673 164.086 142.703 163.937 142.76C163.596 142.889 163.32 143.147 163.167 143.478C163.014 143.809 162.997 144.187 163.119 144.53C163.25 144.869 163.509 145.144 163.84 145.295C164.171 145.446 164.547 145.462 164.89 145.339C165.178 145.215 165.416 144.998 165.565 144.722C165.714 144.446 165.766 144.128 165.712 143.819C165.659 143.51 165.502 143.229 165.269 143.02C165.035 142.81 164.738 142.686 164.425 142.667L164.402 142.671Z" fill="black"/>
<path d="M166.609 80.7975C169.042 80.7975 171.015 78.8208 171.015 76.3826C171.015 73.9443 169.042 71.9677 166.609 71.9677C164.176 71.9677 162.204 73.9443 162.204 76.3826C162.204 78.8208 164.176 80.7975 166.609 80.7975Z" fill="#FFFDF7"/>
</g>
<defs>
<clipPath id="clip0_77_1750">
<rect width="200" height="218.752" fill="white"/>
</clipPath>
</defs>
</svg>
