<svg width="70" height="70" viewBox="0 0 70 70" fill="none" xmlns="http://www.w3.org/2000/svg">
<path d="M44.6087 55.5908L46.669 61.7693H21.9585L24.0175 55.5908H44.6087Z" fill="#E95440"/>
<path d="M45.2964 49.5072C20.1501 49.3856 26.0114 49.5062 24.7038 49.5072C24.7116 49.3299 24.6244 46.5773 25.2739 42.0835H44.7263C45.3727 46.555 45.2857 49.2648 45.2964 49.5072Z" fill="#E95440"/>
<path d="M43.3411 34.7521H26.6587C27.2097 32.2653 27.803 29.8179 28.3349 27.4214H41.6649C42.1968 29.8181 42.7901 32.2653 43.3411 34.7521Z" fill="#E95440"/>
<path d="M40.3252 20.0921H29.6748C30.0385 17.206 30.126 14.4224 29.7227 11.7632C30.4035 12.3921 31.3154 12.7845 32.3354 12.7845H37.6646C38.6846 12.7845 39.5965 12.3921 40.2773 11.7632C39.874 14.4224 39.9615 17.206 40.3252 20.0921V20.0921Z" fill="#E95440"/>
<path d="M53.9238 52.1769L49.9885 49.8691C52.1294 48.7264 53.7226 46.6941 54.2662 44.2166C56.3323 34.8004 53.7409 28.2272 51.4547 22.4278C50.2669 19.4145 49.1447 16.5683 48.7232 13.5334C48.2553 10.1814 45.7248 7.55152 42.5249 6.91988L41.7796 4.10389C41.2592 1.72361 39.1213 0 36.6817 0H33.3184C30.8788 0 28.7409 1.72361 28.2206 4.10402L27.486 6.8801C24.1712 7.44037 21.5475 10.0993 21.0718 13.5345C19.8363 22.4286 12.4144 30.0286 15.5275 44.2168C16.0757 46.7146 17.7353 48.7813 19.9256 49.9196L16.0761 52.1771C12.4763 52.3808 9.60986 55.3731 9.60986 59.023V61.4265C9.61 66.1538 13.456 70 18.1836 70H51.8164C56.544 70 60.3901 66.1538 60.3901 61.4264V59.0229C60.3901 55.373 57.5236 52.3806 53.9238 52.1769ZM47.6545 60.4023L44.4781 50.8745C46.0643 50.8709 45.895 50.8815 46.2837 50.8663L52.1651 54.3154V58.4063C52.1651 59.5068 51.2697 60.4023 50.169 60.4023H47.6545ZM20.973 60.4023H19.831C18.7304 60.4023 17.8349 59.5068 17.8349 58.4063V54.3152L23.706 50.8721C23.9968 50.8765 23.8972 50.8735 24.1484 50.8744L20.973 60.4023ZM31.3203 14.0518C31.6519 14.1173 31.9915 14.1518 32.3354 14.1518H37.6647C38.0085 14.1518 38.3481 14.1174 38.6798 14.0518C38.1682 24.4482 43.54 36.1506 43.9073 48.14C43.4576 48.1377 26.1113 48.0471 26.0955 48.0469C26.4878 36.087 31.8309 24.4297 31.3203 14.0518V14.0518ZM27.0304 50.8744H41.5956L44.7717 60.4022H23.8551L27.0304 50.8744ZM46.0148 13.9106C46.4811 17.2676 47.6612 20.2612 48.9108 23.4306C51.1586 29.1323 53.4828 35.0282 51.5952 43.6306C51.0691 46.029 49.0873 47.8104 46.6415 48.0979C46.2536 35.0372 40.2433 22.5768 41.5695 12.3916C42.2204 11.6584 42.6432 10.7769 42.8065 9.83787C44.4756 10.4799 45.7497 12.0113 46.0148 13.9106V13.9106ZM30.8882 4.70518C31.1293 3.56316 32.1512 2.73438 33.3184 2.73438H36.6817C37.8488 2.73438 38.871 3.56316 39.1119 4.70518C39.1236 4.76027 39.3753 5.70555 40.0995 8.44402C40.411 9.9873 39.2277 11.4174 37.6647 11.4174H32.3354C30.7849 11.4174 29.597 10.0051 29.8971 8.45715L30.8722 4.77271C30.8781 4.75016 30.8834 4.72773 30.8882 4.70518V4.70518ZM18.1983 43.6305C15.2766 30.3146 22.4554 23.4481 23.7802 13.91C24.0526 11.9436 25.4009 10.3693 27.1827 9.76855C27.3375 10.7327 27.7638 11.6391 28.4304 12.3908C29.7634 22.6252 23.7407 35.0204 23.3579 48.1194C20.8517 47.9143 18.7356 46.0782 18.1983 43.6305V43.6305ZM57.6557 61.4264C57.6557 64.6462 55.0362 67.2656 51.8164 67.2656H18.1836C14.9639 67.2656 12.3444 64.6462 12.3444 61.4264V59.0229C12.3444 57.2283 13.4969 55.6977 15.1006 55.1324V58.4063C15.1006 61.0146 17.2226 63.1367 19.8311 63.1367H50.169C52.7773 63.1367 54.8995 61.0146 54.8995 58.4063V55.1324C56.5032 55.6977 57.6557 57.2283 57.6557 59.0229V61.4264Z" fill="black"/>
</svg>
