<svg width="200" height="199" viewBox="0 0 200 199" fill="none" xmlns="http://www.w3.org/2000/svg">
<g clip-path="url(#clip0_77_1825)">
<path d="M42.519 27.7854C50.4803 15.8051 62.5466 6.72259 80.5804 6.82657C101.679 6.94863 115.116 30.3352 128.018 40.5073C142.137 51.6377 163.665 49.9198 168.706 63.6407C174.583 79.6085 159.597 81.8554 159.597 93.8403C159.597 105.825 182.925 111.607 181.573 139.777C180.013 172.296 82.9855 193.549 37.6319 163.091C6.97569 142.494 -3.45854 112.286 12.6268 105.613C26.3071 99.939 34.4899 91.8963 29.8379 77.6238C23.0565 56.6559 34.4808 39.8743 42.519 27.7854Z" fill="#FDEEEC"/>
<path d="M131.96 26.8361H28.0926C22.712 26.8361 18.3501 31.1979 18.3501 36.5786V58.6587C18.3501 64.0393 22.712 68.4012 28.0926 68.4012H131.96C137.341 68.4012 141.703 64.0393 141.703 58.6587V36.5786C141.703 31.1979 137.341 26.8361 131.96 26.8361Z" fill="#FFFDF7"/>
<path d="M131.97 68.7177H28.0794C25.4155 68.7117 22.8627 67.6493 20.9812 65.7635C19.0996 63.8777 18.043 61.3226 18.043 58.6587V36.5877C18.043 33.9238 19.0996 31.3687 20.9812 29.4829C22.8627 27.5971 25.4155 26.5347 28.0794 26.5287H131.97C134.634 26.5335 137.188 27.5954 139.071 29.4813C140.953 31.3672 142.011 33.923 142.01 36.5877V58.6497C142.013 61.3159 140.957 63.874 139.074 65.7619C137.191 67.6498 134.636 68.7129 131.97 68.7177V68.7177ZM28.0794 27.1254C26.8391 27.1278 25.6115 27.3744 24.4666 27.8513C23.3217 28.3281 22.2819 29.0257 21.4066 29.9044C20.5313 30.783 19.8377 31.8255 19.3653 32.9722C18.8928 34.1189 18.6509 35.3475 18.6533 36.5877V58.6497C18.6533 61.1513 19.6458 63.5507 21.413 65.3213C23.1802 67.0919 25.5778 68.089 28.0794 68.0938H131.97C134.471 68.089 136.869 67.0919 138.636 65.3213C140.403 63.5507 141.396 61.1513 141.396 58.6497V36.5877C141.398 35.3475 141.156 34.1189 140.684 32.9722C140.211 31.8255 139.518 30.783 138.642 29.9044C137.767 29.0257 136.727 28.3281 135.582 27.8513C134.437 27.3744 133.21 27.1278 131.97 27.1254H28.0794Z" fill="black"/>
<path d="M99.3692 45.0463H62.1668C61.8761 45.0463 61.5882 44.989 61.3197 44.8776C61.0512 44.7662 60.8073 44.6029 60.602 44.3972C60.3966 44.1914 60.2339 43.9472 60.123 43.6784C60.0122 43.4097 59.9555 43.1217 59.9561 42.831V35.9367C59.9555 35.646 60.0122 35.358 60.123 35.0893C60.2339 34.8205 60.3966 34.5763 60.602 34.3705C60.8073 34.1648 61.0512 34.0015 61.3197 33.8901C61.5882 33.7788 61.8761 33.7214 62.1668 33.7214H131.942C132.233 33.722 132.52 33.7798 132.788 33.8914C133.056 34.0031 133.299 34.1664 133.504 34.3721C133.709 34.5778 133.871 34.8219 133.982 35.0903C134.093 35.3588 134.149 35.6464 134.149 35.9367V42.831C134.149 43.1214 134.093 43.409 133.982 43.6774C133.871 43.9458 133.709 44.1899 133.504 44.3956C133.299 44.6013 133.056 44.7646 132.788 44.8763C132.52 44.9879 132.233 45.0457 131.942 45.0463H99.3692Z" fill="#FFFDF7"/>
<path d="M131.943 45.3536H119.646C119.564 45.3536 119.486 45.3212 119.428 45.2636C119.371 45.2059 119.338 45.1277 119.338 45.0462C119.338 44.9647 119.371 44.8865 119.428 44.8288C119.486 44.7712 119.564 44.7388 119.646 44.7388H131.943C132.448 44.7376 132.932 44.5361 133.289 44.1784C133.646 43.8207 133.846 43.3362 133.846 42.831V35.9366C133.846 35.4314 133.646 34.9468 133.289 34.5892C132.932 34.2315 132.448 34.03 131.943 34.0288H62.1625C61.9126 34.0294 61.6652 34.0792 61.4345 34.1754C61.2038 34.2716 60.9943 34.4123 60.818 34.5894C60.6417 34.7666 60.502 34.9767 60.4069 35.2079C60.3118 35.439 60.2632 35.6867 60.2638 35.9366V42.831C60.2608 43.0824 60.3077 43.332 60.4017 43.5652C60.4957 43.7985 60.635 44.0108 60.8116 44.1898C60.9881 44.3689 61.1984 44.5112 61.4303 44.6086C61.6622 44.7059 61.9111 44.7563 62.1625 44.7569H99.3695C99.4511 44.7569 99.5293 44.7893 99.5869 44.8469C99.6446 44.9046 99.677 44.9828 99.677 45.0643C99.677 45.1458 99.6446 45.224 99.5869 45.2817C99.5293 45.3393 99.4511 45.3717 99.3695 45.3717H62.1625C61.4951 45.3693 60.8557 45.1025 60.3846 44.6297C59.9135 44.1568 59.6489 43.5165 59.6489 42.8491V35.9366C59.6489 35.2691 59.9135 34.6288 60.3846 34.156C60.8557 33.6832 61.4951 33.4163 62.1625 33.4139H131.943C132.61 33.4163 133.249 33.6832 133.721 34.156C134.192 34.6288 134.456 35.2691 134.456 35.9366V42.831C134.456 43.4985 134.192 44.1387 133.721 44.6116C133.249 45.0844 132.61 45.3512 131.943 45.3536V45.3536Z" fill="black"/>
<path d="M110.31 60.2274H62.1668C61.58 60.2262 61.0177 59.9923 60.6033 59.577C60.1888 59.1617 59.9561 58.5989 59.9561 58.0122V51.1133C59.9561 50.527 60.189 49.9647 60.6036 49.5501C61.0182 49.1355 61.5805 48.9026 62.1668 48.9026H101.39L110.31 60.2274Z" fill="#FFFDF7"/>
<path d="M110.31 60.5303H62.1625C61.4958 60.5279 60.8572 60.2617 60.3862 59.7899C59.9152 59.318 59.6501 58.6789 59.6489 58.0122V51.1133C59.6501 50.4466 59.9152 49.8075 60.3862 49.3356C60.8572 48.8638 61.4958 48.5975 62.1625 48.5952H101.39C101.434 48.5899 101.477 48.5939 101.519 48.6068C101.56 48.6197 101.599 48.6413 101.631 48.6702C101.664 48.699 101.69 48.7344 101.708 48.7741C101.726 48.8138 101.735 48.8568 101.735 48.9003C101.735 48.9438 101.726 48.9868 101.708 49.0265C101.69 49.0662 101.664 49.1016 101.631 49.1305C101.599 49.1593 101.56 49.1809 101.519 49.1939C101.477 49.2068 101.434 49.2107 101.39 49.2055H62.1625C61.6581 49.2079 61.1752 49.4099 60.8194 49.7675C60.4635 50.125 60.2638 50.6089 60.2638 51.1133V58.0122C60.2632 58.2621 60.3118 58.5097 60.4069 58.7409C60.502 58.972 60.6417 59.1822 60.818 59.3593C60.9943 59.5365 61.2038 59.6772 61.4345 59.7734C61.6652 59.8696 61.9126 59.9194 62.1625 59.92H110.31C110.353 59.9147 110.397 59.9187 110.439 59.9316C110.48 59.9446 110.519 59.9662 110.551 59.995C110.584 60.0239 110.61 60.0593 110.628 60.099C110.645 60.1386 110.655 60.1817 110.655 60.2252C110.655 60.2687 110.645 60.3117 110.628 60.3514C110.61 60.391 110.584 60.4265 110.551 60.4553C110.519 60.4842 110.48 60.5058 110.439 60.5187C110.397 60.5316 110.353 60.5356 110.31 60.5303V60.5303Z" fill="black"/>
<path d="M121.458 48.9026H131.942C132.528 48.9038 133.089 49.1372 133.503 49.5517C133.916 49.9662 134.149 50.5278 134.149 51.1133V58.0122C134.149 58.5982 133.917 59.1602 133.503 59.5754C133.09 59.9906 132.528 60.225 131.942 60.2274H127.874L121.458 48.9026Z" fill="#FFFDF7"/>
<path d="M131.943 60.5303H127.874C127.831 60.5355 127.787 60.5316 127.745 60.5186C127.704 60.5057 127.665 60.4841 127.633 60.4553C127.6 60.4264 127.574 60.391 127.556 60.3513C127.538 60.3116 127.529 60.2686 127.529 60.2251C127.529 60.1816 127.538 60.1386 127.556 60.0989C127.574 60.0592 127.6 60.0238 127.633 59.9949C127.665 59.9661 127.704 59.9445 127.745 59.9316C127.787 59.9186 127.831 59.9147 127.874 59.9199H131.943C132.448 59.9187 132.932 59.7172 133.289 59.3596C133.646 59.0019 133.846 58.5173 133.846 58.0121V51.1132C133.845 50.6084 133.644 50.1245 133.287 49.7671C132.931 49.4097 132.447 49.2078 131.943 49.2054H121.459C121.384 49.1963 121.316 49.1603 121.266 49.1041C121.216 49.0478 121.188 48.9753 121.188 48.9003C121.188 48.8252 121.216 48.7527 121.266 48.6965C121.316 48.6402 121.384 48.6042 121.459 48.5951H131.943C132.609 48.5975 133.248 48.8637 133.719 49.3356C134.19 49.8074 134.455 50.4465 134.456 51.1132V58.0121C134.455 58.6788 134.19 59.318 133.719 59.7898C133.248 60.2617 132.609 60.5279 131.943 60.5303Z" fill="black"/>
<path d="M46.71 33.7214H32.0578C28.8219 33.7214 26.1987 36.3446 26.1987 39.5805V54.2915C26.1987 57.5274 28.8219 60.1506 32.0578 60.1506H46.71C49.9459 60.1506 52.5691 57.5274 52.5691 54.2915V39.5805C52.5691 36.3446 49.9459 33.7214 46.71 33.7214Z" fill="#E95440"/>
<path d="M46.7188 60.4579H32.053C30.4187 60.4544 28.8525 59.8026 27.6982 58.6457C26.5438 57.4888 25.8955 55.9212 25.8955 54.2869V39.585C25.8955 37.9507 26.5438 36.3831 27.6982 35.2262C28.8525 34.0693 30.4187 33.4175 32.053 33.4139H46.7188C47.5295 33.4133 48.3325 33.5725 49.0817 33.8824C49.8309 34.1922 50.5117 34.6467 51.0853 35.2198C51.6588 35.7929 52.1137 36.4734 52.4241 37.2224C52.7345 37.9714 52.8943 38.7742 52.8943 39.585V54.2869C52.8943 55.0977 52.7345 55.9005 52.4241 56.6495C52.1137 57.3985 51.6588 58.079 51.0853 58.6521C50.5117 59.2252 49.8309 59.6797 49.0817 59.9895C48.3325 60.2994 47.5295 60.4585 46.7188 60.4579V60.4579ZM32.053 34.0288C30.5809 34.0312 29.17 34.6176 28.13 35.6593C27.09 36.7011 26.5058 38.1129 26.5058 39.585V54.2869C26.5058 55.759 27.09 57.1708 28.13 58.2125C29.17 59.2543 30.5809 59.8407 32.053 59.8431H46.7188C48.1908 59.8407 49.6017 59.2543 50.6417 58.2125C51.6818 57.1708 52.2659 55.759 52.2659 54.2869V39.585C52.2659 38.1129 51.6818 36.7011 50.6417 35.6593C49.6017 34.6176 48.1908 34.0312 46.7188 34.0288H32.053Z" fill="black"/>
<path d="M45.8601 56.0908H33.2649C32.94 56.0911 32.6198 56.0129 32.3316 55.8629C32.0434 55.7128 31.7958 55.4953 31.6098 55.2289C31.4238 54.9626 31.3049 54.6552 31.2632 54.333C31.2216 54.0107 31.2584 53.6832 31.3706 53.3783C32.0122 51.7273 33.1376 50.3087 34.5994 49.3084C36.0612 48.3082 37.7912 47.7729 39.5625 47.7729C41.3337 47.7729 43.0637 48.3082 44.5255 49.3084C45.9873 50.3087 47.1128 51.7273 47.7543 53.3783C47.8665 53.6832 47.9034 54.0107 47.8617 54.333C47.8201 54.6552 47.7012 54.9626 47.5151 55.2289C47.3291 55.4953 47.0815 55.7128 46.7933 55.8629C46.5051 56.0129 46.185 56.0911 45.8601 56.0908V56.0908Z" fill="#FF9B38"/>
<path d="M45.86 56.3982H33.2648C32.8831 56.3975 32.5074 56.3036 32.1702 56.1247C31.833 55.9459 31.5446 55.6875 31.3298 55.372C31.1169 55.0655 30.9832 54.7111 30.9406 54.3403C30.898 53.9695 30.9478 53.594 31.0857 53.2472C31.7521 51.5414 32.9176 50.0763 34.43 49.0435C35.9423 48.0107 37.731 47.4581 39.5624 47.4581C41.3937 47.4581 43.1825 48.0107 44.6948 49.0435C46.2071 50.0763 47.3727 51.5414 48.0391 53.2472C48.1769 53.594 48.2268 53.9695 48.1842 54.3403C48.1416 54.7111 48.0079 55.0655 47.7949 55.372C47.5802 55.6875 47.2917 55.9459 46.9546 56.1247C46.6174 56.3036 46.2417 56.3975 45.86 56.3982V56.3982ZM39.5624 48.0662C37.8496 48.0615 36.1759 48.5779 34.7636 49.5468C33.3513 50.5158 32.2672 51.8916 31.6553 53.4913C31.5543 53.746 31.518 54.0217 31.5496 54.2939C31.5811 54.5661 31.6796 54.8262 31.8362 55.051C31.9939 55.2849 32.2066 55.4765 32.4557 55.6089C32.7048 55.7414 32.9827 55.8106 33.2648 55.8105H45.86C46.1421 55.8106 46.4199 55.7414 46.669 55.6089C46.9181 55.4765 47.1309 55.2849 47.2886 55.051C47.4452 54.8262 47.5436 54.5661 47.5752 54.2939C47.6067 54.0217 47.5704 53.746 47.4694 53.4913C46.857 51.8919 45.7728 50.5166 44.3606 49.5476C42.9484 48.5787 41.275 48.0621 39.5624 48.0662V48.0662Z" fill="black"/>
<path d="M39.5987 45.7108C41.5387 45.7108 43.1114 44.1361 43.1114 42.1935C43.1114 40.251 41.5387 38.6763 39.5987 38.6763C37.6586 38.6763 36.0859 40.251 36.0859 42.1935C36.0859 44.1361 37.6586 45.7108 39.5987 45.7108Z" fill="#FF9B38"/>
<path d="M39.5985 46.0182C38.8398 46.0235 38.0967 45.8034 37.4633 45.3857C36.8299 44.9681 36.3349 44.3717 36.0411 43.6722C35.7472 42.9727 35.6678 42.2017 35.8128 41.457C35.9579 40.7123 36.3208 40.0275 36.8557 39.4894C37.3906 38.9514 38.0733 38.5843 38.8171 38.4349C39.5609 38.2854 40.3324 38.3603 41.0336 38.65C41.7348 38.9397 42.3341 39.4312 42.7555 40.0621C43.1769 40.693 43.4015 41.4348 43.4006 42.1935C43.3994 43.2036 42.9992 44.1723 42.2871 44.8887C41.5749 45.605 40.6086 46.011 39.5985 46.0182ZM39.5985 38.9791C38.9624 38.9773 38.34 39.1643 37.8103 39.5164C37.2805 39.8686 36.8671 40.3699 36.6224 40.9571C36.3777 41.5443 36.3128 42.1909 36.4358 42.815C36.5588 43.4391 36.8642 44.0127 37.3134 44.4632C37.7625 44.9136 38.3353 45.2206 38.959 45.3454C39.5828 45.4702 40.2296 45.407 40.8175 45.164C41.4053 44.921 41.9079 44.509 42.2615 43.9802C42.6151 43.4514 42.8038 42.8296 42.8038 42.1935C42.8038 41.3426 42.4664 40.5263 41.8656 39.9238C41.2647 39.3212 40.4494 38.9815 39.5985 38.9791Z" fill="black"/>
<path d="M66.6924 39.3861C66.6924 38.9908 66.8096 38.6045 67.0291 38.2759C67.2487 37.9473 67.5608 37.6912 67.9259 37.5399C68.2911 37.3887 68.6928 37.3491 69.0805 37.4262C69.4681 37.5033 69.8241 37.6936 70.1036 37.9731C70.383 38.2525 70.5734 38.6086 70.6505 38.9962C70.7276 39.3838 70.688 39.7856 70.5367 40.1507C70.3855 40.5159 70.1294 40.828 69.8008 41.0475C69.4722 41.2671 69.0858 41.3843 68.6906 41.3843C68.1607 41.3843 67.6524 41.1738 67.2777 40.799C66.9029 40.4243 66.6924 39.916 66.6924 39.3861Z" fill="#FF9B38"/>
<path d="M68.6903 37.6908C68.3548 37.6899 68.0266 37.7885 67.7472 37.9743C67.4678 38.16 67.2498 38.4245 67.1208 38.7342C66.9918 39.0439 66.9576 39.3849 67.0225 39.7141C67.0874 40.0432 67.2485 40.3457 67.4854 40.5833C67.7223 40.8208 68.0244 40.9827 68.3534 41.0485C68.6824 41.1143 69.0235 41.081 69.3335 40.9528C69.6436 40.8246 69.9086 40.6073 70.0951 40.3284C70.2816 40.0495 70.3811 39.7216 70.3811 39.3861C70.3811 38.9372 70.2031 38.5067 69.8862 38.1889C69.5692 37.8711 69.1392 37.692 68.6903 37.6908V37.6908ZM68.6903 41.6918C68.2328 41.6935 67.7851 41.5595 67.4039 41.3065C67.0227 41.0535 66.7252 40.6931 66.5491 40.2709C66.373 39.8486 66.3262 39.3836 66.4147 38.9348C66.5032 38.4859 66.723 38.0735 67.0461 37.7497C67.3693 37.4258 67.7813 37.2053 68.23 37.1159C68.6787 37.0266 69.1438 37.0724 69.5664 37.2477C69.989 37.423 70.35 37.7198 70.6037 38.1005C70.8574 38.4812 70.9923 38.9286 70.9914 39.3861C70.9903 39.9964 70.7476 40.5815 70.3164 41.0135C69.8853 41.4455 69.3007 41.6894 68.6903 41.6918V41.6918Z" fill="black"/>
<path d="M76.2812 39.3861C76.2813 38.9908 76.3984 38.6045 76.618 38.2759C76.8376 37.9473 77.1497 37.6912 77.5148 37.5399C77.8799 37.3887 78.2817 37.3491 78.6693 37.4262C79.0569 37.5033 79.413 37.6936 79.6925 37.9731C79.9719 38.2525 80.1622 38.6086 80.2393 38.9962C80.3164 39.3838 80.2769 39.7856 80.1256 40.1507C79.9744 40.5159 79.7183 40.828 79.3896 41.0475C79.061 41.2671 78.6747 41.3843 78.2795 41.3843C77.7495 41.3843 77.2413 41.1738 76.8665 40.799C76.4918 40.4243 76.2812 39.916 76.2812 39.3861V39.3861Z" fill="#FF9B38"/>
<path d="M78.2792 37.6908C77.9437 37.6899 77.6155 37.7885 77.3361 37.9743C77.0567 38.16 76.8387 38.4245 76.7097 38.7342C76.5807 39.0439 76.5464 39.3849 76.6113 39.7141C76.6763 40.0432 76.8374 40.3457 77.0743 40.5833C77.3112 40.8208 77.6133 40.9827 77.9422 41.0485C78.2712 41.1143 78.6123 41.081 78.9224 40.9528C79.2324 40.8246 79.4975 40.6073 79.684 40.3284C79.8704 40.0495 79.97 39.7216 79.97 39.3861C79.97 38.9372 79.792 38.5067 79.475 38.1889C79.1581 37.8711 78.728 37.692 78.2792 37.6908V37.6908ZM78.2792 41.6918C77.8217 41.6935 77.374 41.5595 76.9928 41.3065C76.6116 41.0535 76.3141 40.6931 76.138 40.2709C75.9619 39.8486 75.9151 39.3836 76.0036 38.9348C76.0921 38.4859 76.3118 38.0735 76.635 37.7497C76.9582 37.4258 77.3702 37.2053 77.8189 37.1159C78.2676 37.0266 78.7327 37.0724 79.1552 37.2477C79.5778 37.423 79.9388 37.7198 80.1925 38.1005C80.4462 38.4812 80.5812 38.9286 80.5803 39.3861C80.5791 39.9964 80.3364 40.5815 79.9053 41.0135C79.4741 41.4455 78.8895 41.6894 78.2792 41.6918V41.6918Z" fill="black"/>
<path d="M85.8652 39.3861C85.8652 38.9908 85.9824 38.6045 86.202 38.2759C86.4216 37.9473 86.7337 37.6912 87.0988 37.5399C87.4639 37.3887 87.8657 37.3491 88.2533 37.4262C88.6409 37.5033 88.997 37.6936 89.2764 37.9731C89.5559 38.2525 89.7462 38.6086 89.8233 38.9962C89.9004 39.3838 89.8608 39.7856 89.7096 40.1507C89.5584 40.5159 89.3022 40.828 88.9736 41.0475C88.645 41.2671 88.2587 41.3843 87.8635 41.3843C87.3335 41.3843 86.8253 41.1738 86.4505 40.799C86.0758 40.4243 85.8652 39.916 85.8652 39.3861Z" fill="#FF9B38"/>
<path d="M87.8635 37.6908C87.528 37.6899 87.1998 37.7885 86.9204 37.9743C86.641 38.16 86.423 38.4245 86.294 38.7342C86.165 39.0439 86.1308 39.3849 86.1957 39.7141C86.2606 40.0432 86.4217 40.3457 86.6586 40.5833C86.8955 40.8208 87.1976 40.9827 87.5266 41.0485C87.8556 41.1143 88.1967 41.081 88.5067 40.9528C88.8168 40.8246 89.0818 40.6073 89.2683 40.3285C89.4548 40.0496 89.5543 39.7216 89.5543 39.3861C89.5543 38.9373 89.3763 38.5067 89.0594 38.1889C88.7424 37.8711 88.3124 37.692 87.8635 37.6908V37.6908ZM87.8635 41.6918C87.4062 41.6927 86.959 41.5578 86.5784 41.3043C86.1978 41.0508 85.901 40.6901 85.7255 40.2677C85.5501 39.8454 85.504 39.3806 85.593 38.932C85.682 38.4835 85.9021 38.0714 86.2255 37.748C86.5488 37.4247 86.9609 37.2046 87.4094 37.1156C87.858 37.0266 88.3228 37.0727 88.7452 37.2481C89.1675 37.4235 89.5282 37.7203 89.7817 38.1009C90.0352 38.4815 90.1701 38.9288 90.1692 39.3861C90.1692 39.9976 89.9263 40.5841 89.4939 41.0165C89.0615 41.4488 88.475 41.6918 87.8635 41.6918V41.6918Z" fill="black"/>
<path d="M95.4541 39.3861C95.4541 38.9908 95.5713 38.6045 95.7909 38.2759C96.0104 37.9473 96.3225 37.6912 96.6876 37.5399C97.0528 37.3887 97.4546 37.3491 97.8422 37.4262C98.2298 37.5033 98.5858 37.6936 98.8653 37.9731C99.1448 38.2525 99.3351 38.6086 99.4122 38.9962C99.4893 39.3838 99.4497 39.7856 99.2985 40.1507C99.1472 40.5159 98.8911 40.828 98.5625 41.0475C98.2339 41.2671 97.8476 41.3843 97.4523 41.3843C96.9224 41.3843 96.4141 41.1738 96.0394 40.799C95.6646 40.4243 95.4541 39.916 95.4541 39.3861Z" fill="#FF9B38"/>
<path d="M97.4525 37.6908C97.117 37.6899 96.7888 37.7885 96.5094 37.9743C96.23 38.16 96.012 38.4245 95.883 38.7342C95.754 39.0439 95.7198 39.3849 95.7847 39.7141C95.8496 40.0432 96.0107 40.3457 96.2476 40.5833C96.4845 40.8208 96.7866 40.9827 97.1156 41.0485C97.4446 41.1143 97.7857 41.081 98.0957 40.9528C98.4058 40.8246 98.6708 40.6073 98.8573 40.3284C99.0438 40.0495 99.1433 39.7216 99.1433 39.3861C99.1433 38.9372 98.9653 38.5067 98.6484 38.1889C98.3314 37.8711 97.9014 37.692 97.4525 37.6908V37.6908ZM97.4525 41.6918C96.995 41.6935 96.5473 41.5595 96.1661 41.3065C95.7849 41.0535 95.4874 40.6931 95.3113 40.2709C95.1352 39.8486 95.0884 39.3836 95.1769 38.9348C95.2654 38.4859 95.4852 38.0735 95.8083 37.7497C96.1315 37.4258 96.5436 37.2053 96.9922 37.1159C97.4409 37.0266 97.906 37.0724 98.3286 37.2477C98.7512 37.423 99.1122 37.7198 99.3659 38.1005C99.6196 38.4812 99.7545 38.9286 99.7537 39.3861C99.7525 39.9964 99.5098 40.5815 99.0786 41.0135C98.6475 41.4455 98.0629 41.6894 97.4525 41.6918Z" fill="black"/>
<path d="M105.039 39.3861C105.039 38.9908 105.156 38.6045 105.375 38.2759C105.595 37.9473 105.907 37.6912 106.272 37.5399C106.637 37.3887 107.039 37.3491 107.427 37.4262C107.814 37.5033 108.17 37.6936 108.45 37.9731C108.729 38.2525 108.92 38.6086 108.997 38.9962C109.074 39.3838 109.034 39.7856 108.883 40.1507C108.732 40.5159 108.476 40.828 108.147 41.0475C107.818 41.2671 107.432 41.3843 107.037 41.3843C106.507 41.3843 105.999 41.1738 105.624 40.799C105.249 40.4243 105.039 39.916 105.039 39.3861Z" fill="#FF9B38"/>
<path d="M107.037 37.6908C106.702 37.6908 106.374 37.7902 106.095 37.9765C105.816 38.1628 105.599 38.4275 105.471 38.7373C105.342 39.0471 105.309 39.388 105.374 39.7168C105.44 40.0457 105.601 40.3478 105.838 40.5849C106.075 40.822 106.377 40.9835 106.706 41.0489C107.035 41.1143 107.376 41.0807 107.686 40.9524C107.995 40.8241 108.26 40.6068 108.446 40.328C108.633 40.0492 108.732 39.7214 108.732 39.3861C108.732 38.9365 108.554 38.5053 108.236 38.1873C107.918 37.8694 107.486 37.6908 107.037 37.6908ZM107.037 41.6918C106.58 41.6927 106.132 41.5578 105.752 41.3043C105.371 41.0508 105.074 40.6901 104.899 40.2677C104.723 39.8454 104.677 39.3806 104.766 38.932C104.855 38.4835 105.075 38.0714 105.399 37.748C105.722 37.4247 106.134 37.2046 106.583 37.1156C107.031 37.0266 107.496 37.0727 107.918 37.2481C108.341 37.4235 108.702 37.7203 108.955 38.1009C109.209 38.4815 109.343 38.9288 109.343 39.3861C109.343 39.9976 109.1 40.5841 108.667 41.0165C108.235 41.4488 107.648 41.6918 107.037 41.6918V41.6918Z" fill="black"/>
<path d="M114.627 39.386C114.627 38.9914 114.744 38.6056 114.963 38.2773C115.182 37.949 115.494 37.6928 115.858 37.5412C116.222 37.3896 116.623 37.3492 117.011 37.4252C117.398 37.5012 117.754 37.6902 118.034 37.9683C118.314 38.2464 118.505 38.6012 118.584 38.9879C118.662 39.3746 118.625 39.776 118.476 40.1414C118.327 40.5067 118.072 40.8197 117.746 41.0409C117.419 41.2621 117.034 41.3816 116.639 41.3842C116.376 41.386 116.114 41.3357 115.87 41.2361C115.626 41.1364 115.404 40.9895 115.217 40.8038C115.031 40.6181 114.882 40.3972 114.781 40.1538C114.68 39.9105 114.627 39.6496 114.627 39.386V39.386Z" fill="#FF9B38"/>
<path d="M116.639 37.6908C116.304 37.6899 115.975 37.7885 115.696 37.9743C115.417 38.16 115.199 38.4245 115.07 38.7342C114.941 39.0439 114.906 39.3849 114.971 39.7141C115.036 40.0432 115.197 40.3457 115.434 40.5833C115.671 40.8208 115.973 40.9827 116.302 41.0485C116.631 41.1143 116.972 41.081 117.282 40.9528C117.592 40.8246 117.857 40.6073 118.044 40.3284C118.23 40.0495 118.33 39.7216 118.33 39.3861C118.33 39.1637 118.287 38.9433 118.202 38.7377C118.118 38.532 117.993 38.3451 117.836 38.1876C117.679 38.0301 117.493 37.9052 117.287 37.8199C117.082 37.7346 116.861 37.6908 116.639 37.6908V37.6908ZM116.639 41.6918C116.182 41.6935 115.734 41.5595 115.353 41.3065C114.971 41.0535 114.674 40.6931 114.498 40.2709C114.322 39.8486 114.275 39.3836 114.363 38.9348C114.452 38.4859 114.672 38.0735 114.995 37.7497C115.318 37.4258 115.73 37.2053 116.179 37.1159C116.627 37.0266 117.093 37.0724 117.515 37.2477C117.938 37.423 118.299 37.7198 118.552 38.1005C118.806 38.4812 118.941 38.9286 118.94 39.3861C118.939 39.9964 118.696 40.5815 118.265 41.0135C117.834 41.4455 117.249 41.6894 116.639 41.6918V41.6918Z" fill="black"/>
<path d="M124.216 39.3861C124.216 38.9906 124.334 38.6041 124.553 38.2754C124.773 37.9467 125.085 37.6906 125.451 37.5395C125.816 37.3884 126.218 37.3491 126.606 37.4265C126.994 37.504 127.35 37.6948 127.629 37.9747C127.908 38.2546 128.098 38.6111 128.175 38.999C128.252 39.3869 128.211 39.7888 128.059 40.1539C127.907 40.5189 127.651 40.8307 127.321 41.0497C126.992 41.2687 126.605 41.3852 126.21 41.3843C125.681 41.3831 125.174 41.172 124.8 40.7974C124.426 40.4228 124.216 39.9152 124.216 39.3861V39.3861Z" fill="#FF9B38"/>
<path d="M126.21 37.6908C125.874 37.6908 125.547 37.7902 125.268 37.9765C124.989 38.1628 124.772 38.4275 124.643 38.7373C124.515 39.0471 124.482 39.388 124.547 39.7168C124.612 40.0457 124.774 40.3478 125.011 40.5849C125.248 40.822 125.55 40.9835 125.879 41.0489C126.208 41.1143 126.549 41.0807 126.859 40.9524C127.168 40.8241 127.433 40.6068 127.619 40.328C127.806 40.0492 127.905 39.7214 127.905 39.3861C127.905 38.9365 127.726 38.5053 127.409 38.1873C127.091 37.8694 126.659 37.6908 126.21 37.6908ZM126.21 41.6918C125.752 41.6927 125.305 41.5578 124.925 41.3043C124.544 41.0508 124.247 40.6901 124.072 40.2677C123.896 39.8454 123.85 39.3806 123.939 38.932C124.028 38.4835 124.248 38.0714 124.572 37.748C124.895 37.4247 125.307 37.2046 125.756 37.1156C126.204 37.0266 126.669 37.0727 127.091 37.2481C127.514 37.4235 127.874 37.7203 128.128 38.1009C128.381 38.4815 128.516 38.9288 128.515 39.3861C128.515 39.9976 128.272 40.5841 127.84 41.0165C127.408 41.4488 126.821 41.6918 126.21 41.6918V41.6918Z" fill="black"/>
<path d="M68.6907 58.175C68.61 58.175 68.5324 58.1432 68.4749 58.0865C68.4174 58.0298 68.3845 57.9528 68.3833 57.8721V51.258C68.3833 51.1764 68.4157 51.0983 68.4733 51.0406C68.531 50.983 68.6092 50.9506 68.6907 50.9506C68.7723 50.9506 68.8505 50.983 68.9081 51.0406C68.9658 51.0983 68.9981 51.1764 68.9981 51.258V57.8675C68.9981 57.9079 68.9902 57.9479 68.9747 57.9852C68.9593 58.0225 68.9367 58.0564 68.9081 58.0849C68.8796 58.1135 68.8457 58.1361 68.8084 58.1516C68.7711 58.167 68.7311 58.175 68.6907 58.175V58.175Z" fill="black"/>
<path d="M175.524 178.594V165.944H164.719V178.594H175.524Z" fill="#F4C7A8"/>
<path d="M169.244 163.204L168.426 163.566C167.997 163.758 167.661 164.112 167.491 164.551C167.322 164.989 167.333 165.477 167.522 165.908L167.761 166.45C167.894 166.75 168.107 167.008 168.376 167.194C168.646 167.381 168.962 167.49 169.289 167.508L171.134 167.608C171.462 167.625 171.778 167.733 172.048 167.92C172.318 168.106 172.531 168.365 172.662 168.666L174.723 173.345C174.835 173.604 174.885 173.886 174.869 174.168C174.852 174.449 174.77 174.723 174.629 174.968L172.165 179.15C172.02 179.392 171.936 179.665 171.919 179.947C171.902 180.229 171.954 180.511 172.07 180.768V180.768C172.3 181.198 172.667 181.539 173.114 181.736C178.539 184.697 184.086 188.033 189.208 191.383C190.036 191.926 190.85 192.482 191.835 192.391L195.786 192.039L180.867 158.182L169.244 163.204Z" fill="#E95440"/>
<path d="M195.782 192.319C195.711 192.321 195.642 192.298 195.586 192.254C195.531 192.21 195.493 192.148 195.478 192.078C195.464 192.009 195.474 191.937 195.507 191.874C195.54 191.812 195.594 191.763 195.66 191.736L198.888 190.307C199.091 190.216 199.25 190.049 199.33 189.842C199.41 189.634 199.406 189.404 199.317 189.2L185.357 157.44C185.271 157.236 185.109 157.074 184.905 156.988C184.804 156.946 184.695 156.924 184.586 156.924C184.477 156.924 184.368 156.946 184.267 156.988L181.035 158.417C180.998 158.433 180.959 158.443 180.919 158.444C180.879 158.445 180.839 158.438 180.802 158.424C180.764 158.41 180.73 158.388 180.701 158.36C180.672 158.333 180.649 158.3 180.633 158.263C180.616 158.226 180.607 158.186 180.606 158.145C180.605 158.105 180.612 158.065 180.627 158.027C180.642 157.989 180.664 157.954 180.692 157.925C180.72 157.896 180.754 157.872 180.791 157.856L184.019 156.428C184.193 156.351 184.38 156.31 184.57 156.306C184.76 156.302 184.949 156.336 185.126 156.405C185.304 156.473 185.466 156.575 185.603 156.706C185.741 156.838 185.851 156.995 185.926 157.169L199.878 188.974C200.031 189.326 200.038 189.724 199.9 190.082C199.761 190.44 199.487 190.729 199.137 190.886L195.904 192.315C195.864 192.322 195.823 192.324 195.782 192.319V192.319Z" fill="black"/>
<path d="M183.824 165.266L176.998 164.149C176.407 164.054 175.849 163.813 175.375 163.448C174.902 163.082 174.527 162.604 174.285 162.056L173.878 161.125L174.439 160.881L174.846 161.807C175.047 162.263 175.359 162.661 175.754 162.965C176.149 163.268 176.614 163.467 177.106 163.543L183.933 164.665L183.824 165.266Z" fill="black"/>
<path d="M185.895 189.258L185.384 188.919L187.278 186.03C187.365 185.898 187.424 185.75 187.453 185.595C187.482 185.44 187.479 185.281 187.446 185.126C187.414 184.973 187.353 184.828 187.264 184.699C187.176 184.57 187.062 184.46 186.93 184.376L179.625 179.615C179.489 179.527 179.337 179.467 179.178 179.44C179.018 179.412 178.855 179.418 178.698 179.456C178.541 179.494 178.393 179.564 178.264 179.661C178.135 179.759 178.027 179.882 177.947 180.022L176.012 183.386L175.483 183.078L177.418 179.715C177.541 179.504 177.706 179.32 177.902 179.174C178.098 179.028 178.321 178.924 178.558 178.867C178.796 178.81 179.042 178.802 179.283 178.842C179.524 178.883 179.754 178.972 179.959 179.104L187.265 183.86C187.665 184.123 187.946 184.533 188.044 185.002C188.142 185.471 188.051 185.959 187.789 186.36L185.895 189.258Z" fill="black"/>
<path d="M178.313 184.597L180.881 180.334L178.313 184.597Z" fill="#E95440"/>
<path d="M178.313 184.905C178.257 184.905 178.202 184.89 178.155 184.86C178.086 184.817 178.036 184.749 178.016 184.671C177.997 184.592 178.009 184.509 178.051 184.439L180.619 180.176C180.664 180.114 180.731 180.071 180.806 180.056C180.882 180.04 180.96 180.054 181.026 180.094C181.092 180.134 181.14 180.196 181.162 180.27C181.184 180.344 181.177 180.423 181.143 180.492L178.575 184.756C178.548 184.801 178.51 184.838 178.464 184.864C178.418 184.891 178.366 184.904 178.313 184.905V184.905Z" fill="black"/>
<path d="M180.709 186.044L183.277 181.781L180.709 186.044Z" fill="#E95440"/>
<path d="M180.709 186.351C180.653 186.352 180.598 186.336 180.551 186.306C180.482 186.264 180.432 186.196 180.412 186.117C180.393 186.039 180.405 185.955 180.447 185.886L183.015 181.623C183.06 181.56 183.127 181.517 183.202 181.502C183.278 181.487 183.356 181.501 183.422 181.54C183.488 181.58 183.536 181.643 183.558 181.717C183.58 181.791 183.573 181.87 183.539 181.939L180.971 186.202C180.944 186.247 180.906 186.285 180.86 186.311C180.814 186.337 180.762 186.351 180.709 186.351V186.351Z" fill="black"/>
<path d="M183.033 187.572L185.606 183.304L183.033 187.572Z" fill="#E95440"/>
<path d="M183.033 187.875C182.978 187.875 182.923 187.861 182.875 187.834C182.807 187.791 182.758 187.723 182.738 187.645C182.719 187.567 182.731 187.484 182.771 187.414L185.343 183.146C185.364 183.112 185.391 183.082 185.424 183.059C185.456 183.035 185.493 183.018 185.531 183.009C185.57 182.999 185.611 182.997 185.65 183.004C185.69 183.01 185.727 183.024 185.762 183.044C185.796 183.065 185.825 183.092 185.849 183.125C185.873 183.157 185.89 183.194 185.899 183.232C185.908 183.271 185.91 183.312 185.904 183.351C185.898 183.391 185.884 183.428 185.863 183.463L183.295 187.73C183.268 187.775 183.229 187.812 183.183 187.837C183.137 187.863 183.086 187.876 183.033 187.875V187.875Z" fill="black"/>
<path d="M135.966 160.863L119.293 120.979L91.6342 124.7L92.4706 127.268C92.6998 127.973 92.6742 128.736 92.3982 129.424L74.3372 174.294C73.7808 175.675 73.5714 177.172 73.7274 178.653C73.8834 180.134 74.4 181.554 75.2321 182.789C76.0641 184.024 77.1862 185.036 78.5001 185.736C79.814 186.437 81.2796 186.805 82.7687 186.808H134.813V182.233H164.828C165.137 182.232 165.434 182.108 165.653 181.888C165.871 181.669 165.994 181.372 165.994 181.062V162.034C165.994 161.724 165.871 161.427 165.653 161.207C165.434 160.988 165.137 160.864 164.828 160.863H135.966ZM100.857 166.369L110.093 145.808L118.353 166.369H100.857Z" fill="black"/>
<path d="M71.5884 89.2154L58.9299 85.4179L53.5771 62.4427C53.5771 62.4427 56.3982 58.7853 55.0781 55.8964C56.9135 56.1089 57.5691 52.9126 57.9353 51.6151C58.4371 49.8655 56.3756 48.8664 55.8963 49.9785C56.4705 48.6223 54.2688 47.1349 53.6721 48.1702C53.6721 48.1702 54.3592 44.1014 54.4632 42.9169C54.626 40.991 52.0852 40.2857 51.6783 41.7957C51.2715 43.3057 49.3365 50.182 49.3365 50.182C49.436 46.9315 49.3365 43.2108 49.4179 41.7234C49.4993 40.236 47.5372 39.4087 46.746 41.6194C46.1131 43.4006 43.2288 53.1296 42.1166 56.9C41.8274 57.8809 41.7549 58.9129 41.9042 59.9245C42.7722 65.8424 45.1456 81.3852 46.4793 90.0925C46.7646 91.9537 47.5444 93.7042 48.7373 95.1611C49.9301 96.618 51.4923 97.7278 53.2607 98.3748L66.8776 103.388L71.5884 89.2154Z" fill="#F4C7A8"/>
<path d="M87.7417 71.4301C86.3583 68.9255 88.0175 64.6488 90.7391 64.7347C93.4607 64.8206 93.108 67.402 94.9073 67.8677C96.7067 68.3333 100.581 69.8388 99.7809 72.3885C103.303 73.894 102.367 79.943 99.2022 83.0307C96.2772 85.888 89.8891 80.6889 89.8891 80.6889L87.7417 71.4301Z" fill="black"/>
<path d="M71.5886 89.2154L86.8738 91.9641L101.571 89.776L115.518 81.8599L125.31 93.9442L112.467 102.362L119.298 120.979L91.6343 124.7L85.7707 107.747L66.8643 103.388L71.5886 89.2154Z" fill="#E95440"/>
<path d="M100.21 90.0427C100.427 92.8501 97.6334 94.654 94.7039 94.6766C91.7743 94.6992 89.6269 94.4234 88.0265 91.964L89.5139 90.4179C89.7351 90.186 89.8815 89.8931 89.9343 89.577L90.6712 85.246C90.6712 85.246 85.1919 84.7125 85.6982 79.5316C85.7389 79.1247 84.7941 77.574 84.8619 77.1762C84.9026 76.8688 85.7118 76.4302 85.9424 76.2313C86.2669 75.865 86.4581 75.3998 86.4849 74.9112C86.7073 73.5289 87.046 72.1677 87.4976 70.8424C88.9214 72.5873 90.7625 73.9448 92.8503 74.7891C91.5483 76.923 93.6641 78.6184 94.8711 78.4511C95.0401 78.2997 95.2376 78.1837 95.452 78.1097C95.6665 78.0356 95.8935 78.0052 96.1198 78.02C96.3462 78.0349 96.5673 78.0948 96.7702 78.1962C96.9731 78.2976 97.1537 78.4385 97.3015 78.6106C97.4492 78.7827 97.5611 78.9826 97.6306 79.1985C97.7001 79.4145 97.7258 79.6421 97.7062 79.8681C97.6866 80.0941 97.6221 80.3139 97.5164 80.5146C97.4108 80.7153 97.2661 80.8929 97.0909 81.037C96.9537 81.1679 96.8472 81.3275 96.7788 81.5043C96.7104 81.6812 96.6819 81.8709 96.6953 82.0601C96.7086 82.2492 96.7636 82.433 96.8562 82.5985C96.9488 82.7639 97.0768 82.9069 97.2311 83.0172C98.4788 83.9214 99.2338 83.0714 99.2338 83.0714L98.6461 86.1909C98.5661 86.7417 98.6054 87.3033 98.7614 87.8376C98.9174 88.3719 99.1864 88.8664 99.5503 89.2877L100.21 90.0427Z" fill="#F4C7A8"/>
<path d="M91.6568 85.6123C88.2888 85.6123 85.9198 83.6547 85.4903 81.5163C85.3646 80.8506 85.3221 80.1717 85.3637 79.4955C85.3646 79.0739 85.2228 78.6644 84.9614 78.3336C84.6935 77.9958 84.5357 77.584 84.5093 77.1537C84.5305 76.941 84.605 76.7371 84.7259 76.5609C84.8468 76.3847 85.0102 76.2418 85.201 76.1455C85.443 76.0077 85.6519 75.8185 85.8128 75.5912C85.9737 75.3638 86.0828 75.104 86.1323 74.8299C86.4261 73.3968 87.2987 70.1372 87.3348 70.0016C87.356 69.9232 87.4074 69.8564 87.4777 69.8157C87.548 69.7751 87.6315 69.7639 87.7101 69.7846C87.7878 69.8068 87.8539 69.8584 87.8944 69.9284C87.9349 69.9984 87.9466 70.0814 87.9271 70.1598C87.9271 70.1915 87.0229 73.5369 86.7336 74.952C86.6668 75.3003 86.5276 75.6308 86.3252 75.9221C86.1227 76.2133 85.8614 76.4588 85.5581 76.6428C85.2371 76.8734 85.106 76.9728 85.106 77.1672C85.1364 77.4742 85.2541 77.766 85.4451 78.0081C85.7812 78.4454 85.9567 78.9849 85.9424 79.5362C85.9018 80.1565 85.9413 80.7795 86.0599 81.3897C86.4171 83.1755 88.7182 85.4586 92.7283 84.9296C92.7704 84.9192 92.8142 84.9178 92.8569 84.9255C92.8996 84.9332 92.9402 84.9499 92.976 84.9744C93.0118 84.9989 93.042 85.0308 93.0646 85.0678C93.0872 85.1049 93.1017 85.1463 93.1072 85.1893C93.1127 85.2324 93.109 85.2761 93.0963 85.3176C93.0837 85.3591 93.0624 85.3975 93.0338 85.4302C93.0053 85.4628 92.9702 85.4891 92.9308 85.5073C92.8913 85.5254 92.8485 85.535 92.8051 85.5354C92.4244 85.586 92.0409 85.6117 91.6568 85.6123V85.6123Z" fill="black"/>
<path d="M100.21 90.3502C100.164 90.3502 100.118 90.3396 100.077 90.3192C100.035 90.2989 99.9991 90.2692 99.9708 90.2327L98.931 88.9171C98.7034 88.6281 98.5365 88.2962 98.4402 87.9412C98.3439 87.5862 98.3201 87.2154 98.3704 86.851L98.8993 83.0037C98.9127 82.9241 98.9565 82.8527 99.0214 82.8046C99.0863 82.7566 99.1674 82.7356 99.2475 82.746C99.287 82.7516 99.325 82.7649 99.3594 82.7852C99.3938 82.8055 99.4238 82.8323 99.4477 82.8643C99.4717 82.8962 99.4891 82.9325 99.4989 82.9712C99.5088 83.0099 99.5109 83.0501 99.5052 83.0896L98.9762 86.9324C98.9387 87.2166 98.9594 87.5055 99.0371 87.7814C99.1148 88.0573 99.2479 88.3145 99.4283 88.5373L100.468 89.8529C100.518 89.9166 100.541 89.9974 100.531 90.0779C100.522 90.1583 100.482 90.2318 100.418 90.2824C100.36 90.3305 100.286 90.3547 100.21 90.3502V90.3502Z" fill="black"/>
<path d="M88.0266 92.1811C87.9495 92.1815 87.8751 92.1524 87.8186 92.0997C87.788 92.0706 87.7636 92.0355 87.7469 91.9967C87.7303 91.9578 87.7217 91.916 87.7217 91.8737C87.7217 91.8314 87.7303 91.7896 87.7469 91.7507C87.7636 91.7119 87.788 91.6768 87.8186 91.6477L89.0483 90.2914C89.3685 89.9447 89.582 89.513 89.6632 89.0481L90.373 85.1376C90.3758 85.0944 90.3878 85.0523 90.4081 85.0141C90.4283 84.9758 90.4564 84.9423 90.4905 84.9157C90.5246 84.8891 90.564 84.8699 90.606 84.8596C90.648 84.8492 90.6917 84.8478 90.7343 84.8555C90.7769 84.8632 90.8174 84.8797 90.8531 84.9041C90.8888 84.9286 90.919 84.9602 90.9416 84.9971C90.9643 85.034 90.9789 85.0752 90.9845 85.1181C90.9901 85.161 90.9866 85.2046 90.9742 85.2461L90.269 89.1566C90.1606 89.7354 89.8928 90.2724 89.4959 90.7073L88.2707 92.0636C88.2409 92.0996 88.2036 92.1287 88.1615 92.149C88.1194 92.1692 88.0734 92.1802 88.0266 92.1811Z" fill="black"/>
<path d="M55.44 56.0591C55.2502 56.0605 55.0623 56.022 54.8884 55.9461C54.2103 55.6613 53.8486 54.8973 53.9119 53.9072C53.9199 53.8273 53.958 53.7534 54.0184 53.7005C54.0788 53.6476 54.1571 53.6197 54.2374 53.6224C54.2776 53.6247 54.317 53.6349 54.3532 53.6526C54.3893 53.6703 54.4216 53.695 54.4482 53.7253C54.4747 53.7556 54.4949 53.7909 54.5076 53.8291C54.5203 53.8674 54.5253 53.9077 54.5222 53.9479C54.477 54.6667 54.6985 55.2002 55.1235 55.381C55.317 55.4506 55.5276 55.457 55.725 55.3993C55.9224 55.3417 56.0965 55.2229 56.2221 55.06C57.0268 54.1558 57.6733 52.3475 57.8722 51.0726C57.9251 50.747 57.8516 50.4136 57.6667 50.1404C57.4818 49.8673 57.1995 49.6751 56.8776 49.6033C56.8161 49.5796 56.7501 49.5697 56.6843 49.5742C56.6185 49.5788 56.5545 49.5976 56.4968 49.6295C56.4391 49.6614 56.389 49.7055 56.3502 49.7588C56.3113 49.812 56.2846 49.8731 56.2718 49.9378C56.2633 49.9772 56.247 50.0145 56.2239 50.0475C56.2007 50.0805 56.1713 50.1086 56.1372 50.1301C56.1031 50.1515 56.065 50.166 56.0253 50.1726C55.9855 50.1792 55.9448 50.1777 55.9056 50.1684C55.8267 50.1501 55.7582 50.1013 55.715 50.0327C55.6718 49.9642 55.6575 49.8813 55.6751 49.8022C55.7049 49.6607 55.7636 49.5267 55.8473 49.4087C55.931 49.2907 56.038 49.1911 56.1617 49.1161C56.2855 49.0411 56.4233 48.9923 56.5666 48.9727C56.71 48.953 56.8558 48.963 56.9952 49.002C57.4725 49.1047 57.8923 49.3864 58.1681 49.7893C58.444 50.1921 58.5549 50.6854 58.478 51.1675C58.261 52.5509 57.5738 54.4723 56.6696 55.4714C56.5176 55.6504 56.3295 55.7953 56.1176 55.8966C55.9057 55.9979 55.6748 56.0533 55.44 56.0591V56.0591Z" fill="black"/>
<path d="M53.3784 54.5265C53.0399 54.527 52.715 54.3938 52.4742 54.1558C51.891 53.5952 51.7328 52.5012 52.0719 51.4433C52.4109 50.3854 52.7681 49.115 52.7907 49.0382C52.8551 48.7378 53.0002 48.4607 53.2106 48.2368C53.4209 48.0129 53.6884 47.8508 53.9842 47.7678C54.3234 47.6779 54.68 47.6768 55.0197 47.7647C55.3593 47.8526 55.6707 48.0265 55.9237 48.2696C56.1235 48.4646 56.2672 48.7098 56.3396 48.9795C56.4119 49.2492 56.4104 49.5333 56.3351 49.8022C56.2718 50.0463 56.2085 50.2995 56.1452 50.5482C55.7293 52.2209 55.2953 53.9479 53.9661 54.4226C53.7779 54.4917 53.5789 54.5269 53.3784 54.5265V54.5265ZM54.4815 48.3058C54.3654 48.3049 54.2498 48.3201 54.1379 48.351C53.9448 48.4059 53.7709 48.5138 53.6359 48.6624C53.5009 48.811 53.4101 48.9944 53.3739 49.1919C53.3739 49.1919 53.0167 50.4803 52.6505 51.6196C52.3883 52.4424 52.4878 53.3195 52.8947 53.7128C53.009 53.8169 53.1518 53.8846 53.3048 53.9071C53.4579 53.9297 53.6141 53.9061 53.7536 53.8394C54.7754 53.4732 55.1506 51.9768 55.562 50.3899C55.6253 50.1367 55.6886 49.8836 55.7564 49.6349C55.8074 49.471 55.8107 49.2959 55.7658 49.1302C55.721 48.9645 55.6299 48.815 55.5032 48.6991C55.2268 48.44 54.8603 48.299 54.4815 48.3058V48.3058Z" fill="black"/>
<path d="M51.7913 60.5032C51.7336 60.5013 51.6774 60.4841 51.6285 60.4534C51.5945 60.4322 51.565 60.4045 51.5418 60.3718C51.5186 60.3391 51.5021 60.3021 51.4932 60.263C51.4844 60.2239 51.4834 60.1835 51.4904 60.144C51.4973 60.1045 51.512 60.0667 51.5336 60.033C51.8912 59.3345 51.9672 58.5254 51.7461 57.7725C51.5737 56.9567 51.0863 56.2418 50.3898 55.7833C50.3369 55.7531 50.2944 55.7075 50.2677 55.6527C50.2411 55.5978 50.2317 55.5362 50.2406 55.4759C50.2406 55.4759 50.4622 53.8303 50.7334 52.5238C50.9188 51.6196 50.4486 51.0093 49.3003 50.634C49.2247 50.6048 49.1408 50.6048 49.0652 50.634C49.0242 50.6544 48.9877 50.6829 48.9582 50.7179C48.9286 50.7529 48.9066 50.7936 48.8934 50.8375L47.0172 56.8864C46.9872 56.9566 46.932 57.0131 46.8626 57.0449C46.7931 57.0767 46.7143 57.0815 46.6416 57.0583C46.5688 57.0352 46.5072 56.9858 46.4688 56.9198C46.4305 56.8537 46.4181 56.7758 46.434 56.7011L48.3373 50.6838C48.4081 50.4445 48.5706 50.243 48.7894 50.1232C48.897 50.0665 49.0149 50.032 49.1361 50.0219C49.2572 50.0118 49.3792 50.0263 49.4947 50.0644C50.9278 50.5165 51.5833 51.4523 51.3347 52.6549C51.1267 53.6811 50.9414 54.9153 50.8826 55.3674C51.6214 55.922 52.1352 56.7247 52.3293 57.6279C52.5877 58.5349 52.4856 59.5068 52.0445 60.3404C52.0191 60.3864 51.9827 60.4254 51.9385 60.4538C51.8943 60.4822 51.8437 60.4992 51.7913 60.5032Z" fill="black"/>
<path d="M44.3727 49.6078H44.2868C44.2097 49.5837 44.145 49.5307 44.1062 49.4598C44.0674 49.389 44.0576 49.3059 44.0788 49.228C44.1602 48.9568 46.0183 42.528 46.6512 40.8824C47.0084 39.9783 47.7001 39.7341 48.2245 39.8336C48.9795 39.9737 49.7435 40.8146 49.7435 42.1483C49.7435 44.0968 49.4135 47.9486 49.3954 48.1113C49.3882 48.1917 49.3494 48.2659 49.2875 48.3176C49.2256 48.3693 49.1457 48.3943 49.0654 48.3871C48.9851 48.3799 48.9109 48.3411 48.8592 48.2792C48.8074 48.2173 48.7824 48.1374 48.7896 48.0571C48.7896 48.0164 49.1377 44.0697 49.1332 42.1483C49.1332 41.1582 48.6043 40.5298 48.1115 40.4349C47.7362 40.3671 47.4153 40.6112 47.2073 41.104C46.5834 42.727 44.6711 49.332 44.653 49.3998C44.634 49.4595 44.5967 49.5117 44.5464 49.549C44.4961 49.5864 44.4353 49.6069 44.3727 49.6078V49.6078Z" fill="black"/>
<path d="M49.3364 50.4804H49.255C49.1773 50.4581 49.1112 50.4066 49.0707 50.3366C49.0302 50.2666 49.0185 50.1836 49.038 50.1051C49.1194 49.8158 50.9323 43.1068 51.3753 41.6917C51.4908 41.323 51.7412 41.0115 52.0765 40.8195C52.4118 40.6275 52.8073 40.5693 53.1837 40.6565C53.6491 40.7499 54.0611 41.0178 54.3351 41.4054C54.6092 41.7929 54.7245 42.2707 54.6575 42.7406C54.5309 44.6981 54.0201 47.9125 54.0155 47.9441C54.0024 48.0239 53.958 48.0951 53.8923 48.1422C53.8266 48.1892 53.7449 48.2082 53.6652 48.1951C53.5854 48.1819 53.5142 48.1375 53.4672 48.0718C53.4201 48.0061 53.4011 47.9244 53.4143 47.8447C53.4143 47.813 53.9206 44.6303 54.0472 42.6999C54.1034 42.3798 54.0329 42.0504 53.8507 41.7813C53.6685 41.5121 53.3888 41.3244 53.0707 41.2577C52.842 41.2018 52.6005 41.2346 52.395 41.3496C52.1895 41.4645 52.0352 41.653 51.9631 41.8771C51.511 43.2786 49.6529 50.191 49.6348 50.2634C49.6152 50.3269 49.5756 50.3825 49.5218 50.4216C49.468 50.4607 49.4029 50.4814 49.3364 50.4804V50.4804Z" fill="black"/>
<path d="M88.6776 108.691H88.6098L66.7964 103.691C66.7134 103.669 66.6422 103.616 66.5975 103.542C66.5771 103.504 66.5645 103.463 66.5606 103.42C66.5568 103.377 66.5616 103.334 66.5749 103.293L71.1953 89.4234L58.8351 85.7117C58.7836 85.6972 58.7369 85.669 58.7003 85.6299C58.6636 85.5909 58.6383 85.5426 58.6272 85.4902L53.2699 62.5195C53.2513 62.441 53.2647 62.3583 53.3071 62.2896C53.3495 62.2209 53.4174 62.1719 53.4959 62.1533C53.5745 62.1347 53.6572 62.1481 53.7259 62.1905C53.7945 62.2329 53.8435 62.3008 53.8621 62.3794L59.1787 85.1737L71.6745 88.9216C71.7143 88.9329 71.7514 88.9524 71.7833 88.9789C71.8153 89.0053 71.8413 89.0382 71.8598 89.0753C71.8755 89.1125 71.8836 89.1524 71.8836 89.1928C71.8836 89.2332 71.8755 89.2731 71.8598 89.3104L67.244 103.162L88.7273 108.09C88.8041 108.103 88.8731 108.144 88.9202 108.206C88.9672 108.268 88.9885 108.346 88.9798 108.423C88.9711 108.5 88.933 108.571 88.8733 108.621C88.8137 108.671 88.7371 108.696 88.6595 108.691H88.6776Z" fill="black"/>
<path d="M44.9557 79.9476C44.8822 79.9473 44.8112 79.9207 44.7557 79.8726C44.7001 79.8245 44.6636 79.7581 44.6528 79.6854L42.7721 66.8325C42.7665 66.793 42.7686 66.7528 42.7785 66.7142C42.7884 66.6755 42.8059 66.6392 42.8298 66.6073C42.8537 66.5754 42.8837 66.5485 42.918 66.5282C42.9523 66.5079 42.9903 66.4945 43.0298 66.4889C43.0693 66.4833 43.1095 66.4854 43.1481 66.4953C43.1867 66.5052 43.223 66.5226 43.2549 66.5466C43.2869 66.5705 43.3137 66.6005 43.3341 66.6348C43.3544 66.6691 43.3677 66.7071 43.3734 66.7466L45.2586 79.5995C45.2703 79.6798 45.2497 79.7614 45.2015 79.8266C45.1532 79.8918 45.0811 79.9353 45.0009 79.9476H44.9557Z" fill="black"/>
<path d="M115.518 81.8599L122.263 78.3426L111.738 58.2924C111.738 58.2924 101.72 55.1278 100.68 54.8611C99.6405 54.5943 100.264 52.5057 101.901 52.6006C103.085 52.6594 107.267 52.4786 107.267 52.4786C107.267 52.4786 101.883 44.1511 100.857 42.5326C99.8303 40.9141 101.584 39.5759 103.013 41C104.369 42.3563 107.199 45.4847 107.199 45.4847C106.209 44.0833 109.008 42.6185 110.17 44.1737C109.388 42.4919 112.647 41.7053 113.253 43.1022C112.801 41.8906 115.26 41.3617 115.92 42.406C116.58 43.4503 118.52 47.6367 119.871 49.7208C120.825 51.1811 130.925 67.0042 136.875 76.3218C138.029 78.1316 138.435 80.319 138.008 82.4227C137.58 84.5263 136.352 86.3815 134.582 87.5969L125.31 93.9442L115.518 81.8599Z" fill="#F4C7A8"/>
<path d="M125.31 94.2517C125.264 94.2517 125.219 94.2411 125.177 94.2208C125.135 94.2004 125.099 94.1708 125.071 94.1342L115.283 82.0498C115.254 82.0152 115.233 81.9744 115.222 81.9305C115.211 81.8867 115.21 81.8409 115.22 81.7966C115.23 81.7526 115.249 81.7112 115.276 81.6753C115.303 81.6394 115.338 81.6098 115.378 81.5887L121.847 78.2116L116.047 67.1625C116.011 67.0905 116.004 67.0069 116.028 66.9299C116.053 66.8529 116.107 66.7887 116.178 66.7511C116.214 66.7322 116.252 66.7205 116.292 66.7166C116.332 66.7128 116.372 66.7168 116.41 66.7286C116.449 66.7404 116.484 66.7596 116.515 66.7852C116.546 66.8108 116.571 66.8422 116.59 66.8777L122.517 78.2116C122.532 78.2488 122.54 78.2887 122.54 78.3291C122.54 78.3695 122.532 78.4095 122.517 78.4467C122.505 78.4853 122.486 78.5213 122.46 78.5523C122.435 78.5834 122.403 78.609 122.367 78.6275L115.952 81.9684L125.333 93.5465L133.502 87.9406C133.569 87.905 133.646 87.8951 133.719 87.9128C133.793 87.9305 133.857 87.9745 133.9 88.0364C133.943 88.0984 133.962 88.174 133.952 88.2488C133.943 88.3237 133.907 88.3925 133.85 88.4424L125.446 94.211C125.405 94.235 125.358 94.2489 125.31 94.2517V94.2517Z" fill="black"/>
<path d="M111.739 58.5999C111.709 58.6046 111.678 58.6046 111.648 58.5999C111.549 58.5682 101.621 55.4353 100.599 55.1685C100.337 55.0897 100.117 54.912 99.9842 54.673C99.8517 54.4341 99.8176 54.1528 99.8893 53.8891C99.9708 53.4202 100.223 52.998 100.596 52.7034C100.97 52.4089 101.44 52.2628 101.915 52.2932C102.819 52.3384 105.558 52.239 106.72 52.1938C105.59 50.4397 101.485 44.0878 100.599 42.6999C99.9797 41.7279 100.242 40.8554 100.78 40.4394C101.318 40.0235 102.34 39.915 103.23 40.8011C104.121 41.6872 105.717 43.5815 106.594 44.6439C106.729 44.2876 106.971 43.9815 107.285 43.7668C107.633 43.4978 108.046 43.3273 108.482 43.2732C108.918 43.2191 109.36 43.2834 109.763 43.4594C109.798 43.2713 109.875 43.0936 109.989 42.9395C110.254 42.6327 110.591 42.3962 110.97 42.2511C111.348 42.1059 111.757 42.0567 112.159 42.1076C112.458 42.1354 112.748 42.2312 113.004 42.3879C113.146 42.1235 113.372 41.9136 113.646 41.7912C114.451 41.3933 115.69 41.4928 116.178 42.2433C116.431 42.6502 116.874 43.5182 117.435 44.6167C118.276 46.2578 119.316 48.3013 120.147 49.5536C120.337 49.8429 120.893 50.7109 121.712 51.9903C121.755 52.059 121.769 52.1418 121.753 52.2211C121.736 52.3005 121.689 52.3701 121.621 52.4153C121.553 52.4578 121.47 52.4716 121.392 52.4539C121.313 52.4361 121.244 52.3882 121.201 52.3204C120.382 51.0455 119.845 50.1775 119.637 49.8881C118.805 48.6087 117.756 46.5517 116.924 44.9151C116.391 43.8708 115.934 42.9711 115.69 42.5914C115.391 42.1393 114.505 42.067 113.949 42.3427C113.705 42.4603 113.447 42.6728 113.569 43.0164C113.599 43.0913 113.598 43.1751 113.567 43.2493C113.535 43.3234 113.475 43.382 113.4 43.4119C113.325 43.4419 113.241 43.4409 113.167 43.4091C113.093 43.3773 113.034 43.3173 113.004 43.2424C112.919 43.0797 112.792 42.9425 112.636 42.8448C112.481 42.7471 112.302 42.6924 112.118 42.6863C111.824 42.6466 111.524 42.6781 111.244 42.7779C110.964 42.8778 110.712 43.0433 110.509 43.2605C110.429 43.372 110.383 43.5041 110.376 43.6411C110.368 43.7781 110.4 43.9142 110.468 44.0336C110.51 44.1025 110.522 44.185 110.502 44.263C110.483 44.341 110.433 44.4081 110.364 44.4495C110.295 44.4908 110.213 44.5031 110.135 44.4836C110.057 44.4641 109.99 44.4144 109.948 44.3455C109.361 43.5589 108.239 43.812 107.665 44.228C107.475 44.3681 106.888 44.8699 107.294 45.4441C107.342 45.5091 107.361 45.59 107.349 45.6694C107.338 45.7489 107.295 45.8205 107.231 45.869C107.168 45.9168 107.089 45.9379 107.01 45.9277C106.931 45.9176 106.86 45.877 106.811 45.8148C106.784 45.7831 104.157 42.5326 102.819 41.2035C102.195 40.5796 101.548 40.5886 101.187 40.8825C100.825 41.1763 100.689 41.6601 101.137 42.3563C102.168 43.9703 107.548 52.3023 107.548 52.3023C107.573 52.3469 107.587 52.3973 107.587 52.4487C107.588 52.5001 107.575 52.5508 107.551 52.596C107.526 52.6412 107.491 52.6795 107.448 52.7072C107.404 52.7349 107.355 52.7511 107.304 52.7544C107.136 52.7544 103.095 52.9397 101.91 52.8809C101.584 52.8546 101.261 52.9508 101.002 53.1507C100.744 53.3506 100.57 53.6397 100.513 53.9614C100.491 54.1106 100.468 54.4633 100.784 54.5537C101.815 54.8385 111.445 57.8585 111.852 57.9896C111.89 58.0009 111.926 58.0198 111.957 58.0452C111.987 58.0705 112.013 58.1019 112.031 58.1373C112.05 58.1727 112.061 58.2115 112.065 58.2514C112.068 58.2912 112.063 58.3313 112.05 58.3693C112.034 58.4382 111.993 58.499 111.936 58.5411C111.879 58.5832 111.809 58.604 111.739 58.5999V58.5999Z" fill="black"/>
<path d="M100.21 90.3501C100.155 90.3503 100.101 90.3352 100.054 90.3065C100.007 90.2777 99.9685 90.2365 99.9434 90.1874C99.9047 90.116 99.8958 90.0322 99.9187 89.9542C99.9416 89.8763 99.9943 89.8106 100.066 89.7715L115.373 81.5886C115.409 81.5697 115.447 81.558 115.487 81.5541C115.527 81.5503 115.567 81.5544 115.605 81.5661C115.644 81.5779 115.679 81.5971 115.71 81.6227C115.741 81.6483 115.766 81.6797 115.785 81.7152C115.804 81.7505 115.815 81.7892 115.819 81.829C115.823 81.8688 115.819 81.909 115.807 81.9473C115.795 81.9856 115.776 82.0211 115.751 82.0519C115.725 82.0827 115.694 82.1081 115.658 82.1266L100.364 90.314C100.316 90.3384 100.264 90.3509 100.21 90.3501V90.3501Z" fill="black"/>
<path d="M112.467 102.67C112.416 102.67 112.366 102.657 112.322 102.633C112.277 102.608 112.24 102.573 112.213 102.529C112.169 102.462 112.153 102.379 112.169 102.299C112.185 102.22 112.232 102.15 112.299 102.104L125.143 93.6865C125.211 93.6529 125.288 93.6452 125.361 93.6648C125.433 93.6845 125.496 93.7302 125.538 93.7932C125.579 93.8562 125.596 93.9322 125.585 94.0067C125.574 94.0812 125.536 94.1491 125.478 94.1974L112.634 102.624C112.583 102.655 112.525 102.67 112.467 102.67V102.67Z" fill="black"/>
<path d="M114.483 108.117C114.423 108.116 114.364 108.098 114.314 108.064C114.264 108.031 114.226 107.983 114.203 107.927L109.881 97.6513C109.865 97.6145 109.857 97.575 109.857 97.5351C109.857 97.4952 109.864 97.4557 109.88 97.4187C109.895 97.3818 109.917 97.3482 109.945 97.3198C109.973 97.2915 110.007 97.2689 110.043 97.2535C110.08 97.2381 110.12 97.23 110.16 97.2299C110.199 97.2297 110.239 97.2374 110.276 97.2525C110.313 97.2676 110.347 97.2898 110.375 97.3179C110.403 97.346 110.426 97.3794 110.441 97.4163L114.763 107.701C114.779 107.738 114.787 107.778 114.787 107.818C114.787 107.858 114.78 107.897 114.765 107.934C114.749 107.971 114.727 108.005 114.699 108.033C114.671 108.061 114.637 108.084 114.6 108.099C114.563 108.114 114.523 108.12 114.483 108.117V108.117Z" fill="black"/>
<path d="M81.7967 91.3764H81.7424L71.5342 89.5138C71.4946 89.5072 71.4567 89.4929 71.4227 89.4715C71.3887 89.4502 71.3593 89.4223 71.3361 89.3895C71.313 89.3567 71.2966 89.3196 71.2879 89.2804C71.2792 89.2412 71.2784 89.2007 71.2856 89.1612C71.301 89.0813 71.3469 89.0107 71.4136 88.9643C71.4803 88.9178 71.5625 88.8992 71.6427 88.9125L81.8509 90.7661C81.8906 90.7731 81.9284 90.788 81.9623 90.8099C81.9961 90.8317 82.0253 90.8601 82.048 90.8934C82.0707 90.9266 82.0866 90.9641 82.0947 91.0036C82.1028 91.043 82.1029 91.0837 82.095 91.1232C82.0833 91.1939 82.0469 91.2581 81.9922 91.3045C81.9376 91.3508 81.8683 91.3763 81.7967 91.3764V91.3764Z" fill="black"/>
<path d="M108.85 48.3736C108.802 48.3745 108.754 48.3639 108.711 48.3426C108.667 48.3214 108.63 48.2902 108.601 48.2515L106.734 45.7108C106.705 45.6789 106.683 45.6413 106.669 45.6004C106.655 45.5594 106.651 45.516 106.655 45.4731C106.659 45.4301 106.672 45.3885 106.694 45.351C106.715 45.3135 106.744 45.2809 106.779 45.2554C106.814 45.2298 106.853 45.2119 106.896 45.2028C106.938 45.1936 106.981 45.1935 107.024 45.2023C107.066 45.2112 107.106 45.2288 107.141 45.2541C107.176 45.2794 107.205 45.3118 107.227 45.3491L109.094 47.8853C109.122 47.9183 109.142 47.9567 109.154 47.9981C109.166 48.0394 109.169 48.0828 109.163 48.1254C109.157 48.1681 109.142 48.2089 109.119 48.2455C109.096 48.282 109.066 48.3133 109.031 48.3374C108.975 48.3672 108.912 48.3798 108.85 48.3736V48.3736Z" fill="black"/>
<path d="M111.892 47.1258C111.841 47.1257 111.79 47.1129 111.745 47.0884C111.7 47.064 111.662 47.0286 111.634 46.9856L109.912 44.3273C109.871 44.259 109.858 44.1775 109.876 44.1C109.894 44.0224 109.941 43.9549 110.008 43.9115C110.075 43.8682 110.156 43.8524 110.234 43.8676C110.312 43.8827 110.382 43.9276 110.427 43.9928L112.15 46.6556C112.193 46.7236 112.207 46.8057 112.19 46.8843C112.173 46.9629 112.126 47.0317 112.059 47.0761C112.01 47.1094 111.952 47.1268 111.892 47.1258V47.1258Z" fill="black"/>
<path d="M145.062 184.249V171.6H134.257V184.249H145.062Z" fill="#F4C7A8"/>
<path d="M138.791 168.833L137.973 169.199C137.543 169.39 137.206 169.744 137.037 170.183C136.867 170.622 136.879 171.11 137.069 171.541L137.309 172.083C137.441 172.383 137.654 172.641 137.924 172.827C138.193 173.014 138.509 173.123 138.837 173.141L140.681 173.241C141.009 173.258 141.326 173.366 141.596 173.553C141.865 173.74 142.078 173.998 142.209 174.299L144.271 178.978C144.384 179.236 144.435 179.517 144.418 179.798C144.402 180.08 144.319 180.353 144.176 180.596L141.712 184.778C141.568 185.022 141.484 185.296 141.468 185.578C141.451 185.86 141.503 186.143 141.617 186.401V186.401C141.848 186.831 142.218 187.171 142.666 187.364C148.091 190.33 153.634 193.662 158.756 197.016C159.583 197.554 160.397 198.11 161.382 198.024L165.334 197.667L150.415 163.815L138.791 168.833Z" fill="#E95440"/>
<path d="M150.415 163.815L153.647 162.386C153.924 162.264 154.238 162.257 154.52 162.367C154.802 162.476 155.03 162.693 155.152 162.969L169.131 194.733C169.253 195.01 169.26 195.324 169.15 195.606C169.041 195.889 168.824 196.116 168.548 196.239L165.315 197.667L150.415 163.815Z" fill="#FFFDF7"/>
<path d="M165.316 197.975C165.257 197.975 165.199 197.958 165.149 197.926C165.099 197.893 165.06 197.848 165.035 197.794C165.003 197.719 165.002 197.634 165.031 197.558C165.061 197.482 165.119 197.421 165.194 197.387L168.426 195.958C168.528 195.917 168.621 195.856 168.698 195.778C168.776 195.701 168.837 195.608 168.878 195.506C168.921 195.405 168.943 195.295 168.943 195.185C168.943 195.075 168.921 194.966 168.878 194.864L154.9 163.105C154.858 163.003 154.797 162.911 154.719 162.833C154.642 162.756 154.549 162.694 154.447 162.653C154.346 162.61 154.237 162.588 154.126 162.588C154.016 162.588 153.907 162.61 153.805 162.653L150.546 164.109C150.509 164.125 150.47 164.134 150.429 164.135C150.389 164.136 150.349 164.129 150.312 164.114C150.274 164.099 150.24 164.077 150.211 164.049C150.182 164.021 150.159 163.987 150.144 163.95C150.112 163.876 150.11 163.792 150.14 163.717C150.17 163.641 150.228 163.581 150.302 163.548L153.534 162.119C153.708 162.042 153.895 162 154.085 161.996C154.275 161.991 154.463 162.024 154.64 162.093C154.817 162.162 154.979 162.266 155.116 162.397C155.253 162.529 155.362 162.687 155.438 162.861L169.421 194.62C169.567 194.976 169.567 195.376 169.421 195.732C169.354 195.91 169.251 196.073 169.12 196.21C168.989 196.348 168.831 196.457 168.657 196.532L165.424 197.961C165.389 197.972 165.352 197.977 165.316 197.975V197.975Z" fill="black"/>
<path d="M153.363 170.922L146.532 169.8C145.94 169.707 145.382 169.467 144.907 169.101C144.433 168.735 144.059 168.256 143.819 167.707L143.412 166.803L143.973 166.554L144.38 167.486C144.578 167.939 144.887 168.335 145.278 168.638C145.669 168.941 146.129 169.142 146.617 169.222L153.444 170.338L153.363 170.922Z" fill="black"/>
<path d="M155.428 194.909L154.917 194.575L156.812 191.686C156.984 191.42 157.045 191.097 156.979 190.787C156.914 190.477 156.729 190.205 156.464 190.031L149.158 185.275C149.022 185.187 148.87 185.127 148.711 185.1C148.551 185.072 148.388 185.078 148.231 185.117C148.074 185.155 147.927 185.224 147.798 185.32C147.669 185.417 147.561 185.538 147.48 185.678L145.546 189.046L145.017 188.738L146.952 185.375C147.074 185.164 147.238 184.979 147.434 184.833C147.63 184.687 147.853 184.582 148.091 184.524C148.328 184.467 148.575 184.458 148.816 184.499C149.056 184.539 149.287 184.628 149.492 184.76L156.798 189.521C156.997 189.649 157.168 189.816 157.302 190.012C157.435 190.207 157.529 190.428 157.576 190.66C157.674 191.128 157.583 191.615 157.322 192.016L155.428 194.909Z" fill="black"/>
<path d="M147.833 190.253L150.401 185.99L147.833 190.253Z" fill="#E95440"/>
<path d="M147.833 190.56C147.777 190.561 147.722 190.545 147.675 190.515C147.606 190.473 147.556 190.405 147.536 190.326C147.517 190.248 147.529 190.164 147.571 190.095L150.139 185.831C150.184 185.769 150.251 185.726 150.326 185.711C150.402 185.696 150.48 185.71 150.546 185.749C150.612 185.789 150.66 185.852 150.682 185.926C150.704 186 150.697 186.079 150.663 186.148L148.095 190.411C148.068 190.456 148.03 190.494 147.984 190.52C147.938 190.546 147.886 190.56 147.833 190.56V190.56Z" fill="black"/>
<path d="M150.243 191.686L152.807 187.436L150.243 191.686Z" fill="#E95440"/>
<path d="M150.243 192.007C150.187 192.008 150.132 191.992 150.085 191.962C150.015 191.92 149.965 191.852 149.946 191.773C149.927 191.694 149.939 191.611 149.981 191.541L152.553 187.278C152.573 187.244 152.6 187.213 152.632 187.189C152.664 187.165 152.7 187.148 152.739 187.138C152.778 187.128 152.818 187.127 152.858 187.133C152.897 187.139 152.935 187.153 152.969 187.174C153.004 187.195 153.034 187.222 153.058 187.254C153.082 187.287 153.1 187.323 153.109 187.363C153.119 187.402 153.121 187.442 153.115 187.482C153.108 187.522 153.094 187.56 153.073 187.595L150.505 191.858C150.478 191.903 150.439 191.941 150.394 191.967C150.348 191.993 150.296 192.007 150.243 192.007V192.007Z" fill="black"/>
<path d="M152.567 193.223L155.139 188.96L152.567 193.223Z" fill="#E95440"/>
<path d="M152.567 193.531C152.511 193.531 152.456 193.515 152.408 193.485C152.339 193.443 152.289 193.375 152.27 193.297C152.25 193.218 152.263 193.135 152.304 193.065L154.877 188.802C154.898 188.768 154.925 188.738 154.957 188.714C154.989 188.691 155.026 188.674 155.065 188.664C155.104 188.655 155.144 188.653 155.183 188.659C155.223 188.665 155.261 188.679 155.295 188.7C155.329 188.721 155.359 188.748 155.382 188.78C155.406 188.813 155.423 188.849 155.432 188.888C155.442 188.927 155.444 188.967 155.437 189.007C155.431 189.046 155.417 189.084 155.397 189.118L152.829 193.381C152.802 193.427 152.764 193.465 152.718 193.492C152.672 193.518 152.62 193.531 152.567 193.531V193.531Z" fill="black"/>
<path d="M114.831 46.1583C114.777 46.158 114.724 46.1436 114.677 46.1167C114.63 46.0897 114.591 46.0511 114.564 46.0046L112.932 43.1022C112.912 43.0675 112.899 43.0292 112.894 42.9895C112.889 42.9498 112.892 42.9095 112.902 42.8708C112.913 42.8322 112.931 42.796 112.955 42.7644C112.98 42.7327 113.01 42.7062 113.045 42.6863C113.08 42.6664 113.118 42.6535 113.158 42.6485C113.197 42.6434 113.238 42.6462 113.276 42.6567C113.315 42.6672 113.351 42.6852 113.383 42.7096C113.414 42.7341 113.441 42.7646 113.461 42.7993L115.097 45.7017C115.117 45.7367 115.13 45.7752 115.135 45.8152C115.14 45.8551 115.137 45.8956 115.126 45.9343C115.115 45.9731 115.096 46.0092 115.071 46.0407C115.046 46.0722 115.015 46.0983 114.98 46.1177C114.935 46.1441 114.883 46.1581 114.831 46.1583V46.1583Z" fill="black"/>
<path d="M106.815 152.992C106.77 152.993 106.725 152.982 106.684 152.96C106.648 152.943 106.615 152.919 106.588 152.889C106.561 152.86 106.54 152.825 106.527 152.787C106.513 152.749 106.508 152.709 106.51 152.669C106.512 152.629 106.522 152.589 106.54 152.553L112.259 140.509C112.642 139.712 112.694 138.795 112.403 137.96L110.676 132.914C110.663 132.876 110.657 132.836 110.659 132.796C110.662 132.756 110.672 132.716 110.69 132.68C110.707 132.644 110.732 132.612 110.762 132.585C110.793 132.558 110.828 132.538 110.866 132.526C110.943 132.501 111.026 132.507 111.099 132.542C111.171 132.578 111.227 132.64 111.255 132.715L112.982 137.774C113.325 138.763 113.263 139.847 112.81 140.79L107.091 152.806C107.068 152.861 107.03 152.907 106.981 152.94C106.932 152.973 106.874 152.991 106.815 152.992V152.992Z" fill="#FAF5FF"/>
<path d="M134.569 187.115C134.489 187.114 134.411 187.081 134.355 187.024C134.298 186.966 134.266 186.889 134.266 186.808V167.228C134.266 167.108 134.219 166.993 134.134 166.908C134.049 166.824 133.934 166.776 133.814 166.776H117.223C117.179 166.781 117.136 166.777 117.094 166.764C117.052 166.751 117.014 166.73 116.982 166.701C116.949 166.672 116.923 166.637 116.905 166.597C116.887 166.557 116.878 166.514 116.878 166.471C116.878 166.427 116.887 166.384 116.905 166.345C116.923 166.305 116.949 166.269 116.982 166.241C117.014 166.212 117.052 166.19 117.094 166.177C117.136 166.164 117.179 166.16 117.223 166.166H133.819C134.101 166.166 134.371 166.278 134.57 166.477C134.769 166.676 134.881 166.946 134.881 167.228V186.808C134.881 186.849 134.873 186.889 134.857 186.927C134.842 186.964 134.819 186.998 134.79 187.027C134.761 187.056 134.726 187.078 134.688 187.093C134.65 187.109 134.61 187.116 134.569 187.115Z" fill="#FAF5FF"/>
<path d="M29.6121 160.786C39.5544 160.786 47.6143 152.708 47.6143 142.743C47.6143 132.778 39.5544 124.7 29.6121 124.7C19.6697 124.7 11.6099 132.778 11.6099 142.743C11.6099 152.708 19.6697 160.786 29.6121 160.786Z" fill="#FF9B38"/>
<path d="M29.6117 161.093C25.9807 161.101 22.4288 160.032 19.4058 158.02C16.3827 156.009 14.0244 153.146 12.6293 149.793C11.2341 146.441 10.8649 142.75 11.5684 139.188C12.2718 135.626 14.0163 132.352 16.581 129.782C19.1457 127.211 22.4154 125.46 25.9761 124.748C29.5368 124.037 33.2285 124.398 36.584 125.786C39.9394 127.173 42.8078 129.525 44.8259 132.544C46.8441 135.562 47.9213 139.112 47.9214 142.743C47.9214 147.603 45.9936 152.264 42.5611 155.704C39.1285 159.144 34.4715 161.082 29.6117 161.093V161.093ZM29.6117 125.007C26.1024 125 22.6699 126.034 19.7486 127.979C16.8272 129.923 14.5484 132.691 13.2005 135.931C11.8526 139.171 11.4962 142.738 12.1765 146.181C12.8567 149.623 14.543 152.787 17.0219 155.271C19.5008 157.755 22.6609 159.448 26.1022 160.135C29.5435 160.822 33.1114 160.473 36.3542 159.132C39.5971 157.79 42.3691 155.517 44.3195 152.6C46.2699 149.683 47.311 146.252 47.311 142.743C47.311 138.045 45.4475 133.54 42.1292 130.215C38.811 126.89 34.3092 125.017 29.6117 125.007Z" fill="black"/>
<path d="M179.796 112.778C179.741 112.779 179.687 112.765 179.64 112.737C179.593 112.709 179.555 112.669 179.529 112.62C178.399 110.554 176.098 108.135 173.652 105.572C170.578 102.344 167.395 99.0032 165.714 95.599C163.693 91.503 165.316 89.4008 168.553 85.2009L168.688 85.0246C168.711 84.9885 168.742 84.9576 168.777 84.9339C168.813 84.9102 168.853 84.8942 168.895 84.8869C168.937 84.8795 168.98 84.8811 169.022 84.8914C169.063 84.9018 169.102 84.9206 169.136 84.9468C169.17 84.9731 169.198 85.006 169.218 85.0437C169.238 85.0813 169.251 85.1227 169.254 85.1654C169.257 85.208 169.252 85.2509 169.238 85.2912C169.224 85.3316 169.201 85.3686 169.172 85.3998L169.036 85.5761C165.872 89.6856 164.407 91.5618 166.261 95.3141C167.902 98.6325 171.053 101.942 174.095 105.138C176.564 107.729 178.892 110.174 180.063 112.313C180.1 112.384 180.109 112.468 180.086 112.545C180.063 112.623 180.011 112.689 179.941 112.729C179.898 112.757 179.848 112.774 179.796 112.778V112.778Z" fill="black"/>
<path d="M102.624 135.378C99.3917 135.378 95.7886 132.566 95.7886 128.529C95.7886 128.448 95.821 128.369 95.8786 128.312C95.9363 128.254 96.0145 128.222 96.096 128.222C96.1775 128.222 96.2557 128.254 96.3134 128.312C96.371 128.369 96.4034 128.448 96.4034 128.529C96.4034 132.544 100.079 134.763 102.624 134.763C102.706 134.763 102.784 134.796 102.842 134.853C102.899 134.911 102.932 134.989 102.932 135.071C102.932 135.152 102.899 135.231 102.842 135.288C102.784 135.346 102.706 135.378 102.624 135.378V135.378Z" fill="#FAF5FF"/>
<path d="M0.307204 115.798C0.226459 115.796 0.149891 115.762 0.0940548 115.703C0.0382186 115.645 0.00760172 115.567 0.00882432 115.486C0.144451 109.157 4.01886 101.223 14.4757 97.9769C24.3584 94.9117 26.3657 87.6783 24.9551 81.9322C24.9453 81.8575 24.9632 81.7817 25.0056 81.7193C25.0479 81.657 25.1117 81.6123 25.1848 81.5939C25.2579 81.5755 25.3353 81.5846 25.4021 81.6195C25.469 81.6543 25.5207 81.7125 25.5474 81.783C27.0212 87.8049 24.9371 95.3909 14.652 98.5556C4.52068 101.72 0.745731 109.379 0.610104 115.5C0.608916 115.579 0.57648 115.655 0.519804 115.711C0.463127 115.767 0.386761 115.798 0.307204 115.798V115.798Z" fill="black"/>
<path d="M104.179 10.4207C104.14 10.4213 104.1 10.4136 104.064 10.398C104.027 10.3824 103.994 10.3594 103.967 10.3303C90.906 -2.75772 75.0693 0.203471 66.796 3.13301C66.7578 3.14656 66.7172 3.1524 66.6766 3.15017C66.6361 3.14795 66.5964 3.13772 66.5598 3.12006C66.5232 3.10241 66.4905 3.07768 66.4636 3.04732C66.4366 3.01695 66.4159 2.98154 66.4027 2.94314C66.3892 2.90516 66.3835 2.86488 66.3857 2.82465C66.388 2.78442 66.3983 2.74505 66.416 2.70885C66.4337 2.67264 66.4584 2.64032 66.4887 2.61379C66.519 2.58726 66.5544 2.56705 66.5926 2.55434C75.0015 -0.420413 91.1004 -3.42681 104.396 9.89628C104.428 9.92469 104.454 9.95952 104.471 9.99847C104.489 10.0374 104.498 10.0796 104.498 10.1223C104.498 10.165 104.489 10.2072 104.471 10.2462C104.454 10.2851 104.428 10.32 104.396 10.3484C104.367 10.3748 104.333 10.3948 104.295 10.4073C104.258 10.4197 104.219 10.4243 104.179 10.4207V10.4207Z" fill="black"/>
<path d="M163.372 59.8567C162.98 59.8576 162.596 59.7421 162.27 59.5248C161.944 59.3076 161.689 58.9984 161.539 58.6364C161.388 58.2744 161.349 57.8758 161.425 57.4913C161.501 57.1068 161.69 56.7535 161.967 56.4763C162.244 56.1991 162.598 56.0105 162.982 55.9342C163.367 55.8579 163.765 55.8975 164.127 56.048C164.489 56.1984 164.798 56.4529 165.016 56.7792C165.233 57.1055 165.348 57.489 165.348 57.881C165.348 58.1405 165.296 58.3974 165.197 58.6371C165.098 58.8768 164.952 59.0946 164.769 59.278C164.585 59.4615 164.368 59.607 164.128 59.7063C163.888 59.8056 163.631 59.8567 163.372 59.8567V59.8567ZM163.372 56.5157C163.104 56.5157 162.841 56.5953 162.618 56.7443C162.395 56.8933 162.221 57.1051 162.119 57.353C162.016 57.6008 161.989 57.8735 162.042 58.1366C162.094 58.3997 162.223 58.6413 162.413 58.831C162.603 59.0207 162.844 59.1499 163.107 59.2022C163.37 59.2545 163.643 59.2277 163.891 59.125C164.139 59.0224 164.351 58.8485 164.5 58.6255C164.649 58.4025 164.728 58.1402 164.728 57.872C164.729 57.6935 164.694 57.5167 164.626 57.3516C164.558 57.1865 164.459 57.0365 164.333 56.91C164.207 56.7836 164.057 56.6833 163.892 56.6149C163.727 56.5464 163.55 56.5112 163.372 56.5112V56.5157Z" fill="black"/>
<path d="M172.897 57.5284C172.319 57.5302 171.752 57.3601 171.27 57.0398C170.788 56.7195 170.411 56.2633 170.189 55.729C169.966 55.1947 169.907 54.6063 170.018 54.0383C170.13 53.4703 170.408 52.9482 170.817 52.5383C171.226 52.1283 171.747 51.8488 172.314 51.7352C172.882 51.6216 173.471 51.679 174.006 51.9001C174.541 52.1213 174.998 52.4961 175.32 52.9774C175.642 53.4586 175.813 54.0245 175.813 54.6034C175.813 55.3776 175.506 56.1202 174.96 56.6685C174.413 57.2168 173.672 57.526 172.897 57.5284V57.5284ZM172.897 52.2932C172.439 52.2914 171.99 52.4257 171.609 52.6792C171.227 52.9326 170.929 53.2938 170.752 53.7168C170.576 54.1399 170.529 54.6058 170.617 55.0555C170.706 55.5053 170.926 55.9185 171.25 56.243C171.574 56.5674 171.987 56.7884 172.436 56.878C172.886 56.9675 173.352 56.9216 173.775 56.7459C174.199 56.5703 174.56 56.2729 174.815 55.8915C175.069 55.5101 175.204 55.0617 175.203 54.6034C175.203 53.9914 174.96 53.4045 174.528 52.9714C174.096 52.5383 173.509 52.2944 172.897 52.2932V52.2932Z" fill="black"/>
<path d="M180.881 130.301C180.53 130.303 180.187 130.201 179.894 130.007C179.602 129.813 179.373 129.537 179.238 129.214C179.102 128.89 179.066 128.533 179.133 128.189C179.2 127.845 179.368 127.528 179.616 127.279C179.863 127.03 180.179 126.861 180.523 126.792C180.867 126.723 181.224 126.757 181.548 126.891C181.873 127.025 182.15 127.252 182.345 127.544C182.54 127.835 182.644 128.178 182.644 128.529C182.644 128.998 182.459 129.447 182.129 129.779C181.798 130.111 181.35 130.299 180.881 130.301V130.301ZM180.881 127.372C180.652 127.372 180.429 127.44 180.238 127.567C180.048 127.694 179.9 127.875 179.812 128.086C179.724 128.298 179.702 128.53 179.746 128.755C179.791 128.979 179.901 129.186 180.063 129.348C180.225 129.509 180.431 129.62 180.656 129.664C180.88 129.709 181.113 129.686 181.324 129.598C181.536 129.511 181.716 129.362 181.844 129.172C181.971 128.982 182.039 128.758 182.039 128.529C182.039 128.222 181.917 127.928 181.7 127.711C181.483 127.494 181.188 127.372 180.881 127.372Z" fill="black"/>
<path d="M40.3624 17.3919C39.9339 17.3973 39.5135 17.2751 39.1545 17.0409C38.7956 16.8068 38.5144 16.4712 38.3467 16.0768C38.179 15.6825 38.1323 15.2471 38.2126 14.8262C38.2929 14.4052 38.4965 14.0176 38.7976 13.7127C39.0987 13.4077 39.4837 13.1992 39.9036 13.1136C40.3236 13.028 40.7594 13.0692 41.1559 13.2319C41.5523 13.3947 41.8915 13.6716 42.1301 14.0275C42.3688 14.3835 42.4963 14.8023 42.4963 15.2309C42.4963 15.7993 42.2724 16.3449 41.873 16.7494C41.4736 17.1539 40.9308 17.3847 40.3624 17.3919V17.3919ZM40.3624 13.6893C40.0562 13.6884 39.7567 13.7784 39.5017 13.948C39.2468 14.1175 39.0479 14.3589 38.9303 14.6416C38.8127 14.9243 38.7817 15.2356 38.8413 15.5359C38.9008 15.8363 39.0481 16.1122 39.2646 16.3287C39.4811 16.5452 39.757 16.6925 40.0574 16.7521C40.3577 16.8116 40.669 16.7806 40.9517 16.663C41.2344 16.5454 41.4758 16.3465 41.6454 16.0916C41.8149 15.8366 41.905 15.5371 41.9041 15.2309C41.9029 14.8224 41.7401 14.431 41.4512 14.1421C41.1624 13.8533 40.7709 13.6905 40.3624 13.6893Z" fill="black"/>
<path d="M33.4048 12.0391C32.698 12.0409 32.0066 11.833 31.4181 11.4416C30.8296 11.0503 30.3704 10.4931 30.0987 9.84065C29.827 9.1882 29.755 8.46981 29.8917 7.77641C30.0285 7.08301 30.368 6.44578 30.8671 5.94539C31.3662 5.445 32.0026 5.10395 32.6956 4.96541C33.3887 4.82687 34.1073 4.89707 34.7604 5.16712C35.4135 5.43717 35.9719 5.89493 36.3647 6.48246C36.7575 7.06998 36.9672 7.76085 36.9672 8.46762C36.9672 9.41328 36.5922 10.3203 35.9244 10.9899C35.2565 11.6594 34.3504 12.0367 33.4048 12.0391V12.0391ZM33.4048 5.50643C32.8187 5.50464 32.2453 5.67679 31.7572 6.00108C31.269 6.32537 30.8881 6.78721 30.6626 7.32814C30.437 7.86907 30.3771 8.46474 30.4903 9.03975C30.6036 9.61476 30.8849 10.1432 31.2987 10.5583C31.7124 10.9733 32.24 11.2562 32.8147 11.3712C33.3894 11.4862 33.9852 11.4281 34.5268 11.2043C35.0684 10.9804 35.5315 10.6009 35.8572 10.1137C36.183 9.62654 36.3569 9.05367 36.3569 8.46762C36.3569 7.68383 36.0462 6.932 35.4928 6.37693C34.9394 5.82186 34.1886 5.50882 33.4048 5.50643V5.50643Z" fill="black"/>
<path d="M29.6119 154.854C24.1869 154.854 19.8106 149.429 19.8106 142.743C19.804 140.789 20.1931 138.855 20.9544 137.056C20.9674 137.014 20.9888 136.977 21.0174 136.944C21.046 136.912 21.081 136.886 21.1202 136.868C21.1594 136.85 21.202 136.841 21.2451 136.841C21.2881 136.84 21.3308 136.849 21.3703 136.866C21.4099 136.883 21.4453 136.909 21.4744 136.94C21.5035 136.972 21.5256 137.01 21.5392 137.051C21.5529 137.092 21.5578 137.135 21.5536 137.178C21.5494 137.221 21.5363 137.262 21.515 137.3C20.7899 139.016 20.4179 140.861 20.421 142.725C20.421 149.054 24.544 154.226 29.6119 154.226C32.4646 154.226 35.1093 152.607 36.8454 149.782C36.8652 149.745 36.8925 149.712 36.9256 149.686C36.9586 149.66 36.9967 149.641 37.0374 149.63C37.0781 149.619 37.1206 149.616 37.1623 149.623C37.204 149.629 37.2439 149.644 37.2797 149.666C37.3154 149.689 37.3461 149.718 37.37 149.753C37.3938 149.788 37.4103 149.827 37.4183 149.868C37.4263 149.91 37.4258 149.952 37.4167 149.993C37.4075 150.034 37.39 150.073 37.3653 150.107C35.5162 153.132 32.6816 154.854 29.6119 154.854Z" fill="black"/>
<path d="M38.9748 145.044H38.9341C38.854 145.033 38.7815 144.99 38.7325 144.926C38.6834 144.862 38.6616 144.781 38.6719 144.7C38.7588 144.053 38.8026 143.401 38.803 142.747C38.803 136.418 34.68 131.246 29.612 131.246C28.3713 131.252 27.151 131.562 26.0586 132.15C25.9866 132.187 25.903 132.194 25.826 132.169C25.749 132.145 25.6848 132.091 25.6472 132.019C25.6283 131.984 25.6166 131.945 25.6127 131.905C25.6089 131.866 25.613 131.825 25.6247 131.787C25.6365 131.749 25.6557 131.713 25.6813 131.683C25.7069 131.652 25.7383 131.626 25.7738 131.608C26.9553 130.979 28.2737 130.651 29.612 130.654C35.0371 130.654 39.4134 136.079 39.4134 142.765C39.4138 143.446 39.3685 144.126 39.2777 144.8C39.2624 144.869 39.224 144.931 39.169 144.975C39.114 145.019 39.0455 145.044 38.9748 145.044V145.044Z" fill="black"/>
<path d="M29.6117 152.919C25.0908 152.919 21.3701 148.353 21.3701 142.743C21.3701 139.248 22.7942 136.038 25.1858 134.153C25.217 134.124 25.254 134.102 25.2943 134.087C25.3347 134.073 25.3776 134.068 25.4202 134.071C25.4628 134.075 25.5043 134.087 25.5419 134.107C25.5795 134.127 25.6125 134.155 25.6387 134.189C25.6649 134.223 25.6838 134.262 25.6941 134.303C25.7045 134.345 25.706 134.388 25.6987 134.43C25.6914 134.472 25.6754 134.512 25.6517 134.548C25.6279 134.584 25.5971 134.614 25.561 134.637C23.3005 136.4 21.9804 139.429 21.9804 142.738C21.9804 148.01 25.4028 152.3 29.6117 152.3C33.8207 152.3 37.243 148.01 37.243 142.738C37.2377 142.695 37.2417 142.651 37.2546 142.61C37.2675 142.568 37.2891 142.53 37.318 142.497C37.3468 142.465 37.3823 142.439 37.4219 142.421C37.4616 142.403 37.5046 142.394 37.5481 142.394C37.5917 142.394 37.6347 142.403 37.6744 142.421C37.714 142.439 37.7495 142.465 37.7783 142.497C37.8072 142.53 37.8288 142.568 37.8417 142.61C37.8546 142.651 37.8586 142.695 37.8533 142.738C37.8533 148.353 34.1552 152.919 29.6117 152.919Z" fill="black"/>
<path d="M23.8929 146.558C23.8313 146.559 23.771 146.54 23.7201 146.506C23.6692 146.471 23.6301 146.422 23.6081 146.364C23.1536 145.213 22.9234 143.985 22.9299 142.747C22.8945 140.578 23.628 138.465 25.0005 136.784C25.057 136.742 25.1265 136.72 25.1972 136.723C25.2679 136.725 25.3356 136.752 25.3887 136.799C25.4418 136.846 25.4772 136.909 25.4888 136.979C25.5005 137.049 25.4877 137.121 25.4526 137.182C24.1718 138.751 23.4893 140.723 23.5267 142.747C23.5204 143.909 23.7351 145.061 24.1596 146.143C24.1896 146.218 24.1888 146.301 24.1575 146.376C24.1262 146.45 24.0669 146.509 23.9923 146.54C23.9602 146.551 23.9267 146.557 23.8929 146.558V146.558Z" fill="black"/>
<path d="M29.6117 150.998C28.7113 150.98 27.8262 150.762 27.0207 150.359C26.2153 149.956 25.5097 149.379 24.9551 148.67C24.9293 148.639 24.9099 148.603 24.898 148.565C24.886 148.527 24.8818 148.486 24.8856 148.446C24.8894 148.406 24.9011 148.368 24.92 148.332C24.9389 148.297 24.9647 148.266 24.9958 148.24C25.027 148.211 25.064 148.189 25.1043 148.175C25.1445 148.161 25.1873 148.155 25.2298 148.159C25.2723 148.162 25.3137 148.174 25.3512 148.195C25.3888 148.215 25.4217 148.243 25.4479 148.276C25.9454 148.916 26.5792 149.438 27.3034 149.802C28.0275 150.166 28.8238 150.365 29.6343 150.383C32.9842 150.383 35.7058 146.965 35.7058 142.761C35.7058 138.556 32.9933 135.139 29.6343 135.139C29.1181 135.138 28.6053 135.221 28.1152 135.383C27.8344 135.48 27.5275 135.472 27.2526 135.358C26.9777 135.245 26.7539 135.035 26.6233 134.768L26.5827 134.678C26.5094 134.527 26.4688 134.362 26.4633 134.195C26.4579 134.027 26.4878 133.861 26.551 133.706C26.6168 133.546 26.7151 133.401 26.8396 133.281C26.9641 133.162 27.1121 133.069 27.2744 133.009C28.0298 132.73 28.8289 132.588 29.6343 132.589C32.5096 132.589 35.1317 134.397 36.6462 137.404C36.6824 137.476 36.6885 137.56 36.6631 137.637C36.6377 137.714 36.5829 137.778 36.5105 137.815C36.4747 137.834 36.4355 137.845 36.3953 137.848C36.3551 137.851 36.3146 137.846 36.2763 137.834C36.238 137.821 36.2026 137.801 36.1721 137.774C36.1417 137.748 36.1169 137.716 36.0991 137.679C34.6886 134.876 32.2745 133.199 29.6343 133.199C28.9 133.2 28.1716 133.331 27.4823 133.583C27.4003 133.614 27.3255 133.661 27.2625 133.722C27.1995 133.782 27.1497 133.855 27.1161 133.936C27.0568 134.081 27.0568 134.243 27.1161 134.388L27.1613 134.479C27.2278 134.612 27.3411 134.716 27.4796 134.771C27.618 134.826 27.7719 134.828 27.9118 134.777C28.4636 134.597 29.0403 134.506 29.6207 134.506C33.3052 134.506 36.3026 138.199 36.3026 142.738C36.3026 147.277 33.2962 150.998 29.6117 150.998Z" fill="black"/>
<path d="M29.612 149.04C29.1122 149.039 28.6165 148.95 28.1472 148.778C28.0713 148.75 28.0097 148.692 27.9759 148.619C27.942 148.545 27.9386 148.461 27.9664 148.385C27.98 148.348 28.0009 148.313 28.0278 148.284C28.0547 148.254 28.0872 148.231 28.1233 148.214C28.1594 148.197 28.1985 148.188 28.2383 148.186C28.2781 148.184 28.3178 148.19 28.3552 148.204C29.2369 148.524 30.208 148.494 31.0677 148.118C31.1045 148.103 31.144 148.094 31.184 148.094C31.224 148.094 31.2636 148.102 31.3005 148.117C31.3375 148.132 31.3711 148.154 31.3995 148.182C31.4278 148.211 31.4503 148.244 31.4656 148.281C31.4975 148.355 31.4988 148.439 31.4692 148.515C31.4395 148.59 31.3814 148.651 31.3074 148.683C30.7723 148.916 30.1955 149.038 29.612 149.04Z" fill="black"/>
<path d="M28.2511 148.796C28.2167 148.802 28.1815 148.802 28.1472 148.796C25.9952 148.01 24.4897 145.528 24.4897 142.761C24.4897 139.289 26.7864 136.468 29.6119 136.468C30.2798 136.48 30.9371 136.637 31.5387 136.927C32.1403 137.218 32.6721 137.635 33.0975 138.15C33.1261 138.179 33.1483 138.214 33.163 138.252C33.1777 138.29 33.1846 138.331 33.1831 138.372C33.1816 138.413 33.1719 138.453 33.1545 138.49C33.137 138.527 33.1123 138.56 33.0818 138.587C33.0512 138.614 33.0155 138.635 32.9767 138.648C32.9379 138.661 32.8969 138.666 32.8561 138.663C32.8153 138.659 32.7757 138.648 32.7394 138.629C32.7032 138.61 32.6713 138.584 32.6454 138.552C32.2765 138.103 31.8148 137.738 31.292 137.484C30.7692 137.23 30.1977 137.091 29.6164 137.078C27.13 137.078 25.0955 139.628 25.0955 142.761C25.0955 145.274 26.4518 147.521 28.3506 148.222C28.389 148.235 28.4243 148.256 28.4545 148.283C28.4847 148.31 28.5092 148.343 28.5265 148.38C28.5438 148.416 28.5535 148.456 28.5551 148.497C28.5568 148.537 28.5502 148.577 28.5359 148.615C28.5113 148.67 28.4712 148.716 28.4206 148.748C28.37 148.781 28.3111 148.797 28.2511 148.796V148.796Z" fill="black"/>
<path d="M31.1941 148.706C31.1245 148.704 31.0576 148.678 31.0044 148.634C30.9512 148.589 30.9147 148.527 30.9011 148.459C30.8874 148.391 30.8973 148.32 30.9292 148.258C30.9611 148.196 31.013 148.147 31.0765 148.118C31.7085 147.813 32.2712 147.382 32.73 146.851C33.1888 146.319 33.5338 145.7 33.7439 145.03C33.7746 144.939 33.7786 144.841 33.7555 144.747C33.7323 144.654 33.6829 144.569 33.6132 144.502C33.5434 144.436 33.4561 144.391 33.3615 144.372C33.2669 144.354 33.169 144.362 33.0793 144.397C33.0182 144.42 32.9628 144.456 32.9168 144.502C32.8707 144.548 32.8352 144.603 32.8126 144.664C32.2068 146.165 31.0042 147.101 29.6118 147.101C29.1977 147.1 28.7883 147.014 28.4092 146.848C28.3352 146.815 28.277 146.754 28.2474 146.679C28.2178 146.604 28.2191 146.52 28.251 146.445C28.2662 146.408 28.2889 146.374 28.3176 146.346C28.3464 146.317 28.3806 146.295 28.4182 146.28C28.4558 146.265 28.4961 146.258 28.5365 146.259C28.5769 146.261 28.6167 146.27 28.6533 146.287C28.956 146.418 29.2821 146.486 29.6118 146.486C30.7284 146.486 31.7366 145.7 32.2429 144.434C32.298 144.298 32.3801 144.174 32.4842 144.071C32.5883 143.968 32.7123 143.886 32.8487 143.832C33.047 143.752 33.2643 143.73 33.4746 143.77C33.6849 143.809 33.8793 143.909 34.0345 144.056C34.1896 144.204 34.2989 144.393 34.3492 144.601C34.3994 144.809 34.3886 145.027 34.318 145.229C34.0822 145.981 33.6938 146.675 33.1773 147.269C32.6608 147.864 32.0272 148.345 31.3161 148.683C31.2775 148.699 31.2359 148.707 31.1941 148.706V148.706Z" fill="black"/>
<path d="M26.5874 144.556C26.5226 144.556 26.4594 144.536 26.4072 144.498C26.355 144.459 26.3167 144.405 26.298 144.343C26.1309 143.826 26.047 143.286 26.0494 142.743C26.0494 140.342 27.6452 138.389 29.6118 138.389C31.4202 138.389 32.9437 140.044 33.1517 142.241C33.1581 142.322 33.1329 142.402 33.0814 142.464C33.03 142.526 32.9563 142.566 32.8759 142.576C32.7955 142.581 32.7162 142.555 32.654 142.504C32.5918 142.453 32.5516 142.38 32.5414 142.3C32.3651 140.419 31.1037 138.999 29.6118 138.999C27.9843 138.999 26.6597 140.681 26.6597 142.743C26.6579 143.221 26.7311 143.697 26.8767 144.153C26.8894 144.191 26.8944 144.231 26.8915 144.271C26.8886 144.311 26.8778 144.35 26.8597 144.386C26.8416 144.422 26.8166 144.454 26.7862 144.48C26.7557 144.506 26.7204 144.525 26.6823 144.538C26.6522 144.55 26.6199 144.556 26.5874 144.556V144.556Z" fill="black"/>
<path d="M29.6116 145.161C28.5085 145.161 27.6089 144.076 27.6089 142.743C27.6089 141.409 28.5131 140.324 29.6116 140.324C30.7102 140.324 31.6144 141.409 31.6144 142.743C31.6197 142.786 31.6157 142.83 31.6028 142.871C31.5898 142.913 31.5682 142.951 31.5394 142.984C31.5106 143.016 31.4751 143.042 31.4354 143.06C31.3958 143.078 31.3528 143.087 31.3092 143.087C31.2657 143.087 31.2227 143.078 31.183 143.06C31.1434 143.042 31.1079 143.016 31.0791 142.984C31.0502 142.951 31.0286 142.913 31.0157 142.871C31.0028 142.83 30.9988 142.786 31.0041 142.743C31.0041 141.748 30.3802 140.934 29.6116 140.934C28.8431 140.934 28.2192 141.744 28.2192 142.743C28.2192 143.742 28.8431 144.551 29.6116 144.551C29.8212 144.55 30.0263 144.491 30.2039 144.379C30.2379 144.358 30.2759 144.343 30.3156 144.337C30.3552 144.33 30.3958 144.332 30.435 144.341C30.4741 144.35 30.511 144.367 30.5435 144.391C30.576 144.414 30.6035 144.444 30.6243 144.479C30.6668 144.547 30.6806 144.63 30.6629 144.708C30.6451 144.787 30.5972 144.856 30.5294 144.899C30.2532 145.069 29.9358 145.16 29.6116 145.161V145.161Z" fill="black"/>
</g>
<defs>
<clipPath id="clip0_77_1825">
<rect width="200" height="198.033" fill="white"/>
</clipPath>
</defs>
</svg>
