<svg width="70" height="70" viewBox="0 0 70 70" fill="none" xmlns="http://www.w3.org/2000/svg">
<g clip-path="url(#clip0_78_1184)">
<path fill-rule="evenodd" clip-rule="evenodd" d="M17.1482 43.0769C17.1482 36.0187 20.0071 29.6327 24.6334 25.0063C29.2558 20.3798 35.6458 17.5211 42.7001 17.5211C45.9346 17.5211 49.0267 18.1221 51.8738 19.2175C44.5151 1.94154 29.509 8.35912 18.6469 0C18.4966 4.57502 19.4021 5.85621 21.2329 8.52127C23.4235 11.7083 21.4544 15.097 13.2731 10.8977C8.57151 8.48176 3.83052 5.20762 1.59639 0C-1.62237 13.8634 15.1869 22.6298 13.2811 28.4148C11.3752 34.1998 4.07182 30.6765 0.611883 24.6899C-0.720715 39.8858 3.20981 51.519 22.6169 58.8778C19.1885 54.5282 17.1482 49.0437 17.1482 43.0769Z" fill="#E95440"/>
<path d="M42.6998 24.5327C32.4768 24.5327 24.1597 32.8516 24.1597 43.0768C24.1597 53.3022 32.4768 61.6211 42.6998 61.6211C52.925 61.6211 61.2439 53.3022 61.2439 43.0768C61.2439 32.8516 52.925 24.5327 42.6998 24.5327V24.5327ZM56.0058 34.5472C53.3484 34.6444 51.4545 34.1598 49.886 33.019C48.3527 31.9036 47.2952 30.2391 46.5661 27.7462C50.5067 28.7404 53.8639 31.2174 56.0058 34.5472ZM43.6191 27.2946C44.2517 30.0254 45.4213 33.1527 48.2777 35.2304C50.5059 36.8509 53.0371 37.2968 55.382 37.2968C56.0668 37.2968 56.7355 37.2584 57.3763 37.2004C57.5964 37.7484 57.7865 38.3114 57.9451 38.8874C55.4911 40.35 52.8237 42.4513 51.7237 45.838C50.6087 49.274 51.5748 52.6045 52.7407 55.2798C52.3046 55.6394 51.8482 55.9753 51.3748 56.2872C49.1827 54.3453 46.3074 52.3938 42.6997 52.3938C39.0947 52.3938 36.2198 54.3456 34.0278 56.2877C33.5544 55.9758 33.0983 55.6401 32.6622 55.2805C33.8284 52.605 34.7947 49.274 33.6794 45.8376C32.5809 42.4548 29.9128 40.3522 27.458 38.8876C27.6165 38.3115 27.8065 37.7484 28.0266 37.2004C28.6667 37.2582 29.3345 37.2964 30.0185 37.2964C32.3647 37.2964 34.8977 36.8504 37.1257 35.23C39.9819 33.1523 41.1516 30.025 41.7841 27.294C42.087 27.2767 42.3921 27.2668 42.6994 27.2668C43.0084 27.2671 43.3148 27.2771 43.6191 27.2946V27.2946ZM38.8377 27.7453C38.1085 30.2388 37.0509 31.9035 35.5176 33.019C33.9496 34.1594 32.0556 34.6442 29.3971 34.5472C31.5391 31.2165 34.8966 28.739 38.8377 27.7453ZM26.8939 43.077C26.8939 42.6463 26.912 42.2197 26.9459 41.7976C29.204 43.3004 30.4739 44.8196 31.0787 46.6821C31.6934 48.5762 31.5447 50.5905 30.5604 53.1902C28.2727 50.4471 26.8939 46.9203 26.8939 43.077V43.077ZM36.6265 57.6724C38.8187 55.9041 40.7006 55.1283 42.6998 55.1283C44.7011 55.1283 46.584 55.9039 48.7761 57.6717C46.9045 58.4539 44.8519 58.8867 42.6998 58.8867C40.549 58.8867 38.4974 58.4541 36.6265 57.6724V57.6724ZM54.8425 53.1895C53.8585 50.5902 53.7099 48.5761 54.3243 46.6824C54.9301 44.8171 56.2001 43.2976 58.4575 41.7966C58.4915 42.2191 58.5096 42.6459 58.5096 43.077C58.5096 46.9199 57.1308 50.4465 54.8425 53.1895V53.1895Z" fill="black"/>
<path d="M37.4341 43.0768C37.4341 45.9805 39.7964 48.3428 42.7002 48.3428C45.606 48.3428 47.9702 45.9805 47.9702 43.0768C47.9702 40.171 45.606 37.8069 42.7002 37.8069C39.7966 37.8069 37.4341 40.1709 37.4341 43.0768V43.0768ZM45.2358 43.0768C45.2358 44.4727 44.0984 45.6085 42.7002 45.6085C41.3042 45.6085 40.1685 44.4727 40.1685 43.0768C40.1685 41.6788 41.3042 40.5413 42.7002 40.5413C44.0983 40.5413 45.2358 41.6788 45.2358 43.0768V43.0768Z" fill="black"/>
<path d="M42.7 16.1538C27.8567 16.1538 15.7808 28.2314 15.7808 43.0769C15.7808 57.9223 27.8566 69.9999 42.7 69.9999C57.5455 69.9999 69.6231 57.9223 69.6231 43.0769C69.6231 28.2314 57.5455 16.1538 42.7 16.1538ZM65.7252 44.4441H66.8492C66.5332 50.0849 64.2757 55.215 60.7355 59.1767L59.951 58.3906C59.4174 57.856 58.552 57.8552 58.0174 58.3886C57.4828 58.9219 57.482 59.7875 58.0152 60.322L58.8019 61.1105C54.8399 64.6519 49.7089 66.9104 44.0669 67.2263V66.1022C44.0669 65.3471 43.4547 64.735 42.6997 64.735C41.9448 64.735 41.3325 65.3471 41.3325 66.1022V67.2263C35.6915 66.9104 30.5613 64.6518 26.6 61.1104L27.3871 60.3233C27.921 59.7894 27.921 58.9237 27.3871 58.3897C26.8531 57.8558 25.9876 57.8558 25.4535 58.3897L24.6667 59.1765C21.1273 55.2149 18.8702 50.0849 18.5542 44.4442H19.6744C20.4293 44.4442 21.0416 43.8321 21.0416 43.077C21.0416 42.3219 20.4293 41.7098 19.6744 41.7098H18.5542C18.8701 36.0685 21.1276 30.9382 24.6676 26.9763L25.4544 27.7615C25.7213 28.0278 26.0708 28.1609 26.4201 28.1609C26.7703 28.1609 27.1209 28.027 27.3879 27.7593C27.9211 27.2247 27.9203 26.3592 27.3857 25.8258L26.6008 25.0426C30.562 21.5017 35.6917 19.2437 41.3323 18.9277V20.0517C41.3323 20.8068 41.9445 21.4188 42.6994 21.4188C43.4544 21.4188 44.0666 20.8068 44.0666 20.0517V18.9277C49.7081 19.2437 54.8386 21.5016 58.8004 25.0424L58.0159 25.8269C57.482 26.3608 57.482 27.2265 58.0159 27.7605C58.2829 28.0274 58.6328 28.161 58.9827 28.161C59.3325 28.161 59.6824 28.0274 59.9494 27.7605L60.7339 26.9761C64.2746 30.9379 66.5327 36.0684 66.8486 41.7098H65.7247C64.9697 41.7098 64.3575 42.3219 64.3575 43.077C64.3575 43.8321 64.9701 44.4441 65.7252 44.4441V44.4441Z" fill="black"/>
</g>
<defs>
<clipPath id="clip0_78_1184">
<rect width="70" height="70" fill="white"/>
</clipPath>
</defs>
</svg>
