<svg width="56" height="56" viewBox="0 0 56 56" fill="none" xmlns="http://www.w3.org/2000/svg">
<g clip-path="url(#clip0_128_5200)">
<path d="M28 47.6518C34.9909 47.6518 40.6582 41.9586 40.6582 34.9356C40.6582 27.9127 34.9909 22.2195 28 22.2195C21.0091 22.2195 15.3418 27.9127 15.3418 34.9356C15.3418 41.9586 21.0091 47.6518 28 47.6518Z" fill="#E95440"/>
<path d="M47.9408 7.94418H45.0532L43.2802 5.14626C42.1245 3.32221 40.1486 2.23328 37.9951 2.23328H18.0049C15.8514 2.23328 13.8755 3.32221 12.7197 5.14626L10.9468 7.94418H8.05919C3.61539 7.94418 0 11.5596 0 16.0033V45.7074C0 50.1512 3.61539 53.7666 8.05919 53.7666H47.9409C52.3847 53.7666 56.0001 50.1512 56.0001 45.7074V16.0033C56 11.5596 52.3846 7.94418 47.9408 7.94418ZM14.5674 6.31712C15.32 5.12974 16.605 4.42078 18.005 4.42078H37.9952C39.3952 4.42078 40.6802 5.12964 41.4327 6.31712L42.4637 7.94418H13.5365L14.5674 6.31712ZM8.05919 10.1317H47.9409C51.1219 10.1317 53.7201 12.6742 53.8101 15.8337H2.18991C2.28003 12.6741 4.87823 10.1317 8.05919 10.1317ZM47.9408 51.5791H8.05919C4.82147 51.5791 2.1875 48.9451 2.1875 45.7074V18.0212H53.8125V45.7075C53.8125 48.9451 51.1785 51.5791 47.9408 51.5791Z" fill="black"/>
<path d="M36.8774 14.0815H38.7254C39.3294 14.0815 39.8192 13.5919 39.8192 12.9878C39.8192 12.3837 39.3294 11.894 38.7254 11.894H36.8774C36.2735 11.894 35.7837 12.3838 35.7837 12.9878C35.7837 13.5918 36.2735 14.0815 36.8774 14.0815Z" fill="black"/>
<path d="M43.8994 14.0815H45.7474C46.3514 14.0815 46.8412 13.5919 46.8412 12.9878C46.8412 12.3837 46.3514 11.894 45.7474 11.894H43.8994C43.2954 11.894 42.8057 12.3838 42.8057 12.9878C42.8057 13.5918 43.2954 14.0815 43.8994 14.0815Z" fill="black"/>
<path d="M21.2361 32.1975C20.8089 32.6245 20.8086 33.317 21.2356 33.7443C21.6626 34.1715 22.3552 34.1716 22.7825 33.7447C25.6594 30.8693 30.3403 30.8693 33.2171 33.7447C33.4307 33.9581 33.7105 34.0648 33.9903 34.0648C34.2703 34.0648 34.5503 33.9579 34.7639 33.7443C35.1909 33.317 35.1907 32.6245 34.7635 32.1975C31.0339 28.47 24.9658 28.47 21.2361 32.1975Z" fill="black"/>
<path d="M24.3308 35.2906C23.9036 35.7176 23.9034 36.4102 24.3304 36.8375C24.7574 37.2646 25.4499 37.2648 25.8773 36.8379C27.0477 35.6682 28.9519 35.6682 30.1224 36.8379C30.336 37.0513 30.6158 37.1581 30.8956 37.1581C31.1756 37.1581 31.4556 37.0511 31.6692 36.8375C32.0962 36.4103 32.096 35.7177 31.6688 35.2906C29.6458 33.2687 26.3538 33.2687 24.3308 35.2906Z" fill="black"/>
<path d="M29.0095 38.9582C28.8416 38.549 28.4291 38.2793 27.9876 38.2831C27.5282 38.2872 27.1125 38.5914 26.9642 39.0248C26.8142 39.4627 26.9682 39.9619 27.3343 40.2438C27.6946 40.5213 28.2017 40.5414 28.5854 40.2992C29.0287 40.0192 29.2108 39.4418 29.0095 38.9582Z" fill="black"/>
</g>
<defs>
<clipPath id="clip0_128_5200">
<rect width="56" height="56" fill="white"/>
</clipPath>
</defs>
</svg>
