<svg width="64" height="64" viewBox="0 0 64 64" fill="none" xmlns="http://www.w3.org/2000/svg">
<path fill-rule="evenodd" clip-rule="evenodd" d="M51.6956 40.2267C51.1771 42.0262 50.4429 43.7368 49.5234 45.3283H53.5089C59.2787 45.3283 63.9993 40.6077 63.9993 34.8379C63.9993 29.0683 59.2786 24.3475 53.5089 24.3475H52.5842V29.4492H53.5089C56.4626 29.4492 58.8977 31.8842 58.8977 34.8379C58.8977 37.7917 56.4628 40.2265 53.5089 40.2265H51.6956V40.2267Z" fill="#E95440"/>
<path fill-rule="evenodd" clip-rule="evenodd" d="M33.6855 41.7658C36.674 38.7773 38.1815 35.4397 35.0382 32.2964C31.8951 29.1533 28.5573 30.6607 25.5688 33.6492C22.5803 36.6377 21.073 39.9753 24.2161 43.1185C27.3593 46.2618 30.6971 44.7543 33.6855 41.7658Z" fill="#E95440"/>
<path d="M57.3676 52.432H45.1715C47.32 50.624 49.1538 48.4508 50.5701 46.0161C52.706 42.3448 53.8349 38.1595 53.8349 33.913V21.7968C53.8349 21.1064 53.2751 20.5468 52.5849 20.5468H6.67037C5.98 20.5468 5.42037 21.1064 5.42037 21.7968V33.913C5.42037 38.1596 6.54925 42.3448 8.68513 46.0161C10.1014 48.4506 11.9351 50.6239 14.0836 52.4319H1.25C0.559625 52.4319 0 52.9915 0 53.6819C0 57.8875 3.4215 61.3089 7.627 61.3089H50.9906C55.1962 61.3089 58.6177 57.8874 58.6177 53.6819C58.6176 52.9916 58.058 52.432 57.3676 52.432ZM7.92037 33.9131V23.0469H51.335V33.9131C51.335 41.4095 47.3464 48.4846 40.9108 52.432H18.3445C11.909 48.4848 7.92037 41.4096 7.92037 33.9131ZM50.9906 58.809H7.627C5.231 58.809 3.21362 57.1569 2.65412 54.932H55.9636C55.404 57.1569 53.3866 58.809 50.9906 58.809Z" fill="black"/>
<path d="M20.7917 15.8496C20.9772 16.356 21.4558 16.67 21.9656 16.67C22.1083 16.67 22.2536 16.6454 22.3953 16.5934C23.0436 16.356 23.3766 15.6379 23.1392 14.9897C22.2612 12.593 22.6521 11.5237 23.1468 10.17C23.7161 8.6126 24.3612 6.84748 23.1391 3.51135C22.9016 2.8631 22.1834 2.52998 21.5353 2.7676C20.8871 3.00498 20.5541 3.7231 20.7916 4.37135C21.6989 6.84848 21.3017 7.9356 20.7986 9.31173C20.2364 10.8502 19.5991 12.594 20.7917 15.8496Z" fill="#E95440"/>
<path d="M28.444 15.8496C28.6295 16.356 29.1082 16.67 29.6179 16.67C29.7607 16.67 29.9059 16.6454 30.0477 16.5934C30.6959 16.356 31.0289 15.6379 30.7914 14.9897C29.9135 12.593 30.3043 11.5236 30.7992 10.17C31.3684 8.6126 32.0135 6.84748 30.7914 3.51135C30.554 2.8631 29.836 2.52998 29.1878 2.7676C28.5395 3.00498 28.2065 3.7231 28.444 4.37123C29.3514 6.84835 28.9542 7.93548 28.451 9.31173C27.8888 10.8502 27.2514 12.594 28.444 15.8496Z" fill="#E95440"/>
<path d="M36.0964 15.8496C36.2817 16.356 36.7605 16.67 37.2702 16.67C37.413 16.67 37.5582 16.6454 37.7 16.5934C38.3484 16.356 38.6814 15.6379 38.4437 14.9897C37.5659 12.593 37.9567 11.5237 38.4515 10.17C39.0207 8.6126 39.666 6.84748 38.4437 3.51135C38.2065 2.8631 37.4884 2.52998 36.8401 2.7676C36.1917 3.00498 35.8587 3.7231 36.0964 4.37135C37.0039 6.84848 36.6065 7.9356 36.1035 9.31173C35.5411 10.8502 34.9037 12.594 36.0964 15.8496Z" fill="#E95440"/>
<path d="M31.8875 34.7376C31.2454 34.4839 30.5193 34.7986 30.2655 35.4407C29.947 36.2469 29.6965 36.346 29.1478 36.5634C28.436 36.8454 27.3604 37.2715 26.6582 39.048C26.4044 39.69 26.7192 40.4162 27.3612 40.67C27.512 40.7296 27.6674 40.7579 27.8203 40.7579C28.3183 40.7579 28.789 40.4582 28.9832 39.967C29.2875 39.1971 29.5162 39.1065 30.0685 38.8877C30.7875 38.6029 31.8741 38.1725 32.5906 36.3596C32.8443 35.7176 32.5295 34.9915 31.8875 34.7376Z" fill="white"/>
</svg>
