<svg width="56" height="56" viewBox="0 0 56 56" fill="none" xmlns="http://www.w3.org/2000/svg">
<g clip-path="url(#clip0_128_5259)">
<path fill-rule="evenodd" clip-rule="evenodd" d="M19.9502 8.83985C19.9502 13.2857 23.5528 16.8914 27.9987 16.8914C32.4445 16.8914 36.0502 13.2857 36.0502 8.83985C36.0502 4.39704 32.4445 0.791382 27.9987 0.791382C23.5528 0.791382 19.9502 4.39704 19.9502 8.83985Z" fill="#E95440"/>
<path d="M55.8584 33.0208L46.1141 15.7736C45.8178 15.2492 45.1537 15.0631 44.6281 15.3569L39.1375 18.4262C38.8835 18.5682 38.6966 18.8054 38.618 19.0855C38.5394 19.3657 38.5757 19.6656 38.7189 19.9189L39.3921 21.1104L37.7906 21.5736C37.106 21.7728 36.6909 21.8809 36.4617 21.8809C36.461 21.8809 36.4603 21.8809 36.4596 21.8809C36.3026 21.8805 36.1302 21.82 35.6379 21.6332C35.4133 21.548 35.1338 21.4419 34.7904 21.3219L32.5784 20.5462C30.298 19.7505 26.7632 21.3808 26.7259 21.3986L23.4166 22.9836L16.6538 21.0228L17.281 19.9126C17.424 19.6594 17.4604 19.3595 17.3819 19.0795C17.3034 18.7994 17.1166 18.5623 16.8628 18.4202L11.3721 15.3477C10.8464 15.0537 10.182 15.24 9.8857 15.7642L0.141479 33.0116C-0.00158336 33.2648 -0.0378959 33.5647 0.040526 33.8447C0.119057 34.1248 0.30587 34.3619 0.55962 34.504L6.05035 37.5765C6.21934 37.671 6.40265 37.7159 6.58345 37.7159C6.96517 37.7159 7.33573 37.5158 7.53676 37.16L8.25831 35.8829L10.2147 37.4238C9.88176 37.9119 9.67078 38.4779 9.60329 39.0837C9.49446 40.0594 9.77075 41.0166 10.3803 41.7779C10.9847 42.5351 11.8484 43.0133 12.8142 43.1271C12.7126 44.0943 12.9884 45.0416 13.5923 45.7959C14.218 46.5798 15.1023 47.0375 16.028 47.1462C15.9271 48.1128 16.2034 49.0595 16.8073 49.8139C17.4117 50.5711 18.2754 51.0493 19.2412 51.1631C19.1396 52.1303 19.4154 53.0775 20.0193 53.8319C20.7417 54.737 21.8092 55.2083 22.887 55.2083C23.6905 55.2083 24.4997 54.9462 25.1758 54.4067L26.8996 53.0269C27.2653 52.7342 27.565 52.3805 27.7908 51.9845L29.2417 53.1456C29.9162 53.6841 30.7244 53.9456 31.5274 53.9456C32.6046 53.9455 33.6725 53.475 34.396 52.5714C34.7771 52.0953 35.0188 51.5522 35.1284 50.9912C35.5155 51.1243 35.9188 51.1898 36.3207 51.1898C37.3974 51.1897 38.4645 50.719 39.1859 49.8152C39.7908 49.0595 40.0672 48.1122 39.9666 47.1454C40.9329 47.0318 41.7973 46.5535 42.401 45.7971C43.0271 45.0151 43.279 44.0527 43.1819 43.1268C44.1469 43.0125 45.0099 42.5345 45.6129 41.779C46.2234 41.0165 46.4996 40.0592 46.3909 39.0835C46.3234 38.4781 46.1127 37.9125 45.7803 37.4248L47.738 35.8816L48.4636 37.1659C48.6646 37.5218 49.0352 37.7218 49.4168 37.7218C49.5974 37.7218 49.7807 37.677 49.9495 37.5826L55.4402 34.5133C55.694 34.3713 55.8809 34.134 55.9596 33.854C56.0379 33.574 56.0016 33.2741 55.8584 33.0208ZM6.16793 35.1355L2.58623 33.1314L11.2545 17.7888L14.8362 19.793L6.16793 35.1355ZM12.0887 40.4121C11.8438 40.1062 11.7332 39.7205 11.7771 39.3261C11.821 38.9319 12.0139 38.5801 12.3212 38.3349L15.8403 35.5196C16.476 35.011 17.408 35.1152 17.9179 35.7522C18.1628 36.0582 18.2734 36.444 18.2295 36.8385C18.1855 37.2327 17.9926 37.5844 17.6863 37.829C17.6847 37.8303 17.6834 37.8317 17.6818 37.8331L14.1666 40.6449C14.1665 40.645 14.1664 40.6451 14.1663 40.6452C13.8603 40.8901 13.4743 41.0007 13.0802 40.9568C12.686 40.9126 12.3343 40.7197 12.0887 40.4121ZM15.3007 44.4301C15.0564 44.125 14.946 43.7396 14.9901 43.3452C15.0342 42.9505 15.2271 42.598 15.5332 42.353L20.8463 38.1031C21.4832 37.5946 22.4157 37.6986 22.9241 38.3336C23.4332 38.9713 23.3305 39.9039 22.6957 40.4121L20.9103 41.8402C20.907 41.8429 20.9036 41.8451 20.9003 41.8478C20.8987 41.8491 20.8972 41.8506 20.8957 41.8519L17.3827 44.662C16.7437 45.1721 15.8101 45.0685 15.3007 44.4301ZM18.5157 48.4481C18.2708 48.1422 18.1601 47.7565 18.2041 47.3621C18.248 46.9679 18.4409 46.6162 18.7472 46.3716C18.7475 46.3714 18.7478 46.3712 18.7481 46.3709L22.2736 43.5509C22.909 43.0478 23.8366 43.1531 24.345 43.7881C24.5899 44.0941 24.7005 44.4798 24.6566 44.8743C24.6127 45.2685 24.4197 45.6202 24.1124 45.8656L22.3343 47.2881C22.329 47.2922 22.3235 47.2961 22.3182 47.3003C22.3154 47.3026 22.313 47.3052 22.3102 47.3076L20.5933 48.681C20.2874 48.9259 19.9018 49.0366 19.5072 48.9926C19.113 48.9486 18.7613 48.7558 18.5157 48.4481ZM26.0755 50.3267C26.0314 50.7217 25.8385 51.0742 25.5323 51.3192L23.8097 52.698C23.1709 53.2081 22.2374 53.1047 21.7277 52.4661C21.4834 52.161 21.3731 51.7756 21.4172 51.3812C21.4614 50.9863 21.6542 50.6338 21.9605 50.3887L23.6907 49.0044C24.3283 48.5017 25.2568 48.607 25.765 49.2417C26.0093 49.547 26.1196 49.9324 26.0755 50.3267ZM43.9039 40.4133C43.6595 40.7197 43.3076 40.9125 42.9134 40.9565C42.5185 41.0003 42.1332 40.8899 41.8274 40.6449C41.8271 40.6448 41.827 40.6446 41.8268 40.6444L38.9126 38.3131C38.441 37.9356 37.7526 38.0122 37.3752 38.4839C36.9979 38.9556 37.0744 39.6439 37.5461 40.0213L40.4602 42.3525C41.0973 42.8626 41.2016 43.7945 40.6919 44.4313C40.4475 44.7377 40.0957 44.9305 39.7014 44.9745C39.3081 45.0183 38.9213 44.9079 38.6148 44.6625L35.4556 42.1356C34.9838 41.7583 34.2956 41.8349 33.9182 42.3066C33.541 42.7782 33.6174 43.4665 34.0892 43.844L37.248 46.3705C37.5536 46.6152 37.746 46.9673 37.7897 47.3618C37.8332 47.7564 37.7225 48.1422 37.4767 48.4491C36.9687 49.0854 36.0367 49.189 35.3997 48.6804L32.2405 46.1535C31.7687 45.7762 31.0806 45.8528 30.7031 46.3245C30.3259 46.7961 30.4024 47.4844 30.8741 47.8619L32.454 49.1256L32.4548 49.1266C33.0919 49.6366 33.1962 50.5687 32.6875 51.2042C32.1775 51.8413 31.2436 51.9453 30.6068 51.4368L28.2179 49.5251C28.1139 48.9261 27.8615 48.3605 27.4723 47.8746C27.11 47.4219 26.6609 47.0785 26.1678 46.8479C26.5298 46.3437 26.7594 45.7521 26.8303 45.1163C26.939 44.1407 26.6627 43.1835 26.0523 42.4208C25.6899 41.9683 25.2414 41.625 24.7489 41.3943C25.6799 40.0938 25.6794 38.2792 24.6323 36.9674C23.5848 35.6589 21.8154 35.26 20.3412 35.8822C20.2225 35.3403 19.9811 34.8293 19.6253 34.3847C18.3614 32.806 16.0501 32.549 14.4732 33.8112L11.8388 35.9187L9.34648 33.9556L15.5477 22.9796L20.6451 24.4576C18.7235 25.8729 18.5178 27.6326 19.0204 28.8479C19.8341 30.8157 22.7539 32.1868 26.5616 30.8515C27.3721 30.5674 28.0543 30.2829 28.6561 30.0318C30.8356 29.1228 31.5697 28.8164 33.7156 30.3542C34.9341 31.2295 36.6585 32.6519 38.1799 33.9067C38.902 34.5023 39.5841 35.0649 40.1409 35.5099L43.6729 38.335C43.9794 38.5794 44.1722 38.9313 44.2162 39.3256C44.2605 39.7204 44.1498 40.1062 43.9039 40.4133ZM44.1556 35.9201L41.5073 33.8019C40.9634 33.3672 40.2877 32.8099 39.5724 32.2197C39.3819 32.0626 39.1885 31.9031 38.993 31.7422C39.8623 31.6349 40.7058 31.4087 41.4457 31.1039C42.0042 30.8737 42.2705 30.2346 42.0405 29.676C41.8105 29.1176 41.1715 28.851 40.6126 29.0812C39.0773 29.7137 36.8167 29.8917 35.5726 29.0063C35.3706 28.854 35.1756 28.7096 34.9913 28.5773C31.8536 26.3286 30.1591 27.0351 27.8144 28.0134C27.2402 28.2529 26.5892 28.5245 25.8385 28.7876C23.1718 29.7224 21.4002 28.8775 21.0424 28.0123C20.7353 27.2696 21.4571 26.3485 22.8811 25.6659L27.6688 23.3727C28.6355 22.9123 30.8621 22.2643 31.8562 22.6111L34.0679 23.3867C34.3849 23.4975 34.6384 23.5937 34.862 23.6785C36.2347 24.1995 36.5986 24.1991 38.4003 23.6746L40.4982 23.0679L46.6491 33.9547L44.1556 35.9201ZM49.8322 35.1422L41.1639 19.7996L44.7451 17.7976L53.4134 33.1402L49.8322 35.1422Z" fill="black"/>
<path d="M24.2553 10.2569L26.3605 12.0427C26.5589 12.2109 26.8098 12.3023 27.068 12.3023C27.0988 12.3023 27.1298 12.301 27.1607 12.2984C27.4509 12.2737 27.7192 12.1344 27.9062 11.9112L31.8747 7.177C32.2628 6.71413 32.2019 6.02419 31.7391 5.63613C31.2763 5.24828 30.5865 5.30866 30.1982 5.77175L26.9366 9.66277L25.6705 8.58871C25.2097 8.19791 24.5197 8.25457 24.1289 8.71525C23.7381 9.17583 23.7947 9.86599 24.2553 10.2569Z" fill="black"/>
</g>
<defs>
<clipPath id="clip0_128_5259">
<rect width="56" height="56" fill="white"/>
</clipPath>
</defs>
</svg>
