<svg width="56" height="56" viewBox="0 0 56 56" fill="none" xmlns="http://www.w3.org/2000/svg">
<g clip-path="url(#clip0_128_5253)">
<path d="M55.9172 41.1569L50.1983 11.8395C49.7387 9.47676 47.4409 7.8819 45.0224 8.35209L42.8517 8.77645C43.2193 10.6615 48.3201 36.8154 48.3625 37.033C48.7092 38.8125 47.5488 40.5351 45.7704 40.8819C45.2986 40.9739 13.8458 47.1087 12.0835 47.4524L12.5077 49.6237C12.9683 51.9913 15.2703 53.5807 17.6832 53.11L52.4306 46.3333C54.8241 45.8665 56.3844 43.5511 55.9172 41.1569Z" fill="#E95440"/>
<path d="M11.1246 13.8371L32.8913 9.59162C37.1768 8.75723 38.4532 15.2442 34.1572 16.0822L12.3904 20.3276C8.10878 21.1615 6.82541 14.6756 11.1246 13.8371Z" fill="#E95440"/>
<path d="M49.4361 36.8238C48.9585 34.3748 43.6518 7.16575 43.4918 6.34535C43.0291 3.97221 40.7334 2.42647 38.3601 2.88889L3.53851 9.68096C1.16602 10.1435 -0.382019 12.4394 0.0822626 14.8126L6.0266 45.291C6.48968 47.6663 8.7985 49.2076 11.1583 48.7473L45.9798 41.9555C48.347 41.4939 49.8975 39.192 49.4361 36.8238ZM45.5611 39.8084L10.7397 46.6004C9.55492 46.8312 8.40422 46.0559 8.17356 44.8724L2.22911 14.3932C1.99714 13.2075 2.77039 12.0592 3.95718 11.828C41.0746 4.60296 38.7996 4.99484 39.202 4.99484C40.2073 4.99484 41.1379 5.70214 41.3448 6.76403L41.9879 10.0594V10.0593L47.2891 37.2422C47.5198 38.4265 46.7447 39.5777 45.5611 39.8084Z" fill="black"/>
<path d="M39.1164 18.522L8.71213 24.4522C8.11933 24.5679 7.73238 25.1423 7.84809 25.735C7.9637 26.3281 8.53801 26.7148 9.13091 26.5992L39.5352 20.669C40.128 20.5533 40.5149 19.9789 40.3992 19.386C40.2836 18.7934 39.7094 18.406 39.1164 18.522Z" fill="black"/>
<path d="M26.478 28.8517C27.0708 28.736 27.4577 28.1616 27.342 27.5687C27.2264 26.9758 26.6526 26.5891 26.0592 26.7046L9.77121 29.8814C9.17831 29.9971 8.79146 30.5714 8.90718 31.1642C9.009 31.6864 9.46661 32.0488 9.97945 32.0488C10.1804 32.0489 9.15731 32.2224 26.478 28.8517Z" fill="black"/>
<path d="M27.5366 34.2809C28.1294 34.1652 28.5162 33.5908 28.4006 32.9981C28.285 32.4052 27.7108 32.0178 27.1178 32.134L10.8298 35.3108C10.237 35.4265 9.85013 36.0008 9.96574 36.5936C10.0676 37.1157 10.5252 37.4782 11.038 37.4782C11.2389 37.4782 10.2159 37.6517 27.5366 34.2809Z" fill="black"/>
<path d="M28.1769 37.5634L11.8889 40.7403C11.2961 40.856 10.9092 41.4303 11.0248 42.0231C11.1405 42.6161 11.7147 43.0029 12.3076 42.8873L28.5957 39.7103C29.1886 39.5946 29.5754 39.0202 29.4597 38.4275C29.3441 37.8347 28.7701 37.4473 28.1769 37.5634Z" fill="black"/>
<path d="M43.7808 36.7217L32.9414 38.83L30.4105 25.8178L41.2499 23.7095L43.7808 36.7217Z" fill="#E95440"/>
</g>
<defs>
<clipPath id="clip0_128_5253">
<rect width="56" height="56" fill="white"/>
</clipPath>
</defs>
</svg>
