<svg width="64" height="64" viewBox="0 0 64 64" fill="none" xmlns="http://www.w3.org/2000/svg">
<g clip-path="url(#clip0_128_5265)">
<path d="M56.469 32C56.469 18.5944 45.5768 7.53064 31.9996 7.53064C18.4955 7.53064 7.53027 18.5213 7.53027 32C7.53027 44.2375 16.6044 54.5543 28.594 56.2313C28.6068 56.2336 28.618 56.2389 28.7063 56.2471C43.4385 58.2373 56.469 46.7443 56.469 32ZM53.9004 33.7374L43.2138 32L53.9004 30.2626C53.9884 31.3828 53.9953 32.5318 53.9004 33.7374ZM33.737 10.0993L31.9996 20.7855L30.2623 10.0993C31.3825 10.0113 32.5313 10.0044 33.737 10.0993ZM10.0989 30.2626L20.7855 32L10.0989 33.7374C10.0108 32.6173 10.0041 31.4683 10.0989 30.2626ZM30.2623 53.9008L31.9996 43.2145L33.737 53.9008C32.5734 53.9923 31.4266 53.9923 30.2623 53.9008ZM41.0501 52.0174C40.5065 48.6754 39.2729 41.091 39.2035 40.6636C39.1163 40.0585 38.5956 39.5935 37.9664 39.5935C37.276 39.5935 36.7164 40.1533 36.7164 40.8435C36.7164 40.9429 36.7167 40.9473 38.6664 52.9341C37.8679 53.189 37.0498 53.3991 36.2149 53.562L34.4008 42.4038C34.2899 41.7224 33.6481 41.2598 32.9663 41.3705C32.5104 41.4446 32.1534 41.7573 31.9996 42.1596C31.8458 41.7571 31.489 41.4445 31.033 41.3705C30.3513 41.2588 29.7094 41.722 29.5985 42.4038L27.7844 53.562C26.9495 53.399 26.1313 53.189 25.3329 52.9341C27.2826 40.9473 27.2829 40.9429 27.2829 40.8435C27.2829 40.1533 26.7233 39.5935 26.0329 39.5935C25.4037 39.5935 24.883 40.0585 24.7958 40.6636C24.7264 41.091 23.4928 48.6754 22.9491 52.0174C18.0985 49.8158 14.184 45.9011 11.9823 41.0506C15.3251 40.5069 22.9119 39.2729 23.3364 39.204C23.9414 39.1168 24.4063 38.5961 24.4063 37.967C24.4063 37.2768 23.8466 36.717 23.1563 36.717C23.0568 36.717 23.0524 36.7173 11.0656 38.667C10.8108 37.8685 10.6008 37.0503 10.4379 36.2154L21.596 34.4013C22.2775 34.2905 22.74 33.6484 22.6293 32.9669C22.5551 32.5114 22.2431 32.1545 21.8413 32.0005C22.2434 31.8465 22.5553 31.4893 22.6293 31.0336C22.74 30.3523 22.2775 29.71 21.596 29.5993L10.4379 27.7851C10.6008 26.9501 10.8108 26.132 11.0656 25.3335C23.0524 27.2833 23.0569 27.2835 23.1563 27.2835C23.8466 27.2835 24.4063 26.7239 24.4063 26.0335C24.4063 25.4044 23.9414 24.8838 23.3364 24.7965C22.912 24.7275 15.3251 23.4935 11.9823 22.9499C14.1841 18.0993 18.0985 14.1848 22.9491 11.9831C23.4928 15.3251 24.7264 22.9095 24.7958 23.3369C24.883 23.942 25.4037 24.407 26.0329 24.407C26.7233 24.407 27.2829 23.8473 27.2829 23.157C27.2829 23.0576 27.2826 23.0533 25.3329 11.0664C26.1314 10.8115 26.9495 10.6014 27.7844 10.4385L29.5985 21.5968C29.6983 22.2103 30.2288 22.6465 30.8308 22.6465C31.3576 22.6465 31.8161 22.3208 31.9995 21.8409C32.1533 22.2434 32.5101 22.556 32.9661 22.6301C33.6493 22.7418 34.29 22.2763 34.4007 21.5969L36.2148 10.4386C37.0497 10.6016 37.8679 10.8116 38.6663 11.0665C36.7165 23.0534 36.7163 23.0578 36.7163 23.1571C36.7163 23.8474 37.2759 24.4071 37.9663 24.4071C38.5955 24.4071 39.1161 23.9421 39.2034 23.337C39.2728 22.9096 40.5064 15.3253 41.05 11.9833C45.9007 14.1849 49.8151 18.0995 52.0169 22.95C48.674 23.4938 41.0871 24.7278 40.6628 24.7966C40.0578 24.8839 39.5929 25.4045 39.5929 26.0336C39.5929 26.724 40.1525 27.2836 40.8429 27.2836C40.9424 27.2836 40.9468 27.2834 52.9335 25.3336C53.1884 26.1323 53.3985 26.9504 53.5614 27.7853L42.4031 29.5994C41.7216 29.7101 41.2592 30.3523 41.3699 31.0338C41.444 31.4893 41.7556 31.8465 42.1575 32.0005C41.7559 32.1546 41.444 32.5118 41.3699 32.967C41.2592 33.6484 41.7216 34.2906 42.4031 34.4014L53.5614 36.2155C53.3984 37.0505 53.1884 37.8688 52.9335 38.6671C40.9468 36.7174 40.9424 36.7171 40.8429 36.7171C40.1525 36.7171 39.5929 37.2769 39.5929 37.9671C39.5929 38.5963 40.0578 39.1169 40.6628 39.2041C41.0871 39.2731 48.674 40.5071 52.0169 41.0508C49.8151 45.9011 45.9007 49.8156 41.0501 52.0174Z" fill="black"/>
<path d="M54.6274 9.3725C48.5834 3.32863 40.5475 0 32 0C23.4525 0 15.4166 3.32863 9.37263 9.3725C3.3285 15.4166 0 23.4525 0 32C0 40.5475 3.3285 48.5834 9.37263 54.6275C15.4166 60.6714 23.4525 64 32 64C40.5475 64 48.5834 60.6714 54.6274 54.6275C60.6714 48.5834 64 40.5475 64 32C64 23.4525 60.6714 15.4166 54.6274 9.3725ZM32 61.5C15.7336 61.5 2.5 48.2664 2.5 32C2.5 15.7336 15.7336 2.5 32 2.5C48.2664 2.5 61.5 15.7336 61.5 32C61.5 48.2664 48.2664 61.5 32 61.5Z" fill="black"/>
<path d="M32.0571 43.9213C38.6394 43.8884 43.9488 38.5256 43.9159 31.9432C43.883 25.3608 38.5202 20.0514 31.9379 20.0843C25.3556 20.1172 20.0462 25.48 20.0791 32.0624C20.112 38.6448 25.4748 43.9542 32.0571 43.9213Z" fill="#E95440"/>
<path d="M35.1064 27.644C34.4066 27.644 33.8564 28.2148 33.8564 28.8939C33.8564 29.5824 34.4174 30.1438 35.1064 30.1438C35.7962 30.1438 36.3563 29.5815 36.3563 28.8939C36.3563 28.214 35.8052 27.644 35.1064 27.644Z" fill="black"/>
<path d="M35.1064 33.8566C34.4066 33.8566 33.8564 34.4273 33.8564 35.1066C33.8564 35.7951 34.4174 36.3564 35.1064 36.3564C35.7962 36.3564 36.3563 35.7942 36.3563 35.1066C36.3563 34.4266 35.8052 33.8566 35.1064 33.8566Z" fill="black"/>
<path d="M28.8934 33.8566C28.1937 33.8566 27.6436 34.4273 27.6436 35.1064C27.6436 35.7949 28.2046 36.3563 28.8934 36.3563C29.5833 36.3563 30.1434 35.7942 30.1433 35.1064C30.1434 34.4264 29.5924 33.8566 28.8934 33.8566Z" fill="black"/>
<path d="M28.8934 27.644C28.1937 27.644 27.6436 28.2148 27.6436 28.8939C27.6436 29.5824 28.2046 30.1438 28.8934 30.1438C29.5832 30.1438 30.1433 29.5817 30.1433 28.8939C30.1434 28.214 29.5923 27.644 28.8934 27.644Z" fill="black"/>
</g>
<defs>
<clipPath id="clip0_128_5265">
<rect width="64" height="64" fill="white"/>
</clipPath>
</defs>
</svg>
