<svg width="56" height="56" viewBox="0 0 56 56" fill="none" xmlns="http://www.w3.org/2000/svg">
<g clip-path="url(#clip0_128_5206)">
<path d="M39.2656 29.5219V28.1675C39.2656 26.8283 38.18 25.7427 36.8408 25.7427H19.1592C17.82 25.7427 16.7344 26.8283 16.7344 28.1675V29.5219C16.7344 30.8611 17.82 31.9468 19.1592 31.9468C17.82 31.9468 16.7344 33.0324 16.7344 34.3716V35.726C16.7344 37.0652 17.82 38.1508 19.1592 38.1508C17.82 38.1508 16.7344 39.2365 16.7344 40.5757V41.9301C16.7344 43.2693 17.82 44.3549 19.1592 44.3549C17.82 44.3549 16.7344 45.4406 16.7344 46.7798V51.9635C16.7344 53.5888 18.0518 54.9062 19.677 54.9062H36.3229C37.9482 54.9062 39.2656 53.5888 39.2656 51.9636V46.7799C39.2656 45.4407 38.18 44.355 36.8408 44.355C38.18 44.355 39.2656 43.2694 39.2656 41.9302V40.5758C39.2656 39.2366 38.18 38.1509 36.8408 38.1509C38.18 38.1509 39.2656 37.0653 39.2656 35.7261V34.3717C39.2656 33.0325 38.18 31.9469 36.8408 31.9469C38.18 31.9468 39.2656 30.8611 39.2656 29.5219Z" fill="#E95440"/>
<path d="M28.6112 31.9148C28.2334 31.6602 27.7376 31.6664 27.3665 31.9303C27.0168 32.1787 23.9502 34.4428 23.9502 37.385C23.9502 39.618 25.7669 41.4347 28 41.4347C30.2331 41.4347 32.0499 39.618 32.0499 37.385C32.0499 34.2677 28.7516 32.0094 28.6112 31.9148ZM28 39.2472C26.9731 39.2472 26.1377 38.4118 26.1377 37.385C26.1377 36.1981 27.2019 34.9609 28.0094 34.226C28.7421 34.8729 29.8624 36.0761 29.8624 37.385C29.8624 38.4118 29.0269 39.2472 28 39.2472Z" fill="black"/>
<path d="M40.3594 21.0094C40.3594 19.2372 39.6692 17.571 38.4161 16.3178L32.368 10.2697V6.74713C32.9451 6.71694 33.4036 6.23941 33.4036 5.65491V1.09375C33.4036 0.489781 32.9139 0 32.3098 0H23.6901C23.086 0 22.5963 0.489781 22.5963 1.09375V5.65491C22.5963 6.23941 23.0549 6.71683 23.6319 6.74713V10.2698L17.5838 16.3179C16.3308 17.571 15.6406 19.2372 15.6406 21.0094V23.3178C15.6406 24.2568 16.0103 25.111 16.6119 25.7426C16.0103 26.3742 15.6406 27.2285 15.6406 28.1676V29.522C15.6406 30.4609 16.0103 31.3152 16.6119 31.9468C16.0103 32.5784 15.6406 33.4327 15.6406 34.3716V35.7261C15.6406 36.6651 16.0103 37.5193 16.6119 38.151C16.0103 38.7826 15.6406 39.6368 15.6406 40.5758V41.9302C15.6406 42.8692 16.0103 43.7235 16.6119 44.3552C16.0103 44.9868 15.6406 45.841 15.6406 46.78V51.9637C15.6406 54.1895 17.4513 56.0001 19.677 56.0001H36.3229C38.5487 56 40.3594 54.1893 40.3594 51.9636V46.7799C40.3594 45.8409 39.9897 44.9867 39.3881 44.3551C39.9897 43.7234 40.3594 42.8692 40.3594 41.9301V40.5757C40.3594 39.6367 39.9897 38.7825 39.3881 38.1509C39.9897 37.5192 40.3594 36.665 40.3594 35.726V34.3715C40.3594 33.4325 39.9897 32.5783 39.3881 31.9467C39.9897 31.315 40.3594 30.4608 40.3594 29.5218V28.1675C40.3594 27.2285 39.9897 26.3741 39.3881 25.7425C39.9897 25.1109 40.3594 24.2566 40.3594 23.3177V21.0094ZM24.7839 2.1875H31.2162V4.56116H24.7839V2.1875ZM38.1719 51.9636C38.1719 52.9831 37.3425 53.8125 36.323 53.8125H19.677C18.6575 53.8125 17.8281 52.9831 17.8281 51.9636V46.7799C17.8281 46.0459 18.4252 45.4488 19.1592 45.4488C19.7633 45.4488 20.253 44.959 20.253 44.3551C20.253 43.7511 19.7633 43.2613 19.1592 43.2613C18.4252 43.2613 17.8281 42.6641 17.8281 41.9301V40.5757C17.8281 39.8417 18.4252 39.2446 19.1592 39.2446C19.7633 39.2446 20.253 38.7548 20.253 38.1509C20.253 37.5469 19.7633 37.0571 19.1592 37.0571C18.4252 37.0571 17.8281 36.46 17.8281 35.726V34.3715C17.8281 33.6375 18.4252 33.0404 19.1592 33.0404C19.7633 33.0404 20.253 32.5507 20.253 31.9467C20.253 31.3427 19.7633 30.8529 19.1592 30.8529C18.4252 30.8529 17.8281 30.2559 17.8281 29.5218V28.1675C17.8281 27.4334 18.4252 26.8363 19.1592 26.8363C19.7633 26.8363 20.253 26.3465 20.253 25.7425C20.253 25.1385 19.7633 24.6488 19.1592 24.6488C18.4252 24.6488 17.8281 24.0517 17.8281 23.3177V21.0093C17.8281 19.8214 18.2907 18.7045 19.1308 17.8645L25.5023 11.4929C25.7273 11.2678 25.8381 10.9612 25.8195 10.6547V6.74866H30.1805V10.636C30.1565 10.9487 30.268 11.2633 30.4977 11.493L36.8692 17.8647C37.7092 18.7047 38.1719 19.8215 38.1719 21.0094V23.3178C38.1719 24.0518 37.5748 24.6489 36.8408 24.6489C36.2367 24.6489 35.747 25.1386 35.747 25.7426C35.747 26.3466 36.2367 26.8364 36.8408 26.8364C37.5748 26.8364 38.1719 27.4335 38.1719 28.1676V29.522C38.1719 30.256 37.5748 30.853 36.8408 30.853C36.2367 30.853 35.747 31.3428 35.747 31.9468C35.747 32.5508 36.2367 33.0405 36.8408 33.0405C37.5748 33.0405 38.1719 33.6376 38.1719 34.3716V35.7261C38.1719 36.4602 37.5748 37.0572 36.8408 37.0572C36.2367 37.0572 35.747 37.547 35.747 38.151C35.747 38.755 36.2367 39.2447 36.8408 39.2447C37.5748 39.2447 38.1719 39.8418 38.1719 40.5758V41.9302C38.1719 42.6642 37.5748 43.2614 36.8408 43.2614C36.2367 43.2614 35.747 43.7512 35.747 44.3552C35.747 44.9591 36.2367 45.4489 36.8408 45.4489C37.5748 45.4489 38.1719 46.046 38.1719 46.78V51.9636Z" fill="black"/>
</g>
<defs>
<clipPath id="clip0_128_5206">
<rect width="56" height="56" fill="white"/>
</clipPath>
</defs>
</svg>
