<svg width="56" height="56" viewBox="0 0 56 56" fill="none" xmlns="http://www.w3.org/2000/svg">
<g clip-path="url(#clip0_83_2372)">
<path d="M14.2578 14.2002V37.9933C14.2578 40.6042 15.8933 43.0451 18.4243 44.2119L28.0002 48.6265V8.69739C24.2313 11.4262 19.7488 13.2109 14.2578 14.2002Z" fill="#E95440"/>
<path d="M48.2219 8.18475C48.0117 7.97902 47.7324 7.86625 47.4332 7.87292C47.2662 7.87653 47.1007 7.87839 46.9375 7.87839C45.7098 7.87839 44.514 7.78116 43.3829 7.58931C35.0013 6.16777 31.0479 2.77747 28.8034 0.350984C28.5963 0.127313 28.3053 0 28.0004 0C27.6956 0 27.4046 0.127313 27.1975 0.350984C24.953 2.77747 20.9996 6.16777 12.6179 7.5892C11.4872 7.78105 10.2914 7.87839 9.06359 7.87839C8.9004 7.87839 8.73546 7.87664 8.56834 7.87292C8.27138 7.86636 7.98952 7.97869 7.7792 8.18442C7.56876 8.39027 7.4502 8.67202 7.4502 8.96634V37.9932C7.4502 43.2438 10.6373 48.1059 15.5696 50.3798L27.5425 55.8994C27.6877 55.9663 27.8442 55.9998 28.0004 55.9998C28.1567 55.9998 28.313 55.9663 28.4584 55.8994L40.4312 50.3798C45.3637 48.1059 48.5507 43.2438 48.5507 37.9932V8.96645C48.5507 8.67223 48.4321 8.39048 48.2219 8.18475ZM46.3632 37.9933C46.3632 42.3933 43.6753 46.4755 39.5154 48.3933L28.0004 53.7019L16.4856 48.3933C12.3257 46.4755 9.6378 42.3933 9.6378 37.9933V10.0594C10.7878 10.0332 11.9107 9.92808 12.9839 9.74597C21.1132 8.3673 25.4242 5.22364 28.0004 2.66897C30.5767 5.22353 34.8877 8.36719 43.0172 9.74608C44.0905 9.92808 45.2137 10.0332 46.3632 10.0594V37.9933Z" fill="black"/>
</g>
<defs>
<clipPath id="clip0_83_2372">
<rect width="56" height="56" fill="white"/>
</clipPath>
</defs>
</svg>
