<svg width="150" height="19" viewBox="0 0 150 19" fill="none" xmlns="http://www.w3.org/2000/svg">
<path d="M0 18.8682V0.0263523H4.23811V15.4424H18.0914V18.8682H0Z" fill="#181A1F"/>
<path d="M28.4007 19C26.4759 19 24.9572 18.754 23.8447 18.2621C22.7322 17.7527 21.9376 16.9884 21.4608 15.9695C20.984 14.9505 20.7456 13.6681 20.7456 12.1221V0.0263523H24.9837V12.1221C24.9837 13.4572 25.2928 14.3708 25.9108 14.8627C26.5465 15.337 27.6149 15.5742 29.1159 15.5742H34.2281C35.7291 15.5742 36.7886 15.337 37.4067 14.8627C38.0424 14.3708 38.3602 13.4572 38.3602 12.1221V0.0263523H42.5984V12.1221C42.5984 13.6681 42.36 14.9505 41.8832 15.9695C41.4064 16.9884 40.6117 17.7527 39.4992 18.2621C38.3867 18.754 36.8681 19 34.9433 19H28.4007Z" fill="#181A1F"/>
<path d="M44.7133 18.8682L51.8121 9.46047L44.7133 0.0263523H49.8785L55.5734 7.74757H58.0103L63.7053 0.0263523H68.8705L61.7716 9.46047L68.8705 18.8682H63.6788L58.0103 11.1734H55.5734L49.9049 18.8682H44.7133Z" fill="#181A1F"/>
<path d="M70.98 18.8682V0.0263523H86.8464C88.8065 0.0263523 90.3252 0.518262 91.4024 1.50208C92.4972 2.4859 93.0446 3.97919 93.0446 5.98197C93.0446 7.68608 92.6473 9.02127 91.8527 9.98752C91.058 10.9538 89.9279 11.5599 88.4622 11.8058L92.8327 18.8682H88.0119L83.9592 11.9376H75.2181V18.8682H70.98ZM86.3431 3.45215H75.2181V8.48544L86.3431 8.51179C87.1201 8.51179 87.7117 8.31854 88.1178 7.93204C88.5417 7.54554 88.7536 6.89552 88.7536 5.98197C88.7536 5.05085 88.5417 4.40083 88.1178 4.0319C87.7117 3.6454 87.1201 3.45215 86.3431 3.45215Z" fill="#181A1F"/>
<path d="M96.2265 18.8682V0.0263523H100.465V18.8682H96.2265Z" fill="#181A1F"/>
<path d="M104.168 18.8682V0.0263523H107.293L115.77 0C119.195 0 121.853 0.799353 123.743 2.39806C125.632 3.99676 126.577 6.34212 126.577 9.43412C126.577 12.5261 125.632 14.8715 123.743 16.4702C121.853 18.0689 119.195 18.8682 115.77 18.8682H104.168ZM115.478 3.4258H108.406V15.4424H115.478C117.703 15.4424 119.39 14.9593 120.538 13.9931C121.685 13.0268 122.259 11.5072 122.259 9.43412C122.259 7.3435 121.685 5.82386 120.538 4.87517C119.39 3.90892 117.703 3.4258 115.478 3.4258Z" fill="#181A1F"/>
<path d="M129.233 18.8682V0.0263523H150V3.45215H133.471V7.61581H148.464V11.0416H133.471V15.4424H150V18.8682H129.233Z" fill="#181A1F"/>
</svg>
