<svg width="16" height="16" viewBox="0 0 16 16" fill="none" xmlns="http://www.w3.org/2000/svg">
<g clip-path="url(#clip0_26_1070)">
<path d="M8.00006 16.0004C5.42006 15.9554 2.13506 10.2754 2.13506 5.86542C2.11799 5.09054 2.25803 4.32023 2.54673 3.60094C2.83544 2.88165 3.26682 2.22828 3.81487 1.68023C4.36293 1.13218 5.0163 0.700793 5.73559 0.412091C6.45487 0.123389 7.22518 -0.0166513 8.00006 0.000415247C8.77494 -0.0166513 9.54524 0.123389 10.2645 0.412091C10.9838 0.700793 11.6372 1.13218 12.1852 1.68023C12.7333 2.22828 13.1647 2.88165 13.4534 3.60094C13.7421 4.32023 13.8821 5.09054 13.8651 5.86542C13.8651 9.24541 12.0051 13.0954 10.2051 14.8654C9.44006 15.6204 8.70506 16.0004 8.00006 16.0004ZM8.00006 1.06542C7.36388 1.04381 6.73006 1.15319 6.13792 1.38676C5.54578 1.62034 5.00797 1.97312 4.55787 2.42323C4.10777 2.87333 3.75498 3.41114 3.52141 4.00328C3.28783 4.59542 3.17845 5.22924 3.20006 5.86542C3.20006 10.0904 6.33506 14.9054 8.01006 14.9304C8.57605 14.8364 9.09007 14.5439 9.46006 14.1054C11.0651 12.5254 12.8001 8.92542 12.8001 5.86542C12.8217 5.22924 12.7123 4.59542 12.4787 4.00328C12.2451 3.41114 11.8924 2.87333 11.4422 2.42323C10.9921 1.97312 10.4543 1.62034 9.8622 1.38676C9.27006 1.15319 8.63623 1.04381 8.00006 1.06542Z" fill="white"/>
<path d="M7.99996 8.53508C7.47288 8.53508 6.95762 8.37878 6.51937 8.08595C6.08111 7.79311 5.73953 7.3769 5.53782 6.88993C5.33612 6.40297 5.28334 5.86712 5.38617 5.35016C5.489 4.8332 5.74282 4.35835 6.11552 3.98564C6.48823 3.61293 6.96309 3.35912 7.48005 3.25629C7.99701 3.15346 8.53285 3.20623 9.01981 3.40794C9.50678 3.60965 9.92299 3.95123 10.2158 4.38948C10.5087 4.82774 10.665 5.34299 10.665 5.87008C10.6636 6.57648 10.3824 7.25356 9.88294 7.75306C9.38344 8.25256 8.70636 8.53376 7.99996 8.53508ZM7.99996 4.27008C7.68351 4.27008 7.37417 4.36392 7.11105 4.53973C6.84793 4.71554 6.64286 4.96542 6.52176 5.25779C6.40066 5.55015 6.36897 5.87185 6.43071 6.18222C6.49244 6.49259 6.64483 6.77769 6.86859 7.00145C7.09236 7.22521 7.37745 7.3776 7.68782 7.43934C7.99819 7.50107 8.31989 7.46939 8.61226 7.34829C8.90462 7.22719 9.1545 7.02211 9.33031 6.75899C9.50612 6.49587 9.59996 6.18653 9.59996 5.87008C9.60062 5.65954 9.55972 5.45095 9.47961 5.25625C9.3995 5.06155 9.28174 4.88458 9.1331 4.73547C8.98447 4.58637 8.80786 4.46807 8.61341 4.38735C8.41897 4.30663 8.2105 4.26508 7.99996 4.26508V4.27008Z" fill="white"/>
</g>
<defs>
<clipPath id="clip0_26_1070">
<rect width="16" height="16" fill="white"/>
</clipPath>
</defs>
</svg>
