<svg width="72" height="56" viewBox="0 0 72 56" fill="none" xmlns="http://www.w3.org/2000/svg">
<circle cx="20" cy="20" r="20" fill="#FDEEEC"/>
<g clip-path="url(#clip0_85_2338)">
<path fill-rule="evenodd" clip-rule="evenodd" d="M28.2637 18.4637L30.1611 21.7439L32.0586 18.4637L35.3387 16.5663L32.0586 14.669L30.1611 11.3888L28.2637 14.669L24.9805 16.5663L28.2637 18.4637Z" fill="#E95440"/>
<path fill-rule="evenodd" clip-rule="evenodd" d="M40.2232 13.4784L42.3128 17.0902L44.3993 13.4784L48.0112 11.3918L44.3993 9.3022L42.3128 5.69031L40.2232 9.3022L36.6113 11.3918L40.2232 13.4784Z" fill="#E95440"/>
<path fill-rule="evenodd" clip-rule="evenodd" d="M21.4531 35.0721H32.2207V27.405H28.3514C26.2618 27.405 25.0062 28.0188 24.0017 30.0094L21.4531 35.0721Z" fill="#E95440"/>
<path fill-rule="evenodd" clip-rule="evenodd" d="M41.3008 27.405H50.3848V35.0721H41.3008V27.405Z" fill="#E95440"/>
<path d="M68.5678 35.0427C67.0133 34.3663 64.9377 33.9784 62.8733 33.9784H61.9131L57.1063 28.3154C55.5215 26.4494 54.4885 26.3526 52.3031 26.3115C52.2962 26.3114 52.2894 26.3113 52.2825 26.3113H28.3511C25.717 26.3113 24.1739 27.2399 23.0244 29.5175L20.7789 33.9784H18.0983C16.9413 33.9784 16 34.9196 16 36.0766V43.9793C16 45.1362 16.9413 46.0775 18.0983 46.0775H23.9844C24.3817 48.4751 26.4688 50.3095 28.9773 50.3095C31.4859 50.3095 33.5728 48.475 33.9703 46.0775H53.2485C53.6459 48.4751 55.733 50.3095 58.2415 50.3095C60.75 50.3095 62.837 48.475 63.2345 46.0775H68.4354C70.4009 46.0775 72.0001 44.4799 72.0001 42.5159V39.5024C72 38.1492 71.4046 36.277 68.5678 35.0427ZM24.9777 30.502C25.7431 28.9855 26.5628 28.4987 28.3511 28.4987H52.272C54.0973 28.533 54.4284 28.5414 55.4389 29.7311L59.0439 33.9784H23.2278L24.9777 30.502ZM28.9773 48.1221C27.3923 48.1221 26.1026 46.8324 26.1026 45.2474C26.1026 43.6623 27.3923 42.3727 28.9773 42.3727C30.5624 42.3727 31.852 43.6623 31.852 45.2474C31.852 46.8324 30.5624 48.1221 28.9773 48.1221ZM58.2414 48.1221C56.6563 48.1221 55.3667 46.8324 55.3667 45.2474C55.3667 43.6623 56.6563 42.3727 58.2414 42.3727C59.8265 42.3727 61.1161 43.6623 61.1161 45.2474C61.1161 46.8324 59.8265 48.1221 58.2414 48.1221ZM68.4353 43.8901H63.1172C62.5223 41.7561 60.5624 40.1853 58.2414 40.1853C55.9203 40.1853 53.9603 41.7561 53.3656 43.8901H33.8532C33.2583 41.7561 31.2984 40.1853 28.9773 40.1853C26.6563 40.1853 24.6963 41.7561 24.1015 43.8901H18.1875V41.0024H20.0577C20.6618 41.0024 21.1515 40.5127 21.1515 39.9087C21.1515 39.3046 20.6618 38.8149 20.0577 38.8149H18.1875V36.1659H62.8733C65.6627 36.1659 69.8125 37.0545 69.8125 39.5024V39.624H67.7843C67.1802 39.624 66.6905 40.1136 66.6905 40.7177C66.6905 41.3218 67.1802 41.8115 67.7843 41.8115H69.8125V42.5159C69.8125 43.2737 69.1948 43.8901 68.4353 43.8901Z" fill="black"/>
<path d="M43.4784 38.9358H38.6543C38.0502 38.9358 37.5605 39.4255 37.5605 40.0295C37.5605 40.6336 38.0502 41.1233 38.6543 41.1233H43.4784C44.0825 41.1233 44.5721 40.6336 44.5721 40.0295C44.5721 39.4255 44.0825 38.9358 43.4784 38.9358Z" fill="black"/>
</g>
<defs>
<clipPath id="clip0_85_2338">
<rect width="56" height="56" fill="white" transform="translate(16)"/>
</clipPath>
</defs>
</svg>
