<svg width="64" height="56" viewBox="0 0 64 56" fill="none" xmlns="http://www.w3.org/2000/svg">
<circle cx="20" cy="20" r="20" fill="#FDEEEC"/>
<g clip-path="url(#clip0_85_2324)">
<path d="M28.2207 20.1716V40.5657C28.2207 42.8036 29.6225 44.8958 31.792 45.896L39.9999 49.6799V15.455C36.7694 17.7939 32.9272 19.3236 28.2207 20.1716Z" fill="#E95440"/>
<path d="M57.332 15.0155C57.1518 14.8392 56.9123 14.7425 56.6559 14.7482C56.5128 14.7513 56.3709 14.7529 56.231 14.7529C55.1787 14.7529 54.1537 14.6696 53.1843 14.5051C46 13.2867 42.6113 10.3807 40.6875 8.30084C40.51 8.10912 40.2605 8 39.9993 8C39.738 8 39.4885 8.10912 39.311 8.30084C37.3872 10.3807 33.9985 13.2867 26.8143 14.505C25.8451 14.6695 24.8201 14.7529 23.7677 14.7529C23.6278 14.7529 23.4864 14.7514 23.3432 14.7482C23.0886 14.7426 22.847 14.8389 22.6668 15.0152C22.4864 15.1917 22.3848 15.4332 22.3848 15.6854V40.5656C22.3848 45.0661 25.1165 49.2336 29.3443 51.1827L39.6067 55.9137C39.7312 55.9711 39.8653 55.9998 39.9993 55.9998C40.1332 55.9998 40.2672 55.9711 40.3918 55.9137L50.6542 51.1827C54.8821 49.2336 57.6138 45.0661 57.6138 40.5656V15.6855C57.6138 15.4333 57.5121 15.1918 57.332 15.0155ZM55.7388 40.5657C55.7388 44.3371 53.4349 47.8362 49.8693 49.48L39.9993 54.0302L30.1294 49.48C26.5638 47.8362 24.2599 44.3371 24.2599 40.5657V16.6224C25.2455 16.5999 26.2081 16.5098 27.128 16.3537C34.0959 15.172 37.7911 12.4774 39.9993 10.2877C42.2075 12.4773 45.9026 15.1719 52.8708 16.3538C53.7907 16.5098 54.7535 16.5999 55.7388 16.6224V40.5657Z" fill="black"/>
</g>
<defs>
<clipPath id="clip0_85_2324">
<rect width="48" height="48" fill="white" transform="translate(16 8)"/>
</clipPath>
</defs>
</svg>
