<svg width="64" height="56" viewBox="0 0 64 56" fill="none" xmlns="http://www.w3.org/2000/svg">
<circle cx="20" cy="20" r="20" fill="#FDEEEC"/>
<path d="M50.7812 24.0312V40.9062H29.2188V24.0312H22.5625V44.6562H57.4375V24.0312H50.7812Z" fill="#E95440"/>
<path d="M63.0625 47.4688H62.125V23.0938C62.125 21.026 60.4427 19.3438 58.375 19.3438H51.7188V9.96875C51.7188 9.45097 51.2989 9.03125 50.7812 9.03125H29.2188C28.701 9.03125 28.2812 9.45097 28.2812 9.96875V19.3438H21.625C19.5573 19.3438 17.875 21.026 17.875 23.0938V47.4688H16.9375C16.4197 47.4688 16 47.8886 16 48.4062V51.2188C16 53.2865 17.6823 54.9688 19.75 54.9688H60.25C62.3177 54.9688 64 53.2865 64 51.2188V48.4062C64 47.8886 63.5802 47.4688 63.0625 47.4688ZM30.1562 10.9062H49.8438V39.9688H30.1562V10.9062ZM19.75 23.0938C19.75 22.0599 20.5911 21.2188 21.625 21.2188H28.2812V39.9688H27.3438C26.8261 39.9688 26.4062 40.3886 26.4062 40.9062C26.4062 41.4239 26.8261 41.8438 27.3438 41.8438H52.6562C53.1739 41.8438 53.5938 41.4239 53.5938 40.9062C53.5938 40.3886 53.1739 39.9688 52.6562 39.9688H51.7188V21.2188H58.375C59.4089 21.2188 60.25 22.0599 60.25 23.0938V47.4688H19.75V23.0938ZM62.125 51.2188C62.125 52.2526 61.2839 53.0938 60.25 53.0938H19.75C18.7161 53.0938 17.875 52.2526 17.875 51.2188V49.3438H62.125V51.2188Z" fill="black"/>
<path d="M41.4661 20.1515C40.5341 19.8221 39.5026 19.4235 38.9184 18.9655C38.4478 18.5965 38.6393 17.3605 39.5152 17.0967C40.6867 16.7437 41.4446 17.3849 41.4764 17.4123L41.4662 17.403L41.467 17.4021C41.6389 17.5603 41.8671 17.6516 42.1019 17.6516C42.6183 17.6516 43.0394 17.2307 43.0394 16.7141C43.0394 16.4665 42.9391 16.2256 42.7646 16.0512C42.7555 16.0422 42.7457 16.0343 42.7363 16.0257L42.7373 16.0246C42.6977 15.9883 42.0808 15.4332 41.064 15.2084V14.6562C41.064 14.1386 40.6442 13.7188 40.1265 13.7188C39.6088 13.7188 39.189 14.1386 39.189 14.6562V15.2425C39.1182 15.2601 39.0467 15.2796 38.9743 15.3013C37.8844 15.6297 37.0704 16.5599 36.8502 17.7289C36.648 18.8024 36.997 19.8416 37.7613 20.4409C38.404 20.9451 39.2963 21.3734 40.8412 21.9194C41.9374 22.3069 41.9133 23.1965 41.852 23.561C41.7292 24.2909 41.1154 25.0797 40.0573 25.0867C39.0477 25.093 38.7322 25.0432 37.9528 24.5334C37.5196 24.2497 36.9386 24.3714 36.655 24.8046C36.3716 25.2379 36.4929 25.8189 36.9263 26.1024C37.7818 26.6622 38.4001 26.8691 39.189 26.9348V27.4204C39.189 27.9381 39.6088 28.3579 40.1265 28.3579C40.6442 28.3579 41.064 27.9381 41.064 27.4204V26.824C42.5422 26.4117 43.4889 25.1334 43.701 23.872C43.9793 22.2175 43.081 20.7224 41.4661 20.1515Z" fill="black"/>
<path d="M33.9062 32.4688H46.0938C46.6114 32.4688 47.0312 32.0489 47.0312 31.5312C47.0312 31.0135 46.6114 30.5938 46.0938 30.5938H33.9062C33.3885 30.5938 32.9688 31.0135 32.9688 31.5312C32.9688 32.0489 33.3885 32.4688 33.9062 32.4688Z" fill="black"/>
<path d="M33.9062 37.1562H46.0938C46.6114 37.1562 47.0312 36.7364 47.0312 36.2188C47.0312 35.7011 46.6114 35.2812 46.0938 35.2812H33.9062C33.3885 35.2812 32.9688 35.7011 32.9688 36.2188C32.9688 36.7364 33.3885 37.1562 33.9062 37.1562Z" fill="black"/>
</svg>
