<svg width="114" height="114" viewBox="0 0 114 114" fill="none" xmlns="http://www.w3.org/2000/svg">
<circle cx="57" cy="57" r="45" fill="white"/>
<circle cx="57" cy="57" r="51" stroke="white" stroke-opacity="0.1" stroke-width="12"/>
<path d="M67.1628 55.5824L50.9755 46.3696C49.2584 45.3893 47.5078 46.4614 47.5078 48.3892V67.622C47.5078 69.2552 48.5711 70 49.5594 70C50.0248 70 50.4989 69.8531 50.9699 69.5665L67.2299 59.6137C68.0473 59.1116 68.5063 58.3684 68.4919 57.5741C68.4784 56.779 67.9946 56.0526 67.1628 55.5824ZM66.1402 57.836L49.8811 67.7864C49.7717 67.8534 49.6855 67.887 49.6264 67.9037C49.6105 67.8447 49.5945 67.7537 49.5945 67.622V48.39C49.5945 48.192 49.6304 48.0923 49.6304 48.0675C49.6943 48.0715 49.806 48.1042 49.9465 48.1841L66.1315 57.3969C66.331 57.5111 66.3901 57.61 66.4093 57.5885C66.3989 57.6156 66.331 57.717 66.1402 57.836Z" fill="#181A1F"/>
</svg>
