<svg width="56" height="56" viewBox="0 0 56 56" fill="none" xmlns="http://www.w3.org/2000/svg">
<path d="M40.5781 18.7031V38.3906H15.4219V18.7031H7.65625V42.7656H48.3438V18.7031H40.5781Z" fill="#FDEEEC"/>
<path d="M54.9062 46.0469H53.8125V17.6094C53.8125 15.197 51.8499 13.2344 49.4375 13.2344H41.6719V2.29688C41.6719 1.6928 41.1821 1.20312 40.5781 1.20312H15.4219C14.8178 1.20312 14.3281 1.6928 14.3281 2.29688V13.2344H6.5625C4.15013 13.2344 2.1875 15.197 2.1875 17.6094V46.0469H1.09375C0.489672 46.0469 0 46.5367 0 47.1406V50.4219C0 52.8343 1.96263 54.7969 4.375 54.7969H51.625C54.0374 54.7969 56 52.8343 56 50.4219V47.1406C56 46.5367 55.5102 46.0469 54.9062 46.0469ZM16.5156 3.39062H39.4844V37.2969H16.5156V3.39062ZM4.375 17.6094C4.375 16.4032 5.35631 15.4219 6.5625 15.4219H14.3281V37.2969H13.2344C12.6304 37.2969 12.1406 37.7867 12.1406 38.3906C12.1406 38.9946 12.6304 39.4844 13.2344 39.4844H42.7656C43.3696 39.4844 43.8594 38.9946 43.8594 38.3906C43.8594 37.7867 43.3696 37.2969 42.7656 37.2969H41.6719V15.4219H49.4375C50.6437 15.4219 51.625 16.4032 51.625 17.6094V46.0469H4.375V17.6094ZM53.8125 50.4219C53.8125 51.6281 52.8312 52.6094 51.625 52.6094H4.375C3.16881 52.6094 2.1875 51.6281 2.1875 50.4219V48.2344H53.8125V50.4219Z" fill="black"/>
<path d="M29.7095 14.1767C28.6222 13.7924 27.4187 13.3275 26.7372 12.793C26.1881 12.3625 26.4116 10.9205 27.4334 10.6129C28.8002 10.201 29.6844 10.9491 29.7215 10.981L29.7096 10.9702L29.7106 10.9691C29.911 11.1537 30.1773 11.2602 30.4512 11.2602C31.0537 11.2602 31.545 10.7692 31.545 10.1664C31.545 9.87755 31.428 9.59656 31.2244 9.39312C31.2138 9.38252 31.2023 9.37333 31.1914 9.36327L31.1925 9.36206C31.1463 9.31963 30.4266 8.67212 29.2404 8.40984V7.76562C29.2404 7.16166 28.7506 6.67188 28.1466 6.67188C27.5426 6.67188 27.0529 7.16166 27.0529 7.76562V8.44955C26.9703 8.47011 26.8868 8.49286 26.8024 8.51823C25.5308 8.90137 24.5812 9.98659 24.3243 11.3504C24.0884 12.6028 24.4956 13.8152 25.3872 14.5144C26.1371 15.1026 27.1781 15.6023 28.9804 16.2393C30.2593 16.6914 30.2312 17.7292 30.1597 18.1545C30.0164 19.0061 29.3003 19.9263 28.0659 19.9345C26.888 19.9418 26.5199 19.8837 25.6106 19.2889C25.1052 18.958 24.4274 19.0999 24.0966 19.6054C23.7659 20.1109 23.9075 20.7887 24.4131 21.1194C25.4111 21.7725 26.1325 22.0139 27.0529 22.0906V22.6571C27.0529 23.2611 27.5426 23.7509 28.1466 23.7509C28.7506 23.7509 29.2404 23.2611 29.2404 22.6571V21.9613C30.9649 21.4803 32.0695 19.9889 32.3169 18.5173C32.6415 16.587 31.5936 14.8428 29.7095 14.1767Z" fill="black"/>
<path d="M20.8906 28.5469H35.1094C35.7133 28.5469 36.2031 28.0571 36.2031 27.4531C36.2031 26.849 35.7133 26.3594 35.1094 26.3594H20.8906C20.2865 26.3594 19.7969 26.849 19.7969 27.4531C19.7969 28.0571 20.2865 28.5469 20.8906 28.5469Z" fill="black"/>
<path d="M20.8906 34.0156H35.1094C35.7133 34.0156 36.2031 33.5258 36.2031 32.9219C36.2031 32.3179 35.7133 31.8281 35.1094 31.8281H20.8906C20.2865 31.8281 19.7969 32.3179 19.7969 32.9219C19.7969 33.5258 20.2865 34.0156 20.8906 34.0156Z" fill="black"/>
</svg>
