<svg width="56" height="56" viewBox="0 0 56 56" fill="none" xmlns="http://www.w3.org/2000/svg">
<g clip-path="url(#clip0_74_1253)">
<path d="M14.2573 14.2002V37.9933C14.2573 40.6042 15.8928 43.0451 18.4239 44.2119L27.9997 48.6265V8.69739C24.2308 11.4262 19.7483 13.2109 14.2573 14.2002V14.2002Z" fill="#FDEEEC"/>
<path d="M48.2214 8.18475C48.0112 7.97902 47.7319 7.86625 47.4327 7.87292C47.2657 7.87653 47.1002 7.87839 46.937 7.87839C45.7093 7.87839 44.5135 7.78116 43.3825 7.58931C35.0008 6.16777 31.0474 2.77747 28.8029 0.350984C28.5958 0.127313 28.3048 0 28 0C27.6951 0 27.4041 0.127313 27.197 0.350984C24.9526 2.77747 20.9991 6.16777 12.6175 7.5892C11.4867 7.78105 10.2909 7.87839 9.0631 7.87839C8.89991 7.87839 8.73497 7.87664 8.56785 7.87292C8.27089 7.86636 7.98904 7.97869 7.77871 8.18442C7.56827 8.39027 7.44971 8.67202 7.44971 8.96634V37.9932C7.44971 43.2438 10.6368 48.1059 15.5692 50.3798L27.542 55.8994C27.6873 55.9663 27.8437 55.9998 28 55.9998C28.1563 55.9998 28.3126 55.9663 28.4579 55.8994L40.4308 50.3798C45.3632 48.1059 48.5502 43.2438 48.5502 37.9932V8.96645C48.5502 8.67223 48.4316 8.39048 48.2214 8.18475V8.18475ZM46.3627 37.9933C46.3627 42.3933 43.6748 46.4755 39.515 48.3933L28 53.7019L16.4851 48.3933C12.3252 46.4755 9.63732 42.3933 9.63732 37.9933V10.0594C10.7873 10.0332 11.9102 9.92808 12.9834 9.74597C21.1127 8.3673 25.4237 5.22364 28 2.66897C30.5762 5.22353 34.8872 8.36719 43.0167 9.74608C44.09 9.92808 45.2132 10.0332 46.3627 10.0594V37.9933Z" fill="black"/>
</g>
<defs>
<clipPath id="clip0_74_1253">
<rect width="56" height="56" fill="white"/>
</clipPath>
</defs>
</svg>
