<svg width="64" height="64" viewBox="0 0 64 64" fill="none" xmlns="http://www.w3.org/2000/svg">
<g clip-path="url(#clip0_74_1267)">
<path fill-rule="evenodd" clip-rule="evenodd" d="M14.0164 21.1014L16.1849 24.8501L18.3534 21.1014L22.1022 18.9329L18.3534 16.7645L16.1849 13.0157L14.0164 16.7645L10.2642 18.9329L14.0164 21.1014Z" fill="#FDEEEC"/>
<path fill-rule="evenodd" clip-rule="evenodd" d="M27.6826 15.4039L30.0707 19.5318L32.4552 15.4039L36.5831 13.0193L32.4552 10.6312L30.0707 6.5033L27.6826 10.6312L23.5547 13.0193L27.6826 15.4039Z" fill="#FDEEEC"/>
<path fill-rule="evenodd" clip-rule="evenodd" d="M6.23193 40.0826H18.5377V31.3202H14.1157C11.7276 31.3202 10.2926 32.0217 9.14456 34.2966L6.23193 40.0826Z" fill="#FDEEEC"/>
<path fill-rule="evenodd" clip-rule="evenodd" d="M28.9155 31.3202H39.2973V40.0826H28.9155V31.3202Z" fill="#FDEEEC"/>
<path d="M60.0775 40.0489C58.3009 39.2759 55.9288 38.8326 53.5695 38.8326H52.4721L46.9786 32.3606C45.1674 30.2281 43.9869 30.1174 41.4893 30.0704C41.4814 30.0703 41.4736 30.0702 41.4658 30.0702H14.1155C11.1051 30.0702 9.34163 31.1314 8.02788 33.7344L5.46163 38.8326H2.398C1.07575 38.8326 0 39.9083 0 41.2306V50.2622C0 51.5844 1.07575 52.6602 2.398 52.6602H9.125C9.57913 55.4003 11.9644 57.4967 14.8313 57.4967C17.6981 57.4967 20.0833 55.4002 20.5375 52.6602H42.5698C43.0239 55.4003 45.4091 57.4967 48.276 57.4967C51.1429 57.4967 53.528 55.4002 53.9823 52.6602H59.9261C62.1725 52.6602 64.0001 50.8343 64.0001 48.5898V45.1458C64 43.5992 63.3195 41.4596 60.0775 40.0489ZM10.2603 34.8596C11.135 33.1264 12.0718 32.5701 14.1155 32.5701H41.4538C43.5398 32.6093 43.9181 32.6189 45.073 33.9786L49.193 38.8326H8.26038L10.2603 34.8596ZM14.8313 54.9968C13.0198 54.9968 11.5459 53.5229 11.5459 51.7114C11.5459 49.8999 13.0198 48.4261 14.8313 48.4261C16.6428 48.4261 18.1166 49.8999 18.1166 51.7114C18.1166 53.5229 16.6428 54.9968 14.8313 54.9968ZM48.2759 54.9968C46.4644 54.9968 44.9905 53.5229 44.9905 51.7114C44.9905 49.8999 46.4644 48.4261 48.2759 48.4261C50.0874 48.4261 51.5613 49.8999 51.5613 51.7114C51.5613 53.5229 50.0874 54.9968 48.2759 54.9968ZM59.926 50.1603H53.8483C53.1684 47.7214 50.9285 45.9262 48.2759 45.9262C45.6233 45.9262 43.3833 47.7214 42.7035 50.1603H20.4036C19.7238 47.7214 17.4839 45.9262 14.8313 45.9262C12.1786 45.9262 9.93863 47.7214 9.25888 50.1603H2.5V46.8601H4.63738C5.32775 46.8601 5.88738 46.3004 5.88738 45.6101C5.88738 44.9197 5.32775 44.3601 4.63738 44.3601H2.5V41.3326H53.5695C56.7574 41.3326 61.5 42.3482 61.5 45.1458V45.2847H59.182C58.4916 45.2847 57.932 45.8443 57.932 46.5347C57.932 47.2251 58.4916 47.7847 59.182 47.7847H61.5V48.5898C61.5 49.4558 60.794 50.1603 59.926 50.1603Z" fill="black"/>
<path d="M31.4029 44.4982H25.8896C25.1993 44.4982 24.6396 45.0578 24.6396 45.7482C24.6396 46.4385 25.1993 46.9982 25.8896 46.9982H31.4029C32.0933 46.9982 32.6529 46.4385 32.6529 45.7482C32.6529 45.0578 32.0933 44.4982 31.4029 44.4982Z" fill="black"/>
</g>
<defs>
<clipPath id="clip0_74_1267">
<rect width="64" height="64" fill="white"/>
</clipPath>
</defs>
</svg>
