<svg width="50" height="50" viewBox="0 0 50 50" fill="none" xmlns="http://www.w3.org/2000/svg">
<path d="M36.2305 16.6992V34.2773H13.7695V16.6992H6.83594V38.1836H43.1641V16.6992H36.2305Z" fill="#E95440"/>
<path d="M49.0234 41.1133H48.0469V15.7227C48.0469 13.5688 46.2945 11.8164 44.1406 11.8164H37.207V2.05078C37.207 1.51143 36.7697 1.07422 36.2305 1.07422H13.7695C13.2302 1.07422 12.793 1.51143 12.793 2.05078V11.8164H5.85938C3.70547 11.8164 1.95312 13.5688 1.95312 15.7227V41.1133H0.976562C0.437207 41.1133 0 41.5506 0 42.0898V45.0195C0 47.1734 1.75234 48.9258 3.90625 48.9258H46.0938C48.2477 48.9258 50 47.1734 50 45.0195V42.0898C50 41.5506 49.5627 41.1133 49.0234 41.1133ZM14.7461 3.02734H35.2539V33.3008H14.7461V3.02734ZM3.90625 15.7227C3.90625 14.6457 4.78242 13.7695 5.85938 13.7695H12.793V33.3008H11.8164C11.2771 33.3008 10.8398 33.7381 10.8398 34.2773C10.8398 34.8166 11.2771 35.2539 11.8164 35.2539H38.1836C38.7229 35.2539 39.1602 34.8166 39.1602 34.2773C39.1602 33.7381 38.7229 33.3008 38.1836 33.3008H37.207V13.7695H44.1406C45.2176 13.7695 46.0938 14.6457 46.0938 15.7227V41.1133H3.90625V15.7227ZM48.0469 45.0195C48.0469 46.0965 47.1707 46.9727 46.0938 46.9727H3.90625C2.8293 46.9727 1.95312 46.0965 1.95312 45.0195V43.0664H48.0469V45.0195Z" fill="black"/>
<path d="M26.5264 12.6578C25.5556 12.3146 24.4811 11.8995 23.8726 11.4224C23.3824 11.038 23.5819 9.75049 24.4942 9.47578C25.7146 9.10801 26.5041 9.77598 26.5372 9.80449L26.5265 9.79482L26.5274 9.79385C26.7064 9.95869 26.9441 10.0537 27.1888 10.0537C27.7266 10.0537 28.1653 9.61533 28.1653 9.07715C28.1653 8.81924 28.0608 8.56836 27.8791 8.38672C27.8696 8.37725 27.8594 8.36904 27.8496 8.36006L27.8506 8.35898C27.8094 8.32109 27.1668 7.74297 26.1076 7.50879V6.93359C26.1076 6.39434 25.6703 5.95703 25.131 5.95703C24.5918 5.95703 24.1545 6.39434 24.1545 6.93359V7.54424C24.0807 7.5626 24.0062 7.58291 23.9308 7.60557C22.7955 7.94766 21.9476 8.9166 21.7182 10.1343C21.5076 11.2525 21.8712 12.335 22.6673 12.9593C23.3368 13.4845 24.2663 13.9307 25.8755 14.4994C27.0174 14.903 26.9923 15.8297 26.9284 16.2094C26.8005 16.9697 26.1611 17.7913 25.059 17.7986C24.0073 17.8052 23.6786 17.7533 22.8668 17.2223C22.4155 16.9268 21.8103 17.0535 21.5149 17.5048C21.2197 17.9562 21.3461 18.5613 21.7975 18.8566C22.6887 19.4397 23.3327 19.6553 24.1545 19.7237V20.2296C24.1545 20.7688 24.5918 21.2062 25.131 21.2062C25.6703 21.2062 26.1076 20.7688 26.1076 20.2296V19.6083C27.6473 19.1788 28.6336 17.8473 28.8545 16.5333C29.1443 14.8099 28.2087 13.2525 26.5264 12.6578Z" fill="black"/>
<path d="M18.6523 25.4883H31.3477C31.8869 25.4883 32.3242 25.051 32.3242 24.5117C32.3242 23.9724 31.8869 23.5352 31.3477 23.5352H18.6523C18.113 23.5352 17.6758 23.9724 17.6758 24.5117C17.6758 25.051 18.113 25.4883 18.6523 25.4883Z" fill="black"/>
<path d="M18.6523 30.3711H31.3477C31.8869 30.3711 32.3242 29.9338 32.3242 29.3945C32.3242 28.8553 31.8869 28.418 31.3477 28.418H18.6523C18.113 28.418 17.6758 28.8553 17.6758 29.3945C17.6758 29.9338 18.113 30.3711 18.6523 30.3711Z" fill="black"/>
</svg>
