<svg width="56" height="56" viewBox="0 0 56 56" fill="none" xmlns="http://www.w3.org/2000/svg">
<g clip-path="url(#clip0_84_2224)">
<path fill-rule="evenodd" clip-rule="evenodd" d="M12.2637 18.4638L14.1611 21.744L16.0586 18.4638L19.3387 16.5664L16.0586 14.6691L14.1611 11.3889L12.2637 14.6691L8.98047 16.5664L12.2637 18.4638Z" fill="#E95440"/>
<path fill-rule="evenodd" clip-rule="evenodd" d="M24.2232 13.4785L26.3128 17.0904L28.3993 13.4785L32.0112 11.3919L28.3993 9.30232L26.3128 5.69043L24.2232 9.30232L20.6113 11.3919L24.2232 13.4785Z" fill="#E95440"/>
<path fill-rule="evenodd" clip-rule="evenodd" d="M5.45312 35.0723H16.2207V27.4053H12.3514C10.2618 27.4053 9.00617 28.0191 8.00167 30.0096L5.45312 35.0723Z" fill="#E95440"/>
<path fill-rule="evenodd" clip-rule="evenodd" d="M25.3008 27.4053H34.3848V35.0723H25.3008V27.4053Z" fill="#E95440"/>
<path d="M52.5678 35.0429C51.0133 34.3666 48.9377 33.9786 46.8733 33.9786H45.9131L41.1063 28.3156C39.5215 26.4497 38.4885 26.3529 36.3031 26.3117C36.2962 26.3116 36.2894 26.3115 36.2825 26.3115H12.3511C9.71699 26.3115 8.17392 27.2401 7.02439 29.5177L4.77892 33.9786H2.09825C0.941281 33.9786 0 34.9199 0 36.0768V43.9795C0 45.1365 0.941281 46.0778 2.09825 46.0778H7.98438C8.38173 48.4754 10.4688 50.3097 12.9773 50.3097C15.4859 50.3097 17.5728 48.4753 17.9703 46.0778H37.2485C37.6459 48.4754 39.733 50.3097 42.2415 50.3097C44.75 50.3097 46.837 48.4753 47.2345 46.0778H52.4354C54.4009 46.0778 56.0001 44.4801 56.0001 42.5162V39.5027C56 38.1494 55.4046 36.2772 52.5678 35.0429ZM8.97772 30.5022C9.74313 28.9857 10.5628 28.4989 12.3511 28.4989H36.272C38.0973 28.5333 38.4284 28.5417 39.4389 29.7314L43.0439 33.9786H7.22783L8.97772 30.5022ZM12.9773 48.1223C11.3923 48.1223 10.1026 46.8327 10.1026 45.2476C10.1026 43.6626 11.3923 42.3729 12.9773 42.3729C14.5624 42.3729 15.852 43.6626 15.852 45.2476C15.852 46.8327 14.5624 48.1223 12.9773 48.1223ZM42.2414 48.1223C40.6563 48.1223 39.3667 46.8327 39.3667 45.2476C39.3667 43.6626 40.6563 42.3729 42.2414 42.3729C43.8265 42.3729 45.1161 43.6626 45.1161 45.2476C45.1161 46.8327 43.8265 48.1223 42.2414 48.1223ZM52.4353 43.8904H47.1172C46.5223 41.7564 44.5624 40.1855 42.2414 40.1855C39.9203 40.1855 37.9603 41.7564 37.3656 43.8904H17.8532C17.2583 41.7564 15.2984 40.1855 12.9773 40.1855C10.6563 40.1855 8.6963 41.7564 8.10152 43.8904H2.1875V41.0027H4.0577C4.66178 41.0027 5.15145 40.513 5.15145 39.9089C5.15145 39.3048 4.66178 38.8152 4.0577 38.8152H2.1875V36.1661H46.8733C49.6627 36.1661 53.8125 37.0548 53.8125 39.5027V39.6242H51.7843C51.1802 39.6242 50.6905 40.1139 50.6905 40.718C50.6905 41.322 51.1802 41.8117 51.7843 41.8117H53.8125V42.5162C53.8125 43.2739 53.1948 43.8904 52.4353 43.8904Z" fill="black"/>
<path d="M27.4784 38.936H22.6543C22.0502 38.936 21.5605 39.4257 21.5605 40.0298C21.5605 40.6339 22.0502 41.1235 22.6543 41.1235H27.4784C28.0825 41.1235 28.5721 40.6339 28.5721 40.0298C28.5721 39.4257 28.0825 38.936 27.4784 38.936Z" fill="black"/>
</g>
<defs>
<clipPath id="clip0_84_2224">
<rect width="56" height="56" fill="white"/>
</clipPath>
</defs>
</svg>
