<svg width="102" height="102" viewBox="0 0 102 102" fill="none" xmlns="http://www.w3.org/2000/svg">
<circle cx="51" cy="51" r="45" fill="white"/>
<circle cx="51" cy="51" r="48" stroke="black" stroke-opacity="0.1" stroke-width="6"/>
<path d="M61.1629 49.5823L44.9756 40.3694C43.2585 39.3892 41.5079 40.4612 41.5079 42.3891V61.6218C41.5079 63.2551 42.5712 63.9998 43.5595 63.9998C44.0249 63.9998 44.4991 63.853 44.97 63.5664L61.23 53.6136C62.0474 53.1114 62.5064 52.3682 62.4921 51.574C62.4785 50.7789 61.9947 50.0525 61.1629 49.5823ZM60.1404 51.8358L43.8812 61.7862C43.7718 61.8533 43.6856 61.8868 43.6265 61.9036C43.6106 61.8445 43.5946 61.7535 43.5946 61.6218V42.3899C43.5946 42.1919 43.6305 42.0921 43.6305 42.0674C43.6944 42.0714 43.8062 42.1041 43.9467 42.1839L60.1316 51.3968C60.3312 51.5109 60.3902 51.6099 60.4094 51.5883C60.399 51.6155 60.3312 51.7169 60.1404 51.8358Z" fill="#181A1F"/>
</svg>
