<svg width="48" height="48" viewBox="0 0 48 48" fill="none" xmlns="http://www.w3.org/2000/svg">
<g clip-path="url(#clip0_23_437)">
<path d="M24.87 27.2101H23.13C22.8615 27.2101 22.6039 27.1034 22.4141 26.9136C22.2242 26.7237 22.1175 26.4661 22.1175 26.1976C22.1175 25.9291 22.2242 25.6715 22.4141 25.4817C22.6039 25.2918 22.8615 25.1851 23.13 25.1851H27.135C27.3578 25.2067 27.5826 25.1815 27.7951 25.111C28.0076 25.0406 28.203 24.9265 28.3687 24.776C28.5344 24.6256 28.6669 24.4422 28.7575 24.2375C28.8482 24.0328 28.895 23.8114 28.895 23.5876C28.895 23.3638 28.8482 23.1424 28.7575 22.9377C28.6669 22.7331 28.5344 22.5496 28.3687 22.3992C28.203 22.2487 28.0076 22.1346 27.7951 22.0642C27.5826 21.9937 27.3578 21.9685 27.135 21.9901H25.635V21.1651C25.5965 20.7681 25.4115 20.3997 25.1162 20.1316C24.8209 19.8636 24.4363 19.7151 24.0375 19.7151C23.6387 19.7151 23.2541 19.8636 22.9588 20.1316C22.6634 20.3997 22.4785 20.7681 22.44 21.1651V22.0651C21.4015 22.2425 20.4676 22.8038 19.8235 23.6376C19.1794 24.4713 18.8722 25.5167 18.9628 26.5664C19.0535 27.616 19.5353 28.5933 20.3127 29.3044C21.0901 30.0154 22.1064 30.4083 23.16 30.4051H24.9C25.1685 30.4051 25.4261 30.5118 25.6159 30.7017C25.8058 30.8915 25.9125 31.1491 25.9125 31.4176C25.9125 31.6861 25.8058 31.9437 25.6159 32.1336C25.4261 32.3234 25.1685 32.4301 24.9 32.4301H20.865C20.6422 32.4085 20.4174 32.4337 20.2049 32.5042C19.9924 32.5746 19.797 32.6887 19.6313 32.8392C19.4656 32.9896 19.3331 33.1731 19.2425 33.3777C19.1518 33.5824 19.105 33.8038 19.105 34.0276C19.105 34.2514 19.1518 34.4728 19.2425 34.6775C19.3331 34.8822 19.4656 35.0656 19.6313 35.216C19.797 35.3665 19.9924 35.4806 20.2049 35.551C20.4174 35.6215 20.6422 35.6467 20.865 35.6251H22.365V36.4501C22.4035 36.8471 22.5884 37.2155 22.8838 37.4836C23.1791 37.7516 23.5637 37.9001 23.9625 37.9001C24.3613 37.9001 24.7459 37.7516 25.0412 37.4836C25.3365 37.2155 25.5215 36.8471 25.56 36.4501V35.5501C26.5985 35.3727 27.5324 34.8114 28.1765 33.9777C28.8206 33.1439 29.1278 32.0985 29.0372 31.0488C28.9465 29.9992 28.4647 29.0219 27.6873 28.3109C26.9098 27.5998 25.8936 27.2069 24.84 27.2101H24.87Z" fill="#181A1F"/>
<path d="M30.09 10.6351L29.07 7.12507C28.8767 6.47452 28.4823 5.90196 27.9433 5.48961C27.4043 5.07727 26.7484 4.84637 26.07 4.83007H25.665C25.6636 4.61879 25.704 4.40934 25.7838 4.21371C25.8636 4.01808 25.9813 3.84013 26.13 3.69007C26.268 3.52987 26.4417 3.40434 26.6371 3.32357C26.8325 3.2428 27.0442 3.20906 27.255 3.22507H30.435C31.2877 3.22903 32.1042 3.57056 32.7057 4.17494C33.3073 4.77931 33.645 5.59734 33.645 6.45007C33.6835 6.84705 33.8684 7.21546 34.1638 7.48352C34.4591 7.75159 34.8436 7.90009 35.2425 7.90009C35.6413 7.90009 36.0259 7.75159 36.3212 7.48352C36.6165 7.21546 36.8015 6.84705 36.84 6.45007C36.842 5.60375 36.677 4.76536 36.3545 3.98289C36.032 3.20043 35.5583 2.48927 34.9605 1.89014C34.3628 1.291 33.6527 0.81566 32.871 0.491334C32.0893 0.167007 31.2513 6.5273e-05 30.405 6.75723e-05H27.195C26.5657 -0.00328699 25.9421 0.11829 25.3602 0.357753C24.7782 0.597215 24.2496 0.949799 23.805 1.39507C22.9034 2.2991 22.3965 3.52332 22.395 4.80007H21.99C21.3115 4.81637 20.6557 5.04727 20.1167 5.45961C19.5777 5.87196 19.1832 6.44452 18.99 7.09507L17.97 10.6051C13.6533 12.052 9.99195 14.9869 7.64024 18.8852C5.28852 22.7835 4.39976 27.3911 5.13281 31.8844C5.86586 36.3777 8.17294 40.4638 11.6417 43.4126C15.1104 46.3613 19.5148 47.9803 24.0675 47.9803C28.6202 47.9803 33.0245 46.3613 36.4933 43.4126C39.962 40.4638 42.2691 36.3777 43.0022 31.8844C43.7352 27.3911 42.8465 22.7835 40.4947 18.8852C38.143 14.9869 34.4816 12.052 30.165 10.6051L30.09 10.6351ZM21.99 8.02507H25.995L26.655 10.2901H21.345L21.99 8.02507ZM24 44.8051C20.1699 44.7821 16.4753 43.3851 13.5883 40.8682C10.7012 38.3513 8.81352 34.8817 8.26855 31.0905C7.72358 27.2993 8.55755 23.4385 10.6188 20.2103C12.68 16.982 15.8315 14.6009 19.5 13.5001H28.5C32.1685 14.6009 35.32 16.982 37.3812 20.2103C39.4424 23.4385 40.2764 27.2993 39.7314 31.0905C39.1865 34.8817 37.2988 38.3513 34.4117 40.8682C31.5246 43.3851 27.8301 44.7821 24 44.8051Z" fill="#181A1F"/>
<path d="M37.26 10.7551L38.85 12.3601C39.1527 12.656 39.5592 12.8217 39.9825 12.8217C40.4058 12.8217 40.8123 12.656 41.115 12.3601C41.4145 12.0593 41.5827 11.6521 41.5827 11.2276C41.5827 10.8031 41.4145 10.3959 41.115 10.0951L39.525 8.50508C39.2187 8.23624 38.8215 8.09403 38.4141 8.1073C38.0068 8.12057 37.6197 8.28833 37.3315 8.57654C37.0433 8.86475 36.8755 9.25181 36.8622 9.65919C36.849 10.0666 36.9912 10.4637 37.26 10.7701V10.7551Z" fill="#181A1F"/>
<path d="M39.195 7.23C39.4039 7.23018 39.6107 7.18921 39.8038 7.10943C39.9968 7.02964 40.1722 6.9126 40.32 6.765L41.925 5.16C42.09 5.01517 42.2236 4.83803 42.3174 4.63951C42.4113 4.441 42.4634 4.22535 42.4705 4.00589C42.4777 3.78644 42.4397 3.56785 42.359 3.36365C42.2783 3.15945 42.1565 2.97399 42.0013 2.81873C41.846 2.66347 41.6605 2.54171 41.4563 2.461C41.2521 2.38029 41.0336 2.34233 40.8141 2.34948C40.5946 2.35663 40.379 2.40874 40.1805 2.50257C39.982 2.5964 39.8048 2.72996 39.66 2.895L38.055 4.5C37.8345 4.72435 37.6847 5.00857 37.6244 5.31733C37.5641 5.62609 37.5958 5.94577 37.7157 6.23663C37.8355 6.5275 38.0382 6.77673 38.2986 6.95334C38.5589 7.12995 38.8654 7.22616 39.18 7.23H39.195Z" fill="#181A1F"/>
</g>
<defs>
<clipPath id="clip0_23_437">
<rect width="48" height="48" fill="white"/>
</clipPath>
</defs>
</svg>
