<svg width="48" height="48" viewBox="0 0 48 48" fill="none" xmlns="http://www.w3.org/2000/svg">
<g clip-path="url(#clip0_23_426)">
<path d="M24 47.9999C23.1588 48.0025 22.3315 47.7853 21.6 47.3699L13.59 42.7649C10.8955 41.2127 8.65666 38.9792 7.09804 36.2885C5.53941 33.5978 4.71586 30.5444 4.71002 27.4349V11.4299C4.71995 10.518 4.98704 9.62737 5.4806 8.8605C5.97416 8.09364 6.67413 7.48164 7.50002 7.09488L20.52 0.794881C21.6071 0.26791 22.7995 -0.00585938 24.0075 -0.00585938C25.2156 -0.00585938 26.4079 0.26791 27.495 0.794881L40.5 7.09488C41.317 7.49127 42.0061 8.10927 42.4888 8.8784C42.9715 9.64753 43.2283 10.5368 43.23 11.4449V27.4349C43.2242 30.5444 42.4006 33.5978 40.842 36.2885C39.2834 38.9792 37.0445 41.2127 34.35 42.7649L26.4 47.3549C25.6697 47.7749 24.8425 47.9972 24 47.9999ZM24 3.20988C23.2778 3.21098 22.5651 3.37505 21.915 3.68988L8.83502 9.98988C8.55438 10.1254 8.31879 10.339 8.1565 10.6051C7.9942 10.8711 7.9121 11.1783 7.92002 11.4899V27.4349C7.92459 29.9781 8.59775 32.4754 9.87199 34.6764C11.1462 36.8773 12.9768 38.7046 15.18 39.9749L23.19 44.5649C23.4345 44.7043 23.7111 44.7776 23.9925 44.7776C24.274 44.7776 24.5505 44.7043 24.795 44.5649L32.805 39.9749C35.0083 38.7046 36.8388 36.8773 38.1131 34.6764C39.3873 32.4754 40.0605 29.9781 40.065 27.4349V11.4299C40.0729 11.1183 39.9908 10.8111 39.8285 10.5451C39.6663 10.279 39.4307 10.0654 39.15 9.92988L26.085 3.68988C25.435 3.37505 24.7223 3.21098 24 3.20988Z" fill="#181A1F"/>
<path d="M22.395 30.2999C22.1837 30.3013 21.9742 30.2609 21.7786 30.1811C21.583 30.1013 21.405 29.9836 21.255 29.8349L16.5 25.0199C16.1976 24.7176 16.0278 24.3075 16.0278 23.8799C16.0278 23.4523 16.1976 23.0423 16.5 22.7399C16.8023 22.4376 17.2124 22.2677 17.64 22.2677C18.0676 22.2677 18.4776 22.4376 18.78 22.7399L22.5 26.5199L31.005 19.4999C31.3283 19.3408 31.6958 19.2951 32.0482 19.3702C32.4007 19.4453 32.7176 19.6369 32.948 19.914C33.1783 20.1911 33.3087 20.5377 33.3181 20.8979C33.3276 21.2582 33.2155 21.6111 33 21.8999L23.415 29.9999C23.1189 30.2129 22.7592 30.3187 22.395 30.2999Z" fill="#181A1F"/>
</g>
<defs>
<clipPath id="clip0_23_426">
<rect width="48" height="48" fill="white"/>
</clipPath>
</defs>
</svg>
