<svg width="48" height="48" viewBox="0 0 48 48" fill="none" xmlns="http://www.w3.org/2000/svg">
<g clip-path="url(#clip0_23_446)">
<path d="M44.0597 19.1442L45.4212 16.875H46.5938C47.3704 16.875 48 16.2454 48 15.4688C48 14.6921 47.3704 14.0625 46.5938 14.0625H44.625C44.131 14.0625 43.6733 14.3217 43.4192 14.7453L42.2742 16.6535L40.386 10.0447C39.6425 7.44244 37.233 5.625 34.5267 5.625H13.4733C10.767 5.625 8.35753 7.44244 7.614 10.0447L5.72578 16.6536L4.58081 14.7454C4.32666 14.3217 3.86897 14.0625 3.375 14.0625H1.40625C0.629625 14.0625 0 14.6921 0 15.4688C0 16.2454 0.629625 16.875 1.40625 16.875H2.57878L3.94031 19.1442C1.64006 20.0162 0 22.2415 0 24.8438V35.3438C0 36.1204 0.629625 36.75 1.40625 36.75H3.84375V39.0938C3.84375 40.903 5.31572 42.375 7.125 42.375H10.875C12.6843 42.375 14.1562 40.903 14.1562 39.0938V36.75H33.8438V39.0938C33.8438 40.903 35.3157 42.375 37.125 42.375H40.875C42.6843 42.375 44.1562 40.903 44.1562 39.0938V36.75H46.5938C47.3704 36.75 48 36.1204 48 35.3438V24.8438C48 22.2415 46.3599 20.0162 44.0597 19.1442ZM10.3183 10.8173C10.7186 9.41616 12.016 8.4375 13.4733 8.4375H34.5267C35.984 8.4375 37.2814 9.41616 37.6817 10.8173L39.9482 18.75H37.4523C36.799 15.5445 33.958 13.125 30.5625 13.125C27.167 13.125 24.3261 15.5445 23.6727 18.75H8.05181L10.3183 10.8173ZM26.5847 18.75C27.1651 17.113 28.7291 15.9375 30.5625 15.9375C32.3959 15.9375 33.9599 17.113 34.5403 18.75H26.5847ZM11.3438 39.0938C11.3438 39.3522 11.1335 39.5625 10.875 39.5625H7.125C6.86653 39.5625 6.65625 39.3522 6.65625 39.0938V36.75H11.3438V39.0938ZM19.7812 33.9375V30H28.2188V33.9375H19.7812ZM41.3438 39.0938C41.3438 39.3522 41.1335 39.5625 40.875 39.5625H37.125C36.8665 39.5625 36.6562 39.3522 36.6562 39.0938V36.75H41.3438V39.0938ZM45.1875 33.9375H31.0312V28.5938C31.0312 27.8171 30.4016 27.1875 29.625 27.1875H18.375C17.5984 27.1875 16.9688 27.8171 16.9688 28.5938V33.9375H2.8125V24.8438C2.8125 23.0345 4.28447 21.5625 6.09375 21.5625H6.18159C6.18403 21.5625 6.18638 21.5627 6.18881 21.5627C6.19116 21.5627 6.19341 21.5625 6.19575 21.5625H41.8042C41.8066 21.5625 41.8088 21.5627 41.8112 21.5627C41.8136 21.5627 41.816 21.5625 41.8184 21.5625H41.9062C43.7155 21.5625 45.1875 23.0345 45.1875 24.8438V33.9375Z" fill="#181A1F"/>
<path d="M38.0625 23.5312C35.7363 23.5312 33.8438 25.4238 33.8438 27.75C33.8438 30.0762 35.7363 31.9688 38.0625 31.9688C40.3887 31.9688 42.2812 30.0762 42.2812 27.75C42.2812 25.4238 40.3887 23.5312 38.0625 23.5312ZM38.0625 29.1562C37.2871 29.1562 36.6562 28.5254 36.6562 27.75C36.6562 26.9746 37.2871 26.3438 38.0625 26.3438C38.8379 26.3438 39.4688 26.9746 39.4688 27.75C39.4688 28.5254 38.8379 29.1562 38.0625 29.1562Z" fill="#181A1F"/>
<path d="M9.9375 23.5312C7.61128 23.5312 5.71875 25.4238 5.71875 27.75C5.71875 30.0762 7.61128 31.9688 9.9375 31.9688C12.2637 31.9688 14.1562 30.0762 14.1562 27.75C14.1562 25.4238 12.2637 23.5312 9.9375 23.5312ZM9.9375 29.1562C9.16209 29.1562 8.53125 28.5254 8.53125 27.75C8.53125 26.9746 9.16209 26.3438 9.9375 26.3438C10.7129 26.3438 11.3438 26.9746 11.3438 27.75C11.3438 28.5254 10.7129 29.1562 9.9375 29.1562Z" fill="#181A1F"/>
</g>
<defs>
<clipPath id="clip0_23_446">
<rect width="48" height="48" fill="white"/>
</clipPath>
</defs>
</svg>
