<svg width="120" height="120" viewBox="0 0 120 120" fill="none" xmlns="http://www.w3.org/2000/svg">
<g clip-path="url(#clip0_166_8371)">
<path d="M60 36.9532C58.7055 36.9532 57.6562 35.9037 57.6562 34.6095V31.3479C57.6562 30.0534 58.7055 29.0042 60 29.0042C61.2942 29.0042 62.3438 30.0537 62.3438 31.3479V34.6095C62.3438 35.9037 61.2942 36.9532 60 36.9532Z" fill="#181A1F"/>
<path d="M87.3246 84.5229V58.4048C88.5228 58.3008 89.4631 57.2953 89.4631 56.0702C89.4631 54.776 88.4135 53.7265 87.1193 53.7265H83.7731V46.721H85.1131C86.4073 46.721 87.4568 45.6715 87.4568 44.3773C87.4568 43.0828 86.4073 42.0335 85.1131 42.0335H82.7407L62.3438 8.79891V2.34375C62.3438 1.0493 61.2942 0 60 0C58.7056 0 57.6563 1.0493 57.6563 2.34375V8.79891L37.2593 42.0335H34.887C33.5928 42.0335 32.5432 43.0828 32.5432 44.3773C32.5432 45.6715 33.5928 46.721 34.887 46.721H36.2269V53.7265H32.8807C31.5865 53.7265 30.537 54.776 30.537 56.0702C30.537 57.2953 31.4773 58.301 32.6754 58.4048V84.5229C31.4396 84.5883 30.4575 85.6111 30.4575 86.8634C30.4575 88.1154 31.4396 89.1382 32.6754 89.2038V117.656C32.6754 118.95 33.7249 120 35.0192 120H84.9809C86.2751 120 87.3246 118.95 87.3246 117.656V89.2036C88.5605 89.1382 89.5425 88.1154 89.5425 86.8631C89.5425 85.6111 88.5605 84.5883 87.3246 84.5229ZM60 13.9413L77.2409 42.0333H42.7592L60 13.9413ZM37.3629 78.1207C37.3629 76.5171 38.6674 75.2126 40.271 75.2126C41.8746 75.2126 43.1792 76.5171 43.1792 78.1207V84.5196H37.3629V78.1207ZM82.6371 115.312H76.8209V100.547C76.8209 99.2524 75.7714 98.2029 74.4771 98.2029C73.1829 98.2029 72.1334 99.2524 72.1334 100.547V115.312H62.3438V100.547C62.3438 99.2524 61.2942 98.2029 60 98.2029C58.7056 98.2029 57.6563 99.2524 57.6563 100.547V115.312H47.8667V100.547C47.8667 99.2524 46.8174 98.2029 45.5229 98.2029C44.2287 98.2029 43.1792 99.2524 43.1792 100.547V115.312H37.3629V89.2069H82.6371V115.312ZM57.0919 84.5194V78.1205C57.0919 76.5169 58.3964 75.2123 60 75.2123C61.6036 75.2123 62.9081 76.5169 62.9081 78.1205V84.5194H57.0919ZM82.6371 84.5194H76.8209V78.1205C76.8209 76.5169 78.1254 75.2123 79.729 75.2123C81.3326 75.2123 82.6371 76.5169 82.6371 78.1205V84.5194ZM82.6371 71.1038C81.7409 70.7309 80.7586 70.5248 79.729 70.5248C75.5407 70.5248 72.1334 73.9322 72.1334 78.1205V84.5194H67.5959V78.1205C67.5959 73.9322 64.1885 70.5248 60.0003 70.5248C55.812 70.5248 52.4046 73.9322 52.4046 78.1205V84.5194H47.8671V78.1205C47.8671 73.9322 44.4598 70.5248 40.2715 70.5248C39.2419 70.5248 38.2596 70.7309 37.3634 71.1038V58.4137H49.4145C50.7089 58.4137 51.7582 57.3642 51.7582 56.07C51.7582 54.7758 50.7089 53.7262 49.4145 53.7262H40.9149V46.7208H79.0859V53.7262H70.5863C69.2921 53.7262 68.2425 54.7758 68.2425 56.07C68.2425 57.3642 69.2921 58.4137 70.5863 58.4137H82.6374V71.1038H82.6371Z" fill="#181A1F"/>
<path d="M59.9575 58.4133C58.9499 58.4133 58.0345 57.7456 57.7265 56.7863C57.4237 55.8434 57.7617 54.7751 58.5623 54.188C59.3418 53.6163 60.4059 53.5805 61.222 54.0989C62.0242 54.6085 62.4421 55.5971 62.2546 56.5289C62.0371 57.6099 61.0614 58.4133 59.9575 58.4133Z" fill="#181A1F"/>
</g>
<defs>
<clipPath id="clip0_166_8371">
<rect width="120" height="120" fill="white"/>
</clipPath>
</defs>
</svg>
