<svg width="56" height="56" viewBox="0 0 56 56" fill="none" xmlns="http://www.w3.org/2000/svg">
<g clip-path="url(#clip0_130_6621)">
<path d="M47.5849 25.2857C46.9704 25.2857 46.472 24.7874 46.472 24.1728V17.4406C46.472 17.2639 46.3242 17.1146 46.1493 17.1146H43.0666C42.8917 17.1146 42.7439 17.264 42.7439 17.4406V21.811C42.7439 22.4255 42.2455 22.9239 41.631 22.9239C41.0164 22.9239 40.5181 22.4256 40.5181 21.811V17.4406C40.5181 16.0335 41.6614 14.8888 43.0666 14.8888H46.1493C47.5547 14.8888 48.6978 16.0335 48.6978 17.4406V24.1728C48.6979 24.7874 48.1996 25.2857 47.5849 25.2857Z" fill="black"/>
<path d="M8.41564 26.3904C7.80108 26.3904 7.30273 25.8922 7.30273 25.2775V17.4406C7.30273 16.0335 8.44602 14.8888 9.85124 14.8888H12.934C14.3393 14.8888 15.4825 16.0335 15.4825 17.4406V22.9157C15.4825 23.5302 14.9842 24.0286 14.3696 24.0286C13.755 24.0286 13.2567 23.5304 13.2567 22.9157V17.4406C13.2567 17.2639 13.1089 17.1146 12.934 17.1146H9.85124C9.67636 17.1146 9.52855 17.264 9.52855 17.4406V25.2775C9.52855 25.8922 9.03021 26.3904 8.41564 26.3904V26.3904Z" fill="black"/>
<path fill-rule="evenodd" clip-rule="evenodd" d="M22.7431 32.8487L21.2048 17.9951L14.3695 20.7062L8.41534 23.068L0.82373 26.0772V32.8487H22.7431Z" fill="#E95440"/>
<path fill-rule="evenodd" clip-rule="evenodd" d="M55.1767 32.8487V26.0772L47.585 23.068L41.6309 20.7062L34.7956 17.9983L33.2573 32.8487H55.1767Z" fill="#E95440"/>
<path d="M40.0929 56H15.9078C15.2933 56 14.7949 55.5018 14.7949 54.8871V48.5515C14.7949 48.2458 14.9206 47.9537 15.1425 47.7434L22.4514 40.8204L19.7038 14.2833C19.1839 9.26904 20.1863 4.95064 22.4541 2.43549C23.8908 0.842248 25.8081 0 27.9987 0C30.1908 0 32.1093 0.842469 33.5465 2.4366C35.8142 4.95163 36.8168 9.26959 36.2969 14.2834L33.5494 40.8265L40.8579 47.7431C41.0799 47.9533 41.2058 48.2457 41.2058 48.5515V54.8871C41.2058 55.5018 40.7074 56 40.0929 56ZM17.0207 53.7743H38.9798V49.0307L31.6208 42.0661C31.3697 41.8284 31.2432 41.4872 31.2788 41.1432L34.0828 14.0542C34.5378 9.66597 33.7399 5.97495 31.8935 3.92721C30.8756 2.79829 29.5652 2.22593 27.9987 2.22593C26.4337 2.22593 25.1244 2.79796 24.1072 3.92622C22.2607 5.97417 21.4626 9.66564 21.9178 14.0541L24.7218 41.1368C24.7574 41.4807 24.6312 41.8216 24.3801 42.0595L17.0207 49.0305V53.7743Z" fill="black"/>
<path d="M30.8067 11.7758C30.4691 11.7758 30.1358 11.6229 29.9169 11.3325C29.4617 10.7282 28.763 10.3817 28.0001 10.3817C27.2372 10.3817 26.5387 10.7283 26.0833 11.3325C25.7132 11.8233 25.0158 11.9215 24.5247 11.5516C24.0339 11.1818 23.9358 10.4839 24.3057 9.99308C25.1854 8.82548 26.5319 8.15591 28.0001 8.15591C29.4683 8.15591 30.8149 8.8256 31.6946 9.99308C32.0644 10.4839 31.9663 11.1818 31.4755 11.5516C31.2751 11.7028 31.0399 11.7758 30.8067 11.7758V11.7758Z" fill="black"/>
<path d="M44.4991 44.8671C43.8846 44.8671 43.3862 44.3688 43.3862 43.7541V37.8063C43.3862 37.1917 43.8846 36.6934 44.4991 36.6934C45.1137 36.6934 45.612 37.1916 45.612 37.8063V43.7541C45.612 44.3688 45.1137 44.8671 44.4991 44.8671V44.8671ZM49.6072 42.0533C48.9926 42.0533 48.4943 41.5551 48.4943 40.9404V37.8063C48.4943 37.1917 48.9926 36.6934 49.6072 36.6934C50.2218 36.6934 50.7201 37.1916 50.7201 37.8063V40.9404C50.7201 41.5551 50.2219 42.0533 49.6072 42.0533Z" fill="black"/>
<path d="M11.5014 44.8671C10.8868 44.8671 10.3885 44.3688 10.3885 43.7541V37.8063C10.3885 37.1917 10.8868 36.6934 11.5014 36.6934C12.116 36.6934 12.6143 37.1916 12.6143 37.8063V43.7541C12.6144 44.3688 12.1161 44.8671 11.5014 44.8671V44.8671ZM6.39025 42.0533C5.77569 42.0533 5.27734 41.5551 5.27734 40.9404V37.8063C5.27734 37.1917 5.77569 36.6934 6.39025 36.6934C7.00481 36.6934 7.50316 37.1916 7.50316 37.8063V40.9404C7.50316 41.5551 7.00481 42.0533 6.39025 42.0533V42.0533Z" fill="black"/>
<path d="M27.9987 51.5231C27.3841 51.5231 26.8857 51.0248 26.8857 50.4102V44.6738C26.8857 44.0593 27.3841 43.5609 27.9987 43.5609C28.6132 43.5609 29.1116 44.0592 29.1116 44.6738V50.4102C29.1117 51.0248 28.6133 51.5231 27.9987 51.5231Z" fill="black"/>
</g>
<defs>
<clipPath id="clip0_130_6621">
<rect width="56" height="56" fill="white"/>
</clipPath>
</defs>
</svg>
