<svg width="56" height="56" viewBox="0 0 56 56" fill="none" xmlns="http://www.w3.org/2000/svg">
<path d="M28.0002 18.4072C20.7374 18.4072 14.8496 24.2889 14.8496 31.5445C14.8496 38.8001 20.7374 44.6819 28.0002 44.6819C35.263 44.6819 41.1508 38.8001 41.1508 31.5445C41.1508 24.2889 35.263 18.4072 28.0002 18.4072ZM28.0002 34.1295C26.5711 34.1295 25.4126 32.9721 25.4126 31.5444C25.4126 30.1167 26.5711 28.9593 28.0002 28.9593C29.4293 28.9593 30.5878 30.1166 30.5878 31.5444C30.5878 32.9722 29.4293 34.1295 28.0002 34.1295Z" fill="#E95440"/>
<path d="M46.6794 15.7357L48.0446 14.3718L48.9567 15.283C49.1702 15.4962 49.45 15.6029 49.7296 15.6029C50.0098 15.6029 50.2899 15.4959 50.5034 15.2821C50.9302 14.8548 50.9299 14.1622 50.5026 13.7353L47.1323 10.3685C46.705 9.94164 46.0123 9.94186 45.5855 10.3693C45.1586 10.7966 45.159 11.4892 45.5863 11.9161L46.4968 12.8258L45.1889 14.1323C41.4801 10.4767 36.8082 8.14395 31.7477 7.37177C32.3097 6.60472 32.6418 5.65939 32.6418 4.63805C32.642 2.08064 30.5596 0 28.0001 0C25.4406 0 23.3583 2.08064 23.3583 4.63827C23.3583 5.65961 23.6904 6.60483 24.2524 7.37198C19.249 8.13542 14.6255 10.4243 10.9372 14.0091L9.75275 12.8259L10.6633 11.9162C11.0906 11.4893 11.0909 10.7967 10.6642 10.3694C10.2373 9.94208 9.54472 9.94164 9.11728 10.3686L5.747 13.7354C5.31967 14.1623 5.31934 14.8549 5.74612 15.2822C5.95973 15.496 6.23984 15.603 6.51995 15.603C6.79973 15.603 7.0794 15.4964 7.2929 15.2831L8.20509 14.3719L9.43589 15.6015C5.60864 20.0353 3.521 25.6296 3.521 31.5446C3.521 38.0772 6.06736 44.2186 10.6912 48.8377C15.3147 53.4564 21.4618 56 28.0001 56C34.5384 56 40.6855 53.4564 45.309 48.8376C49.9327 44.2186 52.4792 38.077 52.4792 31.5445C52.4792 25.6891 50.4334 20.148 46.6794 15.7357ZM25.5458 4.63827C25.5458 3.28694 26.6468 2.1875 28.0001 2.1875C29.3534 2.1875 30.4545 3.28694 30.4545 4.63827C30.4545 5.98959 29.3534 7.08892 28.0001 7.08892C26.6468 7.08892 25.5458 5.98959 25.5458 4.63827ZM28.0001 53.8125C15.7084 53.8125 5.7085 43.8231 5.7085 31.5445C5.7085 19.266 15.7084 9.27642 28.0001 9.27642C40.2918 9.27642 50.2917 19.2659 50.2917 31.5445C50.2917 43.8232 40.2918 53.8125 28.0001 53.8125Z" fill="black"/>
<path d="M28 14.9495C28.604 14.9495 29.0938 14.4598 29.0938 13.8557V12.8947C29.0938 12.2906 28.604 11.8009 28 11.8009C27.3959 11.8009 26.9062 12.2906 26.9062 12.8947V13.8557C26.9062 14.4598 27.3959 14.9495 28 14.9495Z" fill="black"/>
<path d="M28 48.1394C27.3959 48.1394 26.9062 48.6291 26.9062 49.2332V50.1943C26.9062 50.7983 27.3959 51.288 28 51.288C28.604 51.288 29.0938 50.7983 29.0938 50.1943V49.2332C29.0938 48.6291 28.604 48.1394 28 48.1394Z" fill="black"/>
<path d="M46.65 30.4508H45.689C45.085 30.4508 44.5952 30.9404 44.5952 31.5445C44.5952 32.1486 45.085 32.6383 45.689 32.6383H46.65C47.254 32.6383 47.7438 32.1486 47.7438 31.5445C47.7438 30.9404 47.254 30.4508 46.65 30.4508Z" fill="black"/>
<path d="M10.3112 30.4508H9.3501C8.74613 30.4508 8.25635 30.9404 8.25635 31.5445C8.25635 32.1486 8.74613 32.6383 9.3501 32.6383H10.3112C10.9151 32.6383 11.4049 32.1486 11.4049 31.5445C11.4049 30.9404 10.9153 30.4508 10.3112 30.4508Z" fill="black"/>
<path d="M40.4141 17.5837L39.7345 18.2632C39.3073 18.6903 39.3073 19.3829 39.7344 19.81C39.948 20.0236 40.2279 20.1304 40.5078 20.1304C40.7877 20.1304 41.0676 20.0235 41.2811 19.81L41.9607 19.1304C42.3879 18.7033 42.3879 18.0108 41.9608 17.5837C41.5337 17.1566 40.8413 17.1566 40.4141 17.5837Z" fill="black"/>
<path d="M14.7188 43.2789L14.0392 43.9585C13.612 44.3856 13.612 45.0781 14.0391 45.5052C14.2527 45.7189 14.5326 45.8256 14.8125 45.8256C15.0923 45.8256 15.3722 45.7187 15.5857 45.5052L16.2654 44.8257C16.6926 44.3986 16.6926 43.706 16.2655 43.2789C15.8385 42.8519 15.1459 42.8518 14.7188 43.2789Z" fill="black"/>
<path d="M41.2812 43.2789C40.8542 42.8518 40.1615 42.8518 39.7344 43.2789C39.3073 43.706 39.3073 44.3986 39.7345 44.8257L40.4141 45.5052C40.6276 45.7189 40.9075 45.8256 41.1874 45.8256C41.4673 45.8256 41.7473 45.7187 41.9608 45.5052C42.3879 45.0781 42.3879 44.3856 41.9607 43.9585L41.2812 43.2789Z" fill="black"/>
<path d="M15.5858 17.5837C15.1588 17.1566 14.4662 17.1566 14.0391 17.5838C13.612 18.0109 13.612 18.7035 14.0392 19.1306L14.7188 19.8101C14.9323 20.0237 15.2122 20.1305 15.4921 20.1305C15.7721 20.1305 16.052 20.0236 16.2655 19.8101C16.6926 19.383 16.6926 18.6904 16.2654 18.2633L15.5858 17.5837Z" fill="black"/>
<path d="M32.138 25.465L29.4845 28.1781C29.0303 27.9772 28.528 27.8656 28.0002 27.8656C25.9702 27.8656 24.3188 29.5158 24.3188 31.5444C24.3188 33.5729 25.9703 35.2231 28.0002 35.2231C30.0301 35.2231 31.6815 33.5729 31.6815 31.5444C31.6815 30.8388 31.4817 30.179 31.1356 29.6184L33.7019 26.9944C34.1242 26.5625 34.1166 25.87 33.6847 25.4476C33.2528 25.0255 32.5603 25.0333 32.138 25.465ZM28.0002 33.0357C27.1765 33.0357 26.5063 32.3668 26.5063 31.5445C26.5063 30.7222 27.1765 30.0532 28.0002 30.0532C28.8239 30.0532 29.494 30.7222 29.494 31.5445C29.494 32.3668 28.8239 33.0357 28.0002 33.0357Z" fill="black"/>
</svg>
