<svg width="14" height="14" viewBox="0 0 14 14" fill="none" xmlns="http://www.w3.org/2000/svg">
<g clip-path="url(#clip0_552_6064)">
<path d="M11.952 2.04827C9.22069 -0.682432 4.77886 -0.682432 2.04758 2.04827C-0.682526 4.77898 -0.682526 9.22196 2.04758 11.9527C3.41322 13.3177 5.20663 13.9999 7.00007 13.9999C8.79352 13.9999 10.5863 13.3177 11.952 11.9527C14.6827 9.22199 14.6827 4.77898 11.952 2.04827ZM9.88833 9.06381C10.1165 9.29199 10.1165 9.66084 9.88833 9.88902C9.77452 10.0028 9.62513 10.06 9.47571 10.06C9.32631 10.06 9.17689 10.0028 9.06309 9.88902L7.00005 7.82538L4.93758 9.88842C4.8232 10.0022 4.67378 10.0594 4.52496 10.0594C4.37557 10.0594 4.22615 10.0022 4.11234 9.88842C3.88416 9.66024 3.88416 9.29082 4.11234 9.06321L6.17481 7.00017L4.11177 4.93713C3.88359 4.70895 3.88359 4.33952 4.11177 4.11192C4.33937 3.88374 4.7088 3.88374 4.93698 4.11192L7.00002 6.17496L9.06306 4.11192C9.29124 3.88374 9.66009 3.88374 9.88827 4.11192C10.1165 4.33952 10.1165 4.70895 9.88827 4.93713L7.82523 7.00017L9.88833 9.06381Z" fill="#181A1F"/>
</g>
<defs>
<clipPath id="clip0_552_6064">
<rect width="14" height="14" fill="white"/>
</clipPath>
</defs>
</svg>
