<svg width="22" height="22" viewBox="0 0 22 22" fill="none" xmlns="http://www.w3.org/2000/svg">
<g clip-path="url(#clip0_112_3107)">
<path d="M0.859375 7.13281H13.9272C14.323 8.97241 15.9619 10.3555 17.918 10.3555C20.1688 10.3555 22 8.52426 22 6.27344C22 4.02261 20.1688 2.19141 17.918 2.19141C15.9619 2.19141 14.323 3.57446 13.9272 5.41406H0.859375C0.384705 5.41406 0 5.79877 0 6.27344C0 6.74811 0.384705 7.13281 0.859375 7.13281ZM17.918 3.91016C19.2211 3.91016 20.2812 4.97028 20.2812 6.27344C20.2812 7.5766 19.2211 8.63672 17.918 8.63672C16.6148 8.63672 15.5547 7.5766 15.5547 6.27344C15.5547 4.97028 16.6148 3.91016 17.918 3.91016ZM21.1406 14.8672H8.07275C7.67697 13.0276 6.03812 11.6445 4.08203 11.6445C1.83121 11.6445 0 13.4757 0 15.7266C0 17.9774 1.83121 19.8086 4.08203 19.8086C6.03812 19.8086 7.67697 18.4255 8.07275 16.5859H21.1406C21.6153 16.5859 22 16.2012 22 15.7266C22 15.2519 21.6153 14.8672 21.1406 14.8672ZM4.08203 18.0898C2.77887 18.0898 1.71875 17.0297 1.71875 15.7266C1.71875 14.4234 2.77887 13.3633 4.08203 13.3633C5.38519 13.3633 6.44531 14.4234 6.44531 15.7266C6.44531 17.0297 5.38519 18.0898 4.08203 18.0898Z" fill="#181A1F"/>
</g>
<defs>
<clipPath id="clip0_112_3107">
<rect width="22" height="22" fill="white"/>
</clipPath>
</defs>
</svg>
