<svg width="14" height="14" viewBox="0 0 14 14" fill="none" xmlns="http://www.w3.org/2000/svg">
<g clip-path="url(#clip0_552_6055)">
<path d="M6.99998 0.583252C5.73089 0.583252 4.49029 0.959583 3.43507 1.66466C2.37986 2.36973 1.55742 3.37187 1.07176 4.54437C0.586093 5.71686 0.459022 7.00704 0.70661 8.25175C0.954199 9.49646 1.56533 10.6398 2.46271 11.5372C3.3601 12.4346 4.50344 13.0457 5.74815 13.2933C6.99286 13.5409 8.28304 13.4138 9.45553 12.9281C10.628 12.4425 11.6302 11.62 12.3352 10.5648C13.0403 9.50961 13.4166 8.26902 13.4166 6.99992C13.4146 5.29873 12.738 3.66779 11.535 2.46487C10.3321 1.26194 8.70117 0.585259 6.99998 0.583252ZM9.1624 9.16234C9.05301 9.27169 8.90466 9.33313 8.74998 9.33313C8.5953 9.33313 8.44696 9.27169 8.33757 9.16234L6.58757 7.41234C6.47816 7.30296 6.41668 7.15462 6.41665 6.99992V3.49992C6.41665 3.34521 6.47811 3.19684 6.5875 3.08744C6.6969 2.97804 6.84527 2.91659 6.99998 2.91659C7.15469 2.91659 7.30306 2.97804 7.41246 3.08744C7.52186 3.19684 7.58332 3.34521 7.58332 3.49992V6.75842L9.1624 8.3375C9.27176 8.44689 9.33319 8.59524 9.33319 8.74992C9.33319 8.9046 9.27176 9.05294 9.1624 9.16234Z" fill="#181A1F"/>
</g>
<defs>
<clipPath id="clip0_552_6055">
<rect width="14" height="14" fill="white"/>
</clipPath>
</defs>
</svg>
