<svg width="40" height="40" viewBox="0 0 40 40" fill="none" xmlns="http://www.w3.org/2000/svg">
<g clip-path="url(#clip0_112_3034)">
<path d="M20 32C27.732 32 34 25.732 34 18C34 10.268 27.732 4 20 4C12.268 4 6 10.268 6 18C6 25.732 12.268 32 20 32Z" fill="#E95440"/>
<path d="M32.5093 5.18145C29.168 1.84016 24.7254 0 20 0C15.2746 0 10.832 1.84016 7.49073 5.18145C4.14936 8.5229 2.3092 12.9654 2.3092 17.6908C2.3092 26.0273 8.13731 33.2245 16.2338 34.9784L20 40L23.7663 34.9783C31.8627 33.2244 37.6908 26.0273 37.6908 17.6908C37.6908 12.9654 35.8507 8.5229 32.5093 5.18145ZM20 4.6184C27.165 4.6184 32.9941 10.4476 32.9941 17.6125C32.9941 24.7775 27.165 30.6067 20 30.6067C12.835 30.6067 7.00588 24.7775 7.00588 17.6125C7.00588 10.4476 12.835 4.6184 20 4.6184Z" fill="#E95440"/>
</g>
<defs>
<clipPath id="clip0_112_3034">
<rect width="40" height="40" fill="white"/>
</clipPath>
</defs>
</svg>
