<svg width="14" height="14" viewBox="0 0 14 14" fill="none" xmlns="http://www.w3.org/2000/svg">
<path d="M9.275 1.16674C9.02507 0.917762 8.68668 0.777931 8.33389 0.777855H5.66611C5.49065 0.776823 5.31674 0.81062 5.15443 0.877289C4.99213 0.943958 4.84468 1.04217 4.72061 1.16624C4.59654 1.29031 4.49832 1.43777 4.43166 1.60007C4.36499 1.76237 4.33119 1.93629 4.33222 2.11174V3.88897H5.22278V2.11174C5.22226 2.05338 5.23337 1.9955 5.25547 1.94148C5.27756 1.88745 5.3102 1.83837 5.35147 1.7971C5.39274 1.75583 5.44182 1.7232 5.49584 1.7011C5.54986 1.679 5.60775 1.66789 5.66611 1.66841H8.33389C8.3917 1.66788 8.44902 1.67896 8.50247 1.70101C8.55591 1.72305 8.60438 1.75561 8.645 1.79674C8.68713 1.83763 8.72056 1.88661 8.74328 1.94074C8.76601 1.99487 8.77755 2.05304 8.77722 2.11174V3.88897H9.66778V2.11174C9.66685 1.75722 9.52564 1.41748 9.275 1.16674Z" fill="#181A1F"/>
<path fill-rule="evenodd" clip-rule="evenodd" d="M10.6089 5.16455C10.359 4.91556 10.0206 4.77573 9.66778 4.77566H4.33222C4.15676 4.77463 3.98285 4.80842 3.82055 4.87509C3.65825 4.94176 3.51079 5.03997 3.38672 5.16404C3.26265 5.28811 3.16444 5.43557 3.09777 5.59787C3.0311 5.76017 2.9973 5.93409 2.99833 6.10955V11.8884C2.99833 12.2422 3.13887 12.5815 3.38902 12.8316C3.63917 13.0818 3.97845 13.2223 4.33222 13.2223H9.66778C10.0215 13.2223 10.3608 13.0818 10.611 12.8316C10.8611 12.5815 11.0017 12.2422 11.0017 11.8884V6.10955C11.0007 5.75502 10.8595 5.41528 10.6089 5.16455ZM5.66611 11.4451H4.77944V6.55677H5.67L5.66611 11.4451ZM7.44333 11.4451H6.55667V6.55677H7.44722L7.44333 11.4451ZM9.22055 11.4451H8.33389V6.55677H9.22444L9.22055 11.4451Z" fill="black"/>
</svg>
