<svg width="14" height="16" viewBox="0 0 14 16" fill="none" xmlns="http://www.w3.org/2000/svg">
<path d="M13.7732 13.5947C13.7732 13.5947 11.9974 10.5426 11.6788 9.9952C12.0412 9.88464 12.4273 9.78701 12.5877 9.51002C12.8551 9.04849 12.3792 8.29138 12.5042 7.79669C12.6329 7.28756 13.3928 6.847 13.3928 6.32948C13.3928 5.82527 12.6072 5.23623 12.4783 4.73008C12.3525 4.23548 12.827 3.47755 12.5588 3.01658C12.2906 2.55557 11.3972 2.59345 11.0295 2.23958C10.6511 1.87543 10.6522 0.984456 10.1959 0.740417C9.73762 0.495471 8.99288 0.990509 8.48409 0.873246C7.9811 0.757324 7.53172 0 7.00633 0C6.47315 0 5.62512 0.859064 5.49211 0.889979C4.98359 1.00819 4.23789 0.514366 3.78013 0.76035C3.32418 1.00521 3.32699 1.89627 2.9493 2.26103C2.58216 2.61554 1.68876 2.57931 1.42138 3.04084C1.15403 3.50228 1.62992 4.25922 1.505 4.75417C1.37974 5.25037 0.593401 5.75315 0.593401 6.32701C0.593401 6.84458 1.35518 7.28375 1.48468 7.79263C1.61054 8.28723 1.13609 9.04508 1.4043 9.50622C1.55031 9.75722 1.88161 9.86025 2.21247 9.95931C2.25108 9.97086 2.32411 10.0141 2.27465 10.0861C2.04829 10.4768 0.226435 13.6211 0.226435 13.6211C0.0814991 13.8712 0.199194 14.0856 0.487898 14.0977L1.90106 14.1567C2.18977 14.1688 2.55193 14.3786 2.70604 14.623L3.46012 15.8196C3.61422 16.064 3.85873 16.0595 4.00363 15.8094C4.00363 15.8094 6.11354 12.1667 6.1144 12.1657C6.15673 12.1162 6.19928 12.1264 6.21965 12.1437C6.4505 12.3402 6.77232 12.5363 7.04092 12.5363C7.30433 12.5363 7.54824 12.3517 7.78951 12.1459C7.80914 12.1292 7.85692 12.0949 7.89186 12.166C7.89242 12.1672 10 15.7899 10 15.7899C10.1453 16.0396 10.3898 16.0439 10.5435 15.7992L11.2954 14.6011C11.4491 14.3565 11.8109 14.1459 12.0996 14.1333L13.5126 14.0718C13.8012 14.0591 13.9185 13.8444 13.7732 13.5947ZM9.34177 10.3181C7.7793 11.2271 5.90383 11.1297 4.47134 10.2261C2.37232 8.88159 1.68167 6.10031 2.9435 3.92243C4.21973 1.71943 7.02518 0.942082 9.24803 2.15272C9.25971 2.15907 9.27125 2.16565 9.28284 2.17213C9.29931 2.18126 9.31574 2.19051 9.33213 2.19985C10.0179 2.59522 10.6126 3.16904 11.0384 3.90094C12.3398 6.13793 11.5787 9.01667 9.34177 10.3181Z" fill="#181A1F"/>
<path d="M8.98443 2.8581C8.97795 2.85433 8.97137 2.85083 8.96489 2.84711C7.77747 2.15988 6.26403 2.10964 4.99563 2.84759C3.11337 3.94265 2.47288 6.36483 3.56794 8.24705C3.90208 8.82143 4.35998 9.27993 4.88827 9.60898C4.93319 9.63743 4.97864 9.6654 5.02508 9.6923C6.90937 10.7839 9.33025 10.1391 10.4219 8.25488C11.5134 6.37058 10.8687 3.94974 8.98443 2.8581ZM9.45582 5.93846L8.79604 6.58154C8.5917 6.7807 8.46397 7.17382 8.51227 7.45509L8.66801 8.36315C8.71627 8.64441 8.54911 8.76587 8.29651 8.63308L7.48098 8.20433C7.22838 8.07154 6.81507 8.07154 6.56247 8.20433L5.74699 8.63308C5.49439 8.76587 5.32718 8.64441 5.37544 8.36315L5.53118 7.45509C5.57944 7.17382 5.45171 6.7807 5.24736 6.58154L4.58763 5.93846C4.38324 5.7393 4.44715 5.54274 4.72954 5.50166L5.64127 5.36918C5.92366 5.32814 6.25807 5.08519 6.38437 4.8293L6.79211 4.00314C6.91841 3.74725 7.12509 3.74725 7.25134 4.00314L7.65913 4.8293C7.78543 5.08519 8.11979 5.32814 8.40222 5.36918L9.31395 5.50166C9.5963 5.54274 9.66016 5.7393 9.45582 5.93846Z" fill="#181A1F"/>
</svg>
