<svg width="14" height="14" viewBox="0 0 14 14" fill="none" xmlns="http://www.w3.org/2000/svg">
<path fill-rule="evenodd" clip-rule="evenodd" d="M5.28606 0.463849C5.93302 0.46385 6.56544 0.655693 7.10331 1.0151C7.64118 1.37452 8.06032 1.88535 8.3077 2.48296C8.55508 3.08057 8.61958 3.73811 8.49305 4.37238C8.36651 5.00666 8.05463 5.58915 7.59685 6.04618C7.13908 6.5032 6.55598 6.81421 5.92135 6.93986C5.28671 7.0655 4.62906 7.00014 4.0316 6.75203C3.43413 6.50393 2.92371 6.08423 2.56491 5.54605C2.20611 5.00787 2.01505 4.37538 2.01592 3.72862C2.01592 2.86159 2.36045 2.03007 2.97372 1.41698C3.58699 0.8039 4.41877 0.459473 5.28606 0.459473V0.463849Z" fill="#E8EDED"/>
<path fill-rule="evenodd" clip-rule="evenodd" d="M10.0709 12.3325C10.1129 12.4705 10.1223 12.6164 10.0984 12.7586C10.0745 12.9009 10.0178 13.0356 9.93297 13.1523C9.8481 13.2689 9.73731 13.3643 9.60932 13.4309C9.48132 13.4975 9.33962 13.5335 9.19535 13.536H1.40304C1.25877 13.5335 1.11706 13.4975 0.989071 13.4309C0.861077 13.3643 0.750287 13.2689 0.66542 13.1523C0.580553 13.0356 0.523925 12.9009 0.499992 12.7586C0.476059 12.6164 0.485474 12.4705 0.527497 12.3325L0.965267 10.8621C1.13848 10.2852 1.49309 9.77953 1.97649 9.42005C2.45988 9.06057 3.04632 8.86644 3.6488 8.86646H6.94959C7.55207 8.86644 8.1385 9.06057 8.6219 9.42005C9.1053 9.77953 9.45991 10.2852 9.63312 10.8621L10.0709 12.3325Z" fill="#E8EDED"/>
<path fill-rule="evenodd" clip-rule="evenodd" d="M8.72693 0.463867C9.37371 0.463867 10.006 0.655599 10.5437 1.01482C11.0815 1.37404 11.5006 1.88461 11.7482 2.48197C11.9957 3.07932 12.0604 3.73664 11.9342 4.37079C11.8081 5.00494 11.4966 5.58745 11.0393 6.04465C10.5819 6.50185 9.99925 6.8132 9.36491 6.93934C8.73056 7.06548 8.07304 7.00074 7.4755 6.75331C6.87796 6.50588 6.36723 6.08686 6.00791 5.54925C5.64858 5.01164 5.45679 4.37959 5.45679 3.73301C5.45679 2.86598 5.80132 2.03446 6.41459 1.42138C7.02786 0.808294 7.85964 0.463867 8.72693 0.463867Z" fill="#181A1F"/>
<path fill-rule="evenodd" clip-rule="evenodd" d="M13.503 12.3325C13.545 12.4705 13.5544 12.6164 13.5305 12.7586C13.5066 12.9009 13.45 13.0356 13.3651 13.1523C13.2802 13.2689 13.1694 13.3643 13.0414 13.4309C12.9134 13.4975 12.7717 13.5335 12.6275 13.536H4.84829C4.70402 13.5335 4.56232 13.4975 4.43432 13.4309C4.30633 13.3643 4.19554 13.2689 4.11067 13.1523C4.02581 13.0356 3.96918 12.9009 3.94524 12.7586C3.92131 12.6164 3.93073 12.4705 3.97275 12.3325L4.41052 10.8621C4.58373 10.2852 4.93834 9.77953 5.42174 9.42005C5.90514 9.06057 6.49157 8.86644 7.09405 8.86646H10.3948C10.9973 8.86644 11.5838 9.06057 12.0672 9.42005C12.5506 9.77953 12.9052 10.2852 13.0784 10.8621L13.5161 12.3325H13.503Z" fill="#181A1F"/>
<path d="M12.61 14H4.84835C4.62976 14.0003 4.41412 13.9496 4.21868 13.8517C4.02324 13.7538 3.85342 13.6116 3.72281 13.4363C3.5922 13.2611 3.50443 13.0578 3.4665 12.8425C3.42857 12.6273 3.44155 12.4062 3.5044 12.1969L3.94217 10.7265C4.14129 10.0519 4.55413 9.46013 5.1186 9.04026C5.68307 8.62039 6.36865 8.39509 7.07223 8.39825H10.373C11.0766 8.39509 11.7622 8.62039 12.3266 9.04026C12.8911 9.46013 13.304 10.0519 13.5031 10.7265L13.9408 12.1969C14.0034 12.4052 14.0166 12.6251 13.9793 12.8393C13.9421 13.0535 13.8555 13.2561 13.7264 13.4311C13.5972 13.606 13.4291 13.7485 13.2354 13.8473C13.0416 13.946 12.8275 13.9983 12.61 14ZM7.0766 9.33042C6.57384 9.32789 6.08385 9.48869 5.68041 9.78861C5.27696 10.0885 4.98188 10.5114 4.8396 10.9934L4.40183 12.4639C4.38169 12.5327 4.37764 12.6053 4.38999 12.6759C4.40234 12.7466 4.43076 12.8135 4.47306 12.8714C4.51537 12.9293 4.57042 12.9768 4.63397 13.0101C4.69752 13.0434 4.76787 13.0616 4.8396 13.0635H12.61C12.6817 13.0616 12.7521 13.0434 12.8157 13.0101C12.8792 12.9768 12.9343 12.9293 12.9766 12.8714C13.0189 12.8135 13.0473 12.7466 13.0596 12.6759C13.072 12.6053 13.0679 12.5327 13.0478 12.4639L12.61 10.9934C12.4677 10.5114 12.1727 10.0885 11.7692 9.78861C11.3658 9.48869 10.8758 9.32789 10.373 9.33042H7.0766ZM2.33555 14H1.4031C1.18451 14.0003 0.968868 13.9496 0.773428 13.8517C0.577988 13.7538 0.408171 13.6116 0.277561 13.4363C0.146951 13.2611 0.0591727 13.0578 0.0212464 12.8425C-0.0166798 12.6273 -0.00370116 12.4062 0.0591443 12.1969L0.496915 10.7265C0.696242 10.0511 1.10974 9.45888 1.6751 9.03894C2.24045 8.619 2.92703 8.39414 3.63135 8.39825C3.69637 8.39194 3.76199 8.3993 3.824 8.41986C3.88601 8.44041 3.94303 8.4737 3.9914 8.5176C4.03977 8.56149 4.07843 8.61501 4.10488 8.67473C4.13133 8.73444 4.145 8.79902 4.145 8.86433C4.145 8.92964 4.13133 8.99422 4.10488 9.05394C4.07843 9.11365 4.03977 9.16718 3.9914 9.21107C3.94303 9.25496 3.88601 9.28825 3.824 9.30881C3.76199 9.32936 3.69637 9.33672 3.63135 9.33042C3.12858 9.32789 2.6386 9.48869 2.23515 9.78861C1.83171 10.0885 1.53663 10.5114 1.39434 10.9934L0.956574 12.4639C0.936434 12.5327 0.932384 12.6053 0.944735 12.6759C0.957086 12.7466 0.98551 12.8135 1.02781 12.8714C1.07011 12.9293 1.12516 12.9768 1.18871 13.0101C1.25226 13.0434 1.32262 13.0616 1.39434 13.0635H2.33555C2.40057 13.0572 2.46619 13.0645 2.5282 13.0851C2.59021 13.1056 2.64723 13.1389 2.6956 13.1828C2.74397 13.2267 2.78263 13.2802 2.80908 13.3399C2.83553 13.3996 2.8492 13.4642 2.8492 13.5295C2.8492 13.5948 2.83553 13.6594 2.80908 13.7191C2.78263 13.7789 2.74397 13.8324 2.6956 13.8763C2.64723 13.9202 2.59021 13.9535 2.5282 13.974C2.46619 13.9946 2.40057 14.0019 2.33555 13.9956V14ZM8.727 7.46608C7.98845 7.46608 7.26648 7.24714 6.6524 6.83695C6.03831 6.42676 5.5597 5.84374 5.27706 5.16162C4.99443 4.47949 4.92048 3.7289 5.06457 3.00476C5.20865 2.28062 5.5643 1.61546 6.08653 1.09338C6.60877 0.571309 7.27414 0.215771 7.9985 0.071731C8.72286 -0.0723092 9.47368 0.00161746 10.156 0.284162C10.8383 0.566707 11.4215 1.04518 11.8319 1.65908C12.2422 2.27297 12.4612 2.99472 12.4612 3.73304C12.46 4.72275 12.0662 5.67159 11.3662 6.37142C10.6661 7.07125 9.71701 7.46492 8.727 7.46608ZM8.727 0.932168C8.17287 0.932168 7.63118 1.09644 7.17044 1.4042C6.7097 1.71196 6.35059 2.1494 6.13854 2.66119C5.92648 3.17299 5.871 3.73615 5.9791 4.27947C6.08721 4.82278 6.35405 5.32185 6.74588 5.71356C7.1377 6.10527 7.63693 6.37203 8.18041 6.4801C8.72389 6.58817 9.28722 6.5327 9.79917 6.32071C10.3111 6.10872 10.7487 5.74973 11.0566 5.28912C11.3644 4.82852 11.5287 4.287 11.5287 3.73304C11.5287 2.9898 11.2337 2.27694 10.7084 1.75098C10.1831 1.22502 9.47047 0.928951 8.727 0.927791V0.932168ZM4.66887 7.40919H4.58131C3.72859 7.24452 2.95981 6.78821 2.40699 6.11859C1.85417 5.44897 1.5518 4.60783 1.5518 3.73961C1.5518 2.87138 1.85417 2.03025 2.40699 1.36063C2.95981 0.691009 3.72859 0.234689 4.58131 0.0700236C4.70061 0.0529225 4.82191 0.0824472 4.91999 0.152459C5.01808 0.22247 5.08539 0.327581 5.10794 0.445934C5.13049 0.564288 5.10654 0.686777 5.04107 0.787931C4.9756 0.889086 4.87365 0.961122 4.75642 0.989061C4.11432 1.10963 3.53455 1.45075 3.11739 1.95341C2.70023 2.45606 2.47191 3.08866 2.47191 3.7418C2.47191 4.39493 2.70023 5.02753 3.11739 5.53019C3.53455 6.03285 4.11432 6.37396 4.75642 6.49453C4.86029 6.52525 4.9503 6.59101 5.01113 6.68061C5.07195 6.77021 5.09984 6.87812 5.09003 6.98596C5.08022 7.0938 5.03333 7.19491 4.95734 7.27208C4.88135 7.34925 4.78095 7.3977 4.67324 7.40919H4.66887Z" fill="#181A1F"/>
</svg>
