<svg width="24" height="24" viewBox="0 0 24 24" fill="none" xmlns="http://www.w3.org/2000/svg">
<path d="M14.4669 12.6692C13.4118 12.6692 12.3804 12.3563 11.5032 11.7701C10.6259 11.184 9.94216 10.3508 9.5384 9.37604C9.13464 8.40127 9.02899 7.32866 9.23483 6.29386C9.44067 5.25905 9.94873 4.30852 10.6948 3.56246C11.4408 2.81641 12.3914 2.30834 13.4262 2.1025C14.461 1.89667 15.5336 2.00231 16.5084 2.40607C17.4831 2.80983 18.3163 3.49358 18.9024 4.37085C19.4886 5.24812 19.8015 6.2795 19.8015 7.33458C19.7998 8.74889 19.2373 10.1048 18.2372 11.1049C17.2371 12.1049 15.8812 12.6675 14.4669 12.6692ZM14.4669 3.33208C13.6753 3.33208 12.9014 3.56683 12.2432 4.00663C11.585 4.44643 11.072 5.07153 10.7691 5.80289C10.4661 6.53425 10.3869 7.33902 10.5413 8.11543C10.6958 8.89184 11.077 9.60502 11.6367 10.1648C12.1965 10.7245 12.9096 11.1057 13.6861 11.2602C14.4625 11.4146 15.2672 11.3353 15.9986 11.0324C16.73 10.7295 17.3551 10.2165 17.7949 9.55825C18.2347 8.90004 18.4694 8.1262 18.4694 7.33458C18.4694 6.27248 18.0479 5.25378 17.2975 4.50217C16.547 3.75057 15.529 3.32749 14.4669 3.32583V3.33208Z" fill="white"/>
<path d="M20.0145 22.006H8.92632C8.61404 22.0065 8.30598 21.9339 8.02678 21.7941C7.74758 21.6542 7.50498 21.4509 7.31839 21.2005C7.13181 20.9501 7.00641 20.6595 6.95223 20.352C6.89805 20.0445 6.91659 19.7285 7.00637 19.4294L7.63176 17.3281C7.91622 16.3641 8.50599 15.5185 9.31239 14.9185C10.1188 14.3185 11.0982 13.9965 12.1033 14.001H16.8187C17.8239 13.9965 18.8033 14.3185 19.6097 14.9185C20.416 15.5185 21.0058 16.3641 21.2903 17.3281L21.9157 19.4294C22.005 19.727 22.0238 20.0413 21.9706 20.3474C21.9175 20.6535 21.7937 20.943 21.6093 21.193C21.4248 21.443 21.1846 21.6467 20.9078 21.7878C20.631 21.9289 20.3252 22.0036 20.0145 22.006ZM12.1096 15.3331C11.3913 15.3295 10.6913 15.5593 10.115 15.9879C9.53862 16.4165 9.11708 17.0207 8.91381 17.7096L8.28842 19.8109C8.25965 19.9093 8.25386 20.013 8.27151 20.1139C8.28915 20.2149 8.32975 20.3105 8.39019 20.3933C8.45062 20.476 8.52926 20.5438 8.62005 20.5914C8.71084 20.639 8.81134 20.6651 8.91381 20.6677H20.0145C20.1177 20.6654 20.2189 20.6392 20.3103 20.5913C20.4017 20.5433 20.4808 20.4749 20.5413 20.3913C20.6019 20.3078 20.6423 20.2113 20.6594 20.1095C20.6765 20.0078 20.6698 19.9034 20.6399 19.8046L20.0145 17.7033C19.8112 17.0144 19.3897 16.4102 18.8133 15.9816C18.237 15.553 17.537 15.3232 16.8187 15.3269L12.1096 15.3331Z" fill="white"/>
<path d="M8.67603 12.5881H8.55096C7.32721 12.3595 6.22194 11.7101 5.42657 10.7525C4.63119 9.79478 4.1958 8.58907 4.1958 7.34417C4.1958 6.09927 4.63119 4.89356 5.42657 3.93588C6.22194 2.97819 7.32721 2.32884 8.55096 2.10027C8.63895 2.0793 8.73028 2.07638 8.81943 2.09169C8.90858 2.10701 8.99369 2.14024 9.06964 2.18938C9.14559 2.23851 9.21078 2.30254 9.26128 2.37758C9.31179 2.45263 9.34655 2.53713 9.36348 2.62599C9.3804 2.71485 9.37914 2.80622 9.35976 2.89457C9.34038 2.98293 9.30329 3.06643 9.25072 3.14005C9.19816 3.21367 9.13121 3.27586 9.05394 3.32288C8.97666 3.36989 8.89065 3.40075 8.80111 3.41359C7.88737 3.58919 7.06335 4.07765 6.47074 4.79498C5.87813 5.51232 5.55396 6.41371 5.55396 7.34417C5.55396 8.27463 5.87813 9.17602 6.47074 9.89336C7.06335 10.6107 7.88737 11.0992 8.80111 11.2747C8.95819 11.3121 9.09649 11.4049 9.1905 11.5361C9.28452 11.6674 9.32791 11.8282 9.31267 11.989C9.29744 12.1497 9.2246 12.2995 9.1076 12.4107C8.9906 12.522 8.83733 12.5872 8.67603 12.5943V12.5881Z" fill="white"/>
<path d="M5.33652 22.0062H4.00444C3.69217 22.0067 3.38411 21.9341 3.1049 21.7942C2.8257 21.6543 2.58311 21.4511 2.39652 21.2007C2.20993 20.9503 2.08453 20.6597 2.03035 20.3521C1.97617 20.0446 1.99471 19.7287 2.08449 19.4296L2.70988 17.3283C2.99464 16.3632 3.58536 15.5168 4.39301 14.9167C5.20067 14.3166 6.1815 13.9953 7.18768 14.0012C7.28057 13.9922 7.37431 14.0027 7.4629 14.0321C7.55148 14.0614 7.63294 14.109 7.70204 14.1717C7.77114 14.2344 7.82636 14.3109 7.86415 14.3963C7.90194 14.4816 7.92146 14.5739 7.92146 14.6672C7.92146 14.7605 7.90194 14.8528 7.86415 14.9382C7.82636 15.0235 7.77114 15.1 7.70204 15.1627C7.63294 15.2254 7.55148 15.273 7.4629 15.3024C7.37431 15.3317 7.28057 15.3423 7.18768 15.3333C6.46944 15.3296 5.76945 15.5594 5.1931 15.988C4.61674 16.4166 4.1952 17.0208 3.99193 17.7097L3.36654 19.811C3.33777 19.9094 3.33199 20.0131 3.34963 20.1141C3.36728 20.215 3.40788 20.3106 3.46831 20.3934C3.52874 20.4762 3.60739 20.544 3.69817 20.5916C3.78896 20.6392 3.88947 20.6652 3.99193 20.6678H5.33652C5.42941 20.6588 5.52316 20.6693 5.61174 20.6987C5.70032 20.7281 5.78178 20.7757 5.85089 20.8384C5.91999 20.9011 5.97521 20.9776 6.013 21.0629C6.05078 21.1483 6.07031 21.2406 6.07031 21.3339C6.07031 21.4272 6.05078 21.5195 6.013 21.6048C5.97521 21.6902 5.91999 21.7666 5.85089 21.8294C5.78178 21.8921 5.70032 21.9397 5.61174 21.969C5.52316 21.9984 5.42941 22.0089 5.33652 21.9999V22.0062Z" fill="white"/>
</svg>
