<svg width="24" height="24" viewBox="0 0 24 24" fill="none" xmlns="http://www.w3.org/2000/svg">
<path d="M14.4671 12.6692C13.412 12.6692 12.3807 12.3563 11.5034 11.7701C10.6261 11.184 9.94238 10.3508 9.53862 9.37604C9.13486 8.40127 9.02921 7.32866 9.23505 6.29386C9.44089 5.25905 9.94896 4.30852 10.695 3.56246C11.4411 2.81641 12.3916 2.30834 13.4264 2.1025C14.4612 1.89667 15.5338 2.00231 16.5086 2.40607C17.4833 2.80983 18.3165 3.49358 18.9027 4.37085C19.4888 5.24812 19.8017 6.2795 19.8017 7.33458C19.8001 8.74889 19.2375 10.1048 18.2374 11.1049C17.2373 12.1049 15.8814 12.6675 14.4671 12.6692ZM14.4671 3.33208C13.6755 3.33208 12.9017 3.56683 12.2435 4.00663C11.5853 4.44643 11.0722 5.07153 10.7693 5.80289C10.4664 6.53425 10.3871 7.33902 10.5415 8.11543C10.696 8.89184 11.0772 9.60502 11.6369 10.1648C12.1967 10.7245 12.9099 11.1057 13.6863 11.2602C14.4627 11.4146 15.2675 11.3353 15.9988 11.0324C16.7302 10.7295 17.3553 10.2165 17.7951 9.55825C18.2349 8.90004 18.4696 8.1262 18.4696 7.33458C18.4696 6.27248 18.0481 5.25378 17.2977 4.50217C16.5473 3.75057 15.5292 3.32749 14.4671 3.32583V3.33208Z" fill="#181A1F"/>
<path d="M20.0143 22.006H8.92613C8.61386 22.0065 8.3058 21.9339 8.0266 21.7941C7.74739 21.6542 7.5048 21.4509 7.31821 21.2005C7.13162 20.9501 7.00622 20.6595 6.95204 20.352C6.89786 20.0445 6.9164 19.7285 7.00618 19.4294L7.63157 17.3281C7.91603 16.3641 8.50581 15.5185 9.3122 14.9185C10.1186 14.3185 11.098 13.9965 12.1031 14.001H16.8186C17.8237 13.9965 18.8031 14.3185 19.6095 14.9185C20.4159 15.5185 21.0056 16.3641 21.2901 17.3281L21.9155 19.4294C22.0048 19.727 22.0236 20.0413 21.9705 20.3474C21.9173 20.6535 21.7936 20.943 21.6091 21.193C21.4246 21.443 21.1845 21.6467 20.9077 21.7878C20.6309 21.9289 20.325 22.0036 20.0143 22.006ZM12.1094 15.3331C11.3911 15.3295 10.6911 15.5593 10.1148 15.9879C9.53843 16.4165 9.11689 17.0207 8.91363 17.7096L8.28823 19.8109C8.25946 19.9093 8.25368 20.013 8.27132 20.1139C8.28897 20.2149 8.32957 20.3105 8.39 20.3933C8.45043 20.476 8.52908 20.5438 8.61987 20.5914C8.71065 20.639 8.81116 20.6651 8.91363 20.6677H20.0143C20.1175 20.6654 20.2187 20.6392 20.3101 20.5913C20.4015 20.5433 20.4806 20.4749 20.5411 20.3913C20.6017 20.3078 20.6421 20.2113 20.6592 20.1095C20.6763 20.0078 20.6696 19.9034 20.6397 19.8046L20.0143 17.7033C19.811 17.0144 19.3895 16.4102 18.8131 15.9816C18.2368 15.553 17.5368 15.3232 16.8186 15.3269L12.1094 15.3331Z" fill="#181A1F"/>
<path d="M8.67602 12.5881H8.55094C7.3272 12.3595 6.22193 11.7101 5.42656 10.7525C4.63118 9.79478 4.19579 8.58907 4.19579 7.34417C4.19579 6.09927 4.63118 4.89356 5.42656 3.93588C6.22193 2.97819 7.3272 2.32884 8.55094 2.10027C8.63893 2.0793 8.73026 2.07638 8.81941 2.09169C8.90856 2.10701 8.99368 2.14024 9.06963 2.18938C9.14557 2.23851 9.21077 2.30254 9.26127 2.37758C9.31178 2.45263 9.34654 2.53713 9.36347 2.62599C9.38039 2.71485 9.37913 2.80622 9.35975 2.89457C9.34037 2.98293 9.30327 3.06643 9.25071 3.14005C9.19815 3.21367 9.1312 3.27586 9.05393 3.32288C8.97665 3.36989 8.89064 3.40075 8.8011 3.41359C7.88736 3.58919 7.06334 4.07765 6.47073 4.79498C5.87812 5.51232 5.55395 6.41371 5.55395 7.34417C5.55395 8.27463 5.87812 9.17602 6.47073 9.89336C7.06334 10.6107 7.88736 11.0992 8.8011 11.2747C8.95818 11.3121 9.09648 11.4049 9.19049 11.5361C9.2845 11.6674 9.32789 11.8282 9.31266 11.989C9.29742 12.1497 9.22459 12.2995 9.10759 12.4107C8.99059 12.522 8.83732 12.5872 8.67602 12.5943V12.5881Z" fill="#181A1F"/>
<path d="M5.33652 22.0062H4.00444C3.69217 22.0067 3.38411 21.9341 3.1049 21.7942C2.8257 21.6543 2.58311 21.4511 2.39652 21.2007C2.20993 20.9503 2.08453 20.6597 2.03035 20.3521C1.97617 20.0446 1.99471 19.7287 2.08449 19.4296L2.70988 17.3283C2.99464 16.3632 3.58536 15.5168 4.39301 14.9167C5.20067 14.3166 6.1815 13.9953 7.18768 14.0012C7.28057 13.9922 7.37431 14.0027 7.4629 14.0321C7.55148 14.0614 7.63294 14.109 7.70204 14.1717C7.77114 14.2344 7.82636 14.3109 7.86415 14.3963C7.90194 14.4816 7.92146 14.5739 7.92146 14.6672C7.92146 14.7605 7.90194 14.8528 7.86415 14.9382C7.82636 15.0235 7.77114 15.1 7.70204 15.1627C7.63294 15.2254 7.55148 15.273 7.4629 15.3024C7.37431 15.3317 7.28057 15.3423 7.18768 15.3333C6.46944 15.3296 5.76945 15.5594 5.1931 15.988C4.61674 16.4166 4.1952 17.0208 3.99193 17.7097L3.36654 19.811C3.33777 19.9094 3.33199 20.0131 3.34963 20.1141C3.36728 20.215 3.40788 20.3106 3.46831 20.3934C3.52874 20.4762 3.60739 20.544 3.69817 20.5916C3.78896 20.6392 3.88947 20.6652 3.99193 20.6678H5.33652C5.42941 20.6588 5.52316 20.6693 5.61174 20.6987C5.70032 20.7281 5.78178 20.7757 5.85089 20.8384C5.91999 20.9011 5.97521 20.9776 6.013 21.0629C6.05078 21.1483 6.07031 21.2406 6.07031 21.3339C6.07031 21.4272 6.05078 21.5195 6.013 21.6048C5.97521 21.6902 5.91999 21.7666 5.85089 21.8294C5.78178 21.8921 5.70032 21.9397 5.61174 21.969C5.52316 21.9984 5.42941 22.0089 5.33652 21.9999V22.0062Z" fill="#181A1F"/>
</svg>
