<svg width="22" height="22" viewBox="0 0 22 22" fill="none" xmlns="http://www.w3.org/2000/svg">
<path d="M19.8244 4.47923C19.5227 4.17572 19.1636 3.93517 18.7681 3.77152C18.3726 3.60786 17.9486 3.52438 17.5206 3.5259H4.47945C3.61558 3.5259 2.78709 3.86907 2.17625 4.47992C1.5654 5.09077 1.22223 5.91925 1.22223 6.78312V15.2165C1.22223 16.0803 1.5654 16.9088 2.17625 17.5197C2.78709 18.1305 3.61558 18.4737 4.47945 18.4737H17.5206C18.3844 18.4737 19.2129 18.1305 19.8238 17.5197C20.4346 16.9088 20.7778 16.0803 20.7778 15.2165V6.78312C20.7793 6.35511 20.6958 5.93106 20.5322 5.53557C20.3685 5.14008 20.128 4.78102 19.8244 4.47923ZM3.09834 5.40201C3.27919 5.21977 3.49436 5.07518 3.73141 4.97658C3.96847 4.87798 4.22271 4.82734 4.47945 4.82757H17.5206C17.7774 4.82757 18.0317 4.87815 18.2689 4.97642C18.5062 5.0747 18.7218 5.21874 18.9033 5.40034C19.0849 5.58193 19.229 5.7975 19.3273 6.03476C19.4255 6.27202 19.4761 6.52631 19.4761 6.78312H2.5239C2.52367 6.52638 2.57431 6.27214 2.67291 6.03508C2.77151 5.79803 2.9161 5.58286 3.09834 5.40201ZM19.4761 8.0909V10.0465H2.5239V8.0909H19.4761ZM18.9017 16.6037C18.7208 16.7859 18.5057 16.9305 18.2686 17.0291C18.0315 17.1277 17.7773 17.1784 17.5206 17.1781H4.47945C3.96081 17.1781 3.4634 16.9721 3.09666 16.6054C2.72993 16.2386 2.5239 15.7412 2.5239 15.2226V11.3481H19.4761V15.2165C19.4763 15.4732 19.4257 15.7274 19.3271 15.9645C19.2285 16.2015 19.0839 16.4167 18.9017 16.5976V16.6037Z" fill="#181A1F"/>
<path d="M4.47943 13.3037H7.08888V14.6054H4.47943V13.3037Z" fill="#181A1F"/>
<path d="M8.39056 13.3037H9.69223V14.6054H8.39056V13.3037Z" fill="#181A1F"/>
</svg>
