<svg width="22" height="22" viewBox="0 0 22 22" fill="none" xmlns="http://www.w3.org/2000/svg">
<path d="M19.8244 4.47923C19.5226 4.17572 19.1635 3.93517 18.7681 3.77152C18.3726 3.60786 17.9485 3.52438 17.5205 3.5259H4.47939C3.61552 3.5259 2.78703 3.86907 2.17619 4.47992C1.56534 5.09077 1.22217 5.91925 1.22217 6.78312V15.2165C1.22217 16.0803 1.56534 16.9088 2.17619 17.5197C2.78703 18.1305 3.61552 18.4737 4.47939 18.4737H17.5205C18.3844 18.4737 19.2129 18.1305 19.8237 17.5197C20.4346 16.9088 20.7777 16.0803 20.7777 15.2165V6.78312C20.7792 6.35511 20.6958 5.93106 20.5321 5.53557C20.3685 5.14008 20.1279 4.78102 19.8244 4.47923ZM3.09828 5.40201C3.27913 5.21977 3.4943 5.07518 3.73135 4.97658C3.96841 4.87798 4.22265 4.82734 4.47939 4.82757H17.5205C17.7773 4.82757 18.0316 4.87815 18.2689 4.97642C18.5061 5.0747 18.7217 5.21874 18.9033 5.40034C19.0849 5.58193 19.2289 5.7975 19.3272 6.03476C19.4255 6.27202 19.4761 6.52631 19.4761 6.78312H2.52383C2.52361 6.52638 2.57425 6.27214 2.67285 6.03508C2.77145 5.79803 2.91604 5.58286 3.09828 5.40201ZM19.4761 8.0909V10.0465H2.52383V8.0909H19.4761ZM18.9016 16.6037C18.7208 16.7859 18.5056 16.9305 18.2685 17.0291C18.0315 17.1277 17.7772 17.1784 17.5205 17.1781H4.47939C3.96074 17.1781 3.46334 16.9721 3.0966 16.6054C2.72987 16.2386 2.52383 15.7412 2.52383 15.2226V11.3481H19.4761V15.2165C19.4763 15.4732 19.4256 15.7274 19.327 15.9645C19.2284 16.2015 19.0838 16.4167 18.9016 16.5976V16.6037Z" fill="white"/>
<path d="M4.47949 13.3037H7.08894V14.6054H4.47949V13.3037Z" fill="white"/>
<path d="M8.39062 13.3037H9.69229V14.6054H8.39062V13.3037Z" fill="white"/>
</svg>
