<svg width="18" height="18" viewBox="0 0 18 18" fill="none" xmlns="http://www.w3.org/2000/svg">
<path d="M14.335 2.6H13.265V1H12.2V2.6H5.8V1H4.735V2.6H3.665C2.9586 2.60132 2.28152 2.88252 1.78202 3.38202C1.28252 3.88152 1.00132 4.5586 1 5.265V14.335C1.00132 15.0414 1.28252 15.7185 1.78202 16.218C2.28152 16.7175 2.9586 16.9987 3.665 17H14.335C15.0414 16.9987 15.7185 16.7175 16.218 16.218C16.7175 15.7185 16.9987 15.0414 17 14.335V5.265C16.9987 4.5586 16.7175 3.88152 16.218 3.38202C15.7185 2.88252 15.0414 2.60132 14.335 2.6ZM15.935 14.335C15.935 14.7593 15.7664 15.1663 15.4664 15.4664C15.1663 15.7664 14.7593 15.935 14.335 15.935H3.665C3.24065 15.935 2.83369 15.7664 2.53363 15.4664C2.23357 15.1663 2.065 14.7593 2.065 14.335V5.265C2.065 4.84065 2.23357 4.43369 2.53363 4.13363C2.83369 3.83357 3.24065 3.665 3.665 3.665H4.735V5.265H5.8V3.665H12.2V5.265H13.265V3.665H14.33C14.7543 3.665 15.1613 3.83357 15.4614 4.13363C15.7614 4.43369 15.93 4.84065 15.93 5.265L15.935 14.335Z" fill="white"/>
<path d="M13.265 10.0649H11.135C10.8526 10.0649 10.5817 10.1771 10.3819 10.3769C10.1822 10.5766 10.07 10.8475 10.07 11.1299V13.2649C10.07 13.5474 10.1822 13.8183 10.3819 14.018C10.5817 14.2177 10.8526 14.3299 11.135 14.3299H13.27C13.5525 14.3299 13.8233 14.2177 14.0231 14.018C14.2228 13.8183 14.335 13.5474 14.335 13.2649V11.1349C14.335 10.8525 14.2228 10.5816 14.0231 10.3819C13.8233 10.1821 13.5525 10.0699 13.27 10.0699L13.265 10.0649ZM13.265 13.2649H11.135V11.1349H13.27L13.265 13.2649Z" fill="white"/>
</svg>
