<svg width="18" height="18" viewBox="0 0 18 18" fill="none" xmlns="http://www.w3.org/2000/svg">
<path d="M9 1C7.41775 1 5.87104 1.46919 4.55544 2.34824C3.23985 3.22729 2.21447 4.47672 1.60897 5.93853C1.00347 7.40034 0.84504 9.00887 1.15372 10.5607C1.4624 12.1126 2.22433 13.538 3.34315 14.6569C4.46197 15.7757 5.88743 16.5376 7.43928 16.8463C8.99113 17.155 10.5997 16.9965 12.0615 16.391C13.5233 15.7855 14.7727 14.7602 15.6518 13.4446C16.5308 12.129 17 10.5823 17 9C17 6.87827 16.1572 4.84344 14.6569 3.34315C13.1566 1.84285 11.1217 1 9 1ZM2.065 9C2.06269 7.20685 2.75551 5.4826 3.9979 4.18959C5.24028 2.89658 6.9355 2.13548 8.72731 2.06621C10.5191 1.99695 12.268 2.62492 13.6065 3.81816C14.945 5.01141 15.7689 6.67702 15.905 8.465H14.335C14.1931 8.465 14.057 8.52137 13.9567 8.6217C13.8564 8.72203 13.8 8.85811 13.8 9C13.7987 10.2726 13.2925 11.4928 12.3927 12.3927C11.4928 13.2925 10.2726 13.7987 9 13.8C8.85811 13.8 8.72203 13.8564 8.6217 13.9567C8.52137 14.057 8.465 14.1931 8.465 14.335V15.91C6.72472 15.7742 5.09952 14.9875 3.91338 13.7069C2.72723 12.4262 2.06726 10.7456 2.065 9ZM9.535 15.905V14.845C10.9007 14.7189 12.1793 14.119 13.1491 13.1491C14.119 12.1793 14.7189 10.9007 14.845 9.535H15.91C15.7804 11.1821 15.067 12.7288 13.8982 13.8967C12.7295 15.0645 11.1822 15.7767 9.535 15.905Z" fill="white"/>
<path d="M10.225 11L11 10.225L9.555 8.78003V5.28003H8.465V9.00003C8.46542 9.14053 8.52109 9.27523 8.62 9.37503L10.225 11Z" fill="white"/>
</svg>
