<svg width="30" height="30" viewBox="0 0 30 30" fill="none" xmlns="http://www.w3.org/2000/svg">
<g clip-path="url(#clip0_112_3100)">
<path fill-rule="evenodd" clip-rule="evenodd" d="M6.57015 9.89121L7.58663 11.6484L8.60312 9.89121L10.3603 8.87473L8.60312 7.8583L7.58663 6.10107L6.57015 7.8583L4.81128 8.87473L6.57015 9.89121Z" fill="white"/>
<path fill-rule="evenodd" clip-rule="evenodd" d="M12.9762 7.22051L14.0956 9.15545L15.2134 7.22051L17.1483 6.10271L15.2134 4.98328L14.0956 3.04834L12.9762 4.98328L11.0413 6.10271L12.9762 7.22051Z" fill="white"/>
<path fill-rule="evenodd" clip-rule="evenodd" d="M2.92114 18.7885H8.68946V14.6812H6.61665C5.49722 14.6812 4.82456 15.01 4.28644 16.0763L2.92114 18.7885Z" fill="white"/>
<path fill-rule="evenodd" clip-rule="evenodd" d="M13.5542 14.6812H18.4206V18.7885H13.5542V14.6812Z" fill="white"/>
<path d="M28.1613 18.7728C27.3285 18.4104 26.2166 18.2026 25.1107 18.2026H24.5963L22.0212 15.1688C21.1722 14.1692 20.6188 14.1174 19.4481 14.0953C19.4444 14.0953 19.4408 14.0952 19.4371 14.0952H6.61664C5.20553 14.0952 4.37889 14.5927 3.76307 15.8128L2.56014 18.2026H1.12406C0.504258 18.2026 0 18.7068 0 19.3266V23.5602C0 24.18 0.504258 24.6843 1.12406 24.6843H4.27734C4.49022 25.9687 5.6083 26.9514 6.95215 26.9514C8.296 26.9514 9.41402 25.9687 9.62695 24.6843H19.9546C20.1674 25.9687 21.2855 26.9514 22.6294 26.9514C23.9732 26.9514 25.0913 25.9687 25.3042 24.6843H28.0904C29.1434 24.6843 30.0001 23.8284 30.0001 22.7763V21.1619C30 20.4369 29.681 19.434 28.1613 18.7728ZM4.80949 16.3402C5.21953 15.5278 5.65863 15.267 6.61664 15.267H19.4314C20.4093 15.2854 20.5866 15.2899 21.128 15.9273L23.0592 18.2026H3.87205L4.80949 16.3402ZM6.95215 25.7796C6.10301 25.7796 5.41213 25.0887 5.41213 24.2396C5.41213 23.3904 6.10301 22.6995 6.95215 22.6995C7.80129 22.6995 8.49217 23.3904 8.49217 24.2396C8.49217 25.0887 7.80129 25.7796 6.95215 25.7796ZM22.6293 25.7796C21.7802 25.7796 21.0893 25.0887 21.0893 24.2396C21.0893 23.3904 21.7802 22.6995 22.6293 22.6995C23.4785 22.6995 24.1693 23.3904 24.1693 24.2396C24.1693 25.0887 23.4785 25.7796 22.6293 25.7796ZM28.0903 23.5125H25.2414C24.9227 22.3692 23.8727 21.5277 22.6293 21.5277C21.3859 21.5277 20.3359 22.3692 20.0173 23.5125H9.5642C9.24551 22.3692 8.19557 21.5277 6.95215 21.5277C5.70873 21.5277 4.65873 22.3692 4.3401 23.5125H1.17188V21.9655H2.17377C2.49738 21.9655 2.75971 21.7031 2.75971 21.3795C2.75971 21.0559 2.49738 20.7936 2.17377 20.7936H1.17188V19.3745H25.1107C26.605 19.3745 28.8281 19.8505 28.8281 21.1619V21.227H27.7416C27.418 21.227 27.1556 21.4893 27.1556 21.8129C27.1556 22.1366 27.418 22.3989 27.7416 22.3989H28.8281V22.7763C28.8281 23.1822 28.4972 23.5125 28.0903 23.5125Z" fill="white"/>
<path d="M14.7201 20.8584H12.1358C11.8122 20.8584 11.5499 21.1207 11.5499 21.4443C11.5499 21.7679 11.8122 22.0303 12.1358 22.0303H14.7201C15.0438 22.0303 15.3061 21.7679 15.3061 21.4443C15.3061 21.1207 15.0438 20.8584 14.7201 20.8584Z" fill="white"/>
</g>
<defs>
<clipPath id="clip0_112_3100">
<rect width="30" height="30" fill="white"/>
</clipPath>
</defs>
</svg>
