<svg width="30" height="24" viewBox="0 0 30 24" fill="none" xmlns="http://www.w3.org/2000/svg">
<path fill-rule="evenodd" clip-rule="evenodd" d="M6.57015 6.89121L7.58663 8.64844L8.60312 6.89121L10.3603 5.87473L8.60312 4.8583L7.58663 3.10107L6.57015 4.8583L4.81128 5.87473L6.57015 6.89121Z" fill="#181A1F"/>
<path fill-rule="evenodd" clip-rule="evenodd" d="M12.9762 4.22051L14.0956 6.15545L15.2134 4.22051L17.1483 3.10271L15.2134 1.98328L14.0956 0.0483398L12.9762 1.98328L11.0413 3.10271L12.9762 4.22051Z" fill="#181A1F"/>
<path fill-rule="evenodd" clip-rule="evenodd" d="M2.92114 15.7885H8.68946V11.6812H6.61665C5.49722 11.6812 4.82456 12.01 4.28644 13.0763L2.92114 15.7885Z" fill="#181A1F"/>
<path fill-rule="evenodd" clip-rule="evenodd" d="M13.5542 11.6812H18.4206V15.7885H13.5542V11.6812Z" fill="#181A1F"/>
<path d="M28.1613 15.7728C27.3285 15.4104 26.2166 15.2026 25.1107 15.2026H24.5963L22.0212 12.1688C21.1722 11.1692 20.6188 11.1174 19.4481 11.0953C19.4444 11.0953 19.4408 11.0952 19.4371 11.0952H6.61664C5.20553 11.0952 4.37889 11.5927 3.76307 12.8128L2.56014 15.2026H1.12406C0.504258 15.2026 0 15.7068 0 16.3266V20.5602C0 21.18 0.504258 21.6843 1.12406 21.6843H4.27734C4.49022 22.9687 5.6083 23.9514 6.95215 23.9514C8.296 23.9514 9.41402 22.9687 9.62695 21.6843H19.9546C20.1674 22.9687 21.2855 23.9514 22.6294 23.9514C23.9732 23.9514 25.0913 22.9687 25.3042 21.6843H28.0904C29.1434 21.6843 30.0001 20.8284 30.0001 19.7763V18.1619C30 17.4369 29.681 16.434 28.1613 15.7728ZM4.80949 13.3402C5.21953 12.5278 5.65863 12.267 6.61664 12.267H19.4314C20.4093 12.2854 20.5866 12.2899 21.128 12.9273L23.0592 15.2026H3.87205L4.80949 13.3402ZM6.95215 22.7796C6.10301 22.7796 5.41213 22.0887 5.41213 21.2396C5.41213 20.3904 6.10301 19.6995 6.95215 19.6995C7.80129 19.6995 8.49217 20.3904 8.49217 21.2396C8.49217 22.0887 7.80129 22.7796 6.95215 22.7796ZM22.6293 22.7796C21.7802 22.7796 21.0893 22.0887 21.0893 21.2396C21.0893 20.3904 21.7802 19.6995 22.6293 19.6995C23.4785 19.6995 24.1693 20.3904 24.1693 21.2396C24.1693 22.0887 23.4785 22.7796 22.6293 22.7796ZM28.0903 20.5125H25.2414C24.9227 19.3692 23.8727 18.5277 22.6293 18.5277C21.3859 18.5277 20.3359 19.3692 20.0173 20.5125H9.5642C9.24551 19.3692 8.19557 18.5277 6.95215 18.5277C5.70873 18.5277 4.65873 19.3692 4.3401 20.5125H1.17188V18.9655H2.17377C2.49738 18.9655 2.75971 18.7031 2.75971 18.3795C2.75971 18.0559 2.49738 17.7936 2.17377 17.7936H1.17188V16.3745H25.1107C26.605 16.3745 28.8281 16.8505 28.8281 18.1619V18.227H27.7416C27.418 18.227 27.1556 18.4893 27.1556 18.8129C27.1556 19.1366 27.418 19.3989 27.7416 19.3989H28.8281V19.7763C28.8281 20.1822 28.4972 20.5125 28.0903 20.5125Z" fill="#181A1F"/>
<path d="M14.7201 17.8584H12.1358C11.8122 17.8584 11.5499 18.1207 11.5499 18.4443C11.5499 18.7679 11.8122 19.0303 12.1358 19.0303H14.7201C15.0438 19.0303 15.3061 18.7679 15.3061 18.4443C15.3061 18.1207 15.0438 17.8584 14.7201 17.8584Z" fill="#181A1F"/>
</svg>
