<svg width="20" height="20" viewBox="0 0 20 20" fill="none" xmlns="http://www.w3.org/2000/svg">
<g clip-path="url(#clip0_90_2667)">
<path d="M9.99998 19.9998C6.77498 19.9435 2.66873 12.8435 2.66873 7.33104C2.6474 6.36244 2.82245 5.39956 3.18333 4.50045C3.5442 3.60134 4.08343 2.78462 4.7685 2.09956C5.45357 1.41449 6.27028 0.875259 7.16939 0.514381C8.0685 0.153503 9.03139 -0.0215465 9.99998 -0.000213363C10.9686 -0.0215465 11.9315 0.153503 12.8306 0.514381C13.7297 0.875259 14.5464 1.41449 15.2315 2.09956C15.9165 2.78462 16.4558 3.60134 16.8166 4.50045C17.1775 5.39956 17.3526 6.36244 17.3312 7.33104C17.3312 11.556 15.0062 16.3685 12.7562 18.581C11.8 19.5248 10.8812 19.9998 9.99998 19.9998ZM9.99998 1.33104C9.20476 1.30403 8.41248 1.44075 7.67231 1.73272C6.93214 2.02469 6.25987 2.46567 5.69725 3.0283C5.13462 3.59093 4.69363 4.26319 4.40166 5.00336C4.1097 5.74354 3.97297 6.53582 3.99998 7.33104C3.99998 12.6123 7.91873 18.631 10.0125 18.6623C10.72 18.5448 11.3625 18.1792 11.825 17.631C13.8312 15.656 16 11.156 16 7.33104C16.027 6.53582 15.8903 5.74354 15.5983 5.00336C15.3063 4.26319 14.8653 3.59093 14.3027 3.0283C13.7401 2.46567 13.0678 2.02469 12.3277 1.73272C11.5875 1.44075 10.7952 1.30403 9.99998 1.33104Z" fill="#181A1F"/>
<path d="M10.0002 10.6688C9.34134 10.6688 8.69727 10.4735 8.14945 10.1074C7.60163 9.74139 7.17466 9.22112 6.92252 8.61241C6.67039 8.00371 6.60442 7.3339 6.73296 6.6877C6.86149 6.04151 7.17876 5.44793 7.64465 4.98205C8.11053 4.51617 8.7041 4.1989 9.3503 4.07036C9.9965 3.94182 10.6663 4.00779 11.275 4.25993C11.8837 4.51206 12.404 4.93903 12.77 5.48686C13.1361 6.03468 13.3314 6.67874 13.3314 7.3376C13.3298 8.22059 12.9783 9.06695 12.3539 9.69132C11.7295 10.3157 10.8832 10.6672 10.0002 10.6688ZM10.0002 5.3376C9.60463 5.3376 9.21795 5.4549 8.88906 5.67466C8.56016 5.89442 8.30381 6.20678 8.15244 6.57223C8.00106 6.93768 7.96146 7.33982 8.03863 7.72778C8.1158 8.11574 8.30628 8.47211 8.58598 8.75181C8.86569 9.03152 9.22205 9.222 9.61002 9.29917C9.99798 9.37634 10.4001 9.33673 10.7656 9.18536C11.131 9.03398 11.4434 8.77764 11.6631 8.44874C11.8829 8.11984 12.0002 7.73316 12.0002 7.3376C12.001 7.07443 11.9499 6.81369 11.8498 6.57031C11.7496 6.32694 11.6024 6.10572 11.4166 5.91934C11.2308 5.73296 11.0101 5.58509 10.767 5.48419C10.524 5.38329 10.2634 5.33135 10.0002 5.33135V5.3376Z" fill="#181A1F"/>
</g>
<defs>
<clipPath id="clip0_90_2667">
<rect width="20" height="20" fill="white"/>
</clipPath>
</defs>
</svg>
