<svg width="20" height="20" viewBox="0 0 20 20" fill="none" xmlns="http://www.w3.org/2000/svg">
<g clip-path="url(#clip0_90_2671)">
<path d="M19.1873 12.6375L17.4123 10.8625C17.031 10.4984 16.524 10.2952 15.9967 10.2952C15.4695 10.2952 14.9625 10.4984 14.5811 10.8625L13.9561 11.4875C13.532 11.91 12.9578 12.1472 12.3592 12.1472C11.7606 12.1472 11.1864 11.91 10.7623 11.4875C10.2811 11.0062 9.97485 10.6812 9.6686 10.3625C9.36235 10.0437 9.0436 9.7 8.5436 9.20625C8.12148 8.78326 7.88441 8.21008 7.88441 7.6125C7.88441 7.01492 8.12148 6.44174 8.5436 6.01875L9.1686 5.39375C9.35497 5.20879 9.50285 4.98873 9.60369 4.74629C9.70453 4.50385 9.75633 4.24383 9.7561 3.98125C9.75383 3.45144 9.54272 2.94389 9.1686 2.56875L7.3936 0.78125C6.89217 0.281971 6.2137 0.0011493 5.5061 0C5.15754 0.000513631 4.81251 0.0697838 4.49077 0.203843C4.16903 0.337903 3.87689 0.534118 3.6311 0.78125L1.93735 2.4625C0.716803 3.68474 0.03125 5.34144 0.03125 7.06875C0.03125 8.79606 0.716803 10.4528 1.93735 11.675C2.91235 12.65 4.02485 13.75 5.1311 14.9C6.23735 16.05 7.32485 17.125 8.2936 18.125C9.51558 19.3436 11.1709 20.028 12.8967 20.028C14.6225 20.028 16.2779 19.3436 17.4998 18.125L19.1873 16.4375C19.6836 15.9391 19.9642 15.2658 19.9686 14.5625C19.9748 14.2056 19.9087 13.851 19.7745 13.5202C19.6402 13.1895 19.4405 12.8892 19.1873 12.6375ZM18.2436 15.4687L18.0623 15.625L16.2498 13.8062C16.1895 13.7375 16.1157 13.6818 16.033 13.6427C15.9503 13.6036 15.8604 13.5819 15.769 13.5789C15.6775 13.576 15.5865 13.5918 15.5014 13.6254C15.4163 13.659 15.339 13.7098 15.2743 13.7745C15.2096 13.8392 15.1589 13.9164 15.1253 14.0015C15.0916 14.0866 15.0758 14.1777 15.0788 14.2691C15.0818 14.3606 15.1035 14.4504 15.1426 14.5331C15.1817 14.6158 15.2373 14.6897 15.3061 14.75L17.1498 16.5937L16.5873 17.1562C15.615 18.1257 14.2979 18.67 12.9248 18.67C11.5518 18.67 10.2347 18.1257 9.26235 17.1562C8.29985 16.1937 7.2061 15.0812 6.13735 13.9687C5.0686 12.8562 3.91235 11.7125 2.93735 10.7375C1.96793 9.76511 1.42357 8.44806 1.42357 7.075C1.42357 5.70194 1.96793 4.38488 2.93735 3.4125L3.49985 2.85L5.2811 4.6875C5.40542 4.81596 5.57568 4.88978 5.75442 4.89271C5.93317 4.89564 6.10576 4.82745 6.23422 4.70312C6.36269 4.5788 6.4365 4.40854 6.43943 4.2298C6.44236 4.05105 6.37417 3.87846 6.24985 3.75L4.37485 1.875L4.5561 1.69375C4.67927 1.56859 4.82619 1.46929 4.98825 1.40168C5.15031 1.33406 5.32425 1.29949 5.49985 1.3C5.85417 1.30106 6.19359 1.44268 6.4436 1.69375L8.22485 3.5C8.34848 3.62475 8.41807 3.79312 8.4186 3.96875C8.41867 4.05578 8.4016 4.14197 8.36836 4.2224C8.33511 4.30283 8.28635 4.37592 8.22485 4.4375L7.59985 5.0625C6.92813 5.73616 6.55092 6.64867 6.55092 7.6C6.55092 8.55133 6.92813 9.46384 7.59985 10.1375C8.12485 10.625 8.41235 10.9312 8.74985 11.25C9.08735 11.5687 9.37485 11.9125 9.8686 12.4C10.5423 13.0717 11.4548 13.4489 12.4061 13.4489C13.3574 13.4489 14.2699 13.0717 14.9436 12.4L15.5686 11.775C15.6962 11.6546 15.865 11.5875 16.0405 11.5875C16.2159 11.5875 16.3847 11.6546 16.5123 11.775L18.2873 13.55C18.4122 13.6734 18.5113 13.8203 18.5789 13.9824C18.6465 14.1444 18.6813 14.3182 18.6811 14.4937C18.6779 14.6765 18.6374 14.8567 18.5622 15.0232C18.487 15.1898 18.3786 15.3393 18.2436 15.4625V15.4687Z" fill="#181A1F"/>
</g>
<defs>
<clipPath id="clip0_90_2671">
<rect width="20" height="20" fill="white"/>
</clipPath>
</defs>
</svg>
