<svg width="151" height="43" viewBox="0 0 151 43" fill="none" xmlns="http://www.w3.org/2000/svg">
<g clip-path="url(#clip0_2400_59220)">
<rect x="0.922852" width="44" height="42.75" rx="6" fill="#F38247"/>
<rect x="0.922852" width="44" height="42.75" rx="5" fill="#F38247"/>
<circle cx="21.2979" cy="36.6152" r="26.125" fill="#EE6E33"/>
<circle cx="24.3698" cy="41.4919" r="24.5173" fill="#E65425"/>
</g>
<g clip-path="url(#clip1_2400_59220)">
<path d="M144.166 29.146C147.23 29.146 149.714 26.6439 149.714 23.5574C149.714 20.4709 147.23 17.9688 144.166 17.9688C141.102 17.9688 138.618 20.4709 138.618 23.5574C138.618 26.6439 141.102 29.146 144.166 29.146Z" fill="#F38247"/>
<path d="M57.0897 22.4476L54.8164 24.835V29.1471H50.9229V12.0938H54.8164V20.0601L62.3134 12.0938H66.6665L59.6532 19.6947L67.0776 29.1471H62.5069L57.0897 22.4476Z" fill="#131135"/>
<path d="M67.0535 22.594C67.0535 18.6473 70.0764 15.8457 74.2119 15.8457C78.3473 15.8457 81.3461 18.6473 81.3461 22.594C81.3461 26.5406 78.3473 29.3422 74.2119 29.3422C70.0764 29.3422 67.0535 26.5406 67.0535 22.594ZM77.5251 22.594C77.5251 20.3283 76.0982 18.964 74.2119 18.964C72.3255 18.964 70.8745 20.3283 70.8745 22.594C70.8745 24.8596 72.3255 26.2239 74.2119 26.2239C76.0982 26.2239 77.5251 24.8596 77.5251 22.594Z" fill="#131135"/>
<path d="M87.5371 16.3321H90.8745V19.2555H87.6339V29.1465H83.8612V15.7474C83.8612 12.7996 85.6508 10.875 88.8914 10.875C89.9797 10.875 91.068 11.0943 91.7693 11.5815L90.7778 14.3344C90.3667 14.0421 89.8346 13.8715 89.2542 13.8715C88.1417 13.8715 87.5371 14.4806 87.5371 15.7718V16.3321Z" fill="#131135"/>
<path d="M102.41 25.0302L104.417 27.2227C103.208 28.6114 101.394 29.3422 99.0486 29.3422C94.5504 29.3422 91.6241 26.4919 91.6241 22.594C91.6241 18.6717 94.5746 15.8457 98.5891 15.8457C102.265 15.8457 105.288 18.2819 105.312 22.4722L95.687 24.348C96.2433 25.6392 97.4524 26.297 99.1453 26.297C100.524 26.297 101.515 25.8828 102.41 25.0302ZM95.3243 22.2042L101.66 20.9617C101.298 19.6218 100.161 18.7204 98.5891 18.7204C96.7027 18.7204 95.3968 19.9872 95.3243 22.2042Z" fill="#131135"/>
<path d="M105.723 29.3907L107.852 26.7596C108.771 28.0021 109.786 28.6355 110.971 28.6355C112.567 28.6355 113.39 27.6854 113.39 25.8095V15.2608H107.465V12.0938H117.307V25.5903C117.307 29.8049 115.179 31.8757 111.189 31.8757C108.916 31.8757 106.957 30.9986 105.723 29.3907Z" fill="#131135"/>
<path d="M119.943 22.594C119.943 18.6473 122.966 15.8457 127.102 15.8457C131.237 15.8457 134.236 18.6473 134.236 22.594C134.236 26.5406 131.237 29.3422 127.102 29.3422C122.966 29.3422 119.943 26.5406 119.943 22.594ZM130.415 22.594C130.415 20.3283 128.988 18.964 127.102 18.964C125.215 18.964 123.764 20.3283 123.764 22.594C123.764 24.8596 125.215 26.2239 127.102 26.2239C128.988 26.2239 130.415 24.8596 130.415 22.594Z" fill="#131135"/>
<path d="M150.923 22.5935C150.923 26.7107 148.093 29.3418 144.442 29.3418C142.7 29.3418 141.298 28.7815 140.354 27.6364V29.1469H136.751V11.0703H140.524V17.4288C141.491 16.3569 142.821 15.8453 144.442 15.8453C148.093 15.8453 150.923 18.4763 150.923 22.5935ZM147.102 22.5935C147.102 20.3279 145.675 18.9636 143.789 18.9636C141.902 18.9636 140.475 20.3279 140.475 22.5935C140.475 24.8592 141.902 26.2234 143.789 26.2234C145.675 26.2234 147.102 24.8592 147.102 22.5935Z" fill="#131135"/>
</g>
<path d="M34.8616 12.966C34.9387 12.7455 35.17 11.8116 35.3885 10.8907C35.607 9.95676 35.8383 9.13959 35.9026 9.06176M34.8616 12.966L30.4535 17.2594C30.797 17.4074 31.0163 17.5209 31.2074 17.485C31.6026 17.4106 31.8776 16.6972 32.8825 14.328C33.6279 12.5769 34.3347 10.9166 34.4761 10.6312M34.8616 12.966L35.0032 13.0155C35.0035 13.0146 35.0038 13.0137 35.0041 13.0128M34.8616 12.966L35.0049 13.0104C35.0046 13.0112 35.0044 13.012 35.0041 13.0128M35.9026 9.06176C35.9925 8.958 35.9154 8.88017 35.6841 8.82829M35.9026 9.06176L36.0182 9.15727C36.0214 9.15343 36.023 9.15099 36.0231 9.15105C36.0232 9.15107 36.0231 9.15132 36.0228 9.15182M35.9026 9.06176L36.0159 9.16002C36.0182 9.15736 36.0205 9.15462 36.0228 9.15182M35.6841 8.82829C35.2729 8.72452 35.2214 8.76343 34.9387 9.52872M35.6841 8.82829L35.7169 8.68192C35.7176 8.68207 35.7182 8.68221 35.7189 8.68236M35.6841 8.82829L35.7208 8.68285C35.7202 8.68268 35.7195 8.68252 35.7189 8.68236M34.9387 9.52872C34.8102 9.85299 34.6046 10.3459 34.4761 10.6312M34.9387 9.52872L34.798 9.47673C34.7982 9.47617 34.7984 9.4756 34.7986 9.47503M34.9387 9.52872L34.7993 9.47345C34.7991 9.47398 34.7988 9.4745 34.7986 9.47503M34.4761 10.6312L34.3393 10.5697C34.3397 10.5688 34.34 10.568 34.3404 10.5672M34.4761 10.6312L34.3416 10.5647C34.3412 10.5655 34.3408 10.5663 34.3404 10.5672M34.3404 10.5672C34.1937 10.8647 33.4859 12.5273 32.7444 14.2692L32.7444 14.2694C32.6749 14.4333 32.6089 14.5891 32.5462 14.7373C32.272 15.385 32.06 15.886 31.8856 16.2709C31.6695 16.7477 31.5185 17.029 31.3885 17.1866C31.3252 17.2632 31.2736 17.302 31.2303 17.3215C31.1894 17.34 31.1455 17.3461 31.0875 17.3385C31.0261 17.3304 30.9523 17.3075 30.8549 17.2686C30.79 17.2427 30.7208 17.2124 30.6421 17.1779C30.6018 17.1603 30.559 17.1415 30.5129 17.1216L30.5103 17.1205L30.5103 17.1206L30.128 16.9641V12.992C30.128 11.1905 30.1216 10.1615 30.0925 9.57478C30.078 9.28347 30.0576 9.09016 30.026 8.96301C29.9951 8.83839 29.9417 8.72988 29.8233 8.68718L29.8202 8.68608L29.8202 8.68612C29.792 8.67663 29.7645 8.66711 29.7382 8.65799L29.7324 8.65598C29.7084 8.64767 29.6852 8.63962 29.6644 8.63261C29.6422 8.62514 29.6205 8.6181 29.6017 8.6128L29.601 8.61261C29.5884 8.60902 29.5581 8.60046 29.5282 8.60046C29.4859 8.60046 29.4552 8.61757 29.4394 8.62868C29.4232 8.64007 29.4123 8.65229 29.4063 8.65968C29.3943 8.67443 29.3863 8.68922 29.3819 8.69794C29.3723 8.71687 29.3638 8.739 29.3565 8.75993C29.3413 8.80335 29.3241 8.8625 29.306 8.93125C29.2698 9.06932 29.2274 9.25683 29.1885 9.45977C29.1656 9.56537 29.1412 9.67996 29.1164 9.79678C29.0426 10.1445 28.9645 10.5122 28.9079 10.7218L28.9068 10.7258L28.9069 10.7258C28.6752 11.687 28.2767 13.4518 28.0709 14.3861C28.0139 14.6422 27.9509 14.8735 27.8953 15.0389C27.8672 15.1224 27.8424 15.1845 27.8229 15.2236C27.8221 15.2253 27.8213 15.2269 27.8205 15.2284C27.8027 15.2348 27.7852 15.2438 27.7686 15.256C27.728 15.2859 27.704 15.327 27.6932 15.3678C27.6745 15.4388 27.6937 15.508 27.7218 15.56C27.7221 15.5636 27.7226 15.5695 27.7226 15.5783C27.7228 15.6061 27.7193 15.6492 27.7096 15.7126C27.6903 15.8389 27.6492 16.0269 27.5804 16.2983C27.443 16.8401 27.1996 17.6968 26.8139 19.0204C26.6789 19.4815 26.4435 20.3142 26.2362 21.0475C26.1866 21.2231 26.1385 21.3931 26.0939 21.5508L26.0933 21.5529L26.0933 21.5529C25.873 22.3768 25.7328 22.8269 25.6242 23.0284C25.6119 23.0513 25.6011 23.0686 25.5922 23.0815C25.5819 23.0686 25.5697 23.0516 25.5555 23.0294C25.0165 22.1616 21.9935 17.4941 21.7464 17.159L21.4779 16.7718L21.1942 16.3627L21.2046 16.8605L21.2432 18.6894L21.2432 18.69C21.2561 19.1971 21.2754 19.6436 21.2965 19.9561C21.307 20.1116 21.3181 20.237 21.3295 20.3206C21.3348 20.3601 21.3414 20.3995 21.3505 20.4291C21.353 20.4372 21.3567 20.448 21.3622 20.4595C21.3663 20.4683 21.3776 20.4909 21.4002 20.5116C21.4221 20.5317 21.4643 20.5566 21.5172 20.5518C21.5618 20.6892 21.6113 20.9476 21.6688 21.3533L21.669 21.3552L21.669 21.3552C21.7482 21.8678 21.9959 22.7536 22.303 23.6802C22.6108 24.6087 22.9822 25.5906 23.3133 26.2983C24.4639 28.8034 26.0201 30.8639 27.6413 32.0252C28.0535 32.3243 28.3808 32.5172 28.6516 32.5914C28.79 32.6293 28.9209 32.6384 29.0444 32.6096C29.1665 32.5811 29.2699 32.5182 29.359 32.4301C29.3837 32.4094 29.4257 32.3693 29.4757 32.3209C29.538 32.2607 29.6233 32.1769 29.7287 32.0726C29.9396 31.864 30.2326 31.5719 30.5868 31.2185C30.6682 31.1373 30.7529 31.0527 30.8406 30.9652C31.5157 30.2915 32.3682 29.4406 33.2836 28.5339L33.284 28.5335C34.4338 27.386 35.3803 26.4631 36.0517 25.834C36.3877 25.5192 36.6533 25.2794 36.8403 25.1221C36.9343 25.043 37.0055 24.9874 37.0545 24.9537C37.0575 24.9517 37.0603 24.9498 37.063 24.948C37.064 24.9484 37.0651 24.9489 37.0662 24.9493C37.0802 24.9546 37.0999 24.9609 37.1233 24.963C37.146 24.965 37.1839 24.9639 37.2225 24.9416C37.3151 24.8882 37.3053 24.7896 37.3015 24.7662C37.3007 24.761 37.2997 24.7558 37.2985 24.7506C37.3234 24.715 37.3637 24.6633 37.4197 24.5957C37.5346 24.4571 37.7069 24.2623 37.9248 24.0246C38.3601 23.5497 38.9724 22.9091 39.659 22.2161C40.3475 21.5212 40.9626 20.8777 41.4012 20.3992C41.6202 20.1602 41.7965 19.9611 41.9161 19.8168C41.9756 19.7451 42.0232 19.6842 42.0555 19.6376C42.0712 19.615 42.0865 19.591 42.0976 19.5682C42.103 19.5573 42.1105 19.5404 42.1151 19.5201C42.1181 19.5069 42.1289 19.4564 42.0992 19.4038M34.3404 10.5672C34.4676 10.2846 34.671 9.79697 34.7986 9.47503M34.7986 9.47503C34.8689 9.28495 34.9269 9.13415 34.9806 9.01856C35.0336 8.90475 35.0893 8.80938 35.1612 8.74265C35.241 8.66862 35.3315 8.63786 35.4316 8.63635C35.5207 8.63501 35.6186 8.65708 35.7189 8.68236M35.7189 8.68236C35.7813 8.69644 35.8381 8.71327 35.8869 8.7339C35.9347 8.7541 35.9842 8.78181 36.0226 8.82228C36.0643 8.86623 36.0943 8.92752 36.0885 9.00071C36.0835 9.06297 36.054 9.11378 36.0228 9.15182M36.0228 9.15182C36.0217 9.15428 36.0173 9.16284 36.0099 9.18106C35.9987 9.20841 35.9847 9.24694 35.9681 9.29658C35.9351 9.39549 35.894 9.53155 35.8478 9.69586C35.7553 10.0241 35.6434 10.4596 35.5346 10.9248L35.5345 10.9253C35.318 11.8376 35.0854 12.7782 35.0041 13.0128M35.0041 13.0128C34.9408 13.2183 34.7372 14.0016 34.5711 14.7496L34.5711 14.7496L34.5705 14.752C34.5053 15.0249 34.4283 15.3432 34.35 15.6672C34.212 16.2382 34.0697 16.8268 33.9796 17.2154L33.9796 17.2155L33.9791 17.2176C33.8696 17.6597 33.8115 17.9374 33.795 18.1299C33.779 18.316 33.8035 18.4055 33.8474 18.481L33.8476 18.4808L33.8512 18.4879C33.8874 18.5584 33.9773 18.6796 34.104 18.8286C34.2276 18.9739 34.3776 19.1357 34.5248 19.2843C34.6724 19.4333 34.8146 19.5664 34.9228 19.6555C34.9463 19.6748 34.9672 19.6913 34.9855 19.705M34.9855 19.705C35.0221 19.6458 35.0717 19.5634 35.132 19.4617C35.2547 19.2549 35.4202 18.9709 35.6072 18.6469C35.9812 17.9989 36.4403 17.1921 36.8126 16.5248L36.8126 16.5247C37.0133 16.1657 37.3624 15.5591 37.6995 14.9734C37.8383 14.7322 37.9751 14.4946 38.0986 14.2793L38.0993 14.278L38.8833 12.942L38.976 12.784L39.1126 12.906L39.4467 13.2043L39.4469 13.2045C39.6455 13.3823 39.799 13.5208 39.9139 13.6329C40.0273 13.7437 40.112 13.8373 40.1657 13.9258C40.2234 14.0205 40.2478 14.1131 40.2369 14.215C40.2273 14.3057 40.1897 14.3944 40.1524 14.4792L40.1524 14.4792L40.1515 14.4811C40.0704 14.6585 39.5796 15.5207 38.8965 16.6944C38.2103 17.8736 37.3233 19.3786 36.4428 20.8512M34.9855 19.705C34.9849 19.7061 34.9842 19.7072 34.9836 19.7082C34.9651 19.738 34.9506 19.7609 34.9401 19.7769C34.9344 19.7855 34.931 19.7903 34.9295 19.7924L34.9269 19.7951L34.9272 19.7954C34.9277 19.7948 34.9282 19.7942 34.9287 19.7937C34.9287 19.7937 34.9296 19.7927 34.9312 19.7909C34.9324 19.7896 34.9337 19.7882 34.935 19.7869C34.9593 19.7627 34.988 19.7523 35.0101 19.7492C35.0318 19.7461 35.0473 19.7495 35.0519 19.7507C35.0562 19.7517 35.0581 19.7526 35.0572 19.7522C35.0562 19.7517 35.0524 19.75 35.0452 19.7458C35.0302 19.7371 35.0102 19.7236 34.9855 19.705ZM36.4428 20.8512C36.1864 21.2845 35.953 21.6945 35.7839 22.0068C35.6992 22.1632 35.6314 22.2938 35.5851 22.39C35.5831 22.3942 35.5811 22.3984 35.5791 22.4025M36.4428 20.8512C36.4427 20.8513 36.4426 20.8514 36.4426 20.8515L36.3138 20.7745L36.4429 20.8509C36.4429 20.851 36.4428 20.8511 36.4428 20.8512ZM35.5791 22.4025C35.6236 22.384 35.6777 22.3597 35.7434 22.3285C36.1483 22.1362 36.9401 21.7077 38.4911 20.8633L38.4917 20.863C39.8971 20.1052 40.7253 19.6707 41.2168 19.4522C41.4597 19.3443 41.6353 19.282 41.7635 19.2649C41.8291 19.2562 41.8959 19.2571 41.9576 19.2806C42.0243 19.3059 42.0699 19.3515 42.0992 19.4038M35.5791 22.4025C35.5555 22.4124 35.5346 22.4206 35.516 22.4273C35.4895 22.437 35.4698 22.443 35.4555 22.4465C35.4416 22.4499 35.4359 22.4502 35.4359 22.4502L35.436 22.4502C35.4368 22.4502 35.4508 22.45 35.4697 22.4591C35.4912 22.4695 35.5074 22.4864 35.5171 22.504C35.5187 22.507 35.5201 22.5099 35.5212 22.5126C35.5231 22.5171 35.5243 22.521 35.5251 22.524C35.5245 22.5295 35.5237 22.5329 35.5236 22.5334C35.5234 22.5338 35.5236 22.5329 35.5244 22.5303C35.5247 22.5292 35.5251 22.5278 35.5257 22.5262C35.5261 22.5284 35.5263 22.5297 35.5263 22.5297C35.5263 22.5297 35.5261 22.5283 35.526 22.5253C35.5277 22.5201 35.5304 22.5128 35.5343 22.503C35.5441 22.4784 35.559 22.4449 35.5791 22.4025ZM42.0992 19.4038C42.0993 19.404 42.0994 19.4042 42.0995 19.4044L41.9685 19.4774L42.0975 19.4008C42.0981 19.4018 42.0987 19.4028 42.0992 19.4038ZM25.6208 23.1111C25.6208 23.1111 25.6207 23.111 25.6203 23.1108L25.6208 23.1111ZM21.6369 20.4771C21.6369 20.4771 21.6365 20.4775 21.6357 20.4785L21.6369 20.4771Z" fill="white" stroke="#F34209" stroke-width="0.3"/>
<path d="M12.8353 24.3581C12.639 24.2583 12.3661 24.1147 12.034 23.9367C11.3394 23.5643 10.3893 23.0427 9.34891 22.4594C8.30722 21.8753 7.34836 21.3524 6.6413 20.9834C6.28808 20.7991 5.9961 20.6523 5.78751 20.5554C5.68376 20.5071 5.59754 20.4698 5.53351 20.4464C5.50229 20.4349 5.471 20.4248 5.44323 20.419C5.42991 20.4163 5.41046 20.4131 5.38891 20.4136C5.37527 20.4139 5.32324 20.4157 5.27917 20.4571C5.21907 20.5126 5.21053 20.5867 5.21143 20.6319C5.21241 20.681 5.22469 20.7311 5.23969 20.7759C5.27016 20.8669 5.32335 20.9694 5.38349 21.064C5.44398 21.159 5.51636 21.2536 5.5896 21.3273C5.62614 21.3641 5.66581 21.3986 5.70699 21.4254C5.74252 21.4485 5.78979 21.4729 5.84415 21.4801C5.85225 21.4841 5.86486 21.4912 5.88244 21.5022C5.92097 21.5264 5.97302 21.5634 6.03544 21.6114C6.1597 21.7071 6.31681 21.8402 6.47466 21.9867L6.47494 21.987C7.23496 22.6891 8.36788 23.6896 9.42402 24.5605M12.8353 24.3581L9.63666 26.3028C9.63283 26.3033 9.62572 26.3039 9.61465 26.3041M12.8353 24.3581C12.7705 24.2437 12.6816 24.0948 12.5632 23.9028C12.2013 23.3161 11.5726 22.3417 10.5378 20.7524L10.5375 20.7519C9.75433 19.5403 9.29936 18.8304 9.0517 18.4122C8.92883 18.2047 8.85206 18.0609 8.81245 17.9602C8.79293 17.9105 8.77769 17.8598 8.77543 17.811C8.77293 17.7569 8.78643 17.6954 8.83485 17.6465C8.87329 17.6077 8.91837 17.6026 8.9363 17.6019C8.95636 17.601 8.97213 17.6044 8.97936 17.6062C8.99462 17.6099 9.00668 17.6152 9.01183 17.6176C9.02399 17.6231 9.03609 17.63 9.04569 17.6357C9.06623 17.6478 9.09325 17.6654 9.12502 17.6867C9.18929 17.7299 9.28119 17.7943 9.39695 17.8771C9.62886 18.043 9.96055 18.2855 10.3672 18.5865C11.1807 19.1885 12.2961 20.0255 13.5173 20.9532C14.7379 21.8804 15.8588 22.7231 16.6808 23.334C17.0918 23.6395 17.4278 23.8867 17.6639 24.0574C17.7328 24.1071 17.7929 24.1502 17.8437 24.1862C17.8458 24.1193 17.847 24.0394 17.8473 23.9485C17.8485 23.6481 17.8406 23.2371 17.8261 22.7978C17.7973 21.9187 17.743 20.9392 17.6864 20.5116C17.6458 20.2757 17.5947 19.5299 17.5692 18.8349M12.8353 24.3581L7.7033 25.9559M9.42402 24.5605C9.42411 24.5606 9.4242 24.5607 9.4243 24.5608L9.5197 24.4451L9.42385 24.5604C9.4239 24.5605 9.42396 24.5605 9.42402 24.5605ZM9.42402 24.5605C9.63947 24.7396 9.83516 24.9181 9.97602 25.0587C10.0468 25.1293 10.1017 25.1884 10.1381 25.2322C10.1464 25.2422 10.1533 25.2509 10.1588 25.2582M10.1588 25.2582C10.1647 25.2396 10.1661 25.2318 10.1665 25.2319C10.1666 25.2319 10.1665 25.2335 10.1665 25.2363C10.1665 25.262 10.1741 25.2789 10.1748 25.2804L10.1748 25.2805C10.1753 25.2816 10.1756 25.2823 10.1758 25.2826C10.1761 25.2832 10.1756 25.2821 10.1736 25.2789C10.1704 25.2739 10.1656 25.267 10.1588 25.2582ZM10.1588 25.2582C10.1571 25.2636 10.1551 25.2699 10.1525 25.2772C10.14 25.3132 10.1211 25.3603 10.0969 25.4159C10.0486 25.5267 9.9823 25.6638 9.91188 25.7995C9.84143 25.9354 9.76814 26.0674 9.70616 26.1683C9.67503 26.219 9.64807 26.2597 9.62669 26.2885C9.62218 26.2946 9.61817 26.2997 9.61465 26.3041M9.61465 26.3041C9.61062 26.3042 9.60605 26.3043 9.60093 26.3043C9.56317 26.3042 9.50933 26.301 9.44173 26.2945C9.30742 26.2816 9.13114 26.257 8.9466 26.2265C8.76237 26.196 8.57218 26.16 8.41045 26.1246C8.24528 26.0884 8.11967 26.0549 8.05835 26.0307L8.05635 26.0299L8.05634 26.0299C8.00186 26.0093 7.93822 25.9877 7.8793 25.9729C7.84994 25.9655 7.81896 25.959 7.78927 25.9555C7.76714 25.953 7.73601 25.9508 7.7033 25.9559M9.61465 26.3041C9.60981 26.3102 9.60591 26.3147 9.60294 26.3179C9.60275 26.3181 9.60256 26.3183 9.60238 26.3185L9.59908 26.3209C9.60012 26.3202 9.60115 26.3194 9.60218 26.3187C9.60061 26.3204 9.59971 26.3212 9.59947 26.3214C9.59941 26.3215 9.5994 26.3215 9.59941 26.3215C9.59942 26.3215 9.59944 26.3215 9.59946 26.3214C9.59989 26.321 9.60271 26.3185 9.60775 26.3152C9.60973 26.314 9.61166 26.3129 9.61353 26.3119L7.7033 25.9559M7.7033 25.9559C7.70553 25.9561 7.70723 25.9562 7.70848 25.9562C7.70857 25.9562 7.70866 25.9562 7.70875 25.9562M7.7033 25.9559C7.69685 25.9569 7.69033 25.9582 7.68381 25.9599C7.69506 25.9571 7.70441 25.9563 7.70875 25.9562M7.7033 25.9559C7.69946 25.9557 7.69408 25.9552 7.68692 25.9545C7.66461 25.9522 7.63232 25.9479 7.59012 25.9414C7.50614 25.9286 7.38911 25.9083 7.24689 25.8817C6.96283 25.8285 6.5822 25.7511 6.17237 25.6606M7.70875 25.9562C7.71043 25.9562 7.71135 25.9562 7.71135 25.9562C7.71135 25.9562 7.71053 25.9563 7.70875 25.9562ZM6.17237 25.6606C6.17245 25.6606 6.17252 25.6606 6.1726 25.6606L6.13977 25.807L6.17211 25.6605C6.1722 25.6605 6.17229 25.6606 6.17237 25.6606ZM6.17237 25.6606C5.76696 25.5697 5.39041 25.4885 5.11018 25.4299C4.97009 25.4007 4.85371 25.377 4.76967 25.3606C4.72774 25.3525 4.69325 25.346 4.66764 25.3415C4.65493 25.3392 4.64357 25.3374 4.63421 25.336L4.63349 25.3359C4.6277 25.335 4.61229 25.3327 4.59758 25.3327C4.51962 25.3327 4.47589 25.385 4.46165 25.405C4.44473 25.4287 4.43493 25.4538 4.42909 25.4712C4.41676 25.5079 4.40843 25.5525 4.40236 25.5971C4.38991 25.6886 4.38333 25.8093 4.38333 25.9367C4.38333 26.0397 4.38543 26.1326 4.3998 26.2116C4.41496 26.295 4.44534 26.3728 4.50808 26.4389C4.56786 26.5018 4.64546 26.5417 4.7302 26.5734C4.8148 26.605 4.92102 26.6335 5.0485 26.6657M5.0485 26.6657C5.04875 26.6657 5.049 26.6658 5.04924 26.6658L5.08594 26.5204L5.04775 26.6655C5.048 26.6655 5.04825 26.6656 5.0485 26.6657ZM5.0485 26.6657C5.3357 26.7413 5.65572 26.8406 5.75887 26.8788C5.82496 26.9108 5.91463 26.9385 6.00154 26.9596C6.09172 26.9815 6.18992 26.999 6.27486 27.0066C6.42373 27.0323 6.78317 27.12 7.08151 27.2203C7.39302 27.3251 7.84875 27.4567 8.10059 27.5102L8.10812 27.5118L8.10816 27.5116C8.3385 27.5484 8.76277 27.6737 9.04688 27.7648C9.3343 27.8701 9.72178 27.9746 9.93628 28.0157C10.0836 28.0549 10.1146 28.0801 10.1291 28.1018C10.1375 28.1143 10.148 28.1377 10.1556 28.1874C10.1633 28.2379 10.1665 28.3056 10.1665 28.4012C10.1665 28.618 10.1051 28.9639 10.0467 29.1291C9.99589 29.27 9.96123 29.3101 9.9393 29.3244C9.92203 29.3356 9.88573 29.348 9.76501 29.3301C9.66396 29.3088 9.56728 29.3037 9.48927 29.3146C9.45091 29.32 9.40682 29.3306 9.36776 29.3528C9.33855 29.3694 9.29224 29.4052 9.27433 29.465C9.25043 29.4746 9.21039 29.4834 9.15989 29.4834C8.87496 29.4834 8.31997 29.5605 7.85091 29.6464C7.61464 29.6897 7.39434 29.7363 7.23481 29.7784C7.1562 29.7992 7.08665 29.8203 7.0363 29.8411C7.01315 29.8507 6.98267 29.8647 6.95695 29.8846C6.94488 29.894 6.92123 29.9141 6.90497 29.9469C6.88518 29.9869 6.87939 30.0417 6.90704 30.0932C6.92411 30.1253 6.94829 30.1447 6.95813 30.1523C6.97178 30.1628 6.98608 30.1714 6.99835 30.1781C7.02319 30.1918 7.05334 30.2052 7.0854 30.2181C7.15035 30.2442 7.23752 30.274 7.33884 30.3053C7.54225 30.3682 7.81259 30.4405 8.09823 30.506C8.37745 30.5701 8.62983 30.6402 8.81079 30.7C8.9019 30.7301 8.97142 30.7565 9.01629 30.7771C9.02147 30.7794 9.02604 30.7816 9.03006 30.7836C9.04015 30.8038 9.05383 30.8222 9.07067 30.838C9.10569 30.8709 9.14661 30.8856 9.17851 30.8924C9.24149 30.9058 9.30975 30.897 9.36852 30.8801L9.38201 30.8762L9.38331 30.8755C9.38353 30.8755 9.38376 30.8755 9.384 30.8755C9.39408 30.8745 9.41031 30.8741 9.43365 30.8751C9.48007 30.877 9.54305 30.8838 9.61892 30.8955C9.76941 30.9188 9.95906 30.9595 10.1468 31.0099C10.5367 31.1278 11.2324 31.3098 11.6974 31.4141C11.9276 31.4658 12.1572 31.5205 12.3413 31.5686C12.4335 31.5926 12.5132 31.6147 12.5756 31.6338C12.6415 31.6539 12.678 31.6677 12.6907 31.6741L12.6978 31.6776L12.7052 31.6804C12.8096 31.7199 13.0256 31.7893 13.1871 31.8056C13.3346 31.8338 14.0133 31.9987 14.7105 32.1906C15.4218 32.3864 16.384 32.571 16.862 32.5979C16.8621 32.5979 16.8623 32.5979 16.8624 32.5979L17.6969 32.6497L17.7654 32.654L17.8134 32.6049L19.7026 30.6722L19.7031 30.6717C19.7373 30.6364 19.7709 30.6017 19.8041 30.5674C20.3151 30.0401 20.7064 29.6362 20.9969 29.3022C21.3059 28.947 21.5113 28.6594 21.6268 28.373C21.8514 27.8168 21.721 27.2957 21.4936 26.3861C21.4836 26.346 21.4734 26.3052 21.463 26.2636L21.463 26.2635C21.1658 25.0766 20.4817 23.0693 20.0909 22.2408L20.0874 22.2334L20.0872 22.2335C20.0525 22.1694 19.918 21.8669 19.7216 21.4164C19.549 21.0204 19.3319 20.518 19.1008 19.9831C19.0718 19.9162 19.0427 19.8487 19.0134 19.7809L19.0131 19.7803C18.7491 19.176 18.4945 18.6195 18.2957 18.2102C18.1965 18.0059 18.1104 17.8365 18.0437 17.7158C18.0105 17.6558 17.9807 17.6051 17.9554 17.5673C17.9429 17.5488 17.9295 17.5301 17.9156 17.5142C17.9087 17.5062 17.8996 17.4965 17.8887 17.4872C17.8794 17.4794 17.8596 17.4638 17.8311 17.4542C17.792 17.4411 17.748 17.442 17.7074 17.4604C17.671 17.4769 17.6481 17.5026 17.6349 17.521C17.61 17.5558 17.5973 17.5966 17.5898 17.6266C17.5735 17.6916 17.5637 17.7817 17.558 17.8883C17.5464 18.1049 17.5498 18.4251 17.5692 18.8349M17.5692 18.8349C17.5692 18.8352 17.5692 18.8355 17.5692 18.8357L17.719 18.8286L17.5691 18.8341C17.5691 18.8344 17.5691 18.8347 17.5692 18.8349ZM9.64043 26.3021C9.64035 26.302 9.63907 26.3022 9.63684 26.3028C9.6394 26.3024 9.64051 26.3021 9.64043 26.3021ZM5.83602 21.4766C5.83606 21.4766 5.837 21.477 5.83874 21.4776C5.83686 21.4768 5.83598 21.4765 5.83602 21.4766Z" fill="white" stroke="#F34209" stroke-width="0.3"/>
<defs>
<clipPath id="clip0_2400_59220">
<rect x="0.922852" width="44" height="42.75" rx="6" fill="white"/>
</clipPath>
<clipPath id="clip1_2400_59220">
<rect width="100" height="21" fill="white" transform="translate(50.9229 10.875)"/>
</clipPath>
</defs>
</svg>
