<svg width="74" height="18" viewBox="0 0 74 18" fill="none" xmlns="http://www.w3.org/2000/svg">
<path d="M56.2821 4.10026C57.2593 4.10026 57.7304 5.04249 57.7304 5.79279C57.7304 6.56053 57.2069 7.48531 56.2123 7.48531H53.9614V4.10026H56.2821ZM51.3965 13.8715H53.9614V9.71995H56.3345C59.0739 9.71995 60.2953 7.80059 60.2953 5.79399C60.2953 3.82228 59.0739 1.85058 56.3345 1.85058H51.3965V13.8715ZM67.0305 13.8715H69.4373V5.72299H67.0305V6.63032C66.3687 5.74044 65.1984 5.5473 64.6575 5.5473C64.1054 5.54937 63.5592 5.6611 63.0507 5.87602C62.5422 6.09093 62.0814 6.40475 61.6951 6.79923C61.3089 7.19371 61.0048 7.661 60.8007 8.17396C60.5965 8.68692 60.4964 9.23533 60.5059 9.78734C60.4962 10.3394 60.5963 10.888 60.8003 11.4011C61.0044 11.9142 61.3084 12.3816 61.6947 12.7762C62.081 13.1708 62.5418 13.4848 63.0504 13.6997C63.559 13.9147 64.1053 14.0265 64.6575 14.0286C65.2682 14.0286 66.5245 13.7145 67.0305 12.9456V13.8715ZM63.0173 9.78854C63.0239 9.52722 63.0819 9.26976 63.1881 9.0309C63.2943 8.79205 63.4466 8.57649 63.6362 8.39658C63.8259 8.21667 64.0491 8.07593 64.2933 7.98244C64.5374 7.88895 64.7975 7.84453 65.0588 7.85173C65.3165 7.84553 65.5728 7.89112 65.8125 7.98582C66.0523 8.08051 66.2706 8.22238 66.4544 8.403C66.6383 8.58363 66.7841 8.79934 66.883 9.03734C66.982 9.27534 67.0321 9.53079 67.0305 9.78854C67.0335 10.0467 66.9842 10.3027 66.8857 10.5413C66.7873 10.78 66.6416 10.9962 66.4574 11.1771C66.2732 11.358 66.0544 11.4998 65.8141 11.594C65.5738 11.6882 65.3169 11.7329 65.0588 11.7253C64.7975 11.7326 64.5374 11.6881 64.2933 11.5946C64.0491 11.5012 63.8259 11.3604 63.6362 11.1805C63.4466 11.0006 63.2943 10.785 63.1881 10.5462C63.0819 10.3073 63.0239 10.0499 63.0173 9.78854ZM71.1484 1.29102V13.8715H73.5744V1.29102H71.1484Z" fill="#00CBFB"/>
<path d="M27.2571 3.54265C28.2342 3.54265 28.7054 4.48488 28.7054 5.23518C28.7054 6.00292 28.1819 6.9277 27.1873 6.9277H24.9364V3.54265H27.2571ZM22.3721 13.3139H24.937V9.16234H27.3101C30.0495 9.16234 31.2709 7.24298 31.2709 5.23638C31.2709 3.26467 30.0495 1.29297 27.3101 1.29297H22.3721V13.3139ZM38.0055 13.3139H40.4122V5.16538H38.0055V6.07271C37.3437 5.18283 36.1734 4.98969 35.6325 4.98969C35.0804 4.99176 34.5342 5.1035 34.0257 5.31841C33.5171 5.53333 33.0564 5.84714 32.6701 6.24162C32.2839 6.6361 31.9798 7.10339 31.7757 7.61635C31.5715 8.12931 31.4713 8.67772 31.4809 9.22973C31.4712 9.78184 31.5713 10.3304 31.7753 10.8435C31.9794 11.3566 32.2834 11.824 32.6697 12.2186C33.0559 12.6132 33.5168 12.9271 34.0254 13.1421C34.534 13.3571 35.0803 13.4689 35.6325 13.471C36.2432 13.471 37.4995 13.1569 38.0055 12.3879V13.3139ZM33.9923 9.23093C33.9989 8.96961 34.0569 8.71215 34.1631 8.47329C34.2693 8.23444 34.4216 8.01888 34.6112 7.83897C34.8009 7.65906 35.0241 7.51832 35.2682 7.42483C35.5124 7.33134 35.7725 7.28692 36.0338 7.29412C36.2915 7.28792 36.5478 7.33351 36.7875 7.42821C37.0273 7.5229 37.2455 7.66477 37.4294 7.84539C37.6133 8.02602 37.759 8.24173 37.858 8.47973C37.957 8.71773 38.0071 8.97318 38.0055 9.23093C38.0085 9.48906 37.9592 9.74512 37.8607 9.98373C37.7622 10.2223 37.6165 10.4386 37.4324 10.6195C37.2482 10.8004 37.0294 10.9422 36.7891 11.0364C36.5487 11.1306 36.2918 11.1753 36.0338 11.1677C35.7725 11.1749 35.5124 11.1305 35.2682 11.037C35.0241 10.9435 34.8009 10.8028 34.6112 10.6229C34.4216 10.443 34.2693 10.2274 34.1631 9.98857C34.0569 9.74971 33.9989 9.49225 33.9923 9.23093ZM49.8358 5.16538H47.2533L45.4387 9.78929L43.6415 5.16538H41.059L44.1998 12.4758L42.2444 17.3091H44.8093L49.8358 5.16538Z" fill="#1E4686"/>
<path d="M3.29688 16.2721L3.68195 13.9036L4.78543 6.9178L5.26407 3.78906H10.5844C11.8501 3.78906 12.8016 4.1242 13.4123 4.78514C13.7046 5.10454 13.9144 5.49046 14.0236 5.90938C14.134 6.34138 14.1694 6.78911 14.1283 7.23308C14.0143 8.69606 13.5083 9.91868 12.6647 10.7692C12.2437 11.1875 11.7425 11.5165 11.1911 11.7364C10.6398 11.9563 10.0497 12.0625 9.45627 12.0486H8.40935C8.38322 12.1228 8.36497 12.1996 8.3549 12.2776L7.97283 14.7938L7.76706 16.2733L3.29688 16.2721Z" fill="#00CBFB"/>
<g style="mix-blend-mode:multiply">
<g style="mix-blend-mode:multiply">
<path fill-rule="evenodd" clip-rule="evenodd" d="M2.59354 0.689453H7.84146C8.40921 0.689453 9.07924 0.697729 9.73005 0.817286C10.3842 0.937462 11.062 1.17712 11.6228 1.67123L11.6299 1.67746L11.6367 1.68391C12.013 2.037 12.3021 2.47264 12.4813 2.9565C12.6595 3.43769 12.7242 3.95349 12.6704 4.46371C12.5368 6.1078 11.9722 7.44875 11.0549 8.3843C10.1317 9.32575 8.8943 9.81182 7.51294 9.81182H5.54915C5.54262 9.82451 5.53459 9.84211 5.52574 9.86582C5.50371 9.92478 5.48029 10.0115 5.46084 10.1351C5.46083 10.1351 5.46084 10.1351 5.46084 10.1351L4.9494 13.389L4.94914 13.3907L4.76305 14.5531H0.425781L0.63441 13.0647L0.640294 13.0252L2.11517 3.68659L2.14502 3.50215L2.14525 3.50067L2.41099 1.83197V1.82522L2.59354 0.689453ZM3.61435 1.92131V1.92719L3.33317 3.69287L3.30344 3.87655L3.30308 3.87879L1.82973 13.2079L1.82538 13.237L1.80958 13.3497H3.73701L3.76064 13.2021L3.76091 13.2004L4.27207 9.94825C4.32686 9.60002 4.43067 9.26587 4.64305 9.01192C4.88256 8.72553 5.20186 8.60846 5.52438 8.60846H7.51294C8.60058 8.60846 9.51868 8.23218 10.1956 7.5418C10.8769 6.84704 11.3566 5.78951 11.4715 4.35935L11.4722 4.35108L11.4731 4.34284C11.5085 4.01509 11.4674 3.68359 11.3529 3.37445C11.2395 3.06829 11.0572 2.79234 10.8202 2.56792C10.4805 2.27156 10.0372 2.09721 9.51263 2.00084C8.98107 1.90319 8.40998 1.89281 7.84146 1.89281H3.61893L3.61435 1.92131Z" fill="#008EF6"/>
</g>
</g>
</svg>
