<svg width="56" height="22" viewBox="0 0 56 22" fill="none" xmlns="http://www.w3.org/2000/svg">
<path fill-rule="evenodd" clip-rule="evenodd" d="M30.3227 2.98765L26.414 3.77388V0.77193L30.3227 0V2.98765ZM38.4408 4.66017C36.9224 4.66017 35.9302 5.33203 35.389 5.80377L35.1936 4.88889H31.7659V22L35.6596 21.2281L35.6746 17.0682C36.2309 17.4542 37.0577 17.9974 38.4258 17.9974C41.207 17.9974 43.7477 15.8817 43.7477 11.2359C43.7176 6.97596 41.1619 4.66017 38.4408 4.66017ZM37.4937 14.7667C36.5766 14.7667 36.0354 14.4522 35.6596 14.0806L35.6446 8.63418C36.0505 8.20533 36.6067 7.91943 37.4937 7.91943C38.9068 7.91943 39.884 9.4204 39.884 11.3359C39.8991 13.2943 38.9369 14.7667 37.4937 14.7667ZM56 11.3788C56 7.61923 54.0757 4.66017 50.3774 4.66017C46.6792 4.66017 44.4392 7.61923 44.4392 11.3502C44.4392 15.7674 47.0851 17.9974 50.8736 17.9974C52.7227 17.9974 54.1208 17.5971 55.1882 17.0396V14.1092C54.1358 14.6095 52.9181 14.9097 51.3847 14.9097C49.8813 14.9097 48.5434 14.4094 48.363 12.6797H55.9699C55.9699 12.5939 55.9699 12.4081 55.985 12.2079C55.985 11.922 56 11.5789 56 11.3788ZM48.3178 9.97791C48.3178 8.31969 49.3852 7.63353 50.3774 7.63353C51.3246 7.63353 52.3318 8.31969 52.3318 9.97791H48.3178ZM30.3227 4.90318H26.414V17.7544H30.3227V4.90318ZM21.9791 4.90318L22.2346 5.9896C23.1517 4.40286 24.9707 4.73164 25.4668 4.90318V8.2768C24.9858 8.11956 23.4223 7.90513 22.5052 9.03444V17.7401H18.6115V4.90318H21.9791ZM14.4472 1.7154L10.6588 2.47303L10.6438 14.2378C10.6438 16.4107 12.3726 18.0117 14.6728 18.0117C15.9506 18.0117 16.8827 17.7973 17.3938 17.5257V14.5523C16.8977 14.7381 14.4322 15.4243 14.4322 13.2515V8.03379H17.3938V4.90318H14.4322L14.4472 1.7154ZM5.26174 7.83366C4.4349 7.83366 3.93879 8.04808 3.93879 8.61988C3.93879 9.24886 4.7957 9.52047 5.86309 9.86355C7.59195 10.4211 9.87705 11.1501 9.89208 13.8661C9.89208 16.4964 7.66711 18.0117 4.4349 18.0117C3.09691 18.0117 1.63866 17.7687 0.195436 17.1683V13.6803C1.50336 14.3522 3.15705 14.8525 4.4349 14.8525C5.30685 14.8525 5.92322 14.6381 5.92322 13.9519C5.92322 13.2658 4.99114 12.937 3.87866 12.5653C2.1498 11.9935 0 11.2502 0 8.80572C0 6.20403 2.1047 4.64587 5.26174 4.64587C6.55463 4.64587 7.83248 4.83171 9.12537 5.31774V8.76283C7.93772 8.17674 6.43436 7.83366 5.26174 7.83366Z" fill="#635BFF"/>
</svg>
