<svg width="72" height="72" viewBox="0 0 72 72" fill="none" xmlns="http://www.w3.org/2000/svg">
<rect x="36" y="1.35176" width="49" height="49" rx="24.5" transform="rotate(45 36 1.35176)" stroke="#181A1F"/>
<g clip-path="url(#clip0_72_969)">
<path d="M37.0776 42.4225C36.9151 42.26 36.8335 42.0468 36.8335 41.8335C36.8335 41.6201 36.9151 41.4068 37.0776 41.2443L41.4885 36.8335H28.5002C28.0394 36.8335 27.6669 36.461 27.6669 36.0001C27.6669 35.5393 28.0394 35.1668 28.5002 35.1668H41.4885L37.0776 30.7559C36.7518 30.4301 36.7518 29.9035 37.0776 29.5776C37.4035 29.2518 37.9302 29.2518 38.256 29.5776L44.0894 35.411C44.4152 35.7368 44.4152 36.2634 44.0894 36.5892L38.256 42.4225C37.9302 42.7484 37.4035 42.7484 37.0776 42.4225Z" fill="#181A1F"/>
</g>
<defs>
<clipPath id="clip0_72_969">
<rect width="20" height="20" fill="white" transform="translate(36 21.8579) rotate(45)"/>
</clipPath>
</defs>
</svg>
