<svg width="1720" height="500" viewBox="0 0 1720 500" fill="none" xmlns="http://www.w3.org/2000/svg">
<path d="M936.23 466.846L1018.96 481.426C1052.95 487.426 1075.65 519.836 1069.65 553.836L1055.07 636.556C1049.07 670.546 1016.66 693.246 982.66 687.256L899.94 672.666C865.95 666.676 843.25 634.256 849.24 600.266L863.83 517.536C869.82 483.546 902.24 460.846 936.23 466.846Z" stroke="white" stroke-opacity="0.15"/>
<path d="M908.59 407.666L1040.09 419.176C1094.28 423.916 1134.37 471.696 1129.63 525.886L1118.12 657.386C1113.38 711.576 1065.6 751.666 1011.41 746.926L879.91 735.416C825.72 730.676 785.63 682.896 790.37 628.706L801.88 497.206C806.62 443.016 854.4 402.926 908.59 407.666Z" stroke="white" stroke-opacity="0.15"/>
<path d="M867.17 346.876H1051.17C1127.11 346.876 1188.67 408.436 1188.67 484.376V668.376C1188.67 744.316 1127.11 805.876 1051.17 805.876H867.17C791.23 805.876 729.67 744.316 729.67 668.376V484.376C729.67 408.436 791.23 346.876 867.17 346.876Z" stroke="white" stroke-opacity="0.15"/>
<path d="M813.89 288.746L1052.98 267.826C1151.74 259.186 1238.8 332.236 1247.44 430.996L1268.36 670.086C1277 768.846 1203.94 855.906 1105.18 864.546L866.1 885.466C767.34 894.106 680.28 821.046 671.64 722.286L650.72 483.206C642.08 384.446 715.13 297.386 813.89 288.746Z" stroke="white" stroke-opacity="0.15"/>
<path d="M746.53 233.696L1041.97 181.606C1164.07 160.076 1280.51 241.606 1302.04 363.706L1354.14 659.146C1375.67 781.256 1294.14 897.696 1172.03 919.226L876.59 971.316C754.49 992.846 638.05 911.316 616.52 789.216L564.42 493.766C542.89 371.666 624.42 255.226 746.53 233.696Z" stroke="white" stroke-opacity="0.1"/>
<path d="M665.83 185.126L1017.42 90.9158C1162.79 51.9558 1312.22 138.226 1351.17 283.596L1445.38 635.196C1484.33 780.566 1398.06 929.986 1252.69 968.936L901.09 1063.15C755.72 1102.1 606.3 1015.83 567.35 870.466L473.14 518.866C434.19 373.496 520.46 224.076 665.83 185.126Z" stroke="white" stroke-opacity="0.1"/>
<path d="M571.87 144.046L977.82 -3.70399C1145.71 -64.814 1331.34 21.746 1392.45 189.636L1540.2 595.586C1601.31 763.476 1514.75 949.116 1346.86 1010.23L940.91 1157.98C773.02 1219.08 587.38 1132.52 526.27 964.626L378.52 558.676C317.41 390.786 403.98 205.156 571.87 144.046Z" stroke="white" stroke-opacity="0.1"/>
<path d="M465.16 112.756L921.94 -100.244C1110.89 -188.354 1335.5 -106.604 1423.61 82.3459L1636.61 539.126C1724.72 728.076 1642.97 952.686 1454.02 1040.8L997.24 1253.8C808.28 1341.91 583.68 1260.16 495.57 1071.21L282.57 614.426C194.46 425.466 276.21 200.866 465.16 112.756Z" stroke="white" stroke-opacity="0.1"/>
<path d="M346.54 94.516L848.84 -195.484C1056.66 -315.471 1322.39 -244.267 1442.38 -36.444L1732.38 465.846C1852.36 673.666 1781.16 939.396 1573.34 1059.39L1071.04 1349.39C863.23 1469.37 597.49 1398.17 477.51 1190.35L187.51 688.056C67.5208 480.236 138.725 214.496 346.54 94.516Z" stroke="white" stroke-opacity="0.1"/>
<path d="M216.18 90.546L756.82 -288.012C980.54 -444.658 1288.88 -390.289 1445.53 -166.574L1824.09 374.066C1980.73 597.776 1926.36 906.126 1702.65 1062.77L1162.01 1441.33C938.29 1597.98 629.95 1543.61 473.3 1319.9L94.7439 779.256C-61.902 555.536 -7.533 247.196 216.18 90.546Z" stroke="white" stroke-opacity="0.05"/>
<path d="M77.5729 103.986L647.51 -374.25C883.37 -572.163 1235.02 -541.398 1432.93 -305.534L1911.17 264.406C2109.08 500.266 2078.32 851.916 1842.45 1049.83L1272.52 1528.06C1036.65 1725.98 685 1695.21 487.09 1459.35L8.85689 889.406C-189.056 653.546 -158.291 301.896 77.5729 103.986Z" stroke="white" stroke-opacity="0.05"/>
<path d="M-69.4591 135.806L518.85 -452.507C762.35 -695.999 1157.12 -695.999 1400.62 -452.507L1988.93 135.806C2232.42 379.296 2232.42 774.076 1988.93 1017.57L1400.62 1605.89C1157.12 1849.38 762.35 1849.38 518.85 1605.89L-69.4591 1017.57C-312.951 774.076 -312.951 379.296 -69.4591 135.806Z" stroke="white" stroke-opacity="0.05"/>
<path d="M-221.786 188.816L372.15 -519.007C617.99 -811.986 1054.79 -850.201 1347.77 -604.362L2055.59 -10.424C2348.57 235.416 2386.79 672.206 2140.95 965.186L1547.01 1673.02C1301.17 1966 864.37 2004.21 571.39 1758.37L-136.431 1164.44C-429.41 918.596 -467.625 481.796 -221.786 188.816Z" stroke="white" stroke-opacity="0.05"/>
<path d="M-376.983 263.606L208.06 -571.934C450.24 -917.797 926.94 -1001.85 1272.81 -759.676L2108.34 -174.624C2454.2 67.5455 2538.26 544.246 2296.08 890.116L1711.04 1725.65C1468.86 2071.52 992.16 2155.57 646.29 1913.39L-189.241 1328.35C-535.104 1086.17 -619.16 609.466 -376.983 263.606Z" stroke="white" stroke-opacity="0.05"/>
</svg>
