<svg width="70" height="70" viewBox="0 0 70 70" fill="none" xmlns="http://www.w3.org/2000/svg">
<g clip-path="url(#clip0_77_1137)">
<path d="M67.3522 3.22791H31.8782C30.4168 3.22791 29.2322 4.41257 29.2322 5.87396V15.7177H49.9628C51.8796 15.7177 53.4334 17.2715 53.4334 19.1885V32.7952H57.6123L60.7828 36.0375L63.459 32.7952H67.354C68.8154 32.7952 70.0001 31.6106 70.0001 30.1492V5.8756C69.9999 4.41339 68.8146 3.22791 67.3522 3.22791Z" fill="#E95440"/>
<path d="M11.6086 29.7738H43.192C43.947 29.7738 44.5592 29.1617 44.5592 28.4066C44.5592 27.6515 43.947 27.0394 43.192 27.0394H11.6086C10.8537 27.0394 10.2415 27.6515 10.2415 28.4066C10.2415 29.1617 10.8537 29.7738 11.6086 29.7738Z" fill="black"/>
<path d="M44.5592 35.7266C44.5592 34.9715 43.947 34.3594 43.192 34.3594H11.6086C10.8537 34.3594 10.2415 34.9715 10.2415 35.7266C10.2415 36.4817 10.8537 37.0938 11.6086 37.0938H43.192C43.947 37.0938 44.5592 36.4817 44.5592 35.7266Z" fill="black"/>
<path d="M37.3181 43.0466C37.3181 42.2915 36.7059 41.6794 35.9509 41.6794H18.8496C18.0946 41.6794 17.4824 42.2915 17.4824 43.0466C17.4824 43.8017 18.0946 44.4138 18.8496 44.4138H35.9509C36.706 44.4138 37.3181 43.8017 37.3181 43.0466Z" fill="black"/>
<path d="M67.6758 52.7034C67.6758 51.3378 66.9632 50.1082 65.8767 49.4073C66.1531 48.8688 66.3086 48.2607 66.3086 47.6229C66.3086 45.4683 64.5694 43.7155 62.4319 43.7155H57.5358V40.9014C57.5358 39.0859 56.4 37.5303 54.8007 36.9055V19.1883C54.8007 16.5206 52.6304 14.3505 49.9628 14.3505H4.83998C2.17123 14.3505 0 16.5217 0 19.1904V51.0292C0 53.6969 2.17027 55.867 4.83793 55.867H9.30248L12.4027 59.6231C12.6496 59.9222 13.0119 60.1024 13.3995 60.1187C13.4188 60.1195 13.4379 60.1199 13.4571 60.1199C13.8243 60.1199 14.1769 59.9721 14.4345 59.7087L18.1919 55.8662L34.013 55.841V62.0929C34.013 62.848 34.6253 63.4601 35.3802 63.4601H42.6949C43.4499 63.4601 44.0621 62.848 44.0621 62.0929V61.6674H45.7849V61.8092C45.7849 64.5458 48.0112 66.772 50.7478 66.772H61.3203C63.4532 66.772 65.18 65.1151 65.2516 62.9999C65.2695 62.4719 65.1833 61.9636 65.0106 61.496C66.5688 60.9769 67.6758 59.4858 67.6758 57.7838C67.6758 56.8246 67.3243 55.9325 66.7384 55.2434C67.3243 54.5547 67.6758 53.6624 67.6758 52.7034ZM17.6136 53.1326C17.2464 53.1332 16.8949 53.2814 16.6383 53.5439L13.5431 56.7092L11.0011 53.6295C10.7414 53.3149 10.3547 53.1326 9.9467 53.1326H4.83793C3.67814 53.1326 2.73438 52.189 2.73438 51.0292V19.1904C2.73438 18.0294 3.67897 17.0848 4.83998 17.0848H49.9628C51.1226 17.0848 52.0663 18.0285 52.0663 19.1883V36.7751C50.2666 37.2863 48.9446 38.9425 48.9446 40.9011V43.7346C47.1714 43.9205 45.7849 45.4243 45.7849 47.246V48.722H44.0621V48.2965C44.0621 47.5414 43.4499 46.9293 42.6949 46.9293H35.3802C34.6253 46.9293 34.013 47.5414 34.013 48.2965V53.1065L17.6136 53.1326ZM41.3278 60.7257H36.7474V49.6638H41.3278V60.7257ZM64.0015 53.8584H62.2362C61.4812 53.8584 60.869 54.4704 60.869 55.2255C60.869 55.9806 61.4812 56.5927 62.2362 56.5927C62.2362 56.5927 63.9079 56.6149 63.9583 56.622C64.5188 56.7014 64.9414 57.2008 64.9414 57.784C64.9414 58.349 64.5445 58.8356 64.0099 58.9375L61.7016 58.982C60.989 58.9958 60.4064 59.5546 60.3634 60.2661C60.3202 60.9776 60.8307 61.6028 61.5364 61.7026C62.1169 61.7848 62.5393 62.3028 62.5189 62.9075C62.4978 63.5307 61.9601 64.0376 61.3203 64.0376H50.7478C49.5191 64.0376 48.5193 63.0379 48.5193 61.8092V60.3003C48.5193 59.5452 47.9071 58.9331 47.1521 58.9331H44.0621V51.4565H47.1521C47.9071 51.4565 48.5193 50.8444 48.5193 50.0893V47.2461C48.5193 46.8071 48.8764 46.4498 49.3155 46.4498H50.3118C51.0668 46.4498 51.679 45.8377 51.679 45.0826V40.9014C51.679 40.0443 52.3793 39.3469 53.2402 39.3469C54.1011 39.3469 54.8014 40.0443 54.8014 40.9014V45.0826C54.8014 45.8377 55.4136 46.4498 56.1686 46.4498H62.4319C63.0618 46.4498 63.5742 46.9761 63.5742 47.6229C63.5742 48.1793 63.1894 48.6596 62.667 48.7713H62.1333C61.3784 48.7713 60.7662 49.3834 60.7662 50.1385C60.7662 50.8936 61.3784 51.5057 62.1333 51.5057H62.758L64.0147 51.5509C64.5468 51.6547 64.9413 52.1401 64.9413 52.7034C64.9414 53.2713 64.5403 53.7599 64.0015 53.8584Z" fill="black"/>
</g>
<defs>
<clipPath id="clip0_77_1137">
<rect width="70" height="70" fill="white"/>
</clipPath>
</defs>
</svg>
