<svg width="16" height="16" viewBox="0 0 16 16" fill="none" xmlns="http://www.w3.org/2000/svg">
<g clip-path="url(#clip0_67_841)">
<path d="M7.99994 15.9999C5.41994 15.9549 2.13494 10.2749 2.13494 5.86493C2.11787 5.09005 2.25791 4.31974 2.54661 3.60045C2.83531 2.88117 3.2667 2.2278 3.81475 1.67974C4.36281 1.13169 5.01618 0.700305 5.73546 0.411603C6.45475 0.1229 7.22506 -0.0171395 7.99994 -7.30343e-05C8.77481 -0.0171395 9.54512 0.1229 10.2644 0.411603C10.9837 0.700305 11.6371 1.13169 12.1851 1.67974C12.7332 2.2278 13.1646 2.88117 13.4533 3.60045C13.742 4.31974 13.882 5.09005 13.8649 5.86493C13.8649 9.24493 12.0049 13.0949 10.2049 14.8649C9.43994 15.6199 8.70494 15.9999 7.99994 15.9999ZM7.99994 1.06493C7.36376 1.04332 6.72994 1.1527 6.1378 1.38627C5.54566 1.61985 5.00785 1.97264 4.55775 2.42274C4.10765 2.87284 3.75486 3.41065 3.52128 4.00279C3.28771 4.59493 3.17833 5.22875 3.19994 5.86493C3.19994 10.0899 6.33494 14.9049 8.00994 14.9299C8.57592 14.8359 9.08995 14.5434 9.45994 14.1049C11.0649 12.5249 12.7999 8.92493 12.7999 5.86493C12.8215 5.22875 12.7122 4.59493 12.4786 4.00279C12.245 3.41065 11.8922 2.87284 11.4421 2.42274C10.992 1.97264 10.4542 1.61985 9.86207 1.38627C9.26994 1.1527 8.63611 1.04332 7.99994 1.06493Z" fill="#181A1F"/>
<path d="M7.99996 8.53508C7.47288 8.53508 6.95762 8.37878 6.51937 8.08595C6.08111 7.79311 5.73953 7.3769 5.53782 6.88993C5.33612 6.40297 5.28334 5.86712 5.38617 5.35016C5.489 4.8332 5.74282 4.35835 6.11552 3.98564C6.48823 3.61293 6.96309 3.35912 7.48005 3.25629C7.99701 3.15346 8.53285 3.20623 9.01981 3.40794C9.50678 3.60965 9.92299 3.95123 10.2158 4.38948C10.5087 4.82774 10.665 5.34299 10.665 5.87008C10.6636 6.57648 10.3824 7.25356 9.88294 7.75306C9.38344 8.25256 8.70636 8.53376 7.99996 8.53508ZM7.99996 4.27008C7.68351 4.27008 7.37417 4.36392 7.11105 4.53973C6.84793 4.71554 6.64286 4.96542 6.52176 5.25779C6.40066 5.55015 6.36897 5.87185 6.43071 6.18222C6.49244 6.49259 6.64483 6.77769 6.86859 7.00145C7.09236 7.22521 7.37745 7.3776 7.68782 7.43934C7.99819 7.50107 8.31989 7.46939 8.61226 7.34829C8.90462 7.22719 9.1545 7.02211 9.33031 6.75899C9.50612 6.49587 9.59996 6.18653 9.59996 5.87008C9.60062 5.65954 9.55972 5.45095 9.47961 5.25625C9.3995 5.06155 9.28174 4.88458 9.1331 4.73547C8.98447 4.58637 8.80786 4.46807 8.61341 4.38735C8.41897 4.30663 8.2105 4.26508 7.99996 4.26508V4.27008Z" fill="#181A1F"/>
</g>
<defs>
<clipPath id="clip0_67_841">
<rect width="16" height="16" fill="white"/>
</clipPath>
</defs>
</svg>
