<svg width="16" height="16" viewBox="0 0 16 16" fill="none" xmlns="http://www.w3.org/2000/svg">
<path d="M14.1087 6.38819L3.31716 0.246297C2.17244 -0.40722 1.00537 0.307498 1.00537 1.59271V14.4145C1.00537 15.5034 1.71424 15.9999 2.37307 15.9999C2.68334 15.9999 2.99945 15.902 3.31344 15.7109L14.1534 9.0757C14.6984 8.74096 15.0044 8.2455 14.9948 7.71598C14.9857 7.18593 14.6632 6.70164 14.1087 6.38819ZM13.427 7.89053L2.58754 14.5242C2.51463 14.5689 2.45716 14.5912 2.41778 14.6024C2.40713 14.563 2.39649 14.5023 2.39649 14.4145V1.59325C2.39649 1.46126 2.42044 1.39474 2.42044 1.37824C2.46301 1.38091 2.53752 1.40272 2.63118 1.45594L13.4211 7.59784C13.5542 7.67394 13.5936 7.73993 13.6063 7.72556C13.5994 7.74365 13.5542 7.81124 13.427 7.89053Z" fill="#181A1F"/>
</svg>
