<svg width="70" height="70" viewBox="0 0 70 70" fill="none" xmlns="http://www.w3.org/2000/svg">
<g clip-path="url(#clip0_77_1089)">
<path d="M24.2641 57.0212L1.94601 46.6878C1.45741 46.4617 0.881859 46.5432 0.475556 46.8959C0.0691171 47.2487 -0.0926111 47.8071 0.062555 48.3225L3.05364 58.2618L0.0624183 68.2011C-0.218384 69.0453 0.488817 69.9886 1.37183 69.9622C1.56637 69.9622 1.76241 69.9206 1.94601 69.8357L24.2641 59.5025C25.3058 59.0411 25.314 57.4849 24.2641 57.0212V57.0212ZM3.55714 66.0766L5.7903 58.6557C5.86768 58.3988 5.86768 58.1247 5.7903 57.8677L3.55714 50.4468L20.4358 58.2617L3.55714 66.0766Z" fill="black"/>
<path d="M29.0985 40.5186H26.3643C24.5535 40.5853 24.5526 43.1858 26.3643 43.2528H29.0985C30.9092 43.1862 30.91 40.5855 29.0985 40.5186Z" fill="black"/>
<path d="M10.2187 37.6158C11.0179 37.6201 11.6595 36.9196 11.5817 36.1232C11.5682 35.9766 11.5614 35.8271 11.5614 35.6786C11.5614 35.1128 11.6594 34.5581 11.8527 34.03C12.4162 32.3102 9.96608 31.4117 9.28513 33.09C8.98122 33.9202 8.82715 34.7912 8.82715 35.6786C8.82715 35.9103 8.83781 36.1442 8.859 36.3738C8.92435 37.0833 9.52027 37.6158 10.2187 37.6158V37.6158Z" fill="black"/>
<path d="M17.0191 30.8388H19.7533C21.564 30.7721 21.565 28.1716 19.7533 28.1046H17.0191C15.2082 28.1713 15.2074 30.7718 17.0191 30.8388V30.8388Z" fill="black"/>
<path d="M32.0574 29.4717C32.0574 28.7167 31.4453 28.1046 30.6903 28.1046H27.9561C26.1453 28.1713 26.1444 30.7718 27.9561 30.8388H30.6903C31.4453 30.8388 32.0574 30.2268 32.0574 29.4717Z" fill="black"/>
<path d="M15.2174 43.1598C15.9627 43.3051 17.3908 43.2386 18.1615 43.2529C19.9722 43.1862 19.9731 40.5856 18.1615 40.5187C17.6142 40.5109 16.1655 40.5569 15.6457 40.4595C13.8492 40.2364 13.4398 42.815 15.2174 43.1598Z" fill="black"/>
<path d="M53.9311 29.4717C53.9311 28.7167 53.3191 28.1046 52.564 28.1046H49.8298C48.0191 28.1713 48.0182 30.7718 49.8298 30.8388H52.564C53.3191 30.8388 53.9311 30.2268 53.9311 29.4717Z" fill="black"/>
<path d="M55.3672 54.9895C54.8145 55.5199 54.1841 55.9509 53.4936 56.2704C52.8082 56.5875 52.5098 57.4001 52.827 58.0853C53.1448 58.7774 53.9723 59.0662 54.6418 58.7519C55.6077 58.3048 56.4888 57.7027 57.2603 56.9622C58.5226 55.6648 56.7162 53.7812 55.3672 54.9895V54.9895Z" fill="black"/>
<path d="M51.0244 40.5259C50.845 40.516 48.4816 40.5182 48.2378 40.5188C46.4272 40.5854 46.426 43.1859 48.2378 43.253C48.431 43.2576 50.8584 43.2459 50.9727 43.2591C52.746 43.2023 52.7991 40.6519 51.0244 40.5259Z" fill="black"/>
<path d="M60.0253 48.215C59.8171 47.1688 59.4355 46.17 58.8914 45.2464C57.9195 43.7197 55.6706 45.0431 56.5357 46.6344C56.9237 47.2929 57.1956 48.0042 57.3438 48.7489C57.7624 50.5164 60.3187 49.9959 60.0253 48.215V48.215Z" fill="black"/>
<path d="M35.0384 56.8947H32.3042C30.4935 56.9614 30.4925 59.5619 32.3042 59.6289H35.0384C36.8493 59.5621 36.8501 56.9615 35.0384 56.8947Z" fill="black"/>
<path d="M45.9754 56.8947H43.2412C41.4305 56.9614 41.4295 59.5619 43.2412 59.6289H45.9754C47.7861 59.5621 47.7871 56.9615 45.9754 56.8947Z" fill="black"/>
<path d="M40.0352 40.5186H37.301C35.4903 40.5853 35.4893 43.1858 37.301 43.2528H40.0352C41.846 43.1862 41.8469 40.5855 40.0352 40.5186Z" fill="black"/>
<path d="M42.9941 29.4717C42.9941 28.7167 42.3821 28.1046 41.627 28.1046H38.8928C37.0821 28.1713 37.0811 30.7718 38.8928 30.8388H41.627C42.3821 30.8388 42.9941 30.2268 42.9941 29.4717Z" fill="black"/>
<path fill-rule="evenodd" clip-rule="evenodd" d="M47.6819 11.1256C47.6819 17.3053 54.981 25.0442 58.841 29.4718C62.701 25.0442 70.0001 17.3053 70.0001 11.1256C69.4531 -3.66112 48.2264 -3.65633 47.6819 11.1256V11.1256ZM63.0257 11.1256C63.0257 13.4367 61.1521 15.3103 58.841 15.3103C53.2962 15.1051 53.2977 7.14528 58.841 6.94089C61.1521 6.94089 63.0257 8.81451 63.0257 11.1256Z" fill="#E95440"/>
</g>
<defs>
<clipPath id="clip0_77_1089">
<rect width="70" height="70" fill="white"/>
</clipPath>
</defs>
</svg>
