<svg width="70" height="70" viewBox="0 0 70 70" fill="none" xmlns="http://www.w3.org/2000/svg">
<g clip-path="url(#clip0_77_1107)">
<path fill-rule="evenodd" clip-rule="evenodd" d="M15.3303 23.0796L17.7021 27.1798L20.0739 23.0796L24.1741 20.7078L20.0739 18.3362L17.7021 14.236L15.3303 18.3362L11.2263 20.7078L15.3303 23.0796Z" fill="#E95440"/>
<path fill-rule="evenodd" clip-rule="evenodd" d="M30.2778 16.848L32.8898 21.3628L35.4979 16.848L40.0127 14.2398L35.4979 11.6278L32.8898 7.11292L30.2778 11.6278L25.7629 14.2398L30.2778 16.848Z" fill="#E95440"/>
<path fill-rule="evenodd" clip-rule="evenodd" d="M6.81592 43.8402H20.2753V34.2563H15.4388C12.8268 34.2563 11.2572 35.0236 10.0016 37.5118L6.81592 43.8402Z" fill="#E95440"/>
<path fill-rule="evenodd" clip-rule="evenodd" d="M31.6265 34.2563H42.9815V43.8402H31.6265V34.2563Z" fill="#E95440"/>
<path d="M65.7098 43.8034C63.7666 42.9579 61.1721 42.473 58.5916 42.473H57.3914L51.3829 35.3943C49.4018 33.0618 48.1106 32.9408 45.3789 32.8894C45.3703 32.8893 45.3618 32.8892 45.3532 32.8892H15.4388C12.1462 32.8892 10.2174 34.0499 8.78049 36.8969L5.97365 42.473H2.62281C1.1766 42.473 0 43.6496 0 45.0958V54.9742C0 56.4204 1.1766 57.597 2.62281 57.597H9.98047C10.4772 60.594 13.086 62.8869 16.2217 62.8869C19.3573 62.8869 21.9661 60.5938 22.4629 57.597H46.5607C47.0574 60.594 49.6662 62.8869 52.8019 62.8869C55.9375 62.8869 58.5462 60.5938 59.0431 57.597H65.5442C68.0012 57.597 70.0001 55.5999 70.0001 53.145V49.3781C70 47.6865 69.2557 45.3463 65.7098 43.8034ZM11.2221 38.1275C12.1789 36.2319 13.2035 35.6234 15.4388 35.6234H45.34C47.6216 35.6663 48.0354 35.6769 49.2986 37.1639L53.8048 42.473H9.03479L11.2221 38.1275ZM16.2217 60.1527C14.2404 60.1527 12.6283 58.5406 12.6283 56.5593C12.6283 54.5779 14.2404 52.9659 16.2217 52.9659C18.203 52.9659 19.8151 54.5779 19.8151 56.5593C19.8151 58.5406 18.203 60.1527 16.2217 60.1527ZM52.8017 60.1527C50.8204 60.1527 49.2084 58.5406 49.2084 56.5593C49.2084 54.5779 50.8204 52.9659 52.8017 52.9659C54.7831 52.9659 56.3951 54.5779 56.3951 56.5593C56.3951 58.5406 54.7831 60.1527 52.8017 60.1527ZM65.5441 54.8627H58.8965C58.1529 52.1952 55.703 50.2317 52.8017 50.2317C49.9004 50.2317 47.4504 52.1952 46.707 54.8627H22.3165C21.5729 52.1952 19.123 50.2317 16.2217 50.2317C13.3204 50.2317 10.8704 52.1952 10.1269 54.8627H2.73438V51.2531H5.07213C5.82723 51.2531 6.43932 50.641 6.43932 49.8859C6.43932 49.1308 5.82723 48.5187 5.07213 48.5187H2.73438V45.2074H58.5916C62.0784 45.2074 67.2656 46.3182 67.2656 49.3781V49.53H64.7303C63.9752 49.53 63.3631 50.1421 63.3631 50.8972C63.3631 51.6523 63.9752 52.2644 64.7303 52.2644H67.2656V53.145C67.2656 54.0922 66.4934 54.8627 65.5441 54.8627Z" fill="black"/>
<path d="M34.347 48.6698H28.3169C27.5618 48.6698 26.9497 49.2819 26.9497 50.037C26.9497 50.7921 27.5618 51.4042 28.3169 51.4042H34.347C35.1021 51.4042 35.7142 50.7921 35.7142 50.037C35.7142 49.2819 35.1021 48.6698 34.347 48.6698Z" fill="black"/>
</g>
<defs>
<clipPath id="clip0_77_1107">
<rect width="70" height="70" fill="white"/>
</clipPath>
</defs>
</svg>
