<svg width="22" height="22" viewBox="0 0 22 22" fill="none" xmlns="http://www.w3.org/2000/svg">
<path d="M11.0004 1.22222C9.06658 1.22222 7.17614 1.79568 5.5682 2.87007C3.96025 3.94447 2.70701 5.47155 1.96695 7.25821C1.22689 9.04486 1.03326 11.0108 1.41054 12.9076C1.78782 14.8043 2.71906 16.5465 4.08651 17.9139C5.45395 19.2814 7.19619 20.2126 9.09289 20.5899C10.9896 20.9672 12.9556 20.7736 14.7422 20.0335C16.5289 19.2934 18.056 18.0402 19.1304 16.4322C20.2048 14.8243 20.7782 12.9339 20.7782 11C20.7782 8.40677 19.7481 5.91976 17.9144 4.08607C16.0807 2.25238 13.5937 1.22222 11.0004 1.22222ZM2.52433 11C2.52149 8.80837 3.36828 6.70096 4.88675 5.12062C6.40523 3.54027 8.47715 2.61003 10.6671 2.52537C12.8571 2.44072 14.9947 3.20823 16.6306 4.66664C18.2666 6.12505 19.2735 8.1608 19.4399 10.3461H17.521C17.3476 10.3461 17.1813 10.415 17.0586 10.5376C16.936 10.6603 16.8671 10.8266 16.8671 11C16.8655 12.5554 16.2469 14.0467 15.147 15.1466C14.0471 16.2464 12.5559 16.8651 11.0004 16.8667C10.827 16.8667 10.6607 16.9356 10.5381 17.0582C10.4154 17.1808 10.3466 17.3471 10.3466 17.5206V19.4456C8.21953 19.2796 6.23319 18.3181 4.78345 16.7528C3.33372 15.1876 2.52708 13.1335 2.52433 11ZM11.6543 19.4394V18.1439C13.3236 17.9898 14.8863 17.2565 16.0716 16.0712C17.2569 14.8858 17.9902 13.3231 18.1443 11.6539H19.446C19.2876 13.667 18.4156 15.5575 16.9872 16.9848C15.5587 18.4121 13.6676 19.2826 11.6543 19.4394Z" fill="white"/>
<path d="M12.4968 13.4444L13.444 12.4972L11.6779 10.7311V6.45333H10.3457V11C10.3462 11.1717 10.4143 11.3364 10.5351 11.4583L12.4968 13.4444Z" fill="white"/>
</svg>
