<svg width="22" height="22" viewBox="0 0 22 22" fill="none" xmlns="http://www.w3.org/2000/svg">
<path d="M10.9996 20.7778C12.9334 20.7778 14.8239 20.2043 16.4318 19.1299C18.0398 18.0555 19.293 16.5285 20.0331 14.7418C20.7731 12.9551 20.9667 10.9892 20.5895 9.09245C20.2122 7.19575 19.2809 5.45352 17.9135 4.08607C16.546 2.71862 14.8038 1.78738 12.9071 1.4101C11.0104 1.03283 9.04442 1.22646 7.25777 1.96651C5.47111 2.70657 3.94403 3.95981 2.86963 5.56776C1.79524 7.17571 1.22178 9.06614 1.22178 11C1.22178 13.5932 2.25194 16.0802 4.08563 17.9139C5.91932 19.7476 8.40633 20.7778 10.9996 20.7778ZM10.9996 2.52389C12.676 2.52389 14.3147 3.02101 15.7086 3.95237C17.1025 4.88374 18.1889 6.20753 18.8305 7.75634C19.472 9.30514 19.6399 11.0094 19.3128 12.6536C18.9858 14.2978 18.1785 15.8081 16.9931 16.9935C15.8077 18.1789 14.2974 18.9862 12.6532 19.3133C11.009 19.6403 9.3047 19.4724 7.75589 18.8309C6.20709 18.1894 4.8833 17.103 3.95193 15.7091C3.02056 14.3152 2.52345 12.6764 2.52345 11C2.52507 8.7525 3.4186 6.5975 5.00783 5.00828C6.59706 3.41905 8.75205 2.52551 10.9996 2.52389Z" fill="white"/>
<path d="M8.39101 14.5139H12.956V13.2061H8.39101C8.04011 13.2061 7.70359 13.0667 7.45547 12.8186C7.20735 12.5705 7.06795 12.234 7.06795 11.8831C7.06795 11.5322 7.20735 11.1956 7.45547 10.9475C7.70359 10.6994 8.04011 10.56 8.39101 10.56H15.5655C15.6993 10.5591 15.8296 10.5171 15.9388 10.4398C16.0481 10.3624 16.1309 10.2534 16.1762 10.1275C16.2215 10.0016 16.2271 9.86476 16.1922 9.73556C16.1573 9.60636 16.0836 9.49098 15.981 9.405L13.3716 7.22945L12.5343 8.23167L13.7566 9.25222H8.3849C7.69283 9.25222 7.02911 9.52715 6.53974 10.0165C6.05038 10.5059 5.77545 11.1696 5.77545 11.8617C5.77219 12.5597 6.04554 13.2307 6.53571 13.7277C7.02588 14.2248 7.69296 14.5074 8.39101 14.5139Z" fill="white"/>
</svg>
