<svg width="22" height="22" viewBox="0 0 22 22" fill="none" xmlns="http://www.w3.org/2000/svg">
<path d="M17.521 3.17778H16.2132V1.22222H14.9115V3.17778H7.08932V1.22222H5.78766V3.17778H4.47988C3.61651 3.17939 2.78896 3.52308 2.17846 4.13358C1.56796 4.74408 1.22427 5.57163 1.22266 6.435V17.5206C1.22427 18.3839 1.56796 19.2115 2.17846 19.822C2.78896 20.4325 3.61651 20.7762 4.47988 20.7778H17.521C18.3844 20.7762 19.2119 20.4325 19.8224 19.822C20.4329 19.2115 20.7766 18.3839 20.7782 17.5206V6.435C20.7766 5.57163 20.4329 4.74408 19.8224 4.13358C19.2119 3.52308 18.3844 3.17939 17.521 3.17778ZM19.4765 17.5206C19.4765 18.0392 19.2705 18.5366 18.9038 18.9033C18.537 19.2701 18.0396 19.4761 17.521 19.4761H4.47988C3.96123 19.4761 3.46383 19.2701 3.09709 18.9033C2.73035 18.5366 2.52432 18.0392 2.52432 17.5206V6.435C2.52432 5.91635 2.73035 5.41895 3.09709 5.05221C3.46383 4.68548 3.96123 4.47944 4.47988 4.47944H5.78766V6.435H7.08932V4.47944H14.9115V6.435H16.2132V4.47944H17.5149C18.0335 4.47944 18.5309 4.68548 18.8977 5.05221C19.2644 5.41895 19.4704 5.91635 19.4704 6.435L19.4765 17.5206Z" fill="white"/>
<path d="M16.2136 12.3017H13.6103C13.265 12.3017 12.934 12.4388 12.6898 12.6829C12.4457 12.927 12.3086 13.2581 12.3086 13.6033V16.2128C12.3086 16.558 12.4457 16.8891 12.6898 17.1332C12.934 17.3773 13.265 17.5144 13.6103 17.5144H16.2197C16.5649 17.5144 16.896 17.3773 17.1401 17.1332C17.3842 16.8891 17.5214 16.558 17.5214 16.2128V13.6094C17.5214 13.2642 17.3842 12.9331 17.1401 12.689C16.896 12.4449 16.5649 12.3078 16.2197 12.3078L16.2136 12.3017ZM16.2136 16.2128H13.6103V13.6094H16.2197L16.2136 16.2128Z" fill="white"/>
</svg>
