<svg width="20" height="20" viewBox="0 0 20 20" fill="none" xmlns="http://www.w3.org/2000/svg">
<g clip-path="url(#clip0_90_2594)">
<path d="M10 0C8.02219 0 6.08879 0.58649 4.4443 1.6853C2.79981 2.78412 1.51809 4.3459 0.761209 6.17317C0.00433281 8.00043 -0.193701 10.0111 0.192152 11.9509C0.578004 13.8907 1.53041 15.6725 2.92894 17.0711C4.32746 18.4696 6.10929 19.422 8.0491 19.8079C9.98891 20.1937 11.9996 19.9957 13.8268 19.2388C15.6541 18.4819 17.2159 17.2002 18.3147 15.5557C19.4135 13.9112 20 11.9778 20 10C20 7.34784 18.9464 4.8043 17.0711 2.92893C15.1957 1.05357 12.6522 0 10 0V0ZM10.6688 18.6313V17.3312C10.6527 17.1658 10.5756 17.0123 10.4526 16.9006C10.3295 16.7889 10.1693 16.7271 10.0031 16.7271C9.83695 16.7271 9.67671 16.7889 9.55366 16.9006C9.43061 17.0123 9.35355 17.1658 9.3375 17.3312V18.6313C7.27849 18.4708 5.34439 17.5806 3.88346 16.1208C2.42253 14.661 1.53077 12.7276 1.36875 10.6687H2.66875C2.83416 10.6527 2.98767 10.5756 3.09936 10.4526C3.21105 10.3295 3.27293 10.1693 3.27293 10.0031C3.27293 9.83694 3.21105 9.67671 3.09936 9.55366C2.98767 9.4306 2.83416 9.35355 2.66875 9.3375H1.36875C1.52916 7.27849 2.4194 5.34438 3.87918 3.88346C5.33896 2.42253 7.27237 1.53077 9.33125 1.36875V2.66875C9.3473 2.83416 9.42436 2.98766 9.54741 3.09936C9.67046 3.21105 9.8307 3.27292 9.99688 3.27292C10.1631 3.27292 10.3233 3.21105 10.4463 3.09936C10.5694 2.98766 10.6465 2.83416 10.6625 2.66875V1.36875C12.7215 1.52915 14.6556 2.4194 16.1165 3.87918C17.5775 5.33896 18.4692 7.27236 18.6313 9.33125H17.3313C17.1658 9.3473 17.0123 9.42436 16.9006 9.54741C16.789 9.67046 16.7271 9.83069 16.7271 9.99687C16.7271 10.1631 16.789 10.3233 16.9006 10.4463C17.0123 10.5694 17.1658 10.6465 17.3313 10.6625H18.6313C18.4708 12.7215 17.5806 14.6556 16.1208 16.1165C14.661 17.5775 12.7276 18.4692 10.6688 18.6313Z" fill="white"/>
<path d="M9.99998 4.66895C9.82261 4.66895 9.65251 4.7394 9.5271 4.86482C9.40168 4.99023 9.33123 5.16033 9.33123 5.3377V9.3377H7.33123C7.16582 9.35374 7.01231 9.4308 6.90062 9.55385C6.78893 9.67691 6.72705 9.83714 6.72705 10.0033C6.72705 10.1695 6.78893 10.3297 6.90062 10.4528C7.01231 10.5758 7.16582 10.6529 7.33123 10.6689H9.99998C10.1773 10.6689 10.3474 10.5985 10.4729 10.4731C10.5983 10.3477 10.6687 10.1776 10.6687 10.0002V5.33145C10.6671 5.15517 10.5959 4.98667 10.4707 4.8626C10.3454 4.73854 10.1763 4.66894 9.99998 4.66895Z" fill="white"/>
</g>
<defs>
<clipPath id="clip0_90_2594">
<rect width="20" height="20" fill="white"/>
</clipPath>
</defs>
</svg>
