<svg width="22" height="22" viewBox="0 0 22 22" fill="none" xmlns="http://www.w3.org/2000/svg">
<path d="M11.0004 20.7778C9.06658 20.7778 7.17614 20.2043 5.5682 19.1299C3.96025 18.0555 2.70701 16.5285 1.96695 14.7418C1.22689 12.9551 1.03326 10.9892 1.41054 9.09245C1.78782 7.19575 2.71906 5.45352 4.08651 4.08607C5.45395 2.71862 7.19619 1.78738 9.09289 1.4101C10.9896 1.03283 12.9556 1.22646 14.7422 1.96651C16.5289 2.70657 18.056 3.95981 19.1304 5.56776C20.2048 7.17571 20.7782 9.06614 20.7782 11C20.7782 13.5932 19.7481 16.0802 17.9144 17.9139C16.0807 19.7476 13.5937 20.7778 11.0004 20.7778ZM11.0004 2.52389C9.32402 2.52389 7.68525 3.02101 6.29136 3.95237C4.89747 4.88374 3.81107 6.20753 3.16953 7.75634C2.528 9.30514 2.36014 11.0094 2.68719 12.6536C3.01425 14.2978 3.82152 15.8081 5.00692 16.9935C6.19233 18.1789 7.70263 18.9862 9.34683 19.3133C10.991 19.6403 12.6953 19.4724 14.2441 18.8309C15.7929 18.1894 17.1167 17.103 18.0481 15.7091C18.9794 14.3152 19.4766 12.6764 19.4766 11C19.4749 8.7525 18.5814 6.5975 16.9922 5.00828C15.4029 3.41905 13.2479 2.52551 11.0004 2.52389Z" fill="white"/>
<path d="M13.609 14.5139H9.04399V13.2061H13.609C13.9599 13.2061 14.2964 13.0667 14.5445 12.8186C14.7927 12.5705 14.932 12.234 14.932 11.8831C14.932 11.5322 14.7927 11.1956 14.5445 10.9475C14.2964 10.6994 13.9599 10.56 13.609 10.56H6.43455C6.30072 10.5591 6.17039 10.5171 6.06116 10.4398C5.95194 10.3624 5.86908 10.2534 5.82377 10.1275C5.77846 10.0016 5.77288 9.86476 5.8078 9.73556C5.84271 9.60636 5.91643 9.49098 6.01899 9.405L8.62844 7.22945L9.46566 8.23167L8.24344 9.25222H13.6151C14.3072 9.25222 14.9709 9.52715 15.4603 10.0165C15.9496 10.5059 16.2245 11.1696 16.2245 11.8617C16.2278 12.5597 15.9545 13.2307 15.4643 13.7277C14.9741 14.2248 14.307 14.5074 13.609 14.5139Z" fill="white"/>
</svg>
