<svg width="14" height="17" viewBox="0 0 14 17" fill="none" xmlns="http://www.w3.org/2000/svg">
<path d="M11.1797 8.70703C11.1797 7.40625 11.7773 6.45703 12.9375 5.71875C12.2695 4.76953 11.2852 4.27734 9.98438 4.17188C8.71875 4.06641 7.34766 4.875 6.85547 4.875C6.32812 4.875 5.13281 4.20703 4.18359 4.20703C2.21484 4.24219 0.140625 5.75391 0.140625 8.88281C0.140625 9.79688 0.28125 10.7461 0.632812 11.7305C1.08984 13.0312 2.70703 16.1953 4.39453 16.125C5.27344 16.125 5.90625 15.4922 7.06641 15.4922C8.19141 15.4922 8.75391 16.125 9.73828 16.125C11.4609 16.125 12.9375 13.2422 13.3594 11.9414C11.0742 10.8516 11.1797 8.77734 11.1797 8.70703ZM9.21094 2.94141C10.1602 1.81641 10.0547 0.761719 10.0547 0.375C9.21094 0.445312 8.22656 0.972656 7.66406 1.60547C7.03125 2.30859 6.67969 3.1875 6.75 4.13672C7.66406 4.20703 8.50781 3.75 9.21094 2.94141Z" fill="white"/>
</svg>
