<svg width="770" height="538" viewBox="0 0 770 538" fill="none" xmlns="http://www.w3.org/2000/svg">
<g clip-path="url(#clip0_168_8765)">
<path d="M768.874 535.688H749.944C750.254 535.138 751.25 534.249 751.25 532.702C751.239 529.527 751.292 544.204 751.138 501.651H756.36L746.703 388.253L736.482 395.83C736.363 395.918 736.229 395.981 736.086 396.016C735.944 396.052 735.796 396.059 735.65 396.037C735.505 396.015 735.365 395.964 735.239 395.888C735.114 395.812 735.004 395.711 734.917 395.592C734.829 395.474 734.766 395.339 734.731 395.195C734.696 395.052 734.689 394.903 734.711 394.757C734.733 394.611 734.783 394.471 734.859 394.344C734.935 394.218 735.035 394.108 735.153 394.02C746.465 385.709 745.976 385.833 746.501 385.833L738.842 295.911C739.046 295.856 739.231 295.743 739.374 295.587C739.518 295.431 739.615 295.237 739.653 295.028C739.653 294.308 741.3 285.997 743.548 266.758C751.02 269.318 760.613 269.066 763.494 261.85C776.799 228.694 758.316 188.528 739.857 172.289C727.56 161.48 702.754 160.846 699.76 160.823L697.62 152.929C697.643 152.908 697.667 152.908 697.688 152.884C701.09 150.737 709.823 129.409 696.202 128.097C696.202 128.097 686.702 116.584 672.609 127.124C671.723 127.768 671.004 128.616 670.51 129.596C670.017 130.577 669.764 131.661 669.773 132.76C669.794 134.05 670.222 135.293 671.483 135.926C671.055 139.815 670.767 145.606 671.641 151.17C672.946 159.175 678.327 160.238 680.759 160.328L681.051 163.405C674.5 164.468 667.903 165.713 664.368 166.934C652.24 171.284 623.413 189.694 611.577 197.579L596.893 155.218C596.806 154.98 596.645 154.777 596.434 154.639C596.223 154.5 595.974 154.434 595.722 154.45L593.201 154.674C593.222 151.6 593.246 131.628 589.798 125.478C584.824 116.5 576.726 114.864 570.505 115.21V98.7407H653.196C653.344 98.7421 653.491 98.7139 653.628 98.6576C653.765 98.6014 653.89 98.5182 653.995 98.413C654.099 98.3078 654.182 98.1827 654.238 98.045C654.294 97.9073 654.322 97.7597 654.321 97.611V54.097C654.32 53.7973 654.202 53.5101 653.991 53.298C653.78 53.086 653.495 52.9664 653.196 52.9655H570.516V24.3789C570.515 24.0791 570.396 23.7918 570.185 23.5798C569.974 23.3678 569.688 23.2483 569.39 23.2474C300.964 22.9847 310.924 23.3373 310.693 23.5424L219.828 106.856C219.716 106.964 219.627 107.094 219.565 107.238C219.504 107.381 219.471 107.536 219.47 107.692V216.634L197.002 222.267C196.259 214.147 192.072 172.962 180.927 164.21C180.339 163.62 177.882 161.836 177.524 161.836C170.408 157.765 158.495 156.101 150.329 155.504C155.975 150.603 158.029 137.489 156.272 130.218C160.493 127.797 163.222 115.695 155.416 115.586C151.162 115.541 147.335 118.367 138.351 115.586C129.367 112.805 127.455 120.108 129.398 123.636C129.398 123.636 121.022 121.623 122.553 132.186C123.832 141.125 127.299 146.621 130.363 148.231V148.254C130.72 148.883 131.14 149.474 131.616 150.019V155.309C121.656 155.766 104.039 157.979 96.1604 164.176C86.8846 171.482 82.1124 206.582 81.0988 214.994L55.6602 199.57C55.4117 199.421 55.1168 199.371 54.8335 199.43C54.5502 199.488 54.2989 199.651 54.1291 199.887L52.4673 202.324C45.8704 196.67 35.5363 188.505 29.7738 187.647C25.9453 187.08 16.4009 191.694 15.3426 192.214C14.9146 192.441 14.689 193.051 14.7356 193.526C14.9021 194.971 15.5621 196.315 16.6033 197.327C14.8726 197.372 13.1411 197.281 11.4246 197.055C5.82683 196.28 4.24206 199.629 6.09006 202.142C3.05841 202.781 2.09323 205.454 4.40144 207.865C3.32702 208.613 2.8686 210.191 3.83916 211.777C1.53274 213.139 1.48081 216.48 6.11155 218.743C13.6092 223.24 30.9664 218.811 34.478 217.843L39.1338 221.916L37.6243 224.109C37.4717 224.325 37.4016 224.59 37.4265 224.854C37.4515 225.118 37.5699 225.364 37.7603 225.548C47.0218 234.852 74.4356 259.251 87.4683 257.594C92.4823 256.961 95.9562 253.886 98.3432 250.085C96.2481 264.561 94.6723 283.444 98.7479 292.649C99.4467 294.214 100.283 295.713 101.246 297.129C99.1311 314.656 98.4095 345.867 105.411 392.455C105.712 392.409 106.019 392.481 106.267 392.658L119.955 402.995C120.191 403.177 120.346 403.445 120.388 403.74C120.43 404.036 120.356 404.337 120.181 404.578C120.002 404.818 119.735 404.976 119.44 405.019C119.144 405.061 118.844 404.984 118.605 404.805L105.83 395.15L101.282 499.955H106.256C106.144 504.585 106.156 525.348 106.145 532.695C106.145 534.219 107.094 535.046 107.451 535.681H78.2319C78.3657 530.962 77.6536 526.258 76.1296 521.792C76.0838 521.649 76.0101 521.517 75.9129 521.403C75.8156 521.289 75.6967 521.195 75.5631 521.128C75.4295 521.061 75.2839 521.021 75.1348 521.011C74.9857 521.001 74.8361 521.021 74.6947 521.069C74.5534 521.118 74.423 521.194 74.3114 521.294C74.1998 521.394 74.1091 521.515 74.0447 521.651C73.9802 521.786 73.9432 521.933 73.936 522.083C73.9287 522.233 73.9512 522.383 74.0023 522.524C75.4327 526.757 76.1027 531.212 75.981 535.681H54.4246C48.7964 519.491 35.3339 493.275 6.94602 492.619C5.84116 492.531 5.40423 494.008 6.24764 494.655C6.42671 494.768 22.7221 507.14 30.6011 529.642C24.7473 520.279 15.4268 511.414 1.13162 511.074C0.0661566 510.986 -0.426285 512.45 0.43325 513.11C0.546064 513.2 11.0378 521.115 17.2962 535.681H12.5061C12.2077 535.682 11.9218 535.802 11.7107 536.014C11.4997 536.226 11.3807 536.513 11.3798 536.813C11.3783 536.962 11.4065 537.109 11.4626 537.247C11.5187 537.385 11.6017 537.51 11.7066 537.615C11.8115 537.721 11.9362 537.804 12.0735 537.86C12.2108 537.916 12.3579 537.944 12.5061 537.943C22.1365 538.058 768.539 537.943 768.874 537.943C769.172 537.942 769.458 537.823 769.669 537.611C769.88 537.399 769.999 537.112 770 536.813C769.993 536.515 769.873 536.232 769.663 536.022C769.452 535.813 769.17 535.693 768.874 535.688ZM52.0394 535.688H34.7717C29.4139 514.249 15.9962 500.279 10.2552 495.092C34.6141 497.625 46.7031 520.694 52.0394 535.688ZM31.4463 535.688H19.7549C15.1617 524.535 8.29441 517.12 4.49097 513.614C18.2023 515.447 26.5989 526.098 31.4392 535.688H31.4463ZM102 241.495C102.051 241.211 101.991 240.918 101.831 240.678C101.672 240.437 101.426 240.268 101.146 240.206C100.866 240.143 100.572 240.189 100.325 240.337C100.078 240.484 99.8963 240.72 99.817 240.997C98.1051 247.036 94.5255 254.431 87.1872 255.36C77.4368 256.619 61.043 244.077 66.4527 234.393C66.5965 234.132 66.6322 233.824 66.5521 233.536C66.472 233.249 66.2826 233.004 66.0247 232.855C65.8964 232.781 65.7547 232.733 65.6078 232.715C65.461 232.696 65.3119 232.707 65.1694 232.747C65.0268 232.788 64.8937 232.856 64.7776 232.948C64.6616 233.04 64.5651 233.155 64.4937 233.285C64.4489 233.377 61.3188 239.166 65.62 246.058C54.1381 238.006 42.8585 227.331 40.013 224.595C41.0176 223.134 55.4793 201.914 55.3898 202.045L81.1185 217.635L84.562 225.438C84.6904 225.706 84.9162 225.914 85.1929 226.019C85.4695 226.124 85.7757 226.118 86.0483 226.003C86.184 225.944 86.3065 225.858 86.4086 225.75C86.5107 225.642 86.5904 225.515 86.6429 225.376C86.6955 225.237 86.7198 225.089 86.7146 224.94C86.7093 224.791 86.6746 224.645 86.6124 224.51L83.1671 216.685C83.4589 214.152 85.6884 195.458 89.9216 181.201C90.0238 183.085 90.3178 184.954 90.799 186.778C90.9405 187.318 91.4293 187.742 92.1725 187.591C92.4604 187.514 92.7066 187.326 92.8581 187.068C93.0095 186.811 93.054 186.503 92.9819 186.213C90.9297 178.738 92.4106 170.699 98.2501 165.587C103.085 161.429 115.441 159.236 121.755 158.44L145.662 190.87C146.244 198.455 143.039 156.626 154.555 306.9C134.668 310.971 108.742 310.351 100.795 291.725C95.8936 280.599 99.9907 252.893 101.994 241.495H102ZM34.4332 215.51C34.2309 215.577 14.6227 221.209 7.19313 216.769C5.14457 215.751 4.42292 214.611 4.58051 214.123C4.7166 213.67 5.88771 213.15 7.98283 213.445C11.275 214.024 14.6316 214.138 17.9552 213.783C18.7861 213.691 19.146 212.716 18.8792 212.313C18.8057 212.066 18.6486 211.851 18.435 211.707C18.2214 211.562 17.9644 211.497 17.7081 211.522C14.5207 211.882 10.7638 211.668 8.34276 211.205C7.6122 211.102 6.87315 211.071 6.13662 211.115C5.66388 210.617 5.43825 210.097 5.59941 209.856C5.80176 209.448 6.88334 208.928 9.00174 209.221C12.3938 209.795 15.8486 209.894 19.2678 209.516C19.5612 209.472 19.8269 209.317 20.0109 209.083C20.1948 208.849 20.2832 208.554 20.2581 208.257C20.2217 207.959 20.0697 207.687 19.8349 207.501C19.6002 207.314 19.3018 207.229 19.0046 207.262C12.576 208.05 9.61595 206.58 6.80276 206.945C5.5636 206.086 5.2932 205.339 5.4293 205.022C5.58688 204.616 6.66667 204.073 8.85132 204.344C12.9198 205.026 16.4636 205.042 19.9053 204.548C20.1996 204.5 20.4634 204.338 20.6402 204.097C20.817 203.855 20.8926 203.554 20.8508 203.258C20.8292 203.11 20.7787 202.969 20.7023 202.841C20.6259 202.714 20.5252 202.602 20.4058 202.514C20.2864 202.426 20.1508 202.362 20.0069 202.327C19.8629 202.291 19.7133 202.285 19.5669 202.308C14.6532 203.045 10.4164 202.25 9.48164 202.173C7.92732 201.223 7.52262 200.318 7.63544 199.957C7.79302 199.55 8.85132 198.983 11.1022 199.279C11.2365 199.323 13.8939 199.753 17.5631 199.572C21.8876 199.408 24.2173 198.458 26.6132 197.762C27.7611 203.339 31.552 207.656 37.8481 207.51C38.1462 207.503 38.4295 207.378 38.6361 207.162C38.8427 206.946 38.956 206.657 38.9512 206.357C38.9279 205.724 38.3871 205.294 37.78 205.249C29.6753 205.521 28.6851 196.564 28.6618 196.202C28.6459 196.034 28.5927 195.872 28.5061 195.727C28.4196 195.582 28.3019 195.458 28.1616 195.365C28.0213 195.272 27.8621 195.211 27.6955 195.187C27.5289 195.164 27.3592 195.178 27.1988 195.229L22.2046 196.738C21.6809 196.895 21.1313 196.944 20.5884 196.883C20.0455 196.822 19.5202 196.653 19.0437 196.384C18.5672 196.116 18.1491 195.754 17.8142 195.321C17.4793 194.887 17.2344 194.391 17.0939 193.86C21.0102 192.005 27.2472 189.543 29.4497 189.858C34.7179 190.649 44.7799 198.672 51.1745 204.197L40.3909 220.027L35.4826 215.73C35.3393 215.609 35.1684 215.526 34.9854 215.487C34.8023 215.449 34.6126 215.457 34.4332 215.51ZM182.952 182.626C182.929 182.779 182.939 182.935 182.982 183.084C183.024 183.232 183.098 183.37 183.198 183.487C183.298 183.605 183.422 183.7 183.561 183.765C183.701 183.83 183.853 183.864 184.007 183.865C184.151 183.881 184.297 183.867 184.436 183.824C184.575 183.781 184.703 183.709 184.813 183.614C184.923 183.519 185.013 183.402 185.076 183.271C185.14 183.14 185.175 182.997 185.181 182.851C185.495 179.613 185.428 176.859 185.09 174.506C191.821 190.359 194.523 219.806 194.839 223.425L191.146 229.283C190.986 229.535 190.932 229.84 190.996 230.132C191.059 230.425 191.235 230.68 191.485 230.842C191.668 230.953 191.877 231.015 192.092 231.022C192.283 231.024 192.471 230.975 192.637 230.88C192.803 230.785 192.941 230.648 193.037 230.482L196.706 224.67L219.468 218.971L244.231 212.774C253.951 242.296 253.618 241.267 253.597 241.197C245.718 244.888 230.389 251.372 217.622 255.648C220.666 253.309 224.104 248.992 225.479 245.394C225.584 245.115 225.574 244.805 225.451 244.534C225.328 244.262 225.103 244.051 224.826 243.946C224.548 243.841 224.24 243.851 223.969 243.974C223.699 244.097 223.489 244.323 223.384 244.602C221.914 249.035 215.505 256.475 206.027 258.941C198.327 260.866 195.245 259.997 188.444 257.72C188.418 257.701 188.386 257.693 188.354 257.697C188.297 257.466 184.952 243.913 185.158 244.744C185.125 244.6 185.064 244.463 184.978 244.342C184.892 244.222 184.783 244.12 184.658 244.042C184.532 243.964 184.392 243.912 184.246 243.889C184.1 243.866 183.951 243.872 183.808 243.908C183.518 243.984 183.268 244.17 183.113 244.428C182.957 244.685 182.907 244.994 182.973 245.288C183.031 245.52 186.544 259.679 186.329 258.812V258.835C187.425 266.099 197.693 288.075 191.551 292.058C182.254 298.075 169.704 303.366 156.792 306.397C145.306 156.43 148.499 198.125 147.922 190.579L157.309 158.465C175.087 160.748 184.739 164.241 182.952 182.626ZM609.775 199.248L605.048 208.68C604.98 208.811 604.939 208.955 604.927 209.103C604.915 209.251 604.932 209.4 604.978 209.541C605.024 209.682 605.098 209.813 605.195 209.925C605.292 210.037 605.41 210.129 605.542 210.194C605.809 210.325 606.115 210.346 606.397 210.253C606.679 210.161 606.914 209.961 607.052 209.698L611.846 200.108H611.869C614.345 198.435 634.473 185.067 650.478 176.182C649.015 177.765 647.778 179.528 647.124 181.383C647.067 181.524 647.039 181.675 647.042 181.827C647.044 181.979 647.077 182.129 647.139 182.268C647.201 182.408 647.29 182.533 647.401 182.636C647.511 182.74 647.642 182.82 647.784 182.872C647.927 182.924 648.078 182.946 648.229 182.938C648.381 182.93 648.529 182.891 648.665 182.824C648.801 182.756 648.922 182.662 649.021 182.547C649.12 182.432 649.194 182.298 649.241 182.153C649.702 180.937 650.364 179.807 651.2 178.812L655.522 174.56C659.423 171.367 662.03 170.158 665.112 169.087C668.444 167.911 674.86 166.689 681.276 165.669L681.813 171.097C681.826 171.284 681.887 171.466 681.989 171.623C682.092 171.781 682.233 171.909 682.399 171.996C682.568 172.073 682.753 172.111 682.939 172.107C683.125 172.103 683.307 172.057 683.473 171.973L699.189 163.158L699.638 163.09C711.197 163.09 728.748 165.968 738.743 174.331C738.743 174.337 738.746 174.342 738.75 174.346C738.754 174.35 738.759 174.353 738.765 174.353C738.944 175.27 746.59 182.324 746.982 195.726C746.998 196.016 747.123 196.289 747.332 196.49C747.542 196.69 747.819 196.803 748.109 196.805H748.153C748.301 196.8 748.447 196.766 748.581 196.704C748.715 196.642 748.836 196.554 748.936 196.444C749.036 196.335 749.114 196.207 749.164 196.067C749.214 195.927 749.236 195.779 749.228 195.63C749.089 191.176 748.136 186.785 746.415 182.678C762.762 203.662 771.599 235.5 761.385 260.998C759.675 265.315 753.979 267.06 746.932 265.408C735.366 262.662 712.06 247.761 702.199 241.096C695.67 236.664 690.738 233.068 688.948 231.754C689.051 231.522 697.543 212.61 697.435 212.848L730.246 227.971L736.514 234.327C736.616 234.439 736.739 234.529 736.877 234.593C737.014 234.656 737.163 234.69 737.314 234.694C737.465 234.699 737.615 234.672 737.756 234.616C737.897 234.56 738.025 234.477 738.132 234.37C738.24 234.263 738.325 234.136 738.382 233.995C738.44 233.855 738.468 233.704 738.466 233.552C738.464 233.4 738.432 233.251 738.371 233.112C738.31 232.973 738.221 232.848 738.111 232.744L731.858 226.388L728.098 216.368C727.986 216.089 727.771 215.865 727.498 215.743C727.225 215.621 726.915 215.61 726.635 215.713C726.496 215.767 726.368 215.847 726.26 215.95C726.152 216.052 726.065 216.176 726.004 216.312C725.944 216.449 725.91 216.596 725.906 216.745C725.902 216.895 725.928 217.044 725.981 217.183L728.864 224.85L697.348 210.308C697.073 210.183 696.76 210.173 696.477 210.279C696.195 210.384 695.965 210.598 695.838 210.873L695.434 211.756C692.703 209.223 685.468 202.941 681.835 201.849C677 200.356 663.645 202.301 660.133 205.627C658.097 207.554 659.098 210.223 661.462 211.099C659.65 211.932 657.002 213.278 656.373 215.17C656.441 214.107 656.486 213.497 656.486 213.429C656.505 213.201 656.454 212.973 656.34 212.775C656.227 212.577 656.056 212.419 655.85 212.321C655.645 212.223 655.415 212.191 655.19 212.228C654.966 212.265 654.758 212.37 654.595 212.529C654.28 212.823 621.635 242.949 593.562 237.407C581.18 234.942 573.346 189.098 570.509 164.764V159.924L571.838 161.62C571.97 161.81 572.16 161.951 572.38 162.021C572.6 162.09 572.837 162.085 573.054 162.005L588.095 157.414L595.049 156.776L609.772 199.23L609.775 199.248ZM673.712 136.286C674.341 136.28 674.968 136.205 675.58 136.061C675.58 136.061 681.749 131.877 683.325 134.048C684.901 136.219 682.2 137.146 684.399 137.466C686.598 137.786 686.312 141.424 686.312 141.424L686.02 147.146L688.024 146.286C688.024 146.286 689.87 139.27 692.728 140.542C695.586 141.814 694.056 151.217 694.056 151.217C694.056 151.217 694.191 153.138 695.453 153.478V153.501L697.591 161.462L683.88 169.152C683.858 168.924 683.402 164.295 683.43 164.583C685.354 161.525 688.966 155.752 689.059 155.626C689.207 155.37 689.25 155.067 689.178 154.779C689.107 154.492 688.926 154.245 688.675 154.09C688.553 154.013 688.417 153.962 688.275 153.938C688.132 153.915 687.987 153.92 687.847 153.954C687.707 153.987 687.574 154.048 687.458 154.133C687.341 154.218 687.243 154.326 687.168 154.45C686.94 154.615 686.034 156.862 681.765 158.022C681.707 158.039 681.647 158.047 681.586 158.046C681.069 158.091 675.139 158.724 673.865 150.809C672.944 145.021 673.422 140.272 673.712 136.284V136.286ZM650.929 506.035C650.929 506.057 650.951 506.057 650.951 506.08C651.117 506.467 663.201 514.949 662.974 514.787C663.111 514.888 663.27 514.956 663.438 514.983C663.606 515.011 663.778 514.998 663.94 514.945L675.535 511.689V529.164H611.607C612.872 523.627 617.012 519.129 622.502 517.636C630.764 515.42 640.4 515.353 640.49 515.353C640.672 515.349 640.85 515.301 641.01 515.214C641.171 515.128 641.309 515.005 641.414 514.855C644.941 509.59 649.015 507.033 650.929 506.035ZM659.167 398.856C659.255 398.736 659.365 398.635 659.493 398.559C659.62 398.483 659.761 398.433 659.907 398.412C660.054 398.391 660.203 398.399 660.346 398.436C660.49 398.474 660.624 398.539 660.742 398.629L664.839 401.66C664.959 401.748 665.06 401.859 665.136 401.987C665.212 402.115 665.263 402.257 665.284 402.404C665.305 402.551 665.296 402.702 665.259 402.846C665.221 402.99 665.155 403.125 665.065 403.243C664.979 403.362 664.87 403.462 664.745 403.538C664.62 403.613 664.481 403.663 664.336 403.684C664.192 403.706 664.044 403.697 663.903 403.661C663.761 403.624 663.629 403.559 663.513 403.47L659.415 400.439C659.295 400.352 659.194 400.242 659.116 400.115C659.039 399.988 658.987 399.848 658.964 399.701C658.941 399.554 658.948 399.404 658.983 399.259C659.018 399.115 659.081 398.979 659.168 398.859L659.167 398.856ZM675.421 501.648V509.383L663.849 512.621L653.067 504.976V501.651L675.421 501.648ZM656.015 533.943H658.851C659.568 533.943 659.781 534.557 661 535.685H653.784C654.964 534.638 655.288 533.947 656.017 533.947L656.015 533.943ZM677.784 532.699C677.761 517.048 677.833 504.254 677.672 501.648H684.942L700.458 395.042L689.336 318.62C689.294 318.324 689.37 318.023 689.547 317.782C689.724 317.541 689.988 317.38 690.282 317.332C690.579 317.295 690.88 317.376 691.119 317.557C691.359 317.738 691.519 318.006 691.566 318.304C700.589 380.212 709.293 439.779 718.288 501.655H724.276V503.576C722.722 504.256 717.724 506.789 713.335 513.098C711.061 513.143 702.822 513.457 695.369 515.451C683.953 518.554 680.361 531.941 683.348 535.692H676.459C676.867 534.971 677.779 534.222 677.779 532.702L677.784 532.699ZM698.447 535.323C699.815 534.089 700.156 533.181 701.312 533.181H704.149C705.277 533.181 705.648 534.08 707.089 535.323H698.447ZM685.058 529.164C686.322 523.627 690.463 519.129 695.953 517.636C704.215 515.42 713.851 515.353 713.94 515.353C714.122 515.349 714.301 515.301 714.461 515.214C714.622 515.128 714.76 515.005 714.864 514.855C718.399 509.586 722.473 507.03 724.387 506.04C724.387 506.062 724.409 506.062 724.409 506.085C724.52 506.343 736.206 514.636 736.432 514.792C736.57 514.891 736.73 514.957 736.898 514.984C737.066 515.012 737.238 515 737.4 514.951L748.993 511.694V529.169L685.058 529.164ZM748.88 504.452V509.381L737.309 512.619L726.525 504.976V501.651H748.88V504.452ZM737.558 293.871C721.8 296.884 690.403 301.554 674.724 299.503C669.162 297.267 668.374 294.58 668.51 290.05C668.51 289.813 669.085 268.364 669.048 269.722C669.049 269.424 668.935 269.136 668.729 268.921C668.523 268.706 668.242 268.579 667.945 268.569H667.93C667.637 268.573 667.356 268.69 667.146 268.896C666.936 269.103 666.813 269.382 666.804 269.677C666.494 292.414 664.954 294.711 669.033 298.604C665.941 297.895 662.146 296.643 660.209 294.125C652.621 284.446 655.458 230.099 656.291 216.507C656.864 218.804 659.127 219.471 661.484 219.333C658.647 221.707 655.698 224.92 657.589 227.656C657.815 227.995 658.287 228.376 659.188 228.358C660.223 228.311 662.25 227.52 664.275 226.548C663.172 228.358 662.655 230.326 664.186 231.817C666.752 234.282 672.065 230.213 674.654 227.928C677.552 231.45 682.1 233.719 686.428 232.202C686.48 232.922 686.607 232.922 692.529 237.133C701.805 253.417 718.24 266.849 739.852 278.181C739.855 278.747 738.134 290.284 737.56 293.875L737.558 293.871ZM667.789 208.698C666.394 209.014 661.779 209.957 661.306 207.998C661.238 207.818 661.373 207.568 661.688 207.278C664.571 204.542 677.109 202.756 681.185 204.022C684.213 204.922 691.716 211.382 692.013 211.758L685.3 230.164C679.853 231.589 675.935 225.89 675.755 225.618C675.663 225.484 675.542 225.37 675.403 225.286C675.263 225.201 675.107 225.148 674.945 225.129C674.783 225.109 674.619 225.125 674.464 225.174C674.308 225.224 674.165 225.306 674.044 225.415C670.892 228.401 666.682 231.069 665.76 230.187C664.612 229.108 667.764 225.573 668.804 224.42C669.547 223.605 669.839 223.267 669.975 222.86C670.434 221.477 668.677 220.729 668.061 221.781C667.139 222.618 661.059 225.875 659.304 226.079C658.588 223.612 666.354 218.781 666.825 217.779C667.23 216.965 666.422 215.92 665.362 216.24C662.547 217.14 659.036 217.642 658.495 216.037C658.483 215.959 658.499 215.879 658.54 215.811C658.787 215.312 660.228 213.526 668.401 210.88C669.769 210.45 669.196 208.336 667.79 208.701L667.789 208.698ZM570.516 154.084V133.865C572.318 135.426 574.051 136.941 574.884 137.687C573.14 144.539 575.7 148.587 581.119 150.125C581.873 150.276 582.372 149.864 582.516 149.333C582.557 149.192 582.569 149.044 582.553 148.898C582.536 148.752 582.491 148.611 582.42 148.483C582.348 148.354 582.252 148.241 582.137 148.151C582.022 148.06 581.89 147.993 581.749 147.954H581.728C576.589 146.473 575.75 142.78 577.251 137.595C577.309 137.389 577.306 137.17 577.242 136.966C577.179 136.761 577.057 136.579 576.893 136.442C576.596 136.185 569.816 130.27 568.835 129.454V129.432C568.632 129.274 568.452 129.115 568.272 128.957C566.544 127.536 564.546 125.469 565.841 123.055V123.031C566.159 122.492 567.39 121.772 567.957 121.697C568.05 121.633 568.16 121.601 568.272 121.607C573.482 120.256 581.556 128.297 585.315 132.237C585.909 132.749 586.547 132.648 586.914 132.281C587.127 132.071 587.25 131.784 587.254 131.483C587.258 131.182 587.143 130.891 586.935 130.675C582.252 125.723 576.039 119.934 570.523 119.232V117.491C576.128 117.151 583.4 118.57 587.859 126.583C590.414 131.195 590.864 145.352 590.93 151.776L570.516 154.084ZM570.516 454.09V181.268C574.141 204.54 581.3 237.266 593.142 239.617C618.491 244.654 646.295 222.724 654.061 216.03C653.229 229.328 650.19 285.009 658.429 295.526C659.682 297.132 661.627 298.375 664.102 299.349L656.674 386.533L667.208 394.337C667.328 394.425 667.428 394.537 667.504 394.664C667.579 394.792 667.629 394.934 667.65 395.081C667.671 395.228 667.663 395.378 667.626 395.522C667.589 395.666 667.524 395.801 667.434 395.92C667.148 396.368 666.487 396.589 665.858 396.168L656.448 389.203L646.88 501.651H650.82V503.572C649.266 504.252 644.268 506.785 639.879 513.094C637.605 513.139 629.366 513.454 621.913 515.447C610.605 518.521 606.871 531.765 609.892 535.688H589.199C590.135 524.688 595.774 514.222 604.516 507.523C604.754 507.341 604.909 507.071 604.949 506.773C604.989 506.476 604.909 506.175 604.727 505.936C604.546 505.698 604.278 505.541 603.982 505.501C603.685 505.462 603.386 505.542 603.148 505.724C593.862 512.846 587.875 523.992 586.939 535.688H574.205C577.221 530.554 580.891 527.773 580.936 527.728C581.126 527.584 581.265 527.383 581.334 527.155C581.403 526.926 581.399 526.682 581.321 526.456C581.244 526.23 581.098 526.035 580.903 525.897C580.708 525.76 580.476 525.688 580.238 525.692C576.732 525.764 573.335 526.926 570.513 529.016C574.903 522.18 579.744 518.523 579.81 518.478C579.999 518.334 580.138 518.133 580.208 517.905C580.277 517.677 580.273 517.432 580.195 517.207C580.118 516.981 579.972 516.786 579.778 516.648C579.583 516.511 579.351 516.439 579.113 516.442C568.982 516.668 562.069 522.412 557.478 528.926C563.758 513.049 575.219 504.364 575.33 504.281C575.524 504.14 575.668 503.939 575.741 503.71C575.813 503.48 575.81 503.232 575.732 503.004C575.654 502.776 575.505 502.58 575.307 502.443C575.109 502.307 574.873 502.238 574.633 502.247C562.814 502.54 552.998 508.465 545.455 519.91C537.934 508.465 528.121 502.54 516.301 502.247C515.171 502.198 514.727 503.646 515.603 504.281C515.716 504.371 527.174 513.056 533.434 528.926C528.863 522.412 521.952 516.668 511.821 516.442C511.583 516.437 511.349 516.509 511.154 516.646C510.959 516.783 510.812 516.979 510.735 517.205C510.658 517.432 510.654 517.677 510.723 517.905C510.793 518.134 510.934 518.335 511.124 518.478C511.19 518.523 516.031 522.209 520.436 529.016C517.604 526.928 514.201 525.768 510.689 525.692C510.451 525.688 510.219 525.76 510.024 525.897C509.829 526.035 509.683 526.23 509.605 526.456C509.528 526.682 509.524 526.926 509.593 527.155C509.662 527.383 509.801 527.584 509.991 527.728C510.035 527.773 513.683 530.531 516.722 535.688H357.366C359.372 529.518 363.534 524.286 369.082 520.959C369.21 520.884 369.321 520.784 369.41 520.665C369.499 520.547 369.564 520.412 369.601 520.268C369.638 520.124 369.646 519.974 369.626 519.827C369.605 519.68 369.556 519.539 369.481 519.411C369.406 519.283 369.306 519.171 369.188 519.082C369.07 518.992 368.936 518.927 368.793 518.89C368.65 518.853 368.501 518.845 368.355 518.865C368.208 518.886 368.067 518.935 367.94 519.011C361.7 522.746 357.082 528.698 354.999 535.688H349.143C353.127 528.881 358.012 525.194 358.057 525.149C358.25 525.007 358.393 524.806 358.465 524.577C358.537 524.347 358.533 524.101 358.455 523.873C358.378 523.646 358.229 523.449 358.032 523.313C357.835 523.176 357.6 523.107 357.361 523.114C352.092 523.249 347.431 525.059 343.423 528.496C349.413 518.545 356.496 513.186 356.594 513.117C357.489 512.434 356.922 511.031 355.896 511.081C341.601 511.421 332.28 520.286 326.426 529.649C334.305 507.147 350.601 494.776 350.78 494.662C351.65 493.993 351.149 492.576 350.083 492.626C321.693 493.283 308.231 519.495 302.603 535.688H281.05C280.929 531.219 281.599 526.764 283.03 522.531C283.081 522.39 283.104 522.24 283.097 522.09C283.089 521.94 283.052 521.793 282.988 521.658C282.924 521.522 282.833 521.401 282.721 521.301C282.61 521.202 282.479 521.125 282.338 521.077C282.197 521.028 282.047 521.008 281.898 521.018C281.749 521.028 281.603 521.068 281.47 521.135C281.336 521.203 281.217 521.296 281.12 521.41C281.023 521.524 280.949 521.656 280.903 521.799C279.378 526.265 278.666 530.969 278.801 535.688H219.265C222.342 531.826 218.549 518.52 207.243 515.447C199.792 513.456 191.551 513.139 189.278 513.094C184.911 506.785 179.89 504.252 178.337 503.572V499.955H180.993L193.286 396.01L182.862 403.813C182.744 403.901 182.61 403.965 182.467 404C182.324 404.035 182.176 404.042 182.031 404.02C181.886 403.998 181.746 403.948 181.62 403.871C181.494 403.795 181.385 403.695 181.297 403.576C181.21 403.457 181.147 403.322 181.112 403.179C181.076 403.036 181.069 402.887 181.091 402.741C181.113 402.595 181.164 402.454 181.24 402.328C181.315 402.202 181.415 402.091 181.534 402.004L193.397 393.115V293.468C199.894 287.863 191.003 268.848 188.92 260.267C195.981 262.564 198.649 262.877 205.932 261.307C210.008 260.449 214.667 259.091 219.462 257.486V454.09C219.461 454.238 219.489 454.386 219.545 454.524C219.601 454.662 219.684 454.787 219.789 454.892C219.894 454.997 220.019 455.081 220.156 455.137C220.294 455.193 220.441 455.221 220.589 455.219H569.381C569.679 455.217 569.965 455.098 570.177 454.886C570.39 454.675 570.511 454.389 570.516 454.09ZM519.66 504.749C529.656 506.06 538.01 512.054 544.515 522.594C544.615 522.759 544.755 522.896 544.923 522.991C545.091 523.086 545.28 523.136 545.472 523.136C545.665 523.136 545.854 523.086 546.022 522.991C546.189 522.896 546.33 522.759 546.43 522.594C552.935 512.054 561.292 506.06 571.283 504.749C566.578 509.091 557.056 519.473 553.018 535.44H537.911C533.884 519.473 524.361 509.093 519.66 504.749ZM556.191 535.44C559.838 528.383 565.961 520.689 575.754 519.02C570.963 523.672 567.17 529.26 564.61 535.44H556.191ZM567.402 535.44C570.036 531.731 573.188 529.378 576.857 528.424C574.853 530.526 573.134 532.885 571.746 535.44H567.402ZM519.179 535.44C517.792 532.885 516.073 530.526 514.068 528.424C517.739 529.374 520.891 531.713 523.525 535.44H519.179ZM526.341 535.44C523.768 529.262 519.969 523.675 515.176 519.02C524.968 520.694 531.092 528.383 534.74 535.44H526.341ZM325.594 535.688C330.428 526.098 338.832 515.447 352.542 513.614C345.944 519.789 340.746 527.317 337.301 535.688H325.594ZM305 535.688C310.335 520.694 322.426 497.625 346.785 495.092C341.044 500.271 327.624 514.249 322.266 535.688H305ZM340.075 535.688C343.857 530.148 348.518 526.823 354.01 525.737C351.055 528.67 348.544 532.023 346.559 535.688H340.075ZM138.489 499.955L150.893 395.105V309.887C151.645 309.757 152.394 309.581 153.144 309.435V395.243L145.535 459.609L143.779 499.957H151.479C151.421 503.36 151.412 503.975 151.366 513.571C147.963 513.211 145.22 513.119 144.049 513.096C139.66 506.787 134.662 504.254 133.108 503.574V499.955H138.489ZM174.62 529.167C172.392 518.001 163.786 515.136 153.617 513.841V511.693C165.704 514.952 165.45 515.339 166.18 514.79C178.729 505.875 178.045 506.451 178.201 506.084C178.201 506.06 178.224 506.06 178.224 506.039C180.137 507.033 184.213 509.59 187.747 514.853C187.852 515.003 187.989 515.126 188.15 515.213C188.31 515.299 188.488 515.347 188.67 515.352C188.782 515.352 198.395 515.418 206.657 517.634C212.149 519.128 216.289 523.625 217.552 529.162L174.62 529.167ZM204.166 535.327H195.526C196.975 534.068 197.335 533.184 198.467 533.184H201.305C202.458 533.184 202.8 534.098 204.166 535.327ZM184.145 409.151L188.31 406.015C188.429 405.927 188.565 405.863 188.709 405.828C188.853 405.792 189.003 405.786 189.149 405.809C189.296 405.832 189.436 405.884 189.563 405.962C189.689 406.04 189.799 406.143 189.885 406.264C189.975 406.38 190.041 406.513 190.078 406.656C190.116 406.798 190.124 406.947 190.103 407.092C190.082 407.238 190.032 407.378 189.956 407.504C189.88 407.63 189.779 407.739 189.66 407.825L185.495 410.968C185.377 411.057 185.242 411.122 185.099 411.16C184.956 411.197 184.807 411.205 184.661 411.184C184.515 411.163 184.374 411.113 184.247 411.038C184.12 410.962 184.009 410.862 183.921 410.743C183.741 410.502 183.663 410.199 183.705 409.9C183.747 409.602 183.905 409.332 184.145 409.151ZM276.763 216.392L272.351 213.609C272.209 213.52 272.05 213.463 271.885 213.442C271.72 213.421 271.552 213.437 271.393 213.489C271.234 213.54 271.089 213.626 270.966 213.74C270.844 213.854 270.748 213.993 270.685 214.148C270.549 214.508 267.308 222.857 259.495 220.481C259.215 220.406 258.917 220.443 258.664 220.584C258.41 220.726 258.221 220.961 258.137 221.239C258.052 221.518 258.079 221.819 258.211 222.078C258.342 222.338 258.569 222.535 258.843 222.63C264.798 224.397 269.674 221.322 272.238 216.206L275.57 218.311C277.626 219.57 284.524 221.794 286.782 221.794C289.056 222.11 289.934 222.923 289.978 223.377C290.002 223.737 289.393 224.507 287.615 224.996C284.835 224.742 280.948 223.846 277.845 222.463C277.71 222.401 277.565 222.367 277.417 222.362C277.27 222.357 277.122 222.382 276.984 222.434C276.846 222.487 276.72 222.566 276.612 222.668C276.505 222.77 276.418 222.892 276.358 223.028C276.242 223.304 276.238 223.615 276.347 223.895C276.457 224.174 276.671 224.399 276.944 224.521C278.331 225.135 279.76 225.649 281.22 226.059H281.243C283.32 226.651 285.444 227.06 287.591 227.28C289.821 227.574 290.743 228.389 290.766 228.84C290.811 229.157 290.338 229.813 288.899 230.333C286.273 229.203 283.064 229.874 277.08 227.394C276.805 227.286 276.499 227.29 276.226 227.403C275.954 227.517 275.735 227.732 275.617 228.004C275.508 228.283 275.51 228.594 275.623 228.872C275.736 229.15 275.951 229.374 276.224 229.497C279.702 230.936 284.655 231.916 286.13 231.916C288.315 232.209 289.237 232.996 289.327 233.454C289.395 233.771 289.035 234.174 288.431 234.534C288.1 234.406 287.88 234.314 286.315 234.037C286.288 234.019 286.255 234.01 286.223 234.014C283.139 233.711 280.11 232.988 277.22 231.866C276.978 231.766 276.708 231.757 276.46 231.84C276.212 231.923 276.002 232.092 275.868 232.317C275.815 232.367 275.776 232.429 275.755 232.497C275.702 232.633 275.676 232.779 275.679 232.925C275.682 233.071 275.714 233.215 275.773 233.348C275.831 233.482 275.915 233.603 276.021 233.704C276.126 233.805 276.25 233.884 276.385 233.936C279.468 235.156 282.703 235.942 285.999 236.275C288.182 236.57 289.173 237.354 289.196 237.858C289.219 238.362 288.206 239.261 285.887 239.713C277.649 242.021 260.199 231.346 260.018 231.233C259.856 231.137 259.674 231.083 259.487 231.075C259.299 231.068 259.113 231.106 258.944 231.188L253.541 233.789L247.53 215.559C255.139 211.986 266.441 207.237 271.597 207.847C273.803 208.095 279.137 212.144 282.447 214.97C282.173 215.446 281.807 215.861 281.371 216.192C280.934 216.522 280.436 216.761 279.905 216.893C279.375 217.026 278.823 217.05 278.283 216.964C277.743 216.877 277.226 216.683 276.763 216.392ZM737.492 401.32L741.589 398.289C741.708 398.2 741.844 398.136 741.988 398.101C742.132 398.065 742.282 398.059 742.428 398.082C742.575 398.105 742.716 398.157 742.842 398.235C742.968 398.313 743.078 398.416 743.165 398.537C743.254 398.654 743.32 398.787 743.357 398.929C743.395 399.072 743.403 399.22 743.382 399.366C743.361 399.512 743.311 399.652 743.235 399.778C743.159 399.904 743.058 400.013 742.939 400.099L738.842 403.157C738.597 403.325 738.298 403.393 738.005 403.347C737.712 403.301 737.448 403.144 737.266 402.909C737.176 402.79 737.11 402.655 737.073 402.511C737.036 402.367 737.027 402.217 737.048 402.07C737.069 401.922 737.119 401.78 737.195 401.653C737.271 401.525 737.372 401.414 737.492 401.326V401.32ZM652.075 96.474H514.32V55.2267H652.077L652.075 96.474ZM499.076 83.0397C499.282 83.2514 499.397 83.5355 499.397 83.8313C499.397 84.127 499.282 84.4111 499.076 84.6228C498.973 84.7303 498.849 84.8158 498.711 84.8741C498.574 84.9325 498.427 84.9626 498.278 84.9626C498.129 84.9626 497.981 84.9325 497.844 84.8741C497.707 84.8158 497.583 84.7303 497.479 84.6228L493.181 80.3054C490.096 82.7555 485.451 82.5828 482.487 79.6038C481.529 78.6498 480.821 77.4729 480.424 76.1777C480.028 74.8824 479.956 73.5088 480.215 72.179C480.475 70.8491 481.057 69.6042 481.91 68.5547C482.763 67.5052 483.861 66.6837 485.107 66.1631C486.352 65.6425 487.706 65.439 489.049 65.5706C490.391 65.7022 491.681 66.1649 492.802 66.9175C493.924 67.6702 494.844 68.6895 495.479 69.8849C496.114 71.0803 496.446 72.4148 496.444 73.7699C496.445 75.5632 495.852 77.3059 494.757 78.7223L499.076 83.0397ZM568.26 52.9601H467.291C466.993 52.9605 466.707 53.0799 466.496 53.292C466.284 53.5041 466.166 53.7916 466.165 54.0916V97.611C466.164 97.7599 466.192 97.9076 466.248 98.0454C466.304 98.1832 466.387 98.3084 466.492 98.4137C466.597 98.5189 466.722 98.602 466.859 98.6581C466.996 98.7143 467.143 98.7424 467.291 98.7407H568.262V119.248C567.187 119.383 565.714 119.993 564.546 121.081C563.713 121.828 563.264 123.094 563.293 124.541C563.37 128.014 565.407 129.615 568.269 131.916V157C568.039 157.084 567.845 157.244 567.718 157.454C567.591 157.664 567.539 157.912 567.57 158.155C567.615 158.675 567.841 161.05 568.269 164.691V452.967H243.264V248.25C250.04 245.356 254.904 243.095 255.466 242.823C255.715 242.705 255.911 242.499 256.019 242.245C256.127 241.99 256.139 241.705 256.052 241.443L254.25 235.969L259.361 233.505C265.834 237.311 279.15 244 286.401 241.918C291.635 240.916 292.338 237.637 290.498 235.789C291.842 234.546 291.851 232.951 291.015 231.832C293.732 230.247 293.737 227.378 290.858 225.906C293.268 224.062 292.788 220.338 287.054 219.55C285.361 219.334 283.689 218.973 282.056 218.471C283.31 217.728 284.283 216.59 284.825 215.233C284.942 215.008 284.981 214.751 284.937 214.501C284.892 214.251 284.766 214.023 284.578 213.853C283.682 213.062 275.685 206.05 271.835 205.598C266.228 204.92 254.657 209.714 246.801 213.4L246.035 211.061C245.948 210.792 245.762 210.565 245.516 210.427C245.269 210.289 244.98 210.249 244.706 210.317L243.273 210.676V108.858H333.009C333.163 108.859 333.316 108.829 333.458 108.771C333.601 108.712 333.731 108.625 333.84 108.516C333.949 108.406 334.035 108.276 334.093 108.133C334.152 107.99 334.181 107.836 334.18 107.681V25.5104H568.262L568.26 52.9601ZM129.439 136.178V136.156C130.107 134.568 132.033 134.109 133.693 136.111C136.057 135.681 140.267 134.212 135.944 129.078C135.944 129.078 138.917 127.2 144.994 129.617C148.957 131.2 151.928 131.54 154.157 131.044C155.742 138.608 153.377 154.521 144.59 155.673C143.981 155.705 143.576 156.301 143.576 156.781C143.576 160.944 143.6 170.093 143.6 169.514L133.874 155.626V149.583C133.865 149.301 133.762 149.03 133.581 148.814C132.944 148.154 132.412 147.399 132.005 146.576L132.162 142.141C130.09 141.661 128.552 138.322 129.439 136.178ZM109.311 404.83C109.401 404.711 109.513 404.612 109.641 404.538C109.769 404.463 109.91 404.415 110.057 404.396C110.203 404.377 110.352 404.388 110.495 404.428C110.638 404.467 110.771 404.535 110.887 404.627L116.83 409.217C116.95 409.306 117.05 409.417 117.126 409.545C117.202 409.673 117.252 409.814 117.273 409.961C117.294 410.109 117.286 410.259 117.248 410.403C117.211 410.547 117.146 410.682 117.056 410.8C116.871 411.033 116.603 411.184 116.309 411.223C116.015 411.261 115.718 411.183 115.48 411.006L109.514 406.413C109.396 406.323 109.298 406.21 109.224 406.081C109.151 405.953 109.103 405.811 109.084 405.664C109.065 405.517 109.076 405.367 109.115 405.224C109.154 405.081 109.221 404.947 109.311 404.83Z" fill="black"/>
<path d="M730.693 230.662C730.585 230.562 730.459 230.484 730.321 230.433C730.184 230.382 730.037 230.359 729.891 230.365C729.744 230.371 729.6 230.407 729.467 230.47C729.334 230.533 729.215 230.621 729.117 230.731C728.915 230.953 728.809 231.246 728.821 231.547C728.834 231.848 728.965 232.131 729.185 232.335L732.408 235.253C732.629 235.454 732.92 235.559 733.218 235.544C733.515 235.529 733.795 235.396 733.995 235.174C734.195 234.952 734.299 234.66 734.284 234.361C734.269 234.062 734.137 233.781 733.916 233.58L730.693 230.662Z" fill="black"/>
<path d="M677.518 152.368C678.07 152.108 678.559 151.73 678.951 151.26C679.153 151.038 679.259 150.744 679.246 150.443C679.234 150.142 679.103 149.858 678.883 149.654C678.24 149.067 677.584 149.445 676.97 150.062C677.33 149.216 677.608 148.337 677.803 147.437C678.315 145.43 678.482 143.35 678.299 141.287C678.274 140.987 678.132 140.71 677.904 140.515C677.676 140.32 677.381 140.223 677.083 140.245C676.934 140.259 676.79 140.302 676.658 140.372C676.527 140.442 676.41 140.538 676.316 140.654C676.222 140.77 676.151 140.903 676.109 141.047C676.066 141.191 676.053 141.341 676.069 141.49C676.3 144.079 675.906 146.685 674.922 149.089C674.719 149.628 674.246 150.762 674.943 151.735C675.452 152.415 676.44 152.78 677.518 152.368Z" fill="black"/>
<path d="M611.126 212.184C611.393 212.313 611.699 212.334 611.98 212.241C612.262 212.148 612.496 211.95 612.635 211.687L615.044 206.847C615.173 206.579 615.193 206.271 615.101 205.989C615.008 205.706 614.81 205.471 614.548 205.332C614.278 205.203 613.968 205.182 613.684 205.275C613.399 205.368 613.16 205.566 613.017 205.83L610.632 210.669C610.562 210.801 610.519 210.945 610.506 211.093C610.493 211.242 610.51 211.391 610.557 211.533C610.603 211.674 610.677 211.805 610.775 211.917C610.873 212.029 610.992 212.12 611.126 212.184Z" fill="black"/>
<path d="M627.688 362.992C628.36 363.172 629.071 363.148 629.729 362.922C630.388 362.696 630.965 362.28 631.388 361.724C631.81 361.169 632.059 360.5 632.103 359.802C632.147 359.105 631.985 358.41 631.635 357.805C631.286 357.2 630.766 356.713 630.141 356.406C629.516 356.098 628.815 355.984 628.125 356.077C627.435 356.17 626.789 356.467 626.267 356.929C625.745 357.392 625.372 357.999 625.194 358.675C625.074 359.123 625.044 359.59 625.105 360.05C625.166 360.51 625.316 360.953 625.548 361.354C625.78 361.755 626.088 362.107 626.455 362.388C626.823 362.669 627.241 362.874 627.688 362.992Z" fill="black"/>
<path d="M630.249 306.564C630.538 306.64 630.845 306.598 631.103 306.447C631.361 306.296 631.548 306.048 631.625 305.758L633.17 299.845C633.207 299.702 633.216 299.552 633.196 299.405C633.176 299.258 633.128 299.116 633.053 298.988C632.979 298.86 632.88 298.748 632.762 298.658C632.645 298.569 632.511 298.503 632.368 298.465C632.225 298.426 632.075 298.415 631.928 298.434C631.781 298.453 631.639 298.502 631.511 298.577C631.383 298.652 631.271 298.752 631.182 298.872C631.093 298.991 631.028 299.127 630.992 299.271L629.447 305.184C629.41 305.328 629.401 305.477 629.421 305.624C629.441 305.771 629.489 305.913 629.564 306.041C629.638 306.169 629.737 306.281 629.855 306.371C629.972 306.461 630.106 306.526 630.249 306.564Z" fill="black"/>
<path d="M733.648 139.022C733.767 139.116 733.904 139.185 734.051 139.225C734.197 139.264 734.35 139.274 734.5 139.252C734.651 139.231 734.795 139.179 734.925 139.101C735.055 139.022 735.168 138.918 735.256 138.794C735.345 138.671 735.408 138.531 735.442 138.382C735.475 138.233 735.479 138.079 735.452 137.929C735.424 137.78 735.367 137.637 735.284 137.509C735.201 137.382 735.092 137.273 734.966 137.189L728.439 132.454C728.32 132.36 728.183 132.291 728.036 132.252C727.89 132.212 727.737 132.203 727.586 132.224C727.436 132.245 727.292 132.297 727.162 132.375C727.032 132.454 726.919 132.558 726.83 132.682C726.742 132.805 726.679 132.946 726.645 133.094C726.612 133.243 726.608 133.397 726.635 133.547C726.662 133.697 726.719 133.839 726.803 133.967C726.886 134.094 726.995 134.203 727.121 134.287L733.648 139.022Z" fill="black"/>
<path d="M703.593 71.0067C704.523 71.0064 705.432 70.7291 706.205 70.2099C706.978 69.6907 707.58 68.9529 707.936 68.0897C708.292 67.2266 708.385 66.2769 708.203 65.3608C708.022 64.4446 707.574 63.603 706.916 62.9425C706.259 62.2819 705.421 61.832 704.509 61.6497C703.597 61.4674 702.652 61.5608 701.792 61.9181C700.933 62.2754 700.199 62.8806 699.682 63.6572C699.165 64.4338 698.889 65.3468 698.889 66.281C698.888 66.9017 699.01 67.5164 699.246 68.09C699.482 68.6636 699.829 69.1847 700.265 69.6237C700.702 70.0626 701.221 70.4107 701.792 70.648C702.363 70.8853 702.975 71.0072 703.593 71.0067Z" fill="black"/>
<path d="M324.963 204.789C324.963 249.614 361.135 285.959 405.763 285.959C450.391 285.959 486.561 249.621 486.561 204.789C486.561 159.956 450.389 123.641 405.763 123.641C361.137 123.641 324.963 159.987 324.963 204.789ZM440.567 170.638C443.19 170.636 445.754 171.416 447.936 172.879C450.118 174.341 451.819 176.421 452.824 178.855C453.829 181.289 454.093 183.968 453.582 186.552C453.071 189.137 451.809 191.511 449.955 193.375C448.101 195.239 445.738 196.509 443.166 197.023C440.593 197.538 437.927 197.275 435.503 196.267C433.08 195.259 431.008 193.551 429.551 191.361C428.094 189.17 427.316 186.594 427.316 183.959C427.318 180.428 428.715 177.043 431.199 174.545C433.683 172.048 437.052 170.643 440.567 170.638ZM429.559 238.963H380.344C393.921 225.302 415.961 225.302 429.559 238.963ZM370.935 170.638C373.558 170.636 376.123 171.416 378.305 172.879C380.487 174.341 382.188 176.421 383.193 178.855C384.198 181.289 384.461 183.968 383.951 186.552C383.44 189.137 382.178 191.511 380.324 193.375C378.47 195.239 376.107 196.509 373.535 197.023C370.962 197.538 368.296 197.275 365.872 196.267C363.449 195.259 361.377 193.551 359.92 191.361C358.462 189.17 357.684 186.594 357.684 183.959C357.683 182.21 358.025 180.478 358.69 178.862C359.356 177.246 360.332 175.777 361.562 174.54C362.793 173.303 364.254 172.322 365.862 171.652C367.471 170.983 369.195 170.638 370.935 170.638Z" fill="#E95440"/>
<path d="M142.963 101.333C142.816 101.333 142.669 101.362 142.533 101.419C142.396 101.476 142.272 101.559 142.168 101.664C142.063 101.77 141.98 101.894 141.924 102.032C141.867 102.169 141.839 102.316 141.839 102.464V102.763C141.833 102.915 141.857 103.067 141.911 103.21C141.965 103.352 142.047 103.482 142.152 103.592C142.257 103.702 142.383 103.789 142.523 103.849C142.662 103.909 142.813 103.94 142.964 103.94C143.116 103.94 143.266 103.909 143.406 103.849C143.545 103.789 143.671 103.702 143.776 103.592C143.882 103.482 143.963 103.352 144.017 103.21C144.071 103.067 144.096 102.915 144.09 102.763V102.464C144.09 102.316 144.061 102.168 144.004 102.031C143.948 101.894 143.865 101.769 143.76 101.664C143.656 101.559 143.531 101.475 143.395 101.419C143.258 101.362 143.111 101.333 142.963 101.333Z" fill="black"/>
<path d="M134.07 82.8581C134.07 83.1582 134.189 83.446 134.4 83.6582C134.611 83.8704 134.898 83.9896 135.197 83.9896C135.495 83.9896 135.782 83.8704 135.993 83.6582C136.204 83.446 136.323 83.1582 136.323 82.8581C136.322 81.9598 136.502 81.0706 136.852 80.2439C137.201 79.4172 137.714 78.6701 138.358 78.0474C139.003 77.4247 139.766 76.9392 140.602 76.6203C141.438 76.3013 142.329 76.1554 143.223 76.1913C149.866 76.4449 152.121 85.5187 146.088 88.7513C140.619 91.6728 142.059 97.4833 141.846 98.595C141.839 98.7473 141.864 98.8992 141.918 99.0417C141.972 99.1841 142.054 99.3142 142.159 99.4241C142.264 99.534 142.39 99.6214 142.53 99.6811C142.669 99.7408 142.819 99.7716 142.971 99.7716C143.123 99.7716 143.273 99.7408 143.412 99.6811C143.552 99.6214 143.678 99.534 143.783 99.4241C143.888 99.3142 143.97 99.1841 144.024 99.0417C144.078 98.8992 144.102 98.7473 144.096 98.595C144.335 97.1954 143.022 92.9518 147.141 90.7463C155.132 86.4703 152.35 74.2754 143.31 73.9319C142.114 73.8839 140.92 74.0792 139.801 74.5063C138.682 74.9333 137.66 75.5832 136.797 76.4169C135.934 77.2506 135.247 78.251 134.779 79.3578C134.31 80.4647 134.069 81.6553 134.07 82.8581Z" fill="black"/>
<path d="M164.352 100.838L164.223 101.106C164.105 101.374 164.095 101.678 164.196 101.953C164.296 102.228 164.499 102.454 164.761 102.582C165.024 102.71 165.326 102.73 165.603 102.639C165.88 102.548 166.112 102.353 166.248 102.094L166.377 101.826C166.495 101.558 166.505 101.254 166.405 100.979C166.304 100.704 166.102 100.478 165.839 100.35C165.577 100.222 165.275 100.202 164.998 100.293C164.72 100.384 164.489 100.579 164.352 100.838Z" fill="black"/>
<path d="M166.33 81.2984C166.463 81.3632 166.608 81.4009 166.756 81.4094C166.904 81.4179 167.052 81.3969 167.191 81.3478C167.331 81.2987 167.46 81.2223 167.57 81.123C167.68 81.0238 167.77 80.9036 167.834 80.7695C168.221 79.9596 168.767 79.2366 169.439 78.6439C170.111 78.0512 170.895 77.6011 171.744 77.3205C172.594 77.0399 173.491 76.9347 174.382 77.0111C175.273 77.0875 176.139 77.3441 176.929 77.7653C182.815 80.8918 180.91 90.0465 174.085 90.3271C167.899 90.5808 166.69 96.4434 166.016 97.3537C165.887 97.6242 165.87 97.9353 165.969 98.2185C166.068 98.5017 166.275 98.7339 166.544 98.8639C166.813 98.9939 167.123 99.0111 167.405 98.9118C167.687 98.8124 167.918 98.6046 168.047 98.3341C168.867 97.1738 169.512 92.7808 174.179 92.5776C183.22 92.2052 185.983 80.0049 177.98 75.7559C176.922 75.1926 175.762 74.8497 174.57 74.7478C173.377 74.6459 172.176 74.7871 171.039 75.1629C169.902 75.5387 168.852 76.1414 167.952 76.9348C167.052 77.7282 166.322 78.696 165.803 79.7801C165.738 79.9144 165.7 80.0604 165.691 80.2095C165.683 80.3587 165.703 80.5081 165.752 80.6492C165.801 80.7904 165.877 80.9204 165.977 81.0318C166.076 81.1432 166.196 81.2338 166.33 81.2984Z" fill="black"/>
<path d="M105.538 102.619C105.807 102.749 106.116 102.766 106.398 102.667C106.68 102.568 106.911 102.36 107.04 102.09L107.169 101.822C107.239 101.688 107.282 101.54 107.294 101.389C107.306 101.238 107.288 101.085 107.241 100.941C107.193 100.797 107.117 100.664 107.017 100.55C106.918 100.436 106.796 100.343 106.66 100.277C106.524 100.212 106.376 100.174 106.225 100.167C106.074 100.16 105.923 100.183 105.781 100.236C105.639 100.289 105.509 100.369 105.399 100.473C105.289 100.578 105.201 100.703 105.14 100.842L105.011 101.11C104.882 101.38 104.865 101.691 104.964 101.974C105.062 102.257 105.269 102.489 105.538 102.619Z" fill="black"/>
<path d="M107.122 81.2984C107.255 81.363 107.399 81.4006 107.547 81.409C107.694 81.4175 107.842 81.3966 107.982 81.3477C108.121 81.2987 108.25 81.2226 108.36 81.1237C108.47 81.0248 108.56 80.9051 108.624 80.7713C109.011 79.9615 109.557 79.2387 110.229 78.6461C110.902 78.0535 111.686 77.6035 112.536 77.3229C113.385 77.0424 114.282 76.9371 115.173 77.0134C116.064 77.0897 116.931 77.3461 117.721 77.7671C123.584 80.8792 121.719 90.0465 114.879 90.3289C108.69 90.5826 107.483 96.4452 106.81 97.3555C106.693 97.6241 106.683 97.928 106.785 98.2032C106.886 98.4784 107.09 98.7033 107.353 98.8305C107.616 98.9577 107.918 98.9772 108.195 98.8849C108.473 98.7927 108.703 98.5958 108.839 98.3359C109.657 97.1792 110.304 92.7827 114.97 92.5794C124.033 92.207 126.749 79.987 118.77 75.7595C117.713 75.1961 116.553 74.8532 115.36 74.7511C114.167 74.6491 112.966 74.7901 111.829 75.1658C110.692 75.5414 109.642 76.1439 108.742 76.9371C107.843 77.7303 107.112 78.6979 106.593 79.7819C106.529 79.9162 106.491 80.0621 106.482 80.2112C106.474 80.3602 106.495 80.5095 106.544 80.6504C106.593 80.7913 106.669 80.9211 106.768 81.0323C106.868 81.1435 106.988 81.2339 107.122 81.2984Z" fill="black"/>
<path d="M484.064 69.5659C483.233 70.4001 482.668 71.463 482.438 72.6201C482.209 73.7773 482.327 74.9768 482.776 76.0669C483.225 77.1569 483.987 78.0887 484.963 78.7442C485.94 79.3997 487.088 79.7496 488.262 79.7496C489.437 79.7496 490.585 79.3997 491.561 78.7442C492.538 78.0887 493.299 77.1569 493.748 76.0669C494.198 74.9768 494.315 73.7773 494.086 72.6201C493.857 71.463 493.291 70.4001 492.46 69.5659C491.342 68.4575 489.833 67.8361 488.262 67.8361C486.691 67.8361 485.183 68.4575 484.064 69.5659Z" fill="black"/>
<path d="M536.744 74.7233C536.445 74.7243 536.16 74.8435 535.949 75.0552C535.738 75.2668 535.619 75.5536 535.617 75.853C535.616 76.002 535.644 76.1498 535.7 76.2878C535.756 76.4257 535.839 76.551 535.944 76.6564C536.049 76.7617 536.174 76.845 536.311 76.9014C536.448 76.9577 536.595 76.986 536.744 76.9846H638.163C638.312 76.986 638.459 76.9577 638.596 76.9014C638.733 76.845 638.858 76.7617 638.963 76.6564C639.068 76.551 639.151 76.4257 639.207 76.2878C639.263 76.1498 639.291 76.002 639.29 75.853C639.288 75.5536 639.169 75.2668 638.958 75.0552C638.747 74.8435 638.461 74.7243 638.163 74.7233H536.744Z" fill="black"/>
<path d="M549.603 506.963C556.479 500.692 564.016 493.864 573.627 493.112C573.774 493.101 573.918 493.06 574.05 492.993C574.181 492.926 574.299 492.834 574.395 492.721C574.491 492.609 574.564 492.478 574.61 492.337C574.656 492.196 574.674 492.047 574.662 491.899C574.615 491.273 574.025 490.778 573.455 490.859C563.28 491.644 555.385 498.629 548.09 505.285C547.88 505.489 547.758 505.768 547.749 506.061C547.739 506.354 547.844 506.64 548.04 506.857C548.237 507.075 548.51 507.207 548.801 507.226C549.093 507.245 549.38 507.15 549.603 506.96V506.963Z" fill="black"/>
<path d="M297.74 513.018C298.01 513.146 298.319 513.161 298.6 513.06C298.881 512.959 299.111 512.75 299.238 512.479C304.635 501.135 313.366 491.728 324.253 485.527C324.386 485.457 324.505 485.361 324.601 485.243C324.696 485.126 324.768 484.991 324.811 484.846C324.854 484.7 324.867 484.548 324.85 484.397C324.833 484.246 324.786 484.101 324.712 483.969C324.637 483.837 324.538 483.721 324.418 483.628C324.298 483.536 324.161 483.468 324.015 483.43C323.869 483.392 323.717 483.383 323.568 483.405C323.418 483.427 323.275 483.479 323.146 483.558C311.854 489.991 302.799 499.75 297.204 511.518C297.078 511.788 297.063 512.098 297.164 512.379C297.264 512.66 297.471 512.89 297.74 513.018Z" fill="black"/>
<path d="M260.077 534.111C260.357 534.214 260.667 534.201 260.938 534.075C261.209 533.949 261.419 533.72 261.522 533.438C266.064 520.954 272.554 509.275 280.749 498.839C280.84 498.723 280.908 498.589 280.948 498.446C280.988 498.303 281 498.154 280.982 498.007C280.965 497.859 280.919 497.717 280.847 497.587C280.775 497.458 280.678 497.344 280.562 497.252C280.446 497.16 280.313 497.092 280.17 497.052C280.028 497.011 279.879 497 279.733 497.017C279.586 497.034 279.444 497.081 279.315 497.153C279.186 497.226 279.073 497.323 278.981 497.44C270.638 508.062 264.031 519.95 259.407 532.659C259.356 532.798 259.333 532.947 259.339 533.095C259.345 533.244 259.38 533.39 259.442 533.524C259.504 533.659 259.592 533.781 259.701 533.881C259.81 533.982 259.938 534.06 260.077 534.111Z" fill="black"/>
<path d="M33.8848 483.549C33.6248 483.401 33.3172 483.364 33.0297 483.445C32.7423 483.525 32.4985 483.717 32.352 483.979C32.2054 484.24 32.1682 484.549 32.2485 484.838C32.3287 485.126 32.5199 485.371 32.7799 485.518C43.6673 491.722 52.3982 501.131 57.7942 512.477C57.8574 512.611 57.9464 512.731 58.0559 512.831C58.1654 512.93 58.2934 513.007 58.4324 513.057C58.5715 513.107 58.719 513.129 58.8665 513.121C59.014 513.114 59.1587 513.077 59.2921 513.014C59.4256 512.95 59.5452 512.861 59.6443 512.751C59.7434 512.641 59.82 512.513 59.8696 512.373C59.9192 512.233 59.941 512.085 59.9336 511.937C59.9262 511.788 59.8899 511.643 59.8266 511.509C54.2319 499.741 45.1769 489.982 33.8848 483.549Z" fill="black"/>
<path d="M76.4636 497.249C76.3479 497.342 76.2515 497.456 76.1799 497.586C76.1083 497.716 76.0628 497.859 76.0462 498.007C76.0296 498.155 76.0421 498.304 76.083 498.447C76.1239 498.59 76.1924 498.723 76.2846 498.839C84.4808 509.275 90.9715 520.955 95.5131 533.44C95.6214 533.714 95.8318 533.934 96.0995 534.055C96.3673 534.175 96.6713 534.186 96.9469 534.085C97.2224 533.984 97.4477 533.778 97.5749 533.513C97.7021 533.247 97.7211 532.942 97.6279 532.663C93.0037 519.953 86.3964 508.064 78.0538 497.44C77.9625 497.322 77.8487 497.223 77.719 497.149C77.5893 497.075 77.4464 497.028 77.2984 497.01C77.1505 496.993 77.0005 497.005 76.8572 497.046C76.7139 497.087 76.5801 497.156 76.4636 497.249Z" fill="black"/>
<path d="M80.0434 222.792C79.9895 222.653 79.9088 222.527 79.8058 222.42C79.7029 222.313 79.5798 222.227 79.4437 222.168C79.3076 222.109 79.1612 222.078 79.013 222.077C78.8648 222.075 78.7178 222.103 78.5804 222.159C78.3079 222.276 78.0906 222.494 77.9733 222.767C77.856 223.041 77.8477 223.349 77.9501 223.629L79.3683 227.156C79.4818 227.433 79.6982 227.654 79.9716 227.772C80.2449 227.89 80.5534 227.897 80.8313 227.789C81.1054 227.675 81.3232 227.456 81.4372 227.181C81.5513 226.905 81.5523 226.596 81.4402 226.32L80.0434 222.792Z" fill="black"/>
<path d="M196.415 232.019C196.588 232.113 196.78 232.167 196.977 232.177C197.176 232.173 197.37 232.116 197.54 232.013C197.71 231.91 197.85 231.763 197.946 231.589L199.454 228.966C199.597 228.701 199.632 228.39 199.552 228.1C199.473 227.809 199.284 227.56 199.026 227.406C198.766 227.262 198.46 227.226 198.173 227.306C197.887 227.386 197.643 227.576 197.495 227.835L195.987 230.481C195.845 230.743 195.81 231.05 195.89 231.337C195.97 231.624 196.158 231.869 196.415 232.019Z" fill="black"/>
<path d="M147.899 275.195L143.423 226.027C143.39 225.726 143.243 225.45 143.012 225.256C142.782 225.062 142.485 224.965 142.185 224.985C141.889 225.02 141.618 225.17 141.429 225.402C141.24 225.634 141.147 225.931 141.172 226.23L145.649 275.398C145.763 276.842 148.012 276.725 147.899 275.195Z" fill="black"/>
<path d="M178.605 264.156C177.925 263.131 177.928 263.813 159.853 263.617C159.704 263.618 159.556 263.648 159.418 263.707C159.28 263.765 159.156 263.851 159.051 263.958C158.946 264.065 158.864 264.192 158.808 264.331C158.752 264.471 158.725 264.62 158.727 264.77C159.078 287.769 192.394 286.886 178.605 264.156ZM177.008 265.876C187.215 284.18 163.297 283.966 161.046 265.876H177.008Z" fill="black"/>
<path d="M132.501 269.224C132.503 269.074 132.475 268.925 132.419 268.785C132.364 268.646 132.281 268.519 132.176 268.411C132.072 268.304 131.947 268.219 131.809 268.16C131.672 268.101 131.524 268.07 131.374 268.069C112.995 268.272 113.288 267.61 112.62 268.609C98.7908 291.065 132.141 292.648 132.501 269.224ZM114.219 270.332H130.184C127.845 289.086 104.218 287.897 114.219 270.332Z" fill="black"/>
<path d="M146.838 147.434C150.319 147.869 152.194 144.663 149.495 142.798C148.711 142.141 149.116 142.902 149.022 136.081C149.022 135.779 148.904 135.489 148.694 135.273C148.483 135.057 148.197 134.933 147.896 134.928C147.598 134.929 147.312 135.048 147.101 135.26C146.89 135.472 146.771 135.759 146.77 136.059L146.748 141.555C146.748 143.264 147.164 143.857 148.181 144.629C148.285 144.711 148.398 144.78 148.519 144.834C148.504 144.884 148.478 144.93 148.443 144.969C148.408 145.008 148.365 145.039 148.317 145.059C147.978 145.217 147.506 145.217 146.943 145.173C145.468 145.117 145.364 147.382 146.838 147.434Z" fill="black"/>
<path d="M178.427 259.294L181.829 256.22C182.959 255.246 181.439 253.521 180.321 254.545L176.919 257.621C176.806 257.719 176.714 257.839 176.648 257.974C176.582 258.108 176.544 258.255 176.535 258.405C176.527 258.555 176.548 258.705 176.598 258.846C176.649 258.987 176.727 259.117 176.828 259.227C177.033 259.446 177.315 259.576 177.614 259.588C177.913 259.601 178.205 259.495 178.427 259.294Z" fill="black"/>
<path d="M165.203 45.1312C165.445 45.3071 165.747 45.379 166.042 45.3313C166.337 45.2835 166.601 45.12 166.776 44.8767C166.951 44.6334 167.022 44.3302 166.975 44.0338C166.927 43.7374 166.765 43.4722 166.522 43.2963L158.425 37.4175C158.182 37.2559 157.887 37.1949 157.601 37.2471C157.314 37.2994 157.059 37.4609 156.889 37.6979C156.719 37.9348 156.646 38.2288 156.687 38.5183C156.727 38.8077 156.878 39.0701 157.107 39.2506L165.203 45.1312Z" fill="black"/>
<path d="M594.625 274.754C595.566 274.753 596.485 274.473 597.268 273.948C598.05 273.422 598.659 272.676 599.019 271.802C599.379 270.929 599.473 269.968 599.289 269.041C599.106 268.114 598.653 267.263 597.987 266.594C597.322 265.926 596.475 265.471 595.552 265.286C594.629 265.102 593.673 265.196 592.803 265.558C591.934 265.919 591.191 266.532 590.668 267.317C590.145 268.103 589.866 269.027 589.865 269.972C589.865 270.6 589.988 271.222 590.227 271.803C590.466 272.383 590.816 272.91 591.258 273.354C591.7 273.798 592.225 274.151 592.803 274.391C593.381 274.631 594 274.754 594.625 274.754Z" fill="black"/>
<path d="M592.215 334.839C592.457 335.006 592.755 335.071 593.044 335.021C593.334 334.97 593.592 334.808 593.764 334.569C593.936 334.33 594.009 334.033 593.966 333.741C593.923 333.449 593.768 333.185 593.535 333.006L585.439 327.133C585.32 327.039 585.182 326.97 585.036 326.93C584.89 326.891 584.737 326.881 584.586 326.903C584.436 326.924 584.292 326.975 584.162 327.054C584.032 327.133 583.919 327.237 583.83 327.36C583.742 327.484 583.679 327.624 583.645 327.773C583.611 327.922 583.608 328.075 583.635 328.225C583.662 328.375 583.719 328.518 583.803 328.645C583.886 328.773 583.994 328.882 584.121 328.966L592.215 334.839Z" fill="black"/>
<path d="M80.4023 136.203C81.3431 136.203 82.2628 135.922 83.0449 135.397C83.8271 134.871 84.4366 134.125 84.7965 133.252C85.1564 132.378 85.2505 131.417 85.0668 130.49C84.8832 129.563 84.4301 128.712 83.7648 128.044C83.0995 127.375 82.2519 126.92 81.3291 126.736C80.4063 126.551 79.4498 126.646 78.5805 127.007C77.7112 127.369 76.9681 127.981 76.4452 128.767C75.9222 129.553 75.6429 130.476 75.6426 131.422C75.6421 132.05 75.7649 132.672 76.0039 133.252C76.243 133.832 76.5935 134.36 77.0356 134.804C77.4777 135.248 78.0026 135.6 78.5802 135.84C79.1579 136.08 79.7771 136.204 80.4023 136.203Z" fill="black"/>
<path d="M82.7442 81.7283C86.1677 78.8774 89.8947 76.4159 93.8573 74.3888C93.993 74.3237 94.1143 74.2321 94.2142 74.1193C94.3141 74.0064 94.3905 73.8746 94.4389 73.7316C94.4873 73.5886 94.5067 73.4374 94.4959 73.2868C94.4852 73.1361 94.4446 72.9892 94.3765 72.8546C94.3083 72.72 94.2141 72.6004 94.0992 72.503C93.9844 72.4055 93.8513 72.3322 93.7078 72.2872C93.5643 72.2422 93.4133 72.2266 93.2636 72.2412C93.114 72.2558 92.9688 72.3003 92.8366 72.3722C88.7264 74.4756 84.8601 77.0288 81.3081 79.9852C81.0939 80.1808 80.963 80.4517 80.9423 80.7417C80.9217 81.0317 81.013 81.3186 81.1972 81.5428C81.3815 81.767 81.6446 81.9113 81.932 81.9459C82.2193 81.9804 82.5089 81.9025 82.7406 81.7283H82.7442Z" fill="black"/>
<path d="M73.3165 386.636C72.3752 386.636 71.4551 386.916 70.6726 387.441C69.89 387.967 69.2802 388.714 68.9203 389.587C68.5603 390.461 68.4664 391.422 68.6504 392.35C68.8344 393.277 69.2881 394.129 69.954 394.797C70.62 395.465 71.4683 395.92 72.3916 396.104C73.3149 396.288 74.2717 396.192 75.141 395.83C76.0103 395.467 76.753 394.854 77.2751 394.067C77.7973 393.28 78.0754 392.355 78.0744 391.41C78.0734 390.143 77.5717 388.928 76.6794 388.033C75.7872 387.138 74.5776 386.635 73.3165 386.636Z" fill="black"/>
<path d="M69.135 330.198C65.0252 332.302 61.159 334.854 57.6065 337.809C57.3871 338.004 57.2514 338.276 57.2282 338.569C57.2049 338.861 57.296 339.152 57.482 339.379C57.6681 339.605 57.9345 339.75 58.2251 339.783C58.5157 339.816 58.8076 339.734 59.0391 339.554C62.4632 336.704 66.1908 334.243 70.1539 332.217C70.4204 332.081 70.6221 331.844 70.7148 331.558C70.8075 331.273 70.7835 330.962 70.6482 330.695C70.5128 330.427 70.2772 330.224 69.9931 330.131C69.7089 330.038 69.3997 330.062 69.1332 330.198H69.135Z" fill="black"/>
<path d="M623.797 124.485C623.796 125.43 624.075 126.355 624.597 127.141C625.119 127.927 625.862 128.541 626.731 128.903C627.6 129.266 628.556 129.361 629.479 129.177C630.403 128.993 631.251 128.539 631.917 127.871C632.582 127.203 633.036 126.352 633.221 125.425C633.405 124.498 633.311 123.536 632.952 122.663C632.592 121.789 631.983 121.042 631.201 120.516C630.419 119.991 629.499 119.71 628.558 119.709C627.297 119.709 626.087 120.212 625.194 121.107C624.301 122.003 623.799 123.218 623.797 124.485Z" fill="black"/>
<path d="M617.556 32.1808C618.497 32.1801 619.417 31.8992 620.199 31.3736C620.98 30.8481 621.59 30.1014 621.949 29.2281C622.309 28.3548 622.403 27.3939 622.219 26.467C622.035 25.5402 621.582 24.6888 620.916 24.0207C620.251 23.3525 619.404 22.8975 618.481 22.7131C617.558 22.5288 616.602 22.6234 615.732 22.985C614.863 23.3466 614.12 23.9589 613.597 24.7447C613.075 25.5304 612.795 26.4541 612.795 27.3993C612.794 28.0275 612.917 28.6496 613.156 29.23C613.396 29.8105 613.746 30.3379 614.189 30.782C614.631 31.2261 615.156 31.5783 615.734 31.8183C616.312 32.0583 616.931 32.1815 617.556 32.1808Z" fill="black"/>
<path d="M134.58 24.0947L137.994 21.0132C138.104 20.9141 138.194 20.7942 138.258 20.6604C138.321 20.5265 138.358 20.3814 138.366 20.2332C138.374 20.0851 138.353 19.9368 138.304 19.7968C138.255 19.6568 138.179 19.528 138.08 19.4175C137.982 19.3071 137.862 19.2172 137.729 19.1531C137.596 19.089 137.451 19.0519 137.304 19.0439C137.156 19.0359 137.009 19.0571 136.87 19.1064C136.73 19.1557 136.602 19.2321 136.492 19.3312L133.075 22.4109C132.861 22.6134 132.734 22.892 132.722 23.1873C132.709 23.4825 132.812 23.7709 133.009 23.9909C133.205 24.2108 133.48 24.3448 133.773 24.3642C134.067 24.3836 134.356 24.2869 134.58 24.0947Z" fill="black"/>
<path d="M349.744 10.6514C350.685 10.651 351.605 10.3704 352.387 9.84508C353.169 9.31974 353.778 8.57323 354.138 7.69993C354.498 6.82662 354.592 5.86573 354.409 4.93872C354.225 4.01172 353.772 3.16022 353.107 2.49187C352.441 1.82352 351.594 1.36833 350.671 1.18385C349.748 0.999366 348.792 1.09387 347.922 1.45541C347.053 1.81695 346.31 2.4293 345.787 3.21505C345.264 4.00079 344.985 4.92466 344.984 5.86984C344.984 6.49783 345.107 7.1197 345.346 7.69993C345.585 8.28016 345.936 8.80736 346.378 9.25141C346.82 9.69546 347.345 10.0477 347.922 10.2879C348.5 10.5281 349.119 10.6516 349.744 10.6514Z" fill="black"/>
<path d="M251.453 9.47851C254.876 6.62721 258.603 4.16567 262.566 2.13893C262.702 2.07393 262.823 1.9823 262.923 1.86944C263.023 1.75659 263.099 1.62479 263.148 1.48181C263.196 1.33883 263.216 1.18757 263.205 1.03694C263.194 0.886309 263.154 0.739357 263.085 0.604745C263.017 0.470133 262.923 0.350584 262.808 0.253144C262.693 0.155704 262.56 0.0823435 262.417 0.0373869C262.273 -0.00756974 262.122 -0.0232132 261.973 -0.00862142C261.823 0.00597032 261.678 0.050502 261.546 0.122349C257.435 2.22579 253.569 4.77895 250.017 7.73536C249.803 7.93096 249.672 8.20185 249.651 8.49187C249.631 8.78187 249.722 9.06874 249.906 9.29295C250.09 9.51716 250.354 9.66151 250.641 9.69606C250.928 9.73061 251.218 9.65271 251.45 9.47851H251.453Z" fill="black"/>
<path d="M318.797 423.713V405.513H270.497V391.233L316.417 325.713H336.717V389.973H349.597V405.513H336.717V423.713H318.797ZM289.677 389.973H319.917V345.453L289.677 389.973ZM403.864 425.393C394.811 425.393 387.064 423.293 380.624 419.093C374.184 414.8 369.191 408.873 365.644 401.313C362.191 393.66 360.464 384.793 360.464 374.713C360.464 364.726 362.191 355.906 365.644 348.253C369.191 340.6 374.184 334.673 380.624 330.473C387.064 326.18 394.811 324.033 403.864 324.033C412.917 324.033 420.664 326.18 427.104 330.473C433.544 334.673 438.491 340.6 441.944 348.253C445.491 355.906 447.264 364.726 447.264 374.713C447.264 384.793 445.491 393.66 441.944 401.313C438.491 408.873 433.544 414.8 427.104 419.093C420.664 423.293 412.917 425.393 403.864 425.393ZM403.864 409.293C411.237 409.293 417.257 406.213 421.924 400.053C426.591 393.893 428.924 385.446 428.924 374.713C428.924 363.98 426.591 355.533 421.924 349.373C417.257 343.213 411.237 340.133 403.864 340.133C396.397 340.133 390.331 343.213 385.664 349.373C381.091 355.533 378.804 363.98 378.804 374.713C378.804 385.446 381.091 393.893 385.664 400.053C390.331 406.213 396.397 409.293 403.864 409.293ZM507.879 423.713V405.513H459.579V391.233L505.499 325.713H525.799V389.973H538.679V405.513H525.799V423.713H507.879ZM478.759 389.973H508.999V345.453L478.759 389.973Z" fill="#E95440"/>
</g>
<defs>
<clipPath id="clip0_168_8765">
<rect width="770" height="538" fill="white"/>
</clipPath>
</defs>
</svg>
