<svg width="50" height="50" viewBox="0 0 50 50" fill="none" xmlns="http://www.w3.org/2000/svg">
<g clip-path="url(#clip0_84_2214)">
<path d="M12.7305 12.6787V33.9225C12.7305 36.2537 14.1907 38.4331 16.4506 39.4749L25.0005 43.4165V7.7655C21.6354 10.2019 17.6331 11.7954 12.7305 12.6787Z" fill="#E95440"/>
<path d="M43.0557 7.30781C42.868 7.12412 42.6186 7.02344 42.3515 7.02939C42.2023 7.03262 42.0546 7.03428 41.9089 7.03428C40.8127 7.03428 39.745 6.94746 38.7352 6.77617C31.2516 5.50693 27.7217 2.47988 25.7177 0.313379C25.5328 0.113672 25.273 0 25.0008 0C24.7286 0 24.4688 0.113672 24.2839 0.313379C22.2799 2.47988 18.75 5.50693 11.2664 6.77607C10.2568 6.94736 9.18916 7.03428 8.09287 7.03428C7.94717 7.03428 7.7999 7.03272 7.65068 7.02939C7.38555 7.02354 7.13389 7.12383 6.94609 7.30752C6.7582 7.49131 6.65234 7.74287 6.65234 8.00566V33.9225C6.65234 38.6105 9.49795 42.9517 13.9019 44.9819L24.5919 49.9102C24.7216 49.9699 24.8612 49.9998 25.0008 49.9998C25.1403 49.9998 25.2799 49.9699 25.4097 49.9102L36.0997 44.9819C40.5037 42.9517 43.3492 38.6105 43.3492 33.9225V8.00576C43.3492 7.74307 43.2434 7.4915 43.0557 7.30781ZM41.3961 33.9226C41.3961 37.8512 38.9962 41.496 35.282 43.2083L25.0008 47.9481L14.7196 43.2083C11.0055 41.496 8.60557 37.8512 8.60557 33.9226V8.98164C9.63232 8.9582 10.635 8.86436 11.5932 8.70176C18.8515 7.4708 22.7006 4.66396 25.0008 2.38301C27.301 4.66387 31.1501 7.4707 38.4086 8.70186C39.3669 8.86436 40.3697 8.9582 41.3961 8.98164V33.9226Z" fill="black"/>
</g>
<defs>
<clipPath id="clip0_84_2214">
<rect width="50" height="50" fill="white"/>
</clipPath>
</defs>
</svg>
