<svg width="19" height="23" viewBox="0 0 19 23" fill="none" xmlns="http://www.w3.org/2000/svg">
<path d="M15.3809 12.2598C15.3483 10.4694 16.1621 9.08594 17.8223 8.10938C16.9108 6.80729 15.5273 6.07487 13.6719 5.91211C13.1836 5.87956 12.6302 5.94466 12.0117 6.10742C11.6536 6.20508 11.1654 6.36784 10.5469 6.5957C9.92839 6.82357 9.52148 6.9375 9.32617 6.9375C9.13086 6.9375 8.69141 6.80729 8.00781 6.54688C6.93359 6.15625 6.13607 5.96094 5.61523 5.96094C4.67122 5.99349 3.75977 6.25391 2.88086 6.74219C2.03451 7.23047 1.35091 7.94661 0.830078 8.89062C0.276693 9.89974 0 11.1042 0 12.5039C0 13.7734 0.227865 15.0918 0.683594 16.459C0.94401 17.1751 1.31836 17.9727 1.80664 18.8516C2.42513 19.9258 3.04362 20.7721 3.66211 21.3906C4.47591 22.2044 5.24089 22.5951 5.95703 22.5625C6.3151 22.5625 6.83594 22.4323 7.51953 22.1719C8.36589 21.8464 9.06576 21.6836 9.61914 21.6836C10.1725 21.6836 10.8398 21.8301 11.6211 22.123C12.3372 22.416 12.9232 22.5625 13.3789 22.5625C14.4206 22.5299 15.4785 21.7812 16.5527 20.3164C17.3665 19.1771 17.9688 17.9889 18.3594 16.752C17.0573 16.1335 16.1784 15.222 15.7227 14.0176C15.4622 13.4316 15.3483 12.8457 15.3809 12.2598ZM12.5977 4.20312C13.4766 3.16146 13.8672 1.98958 13.7695 0.6875C13.1836 0.720052 12.5814 0.899089 11.9629 1.22461C11.3444 1.55013 10.8398 1.94076 10.4492 2.39648C9.50521 3.43815 9.09831 4.61003 9.22852 5.91211C10.4329 6.00977 11.556 5.45638 12.5977 4.25195V4.20312Z" fill="white"/>
</svg>
