<svg width="22" height="22" viewBox="0 0 22 22" fill="none" xmlns="http://www.w3.org/2000/svg">
<path d="M17.5206 3.17778H16.2128V1.22223H14.9111V3.17778H7.0889V1.22223H5.78723V3.17778H4.47945C3.61608 3.1794 2.78853 3.52309 2.17803 4.13359C1.56753 4.74409 1.22384 5.57163 1.22223 6.43501V17.5206C1.22384 18.3839 1.56753 19.2115 2.17803 19.822C2.78853 20.4325 3.61608 20.7762 4.47945 20.7778H17.5206C18.3839 20.7762 19.2115 20.4325 19.822 19.822C20.4325 19.2115 20.7762 18.3839 20.7778 17.5206V6.43501C20.7762 5.57163 20.4325 4.74409 19.822 4.13359C19.2115 3.52309 18.3839 3.1794 17.5206 3.17778ZM19.4761 17.5206C19.4761 18.0392 19.2701 18.5366 18.9034 18.9034C18.5366 19.2701 18.0392 19.4761 17.5206 19.4761H4.47945C3.96081 19.4761 3.4634 19.2701 3.09666 18.9034C2.72993 18.5366 2.5239 18.0392 2.5239 17.5206V6.43501C2.5239 5.91636 2.72993 5.41896 3.09666 5.05222C3.4634 4.68548 3.96081 4.47945 4.47945 4.47945H5.78723V6.43501H7.0889V4.47945H14.9111V6.43501H16.2128V4.47945H17.5145C18.0331 4.47945 18.5305 4.68548 18.8972 5.05222C19.264 5.41896 19.47 5.91636 19.47 6.43501L19.4761 17.5206Z" fill="#181A1F"/>
<path d="M16.2128 12.3016H13.6094C13.2642 12.3016 12.9331 12.4388 12.689 12.6829C12.4449 12.927 12.3078 13.2581 12.3078 13.6033V16.2127C12.3078 16.558 12.4449 16.8891 12.689 17.1332C12.9331 17.3773 13.2642 17.5144 13.6094 17.5144H16.2189C16.5641 17.5144 16.8952 17.3773 17.1393 17.1332C17.3834 16.8891 17.5205 16.558 17.5205 16.2127V13.6094C17.5205 13.2642 17.3834 12.9331 17.1393 12.689C16.8952 12.4449 16.5641 12.3077 16.2189 12.3077L16.2128 12.3016ZM16.2128 16.2127H13.6094V13.6094H16.2189L16.2128 16.2127Z" fill="#181A1F"/>
</svg>
