<svg width="16" height="16" viewBox="0 0 16 16" fill="none" xmlns="http://www.w3.org/2000/svg">
<g clip-path="url(#clip0_17_386)">
<path d="M15.35 10.11L13.93 8.69C13.6249 8.39872 13.2193 8.23619 12.7975 8.23619C12.3757 8.23619 11.9701 8.39872 11.665 8.69L11.165 9.19C10.8258 9.528 10.3664 9.71778 9.88752 9.71778C9.40864 9.71778 8.94927 9.528 8.61002 9.19C8.22502 8.805 7.98002 8.545 7.73502 8.29C7.49002 8.035 7.23502 7.76 6.83502 7.365C6.49733 7.02661 6.30768 6.56807 6.30768 6.09C6.30768 5.61193 6.49733 5.15339 6.83502 4.815L7.33502 4.315C7.48413 4.16703 7.60243 3.99099 7.6831 3.79703C7.76377 3.60308 7.80521 3.39506 7.80502 3.185C7.80321 2.76115 7.63433 2.35512 7.33502 2.055L5.91502 0.625C5.51388 0.225577 4.97111 0.000919443 4.40502 0C4.12618 0.000410905 3.85016 0.0558271 3.59276 0.163075C3.33537 0.270322 3.10166 0.427294 2.90502 0.625L1.55002 1.97C0.573589 2.94779 0.0251465 4.27315 0.0251465 5.655C0.0251465 7.03685 0.573589 8.36221 1.55002 9.34C2.33002 10.12 3.22002 11 4.10502 11.92C4.99002 12.84 5.86002 13.7 6.63502 14.5C7.61261 15.4749 8.9369 16.0224 10.3175 16.0224C11.6982 16.0224 13.0224 15.4749 14 14.5L15.35 13.15C15.747 12.7513 15.9715 12.2126 15.975 11.65C15.98 11.3644 15.9271 11.0808 15.8197 10.8162C15.7123 10.5516 15.5526 10.3114 15.35 10.11ZM14.595 12.375L14.45 12.5L13 11.045C12.9517 10.99 12.8927 10.9455 12.8265 10.9142C12.7604 10.8829 12.6885 10.8655 12.6153 10.8632C12.5422 10.8608 12.4693 10.8734 12.4012 10.9003C12.3332 10.9272 12.2714 10.9678 12.2196 11.0196C12.1678 11.0713 12.1273 11.1332 12.1004 11.2012C12.0735 11.2693 12.0608 11.3421 12.0632 11.4153C12.0656 11.4884 12.0829 11.5603 12.1142 11.6265C12.1455 11.6927 12.19 11.7517 12.245 11.8L13.72 13.275L13.27 13.725C12.4921 14.5005 11.4385 14.936 10.34 14.936C9.24158 14.936 8.18793 14.5005 7.41002 13.725C6.64002 12.955 5.76502 12.065 4.91002 11.175C4.05502 10.285 3.13002 9.37 2.35002 8.59C1.57449 7.81209 1.139 6.75845 1.139 5.66C1.139 4.56155 1.57449 3.50791 2.35002 2.73L2.80002 2.28L4.22502 3.75C4.32448 3.85277 4.46069 3.91182 4.60369 3.91417C4.74668 3.91651 4.88475 3.86196 4.98752 3.7625C5.0903 3.66304 5.14935 3.52684 5.15169 3.38384C5.15404 3.24084 5.09948 3.10277 5.00002 3L3.50002 1.5L3.64502 1.355C3.74356 1.25487 3.8611 1.17543 3.99075 1.12134C4.1204 1.06725 4.25954 1.03959 4.40002 1.04C4.68348 1.04085 4.95502 1.15414 5.15502 1.355L6.58002 2.8C6.67893 2.8998 6.7346 3.0345 6.73502 3.175C6.73509 3.24462 6.72143 3.31358 6.69483 3.37792C6.66824 3.44226 6.62922 3.50074 6.58002 3.55L6.08002 4.05C5.54265 4.58893 5.24088 5.31894 5.24088 6.08C5.24088 6.84106 5.54265 7.57107 6.08002 8.11C6.50002 8.5 6.73002 8.745 7.00002 9C7.27002 9.255 7.50002 9.53 7.89502 9.92C8.43395 10.4574 9.16396 10.7591 9.92502 10.7591C10.6861 10.7591 11.4161 10.4574 11.955 9.92L12.455 9.42C12.5571 9.32366 12.6922 9.26999 12.8325 9.26999C12.9729 9.26999 13.1079 9.32366 13.21 9.42L14.63 10.84C14.7299 10.9387 14.8092 11.0563 14.8633 11.1859C14.9174 11.3155 14.9452 11.4546 14.945 11.595C14.9425 11.7412 14.9101 11.8853 14.8499 12.0186C14.7897 12.1518 14.703 12.2714 14.595 12.37V12.375Z" fill="white"/>
</g>
<defs>
<clipPath id="clip0_17_386">
<rect width="16" height="16" fill="white"/>
</clipPath>
</defs>
</svg>
