<svg width="14" height="14" viewBox="0 0 14 14" fill="none" xmlns="http://www.w3.org/2000/svg">
<path fill-rule="evenodd" clip-rule="evenodd" d="M5.28586 0.463849C5.93282 0.46385 6.56525 0.655693 7.10311 1.0151C7.64098 1.37452 8.06012 1.88535 8.3075 2.48296C8.55488 3.08057 8.61938 3.73811 8.49285 4.37238C8.36632 5.00666 8.05443 5.58915 7.59665 6.04618C7.13888 6.5032 6.55578 6.81421 5.92115 6.93986C5.28652 7.0655 4.62886 7.00014 4.0314 6.75203C3.43393 6.50393 2.92351 6.08423 2.56471 5.54605C2.20591 5.00787 2.01485 4.37538 2.01572 3.72862C2.01572 2.86159 2.36025 2.03007 2.97352 1.41698C3.58679 0.8039 4.41857 0.459473 5.28586 0.459473V0.463849Z" fill="#E8EDED"/>
<path fill-rule="evenodd" clip-rule="evenodd" d="M10.0707 12.3325C10.1127 12.4705 10.1221 12.6164 10.0982 12.7586C10.0743 12.9009 10.0176 13.0356 9.93277 13.1523C9.8479 13.2689 9.73711 13.3643 9.60912 13.4309C9.48112 13.4975 9.33942 13.5335 9.19515 13.536H1.40284C1.25857 13.5335 1.11687 13.4975 0.988872 13.4309C0.860878 13.3643 0.750088 13.2689 0.665222 13.1523C0.580355 13.0356 0.523727 12.9009 0.499794 12.7586C0.475861 12.6164 0.485276 12.4705 0.527298 12.3325L0.965069 10.8621C1.13828 10.2852 1.49289 9.77953 1.97629 9.42005C2.45969 9.06057 3.04612 8.86644 3.6486 8.86646H6.94939C7.55187 8.86644 8.13831 9.06057 8.6217 9.42005C9.1051 9.77953 9.45971 10.2852 9.63292 10.8621L10.0707 12.3325Z" fill="#E8EDED"/>
<path fill-rule="evenodd" clip-rule="evenodd" d="M8.72675 0.463867C9.37352 0.463867 10.0058 0.655599 10.5435 1.01482C11.0813 1.37404 11.5005 1.88461 11.748 2.48197C11.9955 3.07932 12.0602 3.73664 11.9341 4.37079C11.8079 5.00494 11.4964 5.58745 11.0391 6.04465C10.5818 6.50185 9.99907 6.8132 9.36472 6.93934C8.73038 7.06548 8.07286 7.00074 7.47532 6.75331C6.87778 6.50588 6.36705 6.08686 6.00772 5.54925C5.64839 5.01164 5.4566 4.37959 5.4566 3.73301C5.4566 2.86598 5.80114 2.03446 6.41441 1.42138C7.02768 0.808294 7.85945 0.463867 8.72675 0.463867Z" fill="#181A1F"/>
<path fill-rule="evenodd" clip-rule="evenodd" d="M13.5028 12.3325C13.5448 12.4705 13.5542 12.6164 13.5303 12.7586C13.5064 12.9009 13.4498 13.0356 13.3649 13.1523C13.28 13.2689 13.1692 13.3643 13.0412 13.4309C12.9132 13.4975 12.7715 13.5335 12.6273 13.536H4.84809C4.70382 13.5335 4.56212 13.4975 4.43412 13.4309C4.30613 13.3643 4.19534 13.2689 4.11047 13.1523C4.02561 13.0356 3.96898 12.9009 3.94505 12.7586C3.92111 12.6164 3.93053 12.4705 3.97255 12.3325L4.41032 10.8621C4.58353 10.2852 4.93814 9.77953 5.42154 9.42005C5.90494 9.06057 6.49137 8.86644 7.09385 8.86646H10.3946C10.9971 8.86644 11.5836 9.06057 12.067 9.42005C12.5504 9.77953 12.905 10.2852 13.0782 10.8621L13.5159 12.3325H13.5028Z" fill="#181A1F"/>
<path d="M12.6098 14H4.84814C4.62955 14.0003 4.41391 13.9496 4.21847 13.8517C4.02303 13.7538 3.85321 13.6116 3.7226 13.4363C3.59199 13.2611 3.50421 13.0578 3.46629 12.8425C3.42836 12.6273 3.44134 12.4062 3.50418 12.1969L3.94195 10.7265C4.14107 10.0519 4.55392 9.46013 5.11839 9.04026C5.68286 8.62039 6.36844 8.39509 7.07201 8.39825H10.3728C11.0764 8.39509 11.762 8.62039 12.3264 9.04026C12.8909 9.46013 13.3037 10.0519 13.5029 10.7265L13.9406 12.1969C14.0032 12.4052 14.0163 12.6251 13.9791 12.8393C13.9419 13.0535 13.8553 13.2561 13.7261 13.4311C13.597 13.606 13.4289 13.7485 13.2352 13.8473C13.0414 13.946 12.8273 13.9983 12.6098 14ZM7.07639 9.33042C6.57362 9.32789 6.08364 9.48869 5.68019 9.78861C5.27675 10.0885 4.98167 10.5114 4.83938 10.9934L4.40161 12.4639C4.38147 12.5327 4.37742 12.6053 4.38977 12.6759C4.40213 12.7466 4.43055 12.8135 4.47285 12.8714C4.51515 12.9293 4.5702 12.9768 4.63375 13.0101C4.6973 13.0434 4.76766 13.0616 4.83938 13.0635H12.6098C12.6815 13.0616 12.7519 13.0434 12.8154 13.0101C12.879 12.9768 12.934 12.9293 12.9763 12.8714C13.0186 12.8135 13.0471 12.7466 13.0594 12.6759C13.0718 12.6053 13.0677 12.5327 13.0476 12.4639L12.6098 10.9934C12.4675 10.5114 12.1724 10.0885 11.769 9.78861C11.3656 9.48869 10.8756 9.32789 10.3728 9.33042H7.07639ZM2.33534 14H1.40289C1.18429 14.0003 0.968654 13.9496 0.773214 13.8517C0.577774 13.7538 0.407957 13.6116 0.277348 13.4363C0.146738 13.2611 0.0589591 13.0578 0.0210328 12.8425C-0.0168934 12.6273 -0.00391479 12.4062 0.0589306 12.1969L0.496701 10.7265C0.696028 10.0511 1.10953 9.45888 1.67489 9.03894C2.24024 8.619 2.92682 8.39414 3.63114 8.39825C3.69616 8.39194 3.76178 8.3993 3.82379 8.41986C3.8858 8.44041 3.94282 8.4737 3.99119 8.5176C4.03956 8.56149 4.07821 8.61501 4.10467 8.67473C4.13112 8.73444 4.14478 8.79902 4.14478 8.86433C4.14478 8.92964 4.13112 8.99422 4.10467 9.05394C4.07821 9.11365 4.03956 9.16718 3.99119 9.21107C3.94282 9.25496 3.8858 9.28825 3.82379 9.30881C3.76178 9.32936 3.69616 9.33672 3.63114 9.33042C3.12837 9.32789 2.63839 9.48869 2.23494 9.78861C1.83149 10.0885 1.53642 10.5114 1.39413 10.9934L0.95636 12.4639C0.93622 12.5327 0.93217 12.6053 0.944521 12.6759C0.956873 12.7466 0.985296 12.8135 1.0276 12.8714C1.0699 12.9293 1.12495 12.9768 1.1885 13.0101C1.25205 13.0434 1.3224 13.0616 1.39413 13.0635H2.33534C2.40036 13.0572 2.46598 13.0645 2.52799 13.0851C2.59 13.1056 2.64702 13.1389 2.69539 13.1828C2.74376 13.2267 2.78241 13.2802 2.80887 13.3399C2.83532 13.3996 2.84898 13.4642 2.84898 13.5295C2.84898 13.5948 2.83532 13.6594 2.80887 13.7191C2.78241 13.7789 2.74376 13.8324 2.69539 13.8763C2.64702 13.9202 2.59 13.9535 2.52799 13.974C2.46598 13.9946 2.40036 14.0019 2.33534 13.9956V14ZM8.72678 7.46608C7.98823 7.46608 7.26627 7.24714 6.65218 6.83695C6.0381 6.42676 5.55948 5.84374 5.27685 5.16162C4.99422 4.47949 4.92027 3.7289 5.06435 3.00476C5.20844 2.28062 5.56408 1.61546 6.08632 1.09338C6.60855 0.571309 7.27392 0.215771 7.99828 0.071731C8.72264 -0.0723092 9.47346 0.00161746 10.1558 0.284162C10.8381 0.566707 11.4213 1.04518 11.8316 1.65908C12.242 2.27297 12.461 2.99472 12.461 3.73304C12.4598 4.72275 12.066 5.67159 11.366 6.37142C10.6659 7.07125 9.7168 7.46492 8.72678 7.46608ZM8.72678 0.932168C8.17266 0.932168 7.63097 1.09644 7.17023 1.4042C6.70948 1.71196 6.35038 2.1494 6.13832 2.66119C5.92627 3.17299 5.87078 3.73615 5.97889 4.27947C6.08699 4.82278 6.35383 5.32185 6.74566 5.71356C7.13749 6.10527 7.63671 6.37203 8.18019 6.4801C8.72368 6.58817 9.28701 6.5327 9.79896 6.32071C10.3109 6.10872 10.7485 5.74973 11.0563 5.28912C11.3642 4.82852 11.5285 4.287 11.5285 3.73304C11.5285 2.9898 11.2335 2.27694 10.7082 1.75098C10.1829 1.22502 9.47025 0.928951 8.72678 0.927791V0.932168ZM4.66865 7.40919H4.5811C3.72837 7.24452 2.9596 6.78821 2.40678 6.11859C1.85396 5.44897 1.55159 4.60783 1.55159 3.73961C1.55159 2.87138 1.85396 2.03025 2.40678 1.36063C2.9596 0.691009 3.72837 0.234689 4.5811 0.0700236C4.7004 0.0529225 4.8217 0.0824472 4.91978 0.152459C5.01786 0.22247 5.08518 0.327581 5.10773 0.445934C5.13028 0.564288 5.10633 0.686777 5.04086 0.787931C4.97539 0.889086 4.87344 0.961122 4.75621 0.989061C4.1141 1.10963 3.53434 1.45075 3.11718 1.95341C2.70002 2.45606 2.47169 3.08866 2.47169 3.7418C2.47169 4.39493 2.70002 5.02753 3.11718 5.53019C3.53434 6.03285 4.1141 6.37396 4.75621 6.49453C4.86008 6.52525 4.95009 6.59101 5.01091 6.68061C5.07174 6.77021 5.09962 6.87812 5.08982 6.98596C5.08001 7.0938 5.03312 7.19491 4.95713 7.27208C4.88113 7.34925 4.78074 7.3977 4.67303 7.40919H4.66865Z" fill="#181A1F"/>
</svg>
