<svg width="22" height="22" viewBox="0 0 22 22" fill="none" xmlns="http://www.w3.org/2000/svg">
<path d="M11 20.7778C12.9338 20.7778 14.8243 20.2043 16.4322 19.1299C18.0402 18.0555 19.2934 16.5285 20.0335 14.7418C20.7735 12.9552 20.9672 10.9892 20.5899 9.09246C20.2126 7.19576 19.2814 5.45353 17.9139 4.08608C16.5465 2.71863 14.8042 1.78739 12.9075 1.41011C11.0108 1.03283 9.04485 1.22647 7.25819 1.96652C5.47154 2.70658 3.94446 3.95982 2.87006 5.56777C1.79567 7.17572 1.22221 9.06615 1.22221 11C1.22221 13.5932 2.25237 16.0803 4.08605 17.9139C5.91974 19.7476 8.40676 20.7778 11 20.7778ZM11 2.5239C12.6764 2.5239 14.3152 3.02102 15.7091 3.95238C17.103 4.88375 18.1894 6.20754 18.8309 7.75634C19.4724 9.30515 19.6403 11.0094 19.3132 12.6536C18.9862 14.2978 18.1789 15.8081 16.9935 16.9935C15.8081 18.1789 14.2978 18.9862 12.6536 19.3133C11.0094 19.6403 9.30513 19.4725 7.75632 18.8309C6.20751 18.1894 4.88373 17.103 3.95236 15.7091C3.02099 14.3152 2.52388 12.6764 2.52388 11C2.52549 8.7525 3.41903 6.59751 5.00826 5.00828C6.59749 3.41905 8.75248 2.52552 11 2.5239Z" fill="#181A1F"/>
<path d="M8.39058 14.5139H12.9556V13.2061H8.39058C8.03968 13.2061 7.70316 13.0667 7.45504 12.8186C7.20692 12.5705 7.06752 12.2339 7.06752 11.883C7.06752 11.5321 7.20692 11.1956 7.45504 10.9475C7.70316 10.6994 8.03968 10.56 8.39058 10.56H15.565C15.6989 10.5591 15.8292 10.5171 15.9384 10.4398C16.0476 10.3624 16.1305 10.2534 16.1758 10.1275C16.2211 10.0015 16.2267 9.86475 16.1918 9.73554C16.1569 9.60634 16.0831 9.49096 15.9806 9.40499L13.3711 7.22943L12.5339 8.23165L13.7561 9.25221H8.38447C7.6924 9.25221 7.02868 9.52713 6.53931 10.0165C6.04995 10.5059 5.77503 11.1696 5.77503 11.8617C5.77176 12.5597 6.04512 13.2307 6.53529 13.7277C7.02545 14.2248 7.69253 14.5074 8.39058 14.5139Z" fill="#181A1F"/>
</svg>
