<svg width="16" height="16" viewBox="0 0 16 16" fill="none" xmlns="http://www.w3.org/2000/svg">
<g clip-path="url(#clip0_17_388)">
<path d="M8.00003 0.888889C6.59359 0.888889 5.21873 1.30595 4.04931 2.08733C2.87989 2.86871 1.96844 3.97931 1.43022 5.2787C0.891997 6.57808 0.751173 8.00789 1.02556 9.38731C1.29994 10.7667 1.97721 12.0338 2.97172 13.0283C3.96622 14.0228 5.2333 14.7001 6.61272 14.9745C7.99214 15.2489 9.42195 15.108 10.7213 14.5698C12.0207 14.0316 13.1313 13.1201 13.9127 11.9507C14.6941 10.7813 15.1111 9.40645 15.1111 8C15.1111 6.11402 14.3619 4.30528 13.0283 2.97169C11.6948 1.63809 9.88601 0.888889 8.00003 0.888889ZM5.49781 2.37333L6.30225 3.17778C6.39106 3.26552 6.46154 3.37002 6.5096 3.48523C6.55767 3.60044 6.58237 3.72406 6.58225 3.84889V5.04C6.58295 5.16452 6.55895 5.28795 6.51166 5.40314C6.46436 5.51833 6.3947 5.62301 6.3067 5.71111L5.24448 6.77333C5.06874 6.94812 4.92921 7.15586 4.83387 7.38466C4.73854 7.61345 4.68929 7.85881 4.68892 8.10667V8.81333C4.69017 9.02084 4.62353 9.22306 4.49916 9.38916C4.37478 9.55526 4.1995 9.67613 4.00003 9.73333L2.26225 10.2222C1.68633 8.74909 1.70135 7.11049 2.30416 5.64816C2.90698 4.18582 4.05106 3.01266 5.49781 2.37333ZM2.6667 11.1111L4.24003 10.6667C4.63483 10.5516 4.98187 10.3121 5.22937 9.98367C5.47687 9.65527 5.61157 9.25566 5.61336 8.84445V8.11556C5.61325 7.99072 5.63795 7.86711 5.68601 7.7519C5.73408 7.63669 5.80456 7.53218 5.89336 7.44445L6.95559 6.38222C7.13132 6.20743 7.27086 5.99969 7.36619 5.7709C7.46152 5.5421 7.51078 5.29675 7.51114 5.04889V3.84889C7.51078 3.60103 7.46152 3.35567 7.36619 3.12688C7.27086 2.89809 7.13132 2.69034 6.95559 2.51556L6.49336 2.03111C7.29239 1.82446 8.12492 1.78132 8.94103 1.90427C9.75714 2.02723 10.54 2.31374 11.2427 2.74664C11.9454 3.17953 12.5534 3.74988 13.0302 4.42349C13.5071 5.09709 13.843 5.86007 14.0178 6.66667L12.4445 6.93333C11.8428 7.03242 11.3029 7.36053 10.9378 7.84889L10.3645 8.60889C10.1987 8.82968 10.0843 9.08473 10.0297 9.35541C9.97508 9.62608 9.98166 9.90553 10.0489 10.1733C10.1132 10.4257 10.0887 10.6924 9.97939 10.9288C9.87012 11.1651 9.68279 11.3566 9.44892 11.4711C9.16068 11.6071 8.90815 11.8085 8.71141 12.0593C8.51466 12.31 8.37913 12.6032 8.31559 12.9156L8.0667 14.1556C6.97903 14.1644 5.90806 13.8879 4.96057 13.3537C4.01308 12.8195 3.22217 12.0463 2.6667 11.1111ZM9.05781 14.08L9.24892 13.12C9.28537 12.9486 9.36199 12.7883 9.47248 12.6523C9.58297 12.5163 9.72418 12.4085 9.88448 12.3378C10.312 12.1272 10.654 11.7759 10.8531 11.3429C11.0522 10.9099 11.0962 10.4216 10.9778 9.96C10.9439 9.82914 10.9403 9.69227 10.9672 9.5598C10.9942 9.42733 11.051 9.30276 11.1334 9.19556L11.7067 8.43556C11.9219 8.14529 12.2399 7.94816 12.5956 7.88445L14.12 7.63111C14.1971 9.13207 13.7282 10.6102 12.8002 11.7923C11.8721 12.9745 10.5475 13.7808 9.07114 14.0622L9.05781 14.08Z" fill="white"/>
</g>
<defs>
<clipPath id="clip0_17_388">
<rect width="16" height="16" fill="white"/>
</clipPath>
</defs>
</svg>
