<svg width="13" height="13" viewBox="0 0 13 13" fill="none" xmlns="http://www.w3.org/2000/svg">
<path d="M6.125 3.50586C5.5599 3.50586 5.03125 3.65169 4.53906 3.94336C4.0651 4.2168 3.68229 4.59961 3.39062 5.0918C3.11719 5.56576 2.98047 6.08529 2.98047 6.65039C2.98047 7.21549 3.11719 7.74414 3.39062 8.23633C3.68229 8.71029 4.0651 9.0931 4.53906 9.38477C5.03125 9.6582 5.5599 9.79492 6.125 9.79492C6.6901 9.79492 7.20964 9.6582 7.68359 9.38477C8.17578 9.0931 8.55859 8.71029 8.83203 8.23633C9.1237 7.74414 9.26953 7.21549 9.26953 6.65039C9.26953 6.08529 9.1237 5.56576 8.83203 5.0918C8.55859 4.59961 8.17578 4.2168 7.68359 3.94336C7.20964 3.65169 6.6901 3.50586 6.125 3.50586ZM6.125 8.70117C5.5599 8.70117 5.07682 8.50065 4.67578 8.09961C4.27474 7.69857 4.07422 7.21549 4.07422 6.65039C4.07422 6.08529 4.27474 5.60221 4.67578 5.20117C5.07682 4.80013 5.5599 4.59961 6.125 4.59961C6.6901 4.59961 7.17318 4.80013 7.57422 5.20117C7.97526 5.60221 8.17578 6.08529 8.17578 6.65039C8.17578 7.21549 7.97526 7.69857 7.57422 8.09961C7.17318 8.50065 6.6901 8.70117 6.125 8.70117ZM10.1445 3.36914C10.1263 3.56966 10.0443 3.74284 9.89844 3.88867C9.77083 4.03451 9.60677 4.10742 9.40625 4.10742C9.20573 4.10742 9.03255 4.03451 8.88672 3.88867C8.74089 3.74284 8.66797 3.56966 8.66797 3.36914C8.66797 3.16862 8.74089 2.99544 8.88672 2.84961C9.03255 2.70378 9.20573 2.63086 9.40625 2.63086C9.60677 2.63086 9.77995 2.70378 9.92578 2.84961C10.0716 2.99544 10.1445 3.16862 10.1445 3.36914ZM12.2227 4.10742C12.1862 3.57878 12.1042 3.12305 11.9766 2.74023C11.8125 2.28451 11.5573 1.89258 11.2109 1.56445C10.8828 1.2181 10.4909 0.962891 10.0352 0.798828C9.65234 0.671224 9.19661 0.598307 8.66797 0.580078C8.15755 0.54362 7.3099 0.525391 6.125 0.525391C4.9401 0.525391 4.08333 0.54362 3.55469 0.580078C3.04427 0.598307 2.59766 0.671224 2.21484 0.798828C1.75911 0.962891 1.35807 1.2181 1.01172 1.56445C0.683594 1.89258 0.4375 2.28451 0.273438 2.74023C0.145833 3.12305 0.0638021 3.57878 0.0273438 4.10742C0.00911458 4.61784 0 5.46549 0 6.65039C0 7.83529 0.00911458 8.69206 0.0273438 9.2207C0.0638021 9.73112 0.145833 10.1777 0.273438 10.5605C0.4375 11.0163 0.683594 11.4173 1.01172 11.7637C1.35807 12.0918 1.75911 12.3288 2.21484 12.4746C2.59766 12.6204 3.04427 12.7025 3.55469 12.7207C4.08333 12.7572 4.9401 12.7754 6.125 12.7754C7.3099 12.7754 8.15755 12.7572 8.66797 12.7207C9.19661 12.7025 9.65234 12.6296 10.0352 12.502C10.4909 12.3379 10.8828 12.0918 11.2109 11.7637C11.5573 11.4173 11.8125 11.0163 11.9766 10.5605C12.1042 10.1777 12.1771 9.73112 12.1953 9.2207C12.2318 8.69206 12.25 7.83529 12.25 6.65039C12.25 5.46549 12.2409 4.61784 12.2227 4.10742ZM10.9102 10.2598C10.6914 10.8066 10.2995 11.1986 9.73438 11.4355C9.44271 11.5449 8.95052 11.6178 8.25781 11.6543C7.875 11.6725 7.3099 11.6816 6.5625 11.6816H5.6875C4.95833 11.6816 4.39323 11.6725 3.99219 11.6543C3.31771 11.6178 2.82552 11.5449 2.51562 11.4355C1.96875 11.2168 1.57682 10.8249 1.33984 10.2598C1.23047 9.94987 1.15755 9.45768 1.12109 8.7832C1.10286 8.38216 1.09375 7.81706 1.09375 7.08789V6.21289C1.09375 5.48372 1.10286 4.91862 1.12109 4.51758C1.15755 3.82487 1.23047 3.33268 1.33984 3.04102C1.55859 2.47591 1.95052 2.08398 2.51562 1.86523C2.82552 1.75586 3.31771 1.68294 3.99219 1.64648C4.39323 1.62826 4.95833 1.61914 5.6875 1.61914H6.5625C7.29167 1.61914 7.85677 1.62826 8.25781 1.64648C8.95052 1.68294 9.44271 1.75586 9.73438 1.86523C10.2995 2.08398 10.6914 2.47591 10.9102 3.04102C11.0195 3.33268 11.0924 3.82487 11.1289 4.51758C11.1471 4.90039 11.1562 5.46549 11.1562 6.21289V7.08789C11.1562 7.81706 11.1471 8.38216 11.1289 8.7832C11.0924 9.45768 11.0195 9.94987 10.9102 10.2598Z" fill="white"/>
</svg>
