<svg width="14" height="13" viewBox="0 0 14 13" fill="none" xmlns="http://www.w3.org/2000/svg">
<path d="M7.125 3.50586C5.375 3.50586 3.98047 4.92773 3.98047 6.65039C3.98047 8.40039 5.375 9.79492 7.125 9.79492C8.84766 9.79492 10.2695 8.40039 10.2695 6.65039C10.2695 4.92773 8.84766 3.50586 7.125 3.50586ZM7.125 8.70117C6.00391 8.70117 5.07422 7.79883 5.07422 6.65039C5.07422 5.5293 5.97656 4.62695 7.125 4.62695C8.24609 4.62695 9.14844 5.5293 9.14844 6.65039C9.14844 7.79883 8.24609 8.70117 7.125 8.70117ZM11.1172 3.39648C11.1172 2.98633 10.7891 2.6582 10.3789 2.6582C9.96875 2.6582 9.64062 2.98633 9.64062 3.39648C9.64062 3.80664 9.96875 4.13477 10.3789 4.13477C10.7891 4.13477 11.1172 3.80664 11.1172 3.39648ZM13.1953 4.13477C13.1406 3.15039 12.9219 2.27539 12.2109 1.56445C11.5 0.853516 10.625 0.634766 9.64062 0.580078C8.62891 0.525391 5.59375 0.525391 4.58203 0.580078C3.59766 0.634766 2.75 0.853516 2.01172 1.56445C1.30078 2.27539 1.08203 3.15039 1.02734 4.13477C0.972656 5.14648 0.972656 8.18164 1.02734 9.19336C1.08203 10.1777 1.30078 11.0254 2.01172 11.7637C2.75 12.4746 3.59766 12.6934 4.58203 12.748C5.59375 12.8027 8.62891 12.8027 9.64062 12.748C10.625 12.6934 11.5 12.4746 12.2109 11.7637C12.9219 11.0254 13.1406 10.1777 13.1953 9.19336C13.25 8.18164 13.25 5.14648 13.1953 4.13477ZM11.8828 10.2598C11.6914 10.8066 11.2539 11.2168 10.7344 11.4355C9.91406 11.7637 8 11.6816 7.125 11.6816C6.22266 11.6816 4.30859 11.7637 3.51562 11.4355C2.96875 11.2168 2.55859 10.8066 2.33984 10.2598C2.01172 9.4668 2.09375 7.55273 2.09375 6.65039C2.09375 5.77539 2.01172 3.86133 2.33984 3.04102C2.55859 2.52148 2.96875 2.11133 3.51562 1.89258C4.30859 1.56445 6.22266 1.64648 7.125 1.64648C8 1.64648 9.91406 1.56445 10.7344 1.89258C11.2539 2.08398 11.6641 2.52148 11.8828 3.04102C12.2109 3.86133 12.1289 5.77539 12.1289 6.65039C12.1289 7.55273 12.2109 9.4668 11.8828 10.2598Z" fill="#181A1F"/>
</svg>
