<svg width="13" height="13" viewBox="0 0 13 13" fill="none" xmlns="http://www.w3.org/2000/svg">
<path d="M2.73438 12.9004V4.72461H0.191406V12.9004H2.73438ZM1.44922 3.63086C2.26953 3.63086 2.92578 2.94727 2.92578 2.12695C2.92578 1.33398 2.26953 0.677734 1.44922 0.677734C0.65625 0.677734 0 1.33398 0 2.12695C0 2.94727 0.65625 3.63086 1.44922 3.63086ZM12.2227 12.9004H12.25V8.41602C12.25 6.22852 11.7578 4.5332 9.1875 4.5332C7.95703 4.5332 7.13672 5.2168 6.78125 5.8457H6.75391V4.72461H4.32031V12.9004H6.86328V8.85352C6.86328 7.78711 7.05469 6.77539 8.36719 6.77539C9.67969 6.77539 9.70703 7.97852 9.70703 8.93555V12.9004H12.2227Z" fill="#181A1F"/>
</svg>
