<svg width="13" height="13" viewBox="0 0 13 13" fill="none" xmlns="http://www.w3.org/2000/svg">
<path d="M2.73438 12.9004H0.191406V4.72461H2.73438V12.9004ZM1.47656 3.60352C1.07552 3.60352 0.729167 3.45768 0.4375 3.16602C0.145833 2.87435 0 2.52799 0 2.12695C0 1.72591 0.145833 1.37956 0.4375 1.08789C0.729167 0.796224 1.07552 0.650391 1.47656 0.650391C1.8776 0.650391 2.22396 0.796224 2.51562 1.08789C2.80729 1.37956 2.95312 1.72591 2.95312 2.12695C2.95312 2.52799 2.80729 2.87435 2.51562 3.16602C2.22396 3.45768 1.8776 3.60352 1.47656 3.60352ZM12.25 12.9004H9.70703V8.9082C9.70703 8.25195 9.65234 7.77799 9.54297 7.48633C9.34245 6.99414 8.95052 6.74805 8.36719 6.74805C7.78385 6.74805 7.3737 6.9668 7.13672 7.4043C6.95443 7.73242 6.86328 8.21549 6.86328 8.85352V12.9004H4.34766V4.72461H6.78125V5.8457H6.80859C6.99089 5.48112 7.28255 5.18034 7.68359 4.94336C8.12109 4.65169 8.63151 4.50586 9.21484 4.50586C10.3997 4.50586 11.2292 4.87956 11.7031 5.62695C12.0677 6.22852 12.25 7.1582 12.25 8.41602V12.9004Z" fill="white"/>
</svg>
