<svg width="14" height="14" viewBox="0 0 14 14" fill="none" xmlns="http://www.w3.org/2000/svg">
<path d="M9.27477 1.16662C9.02484 0.91764 8.68645 0.777809 8.33366 0.777733H5.66588C5.49042 0.776701 5.31651 0.810498 5.15421 0.877167C4.99191 0.943835 4.84445 1.04205 4.72038 1.16612C4.59631 1.29019 4.4981 1.43765 4.43143 1.59995C4.36476 1.76225 4.33096 1.93616 4.33199 2.11162V3.88884H5.22255V2.11162C5.22203 2.05326 5.23314 1.99538 5.25524 1.94135C5.27733 1.88733 5.30997 1.83825 5.35124 1.79698C5.39251 1.75571 5.44159 1.72307 5.49561 1.70098C5.54964 1.67888 5.60752 1.66777 5.66588 1.66829H8.33366C8.39147 1.66776 8.44879 1.67884 8.50224 1.70089C8.55568 1.72293 8.60415 1.75549 8.64477 1.79662C8.6869 1.83751 8.72033 1.88649 8.74305 1.94062C8.76578 1.99475 8.77732 2.05292 8.77699 2.11162V3.88884H9.66755V2.11162C9.66662 1.7571 9.52541 1.41736 9.27477 1.16662Z" fill="black"/>
<path fill-rule="evenodd" clip-rule="evenodd" d="M10.6086 5.16442C10.3587 4.91544 10.0203 4.77561 9.66751 4.77554H4.33196C4.1565 4.7745 3.98258 4.8083 3.82028 4.87497C3.65798 4.94164 3.51052 5.03985 3.38646 5.16392C3.26239 5.28799 3.16417 5.43545 3.0975 5.59775C3.03084 5.76005 2.99704 5.93397 2.99807 6.10942V11.8883C2.99807 12.2421 3.1386 12.5814 3.38876 12.8315C3.63891 13.0817 3.97819 13.2222 4.33196 13.2222H9.66751C10.0213 13.2222 10.3606 13.0817 10.6107 12.8315C10.8609 12.5814 11.0014 12.2421 11.0014 11.8883V6.10942C11.0005 5.7549 10.8593 5.41516 10.6086 5.16442ZM5.66585 11.445H4.77918V6.55665H5.66974L5.66585 11.445ZM7.44307 11.445H6.5564V6.55665H7.44696L7.44307 11.445ZM9.22029 11.445H8.33363V6.55665H9.22418L9.22029 11.445Z" fill="black"/>
</svg>
