<svg width="20" height="20" viewBox="0 0 20 20" fill="none" xmlns="http://www.w3.org/2000/svg">
<g clip-path="url(#clip0_17_384)">
<path d="M19.8062 18.8625L15.2437 14.3C16.7066 12.5932 17.4514 10.3861 17.3219 8.14189C17.1925 5.89771 16.1988 3.79091 14.5494 2.26362C12.9 0.736328 10.7231 -0.092719 8.47562 -0.0495418C6.22812 -0.00636454 4.08471 0.905681 2.49519 2.49519C0.905681 4.08471 -0.00636454 6.22812 -0.0495418 8.47562C-0.092719 10.7231 0.736328 12.9 2.26362 14.5494C3.79091 16.1988 5.89771 17.1925 8.14189 17.3219C10.3861 17.4514 12.5932 16.7066 14.3 15.2437L18.8625 19.8062C18.9901 19.9183 19.1556 19.9775 19.3254 19.972C19.4951 19.9665 19.6564 19.8966 19.7765 19.7765C19.8966 19.6564 19.9665 19.4951 19.972 19.3254C19.9775 19.1556 19.9183 18.9901 19.8062 18.8625ZM1.33125 8.66875C1.33125 7.21903 1.76107 5.80186 2.56636 4.59638C3.37165 3.3909 4.51626 2.45123 5.85551 1.89616C7.19476 1.34109 8.66851 1.19554 10.0905 1.47792C11.5124 1.76029 12.8187 2.4579 13.8443 3.48257C14.8698 4.50724 15.5685 5.81296 15.8521 7.23467C16.1357 8.65638 15.9914 10.1303 15.4375 11.47C14.8836 12.8097 13.9449 13.9551 12.7401 14.7614C11.5353 15.5677 10.1185 15.9988 8.66875 16C6.72431 15.9983 4.8599 15.2256 3.48439 13.8513C2.10888 12.4769 1.33456 10.6132 1.33125 8.66875Z" fill="white"/>
</g>
<defs>
<clipPath id="clip0_17_384">
<rect width="20" height="20" fill="white"/>
</clipPath>
</defs>
</svg>
