<svg width="22" height="22" viewBox="0 0 22 22" fill="none" xmlns="http://www.w3.org/2000/svg">
<path d="M11 1.22223C9.06615 1.22223 7.17572 1.79569 5.56777 2.87008C3.95982 3.94448 2.70658 5.47156 1.96652 7.25821C1.22647 9.04487 1.03283 11.0109 1.41011 12.9076C1.78739 14.8043 2.71863 16.5465 4.08608 17.9139C5.45353 19.2814 7.19576 20.2126 9.09246 20.5899C10.9892 20.9672 12.9552 20.7736 14.7418 20.0335C16.5285 19.2934 18.0555 18.0402 19.1299 16.4323C20.2043 14.8243 20.7778 12.9339 20.7778 11C20.7778 8.40678 19.7476 5.91976 17.9139 4.08607C16.0803 2.25239 13.5932 1.22223 11 1.22223ZM2.5239 11C2.52107 8.80838 3.36786 6.70097 4.88633 5.12062C6.4048 3.54028 8.47673 2.61004 10.6667 2.52538C12.8567 2.44072 14.9943 3.20824 16.6302 4.66665C18.2661 6.12506 19.2731 8.16081 19.4395 10.3461H17.5206C17.3471 10.3461 17.1808 10.415 17.0582 10.5376C16.9356 10.6603 16.8667 10.8266 16.8667 11C16.8651 12.5554 16.2464 14.0467 15.1466 15.1466C14.0467 16.2464 12.5555 16.8651 11 16.8667C10.8266 16.8667 10.6603 16.9356 10.5376 17.0582C10.415 17.1808 10.3461 17.3471 10.3461 17.5206V19.4456C8.21911 19.2796 6.23276 18.3181 4.78303 16.7528C3.33329 15.1876 2.52665 13.1335 2.5239 11ZM11.6539 19.4395V18.1439C13.3231 17.9898 14.8858 17.2565 16.0712 16.0712C17.2565 14.8858 17.9898 13.3231 18.1439 11.6539H19.4456C19.2871 13.667 18.4152 15.5575 16.9867 16.9848C15.5583 18.4122 13.6672 19.2826 11.6539 19.4395Z" fill="#181A1F"/>
<path d="M12.4972 13.4444L13.4445 12.4972L11.6784 10.7311V6.45331H10.3461V11C10.3466 11.1717 10.4147 11.3363 10.5356 11.4583L12.4972 13.4444Z" fill="#181A1F"/>
</svg>
