<svg width="22" height="22" viewBox="0 0 22 22" fill="none" xmlns="http://www.w3.org/2000/svg">
<path d="M11 20.7778C9.06609 20.7778 7.17566 20.2043 5.56771 19.1299C3.95976 18.0555 2.70652 16.5285 1.96646 14.7418C1.2264 12.9552 1.03277 10.9892 1.41005 9.09246C1.78733 7.19576 2.71857 5.45353 4.08602 4.08608C5.45346 2.71863 7.1957 1.78739 9.0924 1.41011C10.9891 1.03283 12.9551 1.22647 14.7417 1.96652C16.5284 2.70658 18.0555 3.95982 19.1299 5.56777C20.2043 7.17572 20.7777 9.06615 20.7777 11C20.7777 13.5932 19.7476 16.0803 17.9139 17.9139C16.0802 19.7476 13.5932 20.7778 11 20.7778ZM11 2.5239C9.32353 2.5239 7.68477 3.02102 6.29088 3.95238C4.89699 4.88375 3.81058 6.20754 3.16904 7.75634C2.52751 9.30515 2.35965 11.0094 2.68671 12.6536C3.01376 14.2978 3.82103 15.8081 5.00643 16.9935C6.19184 18.1789 7.70214 18.9862 9.34634 19.3133C10.9905 19.6403 12.6948 19.4725 14.2436 18.8309C15.7924 18.1894 17.1162 17.103 18.0476 15.7091C18.9789 14.3152 19.4761 12.6764 19.4761 11C19.4744 8.7525 18.5809 6.59751 16.9917 5.00828C15.4025 3.41905 13.2475 2.52552 11 2.5239Z" fill="#181A1F"/>
<path d="M13.6095 14.5139H9.04448V13.2061H13.6095C13.9604 13.2061 14.2969 13.0667 14.545 12.8186C14.7931 12.5705 14.9325 12.2339 14.9325 11.883C14.9325 11.5321 14.7931 11.1956 14.545 10.9475C14.2969 10.6994 13.9604 10.56 13.6095 10.56H6.43504C6.3012 10.5591 6.17088 10.5171 6.06165 10.4398C5.95243 10.3624 5.86957 10.2534 5.82426 10.1275C5.77895 10.0015 5.77337 9.86475 5.80828 9.73554C5.8432 9.60634 5.91691 9.49096 6.01948 9.40499L8.62893 7.22943L9.46615 8.23165L8.24393 9.25221H13.6156C14.3077 9.25221 14.9714 9.52713 15.4607 10.0165C15.9501 10.5059 16.225 11.1696 16.225 11.8617C16.2283 12.5597 15.9549 13.2307 15.4648 13.7277C14.9746 14.2248 14.3075 14.5074 13.6095 14.5139Z" fill="#181A1F"/>
</svg>
