<svg width="14" height="13" viewBox="0 0 14 13" fill="none" xmlns="http://www.w3.org/2000/svg">
<path d="M12.5508 3.80664C13.0977 3.39648 13.5898 2.9043 13.9727 2.33008C13.4805 2.54883 12.9062 2.71289 12.332 2.76758C12.9336 2.41211 13.3711 1.86523 13.5898 1.18164C13.043 1.50977 12.4141 1.75586 11.7852 1.89258C11.2383 1.31836 10.5 0.990234 9.67969 0.990234C8.09375 0.990234 6.80859 2.27539 6.80859 3.86133C6.80859 4.08008 6.83594 4.29883 6.89062 4.51758C4.51172 4.38086 2.37891 3.23242 0.957031 1.50977C0.710938 1.91992 0.574219 2.41211 0.574219 2.95898C0.574219 3.94336 1.06641 4.81836 1.85938 5.33789C1.39453 5.31055 0.929688 5.20117 0.546875 4.98242V5.00977C0.546875 6.4043 1.53125 7.55273 2.84375 7.82617C2.625 7.88086 2.35156 7.93555 2.10547 7.93555C1.91406 7.93555 1.75 7.9082 1.55859 7.88086C1.91406 9.0293 2.98047 9.84961 4.23828 9.87695C3.25391 10.6426 2.02344 11.1074 0.683594 11.1074C0.4375 11.1074 0.21875 11.0801 0 11.0527C1.25781 11.873 2.76172 12.3379 4.40234 12.3379C9.67969 12.3379 12.5508 7.99023 12.5508 4.18945C12.5508 4.05273 12.5508 3.94336 12.5508 3.80664Z" fill="#181A1F"/>
</svg>
